G04 #@! TF.GenerationSoftware,KiCad,Pcbnew,(5.1.6)-1*
G04 #@! TF.CreationDate,2020-09-12T14:33:07+01:00*
G04 #@! TF.ProjectId,teatime,74656174-696d-4652-9e6b-696361645f70,rev?*
G04 #@! TF.SameCoordinates,Original*
G04 #@! TF.FileFunction,Copper,L2,Bot*
G04 #@! TF.FilePolarity,Positive*
%FSLAX46Y46*%
G04 Gerber Fmt 4.6, Leading zero omitted, Abs format (unit mm)*
G04 Created by KiCad (PCBNEW (5.1.6)-1) date 2020-09-12 14:33:07*
%MOMM*%
%LPD*%
G01*
G04 APERTURE LIST*
G04 #@! TA.AperFunction,SMDPad,CuDef*
%ADD10R,1.100000X2.500000*%
G04 #@! TD*
G04 #@! TA.AperFunction,ComponentPad*
%ADD11O,1.900000X3.500000*%
G04 #@! TD*
G04 #@! TA.AperFunction,ComponentPad*
%ADD12C,1.700000*%
G04 #@! TD*
G04 #@! TA.AperFunction,ComponentPad*
%ADD13C,2.000000*%
G04 #@! TD*
G04 #@! TA.AperFunction,ViaPad*
%ADD14C,0.600000*%
G04 #@! TD*
G04 #@! TA.AperFunction,Conductor*
%ADD15C,0.500000*%
G04 #@! TD*
G04 #@! TA.AperFunction,Conductor*
%ADD16C,0.200000*%
G04 #@! TD*
G04 #@! TA.AperFunction,Conductor*
%ADD17C,0.254000*%
G04 #@! TD*
G04 APERTURE END LIST*
D10*
X96500000Y-127350000D03*
X99000000Y-127350000D03*
X101000000Y-127350000D03*
X103500000Y-127350000D03*
D11*
X105700000Y-130100000D03*
X94300000Y-130100000D03*
D12*
X102480000Y-109400000D03*
X99940000Y-109400000D03*
X97400000Y-109400000D03*
X102480000Y-106860000D03*
X99940000Y-106860000D03*
G04 #@! TA.AperFunction,ComponentPad*
G36*
G01*
X96800000Y-106010000D02*
X98000000Y-106010000D01*
G75*
G02*
X98250000Y-106260000I0J-250000D01*
G01*
X98250000Y-107460000D01*
G75*
G02*
X98000000Y-107710000I-250000J0D01*
G01*
X96800000Y-107710000D01*
G75*
G02*
X96550000Y-107460000I0J250000D01*
G01*
X96550000Y-106260000D01*
G75*
G02*
X96800000Y-106010000I250000J0D01*
G01*
G37*
G04 #@! TD.AperFunction*
D13*
X103300000Y-97800000D03*
X103300000Y-102300000D03*
X96800000Y-97800000D03*
X96800000Y-102300000D03*
D14*
X83500000Y-91000000D03*
X90200000Y-89300000D03*
X110700000Y-90200000D03*
X109000000Y-83500000D03*
X89300000Y-109800000D03*
X90900000Y-116400000D03*
X109800000Y-110700000D03*
X116400000Y-109100000D03*
X83300000Y-105000000D03*
X95000000Y-83300000D03*
X116700000Y-95000000D03*
X95350000Y-127350000D03*
X105200000Y-116400000D03*
X102500000Y-118100000D03*
X99000000Y-115700000D03*
X104000000Y-113250000D03*
X98100000Y-83000000D03*
X103700000Y-86800000D03*
X97400000Y-112200000D03*
X91250000Y-92150000D03*
X92107115Y-93007115D03*
X92000000Y-87500000D03*
X90900000Y-86400000D03*
X87500000Y-108000000D03*
X86414668Y-109085332D03*
X108000000Y-112500000D03*
X109100000Y-113600000D03*
X112500000Y-92000000D03*
X113600000Y-90900000D03*
X100000000Y-125600000D03*
X101100000Y-118900000D03*
D15*
X97400000Y-109400000D02*
X97400000Y-112200000D01*
X97400000Y-112200000D02*
X97400000Y-112200000D01*
D16*
X96800000Y-97800000D02*
X103300000Y-97800000D01*
X92107115Y-93007115D02*
X91250000Y-92150000D01*
X92000000Y-87500000D02*
X90900000Y-86400000D01*
X87500000Y-108000000D02*
X86414668Y-109085332D01*
X108000000Y-112500000D02*
X109100000Y-113600000D01*
X112500000Y-92000000D02*
X113600000Y-90900000D01*
D15*
X96750000Y-125600000D02*
X100000000Y-125600000D01*
X96500000Y-127350000D02*
X96500000Y-125850000D01*
X96500000Y-125850000D02*
X96750000Y-125600000D01*
X100000000Y-125600000D02*
X100000000Y-120000000D01*
X100000000Y-120000000D02*
X101100000Y-118900000D01*
D17*
G36*
X101529728Y-75135304D02*
G01*
X103475870Y-75331974D01*
X105400596Y-75680734D01*
X107292018Y-76179429D01*
X109138469Y-76824981D01*
X110928598Y-77613421D01*
X112651336Y-78539877D01*
X114296083Y-79598648D01*
X115852683Y-80783196D01*
X117311544Y-82086217D01*
X118663676Y-83499686D01*
X119900747Y-85014893D01*
X121015115Y-86622478D01*
X121999921Y-88312543D01*
X122849087Y-90074659D01*
X123557386Y-91897982D01*
X124120442Y-93771245D01*
X124534791Y-95682918D01*
X124797873Y-97621208D01*
X124908067Y-99574154D01*
X124864696Y-101529726D01*
X124668026Y-103475870D01*
X124319266Y-105400596D01*
X123820571Y-107292019D01*
X123175019Y-109138469D01*
X122386579Y-110928598D01*
X121460123Y-112651336D01*
X120401352Y-114296083D01*
X119216811Y-115852676D01*
X117913783Y-117311543D01*
X116500314Y-118663676D01*
X114985109Y-119900745D01*
X113377522Y-121015115D01*
X111687462Y-121999918D01*
X109925341Y-122849087D01*
X108094662Y-123560244D01*
X107287178Y-123822611D01*
X107226979Y-123840872D01*
X107103636Y-123906800D01*
X106995524Y-123995525D01*
X106906799Y-124103637D01*
X106840871Y-124226980D01*
X106800272Y-124360816D01*
X106789999Y-124465123D01*
X106790000Y-128150664D01*
X106730962Y-128089434D01*
X106474983Y-127911564D01*
X106189221Y-127787051D01*
X106072588Y-127759414D01*
X105827000Y-127879416D01*
X105827000Y-129973000D01*
X105847000Y-129973000D01*
X105847000Y-130227000D01*
X105827000Y-130227000D01*
X105827000Y-130247000D01*
X105573000Y-130247000D01*
X105573000Y-130227000D01*
X104115000Y-130227000D01*
X104115000Y-131027000D01*
X104170232Y-131333778D01*
X104284252Y-131623886D01*
X104452678Y-131886175D01*
X104669038Y-132110566D01*
X104925017Y-132288436D01*
X104928606Y-132290000D01*
X95071394Y-132290000D01*
X95074983Y-132288436D01*
X95330962Y-132110566D01*
X95547322Y-131886175D01*
X95715748Y-131623886D01*
X95829768Y-131333778D01*
X95885000Y-131027000D01*
X95885000Y-130227000D01*
X94427000Y-130227000D01*
X94427000Y-130247000D01*
X94173000Y-130247000D01*
X94173000Y-130227000D01*
X94153000Y-130227000D01*
X94153000Y-129973000D01*
X94173000Y-129973000D01*
X94173000Y-127879416D01*
X94427000Y-127879416D01*
X94427000Y-129973000D01*
X95885000Y-129973000D01*
X95885000Y-129231670D01*
X95950000Y-129238072D01*
X96886084Y-129238072D01*
X96779550Y-129344606D01*
X96649866Y-129538692D01*
X96560539Y-129754348D01*
X96515000Y-129983288D01*
X96515000Y-130216712D01*
X96560539Y-130445652D01*
X96649866Y-130661308D01*
X96779550Y-130855394D01*
X96944606Y-131020450D01*
X97138692Y-131150134D01*
X97354348Y-131239461D01*
X97583288Y-131285000D01*
X97816712Y-131285000D01*
X98045652Y-131239461D01*
X98261308Y-131150134D01*
X98455394Y-131020450D01*
X98620450Y-130855394D01*
X98750134Y-130661308D01*
X98839461Y-130445652D01*
X98885000Y-130216712D01*
X98885000Y-129983288D01*
X98839461Y-129754348D01*
X98750134Y-129538692D01*
X98620450Y-129344606D01*
X98513916Y-129238072D01*
X99550000Y-129238072D01*
X99674482Y-129225812D01*
X99794180Y-129189502D01*
X99904494Y-129130537D01*
X100000000Y-129052158D01*
X100095506Y-129130537D01*
X100205820Y-129189502D01*
X100325518Y-129225812D01*
X100450000Y-129238072D01*
X101486084Y-129238072D01*
X101379550Y-129344606D01*
X101249866Y-129538692D01*
X101160539Y-129754348D01*
X101115000Y-129983288D01*
X101115000Y-130216712D01*
X101160539Y-130445652D01*
X101249866Y-130661308D01*
X101379550Y-130855394D01*
X101544606Y-131020450D01*
X101738692Y-131150134D01*
X101954348Y-131239461D01*
X102183288Y-131285000D01*
X102416712Y-131285000D01*
X102645652Y-131239461D01*
X102861308Y-131150134D01*
X103055394Y-131020450D01*
X103220450Y-130855394D01*
X103350134Y-130661308D01*
X103439461Y-130445652D01*
X103485000Y-130216712D01*
X103485000Y-129983288D01*
X103439461Y-129754348D01*
X103350134Y-129538692D01*
X103220450Y-129344606D01*
X103112032Y-129236188D01*
X103214250Y-129235000D01*
X103373000Y-129076250D01*
X103373000Y-127477000D01*
X103627000Y-127477000D01*
X103627000Y-129076250D01*
X103785750Y-129235000D01*
X104050000Y-129238072D01*
X104115000Y-129231670D01*
X104115000Y-129973000D01*
X105573000Y-129973000D01*
X105573000Y-127879416D01*
X105327412Y-127759414D01*
X105210779Y-127787051D01*
X104925017Y-127911564D01*
X104686407Y-128077365D01*
X104685000Y-127635750D01*
X104526250Y-127477000D01*
X103627000Y-127477000D01*
X103373000Y-127477000D01*
X102473750Y-127477000D01*
X102315000Y-127635750D01*
X102311928Y-128600000D01*
X102324188Y-128724482D01*
X102360498Y-128844180D01*
X102398353Y-128915000D01*
X102183288Y-128915000D01*
X102091934Y-128933171D01*
X102139502Y-128844180D01*
X102175812Y-128724482D01*
X102188072Y-128600000D01*
X102188072Y-126100000D01*
X102311928Y-126100000D01*
X102315000Y-127064250D01*
X102473750Y-127223000D01*
X103373000Y-127223000D01*
X103373000Y-125623750D01*
X103627000Y-125623750D01*
X103627000Y-127223000D01*
X104526250Y-127223000D01*
X104685000Y-127064250D01*
X104688072Y-126100000D01*
X104675812Y-125975518D01*
X104639502Y-125855820D01*
X104580537Y-125745506D01*
X104501185Y-125648815D01*
X104404494Y-125569463D01*
X104294180Y-125510498D01*
X104174482Y-125474188D01*
X104050000Y-125461928D01*
X103785750Y-125465000D01*
X103627000Y-125623750D01*
X103373000Y-125623750D01*
X103214250Y-125465000D01*
X102950000Y-125461928D01*
X102825518Y-125474188D01*
X102705820Y-125510498D01*
X102595506Y-125569463D01*
X102498815Y-125648815D01*
X102419463Y-125745506D01*
X102360498Y-125855820D01*
X102324188Y-125975518D01*
X102311928Y-126100000D01*
X102188072Y-126100000D01*
X102175812Y-125975518D01*
X102139502Y-125855820D01*
X102080537Y-125745506D01*
X102001185Y-125648815D01*
X101904494Y-125569463D01*
X101794180Y-125510498D01*
X101674482Y-125474188D01*
X101550000Y-125461928D01*
X100925853Y-125461928D01*
X100899068Y-125327271D01*
X100885000Y-125293308D01*
X100885000Y-120366578D01*
X101508924Y-119742655D01*
X101542889Y-119728586D01*
X101696028Y-119626262D01*
X101826262Y-119496028D01*
X101928586Y-119342889D01*
X101999068Y-119172729D01*
X102035000Y-118992089D01*
X102035000Y-118807911D01*
X101999068Y-118627271D01*
X101928586Y-118457111D01*
X101826262Y-118303972D01*
X101696028Y-118173738D01*
X101542889Y-118071414D01*
X101372729Y-118000932D01*
X101192089Y-117965000D01*
X101007911Y-117965000D01*
X100827271Y-118000932D01*
X100657111Y-118071414D01*
X100503972Y-118173738D01*
X100373738Y-118303972D01*
X100271414Y-118457111D01*
X100257345Y-118491076D01*
X99404951Y-119343471D01*
X99371184Y-119371183D01*
X99343471Y-119404951D01*
X99343468Y-119404954D01*
X99260590Y-119505941D01*
X99178412Y-119659687D01*
X99127805Y-119826510D01*
X99110719Y-120000000D01*
X99115001Y-120043479D01*
X99115000Y-124715000D01*
X96793465Y-124715000D01*
X96749999Y-124710719D01*
X96706533Y-124715000D01*
X96706523Y-124715000D01*
X96576510Y-124727805D01*
X96409687Y-124778411D01*
X96255941Y-124860589D01*
X96121183Y-124971183D01*
X96093466Y-125004956D01*
X95904952Y-125193470D01*
X95871184Y-125221183D01*
X95843471Y-125254951D01*
X95843468Y-125254954D01*
X95760590Y-125355941D01*
X95678412Y-125509687D01*
X95672814Y-125528140D01*
X95595506Y-125569463D01*
X95498815Y-125648815D01*
X95419463Y-125745506D01*
X95360498Y-125855820D01*
X95324188Y-125975518D01*
X95311928Y-126100000D01*
X95311928Y-128076208D01*
X95074983Y-127911564D01*
X94789221Y-127787051D01*
X94672588Y-127759414D01*
X94427000Y-127879416D01*
X94173000Y-127879416D01*
X93927412Y-127759414D01*
X93810779Y-127787051D01*
X93525017Y-127911564D01*
X93269038Y-128089434D01*
X93210000Y-128150663D01*
X93210000Y-124465122D01*
X93199727Y-124360815D01*
X93159128Y-124226979D01*
X93093200Y-124103636D01*
X93004475Y-123995524D01*
X92896363Y-123906799D01*
X92773020Y-123840871D01*
X92720302Y-123824879D01*
X90861531Y-123175019D01*
X89071402Y-122386579D01*
X87348664Y-121460123D01*
X85703917Y-120401352D01*
X84147324Y-119216811D01*
X82688457Y-117913783D01*
X81336324Y-116500314D01*
X80099255Y-114985109D01*
X78984885Y-113377522D01*
X78000082Y-111687462D01*
X77150913Y-109925341D01*
X76788825Y-108993243D01*
X85479668Y-108993243D01*
X85479668Y-109177421D01*
X85515600Y-109358061D01*
X85586082Y-109528221D01*
X85688406Y-109681360D01*
X85818640Y-109811594D01*
X85971779Y-109913918D01*
X86141939Y-109984400D01*
X86322579Y-110020332D01*
X86506757Y-110020332D01*
X86687397Y-109984400D01*
X86857557Y-109913918D01*
X87010696Y-109811594D01*
X87140930Y-109681360D01*
X87243254Y-109528221D01*
X87313736Y-109358061D01*
X87346600Y-109192847D01*
X87607515Y-108931932D01*
X87772729Y-108899068D01*
X87942889Y-108828586D01*
X88096028Y-108726262D01*
X88226262Y-108596028D01*
X88328586Y-108442889D01*
X88399068Y-108272729D01*
X88435000Y-108092089D01*
X88435000Y-107907911D01*
X88399068Y-107727271D01*
X88328586Y-107557111D01*
X88226262Y-107403972D01*
X88096028Y-107273738D01*
X87942889Y-107171414D01*
X87772729Y-107100932D01*
X87592089Y-107065000D01*
X87407911Y-107065000D01*
X87227271Y-107100932D01*
X87057111Y-107171414D01*
X86903972Y-107273738D01*
X86773738Y-107403972D01*
X86671414Y-107557111D01*
X86600932Y-107727271D01*
X86568068Y-107892485D01*
X86307153Y-108153400D01*
X86141939Y-108186264D01*
X85971779Y-108256746D01*
X85818640Y-108359070D01*
X85688406Y-108489304D01*
X85586082Y-108642443D01*
X85515600Y-108812603D01*
X85479668Y-108993243D01*
X76788825Y-108993243D01*
X76442614Y-108102018D01*
X75888950Y-106260000D01*
X95911928Y-106260000D01*
X95911928Y-107460000D01*
X95928992Y-107633254D01*
X95979528Y-107799850D01*
X96061595Y-107953386D01*
X96172038Y-108087962D01*
X96306614Y-108198405D01*
X96433608Y-108266285D01*
X96246525Y-108453368D01*
X96084010Y-108696589D01*
X95972068Y-108966842D01*
X95915000Y-109253740D01*
X95915000Y-109546260D01*
X95972068Y-109833158D01*
X96084010Y-110103411D01*
X96246525Y-110346632D01*
X96453368Y-110553475D01*
X96515000Y-110594656D01*
X96515001Y-111893305D01*
X96500932Y-111927271D01*
X96465000Y-112107911D01*
X96465000Y-112292089D01*
X96500932Y-112472729D01*
X96571414Y-112642889D01*
X96673738Y-112796028D01*
X96803972Y-112926262D01*
X96957111Y-113028586D01*
X97127271Y-113099068D01*
X97307911Y-113135000D01*
X97492089Y-113135000D01*
X97672729Y-113099068D01*
X97842889Y-113028586D01*
X97996028Y-112926262D01*
X98126262Y-112796028D01*
X98228586Y-112642889D01*
X98299068Y-112472729D01*
X98311961Y-112407911D01*
X107065000Y-112407911D01*
X107065000Y-112592089D01*
X107100932Y-112772729D01*
X107171414Y-112942889D01*
X107273738Y-113096028D01*
X107403972Y-113226262D01*
X107557111Y-113328586D01*
X107727271Y-113399068D01*
X107892485Y-113431932D01*
X108168068Y-113707515D01*
X108200932Y-113872729D01*
X108271414Y-114042889D01*
X108373738Y-114196028D01*
X108503972Y-114326262D01*
X108657111Y-114428586D01*
X108827271Y-114499068D01*
X109007911Y-114535000D01*
X109192089Y-114535000D01*
X109372729Y-114499068D01*
X109542889Y-114428586D01*
X109696028Y-114326262D01*
X109826262Y-114196028D01*
X109928586Y-114042889D01*
X109999068Y-113872729D01*
X110035000Y-113692089D01*
X110035000Y-113507911D01*
X109999068Y-113327271D01*
X109928586Y-113157111D01*
X109826262Y-113003972D01*
X109696028Y-112873738D01*
X109542889Y-112771414D01*
X109372729Y-112700932D01*
X109207515Y-112668068D01*
X108931932Y-112392485D01*
X108899068Y-112227271D01*
X108828586Y-112057111D01*
X108726262Y-111903972D01*
X108596028Y-111773738D01*
X108442889Y-111671414D01*
X108272729Y-111600932D01*
X108092089Y-111565000D01*
X107907911Y-111565000D01*
X107727271Y-111600932D01*
X107557111Y-111671414D01*
X107403972Y-111773738D01*
X107273738Y-111903972D01*
X107171414Y-112057111D01*
X107100932Y-112227271D01*
X107065000Y-112407911D01*
X98311961Y-112407911D01*
X98335000Y-112292089D01*
X98335000Y-112107911D01*
X98299068Y-111927271D01*
X98285000Y-111893308D01*
X98285000Y-110594656D01*
X98346632Y-110553475D01*
X98553475Y-110346632D01*
X98670000Y-110172240D01*
X98786525Y-110346632D01*
X98993368Y-110553475D01*
X99236589Y-110715990D01*
X99506842Y-110827932D01*
X99793740Y-110885000D01*
X100086260Y-110885000D01*
X100373158Y-110827932D01*
X100643411Y-110715990D01*
X100886632Y-110553475D01*
X101011710Y-110428397D01*
X101631208Y-110428397D01*
X101708843Y-110677472D01*
X101972883Y-110803371D01*
X102256411Y-110875339D01*
X102548531Y-110890611D01*
X102838019Y-110848599D01*
X103113747Y-110750919D01*
X103251157Y-110677472D01*
X103328792Y-110428397D01*
X102480000Y-109579605D01*
X101631208Y-110428397D01*
X101011710Y-110428397D01*
X101093475Y-110346632D01*
X101209311Y-110173271D01*
X101451603Y-110248792D01*
X102300395Y-109400000D01*
X102659605Y-109400000D01*
X103508397Y-110248792D01*
X103757472Y-110171157D01*
X103883371Y-109907117D01*
X103955339Y-109623589D01*
X103970611Y-109331469D01*
X103928599Y-109041981D01*
X103830919Y-108766253D01*
X103757472Y-108628843D01*
X103508397Y-108551208D01*
X102659605Y-109400000D01*
X102300395Y-109400000D01*
X101451603Y-108551208D01*
X101209311Y-108626729D01*
X101093475Y-108453368D01*
X100886632Y-108246525D01*
X100712240Y-108130000D01*
X100886632Y-108013475D01*
X101093475Y-107806632D01*
X101210000Y-107632240D01*
X101326525Y-107806632D01*
X101533368Y-108013475D01*
X101706729Y-108129311D01*
X101631208Y-108371603D01*
X102480000Y-109220395D01*
X103328792Y-108371603D01*
X103253271Y-108129311D01*
X103426632Y-108013475D01*
X103633475Y-107806632D01*
X103795990Y-107563411D01*
X103907932Y-107293158D01*
X103965000Y-107006260D01*
X103965000Y-106713740D01*
X103907932Y-106426842D01*
X103795990Y-106156589D01*
X103633475Y-105913368D01*
X103426632Y-105706525D01*
X103183411Y-105544010D01*
X102913158Y-105432068D01*
X102626260Y-105375000D01*
X102333740Y-105375000D01*
X102046842Y-105432068D01*
X101776589Y-105544010D01*
X101533368Y-105706525D01*
X101326525Y-105913368D01*
X101210000Y-106087760D01*
X101093475Y-105913368D01*
X100886632Y-105706525D01*
X100643411Y-105544010D01*
X100373158Y-105432068D01*
X100086260Y-105375000D01*
X99793740Y-105375000D01*
X99506842Y-105432068D01*
X99236589Y-105544010D01*
X98993368Y-105706525D01*
X98806285Y-105893608D01*
X98738405Y-105766614D01*
X98627962Y-105632038D01*
X98493386Y-105521595D01*
X98339850Y-105439528D01*
X98173254Y-105388992D01*
X98000000Y-105371928D01*
X96800000Y-105371928D01*
X96626746Y-105388992D01*
X96460150Y-105439528D01*
X96306614Y-105521595D01*
X96172038Y-105632038D01*
X96061595Y-105766614D01*
X95979528Y-105920150D01*
X95928992Y-106086746D01*
X95911928Y-106260000D01*
X75888950Y-106260000D01*
X75879557Y-106228752D01*
X75465209Y-104317082D01*
X75345542Y-103435413D01*
X95844192Y-103435413D01*
X95939956Y-103699814D01*
X96229571Y-103840704D01*
X96541108Y-103922384D01*
X96862595Y-103941718D01*
X97181675Y-103897961D01*
X97486088Y-103792795D01*
X97660044Y-103699814D01*
X97755808Y-103435413D01*
X102344192Y-103435413D01*
X102439956Y-103699814D01*
X102729571Y-103840704D01*
X103041108Y-103922384D01*
X103362595Y-103941718D01*
X103681675Y-103897961D01*
X103986088Y-103792795D01*
X104160044Y-103699814D01*
X104255808Y-103435413D01*
X103300000Y-102479605D01*
X102344192Y-103435413D01*
X97755808Y-103435413D01*
X96800000Y-102479605D01*
X95844192Y-103435413D01*
X75345542Y-103435413D01*
X75202127Y-102378792D01*
X75201214Y-102362595D01*
X95158282Y-102362595D01*
X95202039Y-102681675D01*
X95307205Y-102986088D01*
X95400186Y-103160044D01*
X95664587Y-103255808D01*
X96620395Y-102300000D01*
X96979605Y-102300000D01*
X97935413Y-103255808D01*
X98199814Y-103160044D01*
X98340704Y-102870429D01*
X98422384Y-102558892D01*
X98434189Y-102362595D01*
X101658282Y-102362595D01*
X101702039Y-102681675D01*
X101807205Y-102986088D01*
X101900186Y-103160044D01*
X102164587Y-103255808D01*
X103120395Y-102300000D01*
X103479605Y-102300000D01*
X104435413Y-103255808D01*
X104699814Y-103160044D01*
X104840704Y-102870429D01*
X104922384Y-102558892D01*
X104941718Y-102237405D01*
X104897961Y-101918325D01*
X104792795Y-101613912D01*
X104699814Y-101439956D01*
X104435413Y-101344192D01*
X103479605Y-102300000D01*
X103120395Y-102300000D01*
X102164587Y-101344192D01*
X101900186Y-101439956D01*
X101759296Y-101729571D01*
X101677616Y-102041108D01*
X101658282Y-102362595D01*
X98434189Y-102362595D01*
X98441718Y-102237405D01*
X98397961Y-101918325D01*
X98292795Y-101613912D01*
X98199814Y-101439956D01*
X97935413Y-101344192D01*
X96979605Y-102300000D01*
X96620395Y-102300000D01*
X95664587Y-101344192D01*
X95400186Y-101439956D01*
X95259296Y-101729571D01*
X95177616Y-102041108D01*
X95158282Y-102362595D01*
X75201214Y-102362595D01*
X75091933Y-100425846D01*
X75106259Y-99779872D01*
X81765000Y-99779872D01*
X81765000Y-100220128D01*
X81850890Y-100651925D01*
X82019369Y-101058669D01*
X82263962Y-101424729D01*
X82575271Y-101736038D01*
X82941331Y-101980631D01*
X83348075Y-102149110D01*
X83779872Y-102235000D01*
X84220128Y-102235000D01*
X84651925Y-102149110D01*
X85058669Y-101980631D01*
X85424729Y-101736038D01*
X85736038Y-101424729D01*
X85909858Y-101164587D01*
X95844192Y-101164587D01*
X96800000Y-102120395D01*
X97755808Y-101164587D01*
X102344192Y-101164587D01*
X103300000Y-102120395D01*
X104255808Y-101164587D01*
X104160044Y-100900186D01*
X103870429Y-100759296D01*
X103558892Y-100677616D01*
X103237405Y-100658282D01*
X102918325Y-100702039D01*
X102613912Y-100807205D01*
X102439956Y-100900186D01*
X102344192Y-101164587D01*
X97755808Y-101164587D01*
X97660044Y-100900186D01*
X97370429Y-100759296D01*
X97058892Y-100677616D01*
X96737405Y-100658282D01*
X96418325Y-100702039D01*
X96113912Y-100807205D01*
X95939956Y-100900186D01*
X95844192Y-101164587D01*
X85909858Y-101164587D01*
X85980631Y-101058669D01*
X86149110Y-100651925D01*
X86235000Y-100220128D01*
X86235000Y-99779872D01*
X113765000Y-99779872D01*
X113765000Y-100220128D01*
X113850890Y-100651925D01*
X114019369Y-101058669D01*
X114263962Y-101424729D01*
X114575271Y-101736038D01*
X114941331Y-101980631D01*
X115348075Y-102149110D01*
X115779872Y-102235000D01*
X116220128Y-102235000D01*
X116651925Y-102149110D01*
X117058669Y-101980631D01*
X117424729Y-101736038D01*
X117736038Y-101424729D01*
X117980631Y-101058669D01*
X118149110Y-100651925D01*
X118235000Y-100220128D01*
X118235000Y-99779872D01*
X118149110Y-99348075D01*
X117980631Y-98941331D01*
X117736038Y-98575271D01*
X117424729Y-98263962D01*
X117058669Y-98019369D01*
X116651925Y-97850890D01*
X116220128Y-97765000D01*
X115779872Y-97765000D01*
X115348075Y-97850890D01*
X114941331Y-98019369D01*
X114575271Y-98263962D01*
X114263962Y-98575271D01*
X114019369Y-98941331D01*
X113850890Y-99348075D01*
X113765000Y-99779872D01*
X86235000Y-99779872D01*
X86149110Y-99348075D01*
X85980631Y-98941331D01*
X85736038Y-98575271D01*
X85424729Y-98263962D01*
X85058669Y-98019369D01*
X84651925Y-97850890D01*
X84220128Y-97765000D01*
X83779872Y-97765000D01*
X83348075Y-97850890D01*
X82941331Y-98019369D01*
X82575271Y-98263962D01*
X82263962Y-98575271D01*
X82019369Y-98941331D01*
X81850890Y-99348075D01*
X81765000Y-99779872D01*
X75106259Y-99779872D01*
X75135304Y-98470272D01*
X75219312Y-97638967D01*
X95165000Y-97638967D01*
X95165000Y-97961033D01*
X95227832Y-98276912D01*
X95351082Y-98574463D01*
X95530013Y-98842252D01*
X95757748Y-99069987D01*
X96025537Y-99248918D01*
X96323088Y-99372168D01*
X96638967Y-99435000D01*
X96961033Y-99435000D01*
X97276912Y-99372168D01*
X97574463Y-99248918D01*
X97842252Y-99069987D01*
X98069987Y-98842252D01*
X98248918Y-98574463D01*
X98265264Y-98535000D01*
X101834736Y-98535000D01*
X101851082Y-98574463D01*
X102030013Y-98842252D01*
X102257748Y-99069987D01*
X102525537Y-99248918D01*
X102823088Y-99372168D01*
X103138967Y-99435000D01*
X103461033Y-99435000D01*
X103776912Y-99372168D01*
X104074463Y-99248918D01*
X104342252Y-99069987D01*
X104569987Y-98842252D01*
X104748918Y-98574463D01*
X104872168Y-98276912D01*
X104935000Y-97961033D01*
X104935000Y-97638967D01*
X104872168Y-97323088D01*
X104748918Y-97025537D01*
X104569987Y-96757748D01*
X104342252Y-96530013D01*
X104074463Y-96351082D01*
X103776912Y-96227832D01*
X103461033Y-96165000D01*
X103138967Y-96165000D01*
X102823088Y-96227832D01*
X102525537Y-96351082D01*
X102257748Y-96530013D01*
X102030013Y-96757748D01*
X101851082Y-97025537D01*
X101834736Y-97065000D01*
X98265264Y-97065000D01*
X98248918Y-97025537D01*
X98069987Y-96757748D01*
X97842252Y-96530013D01*
X97574463Y-96351082D01*
X97276912Y-96227832D01*
X96961033Y-96165000D01*
X96638967Y-96165000D01*
X96323088Y-96227832D01*
X96025537Y-96351082D01*
X95757748Y-96530013D01*
X95530013Y-96757748D01*
X95351082Y-97025537D01*
X95227832Y-97323088D01*
X95165000Y-97638967D01*
X75219312Y-97638967D01*
X75331974Y-96524130D01*
X75680734Y-94599404D01*
X76179429Y-92707982D01*
X76406705Y-92057911D01*
X90315000Y-92057911D01*
X90315000Y-92242089D01*
X90350932Y-92422729D01*
X90421414Y-92592889D01*
X90523738Y-92746028D01*
X90653972Y-92876262D01*
X90807111Y-92978586D01*
X90977271Y-93049068D01*
X91142485Y-93081932D01*
X91175183Y-93114630D01*
X91208047Y-93279844D01*
X91278529Y-93450004D01*
X91380853Y-93603143D01*
X91511087Y-93733377D01*
X91664226Y-93835701D01*
X91834386Y-93906183D01*
X92015026Y-93942115D01*
X92199204Y-93942115D01*
X92379844Y-93906183D01*
X92550004Y-93835701D01*
X92703143Y-93733377D01*
X92833377Y-93603143D01*
X92935701Y-93450004D01*
X93006183Y-93279844D01*
X93042115Y-93099204D01*
X93042115Y-92915026D01*
X93006183Y-92734386D01*
X92935701Y-92564226D01*
X92833377Y-92411087D01*
X92703143Y-92280853D01*
X92550004Y-92178529D01*
X92379844Y-92108047D01*
X92214630Y-92075183D01*
X92181932Y-92042485D01*
X92155163Y-91907911D01*
X111565000Y-91907911D01*
X111565000Y-92092089D01*
X111600932Y-92272729D01*
X111671414Y-92442889D01*
X111773738Y-92596028D01*
X111903972Y-92726262D01*
X112057111Y-92828586D01*
X112227271Y-92899068D01*
X112407911Y-92935000D01*
X112592089Y-92935000D01*
X112772729Y-92899068D01*
X112942889Y-92828586D01*
X113096028Y-92726262D01*
X113226262Y-92596028D01*
X113328586Y-92442889D01*
X113399068Y-92272729D01*
X113431932Y-92107515D01*
X113707515Y-91831932D01*
X113872729Y-91799068D01*
X114042889Y-91728586D01*
X114196028Y-91626262D01*
X114326262Y-91496028D01*
X114428586Y-91342889D01*
X114499068Y-91172729D01*
X114535000Y-90992089D01*
X114535000Y-90807911D01*
X114499068Y-90627271D01*
X114428586Y-90457111D01*
X114326262Y-90303972D01*
X114196028Y-90173738D01*
X114042889Y-90071414D01*
X113872729Y-90000932D01*
X113692089Y-89965000D01*
X113507911Y-89965000D01*
X113327271Y-90000932D01*
X113157111Y-90071414D01*
X113003972Y-90173738D01*
X112873738Y-90303972D01*
X112771414Y-90457111D01*
X112700932Y-90627271D01*
X112668068Y-90792485D01*
X112392485Y-91068068D01*
X112227271Y-91100932D01*
X112057111Y-91171414D01*
X111903972Y-91273738D01*
X111773738Y-91403972D01*
X111671414Y-91557111D01*
X111600932Y-91727271D01*
X111565000Y-91907911D01*
X92155163Y-91907911D01*
X92149068Y-91877271D01*
X92078586Y-91707111D01*
X91976262Y-91553972D01*
X91846028Y-91423738D01*
X91692889Y-91321414D01*
X91522729Y-91250932D01*
X91342089Y-91215000D01*
X91157911Y-91215000D01*
X90977271Y-91250932D01*
X90807111Y-91321414D01*
X90653972Y-91423738D01*
X90523738Y-91553972D01*
X90421414Y-91707111D01*
X90350932Y-91877271D01*
X90315000Y-92057911D01*
X76406705Y-92057911D01*
X76824981Y-90861531D01*
X77613421Y-89071402D01*
X78539877Y-87348664D01*
X79209839Y-86307911D01*
X89965000Y-86307911D01*
X89965000Y-86492089D01*
X90000932Y-86672729D01*
X90071414Y-86842889D01*
X90173738Y-86996028D01*
X90303972Y-87126262D01*
X90457111Y-87228586D01*
X90627271Y-87299068D01*
X90792485Y-87331932D01*
X91068068Y-87607515D01*
X91100932Y-87772729D01*
X91171414Y-87942889D01*
X91273738Y-88096028D01*
X91403972Y-88226262D01*
X91557111Y-88328586D01*
X91727271Y-88399068D01*
X91907911Y-88435000D01*
X92092089Y-88435000D01*
X92272729Y-88399068D01*
X92442889Y-88328586D01*
X92596028Y-88226262D01*
X92726262Y-88096028D01*
X92828586Y-87942889D01*
X92899068Y-87772729D01*
X92935000Y-87592089D01*
X92935000Y-87407911D01*
X92899068Y-87227271D01*
X92828586Y-87057111D01*
X92726262Y-86903972D01*
X92596028Y-86773738D01*
X92442889Y-86671414D01*
X92272729Y-86600932D01*
X92107515Y-86568068D01*
X91831932Y-86292485D01*
X91799068Y-86127271D01*
X91728586Y-85957111D01*
X91626262Y-85803972D01*
X91496028Y-85673738D01*
X91342889Y-85571414D01*
X91172729Y-85500932D01*
X90992089Y-85465000D01*
X90807911Y-85465000D01*
X90627271Y-85500932D01*
X90457111Y-85571414D01*
X90303972Y-85673738D01*
X90173738Y-85803972D01*
X90071414Y-85957111D01*
X90000932Y-86127271D01*
X89965000Y-86307911D01*
X79209839Y-86307911D01*
X79598648Y-85703917D01*
X80783196Y-84147317D01*
X82086217Y-82688456D01*
X83499686Y-81336324D01*
X85014893Y-80099253D01*
X86622478Y-78984885D01*
X88312543Y-78000079D01*
X90074659Y-77150913D01*
X91897982Y-76442614D01*
X93771245Y-75879558D01*
X95682918Y-75465209D01*
X97621208Y-75202127D01*
X99574154Y-75091933D01*
X101529728Y-75135304D01*
G37*
X101529728Y-75135304D02*
X103475870Y-75331974D01*
X105400596Y-75680734D01*
X107292018Y-76179429D01*
X109138469Y-76824981D01*
X110928598Y-77613421D01*
X112651336Y-78539877D01*
X114296083Y-79598648D01*
X115852683Y-80783196D01*
X117311544Y-82086217D01*
X118663676Y-83499686D01*
X119900747Y-85014893D01*
X121015115Y-86622478D01*
X121999921Y-88312543D01*
X122849087Y-90074659D01*
X123557386Y-91897982D01*
X124120442Y-93771245D01*
X124534791Y-95682918D01*
X124797873Y-97621208D01*
X124908067Y-99574154D01*
X124864696Y-101529726D01*
X124668026Y-103475870D01*
X124319266Y-105400596D01*
X123820571Y-107292019D01*
X123175019Y-109138469D01*
X122386579Y-110928598D01*
X121460123Y-112651336D01*
X120401352Y-114296083D01*
X119216811Y-115852676D01*
X117913783Y-117311543D01*
X116500314Y-118663676D01*
X114985109Y-119900745D01*
X113377522Y-121015115D01*
X111687462Y-121999918D01*
X109925341Y-122849087D01*
X108094662Y-123560244D01*
X107287178Y-123822611D01*
X107226979Y-123840872D01*
X107103636Y-123906800D01*
X106995524Y-123995525D01*
X106906799Y-124103637D01*
X106840871Y-124226980D01*
X106800272Y-124360816D01*
X106789999Y-124465123D01*
X106790000Y-128150664D01*
X106730962Y-128089434D01*
X106474983Y-127911564D01*
X106189221Y-127787051D01*
X106072588Y-127759414D01*
X105827000Y-127879416D01*
X105827000Y-129973000D01*
X105847000Y-129973000D01*
X105847000Y-130227000D01*
X105827000Y-130227000D01*
X105827000Y-130247000D01*
X105573000Y-130247000D01*
X105573000Y-130227000D01*
X104115000Y-130227000D01*
X104115000Y-131027000D01*
X104170232Y-131333778D01*
X104284252Y-131623886D01*
X104452678Y-131886175D01*
X104669038Y-132110566D01*
X104925017Y-132288436D01*
X104928606Y-132290000D01*
X95071394Y-132290000D01*
X95074983Y-132288436D01*
X95330962Y-132110566D01*
X95547322Y-131886175D01*
X95715748Y-131623886D01*
X95829768Y-131333778D01*
X95885000Y-131027000D01*
X95885000Y-130227000D01*
X94427000Y-130227000D01*
X94427000Y-130247000D01*
X94173000Y-130247000D01*
X94173000Y-130227000D01*
X94153000Y-130227000D01*
X94153000Y-129973000D01*
X94173000Y-129973000D01*
X94173000Y-127879416D01*
X94427000Y-127879416D01*
X94427000Y-129973000D01*
X95885000Y-129973000D01*
X95885000Y-129231670D01*
X95950000Y-129238072D01*
X96886084Y-129238072D01*
X96779550Y-129344606D01*
X96649866Y-129538692D01*
X96560539Y-129754348D01*
X96515000Y-129983288D01*
X96515000Y-130216712D01*
X96560539Y-130445652D01*
X96649866Y-130661308D01*
X96779550Y-130855394D01*
X96944606Y-131020450D01*
X97138692Y-131150134D01*
X97354348Y-131239461D01*
X97583288Y-131285000D01*
X97816712Y-131285000D01*
X98045652Y-131239461D01*
X98261308Y-131150134D01*
X98455394Y-131020450D01*
X98620450Y-130855394D01*
X98750134Y-130661308D01*
X98839461Y-130445652D01*
X98885000Y-130216712D01*
X98885000Y-129983288D01*
X98839461Y-129754348D01*
X98750134Y-129538692D01*
X98620450Y-129344606D01*
X98513916Y-129238072D01*
X99550000Y-129238072D01*
X99674482Y-129225812D01*
X99794180Y-129189502D01*
X99904494Y-129130537D01*
X100000000Y-129052158D01*
X100095506Y-129130537D01*
X100205820Y-129189502D01*
X100325518Y-129225812D01*
X100450000Y-129238072D01*
X101486084Y-129238072D01*
X101379550Y-129344606D01*
X101249866Y-129538692D01*
X101160539Y-129754348D01*
X101115000Y-129983288D01*
X101115000Y-130216712D01*
X101160539Y-130445652D01*
X101249866Y-130661308D01*
X101379550Y-130855394D01*
X101544606Y-131020450D01*
X101738692Y-131150134D01*
X101954348Y-131239461D01*
X102183288Y-131285000D01*
X102416712Y-131285000D01*
X102645652Y-131239461D01*
X102861308Y-131150134D01*
X103055394Y-131020450D01*
X103220450Y-130855394D01*
X103350134Y-130661308D01*
X103439461Y-130445652D01*
X103485000Y-130216712D01*
X103485000Y-129983288D01*
X103439461Y-129754348D01*
X103350134Y-129538692D01*
X103220450Y-129344606D01*
X103112032Y-129236188D01*
X103214250Y-129235000D01*
X103373000Y-129076250D01*
X103373000Y-127477000D01*
X103627000Y-127477000D01*
X103627000Y-129076250D01*
X103785750Y-129235000D01*
X104050000Y-129238072D01*
X104115000Y-129231670D01*
X104115000Y-129973000D01*
X105573000Y-129973000D01*
X105573000Y-127879416D01*
X105327412Y-127759414D01*
X105210779Y-127787051D01*
X104925017Y-127911564D01*
X104686407Y-128077365D01*
X104685000Y-127635750D01*
X104526250Y-127477000D01*
X103627000Y-127477000D01*
X103373000Y-127477000D01*
X102473750Y-127477000D01*
X102315000Y-127635750D01*
X102311928Y-128600000D01*
X102324188Y-128724482D01*
X102360498Y-128844180D01*
X102398353Y-128915000D01*
X102183288Y-128915000D01*
X102091934Y-128933171D01*
X102139502Y-128844180D01*
X102175812Y-128724482D01*
X102188072Y-128600000D01*
X102188072Y-126100000D01*
X102311928Y-126100000D01*
X102315000Y-127064250D01*
X102473750Y-127223000D01*
X103373000Y-127223000D01*
X103373000Y-125623750D01*
X103627000Y-125623750D01*
X103627000Y-127223000D01*
X104526250Y-127223000D01*
X104685000Y-127064250D01*
X104688072Y-126100000D01*
X104675812Y-125975518D01*
X104639502Y-125855820D01*
X104580537Y-125745506D01*
X104501185Y-125648815D01*
X104404494Y-125569463D01*
X104294180Y-125510498D01*
X104174482Y-125474188D01*
X104050000Y-125461928D01*
X103785750Y-125465000D01*
X103627000Y-125623750D01*
X103373000Y-125623750D01*
X103214250Y-125465000D01*
X102950000Y-125461928D01*
X102825518Y-125474188D01*
X102705820Y-125510498D01*
X102595506Y-125569463D01*
X102498815Y-125648815D01*
X102419463Y-125745506D01*
X102360498Y-125855820D01*
X102324188Y-125975518D01*
X102311928Y-126100000D01*
X102188072Y-126100000D01*
X102175812Y-125975518D01*
X102139502Y-125855820D01*
X102080537Y-125745506D01*
X102001185Y-125648815D01*
X101904494Y-125569463D01*
X101794180Y-125510498D01*
X101674482Y-125474188D01*
X101550000Y-125461928D01*
X100925853Y-125461928D01*
X100899068Y-125327271D01*
X100885000Y-125293308D01*
X100885000Y-120366578D01*
X101508924Y-119742655D01*
X101542889Y-119728586D01*
X101696028Y-119626262D01*
X101826262Y-119496028D01*
X101928586Y-119342889D01*
X101999068Y-119172729D01*
X102035000Y-118992089D01*
X102035000Y-118807911D01*
X101999068Y-118627271D01*
X101928586Y-118457111D01*
X101826262Y-118303972D01*
X101696028Y-118173738D01*
X101542889Y-118071414D01*
X101372729Y-118000932D01*
X101192089Y-117965000D01*
X101007911Y-117965000D01*
X100827271Y-118000932D01*
X100657111Y-118071414D01*
X100503972Y-118173738D01*
X100373738Y-118303972D01*
X100271414Y-118457111D01*
X100257345Y-118491076D01*
X99404951Y-119343471D01*
X99371184Y-119371183D01*
X99343471Y-119404951D01*
X99343468Y-119404954D01*
X99260590Y-119505941D01*
X99178412Y-119659687D01*
X99127805Y-119826510D01*
X99110719Y-120000000D01*
X99115001Y-120043479D01*
X99115000Y-124715000D01*
X96793465Y-124715000D01*
X96749999Y-124710719D01*
X96706533Y-124715000D01*
X96706523Y-124715000D01*
X96576510Y-124727805D01*
X96409687Y-124778411D01*
X96255941Y-124860589D01*
X96121183Y-124971183D01*
X96093466Y-125004956D01*
X95904952Y-125193470D01*
X95871184Y-125221183D01*
X95843471Y-125254951D01*
X95843468Y-125254954D01*
X95760590Y-125355941D01*
X95678412Y-125509687D01*
X95672814Y-125528140D01*
X95595506Y-125569463D01*
X95498815Y-125648815D01*
X95419463Y-125745506D01*
X95360498Y-125855820D01*
X95324188Y-125975518D01*
X95311928Y-126100000D01*
X95311928Y-128076208D01*
X95074983Y-127911564D01*
X94789221Y-127787051D01*
X94672588Y-127759414D01*
X94427000Y-127879416D01*
X94173000Y-127879416D01*
X93927412Y-127759414D01*
X93810779Y-127787051D01*
X93525017Y-127911564D01*
X93269038Y-128089434D01*
X93210000Y-128150663D01*
X93210000Y-124465122D01*
X93199727Y-124360815D01*
X93159128Y-124226979D01*
X93093200Y-124103636D01*
X93004475Y-123995524D01*
X92896363Y-123906799D01*
X92773020Y-123840871D01*
X92720302Y-123824879D01*
X90861531Y-123175019D01*
X89071402Y-122386579D01*
X87348664Y-121460123D01*
X85703917Y-120401352D01*
X84147324Y-119216811D01*
X82688457Y-117913783D01*
X81336324Y-116500314D01*
X80099255Y-114985109D01*
X78984885Y-113377522D01*
X78000082Y-111687462D01*
X77150913Y-109925341D01*
X76788825Y-108993243D01*
X85479668Y-108993243D01*
X85479668Y-109177421D01*
X85515600Y-109358061D01*
X85586082Y-109528221D01*
X85688406Y-109681360D01*
X85818640Y-109811594D01*
X85971779Y-109913918D01*
X86141939Y-109984400D01*
X86322579Y-110020332D01*
X86506757Y-110020332D01*
X86687397Y-109984400D01*
X86857557Y-109913918D01*
X87010696Y-109811594D01*
X87140930Y-109681360D01*
X87243254Y-109528221D01*
X87313736Y-109358061D01*
X87346600Y-109192847D01*
X87607515Y-108931932D01*
X87772729Y-108899068D01*
X87942889Y-108828586D01*
X88096028Y-108726262D01*
X88226262Y-108596028D01*
X88328586Y-108442889D01*
X88399068Y-108272729D01*
X88435000Y-108092089D01*
X88435000Y-107907911D01*
X88399068Y-107727271D01*
X88328586Y-107557111D01*
X88226262Y-107403972D01*
X88096028Y-107273738D01*
X87942889Y-107171414D01*
X87772729Y-107100932D01*
X87592089Y-107065000D01*
X87407911Y-107065000D01*
X87227271Y-107100932D01*
X87057111Y-107171414D01*
X86903972Y-107273738D01*
X86773738Y-107403972D01*
X86671414Y-107557111D01*
X86600932Y-107727271D01*
X86568068Y-107892485D01*
X86307153Y-108153400D01*
X86141939Y-108186264D01*
X85971779Y-108256746D01*
X85818640Y-108359070D01*
X85688406Y-108489304D01*
X85586082Y-108642443D01*
X85515600Y-108812603D01*
X85479668Y-108993243D01*
X76788825Y-108993243D01*
X76442614Y-108102018D01*
X75888950Y-106260000D01*
X95911928Y-106260000D01*
X95911928Y-107460000D01*
X95928992Y-107633254D01*
X95979528Y-107799850D01*
X96061595Y-107953386D01*
X96172038Y-108087962D01*
X96306614Y-108198405D01*
X96433608Y-108266285D01*
X96246525Y-108453368D01*
X96084010Y-108696589D01*
X95972068Y-108966842D01*
X95915000Y-109253740D01*
X95915000Y-109546260D01*
X95972068Y-109833158D01*
X96084010Y-110103411D01*
X96246525Y-110346632D01*
X96453368Y-110553475D01*
X96515000Y-110594656D01*
X96515001Y-111893305D01*
X96500932Y-111927271D01*
X96465000Y-112107911D01*
X96465000Y-112292089D01*
X96500932Y-112472729D01*
X96571414Y-112642889D01*
X96673738Y-112796028D01*
X96803972Y-112926262D01*
X96957111Y-113028586D01*
X97127271Y-113099068D01*
X97307911Y-113135000D01*
X97492089Y-113135000D01*
X97672729Y-113099068D01*
X97842889Y-113028586D01*
X97996028Y-112926262D01*
X98126262Y-112796028D01*
X98228586Y-112642889D01*
X98299068Y-112472729D01*
X98311961Y-112407911D01*
X107065000Y-112407911D01*
X107065000Y-112592089D01*
X107100932Y-112772729D01*
X107171414Y-112942889D01*
X107273738Y-113096028D01*
X107403972Y-113226262D01*
X107557111Y-113328586D01*
X107727271Y-113399068D01*
X107892485Y-113431932D01*
X108168068Y-113707515D01*
X108200932Y-113872729D01*
X108271414Y-114042889D01*
X108373738Y-114196028D01*
X108503972Y-114326262D01*
X108657111Y-114428586D01*
X108827271Y-114499068D01*
X109007911Y-114535000D01*
X109192089Y-114535000D01*
X109372729Y-114499068D01*
X109542889Y-114428586D01*
X109696028Y-114326262D01*
X109826262Y-114196028D01*
X109928586Y-114042889D01*
X109999068Y-113872729D01*
X110035000Y-113692089D01*
X110035000Y-113507911D01*
X109999068Y-113327271D01*
X109928586Y-113157111D01*
X109826262Y-113003972D01*
X109696028Y-112873738D01*
X109542889Y-112771414D01*
X109372729Y-112700932D01*
X109207515Y-112668068D01*
X108931932Y-112392485D01*
X108899068Y-112227271D01*
X108828586Y-112057111D01*
X108726262Y-111903972D01*
X108596028Y-111773738D01*
X108442889Y-111671414D01*
X108272729Y-111600932D01*
X108092089Y-111565000D01*
X107907911Y-111565000D01*
X107727271Y-111600932D01*
X107557111Y-111671414D01*
X107403972Y-111773738D01*
X107273738Y-111903972D01*
X107171414Y-112057111D01*
X107100932Y-112227271D01*
X107065000Y-112407911D01*
X98311961Y-112407911D01*
X98335000Y-112292089D01*
X98335000Y-112107911D01*
X98299068Y-111927271D01*
X98285000Y-111893308D01*
X98285000Y-110594656D01*
X98346632Y-110553475D01*
X98553475Y-110346632D01*
X98670000Y-110172240D01*
X98786525Y-110346632D01*
X98993368Y-110553475D01*
X99236589Y-110715990D01*
X99506842Y-110827932D01*
X99793740Y-110885000D01*
X100086260Y-110885000D01*
X100373158Y-110827932D01*
X100643411Y-110715990D01*
X100886632Y-110553475D01*
X101011710Y-110428397D01*
X101631208Y-110428397D01*
X101708843Y-110677472D01*
X101972883Y-110803371D01*
X102256411Y-110875339D01*
X102548531Y-110890611D01*
X102838019Y-110848599D01*
X103113747Y-110750919D01*
X103251157Y-110677472D01*
X103328792Y-110428397D01*
X102480000Y-109579605D01*
X101631208Y-110428397D01*
X101011710Y-110428397D01*
X101093475Y-110346632D01*
X101209311Y-110173271D01*
X101451603Y-110248792D01*
X102300395Y-109400000D01*
X102659605Y-109400000D01*
X103508397Y-110248792D01*
X103757472Y-110171157D01*
X103883371Y-109907117D01*
X103955339Y-109623589D01*
X103970611Y-109331469D01*
X103928599Y-109041981D01*
X103830919Y-108766253D01*
X103757472Y-108628843D01*
X103508397Y-108551208D01*
X102659605Y-109400000D01*
X102300395Y-109400000D01*
X101451603Y-108551208D01*
X101209311Y-108626729D01*
X101093475Y-108453368D01*
X100886632Y-108246525D01*
X100712240Y-108130000D01*
X100886632Y-108013475D01*
X101093475Y-107806632D01*
X101210000Y-107632240D01*
X101326525Y-107806632D01*
X101533368Y-108013475D01*
X101706729Y-108129311D01*
X101631208Y-108371603D01*
X102480000Y-109220395D01*
X103328792Y-108371603D01*
X103253271Y-108129311D01*
X103426632Y-108013475D01*
X103633475Y-107806632D01*
X103795990Y-107563411D01*
X103907932Y-107293158D01*
X103965000Y-107006260D01*
X103965000Y-106713740D01*
X103907932Y-106426842D01*
X103795990Y-106156589D01*
X103633475Y-105913368D01*
X103426632Y-105706525D01*
X103183411Y-105544010D01*
X102913158Y-105432068D01*
X102626260Y-105375000D01*
X102333740Y-105375000D01*
X102046842Y-105432068D01*
X101776589Y-105544010D01*
X101533368Y-105706525D01*
X101326525Y-105913368D01*
X101210000Y-106087760D01*
X101093475Y-105913368D01*
X100886632Y-105706525D01*
X100643411Y-105544010D01*
X100373158Y-105432068D01*
X100086260Y-105375000D01*
X99793740Y-105375000D01*
X99506842Y-105432068D01*
X99236589Y-105544010D01*
X98993368Y-105706525D01*
X98806285Y-105893608D01*
X98738405Y-105766614D01*
X98627962Y-105632038D01*
X98493386Y-105521595D01*
X98339850Y-105439528D01*
X98173254Y-105388992D01*
X98000000Y-105371928D01*
X96800000Y-105371928D01*
X96626746Y-105388992D01*
X96460150Y-105439528D01*
X96306614Y-105521595D01*
X96172038Y-105632038D01*
X96061595Y-105766614D01*
X95979528Y-105920150D01*
X95928992Y-106086746D01*
X95911928Y-106260000D01*
X75888950Y-106260000D01*
X75879557Y-106228752D01*
X75465209Y-104317082D01*
X75345542Y-103435413D01*
X95844192Y-103435413D01*
X95939956Y-103699814D01*
X96229571Y-103840704D01*
X96541108Y-103922384D01*
X96862595Y-103941718D01*
X97181675Y-103897961D01*
X97486088Y-103792795D01*
X97660044Y-103699814D01*
X97755808Y-103435413D01*
X102344192Y-103435413D01*
X102439956Y-103699814D01*
X102729571Y-103840704D01*
X103041108Y-103922384D01*
X103362595Y-103941718D01*
X103681675Y-103897961D01*
X103986088Y-103792795D01*
X104160044Y-103699814D01*
X104255808Y-103435413D01*
X103300000Y-102479605D01*
X102344192Y-103435413D01*
X97755808Y-103435413D01*
X96800000Y-102479605D01*
X95844192Y-103435413D01*
X75345542Y-103435413D01*
X75202127Y-102378792D01*
X75201214Y-102362595D01*
X95158282Y-102362595D01*
X95202039Y-102681675D01*
X95307205Y-102986088D01*
X95400186Y-103160044D01*
X95664587Y-103255808D01*
X96620395Y-102300000D01*
X96979605Y-102300000D01*
X97935413Y-103255808D01*
X98199814Y-103160044D01*
X98340704Y-102870429D01*
X98422384Y-102558892D01*
X98434189Y-102362595D01*
X101658282Y-102362595D01*
X101702039Y-102681675D01*
X101807205Y-102986088D01*
X101900186Y-103160044D01*
X102164587Y-103255808D01*
X103120395Y-102300000D01*
X103479605Y-102300000D01*
X104435413Y-103255808D01*
X104699814Y-103160044D01*
X104840704Y-102870429D01*
X104922384Y-102558892D01*
X104941718Y-102237405D01*
X104897961Y-101918325D01*
X104792795Y-101613912D01*
X104699814Y-101439956D01*
X104435413Y-101344192D01*
X103479605Y-102300000D01*
X103120395Y-102300000D01*
X102164587Y-101344192D01*
X101900186Y-101439956D01*
X101759296Y-101729571D01*
X101677616Y-102041108D01*
X101658282Y-102362595D01*
X98434189Y-102362595D01*
X98441718Y-102237405D01*
X98397961Y-101918325D01*
X98292795Y-101613912D01*
X98199814Y-101439956D01*
X97935413Y-101344192D01*
X96979605Y-102300000D01*
X96620395Y-102300000D01*
X95664587Y-101344192D01*
X95400186Y-101439956D01*
X95259296Y-101729571D01*
X95177616Y-102041108D01*
X95158282Y-102362595D01*
X75201214Y-102362595D01*
X75091933Y-100425846D01*
X75106259Y-99779872D01*
X81765000Y-99779872D01*
X81765000Y-100220128D01*
X81850890Y-100651925D01*
X82019369Y-101058669D01*
X82263962Y-101424729D01*
X82575271Y-101736038D01*
X82941331Y-101980631D01*
X83348075Y-102149110D01*
X83779872Y-102235000D01*
X84220128Y-102235000D01*
X84651925Y-102149110D01*
X85058669Y-101980631D01*
X85424729Y-101736038D01*
X85736038Y-101424729D01*
X85909858Y-101164587D01*
X95844192Y-101164587D01*
X96800000Y-102120395D01*
X97755808Y-101164587D01*
X102344192Y-101164587D01*
X103300000Y-102120395D01*
X104255808Y-101164587D01*
X104160044Y-100900186D01*
X103870429Y-100759296D01*
X103558892Y-100677616D01*
X103237405Y-100658282D01*
X102918325Y-100702039D01*
X102613912Y-100807205D01*
X102439956Y-100900186D01*
X102344192Y-101164587D01*
X97755808Y-101164587D01*
X97660044Y-100900186D01*
X97370429Y-100759296D01*
X97058892Y-100677616D01*
X96737405Y-100658282D01*
X96418325Y-100702039D01*
X96113912Y-100807205D01*
X95939956Y-100900186D01*
X95844192Y-101164587D01*
X85909858Y-101164587D01*
X85980631Y-101058669D01*
X86149110Y-100651925D01*
X86235000Y-100220128D01*
X86235000Y-99779872D01*
X113765000Y-99779872D01*
X113765000Y-100220128D01*
X113850890Y-100651925D01*
X114019369Y-101058669D01*
X114263962Y-101424729D01*
X114575271Y-101736038D01*
X114941331Y-101980631D01*
X115348075Y-102149110D01*
X115779872Y-102235000D01*
X116220128Y-102235000D01*
X116651925Y-102149110D01*
X117058669Y-101980631D01*
X117424729Y-101736038D01*
X117736038Y-101424729D01*
X117980631Y-101058669D01*
X118149110Y-100651925D01*
X118235000Y-100220128D01*
X118235000Y-99779872D01*
X118149110Y-99348075D01*
X117980631Y-98941331D01*
X117736038Y-98575271D01*
X117424729Y-98263962D01*
X117058669Y-98019369D01*
X116651925Y-97850890D01*
X116220128Y-97765000D01*
X115779872Y-97765000D01*
X115348075Y-97850890D01*
X114941331Y-98019369D01*
X114575271Y-98263962D01*
X114263962Y-98575271D01*
X114019369Y-98941331D01*
X113850890Y-99348075D01*
X113765000Y-99779872D01*
X86235000Y-99779872D01*
X86149110Y-99348075D01*
X85980631Y-98941331D01*
X85736038Y-98575271D01*
X85424729Y-98263962D01*
X85058669Y-98019369D01*
X84651925Y-97850890D01*
X84220128Y-97765000D01*
X83779872Y-97765000D01*
X83348075Y-97850890D01*
X82941331Y-98019369D01*
X82575271Y-98263962D01*
X82263962Y-98575271D01*
X82019369Y-98941331D01*
X81850890Y-99348075D01*
X81765000Y-99779872D01*
X75106259Y-99779872D01*
X75135304Y-98470272D01*
X75219312Y-97638967D01*
X95165000Y-97638967D01*
X95165000Y-97961033D01*
X95227832Y-98276912D01*
X95351082Y-98574463D01*
X95530013Y-98842252D01*
X95757748Y-99069987D01*
X96025537Y-99248918D01*
X96323088Y-99372168D01*
X96638967Y-99435000D01*
X96961033Y-99435000D01*
X97276912Y-99372168D01*
X97574463Y-99248918D01*
X97842252Y-99069987D01*
X98069987Y-98842252D01*
X98248918Y-98574463D01*
X98265264Y-98535000D01*
X101834736Y-98535000D01*
X101851082Y-98574463D01*
X102030013Y-98842252D01*
X102257748Y-99069987D01*
X102525537Y-99248918D01*
X102823088Y-99372168D01*
X103138967Y-99435000D01*
X103461033Y-99435000D01*
X103776912Y-99372168D01*
X104074463Y-99248918D01*
X104342252Y-99069987D01*
X104569987Y-98842252D01*
X104748918Y-98574463D01*
X104872168Y-98276912D01*
X104935000Y-97961033D01*
X104935000Y-97638967D01*
X104872168Y-97323088D01*
X104748918Y-97025537D01*
X104569987Y-96757748D01*
X104342252Y-96530013D01*
X104074463Y-96351082D01*
X103776912Y-96227832D01*
X103461033Y-96165000D01*
X103138967Y-96165000D01*
X102823088Y-96227832D01*
X102525537Y-96351082D01*
X102257748Y-96530013D01*
X102030013Y-96757748D01*
X101851082Y-97025537D01*
X101834736Y-97065000D01*
X98265264Y-97065000D01*
X98248918Y-97025537D01*
X98069987Y-96757748D01*
X97842252Y-96530013D01*
X97574463Y-96351082D01*
X97276912Y-96227832D01*
X96961033Y-96165000D01*
X96638967Y-96165000D01*
X96323088Y-96227832D01*
X96025537Y-96351082D01*
X95757748Y-96530013D01*
X95530013Y-96757748D01*
X95351082Y-97025537D01*
X95227832Y-97323088D01*
X95165000Y-97638967D01*
X75219312Y-97638967D01*
X75331974Y-96524130D01*
X75680734Y-94599404D01*
X76179429Y-92707982D01*
X76406705Y-92057911D01*
X90315000Y-92057911D01*
X90315000Y-92242089D01*
X90350932Y-92422729D01*
X90421414Y-92592889D01*
X90523738Y-92746028D01*
X90653972Y-92876262D01*
X90807111Y-92978586D01*
X90977271Y-93049068D01*
X91142485Y-93081932D01*
X91175183Y-93114630D01*
X91208047Y-93279844D01*
X91278529Y-93450004D01*
X91380853Y-93603143D01*
X91511087Y-93733377D01*
X91664226Y-93835701D01*
X91834386Y-93906183D01*
X92015026Y-93942115D01*
X92199204Y-93942115D01*
X92379844Y-93906183D01*
X92550004Y-93835701D01*
X92703143Y-93733377D01*
X92833377Y-93603143D01*
X92935701Y-93450004D01*
X93006183Y-93279844D01*
X93042115Y-93099204D01*
X93042115Y-92915026D01*
X93006183Y-92734386D01*
X92935701Y-92564226D01*
X92833377Y-92411087D01*
X92703143Y-92280853D01*
X92550004Y-92178529D01*
X92379844Y-92108047D01*
X92214630Y-92075183D01*
X92181932Y-92042485D01*
X92155163Y-91907911D01*
X111565000Y-91907911D01*
X111565000Y-92092089D01*
X111600932Y-92272729D01*
X111671414Y-92442889D01*
X111773738Y-92596028D01*
X111903972Y-92726262D01*
X112057111Y-92828586D01*
X112227271Y-92899068D01*
X112407911Y-92935000D01*
X112592089Y-92935000D01*
X112772729Y-92899068D01*
X112942889Y-92828586D01*
X113096028Y-92726262D01*
X113226262Y-92596028D01*
X113328586Y-92442889D01*
X113399068Y-92272729D01*
X113431932Y-92107515D01*
X113707515Y-91831932D01*
X113872729Y-91799068D01*
X114042889Y-91728586D01*
X114196028Y-91626262D01*
X114326262Y-91496028D01*
X114428586Y-91342889D01*
X114499068Y-91172729D01*
X114535000Y-90992089D01*
X114535000Y-90807911D01*
X114499068Y-90627271D01*
X114428586Y-90457111D01*
X114326262Y-90303972D01*
X114196028Y-90173738D01*
X114042889Y-90071414D01*
X113872729Y-90000932D01*
X113692089Y-89965000D01*
X113507911Y-89965000D01*
X113327271Y-90000932D01*
X113157111Y-90071414D01*
X113003972Y-90173738D01*
X112873738Y-90303972D01*
X112771414Y-90457111D01*
X112700932Y-90627271D01*
X112668068Y-90792485D01*
X112392485Y-91068068D01*
X112227271Y-91100932D01*
X112057111Y-91171414D01*
X111903972Y-91273738D01*
X111773738Y-91403972D01*
X111671414Y-91557111D01*
X111600932Y-91727271D01*
X111565000Y-91907911D01*
X92155163Y-91907911D01*
X92149068Y-91877271D01*
X92078586Y-91707111D01*
X91976262Y-91553972D01*
X91846028Y-91423738D01*
X91692889Y-91321414D01*
X91522729Y-91250932D01*
X91342089Y-91215000D01*
X91157911Y-91215000D01*
X90977271Y-91250932D01*
X90807111Y-91321414D01*
X90653972Y-91423738D01*
X90523738Y-91553972D01*
X90421414Y-91707111D01*
X90350932Y-91877271D01*
X90315000Y-92057911D01*
X76406705Y-92057911D01*
X76824981Y-90861531D01*
X77613421Y-89071402D01*
X78539877Y-87348664D01*
X79209839Y-86307911D01*
X89965000Y-86307911D01*
X89965000Y-86492089D01*
X90000932Y-86672729D01*
X90071414Y-86842889D01*
X90173738Y-86996028D01*
X90303972Y-87126262D01*
X90457111Y-87228586D01*
X90627271Y-87299068D01*
X90792485Y-87331932D01*
X91068068Y-87607515D01*
X91100932Y-87772729D01*
X91171414Y-87942889D01*
X91273738Y-88096028D01*
X91403972Y-88226262D01*
X91557111Y-88328586D01*
X91727271Y-88399068D01*
X91907911Y-88435000D01*
X92092089Y-88435000D01*
X92272729Y-88399068D01*
X92442889Y-88328586D01*
X92596028Y-88226262D01*
X92726262Y-88096028D01*
X92828586Y-87942889D01*
X92899068Y-87772729D01*
X92935000Y-87592089D01*
X92935000Y-87407911D01*
X92899068Y-87227271D01*
X92828586Y-87057111D01*
X92726262Y-86903972D01*
X92596028Y-86773738D01*
X92442889Y-86671414D01*
X92272729Y-86600932D01*
X92107515Y-86568068D01*
X91831932Y-86292485D01*
X91799068Y-86127271D01*
X91728586Y-85957111D01*
X91626262Y-85803972D01*
X91496028Y-85673738D01*
X91342889Y-85571414D01*
X91172729Y-85500932D01*
X90992089Y-85465000D01*
X90807911Y-85465000D01*
X90627271Y-85500932D01*
X90457111Y-85571414D01*
X90303972Y-85673738D01*
X90173738Y-85803972D01*
X90071414Y-85957111D01*
X90000932Y-86127271D01*
X89965000Y-86307911D01*
X79209839Y-86307911D01*
X79598648Y-85703917D01*
X80783196Y-84147317D01*
X82086217Y-82688456D01*
X83499686Y-81336324D01*
X85014893Y-80099253D01*
X86622478Y-78984885D01*
X88312543Y-78000079D01*
X90074659Y-77150913D01*
X91897982Y-76442614D01*
X93771245Y-75879558D01*
X95682918Y-75465209D01*
X97621208Y-75202127D01*
X99574154Y-75091933D01*
X101529728Y-75135304D01*
M02*
