G04 #@! TF.GenerationSoftware,KiCad,Pcbnew,(5.0.2)-1*
G04 #@! TF.CreationDate,2020-02-15T12:45:26+00:00*
G04 #@! TF.ProjectId,teatime,74656174-696d-4652-9e6b-696361645f70,rev?*
G04 #@! TF.SameCoordinates,Original*
G04 #@! TF.FileFunction,Legend,Bot*
G04 #@! TF.FilePolarity,Positive*
%FSLAX46Y46*%
G04 Gerber Fmt 4.6, Leading zero omitted, Abs format (unit mm)*
G04 Created by KiCad (PCBNEW (5.0.2)-1) date 15/02/2020 12:45:26*
%MOMM*%
%LPD*%
G01*
G04 APERTURE LIST*
%ADD10C,0.300000*%
%ADD11C,0.150000*%
%ADD12C,0.100000*%
%ADD13C,0.120000*%
G04 APERTURE END LIST*
D10*
X118892857Y-121678571D02*
X118892857Y-122892857D01*
X118964285Y-123035714D01*
X119035714Y-123107142D01*
X119178571Y-123178571D01*
X119392857Y-123178571D01*
X119535714Y-123107142D01*
X118892857Y-122607142D02*
X119035714Y-122678571D01*
X119321428Y-122678571D01*
X119464285Y-122607142D01*
X119535714Y-122535714D01*
X119607142Y-122392857D01*
X119607142Y-121964285D01*
X119535714Y-121821428D01*
X119464285Y-121750000D01*
X119321428Y-121678571D01*
X119035714Y-121678571D01*
X118892857Y-121750000D01*
X118178571Y-122678571D02*
X118178571Y-121678571D01*
X118178571Y-121178571D02*
X118250000Y-121250000D01*
X118178571Y-121321428D01*
X118107142Y-121250000D01*
X118178571Y-121178571D01*
X118178571Y-121321428D01*
X117678571Y-121678571D02*
X117107142Y-121678571D01*
X117464285Y-121178571D02*
X117464285Y-122464285D01*
X117392857Y-122607142D01*
X117250000Y-122678571D01*
X117107142Y-122678571D01*
X116607142Y-122678571D02*
X116607142Y-121178571D01*
X115964285Y-122678571D02*
X115964285Y-121892857D01*
X116035714Y-121750000D01*
X116178571Y-121678571D01*
X116392857Y-121678571D01*
X116535714Y-121750000D01*
X116607142Y-121821428D01*
X114607142Y-121678571D02*
X114607142Y-122678571D01*
X115250000Y-121678571D02*
X115250000Y-122464285D01*
X115178571Y-122607142D01*
X115035714Y-122678571D01*
X114821428Y-122678571D01*
X114678571Y-122607142D01*
X114607142Y-122535714D01*
X113892857Y-122678571D02*
X113892857Y-121178571D01*
X113892857Y-121750000D02*
X113750000Y-121678571D01*
X113464285Y-121678571D01*
X113321428Y-121750000D01*
X113250000Y-121821428D01*
X113178571Y-121964285D01*
X113178571Y-122392857D01*
X113250000Y-122535714D01*
X113321428Y-122607142D01*
X113464285Y-122678571D01*
X113750000Y-122678571D01*
X113892857Y-122607142D01*
X112535714Y-122535714D02*
X112464285Y-122607142D01*
X112535714Y-122678571D01*
X112607142Y-122607142D01*
X112535714Y-122535714D01*
X112535714Y-122678571D01*
X111178571Y-122607142D02*
X111321428Y-122678571D01*
X111607142Y-122678571D01*
X111750000Y-122607142D01*
X111821428Y-122535714D01*
X111892857Y-122392857D01*
X111892857Y-121964285D01*
X111821428Y-121821428D01*
X111750000Y-121750000D01*
X111607142Y-121678571D01*
X111321428Y-121678571D01*
X111178571Y-121750000D01*
X110321428Y-122678571D02*
X110464285Y-122607142D01*
X110535714Y-122535714D01*
X110607142Y-122392857D01*
X110607142Y-121964285D01*
X110535714Y-121821428D01*
X110464285Y-121750000D01*
X110321428Y-121678571D01*
X110107142Y-121678571D01*
X109964285Y-121750000D01*
X109892857Y-121821428D01*
X109821428Y-121964285D01*
X109821428Y-122392857D01*
X109892857Y-122535714D01*
X109964285Y-122607142D01*
X110107142Y-122678571D01*
X110321428Y-122678571D01*
X109178571Y-122678571D02*
X109178571Y-121678571D01*
X109178571Y-121821428D02*
X109107142Y-121750000D01*
X108964285Y-121678571D01*
X108749999Y-121678571D01*
X108607142Y-121750000D01*
X108535714Y-121892857D01*
X108535714Y-122678571D01*
X108535714Y-121892857D02*
X108464285Y-121750000D01*
X108321428Y-121678571D01*
X108107142Y-121678571D01*
X107964285Y-121750000D01*
X107892857Y-121892857D01*
X107892857Y-122678571D01*
X106107142Y-121107142D02*
X107392857Y-123035714D01*
X105607142Y-122678571D02*
X105607142Y-121178571D01*
X105607142Y-121892857D02*
X104750000Y-121892857D01*
X104750000Y-122678571D02*
X104750000Y-121178571D01*
X103392857Y-122678571D02*
X103392857Y-121892857D01*
X103464285Y-121750000D01*
X103607142Y-121678571D01*
X103892857Y-121678571D01*
X104035714Y-121750000D01*
X103392857Y-122607142D02*
X103535714Y-122678571D01*
X103892857Y-122678571D01*
X104035714Y-122607142D01*
X104107142Y-122464285D01*
X104107142Y-122321428D01*
X104035714Y-122178571D01*
X103892857Y-122107142D01*
X103535714Y-122107142D01*
X103392857Y-122035714D01*
X102678571Y-122678571D02*
X102678571Y-121678571D01*
X102678571Y-121964285D02*
X102607142Y-121821428D01*
X102535714Y-121750000D01*
X102392857Y-121678571D01*
X102249999Y-121678571D01*
X101749999Y-122678571D02*
X101749999Y-121178571D01*
X101607142Y-122107142D02*
X101178571Y-122678571D01*
X101178571Y-121678571D02*
X101749999Y-122250000D01*
X100321428Y-122678571D02*
X100464285Y-122607142D01*
X100535714Y-122535714D01*
X100607142Y-122392857D01*
X100607142Y-121964285D01*
X100535714Y-121821428D01*
X100464285Y-121750000D01*
X100321428Y-121678571D01*
X100107142Y-121678571D01*
X99964285Y-121750000D01*
X99892857Y-121821428D01*
X99821428Y-121964285D01*
X99821428Y-122392857D01*
X99892857Y-122535714D01*
X99964285Y-122607142D01*
X100107142Y-122678571D01*
X100321428Y-122678571D01*
X99178571Y-121678571D02*
X99178571Y-122678571D01*
X99178571Y-121821428D02*
X99107142Y-121750000D01*
X98964285Y-121678571D01*
X98749999Y-121678571D01*
X98607142Y-121750000D01*
X98535714Y-121892857D01*
X98535714Y-122678571D01*
X97249999Y-122607142D02*
X97392857Y-122678571D01*
X97678571Y-122678571D01*
X97821428Y-122607142D01*
X97892857Y-122464285D01*
X97892857Y-121892857D01*
X97821428Y-121750000D01*
X97678571Y-121678571D01*
X97392857Y-121678571D01*
X97249999Y-121750000D01*
X97178571Y-121892857D01*
X97178571Y-122035714D01*
X97892857Y-122178571D01*
X96535714Y-121678571D02*
X96535714Y-122678571D01*
X96535714Y-121821428D02*
X96464285Y-121750000D01*
X96321428Y-121678571D01*
X96107142Y-121678571D01*
X95964285Y-121750000D01*
X95892857Y-121892857D01*
X95892857Y-122678571D01*
X94678571Y-121892857D02*
X94464285Y-121964285D01*
X94392857Y-122035714D01*
X94321428Y-122178571D01*
X94321428Y-122392857D01*
X94392857Y-122535714D01*
X94464285Y-122607142D01*
X94607142Y-122678571D01*
X95178571Y-122678571D01*
X95178571Y-121178571D01*
X94678571Y-121178571D01*
X94535714Y-121250000D01*
X94464285Y-121321428D01*
X94392857Y-121464285D01*
X94392857Y-121607142D01*
X94464285Y-121750000D01*
X94535714Y-121821428D01*
X94678571Y-121892857D01*
X95178571Y-121892857D01*
X93035714Y-122678571D02*
X93035714Y-121892857D01*
X93107142Y-121750000D01*
X93249999Y-121678571D01*
X93535714Y-121678571D01*
X93678571Y-121750000D01*
X93035714Y-122607142D02*
X93178571Y-122678571D01*
X93535714Y-122678571D01*
X93678571Y-122607142D01*
X93749999Y-122464285D01*
X93749999Y-122321428D01*
X93678571Y-122178571D01*
X93535714Y-122107142D01*
X93178571Y-122107142D01*
X93035714Y-122035714D01*
X91678571Y-122678571D02*
X91678571Y-121178571D01*
X91678571Y-122607142D02*
X91821428Y-122678571D01*
X92107142Y-122678571D01*
X92249999Y-122607142D01*
X92321428Y-122535714D01*
X92392857Y-122392857D01*
X92392857Y-121964285D01*
X92321428Y-121821428D01*
X92249999Y-121750000D01*
X92107142Y-121678571D01*
X91821428Y-121678571D01*
X91678571Y-121750000D01*
X90392857Y-122607142D02*
X90535714Y-122678571D01*
X90821428Y-122678571D01*
X90964285Y-122607142D01*
X91035714Y-122464285D01*
X91035714Y-121892857D01*
X90964285Y-121750000D01*
X90821428Y-121678571D01*
X90535714Y-121678571D01*
X90392857Y-121750000D01*
X90321428Y-121892857D01*
X90321428Y-122035714D01*
X91035714Y-122178571D01*
X88607142Y-121107142D02*
X89892857Y-123035714D01*
X88321428Y-121678571D02*
X87749999Y-121678571D01*
X88107142Y-121178571D02*
X88107142Y-122464285D01*
X88035714Y-122607142D01*
X87892857Y-122678571D01*
X87749999Y-122678571D01*
X86678571Y-122607142D02*
X86821428Y-122678571D01*
X87107142Y-122678571D01*
X87249999Y-122607142D01*
X87321428Y-122464285D01*
X87321428Y-121892857D01*
X87249999Y-121750000D01*
X87107142Y-121678571D01*
X86821428Y-121678571D01*
X86678571Y-121750000D01*
X86607142Y-121892857D01*
X86607142Y-122035714D01*
X87321428Y-122178571D01*
X85321428Y-122678571D02*
X85321428Y-121892857D01*
X85392857Y-121750000D01*
X85535714Y-121678571D01*
X85821428Y-121678571D01*
X85964285Y-121750000D01*
X85321428Y-122607142D02*
X85464285Y-122678571D01*
X85821428Y-122678571D01*
X85964285Y-122607142D01*
X86035714Y-122464285D01*
X86035714Y-122321428D01*
X85964285Y-122178571D01*
X85821428Y-122107142D01*
X85464285Y-122107142D01*
X85321428Y-122035714D01*
X84821428Y-121678571D02*
X84249999Y-121678571D01*
X84607142Y-121178571D02*
X84607142Y-122464285D01*
X84535714Y-122607142D01*
X84392857Y-122678571D01*
X84249999Y-122678571D01*
X83749999Y-122678571D02*
X83749999Y-121678571D01*
X83749999Y-121178571D02*
X83821428Y-121250000D01*
X83749999Y-121321428D01*
X83678571Y-121250000D01*
X83749999Y-121178571D01*
X83749999Y-121321428D01*
X83035714Y-122678571D02*
X83035714Y-121678571D01*
X83035714Y-121821428D02*
X82964285Y-121750000D01*
X82821428Y-121678571D01*
X82607142Y-121678571D01*
X82464285Y-121750000D01*
X82392857Y-121892857D01*
X82392857Y-122678571D01*
X82392857Y-121892857D02*
X82321428Y-121750000D01*
X82178571Y-121678571D01*
X81964285Y-121678571D01*
X81821428Y-121750000D01*
X81749999Y-121892857D01*
X81749999Y-122678571D01*
X80464285Y-122607142D02*
X80607142Y-122678571D01*
X80892857Y-122678571D01*
X81035714Y-122607142D01*
X81107142Y-122464285D01*
X81107142Y-121892857D01*
X81035714Y-121750000D01*
X80892857Y-121678571D01*
X80607142Y-121678571D01*
X80464285Y-121750000D01*
X80392857Y-121892857D01*
X80392857Y-122035714D01*
X81107142Y-122178571D01*
X91678571Y-125353571D02*
X90821428Y-125353571D01*
X91250000Y-126853571D02*
X91250000Y-125353571D01*
X89750000Y-126782142D02*
X89892857Y-126853571D01*
X90178571Y-126853571D01*
X90321428Y-126782142D01*
X90392857Y-126639285D01*
X90392857Y-126067857D01*
X90321428Y-125925000D01*
X90178571Y-125853571D01*
X89892857Y-125853571D01*
X89750000Y-125925000D01*
X89678571Y-126067857D01*
X89678571Y-126210714D01*
X90392857Y-126353571D01*
X88392857Y-126853571D02*
X88392857Y-126067857D01*
X88464285Y-125925000D01*
X88607142Y-125853571D01*
X88892857Y-125853571D01*
X89035714Y-125925000D01*
X88392857Y-126782142D02*
X88535714Y-126853571D01*
X88892857Y-126853571D01*
X89035714Y-126782142D01*
X89107142Y-126639285D01*
X89107142Y-126496428D01*
X89035714Y-126353571D01*
X88892857Y-126282142D01*
X88535714Y-126282142D01*
X88392857Y-126210714D01*
X87892857Y-125853571D02*
X87321428Y-125853571D01*
X87678571Y-125353571D02*
X87678571Y-126639285D01*
X87607142Y-126782142D01*
X87464285Y-126853571D01*
X87321428Y-126853571D01*
X86821428Y-126853571D02*
X86821428Y-125853571D01*
X86821428Y-125353571D02*
X86892857Y-125425000D01*
X86821428Y-125496428D01*
X86750000Y-125425000D01*
X86821428Y-125353571D01*
X86821428Y-125496428D01*
X86107142Y-126853571D02*
X86107142Y-125853571D01*
X86107142Y-125996428D02*
X86035714Y-125925000D01*
X85892857Y-125853571D01*
X85678571Y-125853571D01*
X85535714Y-125925000D01*
X85464285Y-126067857D01*
X85464285Y-126853571D01*
X85464285Y-126067857D02*
X85392857Y-125925000D01*
X85250000Y-125853571D01*
X85035714Y-125853571D01*
X84892857Y-125925000D01*
X84821428Y-126067857D01*
X84821428Y-126853571D01*
X83535714Y-126782142D02*
X83678571Y-126853571D01*
X83964285Y-126853571D01*
X84107142Y-126782142D01*
X84178571Y-126639285D01*
X84178571Y-126067857D01*
X84107142Y-125925000D01*
X83964285Y-125853571D01*
X83678571Y-125853571D01*
X83535714Y-125925000D01*
X83464285Y-126067857D01*
X83464285Y-126210714D01*
X84178571Y-126353571D01*
X95107142Y-129403571D02*
X95107142Y-127903571D01*
X95107142Y-128617857D02*
X94250000Y-128617857D01*
X94250000Y-129403571D02*
X94250000Y-127903571D01*
X92892857Y-129403571D02*
X92892857Y-128617857D01*
X92964285Y-128475000D01*
X93107142Y-128403571D01*
X93392857Y-128403571D01*
X93535714Y-128475000D01*
X92892857Y-129332142D02*
X93035714Y-129403571D01*
X93392857Y-129403571D01*
X93535714Y-129332142D01*
X93607142Y-129189285D01*
X93607142Y-129046428D01*
X93535714Y-128903571D01*
X93392857Y-128832142D01*
X93035714Y-128832142D01*
X92892857Y-128760714D01*
X92178571Y-129403571D02*
X92178571Y-128403571D01*
X92178571Y-128689285D02*
X92107142Y-128546428D01*
X92035714Y-128475000D01*
X91892857Y-128403571D01*
X91750000Y-128403571D01*
X91250000Y-129403571D02*
X91250000Y-127903571D01*
X91107142Y-128832142D02*
X90678571Y-129403571D01*
X90678571Y-128403571D02*
X91250000Y-128975000D01*
X89821428Y-129403571D02*
X89964285Y-129332142D01*
X90035714Y-129260714D01*
X90107142Y-129117857D01*
X90107142Y-128689285D01*
X90035714Y-128546428D01*
X89964285Y-128475000D01*
X89821428Y-128403571D01*
X89607142Y-128403571D01*
X89464285Y-128475000D01*
X89392857Y-128546428D01*
X89321428Y-128689285D01*
X89321428Y-129117857D01*
X89392857Y-129260714D01*
X89464285Y-129332142D01*
X89607142Y-129403571D01*
X89821428Y-129403571D01*
X88678571Y-128403571D02*
X88678571Y-129403571D01*
X88678571Y-128546428D02*
X88607142Y-128475000D01*
X88464285Y-128403571D01*
X88250000Y-128403571D01*
X88107142Y-128475000D01*
X88035714Y-128617857D01*
X88035714Y-129403571D01*
X86750000Y-129332142D02*
X86892857Y-129403571D01*
X87178571Y-129403571D01*
X87321428Y-129332142D01*
X87392857Y-129189285D01*
X87392857Y-128617857D01*
X87321428Y-128475000D01*
X87178571Y-128403571D01*
X86892857Y-128403571D01*
X86750000Y-128475000D01*
X86678571Y-128617857D01*
X86678571Y-128760714D01*
X87392857Y-128903571D01*
X86035714Y-128403571D02*
X86035714Y-129403571D01*
X86035714Y-128546428D02*
X85964285Y-128475000D01*
X85821428Y-128403571D01*
X85607142Y-128403571D01*
X85464285Y-128475000D01*
X85392857Y-128617857D01*
X85392857Y-129403571D01*
X84178571Y-128617857D02*
X83964285Y-128689285D01*
X83892857Y-128760714D01*
X83821428Y-128903571D01*
X83821428Y-129117857D01*
X83892857Y-129260714D01*
X83964285Y-129332142D01*
X84107142Y-129403571D01*
X84678571Y-129403571D01*
X84678571Y-127903571D01*
X84178571Y-127903571D01*
X84035714Y-127975000D01*
X83964285Y-128046428D01*
X83892857Y-128189285D01*
X83892857Y-128332142D01*
X83964285Y-128475000D01*
X84035714Y-128546428D01*
X84178571Y-128617857D01*
X84678571Y-128617857D01*
X82535714Y-129403571D02*
X82535714Y-128617857D01*
X82607142Y-128475000D01*
X82750000Y-128403571D01*
X83035714Y-128403571D01*
X83178571Y-128475000D01*
X82535714Y-129332142D02*
X82678571Y-129403571D01*
X83035714Y-129403571D01*
X83178571Y-129332142D01*
X83250000Y-129189285D01*
X83250000Y-129046428D01*
X83178571Y-128903571D01*
X83035714Y-128832142D01*
X82678571Y-128832142D01*
X82535714Y-128760714D01*
X81178571Y-129403571D02*
X81178571Y-127903571D01*
X81178571Y-129332142D02*
X81321428Y-129403571D01*
X81607142Y-129403571D01*
X81750000Y-129332142D01*
X81821428Y-129260714D01*
X81892857Y-129117857D01*
X81892857Y-128689285D01*
X81821428Y-128546428D01*
X81750000Y-128475000D01*
X81607142Y-128403571D01*
X81321428Y-128403571D01*
X81178571Y-128475000D01*
X79892857Y-129332142D02*
X80035714Y-129403571D01*
X80321428Y-129403571D01*
X80464285Y-129332142D01*
X80535714Y-129189285D01*
X80535714Y-128617857D01*
X80464285Y-128475000D01*
X80321428Y-128403571D01*
X80035714Y-128403571D01*
X79892857Y-128475000D01*
X79821428Y-128617857D01*
X79821428Y-128760714D01*
X80535714Y-128903571D01*
X94785714Y-130596428D02*
X94714285Y-130525000D01*
X94571428Y-130453571D01*
X94214285Y-130453571D01*
X94071428Y-130525000D01*
X94000000Y-130596428D01*
X93928571Y-130739285D01*
X93928571Y-130882142D01*
X94000000Y-131096428D01*
X94857142Y-131953571D01*
X93928571Y-131953571D01*
X93000000Y-130453571D02*
X92857142Y-130453571D01*
X92714285Y-130525000D01*
X92642857Y-130596428D01*
X92571428Y-130739285D01*
X92500000Y-131025000D01*
X92500000Y-131382142D01*
X92571428Y-131667857D01*
X92642857Y-131810714D01*
X92714285Y-131882142D01*
X92857142Y-131953571D01*
X93000000Y-131953571D01*
X93142857Y-131882142D01*
X93214285Y-131810714D01*
X93285714Y-131667857D01*
X93357142Y-131382142D01*
X93357142Y-131025000D01*
X93285714Y-130739285D01*
X93214285Y-130596428D01*
X93142857Y-130525000D01*
X93000000Y-130453571D01*
X91928571Y-130596428D02*
X91857142Y-130525000D01*
X91714285Y-130453571D01*
X91357142Y-130453571D01*
X91214285Y-130525000D01*
X91142857Y-130596428D01*
X91071428Y-130739285D01*
X91071428Y-130882142D01*
X91142857Y-131096428D01*
X92000000Y-131953571D01*
X91071428Y-131953571D01*
X90142857Y-130453571D02*
X90000000Y-130453571D01*
X89857142Y-130525000D01*
X89785714Y-130596428D01*
X89714285Y-130739285D01*
X89642857Y-131025000D01*
X89642857Y-131382142D01*
X89714285Y-131667857D01*
X89785714Y-131810714D01*
X89857142Y-131882142D01*
X90000000Y-131953571D01*
X90142857Y-131953571D01*
X90285714Y-131882142D01*
X90357142Y-131810714D01*
X90428571Y-131667857D01*
X90500000Y-131382142D01*
X90500000Y-131025000D01*
X90428571Y-130739285D01*
X90357142Y-130596428D01*
X90285714Y-130525000D01*
X90142857Y-130453571D01*
X89000000Y-131382142D02*
X87857142Y-131382142D01*
X86857142Y-130453571D02*
X86714285Y-130453571D01*
X86571428Y-130525000D01*
X86500000Y-130596428D01*
X86428571Y-130739285D01*
X86357142Y-131025000D01*
X86357142Y-131382142D01*
X86428571Y-131667857D01*
X86500000Y-131810714D01*
X86571428Y-131882142D01*
X86714285Y-131953571D01*
X86857142Y-131953571D01*
X87000000Y-131882142D01*
X87071428Y-131810714D01*
X87142857Y-131667857D01*
X87214285Y-131382142D01*
X87214285Y-131025000D01*
X87142857Y-130739285D01*
X87071428Y-130596428D01*
X87000000Y-130525000D01*
X86857142Y-130453571D01*
X85785714Y-130596428D02*
X85714285Y-130525000D01*
X85571428Y-130453571D01*
X85214285Y-130453571D01*
X85071428Y-130525000D01*
X85000000Y-130596428D01*
X84928571Y-130739285D01*
X84928571Y-130882142D01*
X85000000Y-131096428D01*
X85857142Y-131953571D01*
X84928571Y-131953571D01*
X84285714Y-131382142D02*
X83142857Y-131382142D01*
X81642857Y-131953571D02*
X82500000Y-131953571D01*
X82071428Y-131953571D02*
X82071428Y-130453571D01*
X82214285Y-130667857D01*
X82357142Y-130810714D01*
X82500000Y-130882142D01*
X80357142Y-130953571D02*
X80357142Y-131953571D01*
X80714285Y-130382142D02*
X81071428Y-131453571D01*
X80142857Y-131453571D01*
X89535714Y-134503571D02*
X90035714Y-133789285D01*
X90392857Y-134503571D02*
X90392857Y-133003571D01*
X89821428Y-133003571D01*
X89678571Y-133075000D01*
X89607142Y-133146428D01*
X89535714Y-133289285D01*
X89535714Y-133503571D01*
X89607142Y-133646428D01*
X89678571Y-133717857D01*
X89821428Y-133789285D01*
X90392857Y-133789285D01*
X88321428Y-134432142D02*
X88464285Y-134503571D01*
X88750000Y-134503571D01*
X88892857Y-134432142D01*
X88964285Y-134289285D01*
X88964285Y-133717857D01*
X88892857Y-133575000D01*
X88750000Y-133503571D01*
X88464285Y-133503571D01*
X88321428Y-133575000D01*
X88250000Y-133717857D01*
X88250000Y-133860714D01*
X88964285Y-134003571D01*
X87750000Y-133503571D02*
X87392857Y-134503571D01*
X87035714Y-133503571D01*
X84535714Y-134503571D02*
X85392857Y-134503571D01*
X84964285Y-134503571D02*
X84964285Y-133003571D01*
X85107142Y-133217857D01*
X85250000Y-133360714D01*
X85392857Y-133432142D01*
D11*
X129372619Y-111261904D02*
X129372619Y-111738095D01*
X130372619Y-111738095D01*
X129372619Y-110928571D02*
X130039285Y-110928571D01*
X130372619Y-110928571D02*
X130325000Y-110976190D01*
X130277380Y-110928571D01*
X130325000Y-110880952D01*
X130372619Y-110928571D01*
X130277380Y-110928571D01*
X130039285Y-110595238D02*
X130039285Y-110214285D01*
X130372619Y-110452380D02*
X129515476Y-110452380D01*
X129420238Y-110404761D01*
X129372619Y-110309523D01*
X129372619Y-110214285D01*
X129372619Y-109880952D02*
X130372619Y-109880952D01*
X129372619Y-109452380D02*
X129896428Y-109452380D01*
X129991666Y-109500000D01*
X130039285Y-109595238D01*
X130039285Y-109738095D01*
X129991666Y-109833333D01*
X129944047Y-109880952D01*
X129372619Y-108976190D02*
X130039285Y-108976190D01*
X130372619Y-108976190D02*
X130325000Y-109023809D01*
X130277380Y-108976190D01*
X130325000Y-108928571D01*
X130372619Y-108976190D01*
X130277380Y-108976190D01*
X130039285Y-108071428D02*
X129372619Y-108071428D01*
X130039285Y-108500000D02*
X129515476Y-108500000D01*
X129420238Y-108452380D01*
X129372619Y-108357142D01*
X129372619Y-108214285D01*
X129420238Y-108119047D01*
X129467857Y-108071428D01*
X129372619Y-107595238D02*
X130039285Y-107595238D01*
X129944047Y-107595238D02*
X129991666Y-107547619D01*
X130039285Y-107452380D01*
X130039285Y-107309523D01*
X129991666Y-107214285D01*
X129896428Y-107166666D01*
X129372619Y-107166666D01*
X129896428Y-107166666D02*
X129991666Y-107119047D01*
X130039285Y-107023809D01*
X130039285Y-106880952D01*
X129991666Y-106785714D01*
X129896428Y-106738095D01*
X129372619Y-106738095D01*
X129372619Y-105500000D02*
X130372619Y-105500000D01*
X130372619Y-105119047D01*
X130325000Y-105023809D01*
X130277380Y-104976190D01*
X130182142Y-104928571D01*
X130039285Y-104928571D01*
X129944047Y-104976190D01*
X129896428Y-105023809D01*
X129848809Y-105119047D01*
X129848809Y-105500000D01*
X129372619Y-104500000D02*
X130039285Y-104500000D01*
X129848809Y-104500000D02*
X129944047Y-104452380D01*
X129991666Y-104404761D01*
X130039285Y-104309523D01*
X130039285Y-104214285D01*
X129372619Y-103880952D02*
X130039285Y-103880952D01*
X130372619Y-103880952D02*
X130325000Y-103928571D01*
X130277380Y-103880952D01*
X130325000Y-103833333D01*
X130372619Y-103880952D01*
X130277380Y-103880952D01*
X129372619Y-103404761D02*
X130039285Y-103404761D01*
X129944047Y-103404761D02*
X129991666Y-103357142D01*
X130039285Y-103261904D01*
X130039285Y-103119047D01*
X129991666Y-103023809D01*
X129896428Y-102976190D01*
X129372619Y-102976190D01*
X129896428Y-102976190D02*
X129991666Y-102928571D01*
X130039285Y-102833333D01*
X130039285Y-102690476D01*
X129991666Y-102595238D01*
X129896428Y-102547619D01*
X129372619Y-102547619D01*
X129372619Y-101642857D02*
X129896428Y-101642857D01*
X129991666Y-101690476D01*
X130039285Y-101785714D01*
X130039285Y-101976190D01*
X129991666Y-102071428D01*
X129420238Y-101642857D02*
X129372619Y-101738095D01*
X129372619Y-101976190D01*
X129420238Y-102071428D01*
X129515476Y-102119047D01*
X129610714Y-102119047D01*
X129705952Y-102071428D01*
X129753571Y-101976190D01*
X129753571Y-101738095D01*
X129801190Y-101642857D01*
X129372619Y-101166666D02*
X130039285Y-101166666D01*
X129848809Y-101166666D02*
X129944047Y-101119047D01*
X129991666Y-101071428D01*
X130039285Y-100976190D01*
X130039285Y-100880952D01*
X130039285Y-100642857D02*
X129372619Y-100404761D01*
X130039285Y-100166666D02*
X129372619Y-100404761D01*
X129134523Y-100500000D01*
X129086904Y-100547619D01*
X129039285Y-100642857D01*
X128722619Y-109119047D02*
X128722619Y-108500000D01*
X128341666Y-108833333D01*
X128341666Y-108690476D01*
X128294047Y-108595238D01*
X128246428Y-108547619D01*
X128151190Y-108500000D01*
X127913095Y-108500000D01*
X127817857Y-108547619D01*
X127770238Y-108595238D01*
X127722619Y-108690476D01*
X127722619Y-108976190D01*
X127770238Y-109071428D01*
X127817857Y-109119047D01*
X127817857Y-108071428D02*
X127770238Y-108023809D01*
X127722619Y-108071428D01*
X127770238Y-108119047D01*
X127817857Y-108071428D01*
X127722619Y-108071428D01*
X128722619Y-107119047D02*
X128722619Y-107595238D01*
X128246428Y-107642857D01*
X128294047Y-107595238D01*
X128341666Y-107500000D01*
X128341666Y-107261904D01*
X128294047Y-107166666D01*
X128246428Y-107119047D01*
X128151190Y-107071428D01*
X127913095Y-107071428D01*
X127817857Y-107119047D01*
X127770238Y-107166666D01*
X127722619Y-107261904D01*
X127722619Y-107500000D01*
X127770238Y-107595238D01*
X127817857Y-107642857D01*
X128722619Y-106785714D02*
X127722619Y-106452380D01*
X128722619Y-106119047D01*
X127722619Y-105023809D02*
X128722619Y-105023809D01*
X128008333Y-104690476D01*
X128722619Y-104357142D01*
X127722619Y-104357142D01*
X127722619Y-103880952D02*
X128389285Y-103880952D01*
X128722619Y-103880952D02*
X128675000Y-103928571D01*
X128627380Y-103880952D01*
X128675000Y-103833333D01*
X128722619Y-103880952D01*
X128627380Y-103880952D01*
X128389285Y-103404761D02*
X127722619Y-103404761D01*
X128294047Y-103404761D02*
X128341666Y-103357142D01*
X128389285Y-103261904D01*
X128389285Y-103119047D01*
X128341666Y-103023809D01*
X128246428Y-102976190D01*
X127722619Y-102976190D01*
D10*
X138107142Y-101571428D02*
X138107142Y-100428571D01*
X137428571Y-111107142D02*
X138571428Y-111107142D01*
X138000000Y-111678571D02*
X138000000Y-110535714D01*
D12*
G04 #@! TO.C,HS1*
G36*
X77000000Y-80500000D02*
X77000000Y-80100000D01*
X77400000Y-80100000D01*
X77400000Y-80500000D01*
X77000000Y-80500000D01*
G37*
G36*
X76600000Y-80500000D02*
X76600000Y-80100000D01*
X77000000Y-80100000D01*
X77000000Y-80500000D01*
X76600000Y-80500000D01*
G37*
G36*
X76200000Y-80500000D02*
X76200000Y-80100000D01*
X76600000Y-80100000D01*
X76600000Y-80500000D01*
X76200000Y-80500000D01*
G37*
G36*
X75800000Y-80500000D02*
X75800000Y-80100000D01*
X76200000Y-80100000D01*
X76200000Y-80500000D01*
X75800000Y-80500000D01*
G37*
G36*
X75400000Y-80500000D02*
X75400000Y-80100000D01*
X75800000Y-80100000D01*
X75800000Y-80500000D01*
X75400000Y-80500000D01*
G37*
G36*
X75000000Y-80500000D02*
X75000000Y-80100000D01*
X75400000Y-80100000D01*
X75400000Y-80500000D01*
X75000000Y-80500000D01*
G37*
G36*
X74600000Y-80500000D02*
X74600000Y-80100000D01*
X75000000Y-80100000D01*
X75000000Y-80500000D01*
X74600000Y-80500000D01*
G37*
G36*
X74200000Y-80500000D02*
X74200000Y-80100000D01*
X74600000Y-80100000D01*
X74600000Y-80500000D01*
X74200000Y-80500000D01*
G37*
G36*
X73800000Y-80500000D02*
X73800000Y-80100000D01*
X74200000Y-80100000D01*
X74200000Y-80500000D01*
X73800000Y-80500000D01*
G37*
G36*
X73400000Y-80500000D02*
X73400000Y-80100000D01*
X73800000Y-80100000D01*
X73800000Y-80500000D01*
X73400000Y-80500000D01*
G37*
G36*
X73000000Y-80500000D02*
X73000000Y-80100000D01*
X73400000Y-80100000D01*
X73400000Y-80500000D01*
X73000000Y-80500000D01*
G37*
G36*
X72600000Y-80500000D02*
X72600000Y-80100000D01*
X73000000Y-80100000D01*
X73000000Y-80500000D01*
X72600000Y-80500000D01*
G37*
G36*
X72200000Y-80500000D02*
X72200000Y-80100000D01*
X72600000Y-80100000D01*
X72600000Y-80500000D01*
X72200000Y-80500000D01*
G37*
G36*
X71800000Y-80500000D02*
X71800000Y-80100000D01*
X72200000Y-80100000D01*
X72200000Y-80500000D01*
X71800000Y-80500000D01*
G37*
G36*
X71400000Y-80500000D02*
X71400000Y-80100000D01*
X71800000Y-80100000D01*
X71800000Y-80500000D01*
X71400000Y-80500000D01*
G37*
G36*
X71000000Y-80500000D02*
X71000000Y-80100000D01*
X71400000Y-80100000D01*
X71400000Y-80500000D01*
X71000000Y-80500000D01*
G37*
G36*
X70600000Y-80500000D02*
X70600000Y-80100000D01*
X71000000Y-80100000D01*
X71000000Y-80500000D01*
X70600000Y-80500000D01*
G37*
G36*
X70200000Y-80500000D02*
X70200000Y-80100000D01*
X70600000Y-80100000D01*
X70600000Y-80500000D01*
X70200000Y-80500000D01*
G37*
G36*
X69800000Y-80500000D02*
X69800000Y-80100000D01*
X70200000Y-80100000D01*
X70200000Y-80500000D01*
X69800000Y-80500000D01*
G37*
G36*
X69400000Y-80500000D02*
X69400000Y-80100000D01*
X69800000Y-80100000D01*
X69800000Y-80500000D01*
X69400000Y-80500000D01*
G37*
G36*
X69000000Y-80500000D02*
X69000000Y-80100000D01*
X69400000Y-80100000D01*
X69400000Y-80500000D01*
X69000000Y-80500000D01*
G37*
G36*
X68600000Y-80500000D02*
X68600000Y-80100000D01*
X69000000Y-80100000D01*
X69000000Y-80500000D01*
X68600000Y-80500000D01*
G37*
G36*
X68200000Y-80500000D02*
X68200000Y-80100000D01*
X68600000Y-80100000D01*
X68600000Y-80500000D01*
X68200000Y-80500000D01*
G37*
G36*
X67800000Y-80500000D02*
X67800000Y-80100000D01*
X68200000Y-80100000D01*
X68200000Y-80500000D01*
X67800000Y-80500000D01*
G37*
G36*
X67400000Y-80500000D02*
X67400000Y-80100000D01*
X67800000Y-80100000D01*
X67800000Y-80500000D01*
X67400000Y-80500000D01*
G37*
G36*
X67000000Y-80500000D02*
X67000000Y-80100000D01*
X67400000Y-80100000D01*
X67400000Y-80500000D01*
X67000000Y-80500000D01*
G37*
G36*
X66600000Y-80500000D02*
X66600000Y-80100000D01*
X67000000Y-80100000D01*
X67000000Y-80500000D01*
X66600000Y-80500000D01*
G37*
G36*
X66200000Y-80500000D02*
X66200000Y-80100000D01*
X66600000Y-80100000D01*
X66600000Y-80500000D01*
X66200000Y-80500000D01*
G37*
G36*
X65800000Y-80500000D02*
X65800000Y-80100000D01*
X66200000Y-80100000D01*
X66200000Y-80500000D01*
X65800000Y-80500000D01*
G37*
G36*
X65400000Y-80500000D02*
X65400000Y-80100000D01*
X65800000Y-80100000D01*
X65800000Y-80500000D01*
X65400000Y-80500000D01*
G37*
G36*
X65000000Y-80500000D02*
X65000000Y-80100000D01*
X65400000Y-80100000D01*
X65400000Y-80500000D01*
X65000000Y-80500000D01*
G37*
G36*
X64600000Y-80500000D02*
X64600000Y-80100000D01*
X65000000Y-80100000D01*
X65000000Y-80500000D01*
X64600000Y-80500000D01*
G37*
G36*
X64200000Y-80500000D02*
X64200000Y-80100000D01*
X64600000Y-80100000D01*
X64600000Y-80500000D01*
X64200000Y-80500000D01*
G37*
G36*
X63800000Y-80500000D02*
X63800000Y-80100000D01*
X64200000Y-80100000D01*
X64200000Y-80500000D01*
X63800000Y-80500000D01*
G37*
G36*
X63400000Y-80500000D02*
X63400000Y-80100000D01*
X63800000Y-80100000D01*
X63800000Y-80500000D01*
X63400000Y-80500000D01*
G37*
G36*
X63000000Y-80500000D02*
X63000000Y-80100000D01*
X63400000Y-80100000D01*
X63400000Y-80500000D01*
X63000000Y-80500000D01*
G37*
G36*
X62600000Y-80500000D02*
X62600000Y-80100000D01*
X63000000Y-80100000D01*
X63000000Y-80500000D01*
X62600000Y-80500000D01*
G37*
G36*
X77000000Y-80900000D02*
X77000000Y-80500000D01*
X77400000Y-80500000D01*
X77400000Y-80900000D01*
X77000000Y-80900000D01*
G37*
G36*
X76600000Y-80900000D02*
X76600000Y-80500000D01*
X77000000Y-80500000D01*
X77000000Y-80900000D01*
X76600000Y-80900000D01*
G37*
G36*
X76200000Y-80900000D02*
X76200000Y-80500000D01*
X76600000Y-80500000D01*
X76600000Y-80900000D01*
X76200000Y-80900000D01*
G37*
G36*
X75800000Y-80900000D02*
X75800000Y-80500000D01*
X76200000Y-80500000D01*
X76200000Y-80900000D01*
X75800000Y-80900000D01*
G37*
G36*
X75400000Y-80900000D02*
X75400000Y-80500000D01*
X75800000Y-80500000D01*
X75800000Y-80900000D01*
X75400000Y-80900000D01*
G37*
G36*
X75000000Y-80900000D02*
X75000000Y-80500000D01*
X75400000Y-80500000D01*
X75400000Y-80900000D01*
X75000000Y-80900000D01*
G37*
G36*
X74600000Y-80900000D02*
X74600000Y-80500000D01*
X75000000Y-80500000D01*
X75000000Y-80900000D01*
X74600000Y-80900000D01*
G37*
G36*
X74200000Y-80900000D02*
X74200000Y-80500000D01*
X74600000Y-80500000D01*
X74600000Y-80900000D01*
X74200000Y-80900000D01*
G37*
G36*
X73800000Y-80900000D02*
X73800000Y-80500000D01*
X74200000Y-80500000D01*
X74200000Y-80900000D01*
X73800000Y-80900000D01*
G37*
G36*
X73400000Y-80900000D02*
X73400000Y-80500000D01*
X73800000Y-80500000D01*
X73800000Y-80900000D01*
X73400000Y-80900000D01*
G37*
G36*
X73000000Y-80900000D02*
X73000000Y-80500000D01*
X73400000Y-80500000D01*
X73400000Y-80900000D01*
X73000000Y-80900000D01*
G37*
G36*
X72600000Y-80900000D02*
X72600000Y-80500000D01*
X73000000Y-80500000D01*
X73000000Y-80900000D01*
X72600000Y-80900000D01*
G37*
G36*
X72200000Y-80900000D02*
X72200000Y-80500000D01*
X72600000Y-80500000D01*
X72600000Y-80900000D01*
X72200000Y-80900000D01*
G37*
G36*
X71800000Y-80900000D02*
X71800000Y-80500000D01*
X72200000Y-80500000D01*
X72200000Y-80900000D01*
X71800000Y-80900000D01*
G37*
G36*
X71400000Y-80900000D02*
X71400000Y-80500000D01*
X71800000Y-80500000D01*
X71800000Y-80900000D01*
X71400000Y-80900000D01*
G37*
G36*
X71000000Y-80900000D02*
X71000000Y-80500000D01*
X71400000Y-80500000D01*
X71400000Y-80900000D01*
X71000000Y-80900000D01*
G37*
G36*
X70600000Y-80900000D02*
X70600000Y-80500000D01*
X71000000Y-80500000D01*
X71000000Y-80900000D01*
X70600000Y-80900000D01*
G37*
G36*
X70200000Y-80900000D02*
X70200000Y-80500000D01*
X70600000Y-80500000D01*
X70600000Y-80900000D01*
X70200000Y-80900000D01*
G37*
G36*
X69800000Y-80900000D02*
X69800000Y-80500000D01*
X70200000Y-80500000D01*
X70200000Y-80900000D01*
X69800000Y-80900000D01*
G37*
G36*
X69400000Y-80900000D02*
X69400000Y-80500000D01*
X69800000Y-80500000D01*
X69800000Y-80900000D01*
X69400000Y-80900000D01*
G37*
G36*
X69000000Y-80900000D02*
X69000000Y-80500000D01*
X69400000Y-80500000D01*
X69400000Y-80900000D01*
X69000000Y-80900000D01*
G37*
G36*
X68600000Y-80900000D02*
X68600000Y-80500000D01*
X69000000Y-80500000D01*
X69000000Y-80900000D01*
X68600000Y-80900000D01*
G37*
G36*
X68200000Y-80900000D02*
X68200000Y-80500000D01*
X68600000Y-80500000D01*
X68600000Y-80900000D01*
X68200000Y-80900000D01*
G37*
G36*
X67800000Y-80900000D02*
X67800000Y-80500000D01*
X68200000Y-80500000D01*
X68200000Y-80900000D01*
X67800000Y-80900000D01*
G37*
G36*
X67400000Y-80900000D02*
X67400000Y-80500000D01*
X67800000Y-80500000D01*
X67800000Y-80900000D01*
X67400000Y-80900000D01*
G37*
G36*
X67000000Y-80900000D02*
X67000000Y-80500000D01*
X67400000Y-80500000D01*
X67400000Y-80900000D01*
X67000000Y-80900000D01*
G37*
G36*
X66600000Y-80900000D02*
X66600000Y-80500000D01*
X67000000Y-80500000D01*
X67000000Y-80900000D01*
X66600000Y-80900000D01*
G37*
G36*
X66200000Y-80900000D02*
X66200000Y-80500000D01*
X66600000Y-80500000D01*
X66600000Y-80900000D01*
X66200000Y-80900000D01*
G37*
G36*
X65800000Y-80900000D02*
X65800000Y-80500000D01*
X66200000Y-80500000D01*
X66200000Y-80900000D01*
X65800000Y-80900000D01*
G37*
G36*
X65400000Y-80900000D02*
X65400000Y-80500000D01*
X65800000Y-80500000D01*
X65800000Y-80900000D01*
X65400000Y-80900000D01*
G37*
G36*
X65000000Y-80900000D02*
X65000000Y-80500000D01*
X65400000Y-80500000D01*
X65400000Y-80900000D01*
X65000000Y-80900000D01*
G37*
G36*
X64600000Y-80900000D02*
X64600000Y-80500000D01*
X65000000Y-80500000D01*
X65000000Y-80900000D01*
X64600000Y-80900000D01*
G37*
G36*
X64200000Y-80900000D02*
X64200000Y-80500000D01*
X64600000Y-80500000D01*
X64600000Y-80900000D01*
X64200000Y-80900000D01*
G37*
G36*
X63800000Y-80900000D02*
X63800000Y-80500000D01*
X64200000Y-80500000D01*
X64200000Y-80900000D01*
X63800000Y-80900000D01*
G37*
G36*
X63400000Y-80900000D02*
X63400000Y-80500000D01*
X63800000Y-80500000D01*
X63800000Y-80900000D01*
X63400000Y-80900000D01*
G37*
G36*
X63000000Y-80900000D02*
X63000000Y-80500000D01*
X63400000Y-80500000D01*
X63400000Y-80900000D01*
X63000000Y-80900000D01*
G37*
G36*
X62600000Y-80900000D02*
X62600000Y-80500000D01*
X63000000Y-80500000D01*
X63000000Y-80900000D01*
X62600000Y-80900000D01*
G37*
G36*
X77000000Y-81300000D02*
X77000000Y-80900000D01*
X77400000Y-80900000D01*
X77400000Y-81300000D01*
X77000000Y-81300000D01*
G37*
G36*
X76600000Y-81300000D02*
X76600000Y-80900000D01*
X77000000Y-80900000D01*
X77000000Y-81300000D01*
X76600000Y-81300000D01*
G37*
G36*
X73400000Y-81300000D02*
X73400000Y-80900000D01*
X73800000Y-80900000D01*
X73800000Y-81300000D01*
X73400000Y-81300000D01*
G37*
G36*
X72600000Y-81300000D02*
X72600000Y-80900000D01*
X73000000Y-80900000D01*
X73000000Y-81300000D01*
X72600000Y-81300000D01*
G37*
G36*
X72200000Y-81300000D02*
X72200000Y-80900000D01*
X72600000Y-80900000D01*
X72600000Y-81300000D01*
X72200000Y-81300000D01*
G37*
G36*
X71400000Y-81300000D02*
X71400000Y-80900000D01*
X71800000Y-80900000D01*
X71800000Y-81300000D01*
X71400000Y-81300000D01*
G37*
G36*
X69400000Y-81300000D02*
X69400000Y-80900000D01*
X69800000Y-80900000D01*
X69800000Y-81300000D01*
X69400000Y-81300000D01*
G37*
G36*
X69000000Y-81300000D02*
X69000000Y-80900000D01*
X69400000Y-80900000D01*
X69400000Y-81300000D01*
X69000000Y-81300000D01*
G37*
G36*
X68600000Y-81300000D02*
X68600000Y-80900000D01*
X69000000Y-80900000D01*
X69000000Y-81300000D01*
X68600000Y-81300000D01*
G37*
G36*
X68200000Y-81300000D02*
X68200000Y-80900000D01*
X68600000Y-80900000D01*
X68600000Y-81300000D01*
X68200000Y-81300000D01*
G37*
G36*
X67800000Y-81300000D02*
X67800000Y-80900000D01*
X68200000Y-80900000D01*
X68200000Y-81300000D01*
X67800000Y-81300000D01*
G37*
G36*
X67400000Y-81300000D02*
X67400000Y-80900000D01*
X67800000Y-80900000D01*
X67800000Y-81300000D01*
X67400000Y-81300000D01*
G37*
G36*
X66600000Y-81300000D02*
X66600000Y-80900000D01*
X67000000Y-80900000D01*
X67000000Y-81300000D01*
X66600000Y-81300000D01*
G37*
G36*
X66200000Y-81300000D02*
X66200000Y-80900000D01*
X66600000Y-80900000D01*
X66600000Y-81300000D01*
X66200000Y-81300000D01*
G37*
G36*
X63000000Y-81300000D02*
X63000000Y-80900000D01*
X63400000Y-80900000D01*
X63400000Y-81300000D01*
X63000000Y-81300000D01*
G37*
G36*
X62600000Y-81300000D02*
X62600000Y-80900000D01*
X63000000Y-80900000D01*
X63000000Y-81300000D01*
X62600000Y-81300000D01*
G37*
G36*
X77000000Y-81700000D02*
X77000000Y-81300000D01*
X77400000Y-81300000D01*
X77400000Y-81700000D01*
X77000000Y-81700000D01*
G37*
G36*
X76600000Y-81700000D02*
X76600000Y-81300000D01*
X77000000Y-81300000D01*
X77000000Y-81700000D01*
X76600000Y-81700000D01*
G37*
G36*
X75800000Y-81700000D02*
X75800000Y-81300000D01*
X76200000Y-81300000D01*
X76200000Y-81700000D01*
X75800000Y-81700000D01*
G37*
G36*
X75400000Y-81700000D02*
X75400000Y-81300000D01*
X75800000Y-81300000D01*
X75800000Y-81700000D01*
X75400000Y-81700000D01*
G37*
G36*
X75000000Y-81700000D02*
X75000000Y-81300000D01*
X75400000Y-81300000D01*
X75400000Y-81700000D01*
X75000000Y-81700000D01*
G37*
G36*
X74600000Y-81700000D02*
X74600000Y-81300000D01*
X75000000Y-81300000D01*
X75000000Y-81700000D01*
X74600000Y-81700000D01*
G37*
G36*
X74200000Y-81700000D02*
X74200000Y-81300000D01*
X74600000Y-81300000D01*
X74600000Y-81700000D01*
X74200000Y-81700000D01*
G37*
G36*
X73400000Y-81700000D02*
X73400000Y-81300000D01*
X73800000Y-81300000D01*
X73800000Y-81700000D01*
X73400000Y-81700000D01*
G37*
G36*
X73000000Y-81700000D02*
X73000000Y-81300000D01*
X73400000Y-81300000D01*
X73400000Y-81700000D01*
X73000000Y-81700000D01*
G37*
G36*
X72200000Y-81700000D02*
X72200000Y-81300000D01*
X72600000Y-81300000D01*
X72600000Y-81700000D01*
X72200000Y-81700000D01*
G37*
G36*
X70200000Y-81700000D02*
X70200000Y-81300000D01*
X70600000Y-81300000D01*
X70600000Y-81700000D01*
X70200000Y-81700000D01*
G37*
G36*
X69400000Y-81700000D02*
X69400000Y-81300000D01*
X69800000Y-81300000D01*
X69800000Y-81700000D01*
X69400000Y-81700000D01*
G37*
G36*
X68200000Y-81700000D02*
X68200000Y-81300000D01*
X68600000Y-81300000D01*
X68600000Y-81700000D01*
X68200000Y-81700000D01*
G37*
G36*
X67800000Y-81700000D02*
X67800000Y-81300000D01*
X68200000Y-81300000D01*
X68200000Y-81700000D01*
X67800000Y-81700000D01*
G37*
G36*
X67400000Y-81700000D02*
X67400000Y-81300000D01*
X67800000Y-81300000D01*
X67800000Y-81700000D01*
X67400000Y-81700000D01*
G37*
G36*
X67000000Y-81700000D02*
X67000000Y-81300000D01*
X67400000Y-81300000D01*
X67400000Y-81700000D01*
X67000000Y-81700000D01*
G37*
G36*
X66600000Y-81700000D02*
X66600000Y-81300000D01*
X67000000Y-81300000D01*
X67000000Y-81700000D01*
X66600000Y-81700000D01*
G37*
G36*
X66200000Y-81700000D02*
X66200000Y-81300000D01*
X66600000Y-81300000D01*
X66600000Y-81700000D01*
X66200000Y-81700000D01*
G37*
G36*
X65400000Y-81700000D02*
X65400000Y-81300000D01*
X65800000Y-81300000D01*
X65800000Y-81700000D01*
X65400000Y-81700000D01*
G37*
G36*
X65000000Y-81700000D02*
X65000000Y-81300000D01*
X65400000Y-81300000D01*
X65400000Y-81700000D01*
X65000000Y-81700000D01*
G37*
G36*
X64600000Y-81700000D02*
X64600000Y-81300000D01*
X65000000Y-81300000D01*
X65000000Y-81700000D01*
X64600000Y-81700000D01*
G37*
G36*
X64200000Y-81700000D02*
X64200000Y-81300000D01*
X64600000Y-81300000D01*
X64600000Y-81700000D01*
X64200000Y-81700000D01*
G37*
G36*
X63800000Y-81700000D02*
X63800000Y-81300000D01*
X64200000Y-81300000D01*
X64200000Y-81700000D01*
X63800000Y-81700000D01*
G37*
G36*
X63000000Y-81700000D02*
X63000000Y-81300000D01*
X63400000Y-81300000D01*
X63400000Y-81700000D01*
X63000000Y-81700000D01*
G37*
G36*
X62600000Y-81700000D02*
X62600000Y-81300000D01*
X63000000Y-81300000D01*
X63000000Y-81700000D01*
X62600000Y-81700000D01*
G37*
G36*
X77000000Y-82100000D02*
X77000000Y-81700000D01*
X77400000Y-81700000D01*
X77400000Y-82100000D01*
X77000000Y-82100000D01*
G37*
G36*
X76600000Y-82100000D02*
X76600000Y-81700000D01*
X77000000Y-81700000D01*
X77000000Y-82100000D01*
X76600000Y-82100000D01*
G37*
G36*
X75800000Y-82100000D02*
X75800000Y-81700000D01*
X76200000Y-81700000D01*
X76200000Y-82100000D01*
X75800000Y-82100000D01*
G37*
G36*
X74200000Y-82100000D02*
X74200000Y-81700000D01*
X74600000Y-81700000D01*
X74600000Y-82100000D01*
X74200000Y-82100000D01*
G37*
G36*
X73400000Y-82100000D02*
X73400000Y-81700000D01*
X73800000Y-81700000D01*
X73800000Y-82100000D01*
X73400000Y-82100000D01*
G37*
G36*
X73000000Y-82100000D02*
X73000000Y-81700000D01*
X73400000Y-81700000D01*
X73400000Y-82100000D01*
X73000000Y-82100000D01*
G37*
G36*
X71800000Y-82100000D02*
X71800000Y-81700000D01*
X72200000Y-81700000D01*
X72200000Y-82100000D01*
X71800000Y-82100000D01*
G37*
G36*
X71400000Y-82100000D02*
X71400000Y-81700000D01*
X71800000Y-81700000D01*
X71800000Y-82100000D01*
X71400000Y-82100000D01*
G37*
G36*
X71000000Y-82100000D02*
X71000000Y-81700000D01*
X71400000Y-81700000D01*
X71400000Y-82100000D01*
X71000000Y-82100000D01*
G37*
G36*
X68600000Y-82100000D02*
X68600000Y-81700000D01*
X69000000Y-81700000D01*
X69000000Y-82100000D01*
X68600000Y-82100000D01*
G37*
G36*
X68200000Y-82100000D02*
X68200000Y-81700000D01*
X68600000Y-81700000D01*
X68600000Y-82100000D01*
X68200000Y-82100000D01*
G37*
G36*
X67400000Y-82100000D02*
X67400000Y-81700000D01*
X67800000Y-81700000D01*
X67800000Y-82100000D01*
X67400000Y-82100000D01*
G37*
G36*
X66200000Y-82100000D02*
X66200000Y-81700000D01*
X66600000Y-81700000D01*
X66600000Y-82100000D01*
X66200000Y-82100000D01*
G37*
G36*
X65400000Y-82100000D02*
X65400000Y-81700000D01*
X65800000Y-81700000D01*
X65800000Y-82100000D01*
X65400000Y-82100000D01*
G37*
G36*
X63800000Y-82100000D02*
X63800000Y-81700000D01*
X64200000Y-81700000D01*
X64200000Y-82100000D01*
X63800000Y-82100000D01*
G37*
G36*
X63000000Y-82100000D02*
X63000000Y-81700000D01*
X63400000Y-81700000D01*
X63400000Y-82100000D01*
X63000000Y-82100000D01*
G37*
G36*
X62600000Y-82100000D02*
X62600000Y-81700000D01*
X63000000Y-81700000D01*
X63000000Y-82100000D01*
X62600000Y-82100000D01*
G37*
G36*
X77000000Y-82500000D02*
X77000000Y-82100000D01*
X77400000Y-82100000D01*
X77400000Y-82500000D01*
X77000000Y-82500000D01*
G37*
G36*
X76600000Y-82500000D02*
X76600000Y-82100000D01*
X77000000Y-82100000D01*
X77000000Y-82500000D01*
X76600000Y-82500000D01*
G37*
G36*
X75800000Y-82500000D02*
X75800000Y-82100000D01*
X76200000Y-82100000D01*
X76200000Y-82500000D01*
X75800000Y-82500000D01*
G37*
G36*
X74200000Y-82500000D02*
X74200000Y-82100000D01*
X74600000Y-82100000D01*
X74600000Y-82500000D01*
X74200000Y-82500000D01*
G37*
G36*
X73400000Y-82500000D02*
X73400000Y-82100000D01*
X73800000Y-82100000D01*
X73800000Y-82500000D01*
X73400000Y-82500000D01*
G37*
G36*
X71800000Y-82500000D02*
X71800000Y-82100000D01*
X72200000Y-82100000D01*
X72200000Y-82500000D01*
X71800000Y-82500000D01*
G37*
G36*
X71400000Y-82500000D02*
X71400000Y-82100000D01*
X71800000Y-82100000D01*
X71800000Y-82500000D01*
X71400000Y-82500000D01*
G37*
G36*
X71000000Y-82500000D02*
X71000000Y-82100000D01*
X71400000Y-82100000D01*
X71400000Y-82500000D01*
X71000000Y-82500000D01*
G37*
G36*
X70600000Y-82500000D02*
X70600000Y-82100000D01*
X71000000Y-82100000D01*
X71000000Y-82500000D01*
X70600000Y-82500000D01*
G37*
G36*
X69000000Y-82500000D02*
X69000000Y-82100000D01*
X69400000Y-82100000D01*
X69400000Y-82500000D01*
X69000000Y-82500000D01*
G37*
G36*
X68600000Y-82500000D02*
X68600000Y-82100000D01*
X69000000Y-82100000D01*
X69000000Y-82500000D01*
X68600000Y-82500000D01*
G37*
G36*
X68200000Y-82500000D02*
X68200000Y-82100000D01*
X68600000Y-82100000D01*
X68600000Y-82500000D01*
X68200000Y-82500000D01*
G37*
G36*
X66600000Y-82500000D02*
X66600000Y-82100000D01*
X67000000Y-82100000D01*
X67000000Y-82500000D01*
X66600000Y-82500000D01*
G37*
G36*
X66200000Y-82500000D02*
X66200000Y-82100000D01*
X66600000Y-82100000D01*
X66600000Y-82500000D01*
X66200000Y-82500000D01*
G37*
G36*
X65400000Y-82500000D02*
X65400000Y-82100000D01*
X65800000Y-82100000D01*
X65800000Y-82500000D01*
X65400000Y-82500000D01*
G37*
G36*
X63800000Y-82500000D02*
X63800000Y-82100000D01*
X64200000Y-82100000D01*
X64200000Y-82500000D01*
X63800000Y-82500000D01*
G37*
G36*
X63000000Y-82500000D02*
X63000000Y-82100000D01*
X63400000Y-82100000D01*
X63400000Y-82500000D01*
X63000000Y-82500000D01*
G37*
G36*
X62600000Y-82500000D02*
X62600000Y-82100000D01*
X63000000Y-82100000D01*
X63000000Y-82500000D01*
X62600000Y-82500000D01*
G37*
G36*
X77000000Y-82900000D02*
X77000000Y-82500000D01*
X77400000Y-82500000D01*
X77400000Y-82900000D01*
X77000000Y-82900000D01*
G37*
G36*
X76600000Y-82900000D02*
X76600000Y-82500000D01*
X77000000Y-82500000D01*
X77000000Y-82900000D01*
X76600000Y-82900000D01*
G37*
G36*
X75800000Y-82900000D02*
X75800000Y-82500000D01*
X76200000Y-82500000D01*
X76200000Y-82900000D01*
X75800000Y-82900000D01*
G37*
G36*
X74200000Y-82900000D02*
X74200000Y-82500000D01*
X74600000Y-82500000D01*
X74600000Y-82900000D01*
X74200000Y-82900000D01*
G37*
G36*
X73400000Y-82900000D02*
X73400000Y-82500000D01*
X73800000Y-82500000D01*
X73800000Y-82900000D01*
X73400000Y-82900000D01*
G37*
G36*
X71400000Y-82900000D02*
X71400000Y-82500000D01*
X71800000Y-82500000D01*
X71800000Y-82900000D01*
X71400000Y-82900000D01*
G37*
G36*
X70600000Y-82900000D02*
X70600000Y-82500000D01*
X71000000Y-82500000D01*
X71000000Y-82900000D01*
X70600000Y-82900000D01*
G37*
G36*
X70200000Y-82900000D02*
X70200000Y-82500000D01*
X70600000Y-82500000D01*
X70600000Y-82900000D01*
X70200000Y-82900000D01*
G37*
G36*
X69400000Y-82900000D02*
X69400000Y-82500000D01*
X69800000Y-82500000D01*
X69800000Y-82900000D01*
X69400000Y-82900000D01*
G37*
G36*
X69000000Y-82900000D02*
X69000000Y-82500000D01*
X69400000Y-82500000D01*
X69400000Y-82900000D01*
X69000000Y-82900000D01*
G37*
G36*
X68200000Y-82900000D02*
X68200000Y-82500000D01*
X68600000Y-82500000D01*
X68600000Y-82900000D01*
X68200000Y-82900000D01*
G37*
G36*
X67800000Y-82900000D02*
X67800000Y-82500000D01*
X68200000Y-82500000D01*
X68200000Y-82900000D01*
X67800000Y-82900000D01*
G37*
G36*
X67000000Y-82900000D02*
X67000000Y-82500000D01*
X67400000Y-82500000D01*
X67400000Y-82900000D01*
X67000000Y-82900000D01*
G37*
G36*
X66600000Y-82900000D02*
X66600000Y-82500000D01*
X67000000Y-82500000D01*
X67000000Y-82900000D01*
X66600000Y-82900000D01*
G37*
G36*
X66200000Y-82900000D02*
X66200000Y-82500000D01*
X66600000Y-82500000D01*
X66600000Y-82900000D01*
X66200000Y-82900000D01*
G37*
G36*
X65400000Y-82900000D02*
X65400000Y-82500000D01*
X65800000Y-82500000D01*
X65800000Y-82900000D01*
X65400000Y-82900000D01*
G37*
G36*
X63800000Y-82900000D02*
X63800000Y-82500000D01*
X64200000Y-82500000D01*
X64200000Y-82900000D01*
X63800000Y-82900000D01*
G37*
G36*
X63000000Y-82900000D02*
X63000000Y-82500000D01*
X63400000Y-82500000D01*
X63400000Y-82900000D01*
X63000000Y-82900000D01*
G37*
G36*
X62600000Y-82900000D02*
X62600000Y-82500000D01*
X63000000Y-82500000D01*
X63000000Y-82900000D01*
X62600000Y-82900000D01*
G37*
G36*
X77000000Y-83300000D02*
X77000000Y-82900000D01*
X77400000Y-82900000D01*
X77400000Y-83300000D01*
X77000000Y-83300000D01*
G37*
G36*
X76600000Y-83300000D02*
X76600000Y-82900000D01*
X77000000Y-82900000D01*
X77000000Y-83300000D01*
X76600000Y-83300000D01*
G37*
G36*
X75800000Y-83300000D02*
X75800000Y-82900000D01*
X76200000Y-82900000D01*
X76200000Y-83300000D01*
X75800000Y-83300000D01*
G37*
G36*
X75400000Y-83300000D02*
X75400000Y-82900000D01*
X75800000Y-82900000D01*
X75800000Y-83300000D01*
X75400000Y-83300000D01*
G37*
G36*
X75000000Y-83300000D02*
X75000000Y-82900000D01*
X75400000Y-82900000D01*
X75400000Y-83300000D01*
X75000000Y-83300000D01*
G37*
G36*
X74600000Y-83300000D02*
X74600000Y-82900000D01*
X75000000Y-82900000D01*
X75000000Y-83300000D01*
X74600000Y-83300000D01*
G37*
G36*
X74200000Y-83300000D02*
X74200000Y-82900000D01*
X74600000Y-82900000D01*
X74600000Y-83300000D01*
X74200000Y-83300000D01*
G37*
G36*
X73400000Y-83300000D02*
X73400000Y-82900000D01*
X73800000Y-82900000D01*
X73800000Y-83300000D01*
X73400000Y-83300000D01*
G37*
G36*
X72200000Y-83300000D02*
X72200000Y-82900000D01*
X72600000Y-82900000D01*
X72600000Y-83300000D01*
X72200000Y-83300000D01*
G37*
G36*
X71800000Y-83300000D02*
X71800000Y-82900000D01*
X72200000Y-82900000D01*
X72200000Y-83300000D01*
X71800000Y-83300000D01*
G37*
G36*
X70600000Y-83300000D02*
X70600000Y-82900000D01*
X71000000Y-82900000D01*
X71000000Y-83300000D01*
X70600000Y-83300000D01*
G37*
G36*
X69800000Y-83300000D02*
X69800000Y-82900000D01*
X70200000Y-82900000D01*
X70200000Y-83300000D01*
X69800000Y-83300000D01*
G37*
G36*
X68600000Y-83300000D02*
X68600000Y-82900000D01*
X69000000Y-82900000D01*
X69000000Y-83300000D01*
X68600000Y-83300000D01*
G37*
G36*
X67400000Y-83300000D02*
X67400000Y-82900000D01*
X67800000Y-82900000D01*
X67800000Y-83300000D01*
X67400000Y-83300000D01*
G37*
G36*
X66200000Y-83300000D02*
X66200000Y-82900000D01*
X66600000Y-82900000D01*
X66600000Y-83300000D01*
X66200000Y-83300000D01*
G37*
G36*
X65400000Y-83300000D02*
X65400000Y-82900000D01*
X65800000Y-82900000D01*
X65800000Y-83300000D01*
X65400000Y-83300000D01*
G37*
G36*
X65000000Y-83300000D02*
X65000000Y-82900000D01*
X65400000Y-82900000D01*
X65400000Y-83300000D01*
X65000000Y-83300000D01*
G37*
G36*
X64600000Y-83300000D02*
X64600000Y-82900000D01*
X65000000Y-82900000D01*
X65000000Y-83300000D01*
X64600000Y-83300000D01*
G37*
G36*
X64200000Y-83300000D02*
X64200000Y-82900000D01*
X64600000Y-82900000D01*
X64600000Y-83300000D01*
X64200000Y-83300000D01*
G37*
G36*
X63800000Y-83300000D02*
X63800000Y-82900000D01*
X64200000Y-82900000D01*
X64200000Y-83300000D01*
X63800000Y-83300000D01*
G37*
G36*
X63000000Y-83300000D02*
X63000000Y-82900000D01*
X63400000Y-82900000D01*
X63400000Y-83300000D01*
X63000000Y-83300000D01*
G37*
G36*
X62600000Y-83300000D02*
X62600000Y-82900000D01*
X63000000Y-82900000D01*
X63000000Y-83300000D01*
X62600000Y-83300000D01*
G37*
G36*
X77000000Y-83700000D02*
X77000000Y-83300000D01*
X77400000Y-83300000D01*
X77400000Y-83700000D01*
X77000000Y-83700000D01*
G37*
G36*
X76600000Y-83700000D02*
X76600000Y-83300000D01*
X77000000Y-83300000D01*
X77000000Y-83700000D01*
X76600000Y-83700000D01*
G37*
G36*
X73400000Y-83700000D02*
X73400000Y-83300000D01*
X73800000Y-83300000D01*
X73800000Y-83700000D01*
X73400000Y-83700000D01*
G37*
G36*
X72600000Y-83700000D02*
X72600000Y-83300000D01*
X73000000Y-83300000D01*
X73000000Y-83700000D01*
X72600000Y-83700000D01*
G37*
G36*
X71800000Y-83700000D02*
X71800000Y-83300000D01*
X72200000Y-83300000D01*
X72200000Y-83700000D01*
X71800000Y-83700000D01*
G37*
G36*
X71000000Y-83700000D02*
X71000000Y-83300000D01*
X71400000Y-83300000D01*
X71400000Y-83700000D01*
X71000000Y-83700000D01*
G37*
G36*
X70200000Y-83700000D02*
X70200000Y-83300000D01*
X70600000Y-83300000D01*
X70600000Y-83700000D01*
X70200000Y-83700000D01*
G37*
G36*
X69400000Y-83700000D02*
X69400000Y-83300000D01*
X69800000Y-83300000D01*
X69800000Y-83700000D01*
X69400000Y-83700000D01*
G37*
G36*
X68600000Y-83700000D02*
X68600000Y-83300000D01*
X69000000Y-83300000D01*
X69000000Y-83700000D01*
X68600000Y-83700000D01*
G37*
G36*
X67800000Y-83700000D02*
X67800000Y-83300000D01*
X68200000Y-83300000D01*
X68200000Y-83700000D01*
X67800000Y-83700000D01*
G37*
G36*
X67000000Y-83700000D02*
X67000000Y-83300000D01*
X67400000Y-83300000D01*
X67400000Y-83700000D01*
X67000000Y-83700000D01*
G37*
G36*
X66200000Y-83700000D02*
X66200000Y-83300000D01*
X66600000Y-83300000D01*
X66600000Y-83700000D01*
X66200000Y-83700000D01*
G37*
G36*
X63000000Y-83700000D02*
X63000000Y-83300000D01*
X63400000Y-83300000D01*
X63400000Y-83700000D01*
X63000000Y-83700000D01*
G37*
G36*
X62600000Y-83700000D02*
X62600000Y-83300000D01*
X63000000Y-83300000D01*
X63000000Y-83700000D01*
X62600000Y-83700000D01*
G37*
G36*
X77000000Y-84100000D02*
X77000000Y-83700000D01*
X77400000Y-83700000D01*
X77400000Y-84100000D01*
X77000000Y-84100000D01*
G37*
G36*
X76600000Y-84100000D02*
X76600000Y-83700000D01*
X77000000Y-83700000D01*
X77000000Y-84100000D01*
X76600000Y-84100000D01*
G37*
G36*
X76200000Y-84100000D02*
X76200000Y-83700000D01*
X76600000Y-83700000D01*
X76600000Y-84100000D01*
X76200000Y-84100000D01*
G37*
G36*
X75800000Y-84100000D02*
X75800000Y-83700000D01*
X76200000Y-83700000D01*
X76200000Y-84100000D01*
X75800000Y-84100000D01*
G37*
G36*
X75400000Y-84100000D02*
X75400000Y-83700000D01*
X75800000Y-83700000D01*
X75800000Y-84100000D01*
X75400000Y-84100000D01*
G37*
G36*
X75000000Y-84100000D02*
X75000000Y-83700000D01*
X75400000Y-83700000D01*
X75400000Y-84100000D01*
X75000000Y-84100000D01*
G37*
G36*
X74600000Y-84100000D02*
X74600000Y-83700000D01*
X75000000Y-83700000D01*
X75000000Y-84100000D01*
X74600000Y-84100000D01*
G37*
G36*
X74200000Y-84100000D02*
X74200000Y-83700000D01*
X74600000Y-83700000D01*
X74600000Y-84100000D01*
X74200000Y-84100000D01*
G37*
G36*
X73800000Y-84100000D02*
X73800000Y-83700000D01*
X74200000Y-83700000D01*
X74200000Y-84100000D01*
X73800000Y-84100000D01*
G37*
G36*
X73400000Y-84100000D02*
X73400000Y-83700000D01*
X73800000Y-83700000D01*
X73800000Y-84100000D01*
X73400000Y-84100000D01*
G37*
G36*
X72200000Y-84100000D02*
X72200000Y-83700000D01*
X72600000Y-83700000D01*
X72600000Y-84100000D01*
X72200000Y-84100000D01*
G37*
G36*
X71800000Y-84100000D02*
X71800000Y-83700000D01*
X72200000Y-83700000D01*
X72200000Y-84100000D01*
X71800000Y-84100000D01*
G37*
G36*
X71400000Y-84100000D02*
X71400000Y-83700000D01*
X71800000Y-83700000D01*
X71800000Y-84100000D01*
X71400000Y-84100000D01*
G37*
G36*
X71000000Y-84100000D02*
X71000000Y-83700000D01*
X71400000Y-83700000D01*
X71400000Y-84100000D01*
X71000000Y-84100000D01*
G37*
G36*
X70600000Y-84100000D02*
X70600000Y-83700000D01*
X71000000Y-83700000D01*
X71000000Y-84100000D01*
X70600000Y-84100000D01*
G37*
G36*
X70200000Y-84100000D02*
X70200000Y-83700000D01*
X70600000Y-83700000D01*
X70600000Y-84100000D01*
X70200000Y-84100000D01*
G37*
G36*
X69800000Y-84100000D02*
X69800000Y-83700000D01*
X70200000Y-83700000D01*
X70200000Y-84100000D01*
X69800000Y-84100000D01*
G37*
G36*
X69000000Y-84100000D02*
X69000000Y-83700000D01*
X69400000Y-83700000D01*
X69400000Y-84100000D01*
X69000000Y-84100000D01*
G37*
G36*
X67000000Y-84100000D02*
X67000000Y-83700000D01*
X67400000Y-83700000D01*
X67400000Y-84100000D01*
X67000000Y-84100000D01*
G37*
G36*
X66200000Y-84100000D02*
X66200000Y-83700000D01*
X66600000Y-83700000D01*
X66600000Y-84100000D01*
X66200000Y-84100000D01*
G37*
G36*
X65800000Y-84100000D02*
X65800000Y-83700000D01*
X66200000Y-83700000D01*
X66200000Y-84100000D01*
X65800000Y-84100000D01*
G37*
G36*
X65400000Y-84100000D02*
X65400000Y-83700000D01*
X65800000Y-83700000D01*
X65800000Y-84100000D01*
X65400000Y-84100000D01*
G37*
G36*
X65000000Y-84100000D02*
X65000000Y-83700000D01*
X65400000Y-83700000D01*
X65400000Y-84100000D01*
X65000000Y-84100000D01*
G37*
G36*
X64600000Y-84100000D02*
X64600000Y-83700000D01*
X65000000Y-83700000D01*
X65000000Y-84100000D01*
X64600000Y-84100000D01*
G37*
G36*
X64200000Y-84100000D02*
X64200000Y-83700000D01*
X64600000Y-83700000D01*
X64600000Y-84100000D01*
X64200000Y-84100000D01*
G37*
G36*
X63800000Y-84100000D02*
X63800000Y-83700000D01*
X64200000Y-83700000D01*
X64200000Y-84100000D01*
X63800000Y-84100000D01*
G37*
G36*
X63400000Y-84100000D02*
X63400000Y-83700000D01*
X63800000Y-83700000D01*
X63800000Y-84100000D01*
X63400000Y-84100000D01*
G37*
G36*
X63000000Y-84100000D02*
X63000000Y-83700000D01*
X63400000Y-83700000D01*
X63400000Y-84100000D01*
X63000000Y-84100000D01*
G37*
G36*
X62600000Y-84100000D02*
X62600000Y-83700000D01*
X63000000Y-83700000D01*
X63000000Y-84100000D01*
X62600000Y-84100000D01*
G37*
G36*
X77000000Y-84500000D02*
X77000000Y-84100000D01*
X77400000Y-84100000D01*
X77400000Y-84500000D01*
X77000000Y-84500000D01*
G37*
G36*
X76600000Y-84500000D02*
X76600000Y-84100000D01*
X77000000Y-84100000D01*
X77000000Y-84500000D01*
X76600000Y-84500000D01*
G37*
G36*
X75800000Y-84500000D02*
X75800000Y-84100000D01*
X76200000Y-84100000D01*
X76200000Y-84500000D01*
X75800000Y-84500000D01*
G37*
G36*
X75400000Y-84500000D02*
X75400000Y-84100000D01*
X75800000Y-84100000D01*
X75800000Y-84500000D01*
X75400000Y-84500000D01*
G37*
G36*
X75000000Y-84500000D02*
X75000000Y-84100000D01*
X75400000Y-84100000D01*
X75400000Y-84500000D01*
X75000000Y-84500000D01*
G37*
G36*
X74200000Y-84500000D02*
X74200000Y-84100000D01*
X74600000Y-84100000D01*
X74600000Y-84500000D01*
X74200000Y-84500000D01*
G37*
G36*
X72600000Y-84500000D02*
X72600000Y-84100000D01*
X73000000Y-84100000D01*
X73000000Y-84500000D01*
X72600000Y-84500000D01*
G37*
G36*
X71800000Y-84500000D02*
X71800000Y-84100000D01*
X72200000Y-84100000D01*
X72200000Y-84500000D01*
X71800000Y-84500000D01*
G37*
G36*
X71000000Y-84500000D02*
X71000000Y-84100000D01*
X71400000Y-84100000D01*
X71400000Y-84500000D01*
X71000000Y-84500000D01*
G37*
G36*
X70600000Y-84500000D02*
X70600000Y-84100000D01*
X71000000Y-84100000D01*
X71000000Y-84500000D01*
X70600000Y-84500000D01*
G37*
G36*
X69800000Y-84500000D02*
X69800000Y-84100000D01*
X70200000Y-84100000D01*
X70200000Y-84500000D01*
X69800000Y-84500000D01*
G37*
G36*
X69000000Y-84500000D02*
X69000000Y-84100000D01*
X69400000Y-84100000D01*
X69400000Y-84500000D01*
X69000000Y-84500000D01*
G37*
G36*
X68600000Y-84500000D02*
X68600000Y-84100000D01*
X69000000Y-84100000D01*
X69000000Y-84500000D01*
X68600000Y-84500000D01*
G37*
G36*
X67400000Y-84500000D02*
X67400000Y-84100000D01*
X67800000Y-84100000D01*
X67800000Y-84500000D01*
X67400000Y-84500000D01*
G37*
G36*
X66600000Y-84500000D02*
X66600000Y-84100000D01*
X67000000Y-84100000D01*
X67000000Y-84500000D01*
X66600000Y-84500000D01*
G37*
G36*
X64200000Y-84500000D02*
X64200000Y-84100000D01*
X64600000Y-84100000D01*
X64600000Y-84500000D01*
X64200000Y-84500000D01*
G37*
G36*
X63800000Y-84500000D02*
X63800000Y-84100000D01*
X64200000Y-84100000D01*
X64200000Y-84500000D01*
X63800000Y-84500000D01*
G37*
G36*
X63000000Y-84500000D02*
X63000000Y-84100000D01*
X63400000Y-84100000D01*
X63400000Y-84500000D01*
X63000000Y-84500000D01*
G37*
G36*
X62600000Y-84500000D02*
X62600000Y-84100000D01*
X63000000Y-84100000D01*
X63000000Y-84500000D01*
X62600000Y-84500000D01*
G37*
G36*
X77000000Y-84900000D02*
X77000000Y-84500000D01*
X77400000Y-84500000D01*
X77400000Y-84900000D01*
X77000000Y-84900000D01*
G37*
G36*
X76600000Y-84900000D02*
X76600000Y-84500000D01*
X77000000Y-84500000D01*
X77000000Y-84900000D01*
X76600000Y-84900000D01*
G37*
G36*
X75800000Y-84900000D02*
X75800000Y-84500000D01*
X76200000Y-84500000D01*
X76200000Y-84900000D01*
X75800000Y-84900000D01*
G37*
G36*
X75400000Y-84900000D02*
X75400000Y-84500000D01*
X75800000Y-84500000D01*
X75800000Y-84900000D01*
X75400000Y-84900000D01*
G37*
G36*
X75000000Y-84900000D02*
X75000000Y-84500000D01*
X75400000Y-84500000D01*
X75400000Y-84900000D01*
X75000000Y-84900000D01*
G37*
G36*
X74200000Y-84900000D02*
X74200000Y-84500000D01*
X74600000Y-84500000D01*
X74600000Y-84900000D01*
X74200000Y-84900000D01*
G37*
G36*
X73800000Y-84900000D02*
X73800000Y-84500000D01*
X74200000Y-84500000D01*
X74200000Y-84900000D01*
X73800000Y-84900000D01*
G37*
G36*
X72200000Y-84900000D02*
X72200000Y-84500000D01*
X72600000Y-84500000D01*
X72600000Y-84900000D01*
X72200000Y-84900000D01*
G37*
G36*
X71800000Y-84900000D02*
X71800000Y-84500000D01*
X72200000Y-84500000D01*
X72200000Y-84900000D01*
X71800000Y-84900000D01*
G37*
G36*
X71400000Y-84900000D02*
X71400000Y-84500000D01*
X71800000Y-84500000D01*
X71800000Y-84900000D01*
X71400000Y-84900000D01*
G37*
G36*
X71000000Y-84900000D02*
X71000000Y-84500000D01*
X71400000Y-84500000D01*
X71400000Y-84900000D01*
X71000000Y-84900000D01*
G37*
G36*
X68600000Y-84900000D02*
X68600000Y-84500000D01*
X69000000Y-84500000D01*
X69000000Y-84900000D01*
X68600000Y-84900000D01*
G37*
G36*
X68200000Y-84900000D02*
X68200000Y-84500000D01*
X68600000Y-84500000D01*
X68600000Y-84900000D01*
X68200000Y-84900000D01*
G37*
G36*
X67400000Y-84900000D02*
X67400000Y-84500000D01*
X67800000Y-84500000D01*
X67800000Y-84900000D01*
X67400000Y-84900000D01*
G37*
G36*
X66600000Y-84900000D02*
X66600000Y-84500000D01*
X67000000Y-84500000D01*
X67000000Y-84900000D01*
X66600000Y-84900000D01*
G37*
G36*
X65800000Y-84900000D02*
X65800000Y-84500000D01*
X66200000Y-84500000D01*
X66200000Y-84900000D01*
X65800000Y-84900000D01*
G37*
G36*
X65400000Y-84900000D02*
X65400000Y-84500000D01*
X65800000Y-84500000D01*
X65800000Y-84900000D01*
X65400000Y-84900000D01*
G37*
G36*
X65000000Y-84900000D02*
X65000000Y-84500000D01*
X65400000Y-84500000D01*
X65400000Y-84900000D01*
X65000000Y-84900000D01*
G37*
G36*
X63400000Y-84900000D02*
X63400000Y-84500000D01*
X63800000Y-84500000D01*
X63800000Y-84900000D01*
X63400000Y-84900000D01*
G37*
G36*
X63000000Y-84900000D02*
X63000000Y-84500000D01*
X63400000Y-84500000D01*
X63400000Y-84900000D01*
X63000000Y-84900000D01*
G37*
G36*
X62600000Y-84900000D02*
X62600000Y-84500000D01*
X63000000Y-84500000D01*
X63000000Y-84900000D01*
X62600000Y-84900000D01*
G37*
G36*
X77000000Y-85300000D02*
X77000000Y-84900000D01*
X77400000Y-84900000D01*
X77400000Y-85300000D01*
X77000000Y-85300000D01*
G37*
G36*
X76600000Y-85300000D02*
X76600000Y-84900000D01*
X77000000Y-84900000D01*
X77000000Y-85300000D01*
X76600000Y-85300000D01*
G37*
G36*
X76200000Y-85300000D02*
X76200000Y-84900000D01*
X76600000Y-84900000D01*
X76600000Y-85300000D01*
X76200000Y-85300000D01*
G37*
G36*
X74600000Y-85300000D02*
X74600000Y-84900000D01*
X75000000Y-84900000D01*
X75000000Y-85300000D01*
X74600000Y-85300000D01*
G37*
G36*
X73400000Y-85300000D02*
X73400000Y-84900000D01*
X73800000Y-84900000D01*
X73800000Y-85300000D01*
X73400000Y-85300000D01*
G37*
G36*
X71800000Y-85300000D02*
X71800000Y-84900000D01*
X72200000Y-84900000D01*
X72200000Y-85300000D01*
X71800000Y-85300000D01*
G37*
G36*
X69400000Y-85300000D02*
X69400000Y-84900000D01*
X69800000Y-84900000D01*
X69800000Y-85300000D01*
X69400000Y-85300000D01*
G37*
G36*
X68600000Y-85300000D02*
X68600000Y-84900000D01*
X69000000Y-84900000D01*
X69000000Y-85300000D01*
X68600000Y-85300000D01*
G37*
G36*
X68200000Y-85300000D02*
X68200000Y-84900000D01*
X68600000Y-84900000D01*
X68600000Y-85300000D01*
X68200000Y-85300000D01*
G37*
G36*
X67800000Y-85300000D02*
X67800000Y-84900000D01*
X68200000Y-84900000D01*
X68200000Y-85300000D01*
X67800000Y-85300000D01*
G37*
G36*
X67400000Y-85300000D02*
X67400000Y-84900000D01*
X67800000Y-84900000D01*
X67800000Y-85300000D01*
X67400000Y-85300000D01*
G37*
G36*
X66600000Y-85300000D02*
X66600000Y-84900000D01*
X67000000Y-84900000D01*
X67000000Y-85300000D01*
X66600000Y-85300000D01*
G37*
G36*
X65800000Y-85300000D02*
X65800000Y-84900000D01*
X66200000Y-84900000D01*
X66200000Y-85300000D01*
X65800000Y-85300000D01*
G37*
G36*
X65400000Y-85300000D02*
X65400000Y-84900000D01*
X65800000Y-84900000D01*
X65800000Y-85300000D01*
X65400000Y-85300000D01*
G37*
G36*
X65000000Y-85300000D02*
X65000000Y-84900000D01*
X65400000Y-84900000D01*
X65400000Y-85300000D01*
X65000000Y-85300000D01*
G37*
G36*
X64200000Y-85300000D02*
X64200000Y-84900000D01*
X64600000Y-84900000D01*
X64600000Y-85300000D01*
X64200000Y-85300000D01*
G37*
G36*
X63400000Y-85300000D02*
X63400000Y-84900000D01*
X63800000Y-84900000D01*
X63800000Y-85300000D01*
X63400000Y-85300000D01*
G37*
G36*
X63000000Y-85300000D02*
X63000000Y-84900000D01*
X63400000Y-84900000D01*
X63400000Y-85300000D01*
X63000000Y-85300000D01*
G37*
G36*
X62600000Y-85300000D02*
X62600000Y-84900000D01*
X63000000Y-84900000D01*
X63000000Y-85300000D01*
X62600000Y-85300000D01*
G37*
G36*
X77000000Y-85700000D02*
X77000000Y-85300000D01*
X77400000Y-85300000D01*
X77400000Y-85700000D01*
X77000000Y-85700000D01*
G37*
G36*
X76600000Y-85700000D02*
X76600000Y-85300000D01*
X77000000Y-85300000D01*
X77000000Y-85700000D01*
X76600000Y-85700000D01*
G37*
G36*
X76200000Y-85700000D02*
X76200000Y-85300000D01*
X76600000Y-85300000D01*
X76600000Y-85700000D01*
X76200000Y-85700000D01*
G37*
G36*
X75400000Y-85700000D02*
X75400000Y-85300000D01*
X75800000Y-85300000D01*
X75800000Y-85700000D01*
X75400000Y-85700000D01*
G37*
G36*
X74600000Y-85700000D02*
X74600000Y-85300000D01*
X75000000Y-85300000D01*
X75000000Y-85700000D01*
X74600000Y-85700000D01*
G37*
G36*
X74200000Y-85700000D02*
X74200000Y-85300000D01*
X74600000Y-85300000D01*
X74600000Y-85700000D01*
X74200000Y-85700000D01*
G37*
G36*
X73800000Y-85700000D02*
X73800000Y-85300000D01*
X74200000Y-85300000D01*
X74200000Y-85700000D01*
X73800000Y-85700000D01*
G37*
G36*
X73400000Y-85700000D02*
X73400000Y-85300000D01*
X73800000Y-85300000D01*
X73800000Y-85700000D01*
X73400000Y-85700000D01*
G37*
G36*
X73000000Y-85700000D02*
X73000000Y-85300000D01*
X73400000Y-85300000D01*
X73400000Y-85700000D01*
X73000000Y-85700000D01*
G37*
G36*
X72600000Y-85700000D02*
X72600000Y-85300000D01*
X73000000Y-85300000D01*
X73000000Y-85700000D01*
X72600000Y-85700000D01*
G37*
G36*
X72200000Y-85700000D02*
X72200000Y-85300000D01*
X72600000Y-85300000D01*
X72600000Y-85700000D01*
X72200000Y-85700000D01*
G37*
G36*
X71800000Y-85700000D02*
X71800000Y-85300000D01*
X72200000Y-85300000D01*
X72200000Y-85700000D01*
X71800000Y-85700000D01*
G37*
G36*
X71400000Y-85700000D02*
X71400000Y-85300000D01*
X71800000Y-85300000D01*
X71800000Y-85700000D01*
X71400000Y-85700000D01*
G37*
G36*
X70600000Y-85700000D02*
X70600000Y-85300000D01*
X71000000Y-85300000D01*
X71000000Y-85700000D01*
X70600000Y-85700000D01*
G37*
G36*
X70200000Y-85700000D02*
X70200000Y-85300000D01*
X70600000Y-85300000D01*
X70600000Y-85700000D01*
X70200000Y-85700000D01*
G37*
G36*
X69400000Y-85700000D02*
X69400000Y-85300000D01*
X69800000Y-85300000D01*
X69800000Y-85700000D01*
X69400000Y-85700000D01*
G37*
G36*
X69000000Y-85700000D02*
X69000000Y-85300000D01*
X69400000Y-85300000D01*
X69400000Y-85700000D01*
X69000000Y-85700000D01*
G37*
G36*
X68600000Y-85700000D02*
X68600000Y-85300000D01*
X69000000Y-85300000D01*
X69000000Y-85700000D01*
X68600000Y-85700000D01*
G37*
G36*
X68200000Y-85700000D02*
X68200000Y-85300000D01*
X68600000Y-85300000D01*
X68600000Y-85700000D01*
X68200000Y-85700000D01*
G37*
G36*
X67800000Y-85700000D02*
X67800000Y-85300000D01*
X68200000Y-85300000D01*
X68200000Y-85700000D01*
X67800000Y-85700000D01*
G37*
G36*
X66600000Y-85700000D02*
X66600000Y-85300000D01*
X67000000Y-85300000D01*
X67000000Y-85700000D01*
X66600000Y-85700000D01*
G37*
G36*
X65800000Y-85700000D02*
X65800000Y-85300000D01*
X66200000Y-85300000D01*
X66200000Y-85700000D01*
X65800000Y-85700000D01*
G37*
G36*
X65400000Y-85700000D02*
X65400000Y-85300000D01*
X65800000Y-85300000D01*
X65800000Y-85700000D01*
X65400000Y-85700000D01*
G37*
G36*
X65000000Y-85700000D02*
X65000000Y-85300000D01*
X65400000Y-85300000D01*
X65400000Y-85700000D01*
X65000000Y-85700000D01*
G37*
G36*
X64600000Y-85700000D02*
X64600000Y-85300000D01*
X65000000Y-85300000D01*
X65000000Y-85700000D01*
X64600000Y-85700000D01*
G37*
G36*
X64200000Y-85700000D02*
X64200000Y-85300000D01*
X64600000Y-85300000D01*
X64600000Y-85700000D01*
X64200000Y-85700000D01*
G37*
G36*
X63800000Y-85700000D02*
X63800000Y-85300000D01*
X64200000Y-85300000D01*
X64200000Y-85700000D01*
X63800000Y-85700000D01*
G37*
G36*
X63400000Y-85700000D02*
X63400000Y-85300000D01*
X63800000Y-85300000D01*
X63800000Y-85700000D01*
X63400000Y-85700000D01*
G37*
G36*
X63000000Y-85700000D02*
X63000000Y-85300000D01*
X63400000Y-85300000D01*
X63400000Y-85700000D01*
X63000000Y-85700000D01*
G37*
G36*
X62600000Y-85700000D02*
X62600000Y-85300000D01*
X63000000Y-85300000D01*
X63000000Y-85700000D01*
X62600000Y-85700000D01*
G37*
G36*
X77000000Y-86100000D02*
X77000000Y-85700000D01*
X77400000Y-85700000D01*
X77400000Y-86100000D01*
X77000000Y-86100000D01*
G37*
G36*
X76600000Y-86100000D02*
X76600000Y-85700000D01*
X77000000Y-85700000D01*
X77000000Y-86100000D01*
X76600000Y-86100000D01*
G37*
G36*
X76200000Y-86100000D02*
X76200000Y-85700000D01*
X76600000Y-85700000D01*
X76600000Y-86100000D01*
X76200000Y-86100000D01*
G37*
G36*
X75800000Y-86100000D02*
X75800000Y-85700000D01*
X76200000Y-85700000D01*
X76200000Y-86100000D01*
X75800000Y-86100000D01*
G37*
G36*
X75000000Y-86100000D02*
X75000000Y-85700000D01*
X75400000Y-85700000D01*
X75400000Y-86100000D01*
X75000000Y-86100000D01*
G37*
G36*
X73000000Y-86100000D02*
X73000000Y-85700000D01*
X73400000Y-85700000D01*
X73400000Y-86100000D01*
X73000000Y-86100000D01*
G37*
G36*
X72600000Y-86100000D02*
X72600000Y-85700000D01*
X73000000Y-85700000D01*
X73000000Y-86100000D01*
X72600000Y-86100000D01*
G37*
G36*
X71800000Y-86100000D02*
X71800000Y-85700000D01*
X72200000Y-85700000D01*
X72200000Y-86100000D01*
X71800000Y-86100000D01*
G37*
G36*
X70600000Y-86100000D02*
X70600000Y-85700000D01*
X71000000Y-85700000D01*
X71000000Y-86100000D01*
X70600000Y-86100000D01*
G37*
G36*
X70200000Y-86100000D02*
X70200000Y-85700000D01*
X70600000Y-85700000D01*
X70600000Y-86100000D01*
X70200000Y-86100000D01*
G37*
G36*
X69400000Y-86100000D02*
X69400000Y-85700000D01*
X69800000Y-85700000D01*
X69800000Y-86100000D01*
X69400000Y-86100000D01*
G37*
G36*
X69000000Y-86100000D02*
X69000000Y-85700000D01*
X69400000Y-85700000D01*
X69400000Y-86100000D01*
X69000000Y-86100000D01*
G37*
G36*
X68600000Y-86100000D02*
X68600000Y-85700000D01*
X69000000Y-85700000D01*
X69000000Y-86100000D01*
X68600000Y-86100000D01*
G37*
G36*
X68200000Y-86100000D02*
X68200000Y-85700000D01*
X68600000Y-85700000D01*
X68600000Y-86100000D01*
X68200000Y-86100000D01*
G37*
G36*
X67800000Y-86100000D02*
X67800000Y-85700000D01*
X68200000Y-85700000D01*
X68200000Y-86100000D01*
X67800000Y-86100000D01*
G37*
G36*
X66600000Y-86100000D02*
X66600000Y-85700000D01*
X67000000Y-85700000D01*
X67000000Y-86100000D01*
X66600000Y-86100000D01*
G37*
G36*
X65400000Y-86100000D02*
X65400000Y-85700000D01*
X65800000Y-85700000D01*
X65800000Y-86100000D01*
X65400000Y-86100000D01*
G37*
G36*
X64200000Y-86100000D02*
X64200000Y-85700000D01*
X64600000Y-85700000D01*
X64600000Y-86100000D01*
X64200000Y-86100000D01*
G37*
G36*
X63800000Y-86100000D02*
X63800000Y-85700000D01*
X64200000Y-85700000D01*
X64200000Y-86100000D01*
X63800000Y-86100000D01*
G37*
G36*
X63000000Y-86100000D02*
X63000000Y-85700000D01*
X63400000Y-85700000D01*
X63400000Y-86100000D01*
X63000000Y-86100000D01*
G37*
G36*
X62600000Y-86100000D02*
X62600000Y-85700000D01*
X63000000Y-85700000D01*
X63000000Y-86100000D01*
X62600000Y-86100000D01*
G37*
G36*
X77000000Y-86500000D02*
X77000000Y-86100000D01*
X77400000Y-86100000D01*
X77400000Y-86500000D01*
X77000000Y-86500000D01*
G37*
G36*
X76600000Y-86500000D02*
X76600000Y-86100000D01*
X77000000Y-86100000D01*
X77000000Y-86500000D01*
X76600000Y-86500000D01*
G37*
G36*
X76200000Y-86500000D02*
X76200000Y-86100000D01*
X76600000Y-86100000D01*
X76600000Y-86500000D01*
X76200000Y-86500000D01*
G37*
G36*
X74600000Y-86500000D02*
X74600000Y-86100000D01*
X75000000Y-86100000D01*
X75000000Y-86500000D01*
X74600000Y-86500000D01*
G37*
G36*
X73800000Y-86500000D02*
X73800000Y-86100000D01*
X74200000Y-86100000D01*
X74200000Y-86500000D01*
X73800000Y-86500000D01*
G37*
G36*
X70200000Y-86500000D02*
X70200000Y-86100000D01*
X70600000Y-86100000D01*
X70600000Y-86500000D01*
X70200000Y-86500000D01*
G37*
G36*
X69800000Y-86500000D02*
X69800000Y-86100000D01*
X70200000Y-86100000D01*
X70200000Y-86500000D01*
X69800000Y-86500000D01*
G37*
G36*
X67400000Y-86500000D02*
X67400000Y-86100000D01*
X67800000Y-86100000D01*
X67800000Y-86500000D01*
X67400000Y-86500000D01*
G37*
G36*
X67000000Y-86500000D02*
X67000000Y-86100000D01*
X67400000Y-86100000D01*
X67400000Y-86500000D01*
X67000000Y-86500000D01*
G37*
G36*
X65000000Y-86500000D02*
X65000000Y-86100000D01*
X65400000Y-86100000D01*
X65400000Y-86500000D01*
X65000000Y-86500000D01*
G37*
G36*
X63800000Y-86500000D02*
X63800000Y-86100000D01*
X64200000Y-86100000D01*
X64200000Y-86500000D01*
X63800000Y-86500000D01*
G37*
G36*
X63400000Y-86500000D02*
X63400000Y-86100000D01*
X63800000Y-86100000D01*
X63800000Y-86500000D01*
X63400000Y-86500000D01*
G37*
G36*
X63000000Y-86500000D02*
X63000000Y-86100000D01*
X63400000Y-86100000D01*
X63400000Y-86500000D01*
X63000000Y-86500000D01*
G37*
G36*
X62600000Y-86500000D02*
X62600000Y-86100000D01*
X63000000Y-86100000D01*
X63000000Y-86500000D01*
X62600000Y-86500000D01*
G37*
G36*
X77000000Y-86900000D02*
X77000000Y-86500000D01*
X77400000Y-86500000D01*
X77400000Y-86900000D01*
X77000000Y-86900000D01*
G37*
G36*
X76600000Y-86900000D02*
X76600000Y-86500000D01*
X77000000Y-86500000D01*
X77000000Y-86900000D01*
X76600000Y-86900000D01*
G37*
G36*
X75800000Y-86900000D02*
X75800000Y-86500000D01*
X76200000Y-86500000D01*
X76200000Y-86900000D01*
X75800000Y-86900000D01*
G37*
G36*
X75400000Y-86900000D02*
X75400000Y-86500000D01*
X75800000Y-86500000D01*
X75800000Y-86900000D01*
X75400000Y-86900000D01*
G37*
G36*
X72600000Y-86900000D02*
X72600000Y-86500000D01*
X73000000Y-86500000D01*
X73000000Y-86900000D01*
X72600000Y-86900000D01*
G37*
G36*
X71400000Y-86900000D02*
X71400000Y-86500000D01*
X71800000Y-86500000D01*
X71800000Y-86900000D01*
X71400000Y-86900000D01*
G37*
G36*
X71000000Y-86900000D02*
X71000000Y-86500000D01*
X71400000Y-86500000D01*
X71400000Y-86900000D01*
X71000000Y-86900000D01*
G37*
G36*
X70600000Y-86900000D02*
X70600000Y-86500000D01*
X71000000Y-86500000D01*
X71000000Y-86900000D01*
X70600000Y-86900000D01*
G37*
G36*
X69800000Y-86900000D02*
X69800000Y-86500000D01*
X70200000Y-86500000D01*
X70200000Y-86900000D01*
X69800000Y-86900000D01*
G37*
G36*
X69400000Y-86900000D02*
X69400000Y-86500000D01*
X69800000Y-86500000D01*
X69800000Y-86900000D01*
X69400000Y-86900000D01*
G37*
G36*
X69000000Y-86900000D02*
X69000000Y-86500000D01*
X69400000Y-86500000D01*
X69400000Y-86900000D01*
X69000000Y-86900000D01*
G37*
G36*
X68600000Y-86900000D02*
X68600000Y-86500000D01*
X69000000Y-86500000D01*
X69000000Y-86900000D01*
X68600000Y-86900000D01*
G37*
G36*
X67800000Y-86900000D02*
X67800000Y-86500000D01*
X68200000Y-86500000D01*
X68200000Y-86900000D01*
X67800000Y-86900000D01*
G37*
G36*
X67400000Y-86900000D02*
X67400000Y-86500000D01*
X67800000Y-86500000D01*
X67800000Y-86900000D01*
X67400000Y-86900000D01*
G37*
G36*
X65400000Y-86900000D02*
X65400000Y-86500000D01*
X65800000Y-86500000D01*
X65800000Y-86900000D01*
X65400000Y-86900000D01*
G37*
G36*
X64600000Y-86900000D02*
X64600000Y-86500000D01*
X65000000Y-86500000D01*
X65000000Y-86900000D01*
X64600000Y-86900000D01*
G37*
G36*
X64200000Y-86900000D02*
X64200000Y-86500000D01*
X64600000Y-86500000D01*
X64600000Y-86900000D01*
X64200000Y-86900000D01*
G37*
G36*
X63400000Y-86900000D02*
X63400000Y-86500000D01*
X63800000Y-86500000D01*
X63800000Y-86900000D01*
X63400000Y-86900000D01*
G37*
G36*
X63000000Y-86900000D02*
X63000000Y-86500000D01*
X63400000Y-86500000D01*
X63400000Y-86900000D01*
X63000000Y-86900000D01*
G37*
G36*
X62600000Y-86900000D02*
X62600000Y-86500000D01*
X63000000Y-86500000D01*
X63000000Y-86900000D01*
X62600000Y-86900000D01*
G37*
G36*
X77000000Y-87300000D02*
X77000000Y-86900000D01*
X77400000Y-86900000D01*
X77400000Y-87300000D01*
X77000000Y-87300000D01*
G37*
G36*
X76600000Y-87300000D02*
X76600000Y-86900000D01*
X77000000Y-86900000D01*
X77000000Y-87300000D01*
X76600000Y-87300000D01*
G37*
G36*
X75000000Y-87300000D02*
X75000000Y-86900000D01*
X75400000Y-86900000D01*
X75400000Y-87300000D01*
X75000000Y-87300000D01*
G37*
G36*
X74600000Y-87300000D02*
X74600000Y-86900000D01*
X75000000Y-86900000D01*
X75000000Y-87300000D01*
X74600000Y-87300000D01*
G37*
G36*
X74200000Y-87300000D02*
X74200000Y-86900000D01*
X74600000Y-86900000D01*
X74600000Y-87300000D01*
X74200000Y-87300000D01*
G37*
G36*
X73800000Y-87300000D02*
X73800000Y-86900000D01*
X74200000Y-86900000D01*
X74200000Y-87300000D01*
X73800000Y-87300000D01*
G37*
G36*
X73400000Y-87300000D02*
X73400000Y-86900000D01*
X73800000Y-86900000D01*
X73800000Y-87300000D01*
X73400000Y-87300000D01*
G37*
G36*
X73000000Y-87300000D02*
X73000000Y-86900000D01*
X73400000Y-86900000D01*
X73400000Y-87300000D01*
X73000000Y-87300000D01*
G37*
G36*
X72600000Y-87300000D02*
X72600000Y-86900000D01*
X73000000Y-86900000D01*
X73000000Y-87300000D01*
X72600000Y-87300000D01*
G37*
G36*
X70600000Y-87300000D02*
X70600000Y-86900000D01*
X71000000Y-86900000D01*
X71000000Y-87300000D01*
X70600000Y-87300000D01*
G37*
G36*
X68600000Y-87300000D02*
X68600000Y-86900000D01*
X69000000Y-86900000D01*
X69000000Y-87300000D01*
X68600000Y-87300000D01*
G37*
G36*
X68200000Y-87300000D02*
X68200000Y-86900000D01*
X68600000Y-86900000D01*
X68600000Y-87300000D01*
X68200000Y-87300000D01*
G37*
G36*
X66600000Y-87300000D02*
X66600000Y-86900000D01*
X67000000Y-86900000D01*
X67000000Y-87300000D01*
X66600000Y-87300000D01*
G37*
G36*
X65400000Y-87300000D02*
X65400000Y-86900000D01*
X65800000Y-86900000D01*
X65800000Y-87300000D01*
X65400000Y-87300000D01*
G37*
G36*
X65000000Y-87300000D02*
X65000000Y-86900000D01*
X65400000Y-86900000D01*
X65400000Y-87300000D01*
X65000000Y-87300000D01*
G37*
G36*
X64600000Y-87300000D02*
X64600000Y-86900000D01*
X65000000Y-86900000D01*
X65000000Y-87300000D01*
X64600000Y-87300000D01*
G37*
G36*
X64200000Y-87300000D02*
X64200000Y-86900000D01*
X64600000Y-86900000D01*
X64600000Y-87300000D01*
X64200000Y-87300000D01*
G37*
G36*
X63800000Y-87300000D02*
X63800000Y-86900000D01*
X64200000Y-86900000D01*
X64200000Y-87300000D01*
X63800000Y-87300000D01*
G37*
G36*
X63400000Y-87300000D02*
X63400000Y-86900000D01*
X63800000Y-86900000D01*
X63800000Y-87300000D01*
X63400000Y-87300000D01*
G37*
G36*
X63000000Y-87300000D02*
X63000000Y-86900000D01*
X63400000Y-86900000D01*
X63400000Y-87300000D01*
X63000000Y-87300000D01*
G37*
G36*
X62600000Y-87300000D02*
X62600000Y-86900000D01*
X63000000Y-86900000D01*
X63000000Y-87300000D01*
X62600000Y-87300000D01*
G37*
G36*
X77000000Y-87700000D02*
X77000000Y-87300000D01*
X77400000Y-87300000D01*
X77400000Y-87700000D01*
X77000000Y-87700000D01*
G37*
G36*
X76600000Y-87700000D02*
X76600000Y-87300000D01*
X77000000Y-87300000D01*
X77000000Y-87700000D01*
X76600000Y-87700000D01*
G37*
G36*
X76200000Y-87700000D02*
X76200000Y-87300000D01*
X76600000Y-87300000D01*
X76600000Y-87700000D01*
X76200000Y-87700000D01*
G37*
G36*
X75400000Y-87700000D02*
X75400000Y-87300000D01*
X75800000Y-87300000D01*
X75800000Y-87700000D01*
X75400000Y-87700000D01*
G37*
G36*
X75000000Y-87700000D02*
X75000000Y-87300000D01*
X75400000Y-87300000D01*
X75400000Y-87700000D01*
X75000000Y-87700000D01*
G37*
G36*
X74600000Y-87700000D02*
X74600000Y-87300000D01*
X75000000Y-87300000D01*
X75000000Y-87700000D01*
X74600000Y-87700000D01*
G37*
G36*
X73000000Y-87700000D02*
X73000000Y-87300000D01*
X73400000Y-87300000D01*
X73400000Y-87700000D01*
X73000000Y-87700000D01*
G37*
G36*
X72600000Y-87700000D02*
X72600000Y-87300000D01*
X73000000Y-87300000D01*
X73000000Y-87700000D01*
X72600000Y-87700000D01*
G37*
G36*
X70200000Y-87700000D02*
X70200000Y-87300000D01*
X70600000Y-87300000D01*
X70600000Y-87700000D01*
X70200000Y-87700000D01*
G37*
G36*
X69800000Y-87700000D02*
X69800000Y-87300000D01*
X70200000Y-87300000D01*
X70200000Y-87700000D01*
X69800000Y-87700000D01*
G37*
G36*
X69000000Y-87700000D02*
X69000000Y-87300000D01*
X69400000Y-87300000D01*
X69400000Y-87700000D01*
X69000000Y-87700000D01*
G37*
G36*
X67000000Y-87700000D02*
X67000000Y-87300000D01*
X67400000Y-87300000D01*
X67400000Y-87700000D01*
X67000000Y-87700000D01*
G37*
G36*
X66200000Y-87700000D02*
X66200000Y-87300000D01*
X66600000Y-87300000D01*
X66600000Y-87700000D01*
X66200000Y-87700000D01*
G37*
G36*
X65400000Y-87700000D02*
X65400000Y-87300000D01*
X65800000Y-87300000D01*
X65800000Y-87700000D01*
X65400000Y-87700000D01*
G37*
G36*
X64600000Y-87700000D02*
X64600000Y-87300000D01*
X65000000Y-87300000D01*
X65000000Y-87700000D01*
X64600000Y-87700000D01*
G37*
G36*
X64200000Y-87700000D02*
X64200000Y-87300000D01*
X64600000Y-87300000D01*
X64600000Y-87700000D01*
X64200000Y-87700000D01*
G37*
G36*
X63400000Y-87700000D02*
X63400000Y-87300000D01*
X63800000Y-87300000D01*
X63800000Y-87700000D01*
X63400000Y-87700000D01*
G37*
G36*
X63000000Y-87700000D02*
X63000000Y-87300000D01*
X63400000Y-87300000D01*
X63400000Y-87700000D01*
X63000000Y-87700000D01*
G37*
G36*
X62600000Y-87700000D02*
X62600000Y-87300000D01*
X63000000Y-87300000D01*
X63000000Y-87700000D01*
X62600000Y-87700000D01*
G37*
G36*
X77000000Y-88100000D02*
X77000000Y-87700000D01*
X77400000Y-87700000D01*
X77400000Y-88100000D01*
X77000000Y-88100000D01*
G37*
G36*
X76600000Y-88100000D02*
X76600000Y-87700000D01*
X77000000Y-87700000D01*
X77000000Y-88100000D01*
X76600000Y-88100000D01*
G37*
G36*
X74200000Y-88100000D02*
X74200000Y-87700000D01*
X74600000Y-87700000D01*
X74600000Y-88100000D01*
X74200000Y-88100000D01*
G37*
G36*
X73800000Y-88100000D02*
X73800000Y-87700000D01*
X74200000Y-87700000D01*
X74200000Y-88100000D01*
X73800000Y-88100000D01*
G37*
G36*
X73400000Y-88100000D02*
X73400000Y-87700000D01*
X73800000Y-87700000D01*
X73800000Y-88100000D01*
X73400000Y-88100000D01*
G37*
G36*
X73000000Y-88100000D02*
X73000000Y-87700000D01*
X73400000Y-87700000D01*
X73400000Y-88100000D01*
X73000000Y-88100000D01*
G37*
G36*
X72600000Y-88100000D02*
X72600000Y-87700000D01*
X73000000Y-87700000D01*
X73000000Y-88100000D01*
X72600000Y-88100000D01*
G37*
G36*
X72200000Y-88100000D02*
X72200000Y-87700000D01*
X72600000Y-87700000D01*
X72600000Y-88100000D01*
X72200000Y-88100000D01*
G37*
G36*
X71800000Y-88100000D02*
X71800000Y-87700000D01*
X72200000Y-87700000D01*
X72200000Y-88100000D01*
X71800000Y-88100000D01*
G37*
G36*
X71400000Y-88100000D02*
X71400000Y-87700000D01*
X71800000Y-87700000D01*
X71800000Y-88100000D01*
X71400000Y-88100000D01*
G37*
G36*
X70600000Y-88100000D02*
X70600000Y-87700000D01*
X71000000Y-87700000D01*
X71000000Y-88100000D01*
X70600000Y-88100000D01*
G37*
G36*
X70200000Y-88100000D02*
X70200000Y-87700000D01*
X70600000Y-87700000D01*
X70600000Y-88100000D01*
X70200000Y-88100000D01*
G37*
G36*
X69400000Y-88100000D02*
X69400000Y-87700000D01*
X69800000Y-87700000D01*
X69800000Y-88100000D01*
X69400000Y-88100000D01*
G37*
G36*
X68200000Y-88100000D02*
X68200000Y-87700000D01*
X68600000Y-87700000D01*
X68600000Y-88100000D01*
X68200000Y-88100000D01*
G37*
G36*
X67800000Y-88100000D02*
X67800000Y-87700000D01*
X68200000Y-87700000D01*
X68200000Y-88100000D01*
X67800000Y-88100000D01*
G37*
G36*
X67400000Y-88100000D02*
X67400000Y-87700000D01*
X67800000Y-87700000D01*
X67800000Y-88100000D01*
X67400000Y-88100000D01*
G37*
G36*
X66600000Y-88100000D02*
X66600000Y-87700000D01*
X67000000Y-87700000D01*
X67000000Y-88100000D01*
X66600000Y-88100000D01*
G37*
G36*
X65800000Y-88100000D02*
X65800000Y-87700000D01*
X66200000Y-87700000D01*
X66200000Y-88100000D01*
X65800000Y-88100000D01*
G37*
G36*
X65400000Y-88100000D02*
X65400000Y-87700000D01*
X65800000Y-87700000D01*
X65800000Y-88100000D01*
X65400000Y-88100000D01*
G37*
G36*
X65000000Y-88100000D02*
X65000000Y-87700000D01*
X65400000Y-87700000D01*
X65400000Y-88100000D01*
X65000000Y-88100000D01*
G37*
G36*
X63800000Y-88100000D02*
X63800000Y-87700000D01*
X64200000Y-87700000D01*
X64200000Y-88100000D01*
X63800000Y-88100000D01*
G37*
G36*
X63400000Y-88100000D02*
X63400000Y-87700000D01*
X63800000Y-87700000D01*
X63800000Y-88100000D01*
X63400000Y-88100000D01*
G37*
G36*
X63000000Y-88100000D02*
X63000000Y-87700000D01*
X63400000Y-87700000D01*
X63400000Y-88100000D01*
X63000000Y-88100000D01*
G37*
G36*
X62600000Y-88100000D02*
X62600000Y-87700000D01*
X63000000Y-87700000D01*
X63000000Y-88100000D01*
X62600000Y-88100000D01*
G37*
G36*
X77000000Y-88500000D02*
X77000000Y-88100000D01*
X77400000Y-88100000D01*
X77400000Y-88500000D01*
X77000000Y-88500000D01*
G37*
G36*
X76600000Y-88500000D02*
X76600000Y-88100000D01*
X77000000Y-88100000D01*
X77000000Y-88500000D01*
X76600000Y-88500000D01*
G37*
G36*
X76200000Y-88500000D02*
X76200000Y-88100000D01*
X76600000Y-88100000D01*
X76600000Y-88500000D01*
X76200000Y-88500000D01*
G37*
G36*
X75000000Y-88500000D02*
X75000000Y-88100000D01*
X75400000Y-88100000D01*
X75400000Y-88500000D01*
X75000000Y-88500000D01*
G37*
G36*
X74200000Y-88500000D02*
X74200000Y-88100000D01*
X74600000Y-88100000D01*
X74600000Y-88500000D01*
X74200000Y-88500000D01*
G37*
G36*
X73000000Y-88500000D02*
X73000000Y-88100000D01*
X73400000Y-88100000D01*
X73400000Y-88500000D01*
X73000000Y-88500000D01*
G37*
G36*
X72200000Y-88500000D02*
X72200000Y-88100000D01*
X72600000Y-88100000D01*
X72600000Y-88500000D01*
X72200000Y-88500000D01*
G37*
G36*
X69000000Y-88500000D02*
X69000000Y-88100000D01*
X69400000Y-88100000D01*
X69400000Y-88500000D01*
X69000000Y-88500000D01*
G37*
G36*
X68600000Y-88500000D02*
X68600000Y-88100000D01*
X69000000Y-88100000D01*
X69000000Y-88500000D01*
X68600000Y-88500000D01*
G37*
G36*
X66600000Y-88500000D02*
X66600000Y-88100000D01*
X67000000Y-88100000D01*
X67000000Y-88500000D01*
X66600000Y-88500000D01*
G37*
G36*
X65000000Y-88500000D02*
X65000000Y-88100000D01*
X65400000Y-88100000D01*
X65400000Y-88500000D01*
X65000000Y-88500000D01*
G37*
G36*
X64200000Y-88500000D02*
X64200000Y-88100000D01*
X64600000Y-88100000D01*
X64600000Y-88500000D01*
X64200000Y-88500000D01*
G37*
G36*
X63400000Y-88500000D02*
X63400000Y-88100000D01*
X63800000Y-88100000D01*
X63800000Y-88500000D01*
X63400000Y-88500000D01*
G37*
G36*
X63000000Y-88500000D02*
X63000000Y-88100000D01*
X63400000Y-88100000D01*
X63400000Y-88500000D01*
X63000000Y-88500000D01*
G37*
G36*
X62600000Y-88500000D02*
X62600000Y-88100000D01*
X63000000Y-88100000D01*
X63000000Y-88500000D01*
X62600000Y-88500000D01*
G37*
G36*
X77000000Y-88900000D02*
X77000000Y-88500000D01*
X77400000Y-88500000D01*
X77400000Y-88900000D01*
X77000000Y-88900000D01*
G37*
G36*
X76600000Y-88900000D02*
X76600000Y-88500000D01*
X77000000Y-88500000D01*
X77000000Y-88900000D01*
X76600000Y-88900000D01*
G37*
G36*
X76200000Y-88900000D02*
X76200000Y-88500000D01*
X76600000Y-88500000D01*
X76600000Y-88900000D01*
X76200000Y-88900000D01*
G37*
G36*
X75800000Y-88900000D02*
X75800000Y-88500000D01*
X76200000Y-88500000D01*
X76200000Y-88900000D01*
X75800000Y-88900000D01*
G37*
G36*
X74600000Y-88900000D02*
X74600000Y-88500000D01*
X75000000Y-88500000D01*
X75000000Y-88900000D01*
X74600000Y-88900000D01*
G37*
G36*
X73800000Y-88900000D02*
X73800000Y-88500000D01*
X74200000Y-88500000D01*
X74200000Y-88900000D01*
X73800000Y-88900000D01*
G37*
G36*
X70200000Y-88900000D02*
X70200000Y-88500000D01*
X70600000Y-88500000D01*
X70600000Y-88900000D01*
X70200000Y-88900000D01*
G37*
G36*
X69800000Y-88900000D02*
X69800000Y-88500000D01*
X70200000Y-88500000D01*
X70200000Y-88900000D01*
X69800000Y-88900000D01*
G37*
G36*
X67400000Y-88900000D02*
X67400000Y-88500000D01*
X67800000Y-88500000D01*
X67800000Y-88900000D01*
X67400000Y-88900000D01*
G37*
G36*
X66200000Y-88900000D02*
X66200000Y-88500000D01*
X66600000Y-88500000D01*
X66600000Y-88900000D01*
X66200000Y-88900000D01*
G37*
G36*
X65000000Y-88900000D02*
X65000000Y-88500000D01*
X65400000Y-88500000D01*
X65400000Y-88900000D01*
X65000000Y-88900000D01*
G37*
G36*
X64600000Y-88900000D02*
X64600000Y-88500000D01*
X65000000Y-88500000D01*
X65000000Y-88900000D01*
X64600000Y-88900000D01*
G37*
G36*
X64200000Y-88900000D02*
X64200000Y-88500000D01*
X64600000Y-88500000D01*
X64600000Y-88900000D01*
X64200000Y-88900000D01*
G37*
G36*
X63000000Y-88900000D02*
X63000000Y-88500000D01*
X63400000Y-88500000D01*
X63400000Y-88900000D01*
X63000000Y-88900000D01*
G37*
G36*
X62600000Y-88900000D02*
X62600000Y-88500000D01*
X63000000Y-88500000D01*
X63000000Y-88900000D01*
X62600000Y-88900000D01*
G37*
G36*
X77000000Y-89300000D02*
X77000000Y-88900000D01*
X77400000Y-88900000D01*
X77400000Y-89300000D01*
X77000000Y-89300000D01*
G37*
G36*
X76600000Y-89300000D02*
X76600000Y-88900000D01*
X77000000Y-88900000D01*
X77000000Y-89300000D01*
X76600000Y-89300000D01*
G37*
G36*
X75800000Y-89300000D02*
X75800000Y-88900000D01*
X76200000Y-88900000D01*
X76200000Y-89300000D01*
X75800000Y-89300000D01*
G37*
G36*
X75000000Y-89300000D02*
X75000000Y-88900000D01*
X75400000Y-88900000D01*
X75400000Y-89300000D01*
X75000000Y-89300000D01*
G37*
G36*
X74600000Y-89300000D02*
X74600000Y-88900000D01*
X75000000Y-88900000D01*
X75000000Y-89300000D01*
X74600000Y-89300000D01*
G37*
G36*
X74200000Y-89300000D02*
X74200000Y-88900000D01*
X74600000Y-88900000D01*
X74600000Y-89300000D01*
X74200000Y-89300000D01*
G37*
G36*
X73000000Y-89300000D02*
X73000000Y-88900000D01*
X73400000Y-88900000D01*
X73400000Y-89300000D01*
X73000000Y-89300000D01*
G37*
G36*
X72600000Y-89300000D02*
X72600000Y-88900000D01*
X73000000Y-88900000D01*
X73000000Y-89300000D01*
X72600000Y-89300000D01*
G37*
G36*
X72200000Y-89300000D02*
X72200000Y-88900000D01*
X72600000Y-88900000D01*
X72600000Y-89300000D01*
X72200000Y-89300000D01*
G37*
G36*
X71800000Y-89300000D02*
X71800000Y-88900000D01*
X72200000Y-88900000D01*
X72200000Y-89300000D01*
X71800000Y-89300000D01*
G37*
G36*
X70600000Y-89300000D02*
X70600000Y-88900000D01*
X71000000Y-88900000D01*
X71000000Y-89300000D01*
X70600000Y-89300000D01*
G37*
G36*
X69800000Y-89300000D02*
X69800000Y-88900000D01*
X70200000Y-88900000D01*
X70200000Y-89300000D01*
X69800000Y-89300000D01*
G37*
G36*
X69400000Y-89300000D02*
X69400000Y-88900000D01*
X69800000Y-88900000D01*
X69800000Y-89300000D01*
X69400000Y-89300000D01*
G37*
G36*
X68600000Y-89300000D02*
X68600000Y-88900000D01*
X69000000Y-88900000D01*
X69000000Y-89300000D01*
X68600000Y-89300000D01*
G37*
G36*
X67800000Y-89300000D02*
X67800000Y-88900000D01*
X68200000Y-88900000D01*
X68200000Y-89300000D01*
X67800000Y-89300000D01*
G37*
G36*
X67400000Y-89300000D02*
X67400000Y-88900000D01*
X67800000Y-88900000D01*
X67800000Y-89300000D01*
X67400000Y-89300000D01*
G37*
G36*
X67000000Y-89300000D02*
X67000000Y-88900000D01*
X67400000Y-88900000D01*
X67400000Y-89300000D01*
X67000000Y-89300000D01*
G37*
G36*
X66200000Y-89300000D02*
X66200000Y-88900000D01*
X66600000Y-88900000D01*
X66600000Y-89300000D01*
X66200000Y-89300000D01*
G37*
G36*
X65800000Y-89300000D02*
X65800000Y-88900000D01*
X66200000Y-88900000D01*
X66200000Y-89300000D01*
X65800000Y-89300000D01*
G37*
G36*
X65400000Y-89300000D02*
X65400000Y-88900000D01*
X65800000Y-88900000D01*
X65800000Y-89300000D01*
X65400000Y-89300000D01*
G37*
G36*
X64200000Y-89300000D02*
X64200000Y-88900000D01*
X64600000Y-88900000D01*
X64600000Y-89300000D01*
X64200000Y-89300000D01*
G37*
G36*
X63800000Y-89300000D02*
X63800000Y-88900000D01*
X64200000Y-88900000D01*
X64200000Y-89300000D01*
X63800000Y-89300000D01*
G37*
G36*
X63400000Y-89300000D02*
X63400000Y-88900000D01*
X63800000Y-88900000D01*
X63800000Y-89300000D01*
X63400000Y-89300000D01*
G37*
G36*
X63000000Y-89300000D02*
X63000000Y-88900000D01*
X63400000Y-88900000D01*
X63400000Y-89300000D01*
X63000000Y-89300000D01*
G37*
G36*
X62600000Y-89300000D02*
X62600000Y-88900000D01*
X63000000Y-88900000D01*
X63000000Y-89300000D01*
X62600000Y-89300000D01*
G37*
G36*
X77000000Y-89700000D02*
X77000000Y-89300000D01*
X77400000Y-89300000D01*
X77400000Y-89700000D01*
X77000000Y-89700000D01*
G37*
G36*
X76600000Y-89700000D02*
X76600000Y-89300000D01*
X77000000Y-89300000D01*
X77000000Y-89700000D01*
X76600000Y-89700000D01*
G37*
G36*
X75400000Y-89700000D02*
X75400000Y-89300000D01*
X75800000Y-89300000D01*
X75800000Y-89700000D01*
X75400000Y-89700000D01*
G37*
G36*
X74600000Y-89700000D02*
X74600000Y-89300000D01*
X75000000Y-89300000D01*
X75000000Y-89700000D01*
X74600000Y-89700000D01*
G37*
G36*
X74200000Y-89700000D02*
X74200000Y-89300000D01*
X74600000Y-89300000D01*
X74600000Y-89700000D01*
X74200000Y-89700000D01*
G37*
G36*
X73800000Y-89700000D02*
X73800000Y-89300000D01*
X74200000Y-89300000D01*
X74200000Y-89700000D01*
X73800000Y-89700000D01*
G37*
G36*
X72200000Y-89700000D02*
X72200000Y-89300000D01*
X72600000Y-89300000D01*
X72600000Y-89700000D01*
X72200000Y-89700000D01*
G37*
G36*
X71400000Y-89700000D02*
X71400000Y-89300000D01*
X71800000Y-89300000D01*
X71800000Y-89700000D01*
X71400000Y-89700000D01*
G37*
G36*
X70600000Y-89700000D02*
X70600000Y-89300000D01*
X71000000Y-89300000D01*
X71000000Y-89700000D01*
X70600000Y-89700000D01*
G37*
G36*
X70200000Y-89700000D02*
X70200000Y-89300000D01*
X70600000Y-89300000D01*
X70600000Y-89700000D01*
X70200000Y-89700000D01*
G37*
G36*
X69000000Y-89700000D02*
X69000000Y-89300000D01*
X69400000Y-89300000D01*
X69400000Y-89700000D01*
X69000000Y-89700000D01*
G37*
G36*
X68200000Y-89700000D02*
X68200000Y-89300000D01*
X68600000Y-89300000D01*
X68600000Y-89700000D01*
X68200000Y-89700000D01*
G37*
G36*
X67800000Y-89700000D02*
X67800000Y-89300000D01*
X68200000Y-89300000D01*
X68200000Y-89700000D01*
X67800000Y-89700000D01*
G37*
G36*
X67000000Y-89700000D02*
X67000000Y-89300000D01*
X67400000Y-89300000D01*
X67400000Y-89700000D01*
X67000000Y-89700000D01*
G37*
G36*
X66600000Y-89700000D02*
X66600000Y-89300000D01*
X67000000Y-89300000D01*
X67000000Y-89700000D01*
X66600000Y-89700000D01*
G37*
G36*
X65000000Y-89700000D02*
X65000000Y-89300000D01*
X65400000Y-89300000D01*
X65400000Y-89700000D01*
X65000000Y-89700000D01*
G37*
G36*
X64600000Y-89700000D02*
X64600000Y-89300000D01*
X65000000Y-89300000D01*
X65000000Y-89700000D01*
X64600000Y-89700000D01*
G37*
G36*
X63400000Y-89700000D02*
X63400000Y-89300000D01*
X63800000Y-89300000D01*
X63800000Y-89700000D01*
X63400000Y-89700000D01*
G37*
G36*
X63000000Y-89700000D02*
X63000000Y-89300000D01*
X63400000Y-89300000D01*
X63400000Y-89700000D01*
X63000000Y-89700000D01*
G37*
G36*
X62600000Y-89700000D02*
X62600000Y-89300000D01*
X63000000Y-89300000D01*
X63000000Y-89700000D01*
X62600000Y-89700000D01*
G37*
G36*
X77000000Y-90100000D02*
X77000000Y-89700000D01*
X77400000Y-89700000D01*
X77400000Y-90100000D01*
X77000000Y-90100000D01*
G37*
G36*
X76600000Y-90100000D02*
X76600000Y-89700000D01*
X77000000Y-89700000D01*
X77000000Y-90100000D01*
X76600000Y-90100000D01*
G37*
G36*
X76200000Y-90100000D02*
X76200000Y-89700000D01*
X76600000Y-89700000D01*
X76600000Y-90100000D01*
X76200000Y-90100000D01*
G37*
G36*
X75800000Y-90100000D02*
X75800000Y-89700000D01*
X76200000Y-89700000D01*
X76200000Y-90100000D01*
X75800000Y-90100000D01*
G37*
G36*
X75400000Y-90100000D02*
X75400000Y-89700000D01*
X75800000Y-89700000D01*
X75800000Y-90100000D01*
X75400000Y-90100000D01*
G37*
G36*
X74600000Y-90100000D02*
X74600000Y-89700000D01*
X75000000Y-89700000D01*
X75000000Y-90100000D01*
X74600000Y-90100000D01*
G37*
G36*
X74200000Y-90100000D02*
X74200000Y-89700000D01*
X74600000Y-89700000D01*
X74600000Y-90100000D01*
X74200000Y-90100000D01*
G37*
G36*
X73400000Y-90100000D02*
X73400000Y-89700000D01*
X73800000Y-89700000D01*
X73800000Y-90100000D01*
X73400000Y-90100000D01*
G37*
G36*
X71400000Y-90100000D02*
X71400000Y-89700000D01*
X71800000Y-89700000D01*
X71800000Y-90100000D01*
X71400000Y-90100000D01*
G37*
G36*
X71000000Y-90100000D02*
X71000000Y-89700000D01*
X71400000Y-89700000D01*
X71400000Y-90100000D01*
X71000000Y-90100000D01*
G37*
G36*
X70200000Y-90100000D02*
X70200000Y-89700000D01*
X70600000Y-89700000D01*
X70600000Y-90100000D01*
X70200000Y-90100000D01*
G37*
G36*
X69400000Y-90100000D02*
X69400000Y-89700000D01*
X69800000Y-89700000D01*
X69800000Y-90100000D01*
X69400000Y-90100000D01*
G37*
G36*
X68200000Y-90100000D02*
X68200000Y-89700000D01*
X68600000Y-89700000D01*
X68600000Y-90100000D01*
X68200000Y-90100000D01*
G37*
G36*
X67800000Y-90100000D02*
X67800000Y-89700000D01*
X68200000Y-89700000D01*
X68200000Y-90100000D01*
X67800000Y-90100000D01*
G37*
G36*
X67000000Y-90100000D02*
X67000000Y-89700000D01*
X67400000Y-89700000D01*
X67400000Y-90100000D01*
X67000000Y-90100000D01*
G37*
G36*
X66600000Y-90100000D02*
X66600000Y-89700000D01*
X67000000Y-89700000D01*
X67000000Y-90100000D01*
X66600000Y-90100000D01*
G37*
G36*
X65800000Y-90100000D02*
X65800000Y-89700000D01*
X66200000Y-89700000D01*
X66200000Y-90100000D01*
X65800000Y-90100000D01*
G37*
G36*
X65400000Y-90100000D02*
X65400000Y-89700000D01*
X65800000Y-89700000D01*
X65800000Y-90100000D01*
X65400000Y-90100000D01*
G37*
G36*
X64600000Y-90100000D02*
X64600000Y-89700000D01*
X65000000Y-89700000D01*
X65000000Y-90100000D01*
X64600000Y-90100000D01*
G37*
G36*
X64200000Y-90100000D02*
X64200000Y-89700000D01*
X64600000Y-89700000D01*
X64600000Y-90100000D01*
X64200000Y-90100000D01*
G37*
G36*
X63400000Y-90100000D02*
X63400000Y-89700000D01*
X63800000Y-89700000D01*
X63800000Y-90100000D01*
X63400000Y-90100000D01*
G37*
G36*
X63000000Y-90100000D02*
X63000000Y-89700000D01*
X63400000Y-89700000D01*
X63400000Y-90100000D01*
X63000000Y-90100000D01*
G37*
G36*
X62600000Y-90100000D02*
X62600000Y-89700000D01*
X63000000Y-89700000D01*
X63000000Y-90100000D01*
X62600000Y-90100000D01*
G37*
G36*
X77000000Y-90500000D02*
X77000000Y-90100000D01*
X77400000Y-90100000D01*
X77400000Y-90500000D01*
X77000000Y-90500000D01*
G37*
G36*
X76600000Y-90500000D02*
X76600000Y-90100000D01*
X77000000Y-90100000D01*
X77000000Y-90500000D01*
X76600000Y-90500000D01*
G37*
G36*
X76200000Y-90500000D02*
X76200000Y-90100000D01*
X76600000Y-90100000D01*
X76600000Y-90500000D01*
X76200000Y-90500000D01*
G37*
G36*
X75800000Y-90500000D02*
X75800000Y-90100000D01*
X76200000Y-90100000D01*
X76200000Y-90500000D01*
X75800000Y-90500000D01*
G37*
G36*
X75000000Y-90500000D02*
X75000000Y-90100000D01*
X75400000Y-90100000D01*
X75400000Y-90500000D01*
X75000000Y-90500000D01*
G37*
G36*
X73800000Y-90500000D02*
X73800000Y-90100000D01*
X74200000Y-90100000D01*
X74200000Y-90500000D01*
X73800000Y-90500000D01*
G37*
G36*
X73000000Y-90500000D02*
X73000000Y-90100000D01*
X73400000Y-90100000D01*
X73400000Y-90500000D01*
X73000000Y-90500000D01*
G37*
G36*
X72600000Y-90500000D02*
X72600000Y-90100000D01*
X73000000Y-90100000D01*
X73000000Y-90500000D01*
X72600000Y-90500000D01*
G37*
G36*
X71800000Y-90500000D02*
X71800000Y-90100000D01*
X72200000Y-90100000D01*
X72200000Y-90500000D01*
X71800000Y-90500000D01*
G37*
G36*
X71400000Y-90500000D02*
X71400000Y-90100000D01*
X71800000Y-90100000D01*
X71800000Y-90500000D01*
X71400000Y-90500000D01*
G37*
G36*
X70200000Y-90500000D02*
X70200000Y-90100000D01*
X70600000Y-90100000D01*
X70600000Y-90500000D01*
X70200000Y-90500000D01*
G37*
G36*
X69800000Y-90500000D02*
X69800000Y-90100000D01*
X70200000Y-90100000D01*
X70200000Y-90500000D01*
X69800000Y-90500000D01*
G37*
G36*
X67400000Y-90500000D02*
X67400000Y-90100000D01*
X67800000Y-90100000D01*
X67800000Y-90500000D01*
X67400000Y-90500000D01*
G37*
G36*
X67000000Y-90500000D02*
X67000000Y-90100000D01*
X67400000Y-90100000D01*
X67400000Y-90500000D01*
X67000000Y-90500000D01*
G37*
G36*
X65000000Y-90500000D02*
X65000000Y-90100000D01*
X65400000Y-90100000D01*
X65400000Y-90500000D01*
X65000000Y-90500000D01*
G37*
G36*
X64600000Y-90500000D02*
X64600000Y-90100000D01*
X65000000Y-90100000D01*
X65000000Y-90500000D01*
X64600000Y-90500000D01*
G37*
G36*
X64200000Y-90500000D02*
X64200000Y-90100000D01*
X64600000Y-90100000D01*
X64600000Y-90500000D01*
X64200000Y-90500000D01*
G37*
G36*
X63000000Y-90500000D02*
X63000000Y-90100000D01*
X63400000Y-90100000D01*
X63400000Y-90500000D01*
X63000000Y-90500000D01*
G37*
G36*
X62600000Y-90500000D02*
X62600000Y-90100000D01*
X63000000Y-90100000D01*
X63000000Y-90500000D01*
X62600000Y-90500000D01*
G37*
G36*
X77000000Y-90900000D02*
X77000000Y-90500000D01*
X77400000Y-90500000D01*
X77400000Y-90900000D01*
X77000000Y-90900000D01*
G37*
G36*
X76600000Y-90900000D02*
X76600000Y-90500000D01*
X77000000Y-90500000D01*
X77000000Y-90900000D01*
X76600000Y-90900000D01*
G37*
G36*
X75400000Y-90900000D02*
X75400000Y-90500000D01*
X75800000Y-90500000D01*
X75800000Y-90900000D01*
X75400000Y-90900000D01*
G37*
G36*
X74600000Y-90900000D02*
X74600000Y-90500000D01*
X75000000Y-90500000D01*
X75000000Y-90900000D01*
X74600000Y-90900000D01*
G37*
G36*
X73000000Y-90900000D02*
X73000000Y-90500000D01*
X73400000Y-90500000D01*
X73400000Y-90900000D01*
X73000000Y-90900000D01*
G37*
G36*
X72600000Y-90900000D02*
X72600000Y-90500000D01*
X73000000Y-90500000D01*
X73000000Y-90900000D01*
X72600000Y-90900000D01*
G37*
G36*
X72200000Y-90900000D02*
X72200000Y-90500000D01*
X72600000Y-90500000D01*
X72600000Y-90900000D01*
X72200000Y-90900000D01*
G37*
G36*
X71400000Y-90900000D02*
X71400000Y-90500000D01*
X71800000Y-90500000D01*
X71800000Y-90900000D01*
X71400000Y-90900000D01*
G37*
G36*
X71000000Y-90900000D02*
X71000000Y-90500000D01*
X71400000Y-90500000D01*
X71400000Y-90900000D01*
X71000000Y-90900000D01*
G37*
G36*
X69800000Y-90900000D02*
X69800000Y-90500000D01*
X70200000Y-90500000D01*
X70200000Y-90900000D01*
X69800000Y-90900000D01*
G37*
G36*
X69000000Y-90900000D02*
X69000000Y-90500000D01*
X69400000Y-90500000D01*
X69400000Y-90900000D01*
X69000000Y-90900000D01*
G37*
G36*
X68600000Y-90900000D02*
X68600000Y-90500000D01*
X69000000Y-90500000D01*
X69000000Y-90900000D01*
X68600000Y-90900000D01*
G37*
G36*
X64200000Y-90900000D02*
X64200000Y-90500000D01*
X64600000Y-90500000D01*
X64600000Y-90900000D01*
X64200000Y-90900000D01*
G37*
G36*
X63800000Y-90900000D02*
X63800000Y-90500000D01*
X64200000Y-90500000D01*
X64200000Y-90900000D01*
X63800000Y-90900000D01*
G37*
G36*
X63000000Y-90900000D02*
X63000000Y-90500000D01*
X63400000Y-90500000D01*
X63400000Y-90900000D01*
X63000000Y-90900000D01*
G37*
G36*
X62600000Y-90900000D02*
X62600000Y-90500000D01*
X63000000Y-90500000D01*
X63000000Y-90900000D01*
X62600000Y-90900000D01*
G37*
G36*
X77000000Y-91300000D02*
X77000000Y-90900000D01*
X77400000Y-90900000D01*
X77400000Y-91300000D01*
X77000000Y-91300000D01*
G37*
G36*
X76600000Y-91300000D02*
X76600000Y-90900000D01*
X77000000Y-90900000D01*
X77000000Y-91300000D01*
X76600000Y-91300000D01*
G37*
G36*
X76200000Y-91300000D02*
X76200000Y-90900000D01*
X76600000Y-90900000D01*
X76600000Y-91300000D01*
X76200000Y-91300000D01*
G37*
G36*
X75800000Y-91300000D02*
X75800000Y-90900000D01*
X76200000Y-90900000D01*
X76200000Y-91300000D01*
X75800000Y-91300000D01*
G37*
G36*
X75400000Y-91300000D02*
X75400000Y-90900000D01*
X75800000Y-90900000D01*
X75800000Y-91300000D01*
X75400000Y-91300000D01*
G37*
G36*
X75000000Y-91300000D02*
X75000000Y-90900000D01*
X75400000Y-90900000D01*
X75400000Y-91300000D01*
X75000000Y-91300000D01*
G37*
G36*
X74600000Y-91300000D02*
X74600000Y-90900000D01*
X75000000Y-90900000D01*
X75000000Y-91300000D01*
X74600000Y-91300000D01*
G37*
G36*
X74200000Y-91300000D02*
X74200000Y-90900000D01*
X74600000Y-90900000D01*
X74600000Y-91300000D01*
X74200000Y-91300000D01*
G37*
G36*
X73800000Y-91300000D02*
X73800000Y-90900000D01*
X74200000Y-90900000D01*
X74200000Y-91300000D01*
X73800000Y-91300000D01*
G37*
G36*
X73400000Y-91300000D02*
X73400000Y-90900000D01*
X73800000Y-90900000D01*
X73800000Y-91300000D01*
X73400000Y-91300000D01*
G37*
G36*
X71800000Y-91300000D02*
X71800000Y-90900000D01*
X72200000Y-90900000D01*
X72200000Y-91300000D01*
X71800000Y-91300000D01*
G37*
G36*
X68600000Y-91300000D02*
X68600000Y-90900000D01*
X69000000Y-90900000D01*
X69000000Y-91300000D01*
X68600000Y-91300000D01*
G37*
G36*
X67400000Y-91300000D02*
X67400000Y-90900000D01*
X67800000Y-90900000D01*
X67800000Y-91300000D01*
X67400000Y-91300000D01*
G37*
G36*
X66200000Y-91300000D02*
X66200000Y-90900000D01*
X66600000Y-90900000D01*
X66600000Y-91300000D01*
X66200000Y-91300000D01*
G37*
G36*
X65800000Y-91300000D02*
X65800000Y-90900000D01*
X66200000Y-90900000D01*
X66200000Y-91300000D01*
X65800000Y-91300000D01*
G37*
G36*
X65400000Y-91300000D02*
X65400000Y-90900000D01*
X65800000Y-90900000D01*
X65800000Y-91300000D01*
X65400000Y-91300000D01*
G37*
G36*
X64600000Y-91300000D02*
X64600000Y-90900000D01*
X65000000Y-90900000D01*
X65000000Y-91300000D01*
X64600000Y-91300000D01*
G37*
G36*
X63400000Y-91300000D02*
X63400000Y-90900000D01*
X63800000Y-90900000D01*
X63800000Y-91300000D01*
X63400000Y-91300000D01*
G37*
G36*
X63000000Y-91300000D02*
X63000000Y-90900000D01*
X63400000Y-90900000D01*
X63400000Y-91300000D01*
X63000000Y-91300000D01*
G37*
G36*
X62600000Y-91300000D02*
X62600000Y-90900000D01*
X63000000Y-90900000D01*
X63000000Y-91300000D01*
X62600000Y-91300000D01*
G37*
G36*
X77000000Y-91700000D02*
X77000000Y-91300000D01*
X77400000Y-91300000D01*
X77400000Y-91700000D01*
X77000000Y-91700000D01*
G37*
G36*
X76600000Y-91700000D02*
X76600000Y-91300000D01*
X77000000Y-91300000D01*
X77000000Y-91700000D01*
X76600000Y-91700000D01*
G37*
G36*
X73400000Y-91700000D02*
X73400000Y-91300000D01*
X73800000Y-91300000D01*
X73800000Y-91700000D01*
X73400000Y-91700000D01*
G37*
G36*
X72600000Y-91700000D02*
X72600000Y-91300000D01*
X73000000Y-91300000D01*
X73000000Y-91700000D01*
X72600000Y-91700000D01*
G37*
G36*
X72200000Y-91700000D02*
X72200000Y-91300000D01*
X72600000Y-91300000D01*
X72600000Y-91700000D01*
X72200000Y-91700000D01*
G37*
G36*
X71800000Y-91700000D02*
X71800000Y-91300000D01*
X72200000Y-91300000D01*
X72200000Y-91700000D01*
X71800000Y-91700000D01*
G37*
G36*
X71400000Y-91700000D02*
X71400000Y-91300000D01*
X71800000Y-91300000D01*
X71800000Y-91700000D01*
X71400000Y-91700000D01*
G37*
G36*
X71000000Y-91700000D02*
X71000000Y-91300000D01*
X71400000Y-91300000D01*
X71400000Y-91700000D01*
X71000000Y-91700000D01*
G37*
G36*
X70600000Y-91700000D02*
X70600000Y-91300000D01*
X71000000Y-91300000D01*
X71000000Y-91700000D01*
X70600000Y-91700000D01*
G37*
G36*
X69800000Y-91700000D02*
X69800000Y-91300000D01*
X70200000Y-91300000D01*
X70200000Y-91700000D01*
X69800000Y-91700000D01*
G37*
G36*
X69400000Y-91700000D02*
X69400000Y-91300000D01*
X69800000Y-91300000D01*
X69800000Y-91700000D01*
X69400000Y-91700000D01*
G37*
G36*
X68600000Y-91700000D02*
X68600000Y-91300000D01*
X69000000Y-91300000D01*
X69000000Y-91700000D01*
X68600000Y-91700000D01*
G37*
G36*
X67800000Y-91700000D02*
X67800000Y-91300000D01*
X68200000Y-91300000D01*
X68200000Y-91700000D01*
X67800000Y-91700000D01*
G37*
G36*
X67400000Y-91700000D02*
X67400000Y-91300000D01*
X67800000Y-91300000D01*
X67800000Y-91700000D01*
X67400000Y-91700000D01*
G37*
G36*
X67000000Y-91700000D02*
X67000000Y-91300000D01*
X67400000Y-91300000D01*
X67400000Y-91700000D01*
X67000000Y-91700000D01*
G37*
G36*
X66200000Y-91700000D02*
X66200000Y-91300000D01*
X66600000Y-91300000D01*
X66600000Y-91700000D01*
X66200000Y-91700000D01*
G37*
G36*
X65400000Y-91700000D02*
X65400000Y-91300000D01*
X65800000Y-91300000D01*
X65800000Y-91700000D01*
X65400000Y-91700000D01*
G37*
G36*
X64200000Y-91700000D02*
X64200000Y-91300000D01*
X64600000Y-91300000D01*
X64600000Y-91700000D01*
X64200000Y-91700000D01*
G37*
G36*
X63800000Y-91700000D02*
X63800000Y-91300000D01*
X64200000Y-91300000D01*
X64200000Y-91700000D01*
X63800000Y-91700000D01*
G37*
G36*
X63400000Y-91700000D02*
X63400000Y-91300000D01*
X63800000Y-91300000D01*
X63800000Y-91700000D01*
X63400000Y-91700000D01*
G37*
G36*
X63000000Y-91700000D02*
X63000000Y-91300000D01*
X63400000Y-91300000D01*
X63400000Y-91700000D01*
X63000000Y-91700000D01*
G37*
G36*
X62600000Y-91700000D02*
X62600000Y-91300000D01*
X63000000Y-91300000D01*
X63000000Y-91700000D01*
X62600000Y-91700000D01*
G37*
G36*
X77000000Y-92100000D02*
X77000000Y-91700000D01*
X77400000Y-91700000D01*
X77400000Y-92100000D01*
X77000000Y-92100000D01*
G37*
G36*
X76600000Y-92100000D02*
X76600000Y-91700000D01*
X77000000Y-91700000D01*
X77000000Y-92100000D01*
X76600000Y-92100000D01*
G37*
G36*
X75800000Y-92100000D02*
X75800000Y-91700000D01*
X76200000Y-91700000D01*
X76200000Y-92100000D01*
X75800000Y-92100000D01*
G37*
G36*
X75400000Y-92100000D02*
X75400000Y-91700000D01*
X75800000Y-91700000D01*
X75800000Y-92100000D01*
X75400000Y-92100000D01*
G37*
G36*
X75000000Y-92100000D02*
X75000000Y-91700000D01*
X75400000Y-91700000D01*
X75400000Y-92100000D01*
X75000000Y-92100000D01*
G37*
G36*
X74600000Y-92100000D02*
X74600000Y-91700000D01*
X75000000Y-91700000D01*
X75000000Y-92100000D01*
X74600000Y-92100000D01*
G37*
G36*
X74200000Y-92100000D02*
X74200000Y-91700000D01*
X74600000Y-91700000D01*
X74600000Y-92100000D01*
X74200000Y-92100000D01*
G37*
G36*
X73400000Y-92100000D02*
X73400000Y-91700000D01*
X73800000Y-91700000D01*
X73800000Y-92100000D01*
X73400000Y-92100000D01*
G37*
G36*
X73000000Y-92100000D02*
X73000000Y-91700000D01*
X73400000Y-91700000D01*
X73400000Y-92100000D01*
X73000000Y-92100000D01*
G37*
G36*
X72600000Y-92100000D02*
X72600000Y-91700000D01*
X73000000Y-91700000D01*
X73000000Y-92100000D01*
X72600000Y-92100000D01*
G37*
G36*
X71000000Y-92100000D02*
X71000000Y-91700000D01*
X71400000Y-91700000D01*
X71400000Y-92100000D01*
X71000000Y-92100000D01*
G37*
G36*
X70600000Y-92100000D02*
X70600000Y-91700000D01*
X71000000Y-91700000D01*
X71000000Y-92100000D01*
X70600000Y-92100000D01*
G37*
G36*
X69800000Y-92100000D02*
X69800000Y-91700000D01*
X70200000Y-91700000D01*
X70200000Y-92100000D01*
X69800000Y-92100000D01*
G37*
G36*
X69400000Y-92100000D02*
X69400000Y-91700000D01*
X69800000Y-91700000D01*
X69800000Y-92100000D01*
X69400000Y-92100000D01*
G37*
G36*
X69000000Y-92100000D02*
X69000000Y-91700000D01*
X69400000Y-91700000D01*
X69400000Y-92100000D01*
X69000000Y-92100000D01*
G37*
G36*
X68600000Y-92100000D02*
X68600000Y-91700000D01*
X69000000Y-91700000D01*
X69000000Y-92100000D01*
X68600000Y-92100000D01*
G37*
G36*
X67800000Y-92100000D02*
X67800000Y-91700000D01*
X68200000Y-91700000D01*
X68200000Y-92100000D01*
X67800000Y-92100000D01*
G37*
G36*
X67000000Y-92100000D02*
X67000000Y-91700000D01*
X67400000Y-91700000D01*
X67400000Y-92100000D01*
X67000000Y-92100000D01*
G37*
G36*
X66200000Y-92100000D02*
X66200000Y-91700000D01*
X66600000Y-91700000D01*
X66600000Y-92100000D01*
X66200000Y-92100000D01*
G37*
G36*
X65800000Y-92100000D02*
X65800000Y-91700000D01*
X66200000Y-91700000D01*
X66200000Y-92100000D01*
X65800000Y-92100000D01*
G37*
G36*
X65400000Y-92100000D02*
X65400000Y-91700000D01*
X65800000Y-91700000D01*
X65800000Y-92100000D01*
X65400000Y-92100000D01*
G37*
G36*
X64600000Y-92100000D02*
X64600000Y-91700000D01*
X65000000Y-91700000D01*
X65000000Y-92100000D01*
X64600000Y-92100000D01*
G37*
G36*
X64200000Y-92100000D02*
X64200000Y-91700000D01*
X64600000Y-91700000D01*
X64600000Y-92100000D01*
X64200000Y-92100000D01*
G37*
G36*
X63400000Y-92100000D02*
X63400000Y-91700000D01*
X63800000Y-91700000D01*
X63800000Y-92100000D01*
X63400000Y-92100000D01*
G37*
G36*
X63000000Y-92100000D02*
X63000000Y-91700000D01*
X63400000Y-91700000D01*
X63400000Y-92100000D01*
X63000000Y-92100000D01*
G37*
G36*
X62600000Y-92100000D02*
X62600000Y-91700000D01*
X63000000Y-91700000D01*
X63000000Y-92100000D01*
X62600000Y-92100000D01*
G37*
G36*
X77000000Y-92500000D02*
X77000000Y-92100000D01*
X77400000Y-92100000D01*
X77400000Y-92500000D01*
X77000000Y-92500000D01*
G37*
G36*
X76600000Y-92500000D02*
X76600000Y-92100000D01*
X77000000Y-92100000D01*
X77000000Y-92500000D01*
X76600000Y-92500000D01*
G37*
G36*
X75800000Y-92500000D02*
X75800000Y-92100000D01*
X76200000Y-92100000D01*
X76200000Y-92500000D01*
X75800000Y-92500000D01*
G37*
G36*
X74200000Y-92500000D02*
X74200000Y-92100000D01*
X74600000Y-92100000D01*
X74600000Y-92500000D01*
X74200000Y-92500000D01*
G37*
G36*
X73400000Y-92500000D02*
X73400000Y-92100000D01*
X73800000Y-92100000D01*
X73800000Y-92500000D01*
X73400000Y-92500000D01*
G37*
G36*
X72600000Y-92500000D02*
X72600000Y-92100000D01*
X73000000Y-92100000D01*
X73000000Y-92500000D01*
X72600000Y-92500000D01*
G37*
G36*
X71400000Y-92500000D02*
X71400000Y-92100000D01*
X71800000Y-92100000D01*
X71800000Y-92500000D01*
X71400000Y-92500000D01*
G37*
G36*
X71000000Y-92500000D02*
X71000000Y-92100000D01*
X71400000Y-92100000D01*
X71400000Y-92500000D01*
X71000000Y-92500000D01*
G37*
G36*
X70200000Y-92500000D02*
X70200000Y-92100000D01*
X70600000Y-92100000D01*
X70600000Y-92500000D01*
X70200000Y-92500000D01*
G37*
G36*
X69400000Y-92500000D02*
X69400000Y-92100000D01*
X69800000Y-92100000D01*
X69800000Y-92500000D01*
X69400000Y-92500000D01*
G37*
G36*
X69000000Y-92500000D02*
X69000000Y-92100000D01*
X69400000Y-92100000D01*
X69400000Y-92500000D01*
X69000000Y-92500000D01*
G37*
G36*
X68600000Y-92500000D02*
X68600000Y-92100000D01*
X69000000Y-92100000D01*
X69000000Y-92500000D01*
X68600000Y-92500000D01*
G37*
G36*
X68200000Y-92500000D02*
X68200000Y-92100000D01*
X68600000Y-92100000D01*
X68600000Y-92500000D01*
X68200000Y-92500000D01*
G37*
G36*
X67800000Y-92500000D02*
X67800000Y-92100000D01*
X68200000Y-92100000D01*
X68200000Y-92500000D01*
X67800000Y-92500000D01*
G37*
G36*
X67000000Y-92500000D02*
X67000000Y-92100000D01*
X67400000Y-92100000D01*
X67400000Y-92500000D01*
X67000000Y-92500000D01*
G37*
G36*
X64200000Y-92500000D02*
X64200000Y-92100000D01*
X64600000Y-92100000D01*
X64600000Y-92500000D01*
X64200000Y-92500000D01*
G37*
G36*
X63800000Y-92500000D02*
X63800000Y-92100000D01*
X64200000Y-92100000D01*
X64200000Y-92500000D01*
X63800000Y-92500000D01*
G37*
G36*
X63000000Y-92500000D02*
X63000000Y-92100000D01*
X63400000Y-92100000D01*
X63400000Y-92500000D01*
X63000000Y-92500000D01*
G37*
G36*
X62600000Y-92500000D02*
X62600000Y-92100000D01*
X63000000Y-92100000D01*
X63000000Y-92500000D01*
X62600000Y-92500000D01*
G37*
G36*
X77000000Y-92900000D02*
X77000000Y-92500000D01*
X77400000Y-92500000D01*
X77400000Y-92900000D01*
X77000000Y-92900000D01*
G37*
G36*
X76600000Y-92900000D02*
X76600000Y-92500000D01*
X77000000Y-92500000D01*
X77000000Y-92900000D01*
X76600000Y-92900000D01*
G37*
G36*
X75800000Y-92900000D02*
X75800000Y-92500000D01*
X76200000Y-92500000D01*
X76200000Y-92900000D01*
X75800000Y-92900000D01*
G37*
G36*
X74200000Y-92900000D02*
X74200000Y-92500000D01*
X74600000Y-92500000D01*
X74600000Y-92900000D01*
X74200000Y-92900000D01*
G37*
G36*
X73400000Y-92900000D02*
X73400000Y-92500000D01*
X73800000Y-92500000D01*
X73800000Y-92900000D01*
X73400000Y-92900000D01*
G37*
G36*
X73000000Y-92900000D02*
X73000000Y-92500000D01*
X73400000Y-92500000D01*
X73400000Y-92900000D01*
X73000000Y-92900000D01*
G37*
G36*
X72600000Y-92900000D02*
X72600000Y-92500000D01*
X73000000Y-92500000D01*
X73000000Y-92900000D01*
X72600000Y-92900000D01*
G37*
G36*
X72200000Y-92900000D02*
X72200000Y-92500000D01*
X72600000Y-92500000D01*
X72600000Y-92900000D01*
X72200000Y-92900000D01*
G37*
G36*
X71400000Y-92900000D02*
X71400000Y-92500000D01*
X71800000Y-92500000D01*
X71800000Y-92900000D01*
X71400000Y-92900000D01*
G37*
G36*
X71000000Y-92900000D02*
X71000000Y-92500000D01*
X71400000Y-92500000D01*
X71400000Y-92900000D01*
X71000000Y-92900000D01*
G37*
G36*
X70200000Y-92900000D02*
X70200000Y-92500000D01*
X70600000Y-92500000D01*
X70600000Y-92900000D01*
X70200000Y-92900000D01*
G37*
G36*
X69800000Y-92900000D02*
X69800000Y-92500000D01*
X70200000Y-92500000D01*
X70200000Y-92900000D01*
X69800000Y-92900000D01*
G37*
G36*
X67400000Y-92900000D02*
X67400000Y-92500000D01*
X67800000Y-92500000D01*
X67800000Y-92900000D01*
X67400000Y-92900000D01*
G37*
G36*
X66200000Y-92900000D02*
X66200000Y-92500000D01*
X66600000Y-92500000D01*
X66600000Y-92900000D01*
X66200000Y-92900000D01*
G37*
G36*
X63400000Y-92900000D02*
X63400000Y-92500000D01*
X63800000Y-92500000D01*
X63800000Y-92900000D01*
X63400000Y-92900000D01*
G37*
G36*
X63000000Y-92900000D02*
X63000000Y-92500000D01*
X63400000Y-92500000D01*
X63400000Y-92900000D01*
X63000000Y-92900000D01*
G37*
G36*
X62600000Y-92900000D02*
X62600000Y-92500000D01*
X63000000Y-92500000D01*
X63000000Y-92900000D01*
X62600000Y-92900000D01*
G37*
G36*
X77000000Y-93300000D02*
X77000000Y-92900000D01*
X77400000Y-92900000D01*
X77400000Y-93300000D01*
X77000000Y-93300000D01*
G37*
G36*
X76600000Y-93300000D02*
X76600000Y-92900000D01*
X77000000Y-92900000D01*
X77000000Y-93300000D01*
X76600000Y-93300000D01*
G37*
G36*
X75800000Y-93300000D02*
X75800000Y-92900000D01*
X76200000Y-92900000D01*
X76200000Y-93300000D01*
X75800000Y-93300000D01*
G37*
G36*
X74200000Y-93300000D02*
X74200000Y-92900000D01*
X74600000Y-92900000D01*
X74600000Y-93300000D01*
X74200000Y-93300000D01*
G37*
G36*
X73400000Y-93300000D02*
X73400000Y-92900000D01*
X73800000Y-92900000D01*
X73800000Y-93300000D01*
X73400000Y-93300000D01*
G37*
G36*
X73000000Y-93300000D02*
X73000000Y-92900000D01*
X73400000Y-92900000D01*
X73400000Y-93300000D01*
X73000000Y-93300000D01*
G37*
G36*
X71400000Y-93300000D02*
X71400000Y-92900000D01*
X71800000Y-92900000D01*
X71800000Y-93300000D01*
X71400000Y-93300000D01*
G37*
G36*
X69800000Y-93300000D02*
X69800000Y-92900000D01*
X70200000Y-92900000D01*
X70200000Y-93300000D01*
X69800000Y-93300000D01*
G37*
G36*
X69400000Y-93300000D02*
X69400000Y-92900000D01*
X69800000Y-92900000D01*
X69800000Y-93300000D01*
X69400000Y-93300000D01*
G37*
G36*
X68600000Y-93300000D02*
X68600000Y-92900000D01*
X69000000Y-92900000D01*
X69000000Y-93300000D01*
X68600000Y-93300000D01*
G37*
G36*
X67800000Y-93300000D02*
X67800000Y-92900000D01*
X68200000Y-92900000D01*
X68200000Y-93300000D01*
X67800000Y-93300000D01*
G37*
G36*
X67400000Y-93300000D02*
X67400000Y-92900000D01*
X67800000Y-92900000D01*
X67800000Y-93300000D01*
X67400000Y-93300000D01*
G37*
G36*
X66200000Y-93300000D02*
X66200000Y-92900000D01*
X66600000Y-92900000D01*
X66600000Y-93300000D01*
X66200000Y-93300000D01*
G37*
G36*
X64200000Y-93300000D02*
X64200000Y-92900000D01*
X64600000Y-92900000D01*
X64600000Y-93300000D01*
X64200000Y-93300000D01*
G37*
G36*
X63800000Y-93300000D02*
X63800000Y-92900000D01*
X64200000Y-92900000D01*
X64200000Y-93300000D01*
X63800000Y-93300000D01*
G37*
G36*
X63400000Y-93300000D02*
X63400000Y-92900000D01*
X63800000Y-92900000D01*
X63800000Y-93300000D01*
X63400000Y-93300000D01*
G37*
G36*
X63000000Y-93300000D02*
X63000000Y-92900000D01*
X63400000Y-92900000D01*
X63400000Y-93300000D01*
X63000000Y-93300000D01*
G37*
G36*
X62600000Y-93300000D02*
X62600000Y-92900000D01*
X63000000Y-92900000D01*
X63000000Y-93300000D01*
X62600000Y-93300000D01*
G37*
G36*
X77000000Y-93700000D02*
X77000000Y-93300000D01*
X77400000Y-93300000D01*
X77400000Y-93700000D01*
X77000000Y-93700000D01*
G37*
G36*
X76600000Y-93700000D02*
X76600000Y-93300000D01*
X77000000Y-93300000D01*
X77000000Y-93700000D01*
X76600000Y-93700000D01*
G37*
G36*
X75800000Y-93700000D02*
X75800000Y-93300000D01*
X76200000Y-93300000D01*
X76200000Y-93700000D01*
X75800000Y-93700000D01*
G37*
G36*
X75400000Y-93700000D02*
X75400000Y-93300000D01*
X75800000Y-93300000D01*
X75800000Y-93700000D01*
X75400000Y-93700000D01*
G37*
G36*
X75000000Y-93700000D02*
X75000000Y-93300000D01*
X75400000Y-93300000D01*
X75400000Y-93700000D01*
X75000000Y-93700000D01*
G37*
G36*
X74600000Y-93700000D02*
X74600000Y-93300000D01*
X75000000Y-93300000D01*
X75000000Y-93700000D01*
X74600000Y-93700000D01*
G37*
G36*
X74200000Y-93700000D02*
X74200000Y-93300000D01*
X74600000Y-93300000D01*
X74600000Y-93700000D01*
X74200000Y-93700000D01*
G37*
G36*
X73400000Y-93700000D02*
X73400000Y-93300000D01*
X73800000Y-93300000D01*
X73800000Y-93700000D01*
X73400000Y-93700000D01*
G37*
G36*
X73000000Y-93700000D02*
X73000000Y-93300000D01*
X73400000Y-93300000D01*
X73400000Y-93700000D01*
X73000000Y-93700000D01*
G37*
G36*
X72600000Y-93700000D02*
X72600000Y-93300000D01*
X73000000Y-93300000D01*
X73000000Y-93700000D01*
X72600000Y-93700000D01*
G37*
G36*
X72200000Y-93700000D02*
X72200000Y-93300000D01*
X72600000Y-93300000D01*
X72600000Y-93700000D01*
X72200000Y-93700000D01*
G37*
G36*
X71400000Y-93700000D02*
X71400000Y-93300000D01*
X71800000Y-93300000D01*
X71800000Y-93700000D01*
X71400000Y-93700000D01*
G37*
G36*
X69000000Y-93700000D02*
X69000000Y-93300000D01*
X69400000Y-93300000D01*
X69400000Y-93700000D01*
X69000000Y-93700000D01*
G37*
G36*
X68600000Y-93700000D02*
X68600000Y-93300000D01*
X69000000Y-93300000D01*
X69000000Y-93700000D01*
X68600000Y-93700000D01*
G37*
G36*
X68200000Y-93700000D02*
X68200000Y-93300000D01*
X68600000Y-93300000D01*
X68600000Y-93700000D01*
X68200000Y-93700000D01*
G37*
G36*
X67400000Y-93700000D02*
X67400000Y-93300000D01*
X67800000Y-93300000D01*
X67800000Y-93700000D01*
X67400000Y-93700000D01*
G37*
G36*
X67000000Y-93700000D02*
X67000000Y-93300000D01*
X67400000Y-93300000D01*
X67400000Y-93700000D01*
X67000000Y-93700000D01*
G37*
G36*
X66600000Y-93700000D02*
X66600000Y-93300000D01*
X67000000Y-93300000D01*
X67000000Y-93700000D01*
X66600000Y-93700000D01*
G37*
G36*
X66200000Y-93700000D02*
X66200000Y-93300000D01*
X66600000Y-93300000D01*
X66600000Y-93700000D01*
X66200000Y-93700000D01*
G37*
G36*
X65800000Y-93700000D02*
X65800000Y-93300000D01*
X66200000Y-93300000D01*
X66200000Y-93700000D01*
X65800000Y-93700000D01*
G37*
G36*
X65400000Y-93700000D02*
X65400000Y-93300000D01*
X65800000Y-93300000D01*
X65800000Y-93700000D01*
X65400000Y-93700000D01*
G37*
G36*
X65000000Y-93700000D02*
X65000000Y-93300000D01*
X65400000Y-93300000D01*
X65400000Y-93700000D01*
X65000000Y-93700000D01*
G37*
G36*
X64600000Y-93700000D02*
X64600000Y-93300000D01*
X65000000Y-93300000D01*
X65000000Y-93700000D01*
X64600000Y-93700000D01*
G37*
G36*
X64200000Y-93700000D02*
X64200000Y-93300000D01*
X64600000Y-93300000D01*
X64600000Y-93700000D01*
X64200000Y-93700000D01*
G37*
G36*
X63800000Y-93700000D02*
X63800000Y-93300000D01*
X64200000Y-93300000D01*
X64200000Y-93700000D01*
X63800000Y-93700000D01*
G37*
G36*
X63400000Y-93700000D02*
X63400000Y-93300000D01*
X63800000Y-93300000D01*
X63800000Y-93700000D01*
X63400000Y-93700000D01*
G37*
G36*
X63000000Y-93700000D02*
X63000000Y-93300000D01*
X63400000Y-93300000D01*
X63400000Y-93700000D01*
X63000000Y-93700000D01*
G37*
G36*
X62600000Y-93700000D02*
X62600000Y-93300000D01*
X63000000Y-93300000D01*
X63000000Y-93700000D01*
X62600000Y-93700000D01*
G37*
G36*
X77000000Y-94100000D02*
X77000000Y-93700000D01*
X77400000Y-93700000D01*
X77400000Y-94100000D01*
X77000000Y-94100000D01*
G37*
G36*
X76600000Y-94100000D02*
X76600000Y-93700000D01*
X77000000Y-93700000D01*
X77000000Y-94100000D01*
X76600000Y-94100000D01*
G37*
G36*
X73400000Y-94100000D02*
X73400000Y-93700000D01*
X73800000Y-93700000D01*
X73800000Y-94100000D01*
X73400000Y-94100000D01*
G37*
G36*
X72200000Y-94100000D02*
X72200000Y-93700000D01*
X72600000Y-93700000D01*
X72600000Y-94100000D01*
X72200000Y-94100000D01*
G37*
G36*
X71400000Y-94100000D02*
X71400000Y-93700000D01*
X71800000Y-93700000D01*
X71800000Y-94100000D01*
X71400000Y-94100000D01*
G37*
G36*
X70600000Y-94100000D02*
X70600000Y-93700000D01*
X71000000Y-93700000D01*
X71000000Y-94100000D01*
X70600000Y-94100000D01*
G37*
G36*
X70200000Y-94100000D02*
X70200000Y-93700000D01*
X70600000Y-93700000D01*
X70600000Y-94100000D01*
X70200000Y-94100000D01*
G37*
G36*
X69800000Y-94100000D02*
X69800000Y-93700000D01*
X70200000Y-93700000D01*
X70200000Y-94100000D01*
X69800000Y-94100000D01*
G37*
G36*
X69000000Y-94100000D02*
X69000000Y-93700000D01*
X69400000Y-93700000D01*
X69400000Y-94100000D01*
X69000000Y-94100000D01*
G37*
G36*
X67000000Y-94100000D02*
X67000000Y-93700000D01*
X67400000Y-93700000D01*
X67400000Y-94100000D01*
X67000000Y-94100000D01*
G37*
G36*
X66200000Y-94100000D02*
X66200000Y-93700000D01*
X66600000Y-93700000D01*
X66600000Y-94100000D01*
X66200000Y-94100000D01*
G37*
G36*
X65400000Y-94100000D02*
X65400000Y-93700000D01*
X65800000Y-93700000D01*
X65800000Y-94100000D01*
X65400000Y-94100000D01*
G37*
G36*
X65000000Y-94100000D02*
X65000000Y-93700000D01*
X65400000Y-93700000D01*
X65400000Y-94100000D01*
X65000000Y-94100000D01*
G37*
G36*
X64600000Y-94100000D02*
X64600000Y-93700000D01*
X65000000Y-93700000D01*
X65000000Y-94100000D01*
X64600000Y-94100000D01*
G37*
G36*
X64200000Y-94100000D02*
X64200000Y-93700000D01*
X64600000Y-93700000D01*
X64600000Y-94100000D01*
X64200000Y-94100000D01*
G37*
G36*
X63800000Y-94100000D02*
X63800000Y-93700000D01*
X64200000Y-93700000D01*
X64200000Y-94100000D01*
X63800000Y-94100000D01*
G37*
G36*
X63000000Y-94100000D02*
X63000000Y-93700000D01*
X63400000Y-93700000D01*
X63400000Y-94100000D01*
X63000000Y-94100000D01*
G37*
G36*
X62600000Y-94100000D02*
X62600000Y-93700000D01*
X63000000Y-93700000D01*
X63000000Y-94100000D01*
X62600000Y-94100000D01*
G37*
G36*
X77000000Y-94500000D02*
X77000000Y-94100000D01*
X77400000Y-94100000D01*
X77400000Y-94500000D01*
X77000000Y-94500000D01*
G37*
G36*
X76600000Y-94500000D02*
X76600000Y-94100000D01*
X77000000Y-94100000D01*
X77000000Y-94500000D01*
X76600000Y-94500000D01*
G37*
G36*
X76200000Y-94500000D02*
X76200000Y-94100000D01*
X76600000Y-94100000D01*
X76600000Y-94500000D01*
X76200000Y-94500000D01*
G37*
G36*
X75800000Y-94500000D02*
X75800000Y-94100000D01*
X76200000Y-94100000D01*
X76200000Y-94500000D01*
X75800000Y-94500000D01*
G37*
G36*
X75400000Y-94500000D02*
X75400000Y-94100000D01*
X75800000Y-94100000D01*
X75800000Y-94500000D01*
X75400000Y-94500000D01*
G37*
G36*
X75000000Y-94500000D02*
X75000000Y-94100000D01*
X75400000Y-94100000D01*
X75400000Y-94500000D01*
X75000000Y-94500000D01*
G37*
G36*
X74600000Y-94500000D02*
X74600000Y-94100000D01*
X75000000Y-94100000D01*
X75000000Y-94500000D01*
X74600000Y-94500000D01*
G37*
G36*
X74200000Y-94500000D02*
X74200000Y-94100000D01*
X74600000Y-94100000D01*
X74600000Y-94500000D01*
X74200000Y-94500000D01*
G37*
G36*
X73800000Y-94500000D02*
X73800000Y-94100000D01*
X74200000Y-94100000D01*
X74200000Y-94500000D01*
X73800000Y-94500000D01*
G37*
G36*
X73400000Y-94500000D02*
X73400000Y-94100000D01*
X73800000Y-94100000D01*
X73800000Y-94500000D01*
X73400000Y-94500000D01*
G37*
G36*
X73000000Y-94500000D02*
X73000000Y-94100000D01*
X73400000Y-94100000D01*
X73400000Y-94500000D01*
X73000000Y-94500000D01*
G37*
G36*
X72600000Y-94500000D02*
X72600000Y-94100000D01*
X73000000Y-94100000D01*
X73000000Y-94500000D01*
X72600000Y-94500000D01*
G37*
G36*
X72200000Y-94500000D02*
X72200000Y-94100000D01*
X72600000Y-94100000D01*
X72600000Y-94500000D01*
X72200000Y-94500000D01*
G37*
G36*
X71800000Y-94500000D02*
X71800000Y-94100000D01*
X72200000Y-94100000D01*
X72200000Y-94500000D01*
X71800000Y-94500000D01*
G37*
G36*
X71400000Y-94500000D02*
X71400000Y-94100000D01*
X71800000Y-94100000D01*
X71800000Y-94500000D01*
X71400000Y-94500000D01*
G37*
G36*
X71000000Y-94500000D02*
X71000000Y-94100000D01*
X71400000Y-94100000D01*
X71400000Y-94500000D01*
X71000000Y-94500000D01*
G37*
G36*
X70600000Y-94500000D02*
X70600000Y-94100000D01*
X71000000Y-94100000D01*
X71000000Y-94500000D01*
X70600000Y-94500000D01*
G37*
G36*
X70200000Y-94500000D02*
X70200000Y-94100000D01*
X70600000Y-94100000D01*
X70600000Y-94500000D01*
X70200000Y-94500000D01*
G37*
G36*
X69800000Y-94500000D02*
X69800000Y-94100000D01*
X70200000Y-94100000D01*
X70200000Y-94500000D01*
X69800000Y-94500000D01*
G37*
G36*
X69400000Y-94500000D02*
X69400000Y-94100000D01*
X69800000Y-94100000D01*
X69800000Y-94500000D01*
X69400000Y-94500000D01*
G37*
G36*
X69000000Y-94500000D02*
X69000000Y-94100000D01*
X69400000Y-94100000D01*
X69400000Y-94500000D01*
X69000000Y-94500000D01*
G37*
G36*
X68600000Y-94500000D02*
X68600000Y-94100000D01*
X69000000Y-94100000D01*
X69000000Y-94500000D01*
X68600000Y-94500000D01*
G37*
G36*
X68200000Y-94500000D02*
X68200000Y-94100000D01*
X68600000Y-94100000D01*
X68600000Y-94500000D01*
X68200000Y-94500000D01*
G37*
G36*
X67800000Y-94500000D02*
X67800000Y-94100000D01*
X68200000Y-94100000D01*
X68200000Y-94500000D01*
X67800000Y-94500000D01*
G37*
G36*
X67400000Y-94500000D02*
X67400000Y-94100000D01*
X67800000Y-94100000D01*
X67800000Y-94500000D01*
X67400000Y-94500000D01*
G37*
G36*
X67000000Y-94500000D02*
X67000000Y-94100000D01*
X67400000Y-94100000D01*
X67400000Y-94500000D01*
X67000000Y-94500000D01*
G37*
G36*
X66600000Y-94500000D02*
X66600000Y-94100000D01*
X67000000Y-94100000D01*
X67000000Y-94500000D01*
X66600000Y-94500000D01*
G37*
G36*
X66200000Y-94500000D02*
X66200000Y-94100000D01*
X66600000Y-94100000D01*
X66600000Y-94500000D01*
X66200000Y-94500000D01*
G37*
G36*
X65800000Y-94500000D02*
X65800000Y-94100000D01*
X66200000Y-94100000D01*
X66200000Y-94500000D01*
X65800000Y-94500000D01*
G37*
G36*
X65400000Y-94500000D02*
X65400000Y-94100000D01*
X65800000Y-94100000D01*
X65800000Y-94500000D01*
X65400000Y-94500000D01*
G37*
G36*
X65000000Y-94500000D02*
X65000000Y-94100000D01*
X65400000Y-94100000D01*
X65400000Y-94500000D01*
X65000000Y-94500000D01*
G37*
G36*
X64600000Y-94500000D02*
X64600000Y-94100000D01*
X65000000Y-94100000D01*
X65000000Y-94500000D01*
X64600000Y-94500000D01*
G37*
G36*
X64200000Y-94500000D02*
X64200000Y-94100000D01*
X64600000Y-94100000D01*
X64600000Y-94500000D01*
X64200000Y-94500000D01*
G37*
G36*
X63800000Y-94500000D02*
X63800000Y-94100000D01*
X64200000Y-94100000D01*
X64200000Y-94500000D01*
X63800000Y-94500000D01*
G37*
G36*
X63400000Y-94500000D02*
X63400000Y-94100000D01*
X63800000Y-94100000D01*
X63800000Y-94500000D01*
X63400000Y-94500000D01*
G37*
G36*
X63000000Y-94500000D02*
X63000000Y-94100000D01*
X63400000Y-94100000D01*
X63400000Y-94500000D01*
X63000000Y-94500000D01*
G37*
G36*
X62600000Y-94500000D02*
X62600000Y-94100000D01*
X63000000Y-94100000D01*
X63000000Y-94500000D01*
X62600000Y-94500000D01*
G37*
G36*
X77000000Y-94900000D02*
X77000000Y-94500000D01*
X77400000Y-94500000D01*
X77400000Y-94900000D01*
X77000000Y-94900000D01*
G37*
G36*
X76600000Y-94900000D02*
X76600000Y-94500000D01*
X77000000Y-94500000D01*
X77000000Y-94900000D01*
X76600000Y-94900000D01*
G37*
G36*
X76200000Y-94900000D02*
X76200000Y-94500000D01*
X76600000Y-94500000D01*
X76600000Y-94900000D01*
X76200000Y-94900000D01*
G37*
G36*
X75800000Y-94900000D02*
X75800000Y-94500000D01*
X76200000Y-94500000D01*
X76200000Y-94900000D01*
X75800000Y-94900000D01*
G37*
G36*
X75400000Y-94900000D02*
X75400000Y-94500000D01*
X75800000Y-94500000D01*
X75800000Y-94900000D01*
X75400000Y-94900000D01*
G37*
G36*
X75000000Y-94900000D02*
X75000000Y-94500000D01*
X75400000Y-94500000D01*
X75400000Y-94900000D01*
X75000000Y-94900000D01*
G37*
G36*
X74600000Y-94900000D02*
X74600000Y-94500000D01*
X75000000Y-94500000D01*
X75000000Y-94900000D01*
X74600000Y-94900000D01*
G37*
G36*
X74200000Y-94900000D02*
X74200000Y-94500000D01*
X74600000Y-94500000D01*
X74600000Y-94900000D01*
X74200000Y-94900000D01*
G37*
G36*
X73800000Y-94900000D02*
X73800000Y-94500000D01*
X74200000Y-94500000D01*
X74200000Y-94900000D01*
X73800000Y-94900000D01*
G37*
G36*
X73400000Y-94900000D02*
X73400000Y-94500000D01*
X73800000Y-94500000D01*
X73800000Y-94900000D01*
X73400000Y-94900000D01*
G37*
G36*
X73000000Y-94900000D02*
X73000000Y-94500000D01*
X73400000Y-94500000D01*
X73400000Y-94900000D01*
X73000000Y-94900000D01*
G37*
G36*
X72600000Y-94900000D02*
X72600000Y-94500000D01*
X73000000Y-94500000D01*
X73000000Y-94900000D01*
X72600000Y-94900000D01*
G37*
G36*
X72200000Y-94900000D02*
X72200000Y-94500000D01*
X72600000Y-94500000D01*
X72600000Y-94900000D01*
X72200000Y-94900000D01*
G37*
G36*
X71800000Y-94900000D02*
X71800000Y-94500000D01*
X72200000Y-94500000D01*
X72200000Y-94900000D01*
X71800000Y-94900000D01*
G37*
G36*
X71400000Y-94900000D02*
X71400000Y-94500000D01*
X71800000Y-94500000D01*
X71800000Y-94900000D01*
X71400000Y-94900000D01*
G37*
G36*
X71000000Y-94900000D02*
X71000000Y-94500000D01*
X71400000Y-94500000D01*
X71400000Y-94900000D01*
X71000000Y-94900000D01*
G37*
G36*
X70600000Y-94900000D02*
X70600000Y-94500000D01*
X71000000Y-94500000D01*
X71000000Y-94900000D01*
X70600000Y-94900000D01*
G37*
G36*
X70200000Y-94900000D02*
X70200000Y-94500000D01*
X70600000Y-94500000D01*
X70600000Y-94900000D01*
X70200000Y-94900000D01*
G37*
G36*
X69800000Y-94900000D02*
X69800000Y-94500000D01*
X70200000Y-94500000D01*
X70200000Y-94900000D01*
X69800000Y-94900000D01*
G37*
G36*
X69400000Y-94900000D02*
X69400000Y-94500000D01*
X69800000Y-94500000D01*
X69800000Y-94900000D01*
X69400000Y-94900000D01*
G37*
G36*
X69000000Y-94900000D02*
X69000000Y-94500000D01*
X69400000Y-94500000D01*
X69400000Y-94900000D01*
X69000000Y-94900000D01*
G37*
G36*
X68600000Y-94900000D02*
X68600000Y-94500000D01*
X69000000Y-94500000D01*
X69000000Y-94900000D01*
X68600000Y-94900000D01*
G37*
G36*
X68200000Y-94900000D02*
X68200000Y-94500000D01*
X68600000Y-94500000D01*
X68600000Y-94900000D01*
X68200000Y-94900000D01*
G37*
G36*
X67800000Y-94900000D02*
X67800000Y-94500000D01*
X68200000Y-94500000D01*
X68200000Y-94900000D01*
X67800000Y-94900000D01*
G37*
G36*
X67400000Y-94900000D02*
X67400000Y-94500000D01*
X67800000Y-94500000D01*
X67800000Y-94900000D01*
X67400000Y-94900000D01*
G37*
G36*
X67000000Y-94900000D02*
X67000000Y-94500000D01*
X67400000Y-94500000D01*
X67400000Y-94900000D01*
X67000000Y-94900000D01*
G37*
G36*
X66600000Y-94900000D02*
X66600000Y-94500000D01*
X67000000Y-94500000D01*
X67000000Y-94900000D01*
X66600000Y-94900000D01*
G37*
G36*
X66200000Y-94900000D02*
X66200000Y-94500000D01*
X66600000Y-94500000D01*
X66600000Y-94900000D01*
X66200000Y-94900000D01*
G37*
G36*
X65800000Y-94900000D02*
X65800000Y-94500000D01*
X66200000Y-94500000D01*
X66200000Y-94900000D01*
X65800000Y-94900000D01*
G37*
G36*
X65400000Y-94900000D02*
X65400000Y-94500000D01*
X65800000Y-94500000D01*
X65800000Y-94900000D01*
X65400000Y-94900000D01*
G37*
G36*
X65000000Y-94900000D02*
X65000000Y-94500000D01*
X65400000Y-94500000D01*
X65400000Y-94900000D01*
X65000000Y-94900000D01*
G37*
G36*
X64600000Y-94900000D02*
X64600000Y-94500000D01*
X65000000Y-94500000D01*
X65000000Y-94900000D01*
X64600000Y-94900000D01*
G37*
G36*
X64200000Y-94900000D02*
X64200000Y-94500000D01*
X64600000Y-94500000D01*
X64600000Y-94900000D01*
X64200000Y-94900000D01*
G37*
G36*
X63800000Y-94900000D02*
X63800000Y-94500000D01*
X64200000Y-94500000D01*
X64200000Y-94900000D01*
X63800000Y-94900000D01*
G37*
G36*
X63400000Y-94900000D02*
X63400000Y-94500000D01*
X63800000Y-94500000D01*
X63800000Y-94900000D01*
X63400000Y-94900000D01*
G37*
G36*
X63000000Y-94900000D02*
X63000000Y-94500000D01*
X63400000Y-94500000D01*
X63400000Y-94900000D01*
X63000000Y-94900000D01*
G37*
G36*
X62600000Y-94900000D02*
X62600000Y-94500000D01*
X63000000Y-94500000D01*
X63000000Y-94900000D01*
X62600000Y-94900000D01*
G37*
D13*
G04 #@! TO.C,BT1*
X137860000Y-107860000D02*
X137860000Y-108140000D01*
X137860000Y-108140000D02*
X139460000Y-108140000D01*
X139460000Y-108140000D02*
X139460000Y-109060000D01*
X139460000Y-109060000D02*
X131640000Y-109060000D01*
X131640000Y-109060000D02*
X131640000Y-102940000D01*
X131640000Y-102940000D02*
X139460000Y-102940000D01*
X139460000Y-102940000D02*
X139460000Y-103860000D01*
X139460000Y-103860000D02*
X137860000Y-103860000D01*
X137860000Y-103860000D02*
X137860000Y-104140000D01*
X131640000Y-106500000D02*
X136000000Y-106500000D01*
X136000000Y-106500000D02*
X136000000Y-105500000D01*
X136000000Y-105500000D02*
X131640000Y-105500000D01*
X137860000Y-109060000D02*
X137860000Y-108140000D01*
X137860000Y-102940000D02*
X137860000Y-103860000D01*
X135500000Y-108300000D02*
X133900000Y-108300000D01*
X133900000Y-108300000D02*
X133900000Y-107300000D01*
X133900000Y-107300000D02*
X135500000Y-107300000D01*
X135500000Y-107300000D02*
X135500000Y-108300000D01*
X135500000Y-103700000D02*
X133900000Y-103700000D01*
X133900000Y-103700000D02*
X133900000Y-104700000D01*
X133900000Y-104700000D02*
X135500000Y-104700000D01*
X135500000Y-104700000D02*
X135500000Y-103700000D01*
X133900000Y-107300000D02*
X131640000Y-107300000D01*
X133900000Y-107800000D02*
X131640000Y-107800000D01*
X137860000Y-107860000D02*
X139075000Y-107860000D01*
G04 #@! TD*
M02*
