G04 #@! TF.GenerationSoftware,KiCad,Pcbnew,(5.1.5)-3*
G04 #@! TF.CreationDate,2020-03-01T19:19:35+00:00*
G04 #@! TF.ProjectId,teatime,74656174-696d-4652-9e6b-696361645f70,rev?*
G04 #@! TF.SameCoordinates,Original*
G04 #@! TF.FileFunction,Legend,Top*
G04 #@! TF.FilePolarity,Positive*
%FSLAX46Y46*%
G04 Gerber Fmt 4.6, Leading zero omitted, Abs format (unit mm)*
G04 Created by KiCad (PCBNEW (5.1.5)-3) date 2020-03-01 19:19:35*
%MOMM*%
%LPD*%
G04 APERTURE LIST*
%ADD10C,0.200000*%
%ADD11C,0.300000*%
%ADD12C,0.120000*%
%ADD13C,0.150000*%
G04 APERTURE END LIST*
D10*
X110750000Y-67250000D02*
X114000000Y-67250000D01*
X110750000Y-67750000D02*
X110750000Y-67250000D01*
X108250000Y-67750000D02*
X110750000Y-67750000D01*
X108250000Y-67250000D02*
X108250000Y-67750000D01*
X105000000Y-67250000D02*
X108250000Y-67250000D01*
X80950000Y-64880000D02*
X80950000Y-62975000D01*
X93020000Y-62975000D02*
X101270000Y-62975000D01*
X80950000Y-62975000D02*
X89205000Y-62975000D01*
X101270000Y-62975000D02*
X101270000Y-64880000D01*
X137025000Y-93020000D02*
X137025000Y-101270000D01*
X137025000Y-80950000D02*
X137025000Y-89205000D01*
X137025000Y-101270000D02*
X135120000Y-101270000D01*
X135120000Y-80950000D02*
X137025000Y-80950000D01*
X106980000Y-137025000D02*
X98730000Y-137025000D01*
X98730000Y-137025000D02*
X98730000Y-135120000D01*
X119050000Y-135120000D02*
X119050000Y-137025000D01*
X119050000Y-137025000D02*
X110795000Y-137025000D01*
X62975000Y-106980000D02*
X62975000Y-98730000D01*
X62975000Y-119050000D02*
X62975000Y-110795000D01*
X64880000Y-119050000D02*
X62975000Y-119050000D01*
X62975000Y-98730000D02*
X64880000Y-98730000D01*
D11*
X66071428Y-83353571D02*
X66928571Y-83353571D01*
X66500000Y-84853571D02*
X66500000Y-83353571D01*
X68000000Y-84782142D02*
X67857142Y-84853571D01*
X67571428Y-84853571D01*
X67428571Y-84782142D01*
X67357142Y-84639285D01*
X67357142Y-84067857D01*
X67428571Y-83925000D01*
X67571428Y-83853571D01*
X67857142Y-83853571D01*
X68000000Y-83925000D01*
X68071428Y-84067857D01*
X68071428Y-84210714D01*
X67357142Y-84353571D01*
X69357142Y-84853571D02*
X69357142Y-84067857D01*
X69285714Y-83925000D01*
X69142857Y-83853571D01*
X68857142Y-83853571D01*
X68714285Y-83925000D01*
X69357142Y-84782142D02*
X69214285Y-84853571D01*
X68857142Y-84853571D01*
X68714285Y-84782142D01*
X68642857Y-84639285D01*
X68642857Y-84496428D01*
X68714285Y-84353571D01*
X68857142Y-84282142D01*
X69214285Y-84282142D01*
X69357142Y-84210714D01*
X69857142Y-83853571D02*
X70428571Y-83853571D01*
X70071428Y-83353571D02*
X70071428Y-84639285D01*
X70142857Y-84782142D01*
X70285714Y-84853571D01*
X70428571Y-84853571D01*
X70928571Y-84853571D02*
X70928571Y-83853571D01*
X70928571Y-83353571D02*
X70857142Y-83425000D01*
X70928571Y-83496428D01*
X71000000Y-83425000D01*
X70928571Y-83353571D01*
X70928571Y-83496428D01*
X71642857Y-84853571D02*
X71642857Y-83853571D01*
X71642857Y-83996428D02*
X71714285Y-83925000D01*
X71857142Y-83853571D01*
X72071428Y-83853571D01*
X72214285Y-83925000D01*
X72285714Y-84067857D01*
X72285714Y-84853571D01*
X72285714Y-84067857D02*
X72357142Y-83925000D01*
X72500000Y-83853571D01*
X72714285Y-83853571D01*
X72857142Y-83925000D01*
X72928571Y-84067857D01*
X72928571Y-84853571D01*
X74214285Y-84782142D02*
X74071428Y-84853571D01*
X73785714Y-84853571D01*
X73642857Y-84782142D01*
X73571428Y-84639285D01*
X73571428Y-84067857D01*
X73642857Y-83925000D01*
X73785714Y-83853571D01*
X74071428Y-83853571D01*
X74214285Y-83925000D01*
X74285714Y-84067857D01*
X74285714Y-84210714D01*
X73571428Y-84353571D01*
X62642857Y-87403571D02*
X62642857Y-85903571D01*
X62642857Y-86617857D02*
X63500000Y-86617857D01*
X63500000Y-87403571D02*
X63500000Y-85903571D01*
X64857142Y-87403571D02*
X64857142Y-86617857D01*
X64785714Y-86475000D01*
X64642857Y-86403571D01*
X64357142Y-86403571D01*
X64214285Y-86475000D01*
X64857142Y-87332142D02*
X64714285Y-87403571D01*
X64357142Y-87403571D01*
X64214285Y-87332142D01*
X64142857Y-87189285D01*
X64142857Y-87046428D01*
X64214285Y-86903571D01*
X64357142Y-86832142D01*
X64714285Y-86832142D01*
X64857142Y-86760714D01*
X65571428Y-87403571D02*
X65571428Y-86403571D01*
X65571428Y-86689285D02*
X65642857Y-86546428D01*
X65714285Y-86475000D01*
X65857142Y-86403571D01*
X66000000Y-86403571D01*
X66500000Y-87403571D02*
X66500000Y-85903571D01*
X66642857Y-86832142D02*
X67071428Y-87403571D01*
X67071428Y-86403571D02*
X66500000Y-86975000D01*
X67928571Y-87403571D02*
X67785714Y-87332142D01*
X67714285Y-87260714D01*
X67642857Y-87117857D01*
X67642857Y-86689285D01*
X67714285Y-86546428D01*
X67785714Y-86475000D01*
X67928571Y-86403571D01*
X68142857Y-86403571D01*
X68285714Y-86475000D01*
X68357142Y-86546428D01*
X68428571Y-86689285D01*
X68428571Y-87117857D01*
X68357142Y-87260714D01*
X68285714Y-87332142D01*
X68142857Y-87403571D01*
X67928571Y-87403571D01*
X69071428Y-86403571D02*
X69071428Y-87403571D01*
X69071428Y-86546428D02*
X69142857Y-86475000D01*
X69285714Y-86403571D01*
X69500000Y-86403571D01*
X69642857Y-86475000D01*
X69714285Y-86617857D01*
X69714285Y-87403571D01*
X71000000Y-87332142D02*
X70857142Y-87403571D01*
X70571428Y-87403571D01*
X70428571Y-87332142D01*
X70357142Y-87189285D01*
X70357142Y-86617857D01*
X70428571Y-86475000D01*
X70571428Y-86403571D01*
X70857142Y-86403571D01*
X71000000Y-86475000D01*
X71071428Y-86617857D01*
X71071428Y-86760714D01*
X70357142Y-86903571D01*
X71714285Y-86403571D02*
X71714285Y-87403571D01*
X71714285Y-86546428D02*
X71785714Y-86475000D01*
X71928571Y-86403571D01*
X72142857Y-86403571D01*
X72285714Y-86475000D01*
X72357142Y-86617857D01*
X72357142Y-87403571D01*
X73571428Y-86617857D02*
X73785714Y-86689285D01*
X73857142Y-86760714D01*
X73928571Y-86903571D01*
X73928571Y-87117857D01*
X73857142Y-87260714D01*
X73785714Y-87332142D01*
X73642857Y-87403571D01*
X73071428Y-87403571D01*
X73071428Y-85903571D01*
X73571428Y-85903571D01*
X73714285Y-85975000D01*
X73785714Y-86046428D01*
X73857142Y-86189285D01*
X73857142Y-86332142D01*
X73785714Y-86475000D01*
X73714285Y-86546428D01*
X73571428Y-86617857D01*
X73071428Y-86617857D01*
X75214285Y-87403571D02*
X75214285Y-86617857D01*
X75142857Y-86475000D01*
X75000000Y-86403571D01*
X74714285Y-86403571D01*
X74571428Y-86475000D01*
X75214285Y-87332142D02*
X75071428Y-87403571D01*
X74714285Y-87403571D01*
X74571428Y-87332142D01*
X74500000Y-87189285D01*
X74500000Y-87046428D01*
X74571428Y-86903571D01*
X74714285Y-86832142D01*
X75071428Y-86832142D01*
X75214285Y-86760714D01*
X76571428Y-87403571D02*
X76571428Y-85903571D01*
X76571428Y-87332142D02*
X76428571Y-87403571D01*
X76142857Y-87403571D01*
X76000000Y-87332142D01*
X75928571Y-87260714D01*
X75857142Y-87117857D01*
X75857142Y-86689285D01*
X75928571Y-86546428D01*
X76000000Y-86475000D01*
X76142857Y-86403571D01*
X76428571Y-86403571D01*
X76571428Y-86475000D01*
X77857142Y-87332142D02*
X77714285Y-87403571D01*
X77428571Y-87403571D01*
X77285714Y-87332142D01*
X77214285Y-87189285D01*
X77214285Y-86617857D01*
X77285714Y-86475000D01*
X77428571Y-86403571D01*
X77714285Y-86403571D01*
X77857142Y-86475000D01*
X77928571Y-86617857D01*
X77928571Y-86760714D01*
X77214285Y-86903571D01*
X62964285Y-88596428D02*
X63035714Y-88525000D01*
X63178571Y-88453571D01*
X63535714Y-88453571D01*
X63678571Y-88525000D01*
X63750000Y-88596428D01*
X63821428Y-88739285D01*
X63821428Y-88882142D01*
X63750000Y-89096428D01*
X62892857Y-89953571D01*
X63821428Y-89953571D01*
X64750000Y-88453571D02*
X64892857Y-88453571D01*
X65035714Y-88525000D01*
X65107142Y-88596428D01*
X65178571Y-88739285D01*
X65250000Y-89025000D01*
X65250000Y-89382142D01*
X65178571Y-89667857D01*
X65107142Y-89810714D01*
X65035714Y-89882142D01*
X64892857Y-89953571D01*
X64750000Y-89953571D01*
X64607142Y-89882142D01*
X64535714Y-89810714D01*
X64464285Y-89667857D01*
X64392857Y-89382142D01*
X64392857Y-89025000D01*
X64464285Y-88739285D01*
X64535714Y-88596428D01*
X64607142Y-88525000D01*
X64750000Y-88453571D01*
X65821428Y-88596428D02*
X65892857Y-88525000D01*
X66035714Y-88453571D01*
X66392857Y-88453571D01*
X66535714Y-88525000D01*
X66607142Y-88596428D01*
X66678571Y-88739285D01*
X66678571Y-88882142D01*
X66607142Y-89096428D01*
X65750000Y-89953571D01*
X66678571Y-89953571D01*
X67607142Y-88453571D02*
X67750000Y-88453571D01*
X67892857Y-88525000D01*
X67964285Y-88596428D01*
X68035714Y-88739285D01*
X68107142Y-89025000D01*
X68107142Y-89382142D01*
X68035714Y-89667857D01*
X67964285Y-89810714D01*
X67892857Y-89882142D01*
X67750000Y-89953571D01*
X67607142Y-89953571D01*
X67464285Y-89882142D01*
X67392857Y-89810714D01*
X67321428Y-89667857D01*
X67250000Y-89382142D01*
X67250000Y-89025000D01*
X67321428Y-88739285D01*
X67392857Y-88596428D01*
X67464285Y-88525000D01*
X67607142Y-88453571D01*
X68750000Y-89382142D02*
X69892857Y-89382142D01*
X70892857Y-88453571D02*
X71035714Y-88453571D01*
X71178571Y-88525000D01*
X71250000Y-88596428D01*
X71321428Y-88739285D01*
X71392857Y-89025000D01*
X71392857Y-89382142D01*
X71321428Y-89667857D01*
X71250000Y-89810714D01*
X71178571Y-89882142D01*
X71035714Y-89953571D01*
X70892857Y-89953571D01*
X70750000Y-89882142D01*
X70678571Y-89810714D01*
X70607142Y-89667857D01*
X70535714Y-89382142D01*
X70535714Y-89025000D01*
X70607142Y-88739285D01*
X70678571Y-88596428D01*
X70750000Y-88525000D01*
X70892857Y-88453571D01*
X71964285Y-88596428D02*
X72035714Y-88525000D01*
X72178571Y-88453571D01*
X72535714Y-88453571D01*
X72678571Y-88525000D01*
X72750000Y-88596428D01*
X72821428Y-88739285D01*
X72821428Y-88882142D01*
X72750000Y-89096428D01*
X71892857Y-89953571D01*
X72821428Y-89953571D01*
X73464285Y-89382142D02*
X74607142Y-89382142D01*
X76107142Y-89953571D02*
X75250000Y-89953571D01*
X75678571Y-89953571D02*
X75678571Y-88453571D01*
X75535714Y-88667857D01*
X75392857Y-88810714D01*
X75250000Y-88882142D01*
X77392857Y-88953571D02*
X77392857Y-89953571D01*
X77035714Y-88382142D02*
X76678571Y-89453571D01*
X77607142Y-89453571D01*
X68214285Y-92503571D02*
X67714285Y-91789285D01*
X67357142Y-92503571D02*
X67357142Y-91003571D01*
X67928571Y-91003571D01*
X68071428Y-91075000D01*
X68142857Y-91146428D01*
X68214285Y-91289285D01*
X68214285Y-91503571D01*
X68142857Y-91646428D01*
X68071428Y-91717857D01*
X67928571Y-91789285D01*
X67357142Y-91789285D01*
X69428571Y-92432142D02*
X69285714Y-92503571D01*
X69000000Y-92503571D01*
X68857142Y-92432142D01*
X68785714Y-92289285D01*
X68785714Y-91717857D01*
X68857142Y-91575000D01*
X69000000Y-91503571D01*
X69285714Y-91503571D01*
X69428571Y-91575000D01*
X69500000Y-91717857D01*
X69500000Y-91860714D01*
X68785714Y-92003571D01*
X70000000Y-91503571D02*
X70357142Y-92503571D01*
X70714285Y-91503571D01*
X73214285Y-92503571D02*
X72357142Y-92503571D01*
X72785714Y-92503571D02*
X72785714Y-91003571D01*
X72642857Y-91217857D01*
X72500000Y-91360714D01*
X72357142Y-91432142D01*
D12*
X91900000Y-130500000D02*
G75*
G03X91900000Y-130500000I-6100000J0D01*
G01*
X92480000Y-126381000D02*
X92861000Y-126000000D01*
X92480000Y-125619000D02*
X92480000Y-126381000D01*
X92861000Y-126000000D02*
X92480000Y-125619000D01*
X96925000Y-129810000D02*
X96925000Y-135017000D01*
X93115000Y-129810000D02*
X93115000Y-135017000D01*
X93750000Y-127020000D02*
X93750000Y-129810000D01*
X95020000Y-127020000D02*
X95020000Y-129810000D01*
X96290000Y-127020000D02*
X96290000Y-129810000D01*
X92620000Y-129810000D02*
X97420000Y-129810000D01*
X97420000Y-129810000D02*
X97420000Y-135000000D01*
X97420000Y-135000000D02*
X92620000Y-135000000D01*
X92620000Y-135000000D02*
X92620000Y-129810000D01*
X90000000Y-118930000D02*
X90000000Y-117980000D01*
X90000000Y-113190000D02*
X90000000Y-114140000D01*
X90920000Y-117980000D02*
X90920000Y-114140000D01*
X89080000Y-117980000D02*
X90920000Y-117980000D01*
X89080000Y-114140000D02*
X89080000Y-117980000D01*
X90920000Y-114140000D02*
X89080000Y-114140000D01*
X87860000Y-123920000D02*
X87860000Y-122080000D01*
X87860000Y-122080000D02*
X84020000Y-122080000D01*
X84020000Y-122080000D02*
X84020000Y-123920000D01*
X84020000Y-123920000D02*
X87860000Y-123920000D01*
X88810000Y-123000000D02*
X87860000Y-123000000D01*
X83070000Y-123000000D02*
X84020000Y-123000000D01*
X113410000Y-66830000D02*
X113410000Y-61630000D01*
X108270000Y-66830000D02*
X113410000Y-66830000D01*
X105670000Y-61630000D02*
X113410000Y-61630000D01*
X108270000Y-66830000D02*
X108270000Y-64230000D01*
X108270000Y-64230000D02*
X105670000Y-64230000D01*
X105670000Y-64230000D02*
X105670000Y-61630000D01*
X107000000Y-66830000D02*
X105670000Y-66830000D01*
X105670000Y-66830000D02*
X105670000Y-65500000D01*
X108120000Y-71620000D02*
X103880000Y-71620000D01*
X108120000Y-68880000D02*
X103880000Y-68880000D01*
X108120000Y-71620000D02*
X108120000Y-70915000D01*
X108120000Y-69585000D02*
X108120000Y-68880000D01*
X103880000Y-71620000D02*
X103880000Y-70915000D01*
X103880000Y-69585000D02*
X103880000Y-68880000D01*
X104165000Y-79130000D02*
X104870000Y-79130000D01*
X102130000Y-79130000D02*
X102835000Y-79130000D01*
X104165000Y-83370000D02*
X104870000Y-83370000D01*
X102130000Y-83370000D02*
X102835000Y-83370000D01*
X104870000Y-83370000D02*
X104870000Y-79130000D01*
X102130000Y-83370000D02*
X102130000Y-79130000D01*
X83270000Y-97620000D02*
X79030000Y-97620000D01*
X83270000Y-94880000D02*
X79030000Y-94880000D01*
X83270000Y-97620000D02*
X83270000Y-96915000D01*
X83270000Y-95585000D02*
X83270000Y-94880000D01*
X79030000Y-97620000D02*
X79030000Y-96915000D01*
X79030000Y-95585000D02*
X79030000Y-94880000D01*
X95585000Y-120970000D02*
X94880000Y-120970000D01*
X97620000Y-120970000D02*
X96915000Y-120970000D01*
X95585000Y-116730000D02*
X94880000Y-116730000D01*
X97620000Y-116730000D02*
X96915000Y-116730000D01*
X94880000Y-116730000D02*
X94880000Y-120970000D01*
X97620000Y-116730000D02*
X97620000Y-120970000D01*
X116730000Y-102380000D02*
X120970000Y-102380000D01*
X116730000Y-105120000D02*
X120970000Y-105120000D01*
X116730000Y-102380000D02*
X116730000Y-103085000D01*
X116730000Y-104415000D02*
X116730000Y-105120000D01*
X120970000Y-102380000D02*
X120970000Y-103085000D01*
X120970000Y-104415000D02*
X120970000Y-105120000D01*
X135170000Y-112130000D02*
X135170000Y-115370000D01*
X130330000Y-112130000D02*
X130330000Y-115370000D01*
X130330000Y-115370000D02*
X135170000Y-115370000D01*
X130330000Y-112130000D02*
X135170000Y-112130000D01*
X123830000Y-112130000D02*
X128670000Y-112130000D01*
X123830000Y-115370000D02*
X128670000Y-115370000D01*
X123830000Y-112130000D02*
X123830000Y-115370000D01*
X128670000Y-112130000D02*
X128670000Y-115370000D01*
X106000000Y-103750000D02*
X106000000Y-105000000D01*
X106000000Y-105000000D02*
X105000000Y-106000000D01*
X105000000Y-106000000D02*
X95000000Y-106000000D01*
X95000000Y-106000000D02*
X94000000Y-105000000D01*
X94000000Y-105000000D02*
X94000000Y-103750000D01*
X94000000Y-101250000D02*
X94000000Y-98750000D01*
X94000000Y-96250000D02*
X94000000Y-95000000D01*
X94000000Y-95000000D02*
X95000000Y-94000000D01*
X95000000Y-94000000D02*
X105000000Y-94000000D01*
X105000000Y-94000000D02*
X106000000Y-95000000D01*
X106000000Y-95000000D02*
X106000000Y-96250000D01*
X106000000Y-98750000D02*
X106000000Y-101250000D01*
X103500000Y-100000000D02*
G75*
G03X103500000Y-100000000I-3500000J0D01*
G01*
X113620000Y-129390000D02*
X111780000Y-129390000D01*
X111780000Y-129390000D02*
X111780000Y-133230000D01*
X111780000Y-133230000D02*
X113620000Y-133230000D01*
X113620000Y-133230000D02*
X113620000Y-129390000D01*
X112700000Y-128440000D02*
X112700000Y-129390000D01*
X112700000Y-134180000D02*
X112700000Y-133230000D01*
X117780000Y-134180000D02*
X117780000Y-133230000D01*
X117780000Y-128440000D02*
X117780000Y-129390000D01*
X118700000Y-133230000D02*
X118700000Y-129390000D01*
X116860000Y-133230000D02*
X118700000Y-133230000D01*
X116860000Y-129390000D02*
X116860000Y-133230000D01*
X118700000Y-129390000D02*
X116860000Y-129390000D01*
X129390000Y-99080000D02*
X129390000Y-100920000D01*
X129390000Y-100920000D02*
X133230000Y-100920000D01*
X133230000Y-100920000D02*
X133230000Y-99080000D01*
X133230000Y-99080000D02*
X129390000Y-99080000D01*
X128440000Y-100000000D02*
X129390000Y-100000000D01*
X134180000Y-100000000D02*
X133230000Y-100000000D01*
X134180000Y-97460000D02*
X133230000Y-97460000D01*
X128440000Y-97460000D02*
X129390000Y-97460000D01*
X133230000Y-96540000D02*
X129390000Y-96540000D01*
X133230000Y-98380000D02*
X133230000Y-96540000D01*
X129390000Y-98380000D02*
X133230000Y-98380000D01*
X129390000Y-96540000D02*
X129390000Y-98380000D01*
X129390000Y-94000000D02*
X129390000Y-95840000D01*
X129390000Y-95840000D02*
X133230000Y-95840000D01*
X133230000Y-95840000D02*
X133230000Y-94000000D01*
X133230000Y-94000000D02*
X129390000Y-94000000D01*
X128440000Y-94920000D02*
X129390000Y-94920000D01*
X134180000Y-94920000D02*
X133230000Y-94920000D01*
X134180000Y-92380000D02*
X133230000Y-92380000D01*
X128440000Y-92380000D02*
X129390000Y-92380000D01*
X133230000Y-91460000D02*
X129390000Y-91460000D01*
X133230000Y-93300000D02*
X133230000Y-91460000D01*
X129390000Y-93300000D02*
X133230000Y-93300000D01*
X129390000Y-91460000D02*
X129390000Y-93300000D01*
X129390000Y-88920000D02*
X129390000Y-90760000D01*
X129390000Y-90760000D02*
X133230000Y-90760000D01*
X133230000Y-90760000D02*
X133230000Y-88920000D01*
X133230000Y-88920000D02*
X129390000Y-88920000D01*
X128440000Y-89840000D02*
X129390000Y-89840000D01*
X134180000Y-89840000D02*
X133230000Y-89840000D01*
X134180000Y-87300000D02*
X133230000Y-87300000D01*
X128440000Y-87300000D02*
X129390000Y-87300000D01*
X133230000Y-86380000D02*
X129390000Y-86380000D01*
X133230000Y-88220000D02*
X133230000Y-86380000D01*
X129390000Y-88220000D02*
X133230000Y-88220000D01*
X129390000Y-86380000D02*
X129390000Y-88220000D01*
X129390000Y-83840000D02*
X129390000Y-85680000D01*
X129390000Y-85680000D02*
X133230000Y-85680000D01*
X133230000Y-85680000D02*
X133230000Y-83840000D01*
X133230000Y-83840000D02*
X129390000Y-83840000D01*
X128440000Y-84760000D02*
X129390000Y-84760000D01*
X134180000Y-84760000D02*
X133230000Y-84760000D01*
X134180000Y-82220000D02*
X133230000Y-82220000D01*
X128440000Y-82220000D02*
X129390000Y-82220000D01*
X133230000Y-81300000D02*
X129390000Y-81300000D01*
X133230000Y-83140000D02*
X133230000Y-81300000D01*
X129390000Y-83140000D02*
X133230000Y-83140000D01*
X129390000Y-81300000D02*
X129390000Y-83140000D01*
X100920000Y-129390000D02*
X99080000Y-129390000D01*
X99080000Y-129390000D02*
X99080000Y-133230000D01*
X99080000Y-133230000D02*
X100920000Y-133230000D01*
X100920000Y-133230000D02*
X100920000Y-129390000D01*
X100000000Y-128440000D02*
X100000000Y-129390000D01*
X100000000Y-134180000D02*
X100000000Y-133230000D01*
X92380000Y-65820000D02*
X92380000Y-66770000D01*
X92380000Y-71560000D02*
X92380000Y-70610000D01*
X91460000Y-66770000D02*
X91460000Y-70610000D01*
X93300000Y-66770000D02*
X91460000Y-66770000D01*
X93300000Y-70610000D02*
X93300000Y-66770000D01*
X91460000Y-70610000D02*
X93300000Y-70610000D01*
X96540000Y-70610000D02*
X98380000Y-70610000D01*
X98380000Y-70610000D02*
X98380000Y-66770000D01*
X98380000Y-66770000D02*
X96540000Y-66770000D01*
X96540000Y-66770000D02*
X96540000Y-70610000D01*
X97460000Y-71560000D02*
X97460000Y-70610000D01*
X97460000Y-65820000D02*
X97460000Y-66770000D01*
X100000000Y-65820000D02*
X100000000Y-66770000D01*
X100000000Y-71560000D02*
X100000000Y-70610000D01*
X99080000Y-66770000D02*
X99080000Y-70610000D01*
X100920000Y-66770000D02*
X99080000Y-66770000D01*
X100920000Y-70610000D02*
X100920000Y-66770000D01*
X99080000Y-70610000D02*
X100920000Y-70610000D01*
X94000000Y-70610000D02*
X95840000Y-70610000D01*
X95840000Y-70610000D02*
X95840000Y-66770000D01*
X95840000Y-66770000D02*
X94000000Y-66770000D01*
X94000000Y-66770000D02*
X94000000Y-70610000D01*
X94920000Y-71560000D02*
X94920000Y-70610000D01*
X94920000Y-65820000D02*
X94920000Y-66770000D01*
X115240000Y-134180000D02*
X115240000Y-133230000D01*
X115240000Y-128440000D02*
X115240000Y-129390000D01*
X116160000Y-133230000D02*
X116160000Y-129390000D01*
X114320000Y-133230000D02*
X116160000Y-133230000D01*
X114320000Y-129390000D02*
X114320000Y-133230000D01*
X116160000Y-129390000D02*
X114320000Y-129390000D01*
X108140000Y-86580000D02*
X108140000Y-88420000D01*
X108140000Y-88420000D02*
X111980000Y-88420000D01*
X111980000Y-88420000D02*
X111980000Y-86580000D01*
X111980000Y-86580000D02*
X108140000Y-86580000D01*
X107190000Y-87500000D02*
X108140000Y-87500000D01*
X112930000Y-87500000D02*
X111980000Y-87500000D01*
X84760000Y-65820000D02*
X84760000Y-66770000D01*
X84760000Y-71560000D02*
X84760000Y-70610000D01*
X83840000Y-66770000D02*
X83840000Y-70610000D01*
X85680000Y-66770000D02*
X83840000Y-66770000D01*
X85680000Y-70610000D02*
X85680000Y-66770000D01*
X83840000Y-70610000D02*
X85680000Y-70610000D01*
X81300000Y-70610000D02*
X83140000Y-70610000D01*
X83140000Y-70610000D02*
X83140000Y-66770000D01*
X83140000Y-66770000D02*
X81300000Y-66770000D01*
X81300000Y-66770000D02*
X81300000Y-70610000D01*
X82220000Y-71560000D02*
X82220000Y-70610000D01*
X82220000Y-65820000D02*
X82220000Y-66770000D01*
X65820000Y-100000000D02*
X66770000Y-100000000D01*
X71560000Y-100000000D02*
X70610000Y-100000000D01*
X66770000Y-100920000D02*
X70610000Y-100920000D01*
X66770000Y-99080000D02*
X66770000Y-100920000D01*
X70610000Y-99080000D02*
X66770000Y-99080000D01*
X70610000Y-100920000D02*
X70610000Y-99080000D01*
X70610000Y-103460000D02*
X70610000Y-101620000D01*
X70610000Y-101620000D02*
X66770000Y-101620000D01*
X66770000Y-101620000D02*
X66770000Y-103460000D01*
X66770000Y-103460000D02*
X70610000Y-103460000D01*
X71560000Y-102540000D02*
X70610000Y-102540000D01*
X65820000Y-102540000D02*
X66770000Y-102540000D01*
X65820000Y-105080000D02*
X66770000Y-105080000D01*
X71560000Y-105080000D02*
X70610000Y-105080000D01*
X66770000Y-106000000D02*
X70610000Y-106000000D01*
X66770000Y-104160000D02*
X66770000Y-106000000D01*
X70610000Y-104160000D02*
X66770000Y-104160000D01*
X70610000Y-106000000D02*
X70610000Y-104160000D01*
X70610000Y-108540000D02*
X70610000Y-106700000D01*
X70610000Y-106700000D02*
X66770000Y-106700000D01*
X66770000Y-106700000D02*
X66770000Y-108540000D01*
X66770000Y-108540000D02*
X70610000Y-108540000D01*
X71560000Y-107620000D02*
X70610000Y-107620000D01*
X65820000Y-107620000D02*
X66770000Y-107620000D01*
X65820000Y-110160000D02*
X66770000Y-110160000D01*
X71560000Y-110160000D02*
X70610000Y-110160000D01*
X66770000Y-111080000D02*
X70610000Y-111080000D01*
X66770000Y-109240000D02*
X66770000Y-111080000D01*
X70610000Y-109240000D02*
X66770000Y-109240000D01*
X70610000Y-111080000D02*
X70610000Y-109240000D01*
X70610000Y-113620000D02*
X70610000Y-111780000D01*
X70610000Y-111780000D02*
X66770000Y-111780000D01*
X66770000Y-111780000D02*
X66770000Y-113620000D01*
X66770000Y-113620000D02*
X70610000Y-113620000D01*
X71560000Y-112700000D02*
X70610000Y-112700000D01*
X65820000Y-112700000D02*
X66770000Y-112700000D01*
X65820000Y-115240000D02*
X66770000Y-115240000D01*
X71560000Y-115240000D02*
X70610000Y-115240000D01*
X66770000Y-116160000D02*
X70610000Y-116160000D01*
X66770000Y-114320000D02*
X66770000Y-116160000D01*
X70610000Y-114320000D02*
X66770000Y-114320000D01*
X70610000Y-116160000D02*
X70610000Y-114320000D01*
X70610000Y-118700000D02*
X70610000Y-116860000D01*
X70610000Y-116860000D02*
X66770000Y-116860000D01*
X66770000Y-116860000D02*
X66770000Y-118700000D01*
X66770000Y-118700000D02*
X70610000Y-118700000D01*
X71560000Y-117780000D02*
X70610000Y-117780000D01*
X65820000Y-117780000D02*
X66770000Y-117780000D01*
X87300000Y-65820000D02*
X87300000Y-66770000D01*
X87300000Y-71560000D02*
X87300000Y-70610000D01*
X86380000Y-66770000D02*
X86380000Y-70610000D01*
X88220000Y-66770000D02*
X86380000Y-66770000D01*
X88220000Y-70610000D02*
X88220000Y-66770000D01*
X86380000Y-70610000D02*
X88220000Y-70610000D01*
X103460000Y-129390000D02*
X101620000Y-129390000D01*
X101620000Y-129390000D02*
X101620000Y-133230000D01*
X101620000Y-133230000D02*
X103460000Y-133230000D01*
X103460000Y-133230000D02*
X103460000Y-129390000D01*
X102540000Y-128440000D02*
X102540000Y-129390000D01*
X102540000Y-134180000D02*
X102540000Y-133230000D01*
X107620000Y-134180000D02*
X107620000Y-133230000D01*
X107620000Y-128440000D02*
X107620000Y-129390000D01*
X108540000Y-133230000D02*
X108540000Y-129390000D01*
X106700000Y-133230000D02*
X108540000Y-133230000D01*
X106700000Y-129390000D02*
X106700000Y-133230000D01*
X108540000Y-129390000D02*
X106700000Y-129390000D01*
X88920000Y-70610000D02*
X90760000Y-70610000D01*
X90760000Y-70610000D02*
X90760000Y-66770000D01*
X90760000Y-66770000D02*
X88920000Y-66770000D01*
X88920000Y-66770000D02*
X88920000Y-70610000D01*
X89840000Y-71560000D02*
X89840000Y-70610000D01*
X89840000Y-65820000D02*
X89840000Y-66770000D01*
X105080000Y-134180000D02*
X105080000Y-133230000D01*
X105080000Y-128440000D02*
X105080000Y-129390000D01*
X106000000Y-133230000D02*
X106000000Y-129390000D01*
X104160000Y-133230000D02*
X106000000Y-133230000D01*
X104160000Y-129390000D02*
X104160000Y-133230000D01*
X106000000Y-129390000D02*
X104160000Y-129390000D01*
X111080000Y-129390000D02*
X109240000Y-129390000D01*
X109240000Y-129390000D02*
X109240000Y-133230000D01*
X109240000Y-133230000D02*
X111080000Y-133230000D01*
X111080000Y-133230000D02*
X111080000Y-129390000D01*
X110160000Y-128440000D02*
X110160000Y-129390000D01*
X110160000Y-134180000D02*
X110160000Y-133230000D01*
X112000000Y-108870000D02*
X117190000Y-108870000D01*
X112000000Y-113670000D02*
X112000000Y-108870000D01*
X117190000Y-113670000D02*
X112000000Y-113670000D01*
X117190000Y-108870000D02*
X117190000Y-113670000D01*
X119980000Y-112540000D02*
X117190000Y-112540000D01*
X119980000Y-111270000D02*
X117190000Y-111270000D01*
X119980000Y-110000000D02*
X117190000Y-110000000D01*
X117190000Y-109365000D02*
X111983000Y-109365000D01*
X117190000Y-113175000D02*
X111983000Y-113175000D01*
X121000000Y-109111000D02*
X121381000Y-108730000D01*
X121381000Y-108730000D02*
X120619000Y-108730000D01*
X120619000Y-108730000D02*
X121000000Y-109111000D01*
X109670000Y-71540000D02*
X109670000Y-73190000D01*
X119950000Y-71540000D02*
X109670000Y-71540000D01*
X119950000Y-76840000D02*
X119950000Y-71540000D01*
X109670000Y-76840000D02*
X119950000Y-76840000D01*
X109670000Y-75190000D02*
X109670000Y-76840000D01*
X109670000Y-73190000D02*
G75*
G02X109670000Y-75190000I0J-1000000D01*
G01*
X101545000Y-143710000D02*
X98455000Y-143710000D01*
X102500000Y-146270000D02*
G75*
G03X102500000Y-146270000I-2500000J0D01*
G01*
X100000462Y-149260000D02*
G75*
G02X98455170Y-143710000I-462J2990000D01*
G01*
X99999538Y-149260000D02*
G75*
G03X101544830Y-143710000I462J2990000D01*
G01*
X127367773Y-59042064D02*
G75*
G03X122999495Y-62798201I-1661539J-2485837D01*
G01*
X127367004Y-59041551D02*
G75*
G02X125568454Y-64514724I-1660770J-2486350D01*
G01*
X128206234Y-61527901D02*
G75*
G03X128206234Y-61527901I-2500000J0D01*
G01*
X122999354Y-62798107D02*
X125568595Y-64514819D01*
X129815157Y-67999882D02*
X132000117Y-70184842D01*
X135217831Y-67282168D02*
G75*
G03X135217831Y-67282168I-2500000J0D01*
G01*
X134831755Y-65167592D02*
G75*
G02X131999997Y-70184722I-2113924J-2114576D01*
G01*
X134832407Y-65168244D02*
G75*
G03X129815277Y-68000002I-2114576J-2113924D01*
G01*
X140958448Y-72632995D02*
G75*
G03X135485275Y-74431545I-2486350J-1660770D01*
G01*
X140957935Y-72632226D02*
G75*
G02X137201798Y-77000504I-2485837J-1661539D01*
G01*
X140972098Y-74293765D02*
G75*
G03X140972098Y-74293765I-2500000J0D01*
G01*
X135485180Y-74431404D02*
X137201892Y-77000645D01*
X139791528Y-81845513D02*
X140974019Y-84700301D01*
X145247905Y-82293237D02*
G75*
G03X145247905Y-82293237I-2500000J0D01*
G01*
X145510128Y-81148587D02*
G75*
G02X140973954Y-84700143I-2762223J-1144650D01*
G01*
X145510480Y-81149440D02*
G75*
G03X139791593Y-81845670I-2762575J-1143797D01*
G01*
X148313571Y-90390303D02*
G75*
G03X142568743Y-89957455I-2932637J-582867D01*
G01*
X148313392Y-90389397D02*
G75*
G02X143171505Y-92987748I-2932458J-583773D01*
G01*
X147880935Y-90973170D02*
G75*
G03X147880935Y-90973170I-2500001J0D01*
G01*
X142568709Y-89957288D02*
X143171539Y-92987915D01*
X143710000Y-98455000D02*
X143710000Y-101545000D01*
X148770000Y-100000000D02*
G75*
G03X148770000Y-100000000I-2500000J0D01*
G01*
X149260000Y-99999538D02*
G75*
G02X143710000Y-101544830I-2990000J-462D01*
G01*
X149260000Y-100000462D02*
G75*
G03X143710000Y-98455170I-2990000J462D01*
G01*
X148313392Y-109610602D02*
G75*
G03X143171505Y-107012251I-2932458J583773D01*
G01*
X148313571Y-109609696D02*
G75*
G02X142568743Y-110042544I-2932637J582867D01*
G01*
X147880935Y-109026829D02*
G75*
G03X147880935Y-109026829I-2500001J0D01*
G01*
X143171539Y-107012084D02*
X142568709Y-110042711D01*
X140974019Y-115299698D02*
X139791528Y-118154486D01*
X145247905Y-117706762D02*
G75*
G03X145247905Y-117706762I-2500000J0D01*
G01*
X145510480Y-118850559D02*
G75*
G02X139791593Y-118154329I-2762575J1143797D01*
G01*
X145510128Y-118851412D02*
G75*
G03X140973954Y-115299856I-2762223J1144650D01*
G01*
X140957935Y-127367773D02*
G75*
G03X137201798Y-122999495I-2485837J1661539D01*
G01*
X140958448Y-127367004D02*
G75*
G02X135485275Y-125568454I-2486350J1660770D01*
G01*
X140972098Y-125706234D02*
G75*
G03X140972098Y-125706234I-2500000J0D01*
G01*
X137201892Y-122999354D02*
X135485180Y-125568595D01*
X132000117Y-129815157D02*
X129815157Y-132000117D01*
X135217831Y-132717831D02*
G75*
G03X135217831Y-132717831I-2500000J0D01*
G01*
X134832407Y-134831755D02*
G75*
G02X129815277Y-131999997I-2114576J2113924D01*
G01*
X134831755Y-134832407D02*
G75*
G03X131999997Y-129815277I-2113924J2114576D01*
G01*
X127367004Y-140958448D02*
G75*
G03X125568454Y-135485275I-1660770J2486350D01*
G01*
X127367773Y-140957935D02*
G75*
G02X122999495Y-137201798I-1661539J2485837D01*
G01*
X128206234Y-138472098D02*
G75*
G03X128206234Y-138472098I-2500000J0D01*
G01*
X125568595Y-135485180D02*
X122999354Y-137201892D01*
X118154486Y-139791528D02*
X115299698Y-140974019D01*
X120206762Y-142747905D02*
G75*
G03X120206762Y-142747905I-2500000J0D01*
G01*
X118851412Y-145510128D02*
G75*
G02X115299856Y-140973954I-1144650J2762223D01*
G01*
X118850559Y-145510480D02*
G75*
G03X118154329Y-139791593I-1143797J2762575D01*
G01*
X109609696Y-148313571D02*
G75*
G03X110042544Y-142568743I-582867J2932637D01*
G01*
X109610602Y-148313392D02*
G75*
G02X107012251Y-143171505I-583773J2932458D01*
G01*
X111526830Y-145380934D02*
G75*
G03X111526830Y-145380934I-2500001J0D01*
G01*
X110042711Y-142568709D02*
X107012084Y-143171539D01*
X92987915Y-143171539D02*
X89957288Y-142568709D01*
X93473171Y-145380934D02*
G75*
G03X93473171Y-145380934I-2500001J0D01*
G01*
X90390303Y-148313571D02*
G75*
G02X89957455Y-142568743I582867J2932637D01*
G01*
X90389397Y-148313392D02*
G75*
G03X92987748Y-143171505I583773J2932458D01*
G01*
X109610602Y-51686607D02*
G75*
G03X107012251Y-56828494I-583773J-2932458D01*
G01*
X109609696Y-51686428D02*
G75*
G02X110042544Y-57431256I-582867J-2932637D01*
G01*
X111526830Y-54619065D02*
G75*
G03X111526830Y-54619065I-2500001J0D01*
G01*
X107012084Y-56828460D02*
X110042711Y-57431290D01*
X77000645Y-137201892D02*
X74431404Y-135485180D01*
X76793765Y-138472098D02*
G75*
G03X76793765Y-138472098I-2500000J0D01*
G01*
X72632995Y-140958448D02*
G75*
G02X74431545Y-135485275I1660770J2486350D01*
G01*
X72632226Y-140957935D02*
G75*
G03X77000504Y-137201798I1661539J2485837D01*
G01*
X118851412Y-54489871D02*
G75*
G03X115299856Y-59026045I-1144650J-2762223D01*
G01*
X118850559Y-54489519D02*
G75*
G02X118154329Y-60208406I-1143797J-2762575D01*
G01*
X120206762Y-57252094D02*
G75*
G03X120206762Y-57252094I-2500000J0D01*
G01*
X115299698Y-59025980D02*
X118154486Y-60208471D01*
X98455000Y-56290000D02*
X101545000Y-56290000D01*
X102500000Y-53730000D02*
G75*
G03X102500000Y-53730000I-2500000J0D01*
G01*
X99999538Y-50740000D02*
G75*
G02X101544830Y-56290000I462J-2990000D01*
G01*
X100000462Y-50740000D02*
G75*
G03X98455170Y-56290000I-462J-2990000D01*
G01*
X90390303Y-51686428D02*
G75*
G03X89957455Y-57431256I582867J-2932637D01*
G01*
X90389397Y-51686607D02*
G75*
G02X92987748Y-56828494I583773J-2932458D01*
G01*
X93473171Y-54619065D02*
G75*
G03X93473171Y-54619065I-2500001J0D01*
G01*
X89957288Y-57431290D02*
X92987915Y-56828460D01*
X81845513Y-60208471D02*
X84700301Y-59025980D01*
X84793237Y-57252094D02*
G75*
G03X84793237Y-57252094I-2500000J0D01*
G01*
X81148587Y-54489871D02*
G75*
G02X84700143Y-59026045I1144650J-2762223D01*
G01*
X81149440Y-54489519D02*
G75*
G03X81845670Y-60208406I1143797J-2762575D01*
G01*
X72632995Y-59041551D02*
G75*
G03X74431545Y-64514724I1660770J-2486350D01*
G01*
X72632226Y-59042064D02*
G75*
G02X77000504Y-62798201I1661539J-2485837D01*
G01*
X76793765Y-61527901D02*
G75*
G03X76793765Y-61527901I-2500000J0D01*
G01*
X74431404Y-64514819D02*
X77000645Y-62798107D01*
X67999882Y-70184842D02*
X70184842Y-67999882D01*
X69782168Y-67282168D02*
G75*
G03X69782168Y-67282168I-2500000J0D01*
G01*
X65167592Y-65168244D02*
G75*
G02X70184722Y-68000002I2114576J-2113924D01*
G01*
X65168244Y-65167592D02*
G75*
G03X68000002Y-70184722I2113924J-2114576D01*
G01*
X59042064Y-72632226D02*
G75*
G03X62798201Y-77000504I2485837J-1661539D01*
G01*
X59041551Y-72632995D02*
G75*
G02X64514724Y-74431545I2486350J-1660770D01*
G01*
X64027901Y-74293765D02*
G75*
G03X64027901Y-74293765I-2500000J0D01*
G01*
X62798107Y-77000645D02*
X64514819Y-74431404D01*
X59025980Y-84700301D02*
X60208471Y-81845513D01*
X59752094Y-82293237D02*
G75*
G03X59752094Y-82293237I-2500000J0D01*
G01*
X54489519Y-81149440D02*
G75*
G02X60208406Y-81845670I2762575J-1143797D01*
G01*
X54489871Y-81148587D02*
G75*
G03X59026045Y-84700143I2762223J-1144650D01*
G01*
X51686607Y-90389397D02*
G75*
G03X56828494Y-92987748I2932458J-583773D01*
G01*
X51686428Y-90390303D02*
G75*
G02X57431256Y-89957455I2932637J-582867D01*
G01*
X57119066Y-90973170D02*
G75*
G03X57119066Y-90973170I-2500001J0D01*
G01*
X56828460Y-92987915D02*
X57431290Y-89957288D01*
X56290000Y-101545000D02*
X56290000Y-98455000D01*
X56230000Y-100000000D02*
G75*
G03X56230000Y-100000000I-2500000J0D01*
G01*
X50740000Y-100000462D02*
G75*
G02X56290000Y-98455170I2990000J462D01*
G01*
X50740000Y-99999538D02*
G75*
G03X56290000Y-101544830I2990000J-462D01*
G01*
X51686428Y-109609696D02*
G75*
G03X57431256Y-110042544I2932637J582867D01*
G01*
X51686607Y-109610602D02*
G75*
G02X56828494Y-107012251I2932458J583773D01*
G01*
X57119066Y-109026829D02*
G75*
G03X57119066Y-109026829I-2500001J0D01*
G01*
X57431290Y-110042711D02*
X56828460Y-107012084D01*
X60208471Y-118154486D02*
X59025980Y-115299698D01*
X59752094Y-117706762D02*
G75*
G03X59752094Y-117706762I-2500000J0D01*
G01*
X54489871Y-118851412D02*
G75*
G02X59026045Y-115299856I2762223J1144650D01*
G01*
X54489519Y-118850559D02*
G75*
G03X60208406Y-118154329I2762575J1143797D01*
G01*
X59041551Y-127367004D02*
G75*
G03X64514724Y-125568454I2486350J1660770D01*
G01*
X59042064Y-127367773D02*
G75*
G02X62798201Y-122999495I2485837J1661539D01*
G01*
X64027901Y-125706234D02*
G75*
G03X64027901Y-125706234I-2500000J0D01*
G01*
X64514819Y-125568595D02*
X62798107Y-122999354D01*
X70184842Y-132000117D02*
X67999882Y-129815157D01*
X69782168Y-132717831D02*
G75*
G03X69782168Y-132717831I-2500000J0D01*
G01*
X65168244Y-134832407D02*
G75*
G02X68000002Y-129815277I2113924J2114576D01*
G01*
X65167592Y-134831755D02*
G75*
G03X70184722Y-131999997I2114576J2113924D01*
G01*
X81148587Y-145510128D02*
G75*
G03X84700143Y-140973954I1144650J2762223D01*
G01*
X81149440Y-145510480D02*
G75*
G02X81845670Y-139791593I1143797J2762575D01*
G01*
X84793237Y-142747905D02*
G75*
G03X84793237Y-142747905I-2500000J0D01*
G01*
X84700301Y-140974019D02*
X81845513Y-139791528D01*
X81460000Y-98670000D02*
X79810000Y-98670000D01*
X81460000Y-119110000D02*
X81460000Y-98670000D01*
X76160000Y-119110000D02*
X81460000Y-119110000D01*
X76160000Y-98670000D02*
X76160000Y-119110000D01*
X77810000Y-98670000D02*
X76160000Y-98670000D01*
X79810000Y-98670000D02*
G75*
G02X77810000Y-98670000I-1000000J0D01*
G01*
X98670000Y-120190000D02*
G75*
G02X98670000Y-122190000I0J-1000000D01*
G01*
X98670000Y-122190000D02*
X98670000Y-123840000D01*
X98670000Y-123840000D02*
X119110000Y-123840000D01*
X119110000Y-123840000D02*
X119110000Y-118540000D01*
X119110000Y-118540000D02*
X98670000Y-118540000D01*
X98670000Y-118540000D02*
X98670000Y-120190000D01*
X118540000Y-101330000D02*
X120190000Y-101330000D01*
X118540000Y-80890000D02*
X118540000Y-101330000D01*
X123840000Y-80890000D02*
X118540000Y-80890000D01*
X123840000Y-101330000D02*
X123840000Y-80890000D01*
X122190000Y-101330000D02*
X123840000Y-101330000D01*
X120190000Y-101330000D02*
G75*
G02X122190000Y-101330000I1000000J0D01*
G01*
X101330000Y-79810000D02*
G75*
G02X101330000Y-77810000I0J1000000D01*
G01*
X101330000Y-77810000D02*
X101330000Y-76160000D01*
X101330000Y-76160000D02*
X80890000Y-76160000D01*
X80890000Y-76160000D02*
X80890000Y-81460000D01*
X80890000Y-81460000D02*
X101330000Y-81460000D01*
X101330000Y-81460000D02*
X101330000Y-79810000D01*
D13*
X81609047Y-128031428D02*
X82370952Y-128031428D01*
X81990000Y-128412380D02*
X81990000Y-127650476D01*
X92285714Y-135547619D02*
X92333333Y-135500000D01*
X92428571Y-135452380D01*
X92666666Y-135452380D01*
X92761904Y-135500000D01*
X92809523Y-135547619D01*
X92857142Y-135642857D01*
X92857142Y-135738095D01*
X92809523Y-135880952D01*
X92238095Y-136452380D01*
X92857142Y-136452380D01*
X93285714Y-136452380D02*
X93285714Y-135452380D01*
X93857142Y-136452380D01*
X93857142Y-135452380D01*
X94238095Y-135452380D02*
X94904761Y-135452380D01*
X94476190Y-136452380D01*
X95476190Y-135452380D02*
X95571428Y-135452380D01*
X95666666Y-135500000D01*
X95714285Y-135547619D01*
X95761904Y-135642857D01*
X95809523Y-135833333D01*
X95809523Y-136071428D01*
X95761904Y-136261904D01*
X95714285Y-136357142D01*
X95666666Y-136404761D01*
X95571428Y-136452380D01*
X95476190Y-136452380D01*
X95380952Y-136404761D01*
X95333333Y-136357142D01*
X95285714Y-136261904D01*
X95238095Y-136071428D01*
X95238095Y-135833333D01*
X95285714Y-135642857D01*
X95333333Y-135547619D01*
X95380952Y-135500000D01*
X95476190Y-135452380D01*
X96428571Y-135452380D02*
X96523809Y-135452380D01*
X96619047Y-135500000D01*
X96666666Y-135547619D01*
X96714285Y-135642857D01*
X96761904Y-135833333D01*
X96761904Y-136071428D01*
X96714285Y-136261904D01*
X96666666Y-136357142D01*
X96619047Y-136404761D01*
X96523809Y-136452380D01*
X96428571Y-136452380D01*
X96333333Y-136404761D01*
X96285714Y-136357142D01*
X96238095Y-136261904D01*
X96190476Y-136071428D01*
X96190476Y-135833333D01*
X96238095Y-135642857D01*
X96285714Y-135547619D01*
X96333333Y-135500000D01*
X96428571Y-135452380D01*
X97380952Y-135452380D02*
X97476190Y-135452380D01*
X97571428Y-135500000D01*
X97619047Y-135547619D01*
X97666666Y-135642857D01*
X97714285Y-135833333D01*
X97714285Y-136071428D01*
X97666666Y-136261904D01*
X97619047Y-136357142D01*
X97571428Y-136404761D01*
X97476190Y-136452380D01*
X97380952Y-136452380D01*
X97285714Y-136404761D01*
X97238095Y-136357142D01*
X97190476Y-136261904D01*
X97142857Y-136071428D01*
X97142857Y-135833333D01*
X97190476Y-135642857D01*
X97238095Y-135547619D01*
X97285714Y-135500000D01*
X97380952Y-135452380D01*
X88532380Y-116655238D02*
X88532380Y-117226666D01*
X88532380Y-116940952D02*
X87532380Y-116940952D01*
X87675238Y-117036190D01*
X87770476Y-117131428D01*
X87818095Y-117226666D01*
X87532380Y-116036190D02*
X87532380Y-115940952D01*
X87580000Y-115845714D01*
X87627619Y-115798095D01*
X87722857Y-115750476D01*
X87913333Y-115702857D01*
X88151428Y-115702857D01*
X88341904Y-115750476D01*
X88437142Y-115798095D01*
X88484761Y-115845714D01*
X88532380Y-115940952D01*
X88532380Y-116036190D01*
X88484761Y-116131428D01*
X88437142Y-116179047D01*
X88341904Y-116226666D01*
X88151428Y-116274285D01*
X87913333Y-116274285D01*
X87722857Y-116226666D01*
X87627619Y-116179047D01*
X87580000Y-116131428D01*
X87532380Y-116036190D01*
X88532380Y-115274285D02*
X87532380Y-115274285D01*
X88151428Y-115179047D02*
X88532380Y-114893333D01*
X87865714Y-114893333D02*
X88246666Y-115274285D01*
X85344761Y-121532380D02*
X84773333Y-121532380D01*
X85059047Y-121532380D02*
X85059047Y-120532380D01*
X84963809Y-120675238D01*
X84868571Y-120770476D01*
X84773333Y-120818095D01*
X85963809Y-120532380D02*
X86059047Y-120532380D01*
X86154285Y-120580000D01*
X86201904Y-120627619D01*
X86249523Y-120722857D01*
X86297142Y-120913333D01*
X86297142Y-121151428D01*
X86249523Y-121341904D01*
X86201904Y-121437142D01*
X86154285Y-121484761D01*
X86059047Y-121532380D01*
X85963809Y-121532380D01*
X85868571Y-121484761D01*
X85820952Y-121437142D01*
X85773333Y-121341904D01*
X85725714Y-121151428D01*
X85725714Y-120913333D01*
X85773333Y-120722857D01*
X85820952Y-120627619D01*
X85868571Y-120580000D01*
X85963809Y-120532380D01*
X86725714Y-121532380D02*
X86725714Y-120532380D01*
X86820952Y-121151428D02*
X87106666Y-121532380D01*
X87106666Y-120865714D02*
X86725714Y-121246666D01*
X107714285Y-60952380D02*
X107714285Y-59952380D01*
X108095238Y-59952380D01*
X108190476Y-60000000D01*
X108238095Y-60047619D01*
X108285714Y-60142857D01*
X108285714Y-60285714D01*
X108238095Y-60380952D01*
X108190476Y-60428571D01*
X108095238Y-60476190D01*
X107714285Y-60476190D01*
X109285714Y-60952380D02*
X108952380Y-60476190D01*
X108714285Y-60952380D02*
X108714285Y-59952380D01*
X109095238Y-59952380D01*
X109190476Y-60000000D01*
X109238095Y-60047619D01*
X109285714Y-60142857D01*
X109285714Y-60285714D01*
X109238095Y-60380952D01*
X109190476Y-60428571D01*
X109095238Y-60476190D01*
X108714285Y-60476190D01*
X109904761Y-59952380D02*
X110095238Y-59952380D01*
X110190476Y-60000000D01*
X110285714Y-60095238D01*
X110333333Y-60285714D01*
X110333333Y-60619047D01*
X110285714Y-60809523D01*
X110190476Y-60904761D01*
X110095238Y-60952380D01*
X109904761Y-60952380D01*
X109809523Y-60904761D01*
X109714285Y-60809523D01*
X109666666Y-60619047D01*
X109666666Y-60285714D01*
X109714285Y-60095238D01*
X109809523Y-60000000D01*
X109904761Y-59952380D01*
X111285714Y-60000000D02*
X111190476Y-59952380D01*
X111047619Y-59952380D01*
X110904761Y-60000000D01*
X110809523Y-60095238D01*
X110761904Y-60190476D01*
X110714285Y-60380952D01*
X110714285Y-60523809D01*
X110761904Y-60714285D01*
X110809523Y-60809523D01*
X110904761Y-60904761D01*
X111047619Y-60952380D01*
X111142857Y-60952380D01*
X111285714Y-60904761D01*
X111333333Y-60857142D01*
X111333333Y-60523809D01*
X111142857Y-60523809D01*
X104630952Y-72952380D02*
X104059523Y-72952380D01*
X104345238Y-72952380D02*
X104345238Y-71952380D01*
X104250000Y-72095238D01*
X104154761Y-72190476D01*
X104059523Y-72238095D01*
X105250000Y-71952380D02*
X105345238Y-71952380D01*
X105440476Y-72000000D01*
X105488095Y-72047619D01*
X105535714Y-72142857D01*
X105583333Y-72333333D01*
X105583333Y-72571428D01*
X105535714Y-72761904D01*
X105488095Y-72857142D01*
X105440476Y-72904761D01*
X105345238Y-72952380D01*
X105250000Y-72952380D01*
X105154761Y-72904761D01*
X105107142Y-72857142D01*
X105059523Y-72761904D01*
X105011904Y-72571428D01*
X105011904Y-72333333D01*
X105059523Y-72142857D01*
X105107142Y-72047619D01*
X105154761Y-72000000D01*
X105250000Y-71952380D01*
X106202380Y-71952380D02*
X106297619Y-71952380D01*
X106392857Y-72000000D01*
X106440476Y-72047619D01*
X106488095Y-72142857D01*
X106535714Y-72333333D01*
X106535714Y-72571428D01*
X106488095Y-72761904D01*
X106440476Y-72857142D01*
X106392857Y-72904761D01*
X106297619Y-72952380D01*
X106202380Y-72952380D01*
X106107142Y-72904761D01*
X106059523Y-72857142D01*
X106011904Y-72761904D01*
X105964285Y-72571428D01*
X105964285Y-72333333D01*
X106011904Y-72142857D01*
X106059523Y-72047619D01*
X106107142Y-72000000D01*
X106202380Y-71952380D01*
X106964285Y-72285714D02*
X106964285Y-72952380D01*
X106964285Y-72380952D02*
X107011904Y-72333333D01*
X107107142Y-72285714D01*
X107250000Y-72285714D01*
X107345238Y-72333333D01*
X107392857Y-72428571D01*
X107392857Y-72952380D01*
X106452380Y-82369047D02*
X106452380Y-82940476D01*
X106452380Y-82654761D02*
X105452380Y-82654761D01*
X105595238Y-82750000D01*
X105690476Y-82845238D01*
X105738095Y-82940476D01*
X105452380Y-81750000D02*
X105452380Y-81654761D01*
X105500000Y-81559523D01*
X105547619Y-81511904D01*
X105642857Y-81464285D01*
X105833333Y-81416666D01*
X106071428Y-81416666D01*
X106261904Y-81464285D01*
X106357142Y-81511904D01*
X106404761Y-81559523D01*
X106452380Y-81654761D01*
X106452380Y-81750000D01*
X106404761Y-81845238D01*
X106357142Y-81892857D01*
X106261904Y-81940476D01*
X106071428Y-81988095D01*
X105833333Y-81988095D01*
X105642857Y-81940476D01*
X105547619Y-81892857D01*
X105500000Y-81845238D01*
X105452380Y-81750000D01*
X105452380Y-80797619D02*
X105452380Y-80702380D01*
X105500000Y-80607142D01*
X105547619Y-80559523D01*
X105642857Y-80511904D01*
X105833333Y-80464285D01*
X106071428Y-80464285D01*
X106261904Y-80511904D01*
X106357142Y-80559523D01*
X106404761Y-80607142D01*
X106452380Y-80702380D01*
X106452380Y-80797619D01*
X106404761Y-80892857D01*
X106357142Y-80940476D01*
X106261904Y-80988095D01*
X106071428Y-81035714D01*
X105833333Y-81035714D01*
X105642857Y-80988095D01*
X105547619Y-80940476D01*
X105500000Y-80892857D01*
X105452380Y-80797619D01*
X105785714Y-80035714D02*
X106452380Y-80035714D01*
X105880952Y-80035714D02*
X105833333Y-79988095D01*
X105785714Y-79892857D01*
X105785714Y-79750000D01*
X105833333Y-79654761D01*
X105928571Y-79607142D01*
X106452380Y-79607142D01*
X80030952Y-94202380D02*
X79459523Y-94202380D01*
X79745238Y-94202380D02*
X79745238Y-93202380D01*
X79650000Y-93345238D01*
X79554761Y-93440476D01*
X79459523Y-93488095D01*
X80650000Y-93202380D02*
X80745238Y-93202380D01*
X80840476Y-93250000D01*
X80888095Y-93297619D01*
X80935714Y-93392857D01*
X80983333Y-93583333D01*
X80983333Y-93821428D01*
X80935714Y-94011904D01*
X80888095Y-94107142D01*
X80840476Y-94154761D01*
X80745238Y-94202380D01*
X80650000Y-94202380D01*
X80554761Y-94154761D01*
X80507142Y-94107142D01*
X80459523Y-94011904D01*
X80411904Y-93821428D01*
X80411904Y-93583333D01*
X80459523Y-93392857D01*
X80507142Y-93297619D01*
X80554761Y-93250000D01*
X80650000Y-93202380D01*
X81602380Y-93202380D02*
X81697619Y-93202380D01*
X81792857Y-93250000D01*
X81840476Y-93297619D01*
X81888095Y-93392857D01*
X81935714Y-93583333D01*
X81935714Y-93821428D01*
X81888095Y-94011904D01*
X81840476Y-94107142D01*
X81792857Y-94154761D01*
X81697619Y-94202380D01*
X81602380Y-94202380D01*
X81507142Y-94154761D01*
X81459523Y-94107142D01*
X81411904Y-94011904D01*
X81364285Y-93821428D01*
X81364285Y-93583333D01*
X81411904Y-93392857D01*
X81459523Y-93297619D01*
X81507142Y-93250000D01*
X81602380Y-93202380D01*
X82364285Y-93535714D02*
X82364285Y-94202380D01*
X82364285Y-93630952D02*
X82411904Y-93583333D01*
X82507142Y-93535714D01*
X82650000Y-93535714D01*
X82745238Y-93583333D01*
X82792857Y-93678571D01*
X82792857Y-94202380D01*
X94202380Y-119969047D02*
X94202380Y-120540476D01*
X94202380Y-120254761D02*
X93202380Y-120254761D01*
X93345238Y-120350000D01*
X93440476Y-120445238D01*
X93488095Y-120540476D01*
X93202380Y-119350000D02*
X93202380Y-119254761D01*
X93250000Y-119159523D01*
X93297619Y-119111904D01*
X93392857Y-119064285D01*
X93583333Y-119016666D01*
X93821428Y-119016666D01*
X94011904Y-119064285D01*
X94107142Y-119111904D01*
X94154761Y-119159523D01*
X94202380Y-119254761D01*
X94202380Y-119350000D01*
X94154761Y-119445238D01*
X94107142Y-119492857D01*
X94011904Y-119540476D01*
X93821428Y-119588095D01*
X93583333Y-119588095D01*
X93392857Y-119540476D01*
X93297619Y-119492857D01*
X93250000Y-119445238D01*
X93202380Y-119350000D01*
X93202380Y-118397619D02*
X93202380Y-118302380D01*
X93250000Y-118207142D01*
X93297619Y-118159523D01*
X93392857Y-118111904D01*
X93583333Y-118064285D01*
X93821428Y-118064285D01*
X94011904Y-118111904D01*
X94107142Y-118159523D01*
X94154761Y-118207142D01*
X94202380Y-118302380D01*
X94202380Y-118397619D01*
X94154761Y-118492857D01*
X94107142Y-118540476D01*
X94011904Y-118588095D01*
X93821428Y-118635714D01*
X93583333Y-118635714D01*
X93392857Y-118588095D01*
X93297619Y-118540476D01*
X93250000Y-118492857D01*
X93202380Y-118397619D01*
X93535714Y-117635714D02*
X94202380Y-117635714D01*
X93630952Y-117635714D02*
X93583333Y-117588095D01*
X93535714Y-117492857D01*
X93535714Y-117350000D01*
X93583333Y-117254761D01*
X93678571Y-117207142D01*
X94202380Y-117207142D01*
X117730952Y-106702380D02*
X117159523Y-106702380D01*
X117445238Y-106702380D02*
X117445238Y-105702380D01*
X117350000Y-105845238D01*
X117254761Y-105940476D01*
X117159523Y-105988095D01*
X118350000Y-105702380D02*
X118445238Y-105702380D01*
X118540476Y-105750000D01*
X118588095Y-105797619D01*
X118635714Y-105892857D01*
X118683333Y-106083333D01*
X118683333Y-106321428D01*
X118635714Y-106511904D01*
X118588095Y-106607142D01*
X118540476Y-106654761D01*
X118445238Y-106702380D01*
X118350000Y-106702380D01*
X118254761Y-106654761D01*
X118207142Y-106607142D01*
X118159523Y-106511904D01*
X118111904Y-106321428D01*
X118111904Y-106083333D01*
X118159523Y-105892857D01*
X118207142Y-105797619D01*
X118254761Y-105750000D01*
X118350000Y-105702380D01*
X119302380Y-105702380D02*
X119397619Y-105702380D01*
X119492857Y-105750000D01*
X119540476Y-105797619D01*
X119588095Y-105892857D01*
X119635714Y-106083333D01*
X119635714Y-106321428D01*
X119588095Y-106511904D01*
X119540476Y-106607142D01*
X119492857Y-106654761D01*
X119397619Y-106702380D01*
X119302380Y-106702380D01*
X119207142Y-106654761D01*
X119159523Y-106607142D01*
X119111904Y-106511904D01*
X119064285Y-106321428D01*
X119064285Y-106083333D01*
X119111904Y-105892857D01*
X119159523Y-105797619D01*
X119207142Y-105750000D01*
X119302380Y-105702380D01*
X120064285Y-106035714D02*
X120064285Y-106702380D01*
X120064285Y-106130952D02*
X120111904Y-106083333D01*
X120207142Y-106035714D01*
X120350000Y-106035714D01*
X120445238Y-106083333D01*
X120492857Y-106178571D01*
X120492857Y-106702380D01*
X132583333Y-116952380D02*
X132011904Y-116952380D01*
X132297619Y-116952380D02*
X132297619Y-115952380D01*
X132202380Y-116095238D01*
X132107142Y-116190476D01*
X132011904Y-116238095D01*
X133440476Y-116285714D02*
X133440476Y-116952380D01*
X133011904Y-116285714D02*
X133011904Y-116809523D01*
X133059523Y-116904761D01*
X133154761Y-116952380D01*
X133297619Y-116952380D01*
X133392857Y-116904761D01*
X133440476Y-116857142D01*
X126083333Y-116952380D02*
X125511904Y-116952380D01*
X125797619Y-116952380D02*
X125797619Y-115952380D01*
X125702380Y-116095238D01*
X125607142Y-116190476D01*
X125511904Y-116238095D01*
X126940476Y-116285714D02*
X126940476Y-116952380D01*
X126511904Y-116285714D02*
X126511904Y-116809523D01*
X126559523Y-116904761D01*
X126654761Y-116952380D01*
X126797619Y-116952380D01*
X126892857Y-116904761D01*
X126940476Y-116857142D01*
X136547619Y-92547619D02*
X136500000Y-92500000D01*
X136452380Y-92404761D01*
X136452380Y-92166666D01*
X136500000Y-92071428D01*
X136547619Y-92023809D01*
X136642857Y-91976190D01*
X136738095Y-91976190D01*
X136880952Y-92023809D01*
X137452380Y-92595238D01*
X137452380Y-91976190D01*
X136547619Y-91595238D02*
X136500000Y-91547619D01*
X136452380Y-91452380D01*
X136452380Y-91214285D01*
X136500000Y-91119047D01*
X136547619Y-91071428D01*
X136642857Y-91023809D01*
X136738095Y-91023809D01*
X136880952Y-91071428D01*
X137452380Y-91642857D01*
X137452380Y-91023809D01*
X136452380Y-90404761D02*
X136452380Y-90309523D01*
X136500000Y-90214285D01*
X136547619Y-90166666D01*
X136642857Y-90119047D01*
X136833333Y-90071428D01*
X137071428Y-90071428D01*
X137261904Y-90119047D01*
X137357142Y-90166666D01*
X137404761Y-90214285D01*
X137452380Y-90309523D01*
X137452380Y-90404761D01*
X137404761Y-90500000D01*
X137357142Y-90547619D01*
X137261904Y-90595238D01*
X137071428Y-90642857D01*
X136833333Y-90642857D01*
X136642857Y-90595238D01*
X136547619Y-90547619D01*
X136500000Y-90500000D01*
X136452380Y-90404761D01*
X137452380Y-89642857D02*
X136785714Y-89642857D01*
X136976190Y-89642857D02*
X136880952Y-89595238D01*
X136833333Y-89547619D01*
X136785714Y-89452380D01*
X136785714Y-89357142D01*
X107452380Y-136547619D02*
X107500000Y-136500000D01*
X107595238Y-136452380D01*
X107833333Y-136452380D01*
X107928571Y-136500000D01*
X107976190Y-136547619D01*
X108023809Y-136642857D01*
X108023809Y-136738095D01*
X107976190Y-136880952D01*
X107404761Y-137452380D01*
X108023809Y-137452380D01*
X108404761Y-136547619D02*
X108452380Y-136500000D01*
X108547619Y-136452380D01*
X108785714Y-136452380D01*
X108880952Y-136500000D01*
X108928571Y-136547619D01*
X108976190Y-136642857D01*
X108976190Y-136738095D01*
X108928571Y-136880952D01*
X108357142Y-137452380D01*
X108976190Y-137452380D01*
X109595238Y-136452380D02*
X109690476Y-136452380D01*
X109785714Y-136500000D01*
X109833333Y-136547619D01*
X109880952Y-136642857D01*
X109928571Y-136833333D01*
X109928571Y-137071428D01*
X109880952Y-137261904D01*
X109833333Y-137357142D01*
X109785714Y-137404761D01*
X109690476Y-137452380D01*
X109595238Y-137452380D01*
X109500000Y-137404761D01*
X109452380Y-137357142D01*
X109404761Y-137261904D01*
X109357142Y-137071428D01*
X109357142Y-136833333D01*
X109404761Y-136642857D01*
X109452380Y-136547619D01*
X109500000Y-136500000D01*
X109595238Y-136452380D01*
X110357142Y-137452380D02*
X110357142Y-136785714D01*
X110357142Y-136976190D02*
X110404761Y-136880952D01*
X110452380Y-136833333D01*
X110547619Y-136785714D01*
X110642857Y-136785714D01*
X89452380Y-62547619D02*
X89500000Y-62500000D01*
X89595238Y-62452380D01*
X89833333Y-62452380D01*
X89928571Y-62500000D01*
X89976190Y-62547619D01*
X90023809Y-62642857D01*
X90023809Y-62738095D01*
X89976190Y-62880952D01*
X89404761Y-63452380D01*
X90023809Y-63452380D01*
X90404761Y-62547619D02*
X90452380Y-62500000D01*
X90547619Y-62452380D01*
X90785714Y-62452380D01*
X90880952Y-62500000D01*
X90928571Y-62547619D01*
X90976190Y-62642857D01*
X90976190Y-62738095D01*
X90928571Y-62880952D01*
X90357142Y-63452380D01*
X90976190Y-63452380D01*
X91595238Y-62452380D02*
X91690476Y-62452380D01*
X91785714Y-62500000D01*
X91833333Y-62547619D01*
X91880952Y-62642857D01*
X91928571Y-62833333D01*
X91928571Y-63071428D01*
X91880952Y-63261904D01*
X91833333Y-63357142D01*
X91785714Y-63404761D01*
X91690476Y-63452380D01*
X91595238Y-63452380D01*
X91500000Y-63404761D01*
X91452380Y-63357142D01*
X91404761Y-63261904D01*
X91357142Y-63071428D01*
X91357142Y-62833333D01*
X91404761Y-62642857D01*
X91452380Y-62547619D01*
X91500000Y-62500000D01*
X91595238Y-62452380D01*
X92357142Y-63452380D02*
X92357142Y-62785714D01*
X92357142Y-62976190D02*
X92404761Y-62880952D01*
X92452380Y-62833333D01*
X92547619Y-62785714D01*
X92642857Y-62785714D01*
X109464761Y-85952380D02*
X108893333Y-85952380D01*
X109179047Y-85952380D02*
X109179047Y-84952380D01*
X109083809Y-85095238D01*
X108988571Y-85190476D01*
X108893333Y-85238095D01*
X110083809Y-84952380D02*
X110179047Y-84952380D01*
X110274285Y-85000000D01*
X110321904Y-85047619D01*
X110369523Y-85142857D01*
X110417142Y-85333333D01*
X110417142Y-85571428D01*
X110369523Y-85761904D01*
X110321904Y-85857142D01*
X110274285Y-85904761D01*
X110179047Y-85952380D01*
X110083809Y-85952380D01*
X109988571Y-85904761D01*
X109940952Y-85857142D01*
X109893333Y-85761904D01*
X109845714Y-85571428D01*
X109845714Y-85333333D01*
X109893333Y-85142857D01*
X109940952Y-85047619D01*
X109988571Y-85000000D01*
X110083809Y-84952380D01*
X110845714Y-85952380D02*
X110845714Y-84952380D01*
X110940952Y-85571428D02*
X111226666Y-85952380D01*
X111226666Y-85285714D02*
X110845714Y-85666666D01*
X62522619Y-110437619D02*
X62475000Y-110390000D01*
X62427380Y-110294761D01*
X62427380Y-110056666D01*
X62475000Y-109961428D01*
X62522619Y-109913809D01*
X62617857Y-109866190D01*
X62713095Y-109866190D01*
X62855952Y-109913809D01*
X63427380Y-110485238D01*
X63427380Y-109866190D01*
X62522619Y-109485238D02*
X62475000Y-109437619D01*
X62427380Y-109342380D01*
X62427380Y-109104285D01*
X62475000Y-109009047D01*
X62522619Y-108961428D01*
X62617857Y-108913809D01*
X62713095Y-108913809D01*
X62855952Y-108961428D01*
X63427380Y-109532857D01*
X63427380Y-108913809D01*
X62427380Y-108294761D02*
X62427380Y-108199523D01*
X62475000Y-108104285D01*
X62522619Y-108056666D01*
X62617857Y-108009047D01*
X62808333Y-107961428D01*
X63046428Y-107961428D01*
X63236904Y-108009047D01*
X63332142Y-108056666D01*
X63379761Y-108104285D01*
X63427380Y-108199523D01*
X63427380Y-108294761D01*
X63379761Y-108390000D01*
X63332142Y-108437619D01*
X63236904Y-108485238D01*
X63046428Y-108532857D01*
X62808333Y-108532857D01*
X62617857Y-108485238D01*
X62522619Y-108437619D01*
X62475000Y-108390000D01*
X62427380Y-108294761D01*
X63427380Y-107532857D02*
X62760714Y-107532857D01*
X62951190Y-107532857D02*
X62855952Y-107485238D01*
X62808333Y-107437619D01*
X62760714Y-107342380D01*
X62760714Y-107247142D01*
X111035714Y-108452380D02*
X111035714Y-107452380D01*
X111369047Y-108166666D01*
X111702380Y-107452380D01*
X111702380Y-108452380D01*
X112750000Y-108357142D02*
X112702380Y-108404761D01*
X112559523Y-108452380D01*
X112464285Y-108452380D01*
X112321428Y-108404761D01*
X112226190Y-108309523D01*
X112178571Y-108214285D01*
X112130952Y-108023809D01*
X112130952Y-107880952D01*
X112178571Y-107690476D01*
X112226190Y-107595238D01*
X112321428Y-107500000D01*
X112464285Y-107452380D01*
X112559523Y-107452380D01*
X112702380Y-107500000D01*
X112750000Y-107547619D01*
X113178571Y-108452380D02*
X113178571Y-107452380D01*
X113559523Y-107452380D01*
X113654761Y-107500000D01*
X113702380Y-107547619D01*
X113750000Y-107642857D01*
X113750000Y-107785714D01*
X113702380Y-107880952D01*
X113654761Y-107928571D01*
X113559523Y-107976190D01*
X113178571Y-107976190D01*
X114702380Y-108452380D02*
X114130952Y-108452380D01*
X114416666Y-108452380D02*
X114416666Y-107452380D01*
X114321428Y-107595238D01*
X114226190Y-107690476D01*
X114130952Y-107738095D01*
X115035714Y-107452380D02*
X115702380Y-107452380D01*
X115273809Y-108452380D01*
X116273809Y-107452380D02*
X116369047Y-107452380D01*
X116464285Y-107500000D01*
X116511904Y-107547619D01*
X116559523Y-107642857D01*
X116607142Y-107833333D01*
X116607142Y-108071428D01*
X116559523Y-108261904D01*
X116511904Y-108357142D01*
X116464285Y-108404761D01*
X116369047Y-108452380D01*
X116273809Y-108452380D01*
X116178571Y-108404761D01*
X116130952Y-108357142D01*
X116083333Y-108261904D01*
X116035714Y-108071428D01*
X116035714Y-107833333D01*
X116083333Y-107642857D01*
X116130952Y-107547619D01*
X116178571Y-107500000D01*
X116273809Y-107452380D01*
X117226190Y-107452380D02*
X117321428Y-107452380D01*
X117416666Y-107500000D01*
X117464285Y-107547619D01*
X117511904Y-107642857D01*
X117559523Y-107833333D01*
X117559523Y-108071428D01*
X117511904Y-108261904D01*
X117464285Y-108357142D01*
X117416666Y-108404761D01*
X117321428Y-108452380D01*
X117226190Y-108452380D01*
X117130952Y-108404761D01*
X117083333Y-108357142D01*
X117035714Y-108261904D01*
X116988095Y-108071428D01*
X116988095Y-107833333D01*
X117035714Y-107642857D01*
X117083333Y-107547619D01*
X117130952Y-107500000D01*
X117226190Y-107452380D01*
X117988095Y-108071428D02*
X118750000Y-108071428D01*
X119130952Y-107452380D02*
X119750000Y-107452380D01*
X119416666Y-107833333D01*
X119559523Y-107833333D01*
X119654761Y-107880952D01*
X119702380Y-107928571D01*
X119750000Y-108023809D01*
X119750000Y-108261904D01*
X119702380Y-108357142D01*
X119654761Y-108404761D01*
X119559523Y-108452380D01*
X119273809Y-108452380D01*
X119178571Y-108404761D01*
X119130952Y-108357142D01*
X120083333Y-107452380D02*
X120702380Y-107452380D01*
X120369047Y-107833333D01*
X120511904Y-107833333D01*
X120607142Y-107880952D01*
X120654761Y-107928571D01*
X120702380Y-108023809D01*
X120702380Y-108261904D01*
X120654761Y-108357142D01*
X120607142Y-108404761D01*
X120511904Y-108452380D01*
X120226190Y-108452380D01*
X120130952Y-108404761D01*
X120083333Y-108357142D01*
X121321428Y-107452380D02*
X121416666Y-107452380D01*
X121511904Y-107500000D01*
X121559523Y-107547619D01*
X121607142Y-107642857D01*
X121654761Y-107833333D01*
X121654761Y-108071428D01*
X121607142Y-108261904D01*
X121559523Y-108357142D01*
X121511904Y-108404761D01*
X121416666Y-108452380D01*
X121321428Y-108452380D01*
X121226190Y-108404761D01*
X121178571Y-108357142D01*
X121130952Y-108261904D01*
X121083333Y-108071428D01*
X121083333Y-107833333D01*
X121130952Y-107642857D01*
X121178571Y-107547619D01*
X121226190Y-107500000D01*
X121321428Y-107452380D01*
X122035714Y-107547619D02*
X122083333Y-107500000D01*
X122178571Y-107452380D01*
X122416666Y-107452380D01*
X122511904Y-107500000D01*
X122559523Y-107547619D01*
X122607142Y-107642857D01*
X122607142Y-107738095D01*
X122559523Y-107880952D01*
X121988095Y-108452380D01*
X122607142Y-108452380D01*
X123035714Y-107928571D02*
X123369047Y-107928571D01*
X123511904Y-108452380D02*
X123035714Y-108452380D01*
X123035714Y-107452380D01*
X123511904Y-107452380D01*
X110830952Y-74383333D02*
X111211904Y-74383333D01*
X110754761Y-74611904D02*
X111021428Y-73811904D01*
X111288095Y-74611904D01*
X111440476Y-73811904D02*
X111897619Y-73811904D01*
X111669047Y-74611904D02*
X111669047Y-73811904D01*
X112050000Y-74078571D02*
X112354761Y-74078571D01*
X112164285Y-73811904D02*
X112164285Y-74497619D01*
X112202380Y-74573809D01*
X112278571Y-74611904D01*
X112354761Y-74611904D01*
X112621428Y-74611904D02*
X112621428Y-74078571D01*
X112621428Y-73811904D02*
X112583333Y-73850000D01*
X112621428Y-73888095D01*
X112659523Y-73850000D01*
X112621428Y-73811904D01*
X112621428Y-73888095D01*
X113002380Y-74078571D02*
X113002380Y-74611904D01*
X113002380Y-74154761D02*
X113040476Y-74116666D01*
X113116666Y-74078571D01*
X113230952Y-74078571D01*
X113307142Y-74116666D01*
X113345238Y-74192857D01*
X113345238Y-74611904D01*
X113650000Y-74078571D02*
X113840476Y-74611904D01*
X114030952Y-74078571D02*
X113840476Y-74611904D01*
X113764285Y-74802380D01*
X113726190Y-74840476D01*
X113650000Y-74878571D01*
X114450000Y-74154761D02*
X114373809Y-74116666D01*
X114335714Y-74078571D01*
X114297619Y-74002380D01*
X114297619Y-73964285D01*
X114335714Y-73888095D01*
X114373809Y-73850000D01*
X114450000Y-73811904D01*
X114602380Y-73811904D01*
X114678571Y-73850000D01*
X114716666Y-73888095D01*
X114754761Y-73964285D01*
X114754761Y-74002380D01*
X114716666Y-74078571D01*
X114678571Y-74116666D01*
X114602380Y-74154761D01*
X114450000Y-74154761D01*
X114373809Y-74192857D01*
X114335714Y-74230952D01*
X114297619Y-74307142D01*
X114297619Y-74459523D01*
X114335714Y-74535714D01*
X114373809Y-74573809D01*
X114450000Y-74611904D01*
X114602380Y-74611904D01*
X114678571Y-74573809D01*
X114716666Y-74535714D01*
X114754761Y-74459523D01*
X114754761Y-74307142D01*
X114716666Y-74230952D01*
X114678571Y-74192857D01*
X114602380Y-74154761D01*
X115478571Y-73811904D02*
X115097619Y-73811904D01*
X115059523Y-74192857D01*
X115097619Y-74154761D01*
X115173809Y-74116666D01*
X115364285Y-74116666D01*
X115440476Y-74154761D01*
X115478571Y-74192857D01*
X115516666Y-74269047D01*
X115516666Y-74459523D01*
X115478571Y-74535714D01*
X115440476Y-74573809D01*
X115364285Y-74611904D01*
X115173809Y-74611904D01*
X115097619Y-74573809D01*
X115059523Y-74535714D01*
X115859523Y-74307142D02*
X116469047Y-74307142D01*
X116811904Y-73888095D02*
X116850000Y-73850000D01*
X116926190Y-73811904D01*
X117116666Y-73811904D01*
X117192857Y-73850000D01*
X117230952Y-73888095D01*
X117269047Y-73964285D01*
X117269047Y-74040476D01*
X117230952Y-74154761D01*
X116773809Y-74611904D01*
X117269047Y-74611904D01*
X117764285Y-73811904D02*
X117840476Y-73811904D01*
X117916666Y-73850000D01*
X117954761Y-73888095D01*
X117992857Y-73964285D01*
X118030952Y-74116666D01*
X118030952Y-74307142D01*
X117992857Y-74459523D01*
X117954761Y-74535714D01*
X117916666Y-74573809D01*
X117840476Y-74611904D01*
X117764285Y-74611904D01*
X117688095Y-74573809D01*
X117650000Y-74535714D01*
X117611904Y-74459523D01*
X117573809Y-74307142D01*
X117573809Y-74116666D01*
X117611904Y-73964285D01*
X117650000Y-73888095D01*
X117688095Y-73850000D01*
X117764285Y-73811904D01*
X118373809Y-74611904D02*
X118373809Y-73811904D01*
X118678571Y-73811904D01*
X118754761Y-73850000D01*
X118792857Y-73888095D01*
X118830952Y-73964285D01*
X118830952Y-74078571D01*
X118792857Y-74154761D01*
X118754761Y-74192857D01*
X118678571Y-74230952D01*
X118373809Y-74230952D01*
X119173809Y-73811904D02*
X119173809Y-74459523D01*
X119211904Y-74535714D01*
X119250000Y-74573809D01*
X119326190Y-74611904D01*
X119478571Y-74611904D01*
X119554761Y-74573809D01*
X119592857Y-74535714D01*
X119630952Y-74459523D01*
X119630952Y-73811904D01*
X78262380Y-112011904D02*
X78262380Y-111345238D01*
X79262380Y-111773809D01*
X78595714Y-110535714D02*
X79262380Y-110535714D01*
X78214761Y-110773809D02*
X78929047Y-111011904D01*
X78929047Y-110392857D01*
X79262380Y-110011904D02*
X78262380Y-110011904D01*
X78738571Y-110011904D02*
X78738571Y-109440476D01*
X79262380Y-109440476D02*
X78262380Y-109440476D01*
X79167142Y-108392857D02*
X79214761Y-108440476D01*
X79262380Y-108583333D01*
X79262380Y-108678571D01*
X79214761Y-108821428D01*
X79119523Y-108916666D01*
X79024285Y-108964285D01*
X78833809Y-109011904D01*
X78690952Y-109011904D01*
X78500476Y-108964285D01*
X78405238Y-108916666D01*
X78310000Y-108821428D01*
X78262380Y-108678571D01*
X78262380Y-108583333D01*
X78310000Y-108440476D01*
X78357619Y-108392857D01*
X78262380Y-107488095D02*
X78262380Y-107964285D01*
X78738571Y-108011904D01*
X78690952Y-107964285D01*
X78643333Y-107869047D01*
X78643333Y-107630952D01*
X78690952Y-107535714D01*
X78738571Y-107488095D01*
X78833809Y-107440476D01*
X79071904Y-107440476D01*
X79167142Y-107488095D01*
X79214761Y-107535714D01*
X79262380Y-107630952D01*
X79262380Y-107869047D01*
X79214761Y-107964285D01*
X79167142Y-108011904D01*
X79262380Y-106964285D02*
X79262380Y-106773809D01*
X79214761Y-106678571D01*
X79167142Y-106630952D01*
X79024285Y-106535714D01*
X78833809Y-106488095D01*
X78452857Y-106488095D01*
X78357619Y-106535714D01*
X78310000Y-106583333D01*
X78262380Y-106678571D01*
X78262380Y-106869047D01*
X78310000Y-106964285D01*
X78357619Y-107011904D01*
X78452857Y-107059523D01*
X78690952Y-107059523D01*
X78786190Y-107011904D01*
X78833809Y-106964285D01*
X78881428Y-106869047D01*
X78881428Y-106678571D01*
X78833809Y-106583333D01*
X78786190Y-106535714D01*
X78690952Y-106488095D01*
X78262380Y-105583333D02*
X78262380Y-106059523D01*
X78738571Y-106107142D01*
X78690952Y-106059523D01*
X78643333Y-105964285D01*
X78643333Y-105726190D01*
X78690952Y-105630952D01*
X78738571Y-105583333D01*
X78833809Y-105535714D01*
X79071904Y-105535714D01*
X79167142Y-105583333D01*
X79214761Y-105630952D01*
X79262380Y-105726190D01*
X79262380Y-105964285D01*
X79214761Y-106059523D01*
X79167142Y-106107142D01*
X105488095Y-120642380D02*
X106154761Y-120642380D01*
X105726190Y-121642380D01*
X106964285Y-120975714D02*
X106964285Y-121642380D01*
X106726190Y-120594761D02*
X106488095Y-121309047D01*
X107107142Y-121309047D01*
X107488095Y-121642380D02*
X107488095Y-120642380D01*
X107488095Y-121118571D02*
X108059523Y-121118571D01*
X108059523Y-121642380D02*
X108059523Y-120642380D01*
X109107142Y-121547142D02*
X109059523Y-121594761D01*
X108916666Y-121642380D01*
X108821428Y-121642380D01*
X108678571Y-121594761D01*
X108583333Y-121499523D01*
X108535714Y-121404285D01*
X108488095Y-121213809D01*
X108488095Y-121070952D01*
X108535714Y-120880476D01*
X108583333Y-120785238D01*
X108678571Y-120690000D01*
X108821428Y-120642380D01*
X108916666Y-120642380D01*
X109059523Y-120690000D01*
X109107142Y-120737619D01*
X110011904Y-120642380D02*
X109535714Y-120642380D01*
X109488095Y-121118571D01*
X109535714Y-121070952D01*
X109630952Y-121023333D01*
X109869047Y-121023333D01*
X109964285Y-121070952D01*
X110011904Y-121118571D01*
X110059523Y-121213809D01*
X110059523Y-121451904D01*
X110011904Y-121547142D01*
X109964285Y-121594761D01*
X109869047Y-121642380D01*
X109630952Y-121642380D01*
X109535714Y-121594761D01*
X109488095Y-121547142D01*
X110535714Y-121642380D02*
X110726190Y-121642380D01*
X110821428Y-121594761D01*
X110869047Y-121547142D01*
X110964285Y-121404285D01*
X111011904Y-121213809D01*
X111011904Y-120832857D01*
X110964285Y-120737619D01*
X110916666Y-120690000D01*
X110821428Y-120642380D01*
X110630952Y-120642380D01*
X110535714Y-120690000D01*
X110488095Y-120737619D01*
X110440476Y-120832857D01*
X110440476Y-121070952D01*
X110488095Y-121166190D01*
X110535714Y-121213809D01*
X110630952Y-121261428D01*
X110821428Y-121261428D01*
X110916666Y-121213809D01*
X110964285Y-121166190D01*
X111011904Y-121070952D01*
X111916666Y-120642380D02*
X111440476Y-120642380D01*
X111392857Y-121118571D01*
X111440476Y-121070952D01*
X111535714Y-121023333D01*
X111773809Y-121023333D01*
X111869047Y-121070952D01*
X111916666Y-121118571D01*
X111964285Y-121213809D01*
X111964285Y-121451904D01*
X111916666Y-121547142D01*
X111869047Y-121594761D01*
X111773809Y-121642380D01*
X111535714Y-121642380D01*
X111440476Y-121594761D01*
X111392857Y-121547142D01*
X120642380Y-94261904D02*
X120642380Y-93595238D01*
X121642380Y-94023809D01*
X120975714Y-92785714D02*
X121642380Y-92785714D01*
X120594761Y-93023809D02*
X121309047Y-93261904D01*
X121309047Y-92642857D01*
X121642380Y-92261904D02*
X120642380Y-92261904D01*
X121118571Y-92261904D02*
X121118571Y-91690476D01*
X121642380Y-91690476D02*
X120642380Y-91690476D01*
X121547142Y-90642857D02*
X121594761Y-90690476D01*
X121642380Y-90833333D01*
X121642380Y-90928571D01*
X121594761Y-91071428D01*
X121499523Y-91166666D01*
X121404285Y-91214285D01*
X121213809Y-91261904D01*
X121070952Y-91261904D01*
X120880476Y-91214285D01*
X120785238Y-91166666D01*
X120690000Y-91071428D01*
X120642380Y-90928571D01*
X120642380Y-90833333D01*
X120690000Y-90690476D01*
X120737619Y-90642857D01*
X120642380Y-89738095D02*
X120642380Y-90214285D01*
X121118571Y-90261904D01*
X121070952Y-90214285D01*
X121023333Y-90119047D01*
X121023333Y-89880952D01*
X121070952Y-89785714D01*
X121118571Y-89738095D01*
X121213809Y-89690476D01*
X121451904Y-89690476D01*
X121547142Y-89738095D01*
X121594761Y-89785714D01*
X121642380Y-89880952D01*
X121642380Y-90119047D01*
X121594761Y-90214285D01*
X121547142Y-90261904D01*
X121642380Y-89214285D02*
X121642380Y-89023809D01*
X121594761Y-88928571D01*
X121547142Y-88880952D01*
X121404285Y-88785714D01*
X121213809Y-88738095D01*
X120832857Y-88738095D01*
X120737619Y-88785714D01*
X120690000Y-88833333D01*
X120642380Y-88928571D01*
X120642380Y-89119047D01*
X120690000Y-89214285D01*
X120737619Y-89261904D01*
X120832857Y-89309523D01*
X121070952Y-89309523D01*
X121166190Y-89261904D01*
X121213809Y-89214285D01*
X121261428Y-89119047D01*
X121261428Y-88928571D01*
X121213809Y-88833333D01*
X121166190Y-88785714D01*
X121070952Y-88738095D01*
X120642380Y-87833333D02*
X120642380Y-88309523D01*
X121118571Y-88357142D01*
X121070952Y-88309523D01*
X121023333Y-88214285D01*
X121023333Y-87976190D01*
X121070952Y-87880952D01*
X121118571Y-87833333D01*
X121213809Y-87785714D01*
X121451904Y-87785714D01*
X121547142Y-87833333D01*
X121594761Y-87880952D01*
X121642380Y-87976190D01*
X121642380Y-88214285D01*
X121594761Y-88309523D01*
X121547142Y-88357142D01*
X87738095Y-78262380D02*
X88404761Y-78262380D01*
X87976190Y-79262380D01*
X89214285Y-78595714D02*
X89214285Y-79262380D01*
X88976190Y-78214761D02*
X88738095Y-78929047D01*
X89357142Y-78929047D01*
X89738095Y-79262380D02*
X89738095Y-78262380D01*
X89738095Y-78738571D02*
X90309523Y-78738571D01*
X90309523Y-79262380D02*
X90309523Y-78262380D01*
X91357142Y-79167142D02*
X91309523Y-79214761D01*
X91166666Y-79262380D01*
X91071428Y-79262380D01*
X90928571Y-79214761D01*
X90833333Y-79119523D01*
X90785714Y-79024285D01*
X90738095Y-78833809D01*
X90738095Y-78690952D01*
X90785714Y-78500476D01*
X90833333Y-78405238D01*
X90928571Y-78310000D01*
X91071428Y-78262380D01*
X91166666Y-78262380D01*
X91309523Y-78310000D01*
X91357142Y-78357619D01*
X92261904Y-78262380D02*
X91785714Y-78262380D01*
X91738095Y-78738571D01*
X91785714Y-78690952D01*
X91880952Y-78643333D01*
X92119047Y-78643333D01*
X92214285Y-78690952D01*
X92261904Y-78738571D01*
X92309523Y-78833809D01*
X92309523Y-79071904D01*
X92261904Y-79167142D01*
X92214285Y-79214761D01*
X92119047Y-79262380D01*
X91880952Y-79262380D01*
X91785714Y-79214761D01*
X91738095Y-79167142D01*
X92785714Y-79262380D02*
X92976190Y-79262380D01*
X93071428Y-79214761D01*
X93119047Y-79167142D01*
X93214285Y-79024285D01*
X93261904Y-78833809D01*
X93261904Y-78452857D01*
X93214285Y-78357619D01*
X93166666Y-78310000D01*
X93071428Y-78262380D01*
X92880952Y-78262380D01*
X92785714Y-78310000D01*
X92738095Y-78357619D01*
X92690476Y-78452857D01*
X92690476Y-78690952D01*
X92738095Y-78786190D01*
X92785714Y-78833809D01*
X92880952Y-78881428D01*
X93071428Y-78881428D01*
X93166666Y-78833809D01*
X93214285Y-78786190D01*
X93261904Y-78690952D01*
X94166666Y-78262380D02*
X93690476Y-78262380D01*
X93642857Y-78738571D01*
X93690476Y-78690952D01*
X93785714Y-78643333D01*
X94023809Y-78643333D01*
X94119047Y-78690952D01*
X94166666Y-78738571D01*
X94214285Y-78833809D01*
X94214285Y-79071904D01*
X94166666Y-79167142D01*
X94119047Y-79214761D01*
X94023809Y-79262380D01*
X93785714Y-79262380D01*
X93690476Y-79214761D01*
X93642857Y-79167142D01*
M02*
