G04 #@! TF.GenerationSoftware,KiCad,Pcbnew,(5.1.5)-3*
G04 #@! TF.CreationDate,2020-03-01T19:19:35+00:00*
G04 #@! TF.ProjectId,teatime,74656174-696d-4652-9e6b-696361645f70,rev?*
G04 #@! TF.SameCoordinates,Original*
G04 #@! TF.FileFunction,Copper,L1,Top*
G04 #@! TF.FilePolarity,Positive*
%FSLAX46Y46*%
G04 Gerber Fmt 4.6, Leading zero omitted, Abs format (unit mm)*
G04 Created by KiCad (PCBNEW (5.1.5)-3) date 2020-03-01 19:19:35*
%MOMM*%
%LPD*%
G04 APERTURE LIST*
%ADD10R,2.000000X2.000000*%
%ADD11C,2.000000*%
%ADD12O,1.050000X1.500000*%
%ADD13R,1.050000X1.500000*%
%ADD14O,1.400000X1.400000*%
%ADD15C,1.400000*%
%ADD16R,1.700000X1.700000*%
%ADD17O,1.700000X1.700000*%
%ADD18C,1.600000*%
%ADD19R,1.500000X1.050000*%
%ADD20O,1.500000X1.050000*%
%ADD21O,1.600000X1.600000*%
%ADD22R,1.600000X1.600000*%
%ADD23C,0.100000*%
%ADD24O,1.750000X1.200000*%
%ADD25C,1.800000*%
%ADD26R,1.800000X1.800000*%
%ADD27C,0.600000*%
%ADD28C,0.500000*%
%ADD29C,1.000000*%
%ADD30C,0.250000*%
G04 APERTURE END LIST*
D10*
X82000000Y-130500000D03*
D11*
X89600000Y-130500000D03*
D12*
X95020000Y-126000000D03*
X96290000Y-126000000D03*
D13*
X93750000Y-126000000D03*
D14*
X90000000Y-119870000D03*
D15*
X90000000Y-112250000D03*
X89750000Y-123000000D03*
D14*
X82130000Y-123000000D03*
D16*
X107000000Y-65500000D03*
D17*
X107000000Y-62960000D03*
X109540000Y-65500000D03*
X109540000Y-62960000D03*
X112080000Y-65500000D03*
X112080000Y-62960000D03*
D18*
X107250000Y-70250000D03*
X104750000Y-70250000D03*
X103500000Y-80000000D03*
X103500000Y-82500000D03*
X82400000Y-96250000D03*
X79900000Y-96250000D03*
X96250000Y-120100000D03*
X96250000Y-117600000D03*
X117600000Y-103750000D03*
X120100000Y-103750000D03*
D15*
X134000000Y-113750000D03*
X131500000Y-113750000D03*
X125000000Y-113750000D03*
X127500000Y-113750000D03*
D11*
X106250000Y-102500000D03*
X93750000Y-102500000D03*
X93750000Y-97500000D03*
X106250000Y-97500000D03*
D15*
X112700000Y-127500000D03*
D14*
X112700000Y-135120000D03*
X117780000Y-135120000D03*
D15*
X117780000Y-127500000D03*
X127500000Y-100000000D03*
D14*
X135120000Y-100000000D03*
X135120000Y-97460000D03*
D15*
X127500000Y-97460000D03*
X127500000Y-94920000D03*
D14*
X135120000Y-94920000D03*
X135120000Y-92380000D03*
D15*
X127500000Y-92380000D03*
X127500000Y-89840000D03*
D14*
X135120000Y-89840000D03*
X135120000Y-87300000D03*
D15*
X127500000Y-87300000D03*
X127500000Y-84760000D03*
D14*
X135120000Y-84760000D03*
X135120000Y-82220000D03*
D15*
X127500000Y-82220000D03*
X100000000Y-127500000D03*
D14*
X100000000Y-135120000D03*
X92380000Y-64880000D03*
D15*
X92380000Y-72500000D03*
X97460000Y-72500000D03*
D14*
X97460000Y-64880000D03*
X100000000Y-64880000D03*
D15*
X100000000Y-72500000D03*
X94920000Y-72500000D03*
D14*
X94920000Y-64880000D03*
X115240000Y-135120000D03*
D15*
X115240000Y-127500000D03*
X106250000Y-87500000D03*
D14*
X113870000Y-87500000D03*
X84760000Y-64880000D03*
D15*
X84760000Y-72500000D03*
X82220000Y-72500000D03*
D14*
X82220000Y-64880000D03*
X64880000Y-100000000D03*
D15*
X72500000Y-100000000D03*
X72500000Y-102540000D03*
D14*
X64880000Y-102540000D03*
X64880000Y-105080000D03*
D15*
X72500000Y-105080000D03*
X72500000Y-107620000D03*
D14*
X64880000Y-107620000D03*
X64880000Y-110160000D03*
D15*
X72500000Y-110160000D03*
X72500000Y-112700000D03*
D14*
X64880000Y-112700000D03*
X64880000Y-115240000D03*
D15*
X72500000Y-115240000D03*
X72500000Y-117780000D03*
D14*
X64880000Y-117780000D03*
X87300000Y-64880000D03*
D15*
X87300000Y-72500000D03*
X102540000Y-127500000D03*
D14*
X102540000Y-135120000D03*
X107620000Y-135120000D03*
D15*
X107620000Y-127500000D03*
X89840000Y-72500000D03*
D14*
X89840000Y-64880000D03*
X105080000Y-135120000D03*
D15*
X105080000Y-127500000D03*
X110160000Y-127500000D03*
D14*
X110160000Y-135120000D03*
D19*
X121000000Y-110000000D03*
D20*
X121000000Y-112540000D03*
X121000000Y-111270000D03*
D21*
X111000000Y-70380000D03*
X118620000Y-78000000D03*
X113540000Y-70380000D03*
X116080000Y-78000000D03*
X116080000Y-70380000D03*
X113540000Y-78000000D03*
X118620000Y-70380000D03*
D22*
X111000000Y-78000000D03*
G04 #@! TA.AperFunction,ComponentPad*
D23*
G36*
X138649505Y-106401204D02*
G01*
X138673773Y-106404804D01*
X138697572Y-106410765D01*
X138720671Y-106419030D01*
X138742850Y-106429520D01*
X138763893Y-106442132D01*
X138783599Y-106456747D01*
X138801777Y-106473223D01*
X138818253Y-106491401D01*
X138832868Y-106511107D01*
X138845480Y-106532150D01*
X138855970Y-106554329D01*
X138864235Y-106577428D01*
X138870196Y-106601227D01*
X138873796Y-106625495D01*
X138875000Y-106649999D01*
X138875000Y-107350001D01*
X138873796Y-107374505D01*
X138870196Y-107398773D01*
X138864235Y-107422572D01*
X138855970Y-107445671D01*
X138845480Y-107467850D01*
X138832868Y-107488893D01*
X138818253Y-107508599D01*
X138801777Y-107526777D01*
X138783599Y-107543253D01*
X138763893Y-107557868D01*
X138742850Y-107570480D01*
X138720671Y-107580970D01*
X138697572Y-107589235D01*
X138673773Y-107595196D01*
X138649505Y-107598796D01*
X138625001Y-107600000D01*
X137374999Y-107600000D01*
X137350495Y-107598796D01*
X137326227Y-107595196D01*
X137302428Y-107589235D01*
X137279329Y-107580970D01*
X137257150Y-107570480D01*
X137236107Y-107557868D01*
X137216401Y-107543253D01*
X137198223Y-107526777D01*
X137181747Y-107508599D01*
X137167132Y-107488893D01*
X137154520Y-107467850D01*
X137144030Y-107445671D01*
X137135765Y-107422572D01*
X137129804Y-107398773D01*
X137126204Y-107374505D01*
X137125000Y-107350001D01*
X137125000Y-106649999D01*
X137126204Y-106625495D01*
X137129804Y-106601227D01*
X137135765Y-106577428D01*
X137144030Y-106554329D01*
X137154520Y-106532150D01*
X137167132Y-106511107D01*
X137181747Y-106491401D01*
X137198223Y-106473223D01*
X137216401Y-106456747D01*
X137236107Y-106442132D01*
X137257150Y-106429520D01*
X137279329Y-106419030D01*
X137302428Y-106410765D01*
X137326227Y-106404804D01*
X137350495Y-106401204D01*
X137374999Y-106400000D01*
X138625001Y-106400000D01*
X138649505Y-106401204D01*
G37*
G04 #@! TD.AperFunction*
D24*
X138000000Y-104999999D03*
D25*
X100000000Y-147540000D03*
D26*
X100000000Y-145000000D03*
G04 #@! TA.AperFunction,ComponentPad*
D23*
G36*
X125248969Y-63832203D02*
G01*
X123752324Y-62832176D01*
X124752351Y-61335531D01*
X126248996Y-62335558D01*
X125248969Y-63832203D01*
G37*
G04 #@! TD.AperFunction*
D25*
X126411808Y-60471934D03*
X133615856Y-66384143D03*
G04 #@! TA.AperFunction,ComponentPad*
D23*
G36*
X131819805Y-69452986D02*
G01*
X130547013Y-68180194D01*
X131819805Y-66907402D01*
X133092597Y-68180194D01*
X131819805Y-69452986D01*
G37*
G04 #@! TD.AperFunction*
G04 #@! TA.AperFunction,ComponentPad*
G36*
X137167823Y-76247675D02*
G01*
X136167796Y-74751030D01*
X137664441Y-73751003D01*
X138664468Y-75247648D01*
X137167823Y-76247675D01*
G37*
G04 #@! TD.AperFunction*
D25*
X139528065Y-73588191D03*
X143921232Y-81807229D03*
G04 #@! TA.AperFunction,ComponentPad*
D23*
G36*
X141087502Y-83955152D02*
G01*
X140398671Y-82292169D01*
X142061654Y-81603338D01*
X142750485Y-83266321D01*
X141087502Y-83955152D01*
G37*
G04 #@! TD.AperFunction*
G04 #@! TA.AperFunction,ComponentPad*
G36*
X143428212Y-92279223D02*
G01*
X143077049Y-90513810D01*
X144842462Y-90162647D01*
X145193625Y-91928060D01*
X143428212Y-92279223D01*
G37*
G04 #@! TD.AperFunction*
D25*
X146626532Y-90725406D03*
X147540000Y-100000000D03*
D26*
X145000000Y-100000000D03*
G04 #@! TA.AperFunction,ComponentPad*
D23*
G36*
X143077049Y-109486189D02*
G01*
X143428212Y-107720776D01*
X145193625Y-108071939D01*
X144842462Y-109837352D01*
X143077049Y-109486189D01*
G37*
G04 #@! TD.AperFunction*
D25*
X146626532Y-109274593D03*
X143921232Y-118192770D03*
G04 #@! TA.AperFunction,ComponentPad*
D23*
G36*
X140398671Y-117707830D02*
G01*
X141087502Y-116044847D01*
X142750485Y-116733678D01*
X142061654Y-118396661D01*
X140398671Y-117707830D01*
G37*
G04 #@! TD.AperFunction*
G04 #@! TA.AperFunction,ComponentPad*
G36*
X136167796Y-125248969D02*
G01*
X137167823Y-123752324D01*
X138664468Y-124752351D01*
X137664441Y-126248996D01*
X136167796Y-125248969D01*
G37*
G04 #@! TD.AperFunction*
D25*
X139528065Y-126411808D03*
X133615856Y-133615856D03*
G04 #@! TA.AperFunction,ComponentPad*
D23*
G36*
X130547013Y-131819805D02*
G01*
X131819805Y-130547013D01*
X133092597Y-131819805D01*
X131819805Y-133092597D01*
X130547013Y-131819805D01*
G37*
G04 #@! TD.AperFunction*
G04 #@! TA.AperFunction,ComponentPad*
G36*
X123752324Y-137167823D02*
G01*
X125248969Y-136167796D01*
X126248996Y-137664441D01*
X124752351Y-138664468D01*
X123752324Y-137167823D01*
G37*
G04 #@! TD.AperFunction*
D25*
X126411808Y-139528065D03*
X118192770Y-143921232D03*
G04 #@! TA.AperFunction,ComponentPad*
D23*
G36*
X116044847Y-141087502D02*
G01*
X117707830Y-140398671D01*
X118396661Y-142061654D01*
X116733678Y-142750485D01*
X116044847Y-141087502D01*
G37*
G04 #@! TD.AperFunction*
G04 #@! TA.AperFunction,ComponentPad*
G36*
X107720776Y-143428212D02*
G01*
X109486189Y-143077049D01*
X109837352Y-144842462D01*
X108071939Y-145193625D01*
X107720776Y-143428212D01*
G37*
G04 #@! TD.AperFunction*
D25*
X109274593Y-146626532D03*
X90725406Y-146626532D03*
G04 #@! TA.AperFunction,ComponentPad*
D23*
G36*
X90513810Y-143077049D02*
G01*
X92279223Y-143428212D01*
X91928060Y-145193625D01*
X90162647Y-144842462D01*
X90513810Y-143077049D01*
G37*
G04 #@! TD.AperFunction*
G04 #@! TA.AperFunction,ComponentPad*
G36*
X109486189Y-56922950D02*
G01*
X107720776Y-56571787D01*
X108071939Y-54806374D01*
X109837352Y-55157537D01*
X109486189Y-56922950D01*
G37*
G04 #@! TD.AperFunction*
D25*
X109274593Y-53373467D03*
X73588191Y-139528065D03*
G04 #@! TA.AperFunction,ComponentPad*
D23*
G36*
X74751030Y-136167796D02*
G01*
X76247675Y-137167823D01*
X75247648Y-138664468D01*
X73751003Y-137664441D01*
X74751030Y-136167796D01*
G37*
G04 #@! TD.AperFunction*
G04 #@! TA.AperFunction,ComponentPad*
G36*
X117707830Y-59601328D02*
G01*
X116044847Y-58912497D01*
X116733678Y-57249514D01*
X118396661Y-57938345D01*
X117707830Y-59601328D01*
G37*
G04 #@! TD.AperFunction*
D25*
X118192770Y-56078767D03*
X100000000Y-52460000D03*
D26*
X100000000Y-55000000D03*
G04 #@! TA.AperFunction,ComponentPad*
D23*
G36*
X92279223Y-56571787D02*
G01*
X90513810Y-56922950D01*
X90162647Y-55157537D01*
X91928060Y-54806374D01*
X92279223Y-56571787D01*
G37*
G04 #@! TD.AperFunction*
D25*
X90725406Y-53373467D03*
X81807229Y-56078767D03*
G04 #@! TA.AperFunction,ComponentPad*
D23*
G36*
X83955152Y-58912497D02*
G01*
X82292169Y-59601328D01*
X81603338Y-57938345D01*
X83266321Y-57249514D01*
X83955152Y-58912497D01*
G37*
G04 #@! TD.AperFunction*
G04 #@! TA.AperFunction,ComponentPad*
G36*
X76247675Y-62832176D02*
G01*
X74751030Y-63832203D01*
X73751003Y-62335558D01*
X75247648Y-61335531D01*
X76247675Y-62832176D01*
G37*
G04 #@! TD.AperFunction*
D25*
X73588191Y-60471934D03*
X66384143Y-66384143D03*
G04 #@! TA.AperFunction,ComponentPad*
D23*
G36*
X69452986Y-68180194D02*
G01*
X68180194Y-69452986D01*
X66907402Y-68180194D01*
X68180194Y-66907402D01*
X69452986Y-68180194D01*
G37*
G04 #@! TD.AperFunction*
G04 #@! TA.AperFunction,ComponentPad*
G36*
X63832203Y-74751030D02*
G01*
X62832176Y-76247675D01*
X61335531Y-75247648D01*
X62335558Y-73751003D01*
X63832203Y-74751030D01*
G37*
G04 #@! TD.AperFunction*
D25*
X60471934Y-73588191D03*
X56078767Y-81807229D03*
G04 #@! TA.AperFunction,ComponentPad*
D23*
G36*
X59601328Y-82292169D02*
G01*
X58912497Y-83955152D01*
X57249514Y-83266321D01*
X57938345Y-81603338D01*
X59601328Y-82292169D01*
G37*
G04 #@! TD.AperFunction*
G04 #@! TA.AperFunction,ComponentPad*
G36*
X56922950Y-90513810D02*
G01*
X56571787Y-92279223D01*
X54806374Y-91928060D01*
X55157537Y-90162647D01*
X56922950Y-90513810D01*
G37*
G04 #@! TD.AperFunction*
D25*
X53373467Y-90725406D03*
X52460000Y-100000000D03*
D26*
X55000000Y-100000000D03*
G04 #@! TA.AperFunction,ComponentPad*
D23*
G36*
X56571787Y-107720776D02*
G01*
X56922950Y-109486189D01*
X55157537Y-109837352D01*
X54806374Y-108071939D01*
X56571787Y-107720776D01*
G37*
G04 #@! TD.AperFunction*
D25*
X53373467Y-109274593D03*
X56078767Y-118192770D03*
G04 #@! TA.AperFunction,ComponentPad*
D23*
G36*
X58912497Y-116044847D02*
G01*
X59601328Y-117707830D01*
X57938345Y-118396661D01*
X57249514Y-116733678D01*
X58912497Y-116044847D01*
G37*
G04 #@! TD.AperFunction*
G04 #@! TA.AperFunction,ComponentPad*
G36*
X62832176Y-123752324D02*
G01*
X63832203Y-125248969D01*
X62335558Y-126248996D01*
X61335531Y-124752351D01*
X62832176Y-123752324D01*
G37*
G04 #@! TD.AperFunction*
D25*
X60471934Y-126411808D03*
X66384143Y-133615856D03*
G04 #@! TA.AperFunction,ComponentPad*
D23*
G36*
X68180194Y-130547013D02*
G01*
X69452986Y-131819805D01*
X68180194Y-133092597D01*
X66907402Y-131819805D01*
X68180194Y-130547013D01*
G37*
G04 #@! TD.AperFunction*
G04 #@! TA.AperFunction,ComponentPad*
G36*
X82292169Y-140398671D02*
G01*
X83955152Y-141087502D01*
X83266321Y-142750485D01*
X81603338Y-142061654D01*
X82292169Y-140398671D01*
G37*
G04 #@! TD.AperFunction*
D25*
X81807229Y-143921232D03*
D21*
X82620000Y-100000000D03*
X75000000Y-117780000D03*
X82620000Y-102540000D03*
X75000000Y-115240000D03*
X82620000Y-105080000D03*
X75000000Y-112700000D03*
X82620000Y-107620000D03*
X75000000Y-110160000D03*
X82620000Y-110160000D03*
X75000000Y-107620000D03*
X82620000Y-112700000D03*
X75000000Y-105080000D03*
X82620000Y-115240000D03*
X75000000Y-102540000D03*
X82620000Y-117780000D03*
D22*
X75000000Y-100000000D03*
X100000000Y-125000000D03*
D21*
X117780000Y-117380000D03*
X102540000Y-125000000D03*
X115240000Y-117380000D03*
X105080000Y-125000000D03*
X112700000Y-117380000D03*
X107620000Y-125000000D03*
X110160000Y-117380000D03*
X110160000Y-125000000D03*
X107620000Y-117380000D03*
X112700000Y-125000000D03*
X105080000Y-117380000D03*
X115240000Y-125000000D03*
X102540000Y-117380000D03*
X117780000Y-125000000D03*
X100000000Y-117380000D03*
X117380000Y-100000000D03*
X125000000Y-82220000D03*
X117380000Y-97460000D03*
X125000000Y-84760000D03*
X117380000Y-94920000D03*
X125000000Y-87300000D03*
X117380000Y-92380000D03*
X125000000Y-89840000D03*
X117380000Y-89840000D03*
X125000000Y-92380000D03*
X117380000Y-87300000D03*
X125000000Y-94920000D03*
X117380000Y-84760000D03*
X125000000Y-97460000D03*
X117380000Y-82220000D03*
D22*
X125000000Y-100000000D03*
X100000000Y-75000000D03*
D21*
X82220000Y-82620000D03*
X97460000Y-75000000D03*
X84760000Y-82620000D03*
X94920000Y-75000000D03*
X87300000Y-82620000D03*
X92380000Y-75000000D03*
X89840000Y-82620000D03*
X89840000Y-75000000D03*
X92380000Y-82620000D03*
X87300000Y-75000000D03*
X94920000Y-82620000D03*
X84760000Y-75000000D03*
X97460000Y-82620000D03*
X82220000Y-75000000D03*
X100000000Y-82620000D03*
D27*
X117250000Y-69250000D03*
X117530331Y-72530331D03*
D28*
X74999339Y-136233711D02*
X74999339Y-137416132D01*
X62500000Y-121000000D02*
X74999339Y-133499339D01*
X64880000Y-112700000D02*
X62500000Y-115080000D01*
X74999339Y-133499339D02*
X74999339Y-136233711D01*
X62500000Y-115080000D02*
X62500000Y-121000000D01*
X100000000Y-64880000D02*
X100000000Y-55000000D01*
X97460000Y-62103726D02*
X91220936Y-55864662D01*
X97460000Y-64880000D02*
X97460000Y-62103726D01*
X68180194Y-130447013D02*
X68180194Y-131819805D01*
X68180194Y-128180194D02*
X68180194Y-130447013D01*
X61500000Y-121500000D02*
X68180194Y-128180194D01*
X64880000Y-110160000D02*
X61500000Y-113540000D01*
X61500000Y-113540000D02*
X61500000Y-121500000D01*
X63890051Y-105080000D02*
X58425421Y-110544630D01*
X64880000Y-105080000D02*
X63890051Y-105080000D01*
X58425421Y-110544630D02*
X58425421Y-116146601D01*
X58425421Y-116146601D02*
X58425421Y-117220754D01*
X62103726Y-102540000D02*
X55864662Y-108779064D01*
X64880000Y-102540000D02*
X62103726Y-102540000D01*
X124281087Y-138135706D02*
X125000660Y-137416133D01*
X122916793Y-139500000D02*
X124281087Y-138135706D01*
X112000000Y-139500000D02*
X122916793Y-139500000D01*
X107620000Y-135120000D02*
X112000000Y-139500000D01*
X105080000Y-136109949D02*
X110544630Y-141574579D01*
X105080000Y-135120000D02*
X105080000Y-136109949D01*
X110544630Y-141574579D02*
X116146601Y-141574579D01*
X116146601Y-141574579D02*
X117220754Y-141574579D01*
D29*
X133750000Y-111500000D02*
X135250000Y-111500000D01*
X138000000Y-108750000D02*
X138000000Y-107000000D01*
X135250000Y-111500000D02*
X138000000Y-108750000D01*
X121000000Y-111270000D02*
X129020000Y-111270000D01*
X131500000Y-113750000D02*
X132000000Y-113250000D01*
X131000000Y-113250000D02*
X131500000Y-113750000D01*
X132000000Y-113250000D02*
X133750000Y-111500000D01*
X129020000Y-111270000D02*
X131000000Y-113250000D01*
D28*
X83419999Y-104280001D02*
X82620000Y-105080000D01*
X83870001Y-103829999D02*
X83419999Y-104280001D01*
X83870001Y-84270001D02*
X83870001Y-103829999D01*
X82220000Y-82620000D02*
X83870001Y-84270001D01*
X75000000Y-100040000D02*
X72500000Y-102540000D01*
X75000000Y-100000000D02*
X75000000Y-100040000D01*
X88000000Y-60500000D02*
X77083207Y-60500000D01*
X75718913Y-61864294D02*
X74999340Y-62583867D01*
X77083207Y-60500000D02*
X75718913Y-61864294D01*
X92380000Y-64880000D02*
X88000000Y-60500000D01*
X94920000Y-75000000D02*
X94880000Y-75000000D01*
X94880000Y-75000000D02*
X92380000Y-72500000D01*
X100000000Y-135120000D02*
X100000000Y-145000000D01*
X88635337Y-144135337D02*
X91220935Y-144135337D01*
X64880000Y-117780000D02*
X64880000Y-120380000D01*
X64880000Y-120380000D02*
X88635337Y-144135337D01*
X75000000Y-115280000D02*
X72500000Y-117780000D01*
X75000000Y-115240000D02*
X75000000Y-115280000D01*
X75000000Y-112740000D02*
X72500000Y-115240000D01*
X75000000Y-112700000D02*
X75000000Y-112740000D01*
X63500000Y-116620000D02*
X64880000Y-115240000D01*
X63500000Y-120500000D02*
X63500000Y-116620000D01*
X82787000Y-139787000D02*
X63500000Y-120500000D01*
X82787000Y-141566823D02*
X82787000Y-139787000D01*
X82779245Y-141574578D02*
X82787000Y-141566823D01*
X75000000Y-110200000D02*
X72500000Y-112700000D01*
X75000000Y-110160000D02*
X75000000Y-110200000D01*
X75000000Y-107660000D02*
X72500000Y-110160000D01*
X75000000Y-107620000D02*
X75000000Y-107660000D01*
X61864294Y-124281087D02*
X62583867Y-125000660D01*
X60500000Y-122916793D02*
X61864294Y-124281087D01*
X64880000Y-107620000D02*
X60500000Y-112000000D01*
X60500000Y-112000000D02*
X60500000Y-122916793D01*
X75000000Y-105120000D02*
X72500000Y-107620000D01*
X75000000Y-105080000D02*
X75000000Y-105120000D01*
X75000000Y-102580000D02*
X72500000Y-105080000D01*
X75000000Y-102540000D02*
X75000000Y-102580000D01*
X102580000Y-125000000D02*
X105080000Y-127500000D01*
X102540000Y-125000000D02*
X102580000Y-125000000D01*
X79620000Y-64880000D02*
X55864663Y-88635337D01*
X82220000Y-64880000D02*
X79620000Y-64880000D01*
X55864663Y-88635337D02*
X55864663Y-91220935D01*
X84720000Y-75000000D02*
X82220000Y-72500000D01*
X84760000Y-75000000D02*
X84720000Y-75000000D01*
X87300000Y-75000000D02*
X87260000Y-75000000D01*
X87260000Y-75000000D02*
X84760000Y-72500000D01*
X83380000Y-63500000D02*
X84760000Y-64880000D01*
X79500000Y-63500000D02*
X83380000Y-63500000D01*
X58433177Y-82787000D02*
X60213000Y-82787000D01*
X60213000Y-82787000D02*
X79500000Y-63500000D01*
X84920000Y-62500000D02*
X79000000Y-62500000D01*
X79000000Y-62500000D02*
X66500661Y-74999339D01*
X87300000Y-64880000D02*
X84920000Y-62500000D01*
X66500661Y-74999339D02*
X63766289Y-74999339D01*
X63766289Y-74999339D02*
X62583868Y-74999339D01*
X89800000Y-75000000D02*
X87300000Y-72500000D01*
X89840000Y-75000000D02*
X89800000Y-75000000D01*
X92380000Y-75000000D02*
X92340000Y-75000000D01*
X92340000Y-75000000D02*
X89840000Y-72500000D01*
X69552987Y-68180194D02*
X68180195Y-68180194D01*
X71819806Y-68180194D02*
X69552987Y-68180194D01*
X86460000Y-61500000D02*
X78500000Y-61500000D01*
X89840000Y-64880000D02*
X86460000Y-61500000D01*
X78500000Y-61500000D02*
X71819806Y-68180194D01*
X94920000Y-63890051D02*
X89455370Y-58425421D01*
X94920000Y-64880000D02*
X94920000Y-63890051D01*
X89455370Y-58425421D02*
X83853399Y-58425421D01*
X83853399Y-58425421D02*
X82779246Y-58425421D01*
X97460000Y-75000000D02*
X97420000Y-75000000D01*
X97420000Y-75000000D02*
X94920000Y-72500000D01*
X125000000Y-97420000D02*
X127500000Y-94920000D01*
X125000000Y-97460000D02*
X125000000Y-97420000D01*
X136109949Y-94920000D02*
X141574579Y-89455370D01*
X135120000Y-94920000D02*
X136109949Y-94920000D01*
X141574579Y-89455370D02*
X141574579Y-83853399D01*
X141574579Y-83853399D02*
X141574579Y-82779246D01*
X121500000Y-138500000D02*
X128180194Y-131819806D01*
X128180194Y-131819806D02*
X130447013Y-131819806D01*
X110160000Y-135120000D02*
X113540000Y-138500000D01*
X130447013Y-131819806D02*
X131819805Y-131819806D01*
X113540000Y-138500000D02*
X121500000Y-138500000D01*
X107660000Y-125000000D02*
X110160000Y-127500000D01*
X107620000Y-125000000D02*
X107660000Y-125000000D01*
X100000000Y-75000000D02*
X99960000Y-75000000D01*
X99960000Y-75000000D02*
X97460000Y-72500000D01*
X105080000Y-125000000D02*
X105120000Y-125000000D01*
X105120000Y-125000000D02*
X107620000Y-127500000D01*
X125000000Y-84760000D02*
X125000000Y-84720000D01*
X125000000Y-84720000D02*
X127500000Y-82220000D01*
X135120000Y-82220000D02*
X135120000Y-79620000D01*
X111364663Y-55864663D02*
X108779065Y-55864663D01*
X135120000Y-79620000D02*
X111364663Y-55864663D01*
X136500000Y-79500000D02*
X136500000Y-83380000D01*
X136500000Y-83380000D02*
X135120000Y-84760000D01*
X117213000Y-58433177D02*
X117213000Y-60213000D01*
X117213000Y-60213000D02*
X136500000Y-79500000D01*
X125000000Y-87300000D02*
X125000000Y-87260000D01*
X125000000Y-87260000D02*
X127500000Y-84760000D01*
X125000000Y-89800000D02*
X127500000Y-87300000D01*
X125000000Y-89840000D02*
X125000000Y-89800000D01*
X137500000Y-84920000D02*
X137500000Y-79000000D01*
X137500000Y-79000000D02*
X125000661Y-66500661D01*
X125000661Y-66500661D02*
X125000661Y-63766289D01*
X125000661Y-63766289D02*
X125000661Y-62583868D01*
X135120000Y-87300000D02*
X137500000Y-84920000D01*
X135120000Y-89840000D02*
X138500000Y-86460000D01*
X138500000Y-86460000D02*
X138500000Y-78500000D01*
X131819806Y-69552987D02*
X131819806Y-68180195D01*
X138500000Y-78500000D02*
X131819806Y-71819806D01*
X131819806Y-71819806D02*
X131819806Y-69552987D01*
X125000000Y-92340000D02*
X127500000Y-89840000D01*
X125000000Y-92380000D02*
X125000000Y-92340000D01*
X125000000Y-94920000D02*
X125000000Y-94880000D01*
X125000000Y-94880000D02*
X127500000Y-92380000D01*
X135120000Y-92380000D02*
X139500000Y-88000000D01*
X139500000Y-88000000D02*
X139500000Y-77083207D01*
X138135706Y-75718913D02*
X137416133Y-74999340D01*
X139500000Y-77083207D02*
X138135706Y-75718913D01*
X102540000Y-137896274D02*
X108779064Y-144135338D01*
X102540000Y-135120000D02*
X102540000Y-137896274D01*
X100040000Y-125000000D02*
X102540000Y-127500000D01*
X100000000Y-125000000D02*
X100040000Y-125000000D01*
X125000000Y-99960000D02*
X127500000Y-97460000D01*
X125000000Y-100000000D02*
X125000000Y-99960000D01*
X135120000Y-97460000D02*
X137896274Y-97460000D01*
X137896274Y-97460000D02*
X144135338Y-91220936D01*
X135120000Y-100000000D02*
X145000000Y-100000000D01*
X115280000Y-125000000D02*
X117780000Y-127500000D01*
X115240000Y-125000000D02*
X115280000Y-125000000D01*
X120380000Y-135120000D02*
X144135337Y-111364663D01*
X117780000Y-135120000D02*
X120380000Y-135120000D01*
X144135337Y-111364663D02*
X144135337Y-108779065D01*
X116620000Y-136500000D02*
X115240000Y-135120000D01*
X141566823Y-117213000D02*
X139787000Y-117213000D01*
X139787000Y-117213000D02*
X120500000Y-136500000D01*
X120500000Y-136500000D02*
X116620000Y-136500000D01*
X112740000Y-125000000D02*
X115240000Y-127500000D01*
X112700000Y-125000000D02*
X112740000Y-125000000D01*
X110160000Y-125000000D02*
X110200000Y-125000000D01*
X110200000Y-125000000D02*
X112700000Y-127500000D01*
X136233711Y-125000661D02*
X137416132Y-125000661D01*
X112700000Y-135120000D02*
X115080000Y-137500000D01*
X121000000Y-137500000D02*
X133499339Y-125000661D01*
X133499339Y-125000661D02*
X136233711Y-125000661D01*
X115080000Y-137500000D02*
X121000000Y-137500000D01*
X64880000Y-100000000D02*
X55000000Y-100000000D01*
D29*
X109274593Y-53373467D02*
X118192770Y-56078767D01*
X118192770Y-56078767D02*
X126411808Y-60471934D01*
X126411808Y-60471934D02*
X133615856Y-66384143D01*
X133615856Y-66384143D02*
X139528065Y-73588191D01*
X139528065Y-73588191D02*
X143921232Y-81807229D01*
X143921232Y-81807229D02*
X146626532Y-90725406D01*
X146626532Y-90725406D02*
X147540000Y-100000000D01*
X146626532Y-109274593D02*
X143921232Y-118192770D01*
X143921232Y-118192770D02*
X139528065Y-126411808D01*
X139528065Y-126411808D02*
X133615856Y-133615856D01*
X133615856Y-133615856D02*
X126411808Y-139528065D01*
X126411808Y-139528065D02*
X118192770Y-143921232D01*
X118192770Y-143921232D02*
X109274593Y-146626532D01*
X109274593Y-146626532D02*
X100000000Y-147540000D01*
X90725406Y-146626532D02*
X81807229Y-143921232D01*
X81807229Y-143921232D02*
X73588191Y-139528065D01*
X73588191Y-139528065D02*
X66384143Y-133615856D01*
X66384143Y-133615856D02*
X60471934Y-126411808D01*
X60471934Y-126411808D02*
X56078767Y-118192770D01*
X56078767Y-118192770D02*
X53373467Y-109274593D01*
X53373467Y-109274593D02*
X52460000Y-100000000D01*
X53373467Y-90725406D02*
X56078767Y-81807229D01*
X56078767Y-81807229D02*
X60471934Y-73588191D01*
X60471934Y-73588191D02*
X66384143Y-66384143D01*
X66384143Y-66384143D02*
X73588191Y-60471934D01*
X73588191Y-60471934D02*
X81807229Y-56078767D01*
X81807229Y-56078767D02*
X90725406Y-53373467D01*
X90725406Y-53373467D02*
X100000000Y-52460000D01*
X103000000Y-52755473D02*
X109274593Y-53373467D01*
X100000000Y-52460000D02*
X103000000Y-52755473D01*
X52952457Y-95000000D02*
X53373467Y-90725406D01*
X52460000Y-100000000D02*
X52952457Y-95000000D01*
X82500000Y-99880000D02*
X82620000Y-100000000D01*
X147047542Y-105000000D02*
X146626532Y-109274593D01*
X147540000Y-100000000D02*
X147047542Y-105000000D01*
X81369999Y-116490001D02*
X82620000Y-115240000D01*
X81119999Y-116740001D02*
X81369999Y-116490001D01*
X81119999Y-118500001D02*
X81119999Y-116740001D01*
X82119998Y-119500000D02*
X81119999Y-118500001D01*
X118500000Y-119000000D02*
X119500000Y-118000000D01*
X115240000Y-117380000D02*
X116860000Y-119000000D01*
X116860000Y-119000000D02*
X118500000Y-119000000D01*
X80299990Y-102320010D02*
X82620000Y-100000000D01*
X80000000Y-102620000D02*
X80299990Y-102320010D01*
X82620000Y-115240000D02*
X80000000Y-112620000D01*
X80000000Y-112620000D02*
X80000000Y-102620000D01*
X100799999Y-118179999D02*
X100000000Y-117380000D01*
X102620000Y-120000000D02*
X100799999Y-118179999D01*
X115240000Y-117380000D02*
X112620000Y-120000000D01*
X112620000Y-120000000D02*
X102620000Y-120000000D01*
X99200001Y-81820001D02*
X100000000Y-82620000D01*
X97380000Y-80000000D02*
X99200001Y-81820001D01*
X84760000Y-82620000D02*
X87380000Y-80000000D01*
X87380000Y-80000000D02*
X97380000Y-80000000D01*
X119330011Y-98049989D02*
X117380000Y-100000000D01*
X120000000Y-97380000D02*
X119330011Y-98049989D01*
X117380000Y-84760000D02*
X120000000Y-87380000D01*
X120000000Y-87380000D02*
X120000000Y-97380000D01*
X103720000Y-82620000D02*
X103750000Y-82650000D01*
X82400000Y-99780000D02*
X82620000Y-100000000D01*
X82400000Y-96250000D02*
X82400000Y-99780000D01*
X83509999Y-81369999D02*
X84760000Y-82620000D01*
X82400000Y-85150000D02*
X80500000Y-83250000D01*
X82400000Y-96250000D02*
X82400000Y-85150000D01*
X80500000Y-83250000D02*
X80500000Y-82000000D01*
X80500000Y-82000000D02*
X81500000Y-81000000D01*
X81500000Y-81000000D02*
X83140000Y-81000000D01*
X83140000Y-81000000D02*
X83509999Y-81369999D01*
X99780000Y-117600000D02*
X100000000Y-117380000D01*
X96250000Y-117600000D02*
X99780000Y-117600000D01*
X96250000Y-117600000D02*
X85150000Y-117600000D01*
X83250000Y-119500000D02*
X82119998Y-119500000D01*
X85150000Y-117600000D02*
X83250000Y-119500000D01*
X117600000Y-103750000D02*
X117600000Y-114600000D01*
X117600000Y-114600000D02*
X119500000Y-116500000D01*
X117600000Y-100220000D02*
X117380000Y-100000000D01*
X117600000Y-103750000D02*
X117600000Y-100220000D01*
X95000000Y-147047542D02*
X90725406Y-146626532D01*
X100000000Y-147540000D02*
X95000000Y-147047542D01*
X103380000Y-82620000D02*
X103500000Y-82500000D01*
X100000000Y-82620000D02*
X103380000Y-82620000D01*
X103500000Y-82500000D02*
X105000000Y-81000000D01*
X114640000Y-87500000D02*
X117380000Y-84760000D01*
X113870000Y-87500000D02*
X114640000Y-87500000D01*
X122250000Y-112540000D02*
X123790000Y-112540000D01*
X145000000Y-105000000D02*
X147047542Y-105000000D01*
X134750000Y-115250000D02*
X145000000Y-105000000D01*
X126500000Y-115250000D02*
X134750000Y-115250000D01*
X122250000Y-112540000D02*
X121000000Y-112540000D01*
X105000000Y-81000000D02*
X105000000Y-77000000D01*
X107250000Y-74750000D02*
X107250000Y-70250000D01*
X105000000Y-77000000D02*
X107250000Y-74750000D01*
X110870000Y-70250000D02*
X111000000Y-70380000D01*
X107250000Y-70250000D02*
X110870000Y-70250000D01*
X106450001Y-69450001D02*
X107250000Y-70250000D01*
X105449999Y-68449999D02*
X106450001Y-69450001D01*
X105449999Y-63307920D02*
X105449999Y-68449999D01*
X105797919Y-62960000D02*
X105449999Y-63307920D01*
X107000000Y-62960000D02*
X105797919Y-62960000D01*
D28*
X82130000Y-119510002D02*
X82130000Y-123000000D01*
X82119998Y-119500000D02*
X82130000Y-119510002D01*
X82130000Y-130370000D02*
X82000000Y-130500000D01*
X82130000Y-123000000D02*
X82130000Y-130370000D01*
D29*
X125000000Y-113750000D02*
X124500000Y-114250000D01*
X125450000Y-114250000D02*
X125475000Y-114275000D01*
X125000000Y-113750000D02*
X125475000Y-114275000D01*
X125475000Y-114275000D02*
X126500000Y-115250000D01*
X124500000Y-114250000D02*
X120750000Y-118000000D01*
X123790000Y-112540000D02*
X124500000Y-113250000D01*
X124500000Y-113250000D02*
X125000000Y-113750000D01*
X120750000Y-118000000D02*
X119500000Y-118000000D01*
X119500000Y-116500000D02*
X119500000Y-118000000D01*
D28*
X116580001Y-95719999D02*
X117380000Y-94920000D01*
X116129999Y-96170001D02*
X116580001Y-95719999D01*
X116129999Y-115629999D02*
X116129999Y-96170001D01*
X117780000Y-117380000D02*
X117780000Y-117280000D01*
X117780000Y-117280000D02*
X116129999Y-115629999D01*
X104280001Y-116580001D02*
X105080000Y-117380000D01*
X103829999Y-116129999D02*
X104280001Y-116580001D01*
X84270001Y-116129999D02*
X103829999Y-116129999D01*
X82620000Y-117780000D02*
X84270001Y-116129999D01*
X106250000Y-97500000D02*
X106250000Y-87500000D01*
X111000000Y-82750000D02*
X111000000Y-78000000D01*
X106250000Y-87500000D02*
X111000000Y-82750000D01*
X93750000Y-97500000D02*
X106250000Y-97500000D01*
D30*
X114349999Y-66349999D02*
X117250000Y-69250000D01*
X112080000Y-65500000D02*
X112929999Y-66349999D01*
X112929999Y-66349999D02*
X114349999Y-66349999D01*
X111000000Y-76950000D02*
X111000000Y-78000000D01*
X114874990Y-73075010D02*
X111000000Y-76950000D01*
X116985652Y-73075010D02*
X114874990Y-73075010D01*
X117530331Y-72530331D02*
X116985652Y-73075010D01*
D28*
X106000000Y-77920000D02*
X113540000Y-70380000D01*
X106000000Y-82250000D02*
X106000000Y-77920000D01*
X104000000Y-84250000D02*
X106000000Y-82250000D01*
X94920000Y-82620000D02*
X96550000Y-84250000D01*
X96550000Y-84250000D02*
X104000000Y-84250000D01*
D30*
X109540000Y-65500000D02*
X109540000Y-68040000D01*
X109540000Y-68040000D02*
X110750000Y-69250000D01*
X112410000Y-69250000D02*
X113540000Y-70380000D01*
X110750000Y-69250000D02*
X112410000Y-69250000D01*
D28*
X118179999Y-88099999D02*
X117380000Y-87300000D01*
X112700000Y-117380000D02*
X115000000Y-115080000D01*
X115000000Y-115080000D02*
X115000000Y-92909998D01*
X118630001Y-88550001D02*
X118179999Y-88099999D01*
X115000000Y-92909998D02*
X116819997Y-91090001D01*
X116819997Y-91090001D02*
X117980001Y-91090001D01*
X117980001Y-91090001D02*
X118630001Y-90440001D01*
X118630001Y-90440001D02*
X118630001Y-88550001D01*
X111900001Y-118179999D02*
X112700000Y-117380000D01*
X111449999Y-118630001D02*
X111900001Y-118179999D01*
X107090002Y-115000000D02*
X108909999Y-116819997D01*
X108909999Y-116819997D02*
X108909999Y-117980001D01*
X82620000Y-112700000D02*
X84920000Y-115000000D01*
X108909999Y-117980001D02*
X109559999Y-118630001D01*
X109559999Y-118630001D02*
X111449999Y-118630001D01*
X84920000Y-115000000D02*
X107090002Y-115000000D01*
X81000000Y-111080000D02*
X82620000Y-112700000D01*
X81000000Y-109500000D02*
X81000000Y-111080000D01*
X83590001Y-108909999D02*
X81590001Y-108909999D01*
X85000000Y-107500000D02*
X83590001Y-108909999D01*
X81590001Y-108909999D02*
X81000000Y-109500000D01*
X87300000Y-82620000D02*
X85000000Y-84920000D01*
X85000000Y-84920000D02*
X85000000Y-107500000D01*
X88099999Y-81820001D02*
X87300000Y-82620000D01*
X88550001Y-81369999D02*
X88099999Y-81820001D01*
X90440001Y-81369999D02*
X88550001Y-81369999D01*
X91090001Y-82019999D02*
X90440001Y-81369999D01*
X92909998Y-85000000D02*
X91090001Y-83180003D01*
X114710000Y-71750000D02*
X113500000Y-71750000D01*
X116080000Y-70380000D02*
X114710000Y-71750000D01*
X113500000Y-71750000D02*
X106750000Y-78500000D01*
X106750000Y-78500000D02*
X106750000Y-82750000D01*
X106750000Y-82750000D02*
X104500000Y-85000000D01*
X104500000Y-85000000D02*
X92909998Y-85000000D01*
X91090001Y-83180003D02*
X91090001Y-82019999D01*
D30*
X110904999Y-67108589D02*
X113046410Y-69250000D01*
X110904999Y-65125997D02*
X110904999Y-67108589D01*
X110104001Y-64324999D02*
X110904999Y-65125997D01*
X107075001Y-64324999D02*
X110104001Y-64324999D01*
X107000000Y-65500000D02*
X107000000Y-64400000D01*
X107000000Y-64400000D02*
X107075001Y-64324999D01*
X114950000Y-69250000D02*
X116080000Y-70380000D01*
X113046410Y-69250000D02*
X114950000Y-69250000D01*
D28*
X110160000Y-116248630D02*
X110160000Y-117380000D01*
X107911370Y-114000000D02*
X110160000Y-116248630D01*
X110160000Y-116248630D02*
X114000000Y-112408630D01*
X116248630Y-89840000D02*
X117380000Y-89840000D01*
X114000000Y-92088630D02*
X116248630Y-89840000D01*
X114000000Y-112408630D02*
X114000000Y-92088630D01*
X82620000Y-110160000D02*
X83751370Y-110160000D01*
X87591370Y-114000000D02*
X88000000Y-114000000D01*
X83751370Y-110160000D02*
X87591370Y-114000000D01*
X88000000Y-114000000D02*
X107911370Y-114000000D01*
X83751370Y-110160000D02*
X86000000Y-107911370D01*
X89840000Y-83751370D02*
X89840000Y-82620000D01*
X89840000Y-83751370D02*
X86000000Y-87591370D01*
X86000000Y-87591370D02*
X86000000Y-107911370D01*
X117820001Y-71179999D02*
X118620000Y-70380000D01*
X116500000Y-72500000D02*
X117820001Y-71179999D01*
X89840000Y-83751370D02*
X91838630Y-85750000D01*
X105000000Y-85750000D02*
X107500000Y-83250000D01*
X107500000Y-83250000D02*
X107500000Y-79000000D01*
X107500000Y-79000000D02*
X114000000Y-72500000D01*
X91838630Y-85750000D02*
X105000000Y-85750000D01*
X114000000Y-72500000D02*
X116500000Y-72500000D01*
D30*
X118620000Y-69248630D02*
X118620000Y-70380000D01*
X113696369Y-64324999D02*
X118620000Y-69248630D01*
X110904999Y-64324999D02*
X113696369Y-64324999D01*
X109540000Y-62960000D02*
X110904999Y-64324999D01*
D28*
X89600000Y-123150000D02*
X89750000Y-123000000D01*
X89600000Y-130500000D02*
X89600000Y-123150000D01*
X91014213Y-130500000D02*
X89600000Y-130500000D01*
X92123872Y-130500000D02*
X91014213Y-130500000D01*
X96290000Y-126333872D02*
X92123872Y-130500000D01*
X96290000Y-126000000D02*
X96290000Y-126333872D01*
X90140000Y-119870000D02*
X90000000Y-119870000D01*
X95020000Y-124750000D02*
X90140000Y-119870000D01*
X95020000Y-126000000D02*
X95020000Y-124750000D01*
X112500000Y-81580000D02*
X116080000Y-78000000D01*
X112500000Y-109500000D02*
X112500000Y-81580000D01*
X90000000Y-112250000D02*
X109750000Y-112250000D01*
X109750000Y-112250000D02*
X112500000Y-109500000D01*
M02*
