G04 #@! TF.GenerationSoftware,KiCad,Pcbnew,(5.1.6)-1*
G04 #@! TF.CreationDate,2020-09-12T14:33:07+01:00*
G04 #@! TF.ProjectId,teatime,74656174-696d-4652-9e6b-696361645f70,rev?*
G04 #@! TF.SameCoordinates,Original*
G04 #@! TF.FileFunction,Legend,Top*
G04 #@! TF.FilePolarity,Positive*
%FSLAX46Y46*%
G04 Gerber Fmt 4.6, Leading zero omitted, Abs format (unit mm)*
G04 Created by KiCad (PCBNEW (5.1.6)-1) date 2020-09-12 14:33:07*
%MOMM*%
%LPD*%
G01*
G04 APERTURE LIST*
%ADD10C,0.120000*%
%ADD11C,0.150000*%
G04 APERTURE END LIST*
D10*
X101887221Y-91810000D02*
X102212779Y-91810000D01*
X101887221Y-90790000D02*
X102212779Y-90790000D01*
X100500000Y-118600000D02*
X100500000Y-119200000D01*
X98400000Y-117900000D02*
X99800000Y-117900000D01*
X97700000Y-119200000D02*
X97700000Y-118600000D01*
X99800000Y-119900000D02*
X98400000Y-119900000D01*
X100500000Y-119200000D02*
G75*
G02*
X99800000Y-119900000I-700000J0D01*
G01*
X99800000Y-117900000D02*
G75*
G02*
X100500000Y-118600000I0J-700000D01*
G01*
X97700000Y-118600000D02*
G75*
G02*
X98400000Y-117900000I700000J0D01*
G01*
X98400000Y-119900000D02*
G75*
G02*
X97700000Y-119200000I0J700000D01*
G01*
X104400000Y-128980000D02*
X104400000Y-128225000D01*
X93855000Y-132150000D02*
X93855000Y-133200000D01*
X106145000Y-132150000D02*
X106145000Y-133200000D01*
X104400000Y-128980000D02*
X95600000Y-128980000D01*
X114577960Y-92577960D02*
X117017479Y-90138442D01*
X114577960Y-92577960D02*
X113199102Y-93956819D01*
X107422040Y-85422040D02*
X108800898Y-84043181D01*
X107422040Y-85422040D02*
X106043181Y-86800898D01*
X103037221Y-111990000D02*
X103362779Y-111990000D01*
X103037221Y-113010000D02*
X103362779Y-113010000D01*
X99000000Y-113760000D02*
X101685000Y-113760000D01*
X101685000Y-113760000D02*
X101685000Y-111840000D01*
X101685000Y-111840000D02*
X99000000Y-111840000D01*
X103838158Y-75783473D02*
X103314341Y-78416881D01*
X103314341Y-78416881D02*
X105197449Y-78791455D01*
X105197449Y-78791455D02*
X105721266Y-76158046D01*
X108488819Y-76997574D02*
X107461314Y-79478191D01*
X107461314Y-79478191D02*
X109235163Y-80212943D01*
X109235163Y-80212943D02*
X110262668Y-77732327D01*
X112813259Y-79095647D02*
X111321553Y-81328143D01*
X111321553Y-81328143D02*
X112917975Y-82394838D01*
X112917975Y-82394838D02*
X114409681Y-80162342D01*
X116645293Y-81997061D02*
X114746712Y-83895642D01*
X114746712Y-83895642D02*
X116104357Y-85253287D01*
X116104357Y-85253287D02*
X118002938Y-83354706D01*
X119837657Y-85590318D02*
X117605161Y-87082024D01*
X117605161Y-87082024D02*
X118671856Y-88678446D01*
X118671856Y-88678446D02*
X120904352Y-87186740D01*
X122267672Y-89737331D02*
X119787056Y-90764836D01*
X119787056Y-90764836D02*
X120521808Y-92538685D01*
X120521808Y-92538685D02*
X123002425Y-91511180D01*
X123841953Y-94278733D02*
X121208544Y-94802550D01*
X121208544Y-94802550D02*
X121583118Y-96685658D01*
X121583118Y-96685658D02*
X124216526Y-96161841D01*
X124500000Y-99040000D02*
X121815000Y-99040000D01*
X121815000Y-99040000D02*
X121815000Y-100960000D01*
X121815000Y-100960000D02*
X124500000Y-100960000D01*
X124216526Y-103838158D02*
X121583118Y-103314341D01*
X121583118Y-103314341D02*
X121208544Y-105197449D01*
X121208544Y-105197449D02*
X123841953Y-105721266D01*
X123002425Y-108488819D02*
X120521808Y-107461314D01*
X120521808Y-107461314D02*
X119787056Y-109235163D01*
X119787056Y-109235163D02*
X122267672Y-110262668D01*
X120904352Y-112813259D02*
X118671856Y-111321553D01*
X118671856Y-111321553D02*
X117605161Y-112917975D01*
X117605161Y-112917975D02*
X119837657Y-114409681D01*
X118002938Y-116645293D02*
X116104357Y-114746712D01*
X116104357Y-114746712D02*
X114746712Y-116104357D01*
X114746712Y-116104357D02*
X116645293Y-118002938D01*
X114409681Y-119837657D02*
X112917975Y-117605161D01*
X112917975Y-117605161D02*
X111321553Y-118671856D01*
X111321553Y-118671856D02*
X112813259Y-120904352D01*
X110262668Y-122267672D02*
X109235163Y-119787056D01*
X109235163Y-119787056D02*
X107461314Y-120521808D01*
X107461314Y-120521808D02*
X108488819Y-123002425D01*
X105721266Y-123841953D02*
X105197449Y-121208544D01*
X105197449Y-121208544D02*
X103314341Y-121583118D01*
X103314341Y-121583118D02*
X103838158Y-124216526D01*
X100960000Y-124500000D02*
X100960000Y-121815000D01*
X100960000Y-121815000D02*
X99040000Y-121815000D01*
X99040000Y-121815000D02*
X99040000Y-124500000D01*
X96161841Y-124216526D02*
X96685658Y-121583118D01*
X96685658Y-121583118D02*
X94802550Y-121208544D01*
X94802550Y-121208544D02*
X94278733Y-123841953D01*
X91511180Y-123002425D02*
X92538685Y-120521808D01*
X92538685Y-120521808D02*
X90764836Y-119787056D01*
X90764836Y-119787056D02*
X89737331Y-122267672D01*
X87186740Y-120904352D02*
X88678446Y-118671856D01*
X88678446Y-118671856D02*
X87082024Y-117605161D01*
X87082024Y-117605161D02*
X85590318Y-119837657D01*
X83354706Y-118002938D02*
X85253287Y-116104357D01*
X85253287Y-116104357D02*
X83895642Y-114746712D01*
X83895642Y-114746712D02*
X81997061Y-116645293D01*
X80162342Y-114409681D02*
X82394838Y-112917975D01*
X82394838Y-112917975D02*
X81328143Y-111321553D01*
X81328143Y-111321553D02*
X79095647Y-112813259D01*
X77732327Y-110262668D02*
X80212943Y-109235163D01*
X80212943Y-109235163D02*
X79478191Y-107461314D01*
X79478191Y-107461314D02*
X76997574Y-108488819D01*
X76158046Y-105721266D02*
X78791455Y-105197449D01*
X78791455Y-105197449D02*
X78416881Y-103314341D01*
X78416881Y-103314341D02*
X75783473Y-103838158D01*
X75500000Y-100960000D02*
X78185000Y-100960000D01*
X78185000Y-100960000D02*
X78185000Y-99040000D01*
X78185000Y-99040000D02*
X75500000Y-99040000D01*
X75783473Y-96161841D02*
X78416881Y-96685658D01*
X78416881Y-96685658D02*
X78791455Y-94802550D01*
X78791455Y-94802550D02*
X76158046Y-94278733D01*
X76997574Y-91511180D02*
X79478191Y-92538685D01*
X79478191Y-92538685D02*
X80212943Y-90764836D01*
X80212943Y-90764836D02*
X77732327Y-89737331D01*
X79095647Y-87186740D02*
X81328143Y-88678446D01*
X81328143Y-88678446D02*
X82394838Y-87082024D01*
X82394838Y-87082024D02*
X80162342Y-85590318D01*
X81997061Y-83354706D02*
X83895642Y-85253287D01*
X83895642Y-85253287D02*
X85253287Y-83895642D01*
X85253287Y-83895642D02*
X83354706Y-81997061D01*
X85590318Y-80162342D02*
X87082024Y-82394838D01*
X87082024Y-82394838D02*
X88678446Y-81328143D01*
X88678446Y-81328143D02*
X87186740Y-79095647D01*
X89737331Y-77732327D02*
X90764836Y-80212943D01*
X90764836Y-80212943D02*
X92538685Y-79478191D01*
X92538685Y-79478191D02*
X91511180Y-76997574D01*
X94278733Y-76158046D02*
X94802550Y-78791455D01*
X94802550Y-78791455D02*
X96685658Y-78416881D01*
X96685658Y-78416881D02*
X96161841Y-75783473D01*
X99040000Y-75500000D02*
X99040000Y-78185000D01*
X99040000Y-78185000D02*
X100960000Y-78185000D01*
X100960000Y-78185000D02*
X100960000Y-75500000D01*
X103550000Y-100800000D02*
X103550000Y-99300000D01*
X102300000Y-96800000D02*
X97800000Y-96800000D01*
X96550000Y-99300000D02*
X96550000Y-100800000D01*
X97800000Y-103300000D02*
X102300000Y-103300000D01*
D11*
X102550000Y-82750000D02*
X102550000Y-81000000D01*
X97245000Y-82750000D02*
X97245000Y-88250000D01*
X102755000Y-82750000D02*
X102755000Y-88250000D01*
X97245000Y-82750000D02*
X97545000Y-82750000D01*
X97245000Y-88250000D02*
X97545000Y-88250000D01*
X102755000Y-88250000D02*
X102455000Y-88250000D01*
X102755000Y-82750000D02*
X102550000Y-82750000D01*
D10*
X92577960Y-85422040D02*
X90138442Y-82982521D01*
X92577960Y-85422040D02*
X93956819Y-86800898D01*
X85422040Y-92577960D02*
X84043181Y-91199102D01*
X85422040Y-92577960D02*
X86800898Y-93956819D01*
X104356043Y-78935065D02*
X104036741Y-78871552D01*
X104157051Y-79935466D02*
X103837749Y-79871953D01*
X108381909Y-80189643D02*
X108081132Y-80065058D01*
X107991572Y-81132000D02*
X107690795Y-81007415D01*
X112085661Y-82205524D02*
X111814969Y-82024653D01*
X111518979Y-83053623D02*
X111248287Y-82872752D01*
X115324969Y-84905235D02*
X115094764Y-84675030D01*
X114603720Y-85626484D02*
X114373515Y-85396279D01*
X117975346Y-88185030D02*
X117794475Y-87914338D01*
X117127247Y-88751712D02*
X116946376Y-88481020D01*
X119934941Y-91918867D02*
X119810356Y-91618090D01*
X118992584Y-92309204D02*
X118867999Y-92008427D01*
X121128447Y-95963258D02*
X121064934Y-95643956D01*
X120128046Y-96162250D02*
X120064533Y-95842948D01*
X121510000Y-100162779D02*
X121510000Y-99837221D01*
X120490000Y-100162779D02*
X120490000Y-99837221D01*
X121064934Y-104356043D02*
X121128447Y-104036741D01*
X120064533Y-104157051D02*
X120128046Y-103837749D01*
X119810356Y-108381909D02*
X119934941Y-108081132D01*
X118867999Y-107991572D02*
X118992584Y-107690795D01*
X117794475Y-112085661D02*
X117975346Y-111814969D01*
X116946376Y-111518979D02*
X117127247Y-111248287D01*
X115094764Y-115324969D02*
X115324969Y-115094764D01*
X114373515Y-114603720D02*
X114603720Y-114373515D01*
X111814969Y-117975346D02*
X112085661Y-117794475D01*
X111248287Y-117127247D02*
X111518979Y-116946376D01*
X108081132Y-119934941D02*
X108381909Y-119810356D01*
X107690795Y-118992584D02*
X107991572Y-118867999D01*
X104036741Y-121128447D02*
X104356043Y-121064934D01*
X103837749Y-120128046D02*
X104157051Y-120064533D01*
X99837221Y-121510000D02*
X100162779Y-121510000D01*
X99837221Y-120490000D02*
X100162779Y-120490000D01*
X95643956Y-121064934D02*
X95963258Y-121128447D01*
X95842948Y-120064533D02*
X96162250Y-120128046D01*
X91618090Y-119810356D02*
X91918867Y-119934941D01*
X92008427Y-118867999D02*
X92309204Y-118992584D01*
X87914338Y-117794475D02*
X88185030Y-117975346D01*
X88481020Y-116946376D02*
X88751712Y-117127247D01*
X84675030Y-115094764D02*
X84905235Y-115324969D01*
X85396279Y-114373515D02*
X85626484Y-114603720D01*
X82024653Y-111814969D02*
X82205524Y-112085661D01*
X82872752Y-111248287D02*
X83053623Y-111518979D01*
X80065058Y-108081132D02*
X80189643Y-108381909D01*
X81007415Y-107690795D02*
X81132000Y-107991572D01*
X78871552Y-104036741D02*
X78935065Y-104356043D01*
X79871953Y-103837749D02*
X79935466Y-104157051D01*
X78490000Y-99837221D02*
X78490000Y-100162779D01*
X79510000Y-99837221D02*
X79510000Y-100162779D01*
X78935065Y-95643956D02*
X78871552Y-95963258D01*
X79935466Y-95842948D02*
X79871953Y-96162250D01*
X80189643Y-91618090D02*
X80065058Y-91918867D01*
X81132000Y-92008427D02*
X81007415Y-92309204D01*
X82205524Y-87914338D02*
X82024653Y-88185030D01*
X83053623Y-88481020D02*
X82872752Y-88751712D01*
X84905235Y-84675030D02*
X84675030Y-84905235D01*
X85626484Y-85396279D02*
X85396279Y-85626484D01*
X88185030Y-82024653D02*
X87914338Y-82205524D01*
X88751712Y-82872752D02*
X88481020Y-83053623D01*
X91918867Y-80065058D02*
X91618090Y-80189643D01*
X92309204Y-81007415D02*
X92008427Y-81132000D01*
X95963258Y-78871552D02*
X95643956Y-78935065D01*
X96162250Y-79871953D02*
X95842948Y-79935466D01*
X100162779Y-78490000D02*
X99837221Y-78490000D01*
X100162779Y-79510000D02*
X99837221Y-79510000D01*
X107422040Y-114577960D02*
X109861558Y-117017479D01*
X107422040Y-114577960D02*
X106043181Y-113199102D01*
X114577960Y-107422040D02*
X115956819Y-108800898D01*
X114577960Y-107422040D02*
X113199102Y-106043181D01*
X85422040Y-107422040D02*
X82982521Y-109861558D01*
X85422040Y-107422040D02*
X86800898Y-106043181D01*
X92577960Y-114577960D02*
X91199102Y-115956819D01*
X92577960Y-114577960D02*
X93956819Y-113199102D01*
X100760000Y-117430000D02*
X99300000Y-117430000D01*
X100760000Y-114270000D02*
X98600000Y-114270000D01*
X100760000Y-114270000D02*
X100760000Y-115200000D01*
X100760000Y-117430000D02*
X100760000Y-116500000D01*
X104210000Y-88562779D02*
X104210000Y-88237221D01*
X103190000Y-88562779D02*
X103190000Y-88237221D01*
X104690000Y-114637221D02*
X104690000Y-114962779D01*
X105710000Y-114637221D02*
X105710000Y-114962779D01*
X114837221Y-95510000D02*
X115162779Y-95510000D01*
X114837221Y-94490000D02*
X115162779Y-94490000D01*
X85162779Y-104490000D02*
X84837221Y-104490000D01*
X85162779Y-105510000D02*
X84837221Y-105510000D01*
X95510000Y-85162779D02*
X95510000Y-84837221D01*
X94490000Y-85162779D02*
X94490000Y-84837221D01*
X98010000Y-116175279D02*
X98010000Y-115849721D01*
X96990000Y-116175279D02*
X96990000Y-115849721D01*
X101990000Y-116437221D02*
X101990000Y-116762779D01*
X103010000Y-116437221D02*
X103010000Y-116762779D01*
M02*
