G04 #@! TF.GenerationSoftware,KiCad,Pcbnew,(5.0.2)-1*
G04 #@! TF.CreationDate,2020-02-13T23:16:43+00:00*
G04 #@! TF.ProjectId,teatime,74656174-696d-4652-9e6b-696361645f70,rev?*
G04 #@! TF.SameCoordinates,Original*
G04 #@! TF.FileFunction,Paste,Top*
G04 #@! TF.FilePolarity,Positive*
%FSLAX46Y46*%
G04 Gerber Fmt 4.6, Leading zero omitted, Abs format (unit mm)*
G04 Created by KiCad (PCBNEW (5.0.2)-1) date 13/02/2020 23:16:43*
%MOMM*%
%LPD*%
G01*
G04 APERTURE LIST*
%ADD10C,0.100000*%
%ADD11C,1.250000*%
G04 APERTURE END LIST*
D10*
G04 #@! TO.C,C3*
G36*
X107149504Y-92026204D02*
X107173773Y-92029804D01*
X107197571Y-92035765D01*
X107220671Y-92044030D01*
X107242849Y-92054520D01*
X107263893Y-92067133D01*
X107283598Y-92081747D01*
X107301777Y-92098223D01*
X107318253Y-92116402D01*
X107332867Y-92136107D01*
X107345480Y-92157151D01*
X107355970Y-92179329D01*
X107364235Y-92202429D01*
X107370196Y-92226227D01*
X107373796Y-92250496D01*
X107375000Y-92275000D01*
X107375000Y-93025000D01*
X107373796Y-93049504D01*
X107370196Y-93073773D01*
X107364235Y-93097571D01*
X107355970Y-93120671D01*
X107345480Y-93142849D01*
X107332867Y-93163893D01*
X107318253Y-93183598D01*
X107301777Y-93201777D01*
X107283598Y-93218253D01*
X107263893Y-93232867D01*
X107242849Y-93245480D01*
X107220671Y-93255970D01*
X107197571Y-93264235D01*
X107173773Y-93270196D01*
X107149504Y-93273796D01*
X107125000Y-93275000D01*
X105875000Y-93275000D01*
X105850496Y-93273796D01*
X105826227Y-93270196D01*
X105802429Y-93264235D01*
X105779329Y-93255970D01*
X105757151Y-93245480D01*
X105736107Y-93232867D01*
X105716402Y-93218253D01*
X105698223Y-93201777D01*
X105681747Y-93183598D01*
X105667133Y-93163893D01*
X105654520Y-93142849D01*
X105644030Y-93120671D01*
X105635765Y-93097571D01*
X105629804Y-93073773D01*
X105626204Y-93049504D01*
X105625000Y-93025000D01*
X105625000Y-92275000D01*
X105626204Y-92250496D01*
X105629804Y-92226227D01*
X105635765Y-92202429D01*
X105644030Y-92179329D01*
X105654520Y-92157151D01*
X105667133Y-92136107D01*
X105681747Y-92116402D01*
X105698223Y-92098223D01*
X105716402Y-92081747D01*
X105736107Y-92067133D01*
X105757151Y-92054520D01*
X105779329Y-92044030D01*
X105802429Y-92035765D01*
X105826227Y-92029804D01*
X105850496Y-92026204D01*
X105875000Y-92025000D01*
X107125000Y-92025000D01*
X107149504Y-92026204D01*
X107149504Y-92026204D01*
G37*
D11*
X106500000Y-92650000D03*
D10*
G36*
X107149504Y-89226204D02*
X107173773Y-89229804D01*
X107197571Y-89235765D01*
X107220671Y-89244030D01*
X107242849Y-89254520D01*
X107263893Y-89267133D01*
X107283598Y-89281747D01*
X107301777Y-89298223D01*
X107318253Y-89316402D01*
X107332867Y-89336107D01*
X107345480Y-89357151D01*
X107355970Y-89379329D01*
X107364235Y-89402429D01*
X107370196Y-89426227D01*
X107373796Y-89450496D01*
X107375000Y-89475000D01*
X107375000Y-90225000D01*
X107373796Y-90249504D01*
X107370196Y-90273773D01*
X107364235Y-90297571D01*
X107355970Y-90320671D01*
X107345480Y-90342849D01*
X107332867Y-90363893D01*
X107318253Y-90383598D01*
X107301777Y-90401777D01*
X107283598Y-90418253D01*
X107263893Y-90432867D01*
X107242849Y-90445480D01*
X107220671Y-90455970D01*
X107197571Y-90464235D01*
X107173773Y-90470196D01*
X107149504Y-90473796D01*
X107125000Y-90475000D01*
X105875000Y-90475000D01*
X105850496Y-90473796D01*
X105826227Y-90470196D01*
X105802429Y-90464235D01*
X105779329Y-90455970D01*
X105757151Y-90445480D01*
X105736107Y-90432867D01*
X105716402Y-90418253D01*
X105698223Y-90401777D01*
X105681747Y-90383598D01*
X105667133Y-90363893D01*
X105654520Y-90342849D01*
X105644030Y-90320671D01*
X105635765Y-90297571D01*
X105629804Y-90273773D01*
X105626204Y-90249504D01*
X105625000Y-90225000D01*
X105625000Y-89475000D01*
X105626204Y-89450496D01*
X105629804Y-89426227D01*
X105635765Y-89402429D01*
X105644030Y-89379329D01*
X105654520Y-89357151D01*
X105667133Y-89336107D01*
X105681747Y-89316402D01*
X105698223Y-89298223D01*
X105716402Y-89281747D01*
X105736107Y-89267133D01*
X105757151Y-89254520D01*
X105779329Y-89244030D01*
X105802429Y-89235765D01*
X105826227Y-89229804D01*
X105850496Y-89226204D01*
X105875000Y-89225000D01*
X107125000Y-89225000D01*
X107149504Y-89226204D01*
X107149504Y-89226204D01*
G37*
D11*
X106500000Y-89850000D03*
G04 #@! TD*
D10*
G04 #@! TO.C,C1*
G36*
X111499504Y-62626204D02*
X111523773Y-62629804D01*
X111547571Y-62635765D01*
X111570671Y-62644030D01*
X111592849Y-62654520D01*
X111613893Y-62667133D01*
X111633598Y-62681747D01*
X111651777Y-62698223D01*
X111668253Y-62716402D01*
X111682867Y-62736107D01*
X111695480Y-62757151D01*
X111705970Y-62779329D01*
X111714235Y-62802429D01*
X111720196Y-62826227D01*
X111723796Y-62850496D01*
X111725000Y-62875000D01*
X111725000Y-64125000D01*
X111723796Y-64149504D01*
X111720196Y-64173773D01*
X111714235Y-64197571D01*
X111705970Y-64220671D01*
X111695480Y-64242849D01*
X111682867Y-64263893D01*
X111668253Y-64283598D01*
X111651777Y-64301777D01*
X111633598Y-64318253D01*
X111613893Y-64332867D01*
X111592849Y-64345480D01*
X111570671Y-64355970D01*
X111547571Y-64364235D01*
X111523773Y-64370196D01*
X111499504Y-64373796D01*
X111475000Y-64375000D01*
X110725000Y-64375000D01*
X110700496Y-64373796D01*
X110676227Y-64370196D01*
X110652429Y-64364235D01*
X110629329Y-64355970D01*
X110607151Y-64345480D01*
X110586107Y-64332867D01*
X110566402Y-64318253D01*
X110548223Y-64301777D01*
X110531747Y-64283598D01*
X110517133Y-64263893D01*
X110504520Y-64242849D01*
X110494030Y-64220671D01*
X110485765Y-64197571D01*
X110479804Y-64173773D01*
X110476204Y-64149504D01*
X110475000Y-64125000D01*
X110475000Y-62875000D01*
X110476204Y-62850496D01*
X110479804Y-62826227D01*
X110485765Y-62802429D01*
X110494030Y-62779329D01*
X110504520Y-62757151D01*
X110517133Y-62736107D01*
X110531747Y-62716402D01*
X110548223Y-62698223D01*
X110566402Y-62681747D01*
X110586107Y-62667133D01*
X110607151Y-62654520D01*
X110629329Y-62644030D01*
X110652429Y-62635765D01*
X110676227Y-62629804D01*
X110700496Y-62626204D01*
X110725000Y-62625000D01*
X111475000Y-62625000D01*
X111499504Y-62626204D01*
X111499504Y-62626204D01*
G37*
D11*
X111100000Y-63500000D03*
D10*
G36*
X114299504Y-62626204D02*
X114323773Y-62629804D01*
X114347571Y-62635765D01*
X114370671Y-62644030D01*
X114392849Y-62654520D01*
X114413893Y-62667133D01*
X114433598Y-62681747D01*
X114451777Y-62698223D01*
X114468253Y-62716402D01*
X114482867Y-62736107D01*
X114495480Y-62757151D01*
X114505970Y-62779329D01*
X114514235Y-62802429D01*
X114520196Y-62826227D01*
X114523796Y-62850496D01*
X114525000Y-62875000D01*
X114525000Y-64125000D01*
X114523796Y-64149504D01*
X114520196Y-64173773D01*
X114514235Y-64197571D01*
X114505970Y-64220671D01*
X114495480Y-64242849D01*
X114482867Y-64263893D01*
X114468253Y-64283598D01*
X114451777Y-64301777D01*
X114433598Y-64318253D01*
X114413893Y-64332867D01*
X114392849Y-64345480D01*
X114370671Y-64355970D01*
X114347571Y-64364235D01*
X114323773Y-64370196D01*
X114299504Y-64373796D01*
X114275000Y-64375000D01*
X113525000Y-64375000D01*
X113500496Y-64373796D01*
X113476227Y-64370196D01*
X113452429Y-64364235D01*
X113429329Y-64355970D01*
X113407151Y-64345480D01*
X113386107Y-64332867D01*
X113366402Y-64318253D01*
X113348223Y-64301777D01*
X113331747Y-64283598D01*
X113317133Y-64263893D01*
X113304520Y-64242849D01*
X113294030Y-64220671D01*
X113285765Y-64197571D01*
X113279804Y-64173773D01*
X113276204Y-64149504D01*
X113275000Y-64125000D01*
X113275000Y-62875000D01*
X113276204Y-62850496D01*
X113279804Y-62826227D01*
X113285765Y-62802429D01*
X113294030Y-62779329D01*
X113304520Y-62757151D01*
X113317133Y-62736107D01*
X113331747Y-62716402D01*
X113348223Y-62698223D01*
X113366402Y-62681747D01*
X113386107Y-62667133D01*
X113407151Y-62654520D01*
X113429329Y-62644030D01*
X113452429Y-62635765D01*
X113476227Y-62629804D01*
X113500496Y-62626204D01*
X113525000Y-62625000D01*
X114275000Y-62625000D01*
X114299504Y-62626204D01*
X114299504Y-62626204D01*
G37*
D11*
X113900000Y-63500000D03*
G04 #@! TD*
D10*
G04 #@! TO.C,C2*
G36*
X115799504Y-65126204D02*
X115823773Y-65129804D01*
X115847571Y-65135765D01*
X115870671Y-65144030D01*
X115892849Y-65154520D01*
X115913893Y-65167133D01*
X115933598Y-65181747D01*
X115951777Y-65198223D01*
X115968253Y-65216402D01*
X115982867Y-65236107D01*
X115995480Y-65257151D01*
X116005970Y-65279329D01*
X116014235Y-65302429D01*
X116020196Y-65326227D01*
X116023796Y-65350496D01*
X116025000Y-65375000D01*
X116025000Y-66625000D01*
X116023796Y-66649504D01*
X116020196Y-66673773D01*
X116014235Y-66697571D01*
X116005970Y-66720671D01*
X115995480Y-66742849D01*
X115982867Y-66763893D01*
X115968253Y-66783598D01*
X115951777Y-66801777D01*
X115933598Y-66818253D01*
X115913893Y-66832867D01*
X115892849Y-66845480D01*
X115870671Y-66855970D01*
X115847571Y-66864235D01*
X115823773Y-66870196D01*
X115799504Y-66873796D01*
X115775000Y-66875000D01*
X115025000Y-66875000D01*
X115000496Y-66873796D01*
X114976227Y-66870196D01*
X114952429Y-66864235D01*
X114929329Y-66855970D01*
X114907151Y-66845480D01*
X114886107Y-66832867D01*
X114866402Y-66818253D01*
X114848223Y-66801777D01*
X114831747Y-66783598D01*
X114817133Y-66763893D01*
X114804520Y-66742849D01*
X114794030Y-66720671D01*
X114785765Y-66697571D01*
X114779804Y-66673773D01*
X114776204Y-66649504D01*
X114775000Y-66625000D01*
X114775000Y-65375000D01*
X114776204Y-65350496D01*
X114779804Y-65326227D01*
X114785765Y-65302429D01*
X114794030Y-65279329D01*
X114804520Y-65257151D01*
X114817133Y-65236107D01*
X114831747Y-65216402D01*
X114848223Y-65198223D01*
X114866402Y-65181747D01*
X114886107Y-65167133D01*
X114907151Y-65154520D01*
X114929329Y-65144030D01*
X114952429Y-65135765D01*
X114976227Y-65129804D01*
X115000496Y-65126204D01*
X115025000Y-65125000D01*
X115775000Y-65125000D01*
X115799504Y-65126204D01*
X115799504Y-65126204D01*
G37*
D11*
X115400000Y-66000000D03*
D10*
G36*
X112999504Y-65126204D02*
X113023773Y-65129804D01*
X113047571Y-65135765D01*
X113070671Y-65144030D01*
X113092849Y-65154520D01*
X113113893Y-65167133D01*
X113133598Y-65181747D01*
X113151777Y-65198223D01*
X113168253Y-65216402D01*
X113182867Y-65236107D01*
X113195480Y-65257151D01*
X113205970Y-65279329D01*
X113214235Y-65302429D01*
X113220196Y-65326227D01*
X113223796Y-65350496D01*
X113225000Y-65375000D01*
X113225000Y-66625000D01*
X113223796Y-66649504D01*
X113220196Y-66673773D01*
X113214235Y-66697571D01*
X113205970Y-66720671D01*
X113195480Y-66742849D01*
X113182867Y-66763893D01*
X113168253Y-66783598D01*
X113151777Y-66801777D01*
X113133598Y-66818253D01*
X113113893Y-66832867D01*
X113092849Y-66845480D01*
X113070671Y-66855970D01*
X113047571Y-66864235D01*
X113023773Y-66870196D01*
X112999504Y-66873796D01*
X112975000Y-66875000D01*
X112225000Y-66875000D01*
X112200496Y-66873796D01*
X112176227Y-66870196D01*
X112152429Y-66864235D01*
X112129329Y-66855970D01*
X112107151Y-66845480D01*
X112086107Y-66832867D01*
X112066402Y-66818253D01*
X112048223Y-66801777D01*
X112031747Y-66783598D01*
X112017133Y-66763893D01*
X112004520Y-66742849D01*
X111994030Y-66720671D01*
X111985765Y-66697571D01*
X111979804Y-66673773D01*
X111976204Y-66649504D01*
X111975000Y-66625000D01*
X111975000Y-65375000D01*
X111976204Y-65350496D01*
X111979804Y-65326227D01*
X111985765Y-65302429D01*
X111994030Y-65279329D01*
X112004520Y-65257151D01*
X112017133Y-65236107D01*
X112031747Y-65216402D01*
X112048223Y-65198223D01*
X112066402Y-65181747D01*
X112086107Y-65167133D01*
X112107151Y-65154520D01*
X112129329Y-65144030D01*
X112152429Y-65135765D01*
X112176227Y-65129804D01*
X112200496Y-65126204D01*
X112225000Y-65125000D01*
X112975000Y-65125000D01*
X112999504Y-65126204D01*
X112999504Y-65126204D01*
G37*
D11*
X112600000Y-66000000D03*
G04 #@! TD*
M02*
