M48
; DRILL file {KiCad (5.1.5)-3} date 01/03/2020 19:19:34
; FORMAT={-:-/ absolute / inch / decimal}
; #@! TF.CreationDate,2020-03-01T19:19:34+00:00
; #@! TF.GenerationSoftware,Kicad,Pcbnew,(5.1.5)-3
; #@! TF.FileFunction,Plated,1,2,PTH
FMAT,2
INCH
T1C0.0118
T2C0.0276
T3C0.0295
T4C0.0315
T5C0.0354
T6C0.0394
T7C0.0472
%
G90
G05
T1
X4.6161Y-2.7264
X4.6272Y-2.8555
T2
X4.037Y-5.0197
X4.037Y-5.3197
X3.237Y-2.5543
X3.237Y-2.8543
X3.537Y-2.5543
X3.537Y-2.8543
X5.0197Y-3.437
X5.3197Y-3.437
X4.637Y-5.0197
X4.637Y-5.3197
X3.437Y-2.5543
X3.437Y-2.8543
X4.337Y-5.0197
X4.337Y-5.3197
X4.537Y-5.0197
X4.537Y-5.3197
X2.5543Y-4.437
X2.8543Y-4.437
X3.637Y-2.5543
X3.637Y-2.8543
X2.5543Y-3.937
X2.8543Y-3.937
X2.5543Y-4.037
X2.8543Y-4.037
X3.837Y-2.5543
X3.837Y-2.8543
X2.5543Y-4.337
X2.8543Y-4.337
X3.737Y-2.5543
X3.737Y-2.8543
X2.5543Y-4.537
X2.8543Y-4.537
X5.0197Y-3.637
X5.3197Y-3.637
X2.5543Y-4.137
X2.8543Y-4.137
X5.0197Y-3.937
X5.3197Y-3.937
X5.1772Y-4.4783
X5.2756Y-4.4783
X2.5543Y-4.237
X2.8543Y-4.237
X5.0197Y-3.237
X5.3197Y-3.237
X4.237Y-5.0197
X4.237Y-5.3197
X5.0197Y-3.337
X5.3197Y-3.337
X3.937Y-2.5543
X3.937Y-2.8543
X4.437Y-5.0197
X4.437Y-5.3197
X3.337Y-2.5543
X3.337Y-2.8543
X4.137Y-5.0197
X4.137Y-5.3197
X5.0197Y-3.737
X5.3197Y-3.737
X5.0197Y-3.537
X5.3197Y-3.537
X4.9213Y-4.4783
X5.0197Y-4.4783
X4.1831Y-3.4449
X4.4831Y-3.4449
X2.5543Y-4.637
X2.8543Y-4.637
X5.0197Y-3.837
X5.3197Y-3.837
X3.937Y-5.0197
X3.937Y-5.3197
X3.5433Y-4.4193
X3.5433Y-4.7193
X3.2335Y-4.8425
X3.5335Y-4.8425
T3
X4.7638Y-4.3307
X4.7638Y-4.3807
X4.7638Y-4.4307
X3.6909Y-4.9606
X3.7409Y-4.9606
X3.7909Y-4.9606
X5.4331Y-4.1339
X5.4331Y-4.2126
T4
X4.124Y-2.7657
X4.2224Y-2.7657
X2.9528Y-3.937
X2.9528Y-4.037
X2.9528Y-4.137
X2.9528Y-4.237
X2.9528Y-4.337
X2.9528Y-4.437
X2.9528Y-4.537
X2.9528Y-4.637
X3.2528Y-3.937
X3.2528Y-4.037
X3.2528Y-4.137
X3.2528Y-4.237
X3.2528Y-4.337
X3.2528Y-4.437
X3.2528Y-4.537
X3.2528Y-4.637
X4.6299Y-4.0846
X4.7283Y-4.0846
X3.937Y-4.6213
X3.937Y-4.9213
X4.037Y-4.6213
X4.037Y-4.9213
X4.137Y-4.6213
X4.137Y-4.9213
X4.237Y-4.6213
X4.237Y-4.9213
X4.337Y-4.6213
X4.337Y-4.9213
X4.437Y-4.6213
X4.437Y-4.9213
X4.537Y-4.6213
X4.537Y-4.9213
X4.637Y-4.6213
X4.637Y-4.9213
X4.6213Y-3.237
X4.6213Y-3.337
X4.6213Y-3.437
X4.6213Y-3.537
X4.6213Y-3.637
X4.6213Y-3.737
X4.6213Y-3.837
X4.6213Y-3.937
X4.9213Y-3.237
X4.9213Y-3.337
X4.9213Y-3.437
X4.9213Y-3.537
X4.9213Y-3.637
X4.9213Y-3.737
X4.9213Y-3.837
X4.9213Y-3.937
X3.7894Y-4.6299
X3.7894Y-4.7283
X3.237Y-2.9528
X3.237Y-3.2528
X3.337Y-2.9528
X3.337Y-3.2528
X3.437Y-2.9528
X3.437Y-3.2528
X3.537Y-2.9528
X3.537Y-3.2528
X3.637Y-2.9528
X3.637Y-3.2528
X3.737Y-2.9528
X3.737Y-3.2528
X3.837Y-2.9528
X3.837Y-3.2528
X3.937Y-2.9528
X3.937Y-3.2528
X4.0748Y-3.1496
X4.0748Y-3.248
X4.3701Y-2.7709
X4.3701Y-3.0709
X4.4701Y-2.7709
X4.4701Y-3.0709
X4.5701Y-2.7709
X4.5701Y-3.0709
X4.6701Y-2.7709
X4.6701Y-3.0709
X3.1457Y-3.7894
X3.2441Y-3.7894
T5
X2.3808Y-4.9768
X2.4639Y-4.9213
X5.6746Y-4.2826
X5.7727Y-4.3021
X4.615Y-2.3002
X4.6533Y-2.2078
X2.2078Y-3.2208
X2.3002Y-3.259
X2.2078Y-4.6533
X2.3002Y-4.615
X5.5738Y-3.259
X5.6662Y-3.2208
X4.9213Y-5.4101
X4.9768Y-5.4932
X2.1013Y-4.3021
X2.1994Y-4.2826
X3.2208Y-2.2078
X3.259Y-2.3002
X3.937Y-2.0654
X3.937Y-2.1654
X5.1898Y-5.1898
X5.2605Y-5.2605
X2.0654Y-3.937
X2.1654Y-3.937
X2.8972Y-5.4932
X2.9527Y-5.4101
X3.5719Y-2.1013
X3.5914Y-2.1994
X5.4101Y-4.9213
X5.4932Y-4.9768
X5.7087Y-3.937
X5.8087Y-3.937
X4.2826Y-5.6746
X4.3021Y-5.7727
X4.2826Y-2.1994
X4.3021Y-2.1013
X2.8972Y-2.3808
X2.9527Y-2.4639
X2.6135Y-2.6135
X2.6843Y-2.6843
X5.4101Y-2.9527
X5.4932Y-2.8972
X5.6746Y-3.5914
X5.7727Y-3.5719
X4.615Y-5.5738
X4.6533Y-5.6662
X3.5719Y-5.7727
X3.5914Y-5.6746
X3.2208Y-5.6662
X3.259Y-5.5738
X5.1898Y-2.6843
X5.2605Y-2.6135
X3.937Y-5.7087
X3.937Y-5.8087
X2.1013Y-3.5719
X2.1994Y-3.5914
X2.6135Y-5.2605
X2.6843Y-5.1898
X5.5738Y-4.615
X5.6662Y-4.6533
X4.9213Y-2.4639
X4.9768Y-2.3808
X2.3808Y-2.8972
X2.4639Y-2.9527
T6
X3.2283Y-5.1378
X3.5276Y-5.1378
X4.2126Y-2.4787
X4.2126Y-2.5787
X4.3126Y-2.4787
X4.3126Y-2.5787
X4.4126Y-2.4787
X4.4126Y-2.5787
T7
X3.6909Y-3.8386
X3.6909Y-4.0354
X4.1831Y-3.8386
X4.1831Y-4.0354
T0
M30
