G04 #@! TF.GenerationSoftware,KiCad,Pcbnew,(5.1.6)-1*
G04 #@! TF.CreationDate,2020-09-12T14:33:07+01:00*
G04 #@! TF.ProjectId,teatime,74656174-696d-4652-9e6b-696361645f70,rev?*
G04 #@! TF.SameCoordinates,Original*
G04 #@! TF.FileFunction,Soldermask,Bot*
G04 #@! TF.FilePolarity,Negative*
%FSLAX46Y46*%
G04 Gerber Fmt 4.6, Leading zero omitted, Abs format (unit mm)*
G04 Created by KiCad (PCBNEW (5.1.6)-1) date 2020-09-12 14:33:07*
%MOMM*%
%LPD*%
G01*
G04 APERTURE LIST*
%ADD10C,0.100000*%
G04 APERTURE END LIST*
D10*
G36*
X94496228Y-128313483D02*
G01*
X94684922Y-128370723D01*
X94858815Y-128463671D01*
X95011239Y-128588761D01*
X95136329Y-128741185D01*
X95229277Y-128915078D01*
X95286517Y-129103772D01*
X95301000Y-129250825D01*
X95301000Y-130949175D01*
X95286517Y-131096228D01*
X95229277Y-131284922D01*
X95136329Y-131458815D01*
X95011239Y-131611239D01*
X94858815Y-131736329D01*
X94684921Y-131829277D01*
X94496227Y-131886517D01*
X94300000Y-131905843D01*
X94103772Y-131886517D01*
X93915078Y-131829277D01*
X93741185Y-131736329D01*
X93588761Y-131611239D01*
X93463671Y-131458815D01*
X93370723Y-131284921D01*
X93313483Y-131096227D01*
X93299000Y-130949174D01*
X93299000Y-129250825D01*
X93313483Y-129103769D01*
X93370722Y-128915081D01*
X93463672Y-128741185D01*
X93588762Y-128588761D01*
X93741186Y-128463671D01*
X93915079Y-128370723D01*
X94103773Y-128313483D01*
X94300000Y-128294157D01*
X94496228Y-128313483D01*
G37*
G36*
X105896228Y-128313483D02*
G01*
X106084922Y-128370723D01*
X106258815Y-128463671D01*
X106411239Y-128588761D01*
X106536329Y-128741185D01*
X106629277Y-128915078D01*
X106686517Y-129103772D01*
X106701000Y-129250825D01*
X106701000Y-130949175D01*
X106686517Y-131096228D01*
X106629277Y-131284922D01*
X106536329Y-131458815D01*
X106411239Y-131611239D01*
X106258815Y-131736329D01*
X106084921Y-131829277D01*
X105896227Y-131886517D01*
X105700000Y-131905843D01*
X105503772Y-131886517D01*
X105315078Y-131829277D01*
X105141185Y-131736329D01*
X104988761Y-131611239D01*
X104863671Y-131458815D01*
X104770723Y-131284921D01*
X104713483Y-131096227D01*
X104699000Y-130949174D01*
X104699000Y-129250825D01*
X104713483Y-129103769D01*
X104770722Y-128915081D01*
X104863672Y-128741185D01*
X104988762Y-128588761D01*
X105141186Y-128463671D01*
X105315079Y-128370723D01*
X105503773Y-128313483D01*
X105700000Y-128294157D01*
X105896228Y-128313483D01*
G37*
G36*
X97836601Y-129514397D02*
G01*
X97875305Y-129522096D01*
X97907340Y-129535365D01*
X97984680Y-129567400D01*
X98083115Y-129633173D01*
X98166827Y-129716885D01*
X98232600Y-129815320D01*
X98277904Y-129924696D01*
X98301000Y-130040805D01*
X98301000Y-130159195D01*
X98277904Y-130275304D01*
X98232600Y-130384680D01*
X98166827Y-130483115D01*
X98083115Y-130566827D01*
X97984680Y-130632600D01*
X97907340Y-130664635D01*
X97875305Y-130677904D01*
X97836601Y-130685603D01*
X97759195Y-130701000D01*
X97640805Y-130701000D01*
X97563399Y-130685603D01*
X97524695Y-130677904D01*
X97492660Y-130664635D01*
X97415320Y-130632600D01*
X97316885Y-130566827D01*
X97233173Y-130483115D01*
X97167400Y-130384680D01*
X97122096Y-130275304D01*
X97099000Y-130159195D01*
X97099000Y-130040805D01*
X97122096Y-129924696D01*
X97167400Y-129815320D01*
X97233173Y-129716885D01*
X97316885Y-129633173D01*
X97415320Y-129567400D01*
X97492660Y-129535365D01*
X97524695Y-129522096D01*
X97563399Y-129514397D01*
X97640805Y-129499000D01*
X97759195Y-129499000D01*
X97836601Y-129514397D01*
G37*
G36*
X102436601Y-129514397D02*
G01*
X102475305Y-129522096D01*
X102507340Y-129535365D01*
X102584680Y-129567400D01*
X102683115Y-129633173D01*
X102766827Y-129716885D01*
X102832600Y-129815320D01*
X102877904Y-129924696D01*
X102901000Y-130040805D01*
X102901000Y-130159195D01*
X102877904Y-130275304D01*
X102832600Y-130384680D01*
X102766827Y-130483115D01*
X102683115Y-130566827D01*
X102584680Y-130632600D01*
X102507340Y-130664635D01*
X102475305Y-130677904D01*
X102436601Y-130685603D01*
X102359195Y-130701000D01*
X102240805Y-130701000D01*
X102163399Y-130685603D01*
X102124695Y-130677904D01*
X102092660Y-130664635D01*
X102015320Y-130632600D01*
X101916885Y-130566827D01*
X101833173Y-130483115D01*
X101767400Y-130384680D01*
X101722096Y-130275304D01*
X101699000Y-130159195D01*
X101699000Y-130040805D01*
X101722096Y-129924696D01*
X101767400Y-129815320D01*
X101833173Y-129716885D01*
X101916885Y-129633173D01*
X102015320Y-129567400D01*
X102092660Y-129535365D01*
X102124695Y-129522096D01*
X102163399Y-129514397D01*
X102240805Y-129499000D01*
X102359195Y-129499000D01*
X102436601Y-129514397D01*
G37*
G36*
X101601000Y-128651000D02*
G01*
X100399000Y-128651000D01*
X100399000Y-126049000D01*
X101601000Y-126049000D01*
X101601000Y-128651000D01*
G37*
G36*
X97101000Y-128651000D02*
G01*
X95899000Y-128651000D01*
X95899000Y-126049000D01*
X97101000Y-126049000D01*
X97101000Y-128651000D01*
G37*
G36*
X99601000Y-128651000D02*
G01*
X98399000Y-128651000D01*
X98399000Y-126049000D01*
X99601000Y-126049000D01*
X99601000Y-128651000D01*
G37*
G36*
X104101000Y-128651000D02*
G01*
X102899000Y-128651000D01*
X102899000Y-126049000D01*
X104101000Y-126049000D01*
X104101000Y-128651000D01*
G37*
G36*
X102593512Y-108503927D02*
G01*
X102742812Y-108533624D01*
X102906784Y-108601544D01*
X103054354Y-108700147D01*
X103179853Y-108825646D01*
X103278456Y-108973216D01*
X103346376Y-109137188D01*
X103381000Y-109311259D01*
X103381000Y-109488741D01*
X103346376Y-109662812D01*
X103278456Y-109826784D01*
X103179853Y-109974354D01*
X103054354Y-110099853D01*
X102906784Y-110198456D01*
X102742812Y-110266376D01*
X102593512Y-110296073D01*
X102568742Y-110301000D01*
X102391258Y-110301000D01*
X102366488Y-110296073D01*
X102217188Y-110266376D01*
X102053216Y-110198456D01*
X101905646Y-110099853D01*
X101780147Y-109974354D01*
X101681544Y-109826784D01*
X101613624Y-109662812D01*
X101579000Y-109488741D01*
X101579000Y-109311259D01*
X101613624Y-109137188D01*
X101681544Y-108973216D01*
X101780147Y-108825646D01*
X101905646Y-108700147D01*
X102053216Y-108601544D01*
X102217188Y-108533624D01*
X102366488Y-108503927D01*
X102391258Y-108499000D01*
X102568742Y-108499000D01*
X102593512Y-108503927D01*
G37*
G36*
X100053512Y-108503927D02*
G01*
X100202812Y-108533624D01*
X100366784Y-108601544D01*
X100514354Y-108700147D01*
X100639853Y-108825646D01*
X100738456Y-108973216D01*
X100806376Y-109137188D01*
X100841000Y-109311259D01*
X100841000Y-109488741D01*
X100806376Y-109662812D01*
X100738456Y-109826784D01*
X100639853Y-109974354D01*
X100514354Y-110099853D01*
X100366784Y-110198456D01*
X100202812Y-110266376D01*
X100053512Y-110296073D01*
X100028742Y-110301000D01*
X99851258Y-110301000D01*
X99826488Y-110296073D01*
X99677188Y-110266376D01*
X99513216Y-110198456D01*
X99365646Y-110099853D01*
X99240147Y-109974354D01*
X99141544Y-109826784D01*
X99073624Y-109662812D01*
X99039000Y-109488741D01*
X99039000Y-109311259D01*
X99073624Y-109137188D01*
X99141544Y-108973216D01*
X99240147Y-108825646D01*
X99365646Y-108700147D01*
X99513216Y-108601544D01*
X99677188Y-108533624D01*
X99826488Y-108503927D01*
X99851258Y-108499000D01*
X100028742Y-108499000D01*
X100053512Y-108503927D01*
G37*
G36*
X97513512Y-108503927D02*
G01*
X97662812Y-108533624D01*
X97826784Y-108601544D01*
X97974354Y-108700147D01*
X98099853Y-108825646D01*
X98198456Y-108973216D01*
X98266376Y-109137188D01*
X98301000Y-109311259D01*
X98301000Y-109488741D01*
X98266376Y-109662812D01*
X98198456Y-109826784D01*
X98099853Y-109974354D01*
X97974354Y-110099853D01*
X97826784Y-110198456D01*
X97662812Y-110266376D01*
X97513512Y-110296073D01*
X97488742Y-110301000D01*
X97311258Y-110301000D01*
X97286488Y-110296073D01*
X97137188Y-110266376D01*
X96973216Y-110198456D01*
X96825646Y-110099853D01*
X96700147Y-109974354D01*
X96601544Y-109826784D01*
X96533624Y-109662812D01*
X96499000Y-109488741D01*
X96499000Y-109311259D01*
X96533624Y-109137188D01*
X96601544Y-108973216D01*
X96700147Y-108825646D01*
X96825646Y-108700147D01*
X96973216Y-108601544D01*
X97137188Y-108533624D01*
X97286488Y-108503927D01*
X97311258Y-108499000D01*
X97488742Y-108499000D01*
X97513512Y-108503927D01*
G37*
G36*
X102588796Y-105962989D02*
G01*
X102742812Y-105993624D01*
X102906784Y-106061544D01*
X103054354Y-106160147D01*
X103179853Y-106285646D01*
X103278456Y-106433216D01*
X103346376Y-106597188D01*
X103381000Y-106771259D01*
X103381000Y-106948741D01*
X103346376Y-107122812D01*
X103278456Y-107286784D01*
X103179853Y-107434354D01*
X103054354Y-107559853D01*
X102906784Y-107658456D01*
X102742812Y-107726376D01*
X102594341Y-107755908D01*
X102568742Y-107761000D01*
X102391258Y-107761000D01*
X102365659Y-107755908D01*
X102217188Y-107726376D01*
X102053216Y-107658456D01*
X101905646Y-107559853D01*
X101780147Y-107434354D01*
X101681544Y-107286784D01*
X101613624Y-107122812D01*
X101579000Y-106948741D01*
X101579000Y-106771259D01*
X101613624Y-106597188D01*
X101681544Y-106433216D01*
X101780147Y-106285646D01*
X101905646Y-106160147D01*
X102053216Y-106061544D01*
X102217188Y-105993624D01*
X102371204Y-105962989D01*
X102391258Y-105959000D01*
X102568742Y-105959000D01*
X102588796Y-105962989D01*
G37*
G36*
X100048796Y-105962989D02*
G01*
X100202812Y-105993624D01*
X100366784Y-106061544D01*
X100514354Y-106160147D01*
X100639853Y-106285646D01*
X100738456Y-106433216D01*
X100806376Y-106597188D01*
X100841000Y-106771259D01*
X100841000Y-106948741D01*
X100806376Y-107122812D01*
X100738456Y-107286784D01*
X100639853Y-107434354D01*
X100514354Y-107559853D01*
X100366784Y-107658456D01*
X100202812Y-107726376D01*
X100054341Y-107755908D01*
X100028742Y-107761000D01*
X99851258Y-107761000D01*
X99825659Y-107755908D01*
X99677188Y-107726376D01*
X99513216Y-107658456D01*
X99365646Y-107559853D01*
X99240147Y-107434354D01*
X99141544Y-107286784D01*
X99073624Y-107122812D01*
X99039000Y-106948741D01*
X99039000Y-106771259D01*
X99073624Y-106597188D01*
X99141544Y-106433216D01*
X99240147Y-106285646D01*
X99365646Y-106160147D01*
X99513216Y-106061544D01*
X99677188Y-105993624D01*
X99831204Y-105962989D01*
X99851258Y-105959000D01*
X100028742Y-105959000D01*
X100048796Y-105962989D01*
G37*
G36*
X98158600Y-105962989D02*
G01*
X98191652Y-105973015D01*
X98222103Y-105989292D01*
X98248799Y-106011201D01*
X98270708Y-106037897D01*
X98286985Y-106068348D01*
X98297011Y-106101400D01*
X98301000Y-106141903D01*
X98301000Y-107578097D01*
X98297011Y-107618600D01*
X98286985Y-107651652D01*
X98270708Y-107682103D01*
X98248799Y-107708799D01*
X98222103Y-107730708D01*
X98191652Y-107746985D01*
X98158600Y-107757011D01*
X98118097Y-107761000D01*
X96681903Y-107761000D01*
X96641400Y-107757011D01*
X96608348Y-107746985D01*
X96577897Y-107730708D01*
X96551201Y-107708799D01*
X96529292Y-107682103D01*
X96513015Y-107651652D01*
X96502989Y-107618600D01*
X96499000Y-107578097D01*
X96499000Y-106141903D01*
X96502989Y-106101400D01*
X96513015Y-106068348D01*
X96529292Y-106037897D01*
X96551201Y-106011201D01*
X96577897Y-105989292D01*
X96608348Y-105973015D01*
X96641400Y-105962989D01*
X96681903Y-105959000D01*
X98118097Y-105959000D01*
X98158600Y-105962989D01*
G37*
G36*
X103606564Y-101289389D02*
G01*
X103797833Y-101368615D01*
X103797835Y-101368616D01*
X103939236Y-101463097D01*
X103969973Y-101483635D01*
X104116365Y-101630027D01*
X104231385Y-101802167D01*
X104310611Y-101993436D01*
X104351000Y-102196484D01*
X104351000Y-102403516D01*
X104310611Y-102606564D01*
X104231385Y-102797833D01*
X104231384Y-102797835D01*
X104116365Y-102969973D01*
X103969973Y-103116365D01*
X103797835Y-103231384D01*
X103797834Y-103231385D01*
X103797833Y-103231385D01*
X103606564Y-103310611D01*
X103403516Y-103351000D01*
X103196484Y-103351000D01*
X102993436Y-103310611D01*
X102802167Y-103231385D01*
X102802166Y-103231385D01*
X102802165Y-103231384D01*
X102630027Y-103116365D01*
X102483635Y-102969973D01*
X102368616Y-102797835D01*
X102368615Y-102797833D01*
X102289389Y-102606564D01*
X102249000Y-102403516D01*
X102249000Y-102196484D01*
X102289389Y-101993436D01*
X102368615Y-101802167D01*
X102483635Y-101630027D01*
X102630027Y-101483635D01*
X102660764Y-101463097D01*
X102802165Y-101368616D01*
X102802167Y-101368615D01*
X102993436Y-101289389D01*
X103196484Y-101249000D01*
X103403516Y-101249000D01*
X103606564Y-101289389D01*
G37*
G36*
X97106564Y-101289389D02*
G01*
X97297833Y-101368615D01*
X97297835Y-101368616D01*
X97439236Y-101463097D01*
X97469973Y-101483635D01*
X97616365Y-101630027D01*
X97731385Y-101802167D01*
X97810611Y-101993436D01*
X97851000Y-102196484D01*
X97851000Y-102403516D01*
X97810611Y-102606564D01*
X97731385Y-102797833D01*
X97731384Y-102797835D01*
X97616365Y-102969973D01*
X97469973Y-103116365D01*
X97297835Y-103231384D01*
X97297834Y-103231385D01*
X97297833Y-103231385D01*
X97106564Y-103310611D01*
X96903516Y-103351000D01*
X96696484Y-103351000D01*
X96493436Y-103310611D01*
X96302167Y-103231385D01*
X96302166Y-103231385D01*
X96302165Y-103231384D01*
X96130027Y-103116365D01*
X95983635Y-102969973D01*
X95868616Y-102797835D01*
X95868615Y-102797833D01*
X95789389Y-102606564D01*
X95749000Y-102403516D01*
X95749000Y-102196484D01*
X95789389Y-101993436D01*
X95868615Y-101802167D01*
X95983635Y-101630027D01*
X96130027Y-101483635D01*
X96160764Y-101463097D01*
X96302165Y-101368616D01*
X96302167Y-101368615D01*
X96493436Y-101289389D01*
X96696484Y-101249000D01*
X96903516Y-101249000D01*
X97106564Y-101289389D01*
G37*
G36*
X84375256Y-98391298D02*
G01*
X84481579Y-98412447D01*
X84782042Y-98536903D01*
X85052451Y-98717585D01*
X85282415Y-98947549D01*
X85463097Y-99217958D01*
X85587553Y-99518421D01*
X85651000Y-99837391D01*
X85651000Y-100162609D01*
X85587553Y-100481579D01*
X85463097Y-100782042D01*
X85282415Y-101052451D01*
X85052451Y-101282415D01*
X84782042Y-101463097D01*
X84481579Y-101587553D01*
X84375256Y-101608702D01*
X84162611Y-101651000D01*
X83837389Y-101651000D01*
X83624744Y-101608702D01*
X83518421Y-101587553D01*
X83217958Y-101463097D01*
X82947549Y-101282415D01*
X82717585Y-101052451D01*
X82536903Y-100782042D01*
X82412447Y-100481579D01*
X82349000Y-100162609D01*
X82349000Y-99837391D01*
X82412447Y-99518421D01*
X82536903Y-99217958D01*
X82717585Y-98947549D01*
X82947549Y-98717585D01*
X83217958Y-98536903D01*
X83518421Y-98412447D01*
X83624744Y-98391298D01*
X83837389Y-98349000D01*
X84162611Y-98349000D01*
X84375256Y-98391298D01*
G37*
G36*
X116375256Y-98391298D02*
G01*
X116481579Y-98412447D01*
X116782042Y-98536903D01*
X117052451Y-98717585D01*
X117282415Y-98947549D01*
X117463097Y-99217958D01*
X117587553Y-99518421D01*
X117651000Y-99837391D01*
X117651000Y-100162609D01*
X117587553Y-100481579D01*
X117463097Y-100782042D01*
X117282415Y-101052451D01*
X117052451Y-101282415D01*
X116782042Y-101463097D01*
X116481579Y-101587553D01*
X116375256Y-101608702D01*
X116162611Y-101651000D01*
X115837389Y-101651000D01*
X115624744Y-101608702D01*
X115518421Y-101587553D01*
X115217958Y-101463097D01*
X114947549Y-101282415D01*
X114717585Y-101052451D01*
X114536903Y-100782042D01*
X114412447Y-100481579D01*
X114349000Y-100162609D01*
X114349000Y-99837391D01*
X114412447Y-99518421D01*
X114536903Y-99217958D01*
X114717585Y-98947549D01*
X114947549Y-98717585D01*
X115217958Y-98536903D01*
X115518421Y-98412447D01*
X115624744Y-98391298D01*
X115837389Y-98349000D01*
X116162611Y-98349000D01*
X116375256Y-98391298D01*
G37*
G36*
X97106564Y-96789389D02*
G01*
X97297833Y-96868615D01*
X97297835Y-96868616D01*
X97469973Y-96983635D01*
X97616365Y-97130027D01*
X97731385Y-97302167D01*
X97810611Y-97493436D01*
X97851000Y-97696484D01*
X97851000Y-97903516D01*
X97810611Y-98106564D01*
X97731385Y-98297833D01*
X97731384Y-98297835D01*
X97616365Y-98469973D01*
X97469973Y-98616365D01*
X97297835Y-98731384D01*
X97297834Y-98731385D01*
X97297833Y-98731385D01*
X97106564Y-98810611D01*
X96903516Y-98851000D01*
X96696484Y-98851000D01*
X96493436Y-98810611D01*
X96302167Y-98731385D01*
X96302166Y-98731385D01*
X96302165Y-98731384D01*
X96130027Y-98616365D01*
X95983635Y-98469973D01*
X95868616Y-98297835D01*
X95868615Y-98297833D01*
X95789389Y-98106564D01*
X95749000Y-97903516D01*
X95749000Y-97696484D01*
X95789389Y-97493436D01*
X95868615Y-97302167D01*
X95983635Y-97130027D01*
X96130027Y-96983635D01*
X96302165Y-96868616D01*
X96302167Y-96868615D01*
X96493436Y-96789389D01*
X96696484Y-96749000D01*
X96903516Y-96749000D01*
X97106564Y-96789389D01*
G37*
G36*
X103606564Y-96789389D02*
G01*
X103797833Y-96868615D01*
X103797835Y-96868616D01*
X103969973Y-96983635D01*
X104116365Y-97130027D01*
X104231385Y-97302167D01*
X104310611Y-97493436D01*
X104351000Y-97696484D01*
X104351000Y-97903516D01*
X104310611Y-98106564D01*
X104231385Y-98297833D01*
X104231384Y-98297835D01*
X104116365Y-98469973D01*
X103969973Y-98616365D01*
X103797835Y-98731384D01*
X103797834Y-98731385D01*
X103797833Y-98731385D01*
X103606564Y-98810611D01*
X103403516Y-98851000D01*
X103196484Y-98851000D01*
X102993436Y-98810611D01*
X102802167Y-98731385D01*
X102802166Y-98731385D01*
X102802165Y-98731384D01*
X102630027Y-98616365D01*
X102483635Y-98469973D01*
X102368616Y-98297835D01*
X102368615Y-98297833D01*
X102289389Y-98106564D01*
X102249000Y-97903516D01*
X102249000Y-97696484D01*
X102289389Y-97493436D01*
X102368615Y-97302167D01*
X102483635Y-97130027D01*
X102630027Y-96983635D01*
X102802165Y-96868616D01*
X102802167Y-96868615D01*
X102993436Y-96789389D01*
X103196484Y-96749000D01*
X103403516Y-96749000D01*
X103606564Y-96789389D01*
G37*
M02*
