G04 #@! TF.GenerationSoftware,KiCad,Pcbnew,(5.0.2)-1*
G04 #@! TF.CreationDate,2020-02-13T23:16:43+00:00*
G04 #@! TF.ProjectId,teatime,74656174-696d-4652-9e6b-696361645f70,rev?*
G04 #@! TF.SameCoordinates,Original*
G04 #@! TF.FileFunction,Copper,L2,Bot*
G04 #@! TF.FilePolarity,Positive*
%FSLAX46Y46*%
G04 Gerber Fmt 4.6, Leading zero omitted, Abs format (unit mm)*
G04 Created by KiCad (PCBNEW (5.0.2)-1) date 13/02/2020 23:16:43*
%MOMM*%
%LPD*%
G01*
G04 APERTURE LIST*
G04 #@! TA.AperFunction,ComponentPad*
%ADD10R,1.050000X1.500000*%
G04 #@! TD*
G04 #@! TA.AperFunction,ComponentPad*
%ADD11O,1.050000X1.500000*%
G04 #@! TD*
G04 #@! TA.AperFunction,ComponentPad*
%ADD12O,1.400000X1.400000*%
G04 #@! TD*
G04 #@! TA.AperFunction,ComponentPad*
%ADD13C,1.400000*%
G04 #@! TD*
G04 #@! TA.AperFunction,ComponentPad*
%ADD14O,1.600000X1.600000*%
G04 #@! TD*
G04 #@! TA.AperFunction,ComponentPad*
%ADD15R,1.600000X1.600000*%
G04 #@! TD*
G04 #@! TA.AperFunction,ComponentPad*
%ADD16C,2.000000*%
G04 #@! TD*
G04 #@! TA.AperFunction,Conductor*
%ADD17C,0.100000*%
G04 #@! TD*
G04 #@! TA.AperFunction,ComponentPad*
%ADD18C,1.200000*%
G04 #@! TD*
G04 #@! TA.AperFunction,ComponentPad*
%ADD19O,1.200000X1.750000*%
G04 #@! TD*
G04 #@! TA.AperFunction,ComponentPad*
%ADD20C,1.800000*%
G04 #@! TD*
G04 #@! TA.AperFunction,ComponentPad*
%ADD21R,1.800000X1.800000*%
G04 #@! TD*
G04 #@! TA.AperFunction,Conductor*
%ADD22C,0.500000*%
G04 #@! TD*
G04 #@! TA.AperFunction,Conductor*
%ADD23C,0.254000*%
G04 #@! TD*
G04 APERTURE END LIST*
D10*
G04 #@! TO.P,U1,1*
G04 #@! TO.N,GND*
X112500000Y-70500000D03*
D11*
G04 #@! TO.P,U1,3*
G04 #@! TO.N,+3V3*
X115040000Y-70500000D03*
G04 #@! TO.P,U1,2*
G04 #@! TO.N,Net-(BT1-Pad1)*
X113770000Y-70500000D03*
G04 #@! TD*
D12*
G04 #@! TO.P,R32,2*
G04 #@! TO.N,Net-(D32-Pad1)*
X132580000Y-82500000D03*
D13*
G04 #@! TO.P,R32,1*
G04 #@! TO.N,Net-(R32-Pad1)*
X127500000Y-82500000D03*
G04 #@! TD*
D12*
G04 #@! TO.P,R31,2*
G04 #@! TO.N,Net-(D31-Pad1)*
X132580000Y-85000000D03*
D13*
G04 #@! TO.P,R31,1*
G04 #@! TO.N,Net-(R31-Pad1)*
X127500000Y-85000000D03*
G04 #@! TD*
D12*
G04 #@! TO.P,R30,2*
G04 #@! TO.N,Net-(D30-Pad1)*
X132580000Y-87500000D03*
D13*
G04 #@! TO.P,R30,1*
G04 #@! TO.N,Net-(R30-Pad1)*
X127500000Y-87500000D03*
G04 #@! TD*
D12*
G04 #@! TO.P,R29,2*
G04 #@! TO.N,Net-(D29-Pad1)*
X132580000Y-90000000D03*
D13*
G04 #@! TO.P,R29,1*
G04 #@! TO.N,Net-(R29-Pad1)*
X127500000Y-90000000D03*
G04 #@! TD*
D12*
G04 #@! TO.P,R28,2*
G04 #@! TO.N,Net-(D28-Pad1)*
X132580000Y-92500000D03*
D13*
G04 #@! TO.P,R28,1*
G04 #@! TO.N,Net-(R28-Pad1)*
X127500000Y-92500000D03*
G04 #@! TD*
D12*
G04 #@! TO.P,R27,2*
G04 #@! TO.N,Net-(D27-Pad1)*
X132580000Y-95000000D03*
D13*
G04 #@! TO.P,R27,1*
G04 #@! TO.N,Net-(R27-Pad1)*
X127500000Y-95000000D03*
G04 #@! TD*
D12*
G04 #@! TO.P,R26,2*
G04 #@! TO.N,Net-(D26-Pad1)*
X132580000Y-97500000D03*
D13*
G04 #@! TO.P,R26,1*
G04 #@! TO.N,Net-(R26-Pad1)*
X127500000Y-97500000D03*
G04 #@! TD*
D12*
G04 #@! TO.P,R25,2*
G04 #@! TO.N,Net-(D25-Pad1)*
X132580000Y-100000000D03*
D13*
G04 #@! TO.P,R25,1*
G04 #@! TO.N,Net-(R25-Pad1)*
X127500000Y-100000000D03*
G04 #@! TD*
D12*
G04 #@! TO.P,R24,2*
G04 #@! TO.N,Net-(D24-Pad1)*
X117500000Y-132580000D03*
D13*
G04 #@! TO.P,R24,1*
G04 #@! TO.N,Net-(R24-Pad1)*
X117500000Y-127500000D03*
G04 #@! TD*
D12*
G04 #@! TO.P,R23,2*
G04 #@! TO.N,Net-(D23-Pad1)*
X115000000Y-132580000D03*
D13*
G04 #@! TO.P,R23,1*
G04 #@! TO.N,Net-(R23-Pad1)*
X115000000Y-127500000D03*
G04 #@! TD*
D12*
G04 #@! TO.P,R22,2*
G04 #@! TO.N,Net-(D22-Pad1)*
X112500000Y-132580000D03*
D13*
G04 #@! TO.P,R22,1*
G04 #@! TO.N,Net-(R22-Pad1)*
X112500000Y-127500000D03*
G04 #@! TD*
D12*
G04 #@! TO.P,R21,2*
G04 #@! TO.N,Net-(D21-Pad1)*
X110000000Y-132580000D03*
D13*
G04 #@! TO.P,R21,1*
G04 #@! TO.N,Net-(R21-Pad1)*
X110000000Y-127500000D03*
G04 #@! TD*
D12*
G04 #@! TO.P,R20,2*
G04 #@! TO.N,Net-(D20-Pad1)*
X107500000Y-132580000D03*
D13*
G04 #@! TO.P,R20,1*
G04 #@! TO.N,Net-(R20-Pad1)*
X107500000Y-127500000D03*
G04 #@! TD*
D12*
G04 #@! TO.P,R19,2*
G04 #@! TO.N,Net-(D19-Pad1)*
X105000000Y-132580000D03*
D13*
G04 #@! TO.P,R19,1*
G04 #@! TO.N,Net-(R19-Pad1)*
X105000000Y-127500000D03*
G04 #@! TD*
D12*
G04 #@! TO.P,R18,2*
G04 #@! TO.N,Net-(D18-Pad1)*
X102500000Y-132580000D03*
D13*
G04 #@! TO.P,R18,1*
G04 #@! TO.N,Net-(R18-Pad1)*
X102500000Y-127500000D03*
G04 #@! TD*
D12*
G04 #@! TO.P,R17,2*
G04 #@! TO.N,Net-(D17-Pad1)*
X100000000Y-132580000D03*
D13*
G04 #@! TO.P,R17,1*
G04 #@! TO.N,Net-(R17-Pad1)*
X100000000Y-127500000D03*
G04 #@! TD*
D12*
G04 #@! TO.P,R16,2*
G04 #@! TO.N,Net-(D16-Pad1)*
X67420000Y-117500000D03*
D13*
G04 #@! TO.P,R16,1*
G04 #@! TO.N,Net-(R16-Pad1)*
X72500000Y-117500000D03*
G04 #@! TD*
D12*
G04 #@! TO.P,R15,2*
G04 #@! TO.N,Net-(D15-Pad1)*
X67420000Y-115000000D03*
D13*
G04 #@! TO.P,R15,1*
G04 #@! TO.N,Net-(R15-Pad1)*
X72500000Y-115000000D03*
G04 #@! TD*
D12*
G04 #@! TO.P,R14,2*
G04 #@! TO.N,Net-(D14-Pad1)*
X67420000Y-112500000D03*
D13*
G04 #@! TO.P,R14,1*
G04 #@! TO.N,Net-(R14-Pad1)*
X72500000Y-112500000D03*
G04 #@! TD*
D12*
G04 #@! TO.P,R13,2*
G04 #@! TO.N,Net-(D13-Pad1)*
X67420000Y-110000000D03*
D13*
G04 #@! TO.P,R13,1*
G04 #@! TO.N,Net-(R13-Pad1)*
X72500000Y-110000000D03*
G04 #@! TD*
D12*
G04 #@! TO.P,R12,2*
G04 #@! TO.N,Net-(D12-Pad1)*
X67420000Y-107500000D03*
D13*
G04 #@! TO.P,R12,1*
G04 #@! TO.N,Net-(R12-Pad1)*
X72500000Y-107500000D03*
G04 #@! TD*
D12*
G04 #@! TO.P,R11,2*
G04 #@! TO.N,Net-(D11-Pad1)*
X67420000Y-105000000D03*
D13*
G04 #@! TO.P,R11,1*
G04 #@! TO.N,Net-(R11-Pad1)*
X72500000Y-105000000D03*
G04 #@! TD*
D12*
G04 #@! TO.P,R10,2*
G04 #@! TO.N,Net-(D10-Pad1)*
X67420000Y-102500000D03*
D13*
G04 #@! TO.P,R10,1*
G04 #@! TO.N,Net-(R10-Pad1)*
X72500000Y-102500000D03*
G04 #@! TD*
D12*
G04 #@! TO.P,R9,2*
G04 #@! TO.N,Net-(D9-Pad1)*
X67420000Y-100000000D03*
D13*
G04 #@! TO.P,R9,1*
G04 #@! TO.N,Net-(R9-Pad1)*
X72500000Y-100000000D03*
G04 #@! TD*
D12*
G04 #@! TO.P,R8,2*
G04 #@! TO.N,Net-(D8-Pad1)*
X82500000Y-67420000D03*
D13*
G04 #@! TO.P,R8,1*
G04 #@! TO.N,Net-(R8-Pad1)*
X82500000Y-72500000D03*
G04 #@! TD*
D12*
G04 #@! TO.P,R7,2*
G04 #@! TO.N,Net-(D7-Pad1)*
X85000000Y-67420000D03*
D13*
G04 #@! TO.P,R7,1*
G04 #@! TO.N,Net-(R7-Pad1)*
X85000000Y-72500000D03*
G04 #@! TD*
D12*
G04 #@! TO.P,R6,2*
G04 #@! TO.N,Net-(D6-Pad1)*
X87500000Y-67420000D03*
D13*
G04 #@! TO.P,R6,1*
G04 #@! TO.N,Net-(R6-Pad1)*
X87500000Y-72500000D03*
G04 #@! TD*
D12*
G04 #@! TO.P,R5,2*
G04 #@! TO.N,Net-(D5-Pad1)*
X90000000Y-67420000D03*
D13*
G04 #@! TO.P,R5,1*
G04 #@! TO.N,Net-(R5-Pad1)*
X90000000Y-72500000D03*
G04 #@! TD*
D12*
G04 #@! TO.P,R4,2*
G04 #@! TO.N,Net-(D4-Pad1)*
X92500000Y-67420000D03*
D13*
G04 #@! TO.P,R4,1*
G04 #@! TO.N,Net-(R4-Pad1)*
X92500000Y-72500000D03*
G04 #@! TD*
D12*
G04 #@! TO.P,R3,2*
G04 #@! TO.N,Net-(D3-Pad1)*
X95000000Y-67420000D03*
D13*
G04 #@! TO.P,R3,1*
G04 #@! TO.N,Net-(R3-Pad1)*
X95000000Y-72500000D03*
G04 #@! TD*
D12*
G04 #@! TO.P,R2,2*
G04 #@! TO.N,Net-(D2-Pad1)*
X97500000Y-67420000D03*
D13*
G04 #@! TO.P,R2,1*
G04 #@! TO.N,Net-(R2-Pad1)*
X97500000Y-72500000D03*
G04 #@! TD*
D14*
G04 #@! TO.P,U6,8*
G04 #@! TO.N,+3V3*
X96000000Y-87380000D03*
G04 #@! TO.P,U6,4*
G04 #@! TO.N,GND*
X103620000Y-95000000D03*
G04 #@! TO.P,U6,7*
G04 #@! TO.N,Net-(U2-Pad12)*
X98540000Y-87380000D03*
G04 #@! TO.P,U6,3*
G04 #@! TO.N,Net-(U6-Pad3)*
X101080000Y-95000000D03*
G04 #@! TO.P,U6,6*
G04 #@! TO.N,Net-(U2-Pad11)*
X101080000Y-87380000D03*
G04 #@! TO.P,U6,2*
G04 #@! TO.N,Net-(U6-Pad2)*
X98540000Y-95000000D03*
G04 #@! TO.P,U6,5*
G04 #@! TO.N,Net-(U2-Pad14)*
X103620000Y-87380000D03*
D15*
G04 #@! TO.P,U6,1*
G04 #@! TO.N,Net-(R33-Pad1)*
X96000000Y-95000000D03*
G04 #@! TD*
D16*
G04 #@! TO.P,SW1,1*
G04 #@! TO.N,Net-(R33-Pad1)*
X103250000Y-97750000D03*
G04 #@! TO.P,SW1,2*
G04 #@! TO.N,GND*
X103250000Y-102250000D03*
G04 #@! TO.P,SW1,1*
G04 #@! TO.N,Net-(R33-Pad1)*
X96750000Y-97750000D03*
G04 #@! TO.P,SW1,2*
G04 #@! TO.N,GND*
X96750000Y-102250000D03*
G04 #@! TD*
D12*
G04 #@! TO.P,R33,2*
G04 #@! TO.N,+3V3*
X91500000Y-88420000D03*
D13*
G04 #@! TO.P,R33,1*
G04 #@! TO.N,Net-(R33-Pad1)*
X91500000Y-93500000D03*
G04 #@! TD*
D17*
G04 #@! TO.N,Net-(BT1-Pad1)*
G04 #@! TO.C,BT1*
G36*
X108874505Y-60126204D02*
X108898773Y-60129804D01*
X108922572Y-60135765D01*
X108945671Y-60144030D01*
X108967850Y-60154520D01*
X108988893Y-60167132D01*
X109008599Y-60181747D01*
X109026777Y-60198223D01*
X109043253Y-60216401D01*
X109057868Y-60236107D01*
X109070480Y-60257150D01*
X109080970Y-60279329D01*
X109089235Y-60302428D01*
X109095196Y-60326227D01*
X109098796Y-60350495D01*
X109100000Y-60374999D01*
X109100000Y-61625001D01*
X109098796Y-61649505D01*
X109095196Y-61673773D01*
X109089235Y-61697572D01*
X109080970Y-61720671D01*
X109070480Y-61742850D01*
X109057868Y-61763893D01*
X109043253Y-61783599D01*
X109026777Y-61801777D01*
X109008599Y-61818253D01*
X108988893Y-61832868D01*
X108967850Y-61845480D01*
X108945671Y-61855970D01*
X108922572Y-61864235D01*
X108898773Y-61870196D01*
X108874505Y-61873796D01*
X108850001Y-61875000D01*
X108149999Y-61875000D01*
X108125495Y-61873796D01*
X108101227Y-61870196D01*
X108077428Y-61864235D01*
X108054329Y-61855970D01*
X108032150Y-61845480D01*
X108011107Y-61832868D01*
X107991401Y-61818253D01*
X107973223Y-61801777D01*
X107956747Y-61783599D01*
X107942132Y-61763893D01*
X107929520Y-61742850D01*
X107919030Y-61720671D01*
X107910765Y-61697572D01*
X107904804Y-61673773D01*
X107901204Y-61649505D01*
X107900000Y-61625001D01*
X107900000Y-60374999D01*
X107901204Y-60350495D01*
X107904804Y-60326227D01*
X107910765Y-60302428D01*
X107919030Y-60279329D01*
X107929520Y-60257150D01*
X107942132Y-60236107D01*
X107956747Y-60216401D01*
X107973223Y-60198223D01*
X107991401Y-60181747D01*
X108011107Y-60167132D01*
X108032150Y-60154520D01*
X108054329Y-60144030D01*
X108077428Y-60135765D01*
X108101227Y-60129804D01*
X108125495Y-60126204D01*
X108149999Y-60125000D01*
X108850001Y-60125000D01*
X108874505Y-60126204D01*
X108874505Y-60126204D01*
G37*
D18*
G04 #@! TD*
G04 #@! TO.P,BT1,1*
G04 #@! TO.N,Net-(BT1-Pad1)*
X108500000Y-61000000D03*
D19*
G04 #@! TO.P,BT1,2*
G04 #@! TO.N,GND*
X106499999Y-61000000D03*
G04 #@! TD*
D20*
G04 #@! TO.P,D17,2*
G04 #@! TO.N,+3V3*
X100000000Y-147540000D03*
D21*
G04 #@! TO.P,D17,1*
G04 #@! TO.N,Net-(D17-Pad1)*
X100000000Y-145000000D03*
G04 #@! TD*
D20*
G04 #@! TO.P,D30,1*
G04 #@! TO.N,Net-(D30-Pad1)*
X125000660Y-62583867D03*
D17*
G04 #@! TD*
G04 #@! TO.N,Net-(D30-Pad1)*
G04 #@! TO.C,D30*
G36*
X125248969Y-63832203D02*
X123752324Y-62832176D01*
X124752351Y-61335531D01*
X126248996Y-62335558D01*
X125248969Y-63832203D01*
X125248969Y-63832203D01*
G37*
D20*
G04 #@! TO.P,D30,2*
G04 #@! TO.N,+3V3*
X126411808Y-60471934D03*
G04 #@! TD*
G04 #@! TO.P,D29,2*
G04 #@! TO.N,+3V3*
X133615856Y-66384143D03*
G04 #@! TO.P,D29,1*
G04 #@! TO.N,Net-(D29-Pad1)*
X131819805Y-68180194D03*
D17*
G04 #@! TD*
G04 #@! TO.N,Net-(D29-Pad1)*
G04 #@! TO.C,D29*
G36*
X131819805Y-69452986D02*
X130547013Y-68180194D01*
X131819805Y-66907402D01*
X133092597Y-68180194D01*
X131819805Y-69452986D01*
X131819805Y-69452986D01*
G37*
D20*
G04 #@! TO.P,D28,1*
G04 #@! TO.N,Net-(D28-Pad1)*
X137416132Y-74999339D03*
D17*
G04 #@! TD*
G04 #@! TO.N,Net-(D28-Pad1)*
G04 #@! TO.C,D28*
G36*
X137167823Y-76247675D02*
X136167796Y-74751030D01*
X137664441Y-73751003D01*
X138664468Y-75247648D01*
X137167823Y-76247675D01*
X137167823Y-76247675D01*
G37*
D20*
G04 #@! TO.P,D28,2*
G04 #@! TO.N,+3V3*
X139528065Y-73588191D03*
G04 #@! TD*
G04 #@! TO.P,D27,2*
G04 #@! TO.N,+3V3*
X143921232Y-81807229D03*
G04 #@! TO.P,D27,1*
G04 #@! TO.N,Net-(D27-Pad1)*
X141574578Y-82779245D03*
D17*
G04 #@! TD*
G04 #@! TO.N,Net-(D27-Pad1)*
G04 #@! TO.C,D27*
G36*
X141087502Y-83955152D02*
X140398671Y-82292169D01*
X142061654Y-81603338D01*
X142750485Y-83266321D01*
X141087502Y-83955152D01*
X141087502Y-83955152D01*
G37*
D20*
G04 #@! TO.P,D26,1*
G04 #@! TO.N,Net-(D26-Pad1)*
X144135337Y-91220935D03*
D17*
G04 #@! TD*
G04 #@! TO.N,Net-(D26-Pad1)*
G04 #@! TO.C,D26*
G36*
X143428212Y-92279223D02*
X143077049Y-90513810D01*
X144842462Y-90162647D01*
X145193625Y-91928060D01*
X143428212Y-92279223D01*
X143428212Y-92279223D01*
G37*
D20*
G04 #@! TO.P,D26,2*
G04 #@! TO.N,+3V3*
X146626532Y-90725406D03*
G04 #@! TD*
G04 #@! TO.P,D25,2*
G04 #@! TO.N,+3V3*
X147540000Y-100000000D03*
D21*
G04 #@! TO.P,D25,1*
G04 #@! TO.N,Net-(D25-Pad1)*
X145000000Y-100000000D03*
G04 #@! TD*
D20*
G04 #@! TO.P,D24,1*
G04 #@! TO.N,Net-(D24-Pad1)*
X144135337Y-108779064D03*
D17*
G04 #@! TD*
G04 #@! TO.N,Net-(D24-Pad1)*
G04 #@! TO.C,D24*
G36*
X143077049Y-109486189D02*
X143428212Y-107720776D01*
X145193625Y-108071939D01*
X144842462Y-109837352D01*
X143077049Y-109486189D01*
X143077049Y-109486189D01*
G37*
D20*
G04 #@! TO.P,D24,2*
G04 #@! TO.N,+3V3*
X146626532Y-109274593D03*
G04 #@! TD*
G04 #@! TO.P,D23,2*
G04 #@! TO.N,+3V3*
X143921232Y-118192770D03*
G04 #@! TO.P,D23,1*
G04 #@! TO.N,Net-(D23-Pad1)*
X141574578Y-117220754D03*
D17*
G04 #@! TD*
G04 #@! TO.N,Net-(D23-Pad1)*
G04 #@! TO.C,D23*
G36*
X140398671Y-117707830D02*
X141087502Y-116044847D01*
X142750485Y-116733678D01*
X142061654Y-118396661D01*
X140398671Y-117707830D01*
X140398671Y-117707830D01*
G37*
D20*
G04 #@! TO.P,D22,1*
G04 #@! TO.N,Net-(D22-Pad1)*
X137416132Y-125000660D03*
D17*
G04 #@! TD*
G04 #@! TO.N,Net-(D22-Pad1)*
G04 #@! TO.C,D22*
G36*
X136167796Y-125248969D02*
X137167823Y-123752324D01*
X138664468Y-124752351D01*
X137664441Y-126248996D01*
X136167796Y-125248969D01*
X136167796Y-125248969D01*
G37*
D20*
G04 #@! TO.P,D22,2*
G04 #@! TO.N,+3V3*
X139528065Y-126411808D03*
G04 #@! TD*
G04 #@! TO.P,D21,2*
G04 #@! TO.N,+3V3*
X133615856Y-133615856D03*
G04 #@! TO.P,D21,1*
G04 #@! TO.N,Net-(D21-Pad1)*
X131819805Y-131819805D03*
D17*
G04 #@! TD*
G04 #@! TO.N,Net-(D21-Pad1)*
G04 #@! TO.C,D21*
G36*
X130547013Y-131819805D02*
X131819805Y-130547013D01*
X133092597Y-131819805D01*
X131819805Y-133092597D01*
X130547013Y-131819805D01*
X130547013Y-131819805D01*
G37*
D20*
G04 #@! TO.P,D20,1*
G04 #@! TO.N,Net-(D20-Pad1)*
X125000660Y-137416132D03*
D17*
G04 #@! TD*
G04 #@! TO.N,Net-(D20-Pad1)*
G04 #@! TO.C,D20*
G36*
X123752324Y-137167823D02*
X125248969Y-136167796D01*
X126248996Y-137664441D01*
X124752351Y-138664468D01*
X123752324Y-137167823D01*
X123752324Y-137167823D01*
G37*
D20*
G04 #@! TO.P,D20,2*
G04 #@! TO.N,+3V3*
X126411808Y-139528065D03*
G04 #@! TD*
G04 #@! TO.P,D19,2*
G04 #@! TO.N,+3V3*
X118192770Y-143921232D03*
G04 #@! TO.P,D19,1*
G04 #@! TO.N,Net-(D19-Pad1)*
X117220754Y-141574578D03*
D17*
G04 #@! TD*
G04 #@! TO.N,Net-(D19-Pad1)*
G04 #@! TO.C,D19*
G36*
X116044847Y-141087502D02*
X117707830Y-140398671D01*
X118396661Y-142061654D01*
X116733678Y-142750485D01*
X116044847Y-141087502D01*
X116044847Y-141087502D01*
G37*
D20*
G04 #@! TO.P,D18,1*
G04 #@! TO.N,Net-(D18-Pad1)*
X108779064Y-144135337D03*
D17*
G04 #@! TD*
G04 #@! TO.N,Net-(D18-Pad1)*
G04 #@! TO.C,D18*
G36*
X107720776Y-143428212D02*
X109486189Y-143077049D01*
X109837352Y-144842462D01*
X108071939Y-145193625D01*
X107720776Y-143428212D01*
X107720776Y-143428212D01*
G37*
D20*
G04 #@! TO.P,D18,2*
G04 #@! TO.N,+3V3*
X109274593Y-146626532D03*
G04 #@! TD*
G04 #@! TO.P,D16,2*
G04 #@! TO.N,+3V3*
X90725406Y-146626532D03*
G04 #@! TO.P,D16,1*
G04 #@! TO.N,Net-(D16-Pad1)*
X91220935Y-144135337D03*
D17*
G04 #@! TD*
G04 #@! TO.N,Net-(D16-Pad1)*
G04 #@! TO.C,D16*
G36*
X90513810Y-143077049D02*
X92279223Y-143428212D01*
X91928060Y-145193625D01*
X90162647Y-144842462D01*
X90513810Y-143077049D01*
X90513810Y-143077049D01*
G37*
D20*
G04 #@! TO.P,D32,1*
G04 #@! TO.N,Net-(D32-Pad1)*
X108779064Y-55864662D03*
D17*
G04 #@! TD*
G04 #@! TO.N,Net-(D32-Pad1)*
G04 #@! TO.C,D32*
G36*
X109486189Y-56922950D02*
X107720776Y-56571787D01*
X108071939Y-54806374D01*
X109837352Y-55157537D01*
X109486189Y-56922950D01*
X109486189Y-56922950D01*
G37*
D20*
G04 #@! TO.P,D32,2*
G04 #@! TO.N,+3V3*
X109274593Y-53373467D03*
G04 #@! TD*
G04 #@! TO.P,D14,2*
G04 #@! TO.N,+3V3*
X73588191Y-139528065D03*
G04 #@! TO.P,D14,1*
G04 #@! TO.N,Net-(D14-Pad1)*
X74999339Y-137416132D03*
D17*
G04 #@! TD*
G04 #@! TO.N,Net-(D14-Pad1)*
G04 #@! TO.C,D14*
G36*
X74751030Y-136167796D02*
X76247675Y-137167823D01*
X75247648Y-138664468D01*
X73751003Y-137664441D01*
X74751030Y-136167796D01*
X74751030Y-136167796D01*
G37*
D20*
G04 #@! TO.P,D31,1*
G04 #@! TO.N,Net-(D31-Pad1)*
X117220754Y-58425421D03*
D17*
G04 #@! TD*
G04 #@! TO.N,Net-(D31-Pad1)*
G04 #@! TO.C,D31*
G36*
X117707830Y-59601328D02*
X116044847Y-58912497D01*
X116733678Y-57249514D01*
X118396661Y-57938345D01*
X117707830Y-59601328D01*
X117707830Y-59601328D01*
G37*
D20*
G04 #@! TO.P,D31,2*
G04 #@! TO.N,+3V3*
X118192770Y-56078767D03*
G04 #@! TD*
G04 #@! TO.P,D1,2*
G04 #@! TO.N,+3V3*
X100000000Y-52460000D03*
D21*
G04 #@! TO.P,D1,1*
G04 #@! TO.N,Net-(D1-Pad1)*
X100000000Y-55000000D03*
G04 #@! TD*
D20*
G04 #@! TO.P,D2,1*
G04 #@! TO.N,Net-(D2-Pad1)*
X91220935Y-55864662D03*
D17*
G04 #@! TD*
G04 #@! TO.N,Net-(D2-Pad1)*
G04 #@! TO.C,D2*
G36*
X92279223Y-56571787D02*
X90513810Y-56922950D01*
X90162647Y-55157537D01*
X91928060Y-54806374D01*
X92279223Y-56571787D01*
X92279223Y-56571787D01*
G37*
D20*
G04 #@! TO.P,D2,2*
G04 #@! TO.N,+3V3*
X90725406Y-53373467D03*
G04 #@! TD*
G04 #@! TO.P,D3,2*
G04 #@! TO.N,+3V3*
X81807229Y-56078767D03*
G04 #@! TO.P,D3,1*
G04 #@! TO.N,Net-(D3-Pad1)*
X82779245Y-58425421D03*
D17*
G04 #@! TD*
G04 #@! TO.N,Net-(D3-Pad1)*
G04 #@! TO.C,D3*
G36*
X83955152Y-58912497D02*
X82292169Y-59601328D01*
X81603338Y-57938345D01*
X83266321Y-57249514D01*
X83955152Y-58912497D01*
X83955152Y-58912497D01*
G37*
D20*
G04 #@! TO.P,D4,1*
G04 #@! TO.N,Net-(D4-Pad1)*
X74999339Y-62583867D03*
D17*
G04 #@! TD*
G04 #@! TO.N,Net-(D4-Pad1)*
G04 #@! TO.C,D4*
G36*
X76247675Y-62832176D02*
X74751030Y-63832203D01*
X73751003Y-62335558D01*
X75247648Y-61335531D01*
X76247675Y-62832176D01*
X76247675Y-62832176D01*
G37*
D20*
G04 #@! TO.P,D4,2*
G04 #@! TO.N,+3V3*
X73588191Y-60471934D03*
G04 #@! TD*
G04 #@! TO.P,D5,2*
G04 #@! TO.N,+3V3*
X66384143Y-66384143D03*
G04 #@! TO.P,D5,1*
G04 #@! TO.N,Net-(D5-Pad1)*
X68180194Y-68180194D03*
D17*
G04 #@! TD*
G04 #@! TO.N,Net-(D5-Pad1)*
G04 #@! TO.C,D5*
G36*
X69452986Y-68180194D02*
X68180194Y-69452986D01*
X66907402Y-68180194D01*
X68180194Y-66907402D01*
X69452986Y-68180194D01*
X69452986Y-68180194D01*
G37*
D20*
G04 #@! TO.P,D6,1*
G04 #@! TO.N,Net-(D6-Pad1)*
X62583867Y-74999339D03*
D17*
G04 #@! TD*
G04 #@! TO.N,Net-(D6-Pad1)*
G04 #@! TO.C,D6*
G36*
X63832203Y-74751030D02*
X62832176Y-76247675D01*
X61335531Y-75247648D01*
X62335558Y-73751003D01*
X63832203Y-74751030D01*
X63832203Y-74751030D01*
G37*
D20*
G04 #@! TO.P,D6,2*
G04 #@! TO.N,+3V3*
X60471934Y-73588191D03*
G04 #@! TD*
G04 #@! TO.P,D7,2*
G04 #@! TO.N,+3V3*
X56078767Y-81807229D03*
G04 #@! TO.P,D7,1*
G04 #@! TO.N,Net-(D7-Pad1)*
X58425421Y-82779245D03*
D17*
G04 #@! TD*
G04 #@! TO.N,Net-(D7-Pad1)*
G04 #@! TO.C,D7*
G36*
X59601328Y-82292169D02*
X58912497Y-83955152D01*
X57249514Y-83266321D01*
X57938345Y-81603338D01*
X59601328Y-82292169D01*
X59601328Y-82292169D01*
G37*
D20*
G04 #@! TO.P,D8,1*
G04 #@! TO.N,Net-(D8-Pad1)*
X55864662Y-91220935D03*
D17*
G04 #@! TD*
G04 #@! TO.N,Net-(D8-Pad1)*
G04 #@! TO.C,D8*
G36*
X56922950Y-90513810D02*
X56571787Y-92279223D01*
X54806374Y-91928060D01*
X55157537Y-90162647D01*
X56922950Y-90513810D01*
X56922950Y-90513810D01*
G37*
D20*
G04 #@! TO.P,D8,2*
G04 #@! TO.N,+3V3*
X53373467Y-90725406D03*
G04 #@! TD*
G04 #@! TO.P,D9,2*
G04 #@! TO.N,+3V3*
X52460000Y-100000000D03*
D21*
G04 #@! TO.P,D9,1*
G04 #@! TO.N,Net-(D9-Pad1)*
X55000000Y-100000000D03*
G04 #@! TD*
D20*
G04 #@! TO.P,D10,1*
G04 #@! TO.N,Net-(D10-Pad1)*
X55864662Y-108779064D03*
D17*
G04 #@! TD*
G04 #@! TO.N,Net-(D10-Pad1)*
G04 #@! TO.C,D10*
G36*
X56571787Y-107720776D02*
X56922950Y-109486189D01*
X55157537Y-109837352D01*
X54806374Y-108071939D01*
X56571787Y-107720776D01*
X56571787Y-107720776D01*
G37*
D20*
G04 #@! TO.P,D10,2*
G04 #@! TO.N,+3V3*
X53373467Y-109274593D03*
G04 #@! TD*
G04 #@! TO.P,D11,2*
G04 #@! TO.N,+3V3*
X56078767Y-118192770D03*
G04 #@! TO.P,D11,1*
G04 #@! TO.N,Net-(D11-Pad1)*
X58425421Y-117220754D03*
D17*
G04 #@! TD*
G04 #@! TO.N,Net-(D11-Pad1)*
G04 #@! TO.C,D11*
G36*
X58912497Y-116044847D02*
X59601328Y-117707830D01*
X57938345Y-118396661D01*
X57249514Y-116733678D01*
X58912497Y-116044847D01*
X58912497Y-116044847D01*
G37*
D20*
G04 #@! TO.P,D12,1*
G04 #@! TO.N,Net-(D12-Pad1)*
X62583867Y-125000660D03*
D17*
G04 #@! TD*
G04 #@! TO.N,Net-(D12-Pad1)*
G04 #@! TO.C,D12*
G36*
X62832176Y-123752324D02*
X63832203Y-125248969D01*
X62335558Y-126248996D01*
X61335531Y-124752351D01*
X62832176Y-123752324D01*
X62832176Y-123752324D01*
G37*
D20*
G04 #@! TO.P,D12,2*
G04 #@! TO.N,+3V3*
X60471934Y-126411808D03*
G04 #@! TD*
G04 #@! TO.P,D13,2*
G04 #@! TO.N,+3V3*
X66384143Y-133615856D03*
G04 #@! TO.P,D13,1*
G04 #@! TO.N,Net-(D13-Pad1)*
X68180194Y-131819805D03*
D17*
G04 #@! TD*
G04 #@! TO.N,Net-(D13-Pad1)*
G04 #@! TO.C,D13*
G36*
X68180194Y-130547013D02*
X69452986Y-131819805D01*
X68180194Y-133092597D01*
X66907402Y-131819805D01*
X68180194Y-130547013D01*
X68180194Y-130547013D01*
G37*
D20*
G04 #@! TO.P,D15,1*
G04 #@! TO.N,Net-(D15-Pad1)*
X82779245Y-141574578D03*
D17*
G04 #@! TD*
G04 #@! TO.N,Net-(D15-Pad1)*
G04 #@! TO.C,D15*
G36*
X82292169Y-140398671D02*
X83955152Y-141087502D01*
X83266321Y-142750485D01*
X81603338Y-142061654D01*
X82292169Y-140398671D01*
X82292169Y-140398671D01*
G37*
D20*
G04 #@! TO.P,D15,2*
G04 #@! TO.N,+3V3*
X81807229Y-143921232D03*
G04 #@! TD*
D14*
G04 #@! TO.P,U3,16*
G04 #@! TO.N,+3V3*
X82620000Y-100000000D03*
G04 #@! TO.P,U3,8*
G04 #@! TO.N,GND*
X75000000Y-117780000D03*
G04 #@! TO.P,U3,15*
G04 #@! TO.N,Net-(R9-Pad1)*
X82620000Y-102540000D03*
G04 #@! TO.P,U3,7*
G04 #@! TO.N,Net-(R16-Pad1)*
X75000000Y-115240000D03*
G04 #@! TO.P,U3,14*
G04 #@! TO.N,Net-(U2-Pad9)*
X82620000Y-105080000D03*
G04 #@! TO.P,U3,6*
G04 #@! TO.N,Net-(R15-Pad1)*
X75000000Y-112700000D03*
G04 #@! TO.P,U3,13*
G04 #@! TO.N,GND*
X82620000Y-107620000D03*
G04 #@! TO.P,U3,5*
G04 #@! TO.N,Net-(R14-Pad1)*
X75000000Y-110160000D03*
G04 #@! TO.P,U3,12*
G04 #@! TO.N,Net-(U2-Pad12)*
X82620000Y-110160000D03*
G04 #@! TO.P,U3,4*
G04 #@! TO.N,Net-(R13-Pad1)*
X75000000Y-107620000D03*
G04 #@! TO.P,U3,11*
G04 #@! TO.N,Net-(U2-Pad11)*
X82620000Y-112700000D03*
G04 #@! TO.P,U3,3*
G04 #@! TO.N,Net-(R12-Pad1)*
X75000000Y-105080000D03*
G04 #@! TO.P,U3,10*
G04 #@! TO.N,+3V3*
X82620000Y-115240000D03*
G04 #@! TO.P,U3,2*
G04 #@! TO.N,Net-(R11-Pad1)*
X75000000Y-102540000D03*
G04 #@! TO.P,U3,9*
G04 #@! TO.N,Net-(U3-Pad9)*
X82620000Y-117780000D03*
D15*
G04 #@! TO.P,U3,1*
G04 #@! TO.N,Net-(R10-Pad1)*
X75000000Y-100000000D03*
G04 #@! TD*
G04 #@! TO.P,U4,1*
G04 #@! TO.N,Net-(R18-Pad1)*
X100000000Y-125000000D03*
D14*
G04 #@! TO.P,U4,9*
G04 #@! TO.N,Net-(U4-Pad9)*
X117780000Y-117380000D03*
G04 #@! TO.P,U4,2*
G04 #@! TO.N,Net-(R19-Pad1)*
X102540000Y-125000000D03*
G04 #@! TO.P,U4,10*
G04 #@! TO.N,+3V3*
X115240000Y-117380000D03*
G04 #@! TO.P,U4,3*
G04 #@! TO.N,Net-(R20-Pad1)*
X105080000Y-125000000D03*
G04 #@! TO.P,U4,11*
G04 #@! TO.N,Net-(U2-Pad11)*
X112700000Y-117380000D03*
G04 #@! TO.P,U4,4*
G04 #@! TO.N,Net-(R21-Pad1)*
X107620000Y-125000000D03*
G04 #@! TO.P,U4,12*
G04 #@! TO.N,Net-(U2-Pad12)*
X110160000Y-117380000D03*
G04 #@! TO.P,U4,5*
G04 #@! TO.N,Net-(R22-Pad1)*
X110160000Y-125000000D03*
G04 #@! TO.P,U4,13*
G04 #@! TO.N,GND*
X107620000Y-117380000D03*
G04 #@! TO.P,U4,6*
G04 #@! TO.N,Net-(R23-Pad1)*
X112700000Y-125000000D03*
G04 #@! TO.P,U4,14*
G04 #@! TO.N,Net-(U3-Pad9)*
X105080000Y-117380000D03*
G04 #@! TO.P,U4,7*
G04 #@! TO.N,Net-(R24-Pad1)*
X115240000Y-125000000D03*
G04 #@! TO.P,U4,15*
G04 #@! TO.N,Net-(R17-Pad1)*
X102540000Y-117380000D03*
G04 #@! TO.P,U4,8*
G04 #@! TO.N,GND*
X117780000Y-125000000D03*
G04 #@! TO.P,U4,16*
G04 #@! TO.N,+3V3*
X100000000Y-117380000D03*
G04 #@! TD*
G04 #@! TO.P,U5,16*
G04 #@! TO.N,+3V3*
X117380000Y-100000000D03*
G04 #@! TO.P,U5,8*
G04 #@! TO.N,GND*
X125000000Y-82220000D03*
G04 #@! TO.P,U5,15*
G04 #@! TO.N,Net-(R25-Pad1)*
X117380000Y-97460000D03*
G04 #@! TO.P,U5,7*
G04 #@! TO.N,Net-(R32-Pad1)*
X125000000Y-84760000D03*
G04 #@! TO.P,U5,14*
G04 #@! TO.N,Net-(U4-Pad9)*
X117380000Y-94920000D03*
G04 #@! TO.P,U5,6*
G04 #@! TO.N,Net-(R31-Pad1)*
X125000000Y-87300000D03*
G04 #@! TO.P,U5,13*
G04 #@! TO.N,GND*
X117380000Y-92380000D03*
G04 #@! TO.P,U5,5*
G04 #@! TO.N,Net-(R30-Pad1)*
X125000000Y-89840000D03*
G04 #@! TO.P,U5,12*
G04 #@! TO.N,Net-(U2-Pad12)*
X117380000Y-89840000D03*
G04 #@! TO.P,U5,4*
G04 #@! TO.N,Net-(R29-Pad1)*
X125000000Y-92380000D03*
G04 #@! TO.P,U5,11*
G04 #@! TO.N,Net-(U2-Pad11)*
X117380000Y-87300000D03*
G04 #@! TO.P,U5,3*
G04 #@! TO.N,Net-(R28-Pad1)*
X125000000Y-94920000D03*
G04 #@! TO.P,U5,10*
G04 #@! TO.N,+3V3*
X117380000Y-84760000D03*
G04 #@! TO.P,U5,2*
G04 #@! TO.N,Net-(R27-Pad1)*
X125000000Y-97460000D03*
G04 #@! TO.P,U5,9*
G04 #@! TO.N,Net-(U5-Pad9)*
X117380000Y-82220000D03*
D15*
G04 #@! TO.P,U5,1*
G04 #@! TO.N,Net-(R26-Pad1)*
X125000000Y-100000000D03*
G04 #@! TD*
G04 #@! TO.P,U2,1*
G04 #@! TO.N,Net-(R2-Pad1)*
X100000000Y-75000000D03*
D14*
G04 #@! TO.P,U2,9*
G04 #@! TO.N,Net-(U2-Pad9)*
X82220000Y-82620000D03*
G04 #@! TO.P,U2,2*
G04 #@! TO.N,Net-(R3-Pad1)*
X97460000Y-75000000D03*
G04 #@! TO.P,U2,10*
G04 #@! TO.N,+3V3*
X84760000Y-82620000D03*
G04 #@! TO.P,U2,3*
G04 #@! TO.N,Net-(R4-Pad1)*
X94920000Y-75000000D03*
G04 #@! TO.P,U2,11*
G04 #@! TO.N,Net-(U2-Pad11)*
X87300000Y-82620000D03*
G04 #@! TO.P,U2,4*
G04 #@! TO.N,Net-(R5-Pad1)*
X92380000Y-75000000D03*
G04 #@! TO.P,U2,12*
G04 #@! TO.N,Net-(U2-Pad12)*
X89840000Y-82620000D03*
G04 #@! TO.P,U2,5*
G04 #@! TO.N,Net-(R6-Pad1)*
X89840000Y-75000000D03*
G04 #@! TO.P,U2,13*
G04 #@! TO.N,GND*
X92380000Y-82620000D03*
G04 #@! TO.P,U2,6*
G04 #@! TO.N,Net-(R7-Pad1)*
X87300000Y-75000000D03*
G04 #@! TO.P,U2,14*
G04 #@! TO.N,Net-(U2-Pad14)*
X94920000Y-82620000D03*
G04 #@! TO.P,U2,7*
G04 #@! TO.N,Net-(R8-Pad1)*
X84760000Y-75000000D03*
G04 #@! TO.P,U2,15*
G04 #@! TO.N,Net-(R1-Pad1)*
X97460000Y-82620000D03*
G04 #@! TO.P,U2,8*
G04 #@! TO.N,GND*
X82220000Y-75000000D03*
G04 #@! TO.P,U2,16*
G04 #@! TO.N,+3V3*
X100000000Y-82620000D03*
G04 #@! TD*
D12*
G04 #@! TO.P,R1,2*
G04 #@! TO.N,Net-(D1-Pad1)*
X100000000Y-67420000D03*
D13*
G04 #@! TO.P,R1,1*
G04 #@! TO.N,Net-(R1-Pad1)*
X100000000Y-72500000D03*
G04 #@! TD*
D22*
G04 #@! TO.N,Net-(R1-Pad1)*
X98259999Y-81820001D02*
X97460000Y-82620000D01*
X98710001Y-81369999D02*
X98259999Y-81820001D01*
X98710001Y-73789999D02*
X98710001Y-81369999D01*
X100000000Y-72500000D02*
X98710001Y-73789999D01*
G04 #@! TO.N,Net-(R17-Pad1)*
X100699999Y-126800001D02*
X100000000Y-127500000D01*
X101250001Y-126249999D02*
X100699999Y-126800001D01*
X101250001Y-118669999D02*
X101250001Y-126249999D01*
X102540000Y-117380000D02*
X101250001Y-118669999D01*
G04 #@! TO.N,Net-(R25-Pad1)*
X126800001Y-99300001D02*
X127500000Y-100000000D01*
X126249999Y-98749999D02*
X126800001Y-99300001D01*
X118669999Y-98749999D02*
X126249999Y-98749999D01*
X117380000Y-97460000D02*
X118669999Y-98749999D01*
G04 #@! TO.N,Net-(R9-Pad1)*
X73750001Y-101250001D02*
X72500000Y-100000000D01*
X81330001Y-101250001D02*
X73750001Y-101250001D01*
X82620000Y-102540000D02*
X81330001Y-101250001D01*
G04 #@! TD*
D23*
G04 #@! TO.N,GND*
G36*
X103092779Y-50870564D02*
X105832575Y-51119905D01*
X108554181Y-51521797D01*
X111249110Y-52074986D01*
X113908956Y-52777748D01*
X116525426Y-53627891D01*
X119090359Y-54622763D01*
X121595759Y-55759262D01*
X124033810Y-57033845D01*
X126396911Y-58442536D01*
X128677692Y-59980942D01*
X130869041Y-61644266D01*
X132964123Y-63427321D01*
X134956406Y-65324547D01*
X136839677Y-67330026D01*
X138608062Y-69437506D01*
X140256047Y-71640413D01*
X141778493Y-73931878D01*
X143170653Y-76304756D01*
X144428183Y-78751647D01*
X145547164Y-81264919D01*
X146524106Y-83836736D01*
X147355961Y-86459077D01*
X148040137Y-89123764D01*
X148574499Y-91822489D01*
X148957381Y-94546834D01*
X149187588Y-97288305D01*
X149264404Y-100038351D01*
X149245196Y-101413911D01*
X149091625Y-104160740D01*
X148784960Y-106894714D01*
X148326160Y-109607306D01*
X147716653Y-112290058D01*
X146958342Y-114934604D01*
X146053591Y-117532696D01*
X145005221Y-120076232D01*
X143816502Y-122557280D01*
X142491140Y-124968104D01*
X141033269Y-127301186D01*
X139447435Y-129549249D01*
X137738583Y-131705283D01*
X135912043Y-133762564D01*
X133973511Y-135714678D01*
X131929031Y-137555536D01*
X129784979Y-139279397D01*
X127548042Y-140880887D01*
X125225196Y-142355010D01*
X122823683Y-143697170D01*
X120350994Y-144903182D01*
X117814838Y-145969283D01*
X115223126Y-146892150D01*
X112583939Y-147668905D01*
X109905508Y-148297126D01*
X107196184Y-148774852D01*
X104464418Y-149100596D01*
X101718728Y-149273340D01*
X98967676Y-149292546D01*
X96219841Y-149158155D01*
X93483793Y-148870585D01*
X90768064Y-148430732D01*
X88081122Y-147839970D01*
X85431347Y-147100140D01*
X83143234Y-146321202D01*
X89190406Y-146321202D01*
X89190406Y-146931862D01*
X89424096Y-147496039D01*
X89855899Y-147927842D01*
X90420076Y-148161532D01*
X91030736Y-148161532D01*
X91594913Y-147927842D01*
X92026716Y-147496039D01*
X92260406Y-146931862D01*
X92260406Y-146321202D01*
X92056080Y-145827916D01*
X92287758Y-145731952D01*
X92466387Y-145553324D01*
X92563060Y-145319934D01*
X92805720Y-144100000D01*
X98452560Y-144100000D01*
X98452560Y-145900000D01*
X98501843Y-146147765D01*
X98642191Y-146357809D01*
X98852235Y-146498157D01*
X98867908Y-146501275D01*
X98698690Y-146670493D01*
X98465000Y-147234670D01*
X98465000Y-147845330D01*
X98698690Y-148409507D01*
X99130493Y-148841310D01*
X99694670Y-149075000D01*
X100305330Y-149075000D01*
X100869507Y-148841310D01*
X101301310Y-148409507D01*
X101535000Y-147845330D01*
X101535000Y-147234670D01*
X101301310Y-146670493D01*
X101132092Y-146501275D01*
X101147765Y-146498157D01*
X101357809Y-146357809D01*
X101498157Y-146147765D01*
X101547440Y-145900000D01*
X101547440Y-144100000D01*
X101498157Y-143852235D01*
X101357809Y-143642191D01*
X101147765Y-143501843D01*
X100900000Y-143452560D01*
X99100000Y-143452560D01*
X98852235Y-143501843D01*
X98642191Y-143642191D01*
X98501843Y-143852235D01*
X98452560Y-144100000D01*
X92805720Y-144100000D01*
X92914223Y-143554521D01*
X92914223Y-143301903D01*
X107085776Y-143301903D01*
X107085776Y-143554521D01*
X107436939Y-145319934D01*
X107533612Y-145553324D01*
X107712241Y-145731952D01*
X107943919Y-145827916D01*
X107739593Y-146321202D01*
X107739593Y-146931862D01*
X107973283Y-147496039D01*
X108405086Y-147927842D01*
X108969263Y-148161532D01*
X109579923Y-148161532D01*
X110144100Y-147927842D01*
X110575903Y-147496039D01*
X110809593Y-146931862D01*
X110809593Y-146321202D01*
X110575903Y-145757025D01*
X110198359Y-145379481D01*
X110375679Y-145202160D01*
X110472352Y-144968771D01*
X110472352Y-144716153D01*
X110121189Y-142950740D01*
X110024516Y-142717350D01*
X109845887Y-142538722D01*
X109612498Y-142442049D01*
X109359880Y-142442049D01*
X107594467Y-142793212D01*
X107361077Y-142889885D01*
X107182449Y-143068514D01*
X107085776Y-143301903D01*
X92914223Y-143301903D01*
X92817550Y-143068514D01*
X92638922Y-142889885D01*
X92405532Y-142793212D01*
X90640119Y-142442049D01*
X90387501Y-142442049D01*
X90154112Y-142538722D01*
X89975483Y-142717350D01*
X89878810Y-142950740D01*
X89527647Y-144716153D01*
X89527647Y-144968771D01*
X89624320Y-145202160D01*
X89801640Y-145379481D01*
X89424096Y-145757025D01*
X89190406Y-146321202D01*
X83143234Y-146321202D01*
X82827002Y-146213548D01*
X80276209Y-145182961D01*
X77786922Y-144011591D01*
X77055111Y-143615902D01*
X80272229Y-143615902D01*
X80272229Y-144226562D01*
X80505919Y-144790739D01*
X80937722Y-145222542D01*
X81501899Y-145456232D01*
X82112559Y-145456232D01*
X82676736Y-145222542D01*
X83108539Y-144790739D01*
X83342229Y-144226562D01*
X83342229Y-143615902D01*
X83250649Y-143394808D01*
X83266321Y-143397925D01*
X83514085Y-143348642D01*
X83724130Y-143208294D01*
X83864477Y-142998250D01*
X84553308Y-141335267D01*
X84602592Y-141087502D01*
X115397407Y-141087502D01*
X115446691Y-141335267D01*
X116135522Y-142998250D01*
X116275869Y-143208294D01*
X116485914Y-143348642D01*
X116733678Y-143397925D01*
X116749350Y-143394808D01*
X116657770Y-143615902D01*
X116657770Y-144226562D01*
X116891460Y-144790739D01*
X117323263Y-145222542D01*
X117887440Y-145456232D01*
X118498100Y-145456232D01*
X119062277Y-145222542D01*
X119494080Y-144790739D01*
X119727770Y-144226562D01*
X119727770Y-143615902D01*
X119494080Y-143051725D01*
X119062277Y-142619922D01*
X118841182Y-142528342D01*
X118854470Y-142519463D01*
X118994818Y-142309418D01*
X119044101Y-142061654D01*
X118994817Y-141813889D01*
X118305986Y-140150906D01*
X118165639Y-139940862D01*
X117955594Y-139800514D01*
X117707830Y-139751231D01*
X117460065Y-139800515D01*
X115797082Y-140489346D01*
X115587038Y-140629693D01*
X115446690Y-140839738D01*
X115397407Y-141087502D01*
X84602592Y-141087502D01*
X84553309Y-140839738D01*
X84412961Y-140629693D01*
X84202917Y-140489346D01*
X82539934Y-139800515D01*
X82292169Y-139751231D01*
X82044405Y-139800514D01*
X81834360Y-139940862D01*
X81694013Y-140150906D01*
X81005182Y-141813889D01*
X80955898Y-142061654D01*
X81005181Y-142309418D01*
X81145529Y-142519463D01*
X81158817Y-142528342D01*
X80937722Y-142619922D01*
X80505919Y-143051725D01*
X80272229Y-143615902D01*
X77055111Y-143615902D01*
X75366904Y-142703093D01*
X73023702Y-141261545D01*
X70764623Y-139691444D01*
X70164703Y-139222735D01*
X72053191Y-139222735D01*
X72053191Y-139833395D01*
X72286881Y-140397572D01*
X72718684Y-140829375D01*
X73282861Y-141063065D01*
X73893521Y-141063065D01*
X74457698Y-140829375D01*
X74889501Y-140397572D01*
X75123191Y-139833395D01*
X75123191Y-139299468D01*
X75373957Y-139299468D01*
X75607346Y-139202795D01*
X75785975Y-139024167D01*
X76786002Y-137527522D01*
X76882675Y-137294133D01*
X76882675Y-137041514D01*
X123117324Y-137041514D01*
X123117324Y-137294133D01*
X123213997Y-137527522D01*
X124214024Y-139024167D01*
X124392653Y-139202795D01*
X124626042Y-139299468D01*
X124876808Y-139299468D01*
X124876808Y-139833395D01*
X125110498Y-140397572D01*
X125542301Y-140829375D01*
X126106478Y-141063065D01*
X126717138Y-141063065D01*
X127281315Y-140829375D01*
X127713118Y-140397572D01*
X127946808Y-139833395D01*
X127946808Y-139222735D01*
X127713118Y-138658558D01*
X127281315Y-138226755D01*
X126788031Y-138022430D01*
X126883996Y-137790750D01*
X126883996Y-137538131D01*
X126787323Y-137304742D01*
X125787296Y-135808097D01*
X125608667Y-135629469D01*
X125375278Y-135532796D01*
X125122659Y-135532796D01*
X124889270Y-135629469D01*
X123392625Y-136629496D01*
X123213997Y-136808125D01*
X123117324Y-137041514D01*
X76882675Y-137041514D01*
X76786002Y-136808125D01*
X76607374Y-136629496D01*
X75110729Y-135629469D01*
X74877340Y-135532796D01*
X74624721Y-135532796D01*
X74391332Y-135629469D01*
X74212703Y-135808097D01*
X73212676Y-137304742D01*
X73116003Y-137538131D01*
X73116003Y-137790750D01*
X73211968Y-138022430D01*
X72718684Y-138226755D01*
X72286881Y-138658558D01*
X72053191Y-139222735D01*
X70164703Y-139222735D01*
X68596711Y-137997686D01*
X66526728Y-136185553D01*
X64561129Y-134260696D01*
X63693505Y-133310526D01*
X64849143Y-133310526D01*
X64849143Y-133921186D01*
X65082833Y-134485363D01*
X65514636Y-134917166D01*
X66078813Y-135150856D01*
X66689473Y-135150856D01*
X67253650Y-134917166D01*
X67685453Y-134485363D01*
X67919143Y-133921186D01*
X67919143Y-133681877D01*
X67932429Y-133690754D01*
X68180194Y-133740037D01*
X68427959Y-133690754D01*
X68638003Y-133550406D01*
X69608409Y-132580000D01*
X98638846Y-132580000D01*
X98742458Y-133100891D01*
X99037519Y-133542481D01*
X99479109Y-133837542D01*
X99868515Y-133915000D01*
X100131485Y-133915000D01*
X100520891Y-133837542D01*
X100962481Y-133542481D01*
X101250000Y-133112178D01*
X101537519Y-133542481D01*
X101979109Y-133837542D01*
X102368515Y-133915000D01*
X102631485Y-133915000D01*
X103020891Y-133837542D01*
X103462481Y-133542481D01*
X103750000Y-133112178D01*
X104037519Y-133542481D01*
X104479109Y-133837542D01*
X104868515Y-133915000D01*
X105131485Y-133915000D01*
X105520891Y-133837542D01*
X105962481Y-133542481D01*
X106250000Y-133112178D01*
X106537519Y-133542481D01*
X106979109Y-133837542D01*
X107368515Y-133915000D01*
X107631485Y-133915000D01*
X108020891Y-133837542D01*
X108462481Y-133542481D01*
X108750000Y-133112178D01*
X109037519Y-133542481D01*
X109479109Y-133837542D01*
X109868515Y-133915000D01*
X110131485Y-133915000D01*
X110520891Y-133837542D01*
X110962481Y-133542481D01*
X111250000Y-133112178D01*
X111537519Y-133542481D01*
X111979109Y-133837542D01*
X112368515Y-133915000D01*
X112631485Y-133915000D01*
X113020891Y-133837542D01*
X113462481Y-133542481D01*
X113750000Y-133112178D01*
X114037519Y-133542481D01*
X114479109Y-133837542D01*
X114868515Y-133915000D01*
X115131485Y-133915000D01*
X115520891Y-133837542D01*
X115962481Y-133542481D01*
X116250000Y-133112178D01*
X116537519Y-133542481D01*
X116979109Y-133837542D01*
X117368515Y-133915000D01*
X117631485Y-133915000D01*
X118020891Y-133837542D01*
X118462481Y-133542481D01*
X118757542Y-133100891D01*
X118861154Y-132580000D01*
X118757542Y-132059109D01*
X118597645Y-131819805D01*
X129899573Y-131819805D01*
X129948856Y-132067570D01*
X130089204Y-132277614D01*
X131361996Y-133550406D01*
X131572040Y-133690754D01*
X131819805Y-133740037D01*
X132067570Y-133690754D01*
X132080856Y-133681877D01*
X132080856Y-133921186D01*
X132314546Y-134485363D01*
X132746349Y-134917166D01*
X133310526Y-135150856D01*
X133921186Y-135150856D01*
X134485363Y-134917166D01*
X134917166Y-134485363D01*
X135150856Y-133921186D01*
X135150856Y-133310526D01*
X134917166Y-132746349D01*
X134485363Y-132314546D01*
X133921186Y-132080856D01*
X133681877Y-132080856D01*
X133690754Y-132067570D01*
X133740037Y-131819805D01*
X133690754Y-131572040D01*
X133550406Y-131361996D01*
X132277614Y-130089204D01*
X132067570Y-129948856D01*
X131819805Y-129899573D01*
X131572040Y-129948856D01*
X131361996Y-130089204D01*
X130089204Y-131361996D01*
X129948856Y-131572040D01*
X129899573Y-131819805D01*
X118597645Y-131819805D01*
X118462481Y-131617519D01*
X118020891Y-131322458D01*
X117631485Y-131245000D01*
X117368515Y-131245000D01*
X116979109Y-131322458D01*
X116537519Y-131617519D01*
X116250000Y-132047822D01*
X115962481Y-131617519D01*
X115520891Y-131322458D01*
X115131485Y-131245000D01*
X114868515Y-131245000D01*
X114479109Y-131322458D01*
X114037519Y-131617519D01*
X113750000Y-132047822D01*
X113462481Y-131617519D01*
X113020891Y-131322458D01*
X112631485Y-131245000D01*
X112368515Y-131245000D01*
X111979109Y-131322458D01*
X111537519Y-131617519D01*
X111250000Y-132047822D01*
X110962481Y-131617519D01*
X110520891Y-131322458D01*
X110131485Y-131245000D01*
X109868515Y-131245000D01*
X109479109Y-131322458D01*
X109037519Y-131617519D01*
X108750000Y-132047822D01*
X108462481Y-131617519D01*
X108020891Y-131322458D01*
X107631485Y-131245000D01*
X107368515Y-131245000D01*
X106979109Y-131322458D01*
X106537519Y-131617519D01*
X106250000Y-132047822D01*
X105962481Y-131617519D01*
X105520891Y-131322458D01*
X105131485Y-131245000D01*
X104868515Y-131245000D01*
X104479109Y-131322458D01*
X104037519Y-131617519D01*
X103750000Y-132047822D01*
X103462481Y-131617519D01*
X103020891Y-131322458D01*
X102631485Y-131245000D01*
X102368515Y-131245000D01*
X101979109Y-131322458D01*
X101537519Y-131617519D01*
X101250000Y-132047822D01*
X100962481Y-131617519D01*
X100520891Y-131322458D01*
X100131485Y-131245000D01*
X99868515Y-131245000D01*
X99479109Y-131322458D01*
X99037519Y-131617519D01*
X98742458Y-132059109D01*
X98638846Y-132580000D01*
X69608409Y-132580000D01*
X69910795Y-132277614D01*
X70051143Y-132067570D01*
X70100426Y-131819805D01*
X70051143Y-131572040D01*
X69910795Y-131361996D01*
X68638003Y-130089204D01*
X68427959Y-129948856D01*
X68180194Y-129899573D01*
X67932429Y-129948856D01*
X67722385Y-130089204D01*
X66449593Y-131361996D01*
X66309245Y-131572040D01*
X66259962Y-131819805D01*
X66309245Y-132067570D01*
X66318122Y-132080856D01*
X66078813Y-132080856D01*
X65514636Y-132314546D01*
X65082833Y-132746349D01*
X64849143Y-133310526D01*
X63693505Y-133310526D01*
X62706043Y-132229117D01*
X60967255Y-130097152D01*
X59350188Y-127871450D01*
X58212741Y-126106478D01*
X58936934Y-126106478D01*
X58936934Y-126717138D01*
X59170624Y-127281315D01*
X59602427Y-127713118D01*
X60166604Y-127946808D01*
X60777264Y-127946808D01*
X61341441Y-127713118D01*
X61773244Y-127281315D01*
X61977569Y-126788031D01*
X62209249Y-126883996D01*
X62461868Y-126883996D01*
X62695257Y-126787323D01*
X64191902Y-125787296D01*
X64370530Y-125608667D01*
X64467203Y-125375278D01*
X64467203Y-125122659D01*
X64370530Y-124889270D01*
X64147466Y-124555431D01*
X72765000Y-124555431D01*
X72765000Y-125444569D01*
X73105259Y-126266026D01*
X73733974Y-126894741D01*
X74555431Y-127235000D01*
X75444569Y-127235000D01*
X76266026Y-126894741D01*
X76894741Y-126266026D01*
X77235000Y-125444569D01*
X77235000Y-124555431D01*
X76894741Y-123733974D01*
X76266026Y-123105259D01*
X75444569Y-122765000D01*
X74555431Y-122765000D01*
X73733974Y-123105259D01*
X73105259Y-123733974D01*
X72765000Y-124555431D01*
X64147466Y-124555431D01*
X63370503Y-123392625D01*
X63191874Y-123213997D01*
X62958485Y-123117324D01*
X62705866Y-123117324D01*
X62472477Y-123213997D01*
X60975832Y-124214024D01*
X60797204Y-124392653D01*
X60700531Y-124626042D01*
X60700531Y-124876808D01*
X60166604Y-124876808D01*
X59602427Y-125110498D01*
X59170624Y-125542301D01*
X58936934Y-126106478D01*
X58212741Y-126106478D01*
X57859884Y-125558952D01*
X56500991Y-123166868D01*
X55277747Y-120702658D01*
X54193965Y-118174007D01*
X54089664Y-117887440D01*
X54543767Y-117887440D01*
X54543767Y-118498100D01*
X54777457Y-119062277D01*
X55209260Y-119494080D01*
X55773437Y-119727770D01*
X56384097Y-119727770D01*
X56948274Y-119494080D01*
X57380077Y-119062277D01*
X57471657Y-118841182D01*
X57480536Y-118854470D01*
X57690581Y-118994818D01*
X57938345Y-119044101D01*
X58186110Y-118994817D01*
X59849093Y-118305986D01*
X60059137Y-118165639D01*
X60199485Y-117955594D01*
X60248768Y-117707830D01*
X60199484Y-117460065D01*
X59510653Y-115797082D01*
X59370306Y-115587038D01*
X59160261Y-115446690D01*
X58912497Y-115397407D01*
X58664732Y-115446691D01*
X57001749Y-116135522D01*
X56791705Y-116275869D01*
X56651357Y-116485914D01*
X56602074Y-116733678D01*
X56605191Y-116749350D01*
X56384097Y-116657770D01*
X55773437Y-116657770D01*
X55209260Y-116891460D01*
X54777457Y-117323263D01*
X54543767Y-117887440D01*
X54089664Y-117887440D01*
X53253027Y-115588801D01*
X52457866Y-112955101D01*
X51810962Y-110281120D01*
X51570192Y-108969263D01*
X51838467Y-108969263D01*
X51838467Y-109579923D01*
X52072157Y-110144100D01*
X52503960Y-110575903D01*
X53068137Y-110809593D01*
X53678797Y-110809593D01*
X54242974Y-110575903D01*
X54620518Y-110198359D01*
X54797839Y-110375679D01*
X55031228Y-110472352D01*
X55283846Y-110472352D01*
X57049259Y-110121189D01*
X57282649Y-110024516D01*
X57461277Y-109845887D01*
X57557950Y-109612498D01*
X57557950Y-109359880D01*
X57206787Y-107594467D01*
X57110114Y-107361077D01*
X56931485Y-107182449D01*
X56698096Y-107085776D01*
X56445478Y-107085776D01*
X54680065Y-107436939D01*
X54446675Y-107533612D01*
X54268047Y-107712241D01*
X54172083Y-107943919D01*
X53678797Y-107739593D01*
X53068137Y-107739593D01*
X52503960Y-107973283D01*
X52072157Y-108405086D01*
X51838467Y-108969263D01*
X51570192Y-108969263D01*
X51314333Y-107575198D01*
X50969526Y-104845773D01*
X50777618Y-102101355D01*
X50744012Y-99694670D01*
X50925000Y-99694670D01*
X50925000Y-100305330D01*
X51158690Y-100869507D01*
X51590493Y-101301310D01*
X52154670Y-101535000D01*
X52765330Y-101535000D01*
X53329507Y-101301310D01*
X53498725Y-101132092D01*
X53501843Y-101147765D01*
X53642191Y-101357809D01*
X53852235Y-101498157D01*
X54100000Y-101547440D01*
X55900000Y-101547440D01*
X56147765Y-101498157D01*
X56357809Y-101357809D01*
X56498157Y-101147765D01*
X56547440Y-100900000D01*
X56547440Y-100000000D01*
X66058846Y-100000000D01*
X66162458Y-100520891D01*
X66457519Y-100962481D01*
X66887822Y-101250000D01*
X66457519Y-101537519D01*
X66162458Y-101979109D01*
X66058846Y-102500000D01*
X66162458Y-103020891D01*
X66457519Y-103462481D01*
X66887822Y-103750000D01*
X66457519Y-104037519D01*
X66162458Y-104479109D01*
X66058846Y-105000000D01*
X66162458Y-105520891D01*
X66457519Y-105962481D01*
X66887822Y-106250000D01*
X66457519Y-106537519D01*
X66162458Y-106979109D01*
X66058846Y-107500000D01*
X66162458Y-108020891D01*
X66457519Y-108462481D01*
X66887822Y-108750000D01*
X66457519Y-109037519D01*
X66162458Y-109479109D01*
X66058846Y-110000000D01*
X66162458Y-110520891D01*
X66457519Y-110962481D01*
X66887822Y-111250000D01*
X66457519Y-111537519D01*
X66162458Y-111979109D01*
X66058846Y-112500000D01*
X66162458Y-113020891D01*
X66457519Y-113462481D01*
X66887822Y-113750000D01*
X66457519Y-114037519D01*
X66162458Y-114479109D01*
X66058846Y-115000000D01*
X66162458Y-115520891D01*
X66457519Y-115962481D01*
X66887822Y-116250000D01*
X66457519Y-116537519D01*
X66162458Y-116979109D01*
X66058846Y-117500000D01*
X66162458Y-118020891D01*
X66457519Y-118462481D01*
X66899109Y-118757542D01*
X67288515Y-118835000D01*
X67551485Y-118835000D01*
X67940891Y-118757542D01*
X68382481Y-118462481D01*
X68677542Y-118020891D01*
X68781154Y-117500000D01*
X68677542Y-116979109D01*
X68382481Y-116537519D01*
X67952178Y-116250000D01*
X68382481Y-115962481D01*
X68677542Y-115520891D01*
X68781154Y-115000000D01*
X68677542Y-114479109D01*
X68382481Y-114037519D01*
X67952178Y-113750000D01*
X68382481Y-113462481D01*
X68677542Y-113020891D01*
X68781154Y-112500000D01*
X68677542Y-111979109D01*
X68382481Y-111537519D01*
X67952178Y-111250000D01*
X68382481Y-110962481D01*
X68677542Y-110520891D01*
X68781154Y-110000000D01*
X68677542Y-109479109D01*
X68382481Y-109037519D01*
X67952178Y-108750000D01*
X68382481Y-108462481D01*
X68677542Y-108020891D01*
X68781154Y-107500000D01*
X68677542Y-106979109D01*
X68382481Y-106537519D01*
X67952178Y-106250000D01*
X68382481Y-105962481D01*
X68677542Y-105520891D01*
X68781154Y-105000000D01*
X68677542Y-104479109D01*
X68382481Y-104037519D01*
X67952178Y-103750000D01*
X68382481Y-103462481D01*
X68677542Y-103020891D01*
X68781154Y-102500000D01*
X68677542Y-101979109D01*
X68382481Y-101537519D01*
X67952178Y-101250000D01*
X68382481Y-100962481D01*
X68677542Y-100520891D01*
X68781154Y-100000000D01*
X68728334Y-99734452D01*
X71165000Y-99734452D01*
X71165000Y-100265548D01*
X71368242Y-100756217D01*
X71743783Y-101131758D01*
X72029244Y-101250000D01*
X71743783Y-101368242D01*
X71368242Y-101743783D01*
X71165000Y-102234452D01*
X71165000Y-102765548D01*
X71368242Y-103256217D01*
X71743783Y-103631758D01*
X72029244Y-103750000D01*
X71743783Y-103868242D01*
X71368242Y-104243783D01*
X71165000Y-104734452D01*
X71165000Y-105265548D01*
X71368242Y-105756217D01*
X71743783Y-106131758D01*
X72029244Y-106250000D01*
X71743783Y-106368242D01*
X71368242Y-106743783D01*
X71165000Y-107234452D01*
X71165000Y-107765548D01*
X71368242Y-108256217D01*
X71743783Y-108631758D01*
X72029244Y-108750000D01*
X71743783Y-108868242D01*
X71368242Y-109243783D01*
X71165000Y-109734452D01*
X71165000Y-110265548D01*
X71368242Y-110756217D01*
X71743783Y-111131758D01*
X72029244Y-111250000D01*
X71743783Y-111368242D01*
X71368242Y-111743783D01*
X71165000Y-112234452D01*
X71165000Y-112765548D01*
X71368242Y-113256217D01*
X71743783Y-113631758D01*
X72029244Y-113750000D01*
X71743783Y-113868242D01*
X71368242Y-114243783D01*
X71165000Y-114734452D01*
X71165000Y-115265548D01*
X71368242Y-115756217D01*
X71743783Y-116131758D01*
X72029244Y-116250000D01*
X71743783Y-116368242D01*
X71368242Y-116743783D01*
X71165000Y-117234452D01*
X71165000Y-117765548D01*
X71368242Y-118256217D01*
X71743783Y-118631758D01*
X72234452Y-118835000D01*
X72765548Y-118835000D01*
X73256217Y-118631758D01*
X73631758Y-118256217D01*
X73646265Y-118221194D01*
X73768959Y-118517423D01*
X74144866Y-118932389D01*
X74650959Y-119171914D01*
X74873000Y-119050629D01*
X74873000Y-117907000D01*
X75127000Y-117907000D01*
X75127000Y-119050629D01*
X75349041Y-119171914D01*
X75855134Y-118932389D01*
X76231041Y-118517423D01*
X76391904Y-118129039D01*
X76269915Y-117907000D01*
X75127000Y-117907000D01*
X74873000Y-117907000D01*
X74853000Y-117907000D01*
X74853000Y-117653000D01*
X74873000Y-117653000D01*
X74873000Y-117633000D01*
X75127000Y-117633000D01*
X75127000Y-117653000D01*
X76269915Y-117653000D01*
X76391904Y-117430961D01*
X76231041Y-117042577D01*
X75855134Y-116627611D01*
X75650892Y-116530947D01*
X76034577Y-116274577D01*
X76351740Y-115799909D01*
X76463113Y-115240000D01*
X76351740Y-114680091D01*
X76034577Y-114205423D01*
X75682242Y-113970000D01*
X76034577Y-113734577D01*
X76351740Y-113259909D01*
X76463113Y-112700000D01*
X76351740Y-112140091D01*
X76034577Y-111665423D01*
X75682242Y-111430000D01*
X76034577Y-111194577D01*
X76351740Y-110719909D01*
X76463113Y-110160000D01*
X81156887Y-110160000D01*
X81268260Y-110719909D01*
X81585423Y-111194577D01*
X81937758Y-111430000D01*
X81585423Y-111665423D01*
X81268260Y-112140091D01*
X81156887Y-112700000D01*
X81268260Y-113259909D01*
X81585423Y-113734577D01*
X81937758Y-113970000D01*
X81585423Y-114205423D01*
X81268260Y-114680091D01*
X81156887Y-115240000D01*
X81268260Y-115799909D01*
X81585423Y-116274577D01*
X81937758Y-116510000D01*
X81585423Y-116745423D01*
X81268260Y-117220091D01*
X81156887Y-117780000D01*
X81268260Y-118339909D01*
X81585423Y-118814577D01*
X82060091Y-119131740D01*
X82478667Y-119215000D01*
X82761333Y-119215000D01*
X83179909Y-119131740D01*
X83654577Y-118814577D01*
X83971740Y-118339909D01*
X84083113Y-117780000D01*
X84003548Y-117380000D01*
X98536887Y-117380000D01*
X98648260Y-117939909D01*
X98965423Y-118414577D01*
X99440091Y-118731740D01*
X99858667Y-118815000D01*
X100141333Y-118815000D01*
X100365001Y-118770510D01*
X100365002Y-123552560D01*
X99200000Y-123552560D01*
X98952235Y-123601843D01*
X98742191Y-123742191D01*
X98601843Y-123952235D01*
X98552560Y-124200000D01*
X98552560Y-125800000D01*
X98601843Y-126047765D01*
X98742191Y-126257809D01*
X98952235Y-126398157D01*
X99170461Y-126441564D01*
X98868242Y-126743783D01*
X98665000Y-127234452D01*
X98665000Y-127765548D01*
X98868242Y-128256217D01*
X99243783Y-128631758D01*
X99734452Y-128835000D01*
X100265548Y-128835000D01*
X100756217Y-128631758D01*
X101131758Y-128256217D01*
X101250000Y-127970756D01*
X101368242Y-128256217D01*
X101743783Y-128631758D01*
X102234452Y-128835000D01*
X102765548Y-128835000D01*
X103256217Y-128631758D01*
X103631758Y-128256217D01*
X103750000Y-127970756D01*
X103868242Y-128256217D01*
X104243783Y-128631758D01*
X104734452Y-128835000D01*
X105265548Y-128835000D01*
X105756217Y-128631758D01*
X106131758Y-128256217D01*
X106250000Y-127970756D01*
X106368242Y-128256217D01*
X106743783Y-128631758D01*
X107234452Y-128835000D01*
X107765548Y-128835000D01*
X108256217Y-128631758D01*
X108631758Y-128256217D01*
X108750000Y-127970756D01*
X108868242Y-128256217D01*
X109243783Y-128631758D01*
X109734452Y-128835000D01*
X110265548Y-128835000D01*
X110756217Y-128631758D01*
X111131758Y-128256217D01*
X111250000Y-127970756D01*
X111368242Y-128256217D01*
X111743783Y-128631758D01*
X112234452Y-128835000D01*
X112765548Y-128835000D01*
X113256217Y-128631758D01*
X113631758Y-128256217D01*
X113750000Y-127970756D01*
X113868242Y-128256217D01*
X114243783Y-128631758D01*
X114734452Y-128835000D01*
X115265548Y-128835000D01*
X115756217Y-128631758D01*
X116131758Y-128256217D01*
X116250000Y-127970756D01*
X116368242Y-128256217D01*
X116743783Y-128631758D01*
X117234452Y-128835000D01*
X117765548Y-128835000D01*
X118256217Y-128631758D01*
X118631758Y-128256217D01*
X118835000Y-127765548D01*
X118835000Y-127234452D01*
X118631758Y-126743783D01*
X118256217Y-126368242D01*
X118221194Y-126353735D01*
X118517423Y-126231041D01*
X118932389Y-125855134D01*
X119171914Y-125349041D01*
X119050629Y-125127000D01*
X117907000Y-125127000D01*
X117907000Y-125147000D01*
X117653000Y-125147000D01*
X117653000Y-125127000D01*
X117633000Y-125127000D01*
X117633000Y-124873000D01*
X117653000Y-124873000D01*
X117653000Y-123730085D01*
X117907000Y-123730085D01*
X117907000Y-124873000D01*
X119050629Y-124873000D01*
X119171914Y-124650959D01*
X119126703Y-124555431D01*
X122765000Y-124555431D01*
X122765000Y-125444569D01*
X123105259Y-126266026D01*
X123733974Y-126894741D01*
X124555431Y-127235000D01*
X125444569Y-127235000D01*
X126266026Y-126894741D01*
X126894741Y-126266026D01*
X127235000Y-125444569D01*
X127235000Y-125122659D01*
X135532796Y-125122659D01*
X135532796Y-125375278D01*
X135629469Y-125608667D01*
X135808097Y-125787296D01*
X137304742Y-126787323D01*
X137538131Y-126883996D01*
X137790750Y-126883996D01*
X138022430Y-126788031D01*
X138226755Y-127281315D01*
X138658558Y-127713118D01*
X139222735Y-127946808D01*
X139833395Y-127946808D01*
X140397572Y-127713118D01*
X140829375Y-127281315D01*
X141063065Y-126717138D01*
X141063065Y-126106478D01*
X140829375Y-125542301D01*
X140397572Y-125110498D01*
X139833395Y-124876808D01*
X139299468Y-124876808D01*
X139299468Y-124626042D01*
X139202795Y-124392653D01*
X139024167Y-124214024D01*
X137527522Y-123213997D01*
X137294133Y-123117324D01*
X137041514Y-123117324D01*
X136808125Y-123213997D01*
X136629496Y-123392625D01*
X135629469Y-124889270D01*
X135532796Y-125122659D01*
X127235000Y-125122659D01*
X127235000Y-124555431D01*
X126894741Y-123733974D01*
X126266026Y-123105259D01*
X125444569Y-122765000D01*
X124555431Y-122765000D01*
X123733974Y-123105259D01*
X123105259Y-123733974D01*
X122765000Y-124555431D01*
X119126703Y-124555431D01*
X118932389Y-124144866D01*
X118517423Y-123768959D01*
X118129039Y-123608096D01*
X117907000Y-123730085D01*
X117653000Y-123730085D01*
X117430961Y-123608096D01*
X117042577Y-123768959D01*
X116627611Y-124144866D01*
X116530947Y-124349108D01*
X116274577Y-123965423D01*
X115799909Y-123648260D01*
X115381333Y-123565000D01*
X115098667Y-123565000D01*
X114680091Y-123648260D01*
X114205423Y-123965423D01*
X113970000Y-124317758D01*
X113734577Y-123965423D01*
X113259909Y-123648260D01*
X112841333Y-123565000D01*
X112558667Y-123565000D01*
X112140091Y-123648260D01*
X111665423Y-123965423D01*
X111430000Y-124317758D01*
X111194577Y-123965423D01*
X110719909Y-123648260D01*
X110301333Y-123565000D01*
X110018667Y-123565000D01*
X109600091Y-123648260D01*
X109125423Y-123965423D01*
X108890000Y-124317758D01*
X108654577Y-123965423D01*
X108179909Y-123648260D01*
X107761333Y-123565000D01*
X107478667Y-123565000D01*
X107060091Y-123648260D01*
X106585423Y-123965423D01*
X106350000Y-124317758D01*
X106114577Y-123965423D01*
X105639909Y-123648260D01*
X105221333Y-123565000D01*
X104938667Y-123565000D01*
X104520091Y-123648260D01*
X104045423Y-123965423D01*
X103810000Y-124317758D01*
X103574577Y-123965423D01*
X103099909Y-123648260D01*
X102681333Y-123565000D01*
X102398667Y-123565000D01*
X102135001Y-123617446D01*
X102135001Y-119036577D01*
X102363561Y-118808017D01*
X102398667Y-118815000D01*
X102681333Y-118815000D01*
X103099909Y-118731740D01*
X103574577Y-118414577D01*
X103810000Y-118062242D01*
X104045423Y-118414577D01*
X104520091Y-118731740D01*
X104938667Y-118815000D01*
X105221333Y-118815000D01*
X105639909Y-118731740D01*
X106114577Y-118414577D01*
X106370947Y-118030892D01*
X106467611Y-118235134D01*
X106882577Y-118611041D01*
X107270961Y-118771904D01*
X107493000Y-118649915D01*
X107493000Y-117507000D01*
X107473000Y-117507000D01*
X107473000Y-117253000D01*
X107493000Y-117253000D01*
X107493000Y-116110085D01*
X107747000Y-116110085D01*
X107747000Y-117253000D01*
X107767000Y-117253000D01*
X107767000Y-117507000D01*
X107747000Y-117507000D01*
X107747000Y-118649915D01*
X107969039Y-118771904D01*
X108357423Y-118611041D01*
X108772389Y-118235134D01*
X108869053Y-118030892D01*
X109125423Y-118414577D01*
X109600091Y-118731740D01*
X110018667Y-118815000D01*
X110301333Y-118815000D01*
X110719909Y-118731740D01*
X111194577Y-118414577D01*
X111430000Y-118062242D01*
X111665423Y-118414577D01*
X112140091Y-118731740D01*
X112558667Y-118815000D01*
X112841333Y-118815000D01*
X113259909Y-118731740D01*
X113734577Y-118414577D01*
X113970000Y-118062242D01*
X114205423Y-118414577D01*
X114680091Y-118731740D01*
X115098667Y-118815000D01*
X115381333Y-118815000D01*
X115799909Y-118731740D01*
X116274577Y-118414577D01*
X116510000Y-118062242D01*
X116745423Y-118414577D01*
X117220091Y-118731740D01*
X117638667Y-118815000D01*
X117921333Y-118815000D01*
X118339909Y-118731740D01*
X118814577Y-118414577D01*
X119131740Y-117939909D01*
X119177903Y-117707830D01*
X139751231Y-117707830D01*
X139800514Y-117955594D01*
X139940862Y-118165639D01*
X140150906Y-118305986D01*
X141813889Y-118994817D01*
X142061654Y-119044101D01*
X142309418Y-118994818D01*
X142519463Y-118854470D01*
X142528342Y-118841182D01*
X142619922Y-119062277D01*
X143051725Y-119494080D01*
X143615902Y-119727770D01*
X144226562Y-119727770D01*
X144790739Y-119494080D01*
X145222542Y-119062277D01*
X145456232Y-118498100D01*
X145456232Y-117887440D01*
X145222542Y-117323263D01*
X144790739Y-116891460D01*
X144226562Y-116657770D01*
X143615902Y-116657770D01*
X143394808Y-116749350D01*
X143397925Y-116733678D01*
X143348642Y-116485914D01*
X143208294Y-116275869D01*
X142998250Y-116135522D01*
X141335267Y-115446691D01*
X141087502Y-115397407D01*
X140839738Y-115446690D01*
X140629693Y-115587038D01*
X140489346Y-115797082D01*
X139800515Y-117460065D01*
X139751231Y-117707830D01*
X119177903Y-117707830D01*
X119243113Y-117380000D01*
X119131740Y-116820091D01*
X118814577Y-116345423D01*
X118339909Y-116028260D01*
X117921333Y-115945000D01*
X117638667Y-115945000D01*
X117220091Y-116028260D01*
X116745423Y-116345423D01*
X116510000Y-116697758D01*
X116274577Y-116345423D01*
X115799909Y-116028260D01*
X115381333Y-115945000D01*
X115098667Y-115945000D01*
X114680091Y-116028260D01*
X114205423Y-116345423D01*
X113970000Y-116697758D01*
X113734577Y-116345423D01*
X113259909Y-116028260D01*
X112841333Y-115945000D01*
X112558667Y-115945000D01*
X112140091Y-116028260D01*
X111665423Y-116345423D01*
X111430000Y-116697758D01*
X111194577Y-116345423D01*
X110719909Y-116028260D01*
X110301333Y-115945000D01*
X110018667Y-115945000D01*
X109600091Y-116028260D01*
X109125423Y-116345423D01*
X108869053Y-116729108D01*
X108772389Y-116524866D01*
X108357423Y-116148959D01*
X107969039Y-115988096D01*
X107747000Y-116110085D01*
X107493000Y-116110085D01*
X107270961Y-115988096D01*
X106882577Y-116148959D01*
X106467611Y-116524866D01*
X106370947Y-116729108D01*
X106114577Y-116345423D01*
X105639909Y-116028260D01*
X105221333Y-115945000D01*
X104938667Y-115945000D01*
X104520091Y-116028260D01*
X104045423Y-116345423D01*
X103810000Y-116697758D01*
X103574577Y-116345423D01*
X103099909Y-116028260D01*
X102681333Y-115945000D01*
X102398667Y-115945000D01*
X101980091Y-116028260D01*
X101505423Y-116345423D01*
X101270000Y-116697758D01*
X101034577Y-116345423D01*
X100559909Y-116028260D01*
X100141333Y-115945000D01*
X99858667Y-115945000D01*
X99440091Y-116028260D01*
X98965423Y-116345423D01*
X98648260Y-116820091D01*
X98536887Y-117380000D01*
X84003548Y-117380000D01*
X83971740Y-117220091D01*
X83654577Y-116745423D01*
X83302242Y-116510000D01*
X83654577Y-116274577D01*
X83971740Y-115799909D01*
X84083113Y-115240000D01*
X83971740Y-114680091D01*
X83654577Y-114205423D01*
X83302242Y-113970000D01*
X83654577Y-113734577D01*
X83971740Y-113259909D01*
X84083113Y-112700000D01*
X83971740Y-112140091D01*
X83654577Y-111665423D01*
X83302242Y-111430000D01*
X83654577Y-111194577D01*
X83971740Y-110719909D01*
X84083113Y-110160000D01*
X83971740Y-109600091D01*
X83811237Y-109359880D01*
X142442049Y-109359880D01*
X142442049Y-109612498D01*
X142538722Y-109845887D01*
X142717350Y-110024516D01*
X142950740Y-110121189D01*
X144716153Y-110472352D01*
X144968771Y-110472352D01*
X145202160Y-110375679D01*
X145379481Y-110198359D01*
X145757025Y-110575903D01*
X146321202Y-110809593D01*
X146931862Y-110809593D01*
X147496039Y-110575903D01*
X147927842Y-110144100D01*
X148161532Y-109579923D01*
X148161532Y-108969263D01*
X147927842Y-108405086D01*
X147496039Y-107973283D01*
X146931862Y-107739593D01*
X146321202Y-107739593D01*
X145827916Y-107943919D01*
X145731952Y-107712241D01*
X145553324Y-107533612D01*
X145319934Y-107436939D01*
X143554521Y-107085776D01*
X143301903Y-107085776D01*
X143068514Y-107182449D01*
X142889885Y-107361077D01*
X142793212Y-107594467D01*
X142442049Y-109359880D01*
X83811237Y-109359880D01*
X83654577Y-109125423D01*
X83270892Y-108869053D01*
X83475134Y-108772389D01*
X83851041Y-108357423D01*
X84011904Y-107969039D01*
X83889915Y-107747000D01*
X82747000Y-107747000D01*
X82747000Y-107767000D01*
X82493000Y-107767000D01*
X82493000Y-107747000D01*
X81350085Y-107747000D01*
X81228096Y-107969039D01*
X81388959Y-108357423D01*
X81764866Y-108772389D01*
X81969108Y-108869053D01*
X81585423Y-109125423D01*
X81268260Y-109600091D01*
X81156887Y-110160000D01*
X76463113Y-110160000D01*
X76351740Y-109600091D01*
X76034577Y-109125423D01*
X75682242Y-108890000D01*
X76034577Y-108654577D01*
X76351740Y-108179909D01*
X76463113Y-107620000D01*
X76351740Y-107060091D01*
X76034577Y-106585423D01*
X75682242Y-106350000D01*
X76034577Y-106114577D01*
X76351740Y-105639909D01*
X76463113Y-105080000D01*
X76351740Y-104520091D01*
X76034577Y-104045423D01*
X75682242Y-103810000D01*
X76034577Y-103574577D01*
X76351740Y-103099909D01*
X76463113Y-102540000D01*
X76382554Y-102135001D01*
X80963423Y-102135001D01*
X81191983Y-102363561D01*
X81156887Y-102540000D01*
X81268260Y-103099909D01*
X81585423Y-103574577D01*
X81937758Y-103810000D01*
X81585423Y-104045423D01*
X81268260Y-104520091D01*
X81156887Y-105080000D01*
X81268260Y-105639909D01*
X81585423Y-106114577D01*
X81969108Y-106370947D01*
X81764866Y-106467611D01*
X81388959Y-106882577D01*
X81228096Y-107270961D01*
X81350085Y-107493000D01*
X82493000Y-107493000D01*
X82493000Y-107473000D01*
X82747000Y-107473000D01*
X82747000Y-107493000D01*
X83889915Y-107493000D01*
X84011904Y-107270961D01*
X83851041Y-106882577D01*
X83475134Y-106467611D01*
X83270892Y-106370947D01*
X83654577Y-106114577D01*
X83971740Y-105639909D01*
X84083113Y-105080000D01*
X83971740Y-104520091D01*
X83654577Y-104045423D01*
X83302242Y-103810000D01*
X83654577Y-103574577D01*
X83769533Y-103402532D01*
X95777073Y-103402532D01*
X95875736Y-103669387D01*
X96485461Y-103895908D01*
X97135460Y-103871856D01*
X97624264Y-103669387D01*
X97722927Y-103402532D01*
X102277073Y-103402532D01*
X102375736Y-103669387D01*
X102985461Y-103895908D01*
X103635460Y-103871856D01*
X104124264Y-103669387D01*
X104222927Y-103402532D01*
X103250000Y-102429605D01*
X102277073Y-103402532D01*
X97722927Y-103402532D01*
X96750000Y-102429605D01*
X95777073Y-103402532D01*
X83769533Y-103402532D01*
X83971740Y-103099909D01*
X84083113Y-102540000D01*
X83972809Y-101985461D01*
X95104092Y-101985461D01*
X95128144Y-102635460D01*
X95330613Y-103124264D01*
X95597468Y-103222927D01*
X96570395Y-102250000D01*
X96929605Y-102250000D01*
X97902532Y-103222927D01*
X98169387Y-103124264D01*
X98395908Y-102514539D01*
X98376331Y-101985461D01*
X101604092Y-101985461D01*
X101628144Y-102635460D01*
X101830613Y-103124264D01*
X102097468Y-103222927D01*
X103070395Y-102250000D01*
X103429605Y-102250000D01*
X104402532Y-103222927D01*
X104669387Y-103124264D01*
X104895908Y-102514539D01*
X104871856Y-101864540D01*
X104669387Y-101375736D01*
X104402532Y-101277073D01*
X103429605Y-102250000D01*
X103070395Y-102250000D01*
X102097468Y-101277073D01*
X101830613Y-101375736D01*
X101604092Y-101985461D01*
X98376331Y-101985461D01*
X98371856Y-101864540D01*
X98169387Y-101375736D01*
X97902532Y-101277073D01*
X96929605Y-102250000D01*
X96570395Y-102250000D01*
X95597468Y-101277073D01*
X95330613Y-101375736D01*
X95104092Y-101985461D01*
X83972809Y-101985461D01*
X83971740Y-101980091D01*
X83654577Y-101505423D01*
X83302242Y-101270000D01*
X83560454Y-101097468D01*
X95777073Y-101097468D01*
X96750000Y-102070395D01*
X97722927Y-101097468D01*
X102277073Y-101097468D01*
X103250000Y-102070395D01*
X104222927Y-101097468D01*
X104124264Y-100830613D01*
X103514539Y-100604092D01*
X102864540Y-100628144D01*
X102375736Y-100830613D01*
X102277073Y-101097468D01*
X97722927Y-101097468D01*
X97624264Y-100830613D01*
X97014539Y-100604092D01*
X96364540Y-100628144D01*
X95875736Y-100830613D01*
X95777073Y-101097468D01*
X83560454Y-101097468D01*
X83654577Y-101034577D01*
X83971740Y-100559909D01*
X84083113Y-100000000D01*
X83971740Y-99440091D01*
X83654577Y-98965423D01*
X83179909Y-98648260D01*
X82761333Y-98565000D01*
X82478667Y-98565000D01*
X82060091Y-98648260D01*
X81585423Y-98965423D01*
X81268260Y-99440091D01*
X81156887Y-100000000D01*
X81229490Y-100365001D01*
X76447440Y-100365001D01*
X76447440Y-99200000D01*
X76398157Y-98952235D01*
X76257809Y-98742191D01*
X76047765Y-98601843D01*
X75800000Y-98552560D01*
X74200000Y-98552560D01*
X73952235Y-98601843D01*
X73742191Y-98742191D01*
X73601843Y-98952235D01*
X73558436Y-99170461D01*
X73256217Y-98868242D01*
X72765548Y-98665000D01*
X72234452Y-98665000D01*
X71743783Y-98868242D01*
X71368242Y-99243783D01*
X71165000Y-99734452D01*
X68728334Y-99734452D01*
X68677542Y-99479109D01*
X68382481Y-99037519D01*
X67940891Y-98742458D01*
X67551485Y-98665000D01*
X67288515Y-98665000D01*
X66899109Y-98742458D01*
X66457519Y-99037519D01*
X66162458Y-99479109D01*
X66058846Y-100000000D01*
X56547440Y-100000000D01*
X56547440Y-99100000D01*
X56498157Y-98852235D01*
X56357809Y-98642191D01*
X56147765Y-98501843D01*
X55900000Y-98452560D01*
X54100000Y-98452560D01*
X53852235Y-98501843D01*
X53642191Y-98642191D01*
X53501843Y-98852235D01*
X53498725Y-98867908D01*
X53329507Y-98698690D01*
X52765330Y-98465000D01*
X52154670Y-98465000D01*
X51590493Y-98698690D01*
X51158690Y-99130493D01*
X50925000Y-99694670D01*
X50744012Y-99694670D01*
X50739206Y-99350504D01*
X50854411Y-96601798D01*
X51122873Y-93863809D01*
X51220302Y-93234452D01*
X90165000Y-93234452D01*
X90165000Y-93765548D01*
X90368242Y-94256217D01*
X90743783Y-94631758D01*
X91234452Y-94835000D01*
X91765548Y-94835000D01*
X92256217Y-94631758D01*
X92631758Y-94256217D01*
X92655043Y-94200000D01*
X94552560Y-94200000D01*
X94552560Y-95800000D01*
X94601843Y-96047765D01*
X94742191Y-96257809D01*
X94952235Y-96398157D01*
X95200000Y-96447440D01*
X95740321Y-96447440D01*
X95363914Y-96823847D01*
X95115000Y-97424778D01*
X95115000Y-98075222D01*
X95363914Y-98676153D01*
X95823847Y-99136086D01*
X96424778Y-99385000D01*
X97075222Y-99385000D01*
X97676153Y-99136086D01*
X98136086Y-98676153D01*
X98385000Y-98075222D01*
X98385000Y-97424778D01*
X98136086Y-96823847D01*
X97676153Y-96363914D01*
X97292966Y-96205193D01*
X97398157Y-96047765D01*
X97424785Y-95913894D01*
X97505423Y-96034577D01*
X97980091Y-96351740D01*
X98398667Y-96435000D01*
X98681333Y-96435000D01*
X99099909Y-96351740D01*
X99574577Y-96034577D01*
X99810000Y-95682242D01*
X100045423Y-96034577D01*
X100520091Y-96351740D01*
X100938667Y-96435000D01*
X101221333Y-96435000D01*
X101639909Y-96351740D01*
X102114577Y-96034577D01*
X102370947Y-95650892D01*
X102467611Y-95855134D01*
X102807915Y-96163406D01*
X102323847Y-96363914D01*
X101863914Y-96823847D01*
X101615000Y-97424778D01*
X101615000Y-98075222D01*
X101863914Y-98676153D01*
X102323847Y-99136086D01*
X102924778Y-99385000D01*
X103575222Y-99385000D01*
X104176153Y-99136086D01*
X104636086Y-98676153D01*
X104885000Y-98075222D01*
X104885000Y-97424778D01*
X104636086Y-96823847D01*
X104176153Y-96363914D01*
X104106388Y-96335016D01*
X104357423Y-96231041D01*
X104772389Y-95855134D01*
X105011914Y-95349041D01*
X104890629Y-95127000D01*
X103747000Y-95127000D01*
X103747000Y-95147000D01*
X103493000Y-95147000D01*
X103493000Y-95127000D01*
X103473000Y-95127000D01*
X103473000Y-94920000D01*
X115916887Y-94920000D01*
X116028260Y-95479909D01*
X116345423Y-95954577D01*
X116697758Y-96190000D01*
X116345423Y-96425423D01*
X116028260Y-96900091D01*
X115916887Y-97460000D01*
X116028260Y-98019909D01*
X116345423Y-98494577D01*
X116697758Y-98730000D01*
X116345423Y-98965423D01*
X116028260Y-99440091D01*
X115916887Y-100000000D01*
X116028260Y-100559909D01*
X116345423Y-101034577D01*
X116820091Y-101351740D01*
X117238667Y-101435000D01*
X117521333Y-101435000D01*
X117939909Y-101351740D01*
X118414577Y-101034577D01*
X118731740Y-100559909D01*
X118843113Y-100000000D01*
X118770510Y-99634999D01*
X123552560Y-99634999D01*
X123552560Y-100800000D01*
X123601843Y-101047765D01*
X123742191Y-101257809D01*
X123952235Y-101398157D01*
X124200000Y-101447440D01*
X125800000Y-101447440D01*
X126047765Y-101398157D01*
X126257809Y-101257809D01*
X126398157Y-101047765D01*
X126441564Y-100829539D01*
X126743783Y-101131758D01*
X127234452Y-101335000D01*
X127765548Y-101335000D01*
X128256217Y-101131758D01*
X128631758Y-100756217D01*
X128835000Y-100265548D01*
X128835000Y-99734452D01*
X128631758Y-99243783D01*
X128256217Y-98868242D01*
X127970756Y-98750000D01*
X128256217Y-98631758D01*
X128631758Y-98256217D01*
X128835000Y-97765548D01*
X128835000Y-97234452D01*
X128631758Y-96743783D01*
X128256217Y-96368242D01*
X127970756Y-96250000D01*
X128256217Y-96131758D01*
X128631758Y-95756217D01*
X128835000Y-95265548D01*
X128835000Y-94734452D01*
X128631758Y-94243783D01*
X128256217Y-93868242D01*
X127970756Y-93750000D01*
X128256217Y-93631758D01*
X128631758Y-93256217D01*
X128835000Y-92765548D01*
X128835000Y-92234452D01*
X128631758Y-91743783D01*
X128256217Y-91368242D01*
X127970756Y-91250000D01*
X128256217Y-91131758D01*
X128631758Y-90756217D01*
X128835000Y-90265548D01*
X128835000Y-89734452D01*
X128631758Y-89243783D01*
X128256217Y-88868242D01*
X127970756Y-88750000D01*
X128256217Y-88631758D01*
X128631758Y-88256217D01*
X128835000Y-87765548D01*
X128835000Y-87234452D01*
X128631758Y-86743783D01*
X128256217Y-86368242D01*
X127970756Y-86250000D01*
X128256217Y-86131758D01*
X128631758Y-85756217D01*
X128835000Y-85265548D01*
X128835000Y-84734452D01*
X128631758Y-84243783D01*
X128256217Y-83868242D01*
X127970756Y-83750000D01*
X128256217Y-83631758D01*
X128631758Y-83256217D01*
X128835000Y-82765548D01*
X128835000Y-82500000D01*
X131218846Y-82500000D01*
X131322458Y-83020891D01*
X131617519Y-83462481D01*
X132047822Y-83750000D01*
X131617519Y-84037519D01*
X131322458Y-84479109D01*
X131218846Y-85000000D01*
X131322458Y-85520891D01*
X131617519Y-85962481D01*
X132047822Y-86250000D01*
X131617519Y-86537519D01*
X131322458Y-86979109D01*
X131218846Y-87500000D01*
X131322458Y-88020891D01*
X131617519Y-88462481D01*
X132047822Y-88750000D01*
X131617519Y-89037519D01*
X131322458Y-89479109D01*
X131218846Y-90000000D01*
X131322458Y-90520891D01*
X131617519Y-90962481D01*
X132047822Y-91250000D01*
X131617519Y-91537519D01*
X131322458Y-91979109D01*
X131218846Y-92500000D01*
X131322458Y-93020891D01*
X131617519Y-93462481D01*
X132047822Y-93750000D01*
X131617519Y-94037519D01*
X131322458Y-94479109D01*
X131218846Y-95000000D01*
X131322458Y-95520891D01*
X131617519Y-95962481D01*
X132047822Y-96250000D01*
X131617519Y-96537519D01*
X131322458Y-96979109D01*
X131218846Y-97500000D01*
X131322458Y-98020891D01*
X131617519Y-98462481D01*
X132047822Y-98750000D01*
X131617519Y-99037519D01*
X131322458Y-99479109D01*
X131218846Y-100000000D01*
X131322458Y-100520891D01*
X131617519Y-100962481D01*
X132059109Y-101257542D01*
X132448515Y-101335000D01*
X132711485Y-101335000D01*
X133100891Y-101257542D01*
X133542481Y-100962481D01*
X133837542Y-100520891D01*
X133941154Y-100000000D01*
X133837542Y-99479109D01*
X133584230Y-99100000D01*
X143452560Y-99100000D01*
X143452560Y-100900000D01*
X143501843Y-101147765D01*
X143642191Y-101357809D01*
X143852235Y-101498157D01*
X144100000Y-101547440D01*
X145900000Y-101547440D01*
X146147765Y-101498157D01*
X146357809Y-101357809D01*
X146498157Y-101147765D01*
X146501275Y-101132092D01*
X146670493Y-101301310D01*
X147234670Y-101535000D01*
X147845330Y-101535000D01*
X148409507Y-101301310D01*
X148841310Y-100869507D01*
X149075000Y-100305330D01*
X149075000Y-99694670D01*
X148841310Y-99130493D01*
X148409507Y-98698690D01*
X147845330Y-98465000D01*
X147234670Y-98465000D01*
X146670493Y-98698690D01*
X146501275Y-98867908D01*
X146498157Y-98852235D01*
X146357809Y-98642191D01*
X146147765Y-98501843D01*
X145900000Y-98452560D01*
X144100000Y-98452560D01*
X143852235Y-98501843D01*
X143642191Y-98642191D01*
X143501843Y-98852235D01*
X143452560Y-99100000D01*
X133584230Y-99100000D01*
X133542481Y-99037519D01*
X133112178Y-98750000D01*
X133542481Y-98462481D01*
X133837542Y-98020891D01*
X133941154Y-97500000D01*
X133837542Y-96979109D01*
X133542481Y-96537519D01*
X133112178Y-96250000D01*
X133542481Y-95962481D01*
X133837542Y-95520891D01*
X133941154Y-95000000D01*
X133837542Y-94479109D01*
X133542481Y-94037519D01*
X133112178Y-93750000D01*
X133542481Y-93462481D01*
X133837542Y-93020891D01*
X133941154Y-92500000D01*
X133837542Y-91979109D01*
X133542481Y-91537519D01*
X133112178Y-91250000D01*
X133542481Y-90962481D01*
X133837542Y-90520891D01*
X133864075Y-90387501D01*
X142442049Y-90387501D01*
X142442049Y-90640119D01*
X142793212Y-92405532D01*
X142889885Y-92638922D01*
X143068514Y-92817550D01*
X143301903Y-92914223D01*
X143554521Y-92914223D01*
X145319934Y-92563060D01*
X145553324Y-92466387D01*
X145731952Y-92287758D01*
X145827916Y-92056080D01*
X146321202Y-92260406D01*
X146931862Y-92260406D01*
X147496039Y-92026716D01*
X147927842Y-91594913D01*
X148161532Y-91030736D01*
X148161532Y-90420076D01*
X147927842Y-89855899D01*
X147496039Y-89424096D01*
X146931862Y-89190406D01*
X146321202Y-89190406D01*
X145757025Y-89424096D01*
X145379481Y-89801640D01*
X145202160Y-89624320D01*
X144968771Y-89527647D01*
X144716153Y-89527647D01*
X142950740Y-89878810D01*
X142717350Y-89975483D01*
X142538722Y-90154112D01*
X142442049Y-90387501D01*
X133864075Y-90387501D01*
X133941154Y-90000000D01*
X133837542Y-89479109D01*
X133542481Y-89037519D01*
X133112178Y-88750000D01*
X133542481Y-88462481D01*
X133837542Y-88020891D01*
X133941154Y-87500000D01*
X133837542Y-86979109D01*
X133542481Y-86537519D01*
X133112178Y-86250000D01*
X133542481Y-85962481D01*
X133837542Y-85520891D01*
X133941154Y-85000000D01*
X133837542Y-84479109D01*
X133542481Y-84037519D01*
X133112178Y-83750000D01*
X133542481Y-83462481D01*
X133837542Y-83020891D01*
X133941154Y-82500000D01*
X133899814Y-82292169D01*
X139751231Y-82292169D01*
X139800515Y-82539934D01*
X140489346Y-84202917D01*
X140629693Y-84412961D01*
X140839738Y-84553309D01*
X141087502Y-84602592D01*
X141335267Y-84553308D01*
X142998250Y-83864477D01*
X143208294Y-83724130D01*
X143348642Y-83514085D01*
X143397925Y-83266321D01*
X143394808Y-83250649D01*
X143615902Y-83342229D01*
X144226562Y-83342229D01*
X144790739Y-83108539D01*
X145222542Y-82676736D01*
X145456232Y-82112559D01*
X145456232Y-81501899D01*
X145222542Y-80937722D01*
X144790739Y-80505919D01*
X144226562Y-80272229D01*
X143615902Y-80272229D01*
X143051725Y-80505919D01*
X142619922Y-80937722D01*
X142528342Y-81158817D01*
X142519463Y-81145529D01*
X142309418Y-81005181D01*
X142061654Y-80955898D01*
X141813889Y-81005182D01*
X140150906Y-81694013D01*
X139940862Y-81834360D01*
X139800514Y-82044405D01*
X139751231Y-82292169D01*
X133899814Y-82292169D01*
X133837542Y-81979109D01*
X133542481Y-81537519D01*
X133100891Y-81242458D01*
X132711485Y-81165000D01*
X132448515Y-81165000D01*
X132059109Y-81242458D01*
X131617519Y-81537519D01*
X131322458Y-81979109D01*
X131218846Y-82500000D01*
X128835000Y-82500000D01*
X128835000Y-82234452D01*
X128631758Y-81743783D01*
X128256217Y-81368242D01*
X127765548Y-81165000D01*
X127234452Y-81165000D01*
X126743783Y-81368242D01*
X126368242Y-81743783D01*
X126353735Y-81778806D01*
X126231041Y-81482577D01*
X125855134Y-81067611D01*
X125349041Y-80828086D01*
X125127000Y-80949371D01*
X125127000Y-82093000D01*
X125147000Y-82093000D01*
X125147000Y-82347000D01*
X125127000Y-82347000D01*
X125127000Y-82367000D01*
X124873000Y-82367000D01*
X124873000Y-82347000D01*
X123730085Y-82347000D01*
X123608096Y-82569039D01*
X123768959Y-82957423D01*
X124144866Y-83372389D01*
X124349108Y-83469053D01*
X123965423Y-83725423D01*
X123648260Y-84200091D01*
X123536887Y-84760000D01*
X123648260Y-85319909D01*
X123965423Y-85794577D01*
X124317758Y-86030000D01*
X123965423Y-86265423D01*
X123648260Y-86740091D01*
X123536887Y-87300000D01*
X123648260Y-87859909D01*
X123965423Y-88334577D01*
X124317758Y-88570000D01*
X123965423Y-88805423D01*
X123648260Y-89280091D01*
X123536887Y-89840000D01*
X123648260Y-90399909D01*
X123965423Y-90874577D01*
X124317758Y-91110000D01*
X123965423Y-91345423D01*
X123648260Y-91820091D01*
X123536887Y-92380000D01*
X123648260Y-92939909D01*
X123965423Y-93414577D01*
X124317758Y-93650000D01*
X123965423Y-93885423D01*
X123648260Y-94360091D01*
X123536887Y-94920000D01*
X123648260Y-95479909D01*
X123965423Y-95954577D01*
X124317758Y-96190000D01*
X123965423Y-96425423D01*
X123648260Y-96900091D01*
X123536887Y-97460000D01*
X123617446Y-97864999D01*
X119036578Y-97864999D01*
X118808017Y-97636439D01*
X118843113Y-97460000D01*
X118731740Y-96900091D01*
X118414577Y-96425423D01*
X118062242Y-96190000D01*
X118414577Y-95954577D01*
X118731740Y-95479909D01*
X118843113Y-94920000D01*
X118731740Y-94360091D01*
X118414577Y-93885423D01*
X118030892Y-93629053D01*
X118235134Y-93532389D01*
X118611041Y-93117423D01*
X118771904Y-92729039D01*
X118649915Y-92507000D01*
X117507000Y-92507000D01*
X117507000Y-92527000D01*
X117253000Y-92527000D01*
X117253000Y-92507000D01*
X116110085Y-92507000D01*
X115988096Y-92729039D01*
X116148959Y-93117423D01*
X116524866Y-93532389D01*
X116729108Y-93629053D01*
X116345423Y-93885423D01*
X116028260Y-94360091D01*
X115916887Y-94920000D01*
X103473000Y-94920000D01*
X103473000Y-94873000D01*
X103493000Y-94873000D01*
X103493000Y-93730085D01*
X103747000Y-93730085D01*
X103747000Y-94873000D01*
X104890629Y-94873000D01*
X105011914Y-94650959D01*
X104772389Y-94144866D01*
X104357423Y-93768959D01*
X103969039Y-93608096D01*
X103747000Y-93730085D01*
X103493000Y-93730085D01*
X103270961Y-93608096D01*
X102882577Y-93768959D01*
X102467611Y-94144866D01*
X102370947Y-94349108D01*
X102114577Y-93965423D01*
X101639909Y-93648260D01*
X101221333Y-93565000D01*
X100938667Y-93565000D01*
X100520091Y-93648260D01*
X100045423Y-93965423D01*
X99810000Y-94317758D01*
X99574577Y-93965423D01*
X99099909Y-93648260D01*
X98681333Y-93565000D01*
X98398667Y-93565000D01*
X97980091Y-93648260D01*
X97505423Y-93965423D01*
X97424785Y-94086106D01*
X97398157Y-93952235D01*
X97257809Y-93742191D01*
X97047765Y-93601843D01*
X96800000Y-93552560D01*
X95200000Y-93552560D01*
X94952235Y-93601843D01*
X94742191Y-93742191D01*
X94601843Y-93952235D01*
X94552560Y-94200000D01*
X92655043Y-94200000D01*
X92835000Y-93765548D01*
X92835000Y-93234452D01*
X92631758Y-92743783D01*
X92256217Y-92368242D01*
X91765548Y-92165000D01*
X91234452Y-92165000D01*
X90743783Y-92368242D01*
X90368242Y-92743783D01*
X90165000Y-93234452D01*
X51220302Y-93234452D01*
X51543755Y-91145075D01*
X51697858Y-90420076D01*
X51838467Y-90420076D01*
X51838467Y-91030736D01*
X52072157Y-91594913D01*
X52503960Y-92026716D01*
X53068137Y-92260406D01*
X53678797Y-92260406D01*
X54172083Y-92056080D01*
X54268047Y-92287758D01*
X54446675Y-92466387D01*
X54680065Y-92563060D01*
X56445478Y-92914223D01*
X56698096Y-92914223D01*
X56931485Y-92817550D01*
X57110114Y-92638922D01*
X57206787Y-92405532D01*
X57557950Y-90640119D01*
X57557950Y-90387501D01*
X57461277Y-90154112D01*
X57282649Y-89975483D01*
X57049259Y-89878810D01*
X55283846Y-89527647D01*
X55031228Y-89527647D01*
X54797839Y-89624320D01*
X54620518Y-89801640D01*
X54242974Y-89424096D01*
X53678797Y-89190406D01*
X53068137Y-89190406D01*
X52503960Y-89424096D01*
X52072157Y-89855899D01*
X51838467Y-90420076D01*
X51697858Y-90420076D01*
X52115745Y-88454075D01*
X52125002Y-88420000D01*
X90138846Y-88420000D01*
X90242458Y-88940891D01*
X90537519Y-89382481D01*
X90979109Y-89677542D01*
X91368515Y-89755000D01*
X91631485Y-89755000D01*
X92020891Y-89677542D01*
X92462481Y-89382481D01*
X92757542Y-88940891D01*
X92861154Y-88420000D01*
X92757542Y-87899109D01*
X92462481Y-87457519D01*
X92346466Y-87380000D01*
X94536887Y-87380000D01*
X94648260Y-87939909D01*
X94965423Y-88414577D01*
X95440091Y-88731740D01*
X95858667Y-88815000D01*
X96141333Y-88815000D01*
X96559909Y-88731740D01*
X97034577Y-88414577D01*
X97270000Y-88062242D01*
X97505423Y-88414577D01*
X97980091Y-88731740D01*
X98398667Y-88815000D01*
X98681333Y-88815000D01*
X99099909Y-88731740D01*
X99574577Y-88414577D01*
X99810000Y-88062242D01*
X100045423Y-88414577D01*
X100520091Y-88731740D01*
X100938667Y-88815000D01*
X101221333Y-88815000D01*
X101639909Y-88731740D01*
X102114577Y-88414577D01*
X102350000Y-88062242D01*
X102585423Y-88414577D01*
X103060091Y-88731740D01*
X103478667Y-88815000D01*
X103761333Y-88815000D01*
X104179909Y-88731740D01*
X104654577Y-88414577D01*
X104971740Y-87939909D01*
X105083113Y-87380000D01*
X104971740Y-86820091D01*
X104654577Y-86345423D01*
X104179909Y-86028260D01*
X103761333Y-85945000D01*
X103478667Y-85945000D01*
X103060091Y-86028260D01*
X102585423Y-86345423D01*
X102350000Y-86697758D01*
X102114577Y-86345423D01*
X101639909Y-86028260D01*
X101221333Y-85945000D01*
X100938667Y-85945000D01*
X100520091Y-86028260D01*
X100045423Y-86345423D01*
X99810000Y-86697758D01*
X99574577Y-86345423D01*
X99099909Y-86028260D01*
X98681333Y-85945000D01*
X98398667Y-85945000D01*
X97980091Y-86028260D01*
X97505423Y-86345423D01*
X97270000Y-86697758D01*
X97034577Y-86345423D01*
X96559909Y-86028260D01*
X96141333Y-85945000D01*
X95858667Y-85945000D01*
X95440091Y-86028260D01*
X94965423Y-86345423D01*
X94648260Y-86820091D01*
X94536887Y-87380000D01*
X92346466Y-87380000D01*
X92020891Y-87162458D01*
X91631485Y-87085000D01*
X91368515Y-87085000D01*
X90979109Y-87162458D01*
X90537519Y-87457519D01*
X90242458Y-87899109D01*
X90138846Y-88420000D01*
X52125002Y-88420000D01*
X52837059Y-85799200D01*
X53705447Y-83188729D01*
X54373310Y-81501899D01*
X54543767Y-81501899D01*
X54543767Y-82112559D01*
X54777457Y-82676736D01*
X55209260Y-83108539D01*
X55773437Y-83342229D01*
X56384097Y-83342229D01*
X56605191Y-83250649D01*
X56602074Y-83266321D01*
X56651357Y-83514085D01*
X56791705Y-83724130D01*
X57001749Y-83864477D01*
X58664732Y-84553308D01*
X58912497Y-84602592D01*
X59160261Y-84553309D01*
X59370306Y-84412961D01*
X59510653Y-84202917D01*
X60166319Y-82620000D01*
X80756887Y-82620000D01*
X80868260Y-83179909D01*
X81185423Y-83654577D01*
X81660091Y-83971740D01*
X82078667Y-84055000D01*
X82361333Y-84055000D01*
X82779909Y-83971740D01*
X83254577Y-83654577D01*
X83490000Y-83302242D01*
X83725423Y-83654577D01*
X84200091Y-83971740D01*
X84618667Y-84055000D01*
X84901333Y-84055000D01*
X85319909Y-83971740D01*
X85794577Y-83654577D01*
X86030000Y-83302242D01*
X86265423Y-83654577D01*
X86740091Y-83971740D01*
X87158667Y-84055000D01*
X87441333Y-84055000D01*
X87859909Y-83971740D01*
X88334577Y-83654577D01*
X88570000Y-83302242D01*
X88805423Y-83654577D01*
X89280091Y-83971740D01*
X89698667Y-84055000D01*
X89981333Y-84055000D01*
X90399909Y-83971740D01*
X90874577Y-83654577D01*
X91130947Y-83270892D01*
X91227611Y-83475134D01*
X91642577Y-83851041D01*
X92030961Y-84011904D01*
X92253000Y-83889915D01*
X92253000Y-82747000D01*
X92233000Y-82747000D01*
X92233000Y-82493000D01*
X92253000Y-82493000D01*
X92253000Y-81350085D01*
X92030961Y-81228096D01*
X91642577Y-81388959D01*
X91227611Y-81764866D01*
X91130947Y-81969108D01*
X90874577Y-81585423D01*
X90399909Y-81268260D01*
X89981333Y-81185000D01*
X89698667Y-81185000D01*
X89280091Y-81268260D01*
X88805423Y-81585423D01*
X88570000Y-81937758D01*
X88334577Y-81585423D01*
X87859909Y-81268260D01*
X87441333Y-81185000D01*
X87158667Y-81185000D01*
X86740091Y-81268260D01*
X86265423Y-81585423D01*
X86030000Y-81937758D01*
X85794577Y-81585423D01*
X85319909Y-81268260D01*
X84901333Y-81185000D01*
X84618667Y-81185000D01*
X84200091Y-81268260D01*
X83725423Y-81585423D01*
X83490000Y-81937758D01*
X83254577Y-81585423D01*
X82779909Y-81268260D01*
X82361333Y-81185000D01*
X82078667Y-81185000D01*
X81660091Y-81268260D01*
X81185423Y-81585423D01*
X80868260Y-82060091D01*
X80756887Y-82620000D01*
X60166319Y-82620000D01*
X60199484Y-82539934D01*
X60248768Y-82292169D01*
X60199485Y-82044405D01*
X60059137Y-81834360D01*
X59849093Y-81694013D01*
X58186110Y-81005182D01*
X57938345Y-80955898D01*
X57690581Y-81005181D01*
X57480536Y-81145529D01*
X57471657Y-81158817D01*
X57380077Y-80937722D01*
X56948274Y-80505919D01*
X56384097Y-80272229D01*
X55773437Y-80272229D01*
X55209260Y-80505919D01*
X54777457Y-80937722D01*
X54543767Y-81501899D01*
X54373310Y-81501899D01*
X54718202Y-80630803D01*
X55872164Y-78133399D01*
X57163736Y-75704305D01*
X58588890Y-73351096D01*
X58635611Y-73282861D01*
X58936934Y-73282861D01*
X58936934Y-73893521D01*
X59170624Y-74457698D01*
X59602427Y-74889501D01*
X60166604Y-75123191D01*
X60700531Y-75123191D01*
X60700531Y-75373957D01*
X60797204Y-75607346D01*
X60975832Y-75785975D01*
X62472477Y-76786002D01*
X62705866Y-76882675D01*
X62958485Y-76882675D01*
X63191874Y-76786002D01*
X63370503Y-76607374D01*
X64370530Y-75110729D01*
X64467203Y-74877340D01*
X64467203Y-74624721D01*
X64438503Y-74555431D01*
X72765000Y-74555431D01*
X72765000Y-75444569D01*
X73105259Y-76266026D01*
X73733974Y-76894741D01*
X74555431Y-77235000D01*
X75444569Y-77235000D01*
X76266026Y-76894741D01*
X76894741Y-76266026D01*
X77235000Y-75444569D01*
X77235000Y-75349041D01*
X80828086Y-75349041D01*
X81067611Y-75855134D01*
X81482577Y-76231041D01*
X81870961Y-76391904D01*
X82093000Y-76269915D01*
X82093000Y-75127000D01*
X80949371Y-75127000D01*
X80828086Y-75349041D01*
X77235000Y-75349041D01*
X77235000Y-74650959D01*
X80828086Y-74650959D01*
X80949371Y-74873000D01*
X82093000Y-74873000D01*
X82093000Y-74853000D01*
X82347000Y-74853000D01*
X82347000Y-74873000D01*
X82367000Y-74873000D01*
X82367000Y-75127000D01*
X82347000Y-75127000D01*
X82347000Y-76269915D01*
X82569039Y-76391904D01*
X82957423Y-76231041D01*
X83372389Y-75855134D01*
X83469053Y-75650892D01*
X83725423Y-76034577D01*
X84200091Y-76351740D01*
X84618667Y-76435000D01*
X84901333Y-76435000D01*
X85319909Y-76351740D01*
X85794577Y-76034577D01*
X86030000Y-75682242D01*
X86265423Y-76034577D01*
X86740091Y-76351740D01*
X87158667Y-76435000D01*
X87441333Y-76435000D01*
X87859909Y-76351740D01*
X88334577Y-76034577D01*
X88570000Y-75682242D01*
X88805423Y-76034577D01*
X89280091Y-76351740D01*
X89698667Y-76435000D01*
X89981333Y-76435000D01*
X90399909Y-76351740D01*
X90874577Y-76034577D01*
X91110000Y-75682242D01*
X91345423Y-76034577D01*
X91820091Y-76351740D01*
X92238667Y-76435000D01*
X92521333Y-76435000D01*
X92939909Y-76351740D01*
X93414577Y-76034577D01*
X93650000Y-75682242D01*
X93885423Y-76034577D01*
X94360091Y-76351740D01*
X94778667Y-76435000D01*
X95061333Y-76435000D01*
X95479909Y-76351740D01*
X95954577Y-76034577D01*
X96190000Y-75682242D01*
X96425423Y-76034577D01*
X96900091Y-76351740D01*
X97318667Y-76435000D01*
X97601333Y-76435000D01*
X97825001Y-76390510D01*
X97825002Y-81003420D01*
X97695847Y-81132575D01*
X97695844Y-81132577D01*
X97636438Y-81191983D01*
X97601333Y-81185000D01*
X97318667Y-81185000D01*
X96900091Y-81268260D01*
X96425423Y-81585423D01*
X96190000Y-81937758D01*
X95954577Y-81585423D01*
X95479909Y-81268260D01*
X95061333Y-81185000D01*
X94778667Y-81185000D01*
X94360091Y-81268260D01*
X93885423Y-81585423D01*
X93629053Y-81969108D01*
X93532389Y-81764866D01*
X93117423Y-81388959D01*
X92729039Y-81228096D01*
X92507000Y-81350085D01*
X92507000Y-82493000D01*
X92527000Y-82493000D01*
X92527000Y-82747000D01*
X92507000Y-82747000D01*
X92507000Y-83889915D01*
X92729039Y-84011904D01*
X93117423Y-83851041D01*
X93532389Y-83475134D01*
X93629053Y-83270892D01*
X93885423Y-83654577D01*
X94360091Y-83971740D01*
X94778667Y-84055000D01*
X95061333Y-84055000D01*
X95479909Y-83971740D01*
X95954577Y-83654577D01*
X96190000Y-83302242D01*
X96425423Y-83654577D01*
X96900091Y-83971740D01*
X97318667Y-84055000D01*
X97601333Y-84055000D01*
X98019909Y-83971740D01*
X98494577Y-83654577D01*
X98730000Y-83302242D01*
X98965423Y-83654577D01*
X99440091Y-83971740D01*
X99858667Y-84055000D01*
X100141333Y-84055000D01*
X100559909Y-83971740D01*
X101034577Y-83654577D01*
X101351740Y-83179909D01*
X101463113Y-82620000D01*
X101383548Y-82220000D01*
X115916887Y-82220000D01*
X116028260Y-82779909D01*
X116345423Y-83254577D01*
X116697758Y-83490000D01*
X116345423Y-83725423D01*
X116028260Y-84200091D01*
X115916887Y-84760000D01*
X116028260Y-85319909D01*
X116345423Y-85794577D01*
X116697758Y-86030000D01*
X116345423Y-86265423D01*
X116028260Y-86740091D01*
X115916887Y-87300000D01*
X116028260Y-87859909D01*
X116345423Y-88334577D01*
X116697758Y-88570000D01*
X116345423Y-88805423D01*
X116028260Y-89280091D01*
X115916887Y-89840000D01*
X116028260Y-90399909D01*
X116345423Y-90874577D01*
X116729108Y-91130947D01*
X116524866Y-91227611D01*
X116148959Y-91642577D01*
X115988096Y-92030961D01*
X116110085Y-92253000D01*
X117253000Y-92253000D01*
X117253000Y-92233000D01*
X117507000Y-92233000D01*
X117507000Y-92253000D01*
X118649915Y-92253000D01*
X118771904Y-92030961D01*
X118611041Y-91642577D01*
X118235134Y-91227611D01*
X118030892Y-91130947D01*
X118414577Y-90874577D01*
X118731740Y-90399909D01*
X118843113Y-89840000D01*
X118731740Y-89280091D01*
X118414577Y-88805423D01*
X118062242Y-88570000D01*
X118414577Y-88334577D01*
X118731740Y-87859909D01*
X118843113Y-87300000D01*
X118731740Y-86740091D01*
X118414577Y-86265423D01*
X118062242Y-86030000D01*
X118414577Y-85794577D01*
X118731740Y-85319909D01*
X118843113Y-84760000D01*
X118731740Y-84200091D01*
X118414577Y-83725423D01*
X118062242Y-83490000D01*
X118414577Y-83254577D01*
X118731740Y-82779909D01*
X118843113Y-82220000D01*
X118773685Y-81870961D01*
X123608096Y-81870961D01*
X123730085Y-82093000D01*
X124873000Y-82093000D01*
X124873000Y-80949371D01*
X124650959Y-80828086D01*
X124144866Y-81067611D01*
X123768959Y-81482577D01*
X123608096Y-81870961D01*
X118773685Y-81870961D01*
X118731740Y-81660091D01*
X118414577Y-81185423D01*
X117939909Y-80868260D01*
X117521333Y-80785000D01*
X117238667Y-80785000D01*
X116820091Y-80868260D01*
X116345423Y-81185423D01*
X116028260Y-81660091D01*
X115916887Y-82220000D01*
X101383548Y-82220000D01*
X101351740Y-82060091D01*
X101034577Y-81585423D01*
X100559909Y-81268260D01*
X100141333Y-81185000D01*
X99858667Y-81185000D01*
X99595001Y-81237446D01*
X99595001Y-76447440D01*
X100800000Y-76447440D01*
X101047765Y-76398157D01*
X101257809Y-76257809D01*
X101398157Y-76047765D01*
X101447440Y-75800000D01*
X101447440Y-74555431D01*
X122765000Y-74555431D01*
X122765000Y-75444569D01*
X123105259Y-76266026D01*
X123733974Y-76894741D01*
X124555431Y-77235000D01*
X125444569Y-77235000D01*
X126266026Y-76894741D01*
X126894741Y-76266026D01*
X127235000Y-75444569D01*
X127235000Y-74624721D01*
X135532796Y-74624721D01*
X135532796Y-74877340D01*
X135629469Y-75110729D01*
X136629496Y-76607374D01*
X136808125Y-76786002D01*
X137041514Y-76882675D01*
X137294133Y-76882675D01*
X137527522Y-76786002D01*
X139024167Y-75785975D01*
X139202795Y-75607346D01*
X139299468Y-75373957D01*
X139299468Y-75123191D01*
X139833395Y-75123191D01*
X140397572Y-74889501D01*
X140829375Y-74457698D01*
X141063065Y-73893521D01*
X141063065Y-73282861D01*
X140829375Y-72718684D01*
X140397572Y-72286881D01*
X139833395Y-72053191D01*
X139222735Y-72053191D01*
X138658558Y-72286881D01*
X138226755Y-72718684D01*
X138022430Y-73211968D01*
X137790750Y-73116003D01*
X137538131Y-73116003D01*
X137304742Y-73212676D01*
X135808097Y-74212703D01*
X135629469Y-74391332D01*
X135532796Y-74624721D01*
X127235000Y-74624721D01*
X127235000Y-74555431D01*
X126894741Y-73733974D01*
X126266026Y-73105259D01*
X125444569Y-72765000D01*
X124555431Y-72765000D01*
X123733974Y-73105259D01*
X123105259Y-73733974D01*
X122765000Y-74555431D01*
X101447440Y-74555431D01*
X101447440Y-74200000D01*
X101398157Y-73952235D01*
X101257809Y-73742191D01*
X101047765Y-73601843D01*
X100829539Y-73558436D01*
X101131758Y-73256217D01*
X101335000Y-72765548D01*
X101335000Y-72234452D01*
X101131758Y-71743783D01*
X100756217Y-71368242D01*
X100265548Y-71165000D01*
X99734452Y-71165000D01*
X99243783Y-71368242D01*
X98868242Y-71743783D01*
X98750000Y-72029244D01*
X98631758Y-71743783D01*
X98256217Y-71368242D01*
X97765548Y-71165000D01*
X97234452Y-71165000D01*
X96743783Y-71368242D01*
X96368242Y-71743783D01*
X96250000Y-72029244D01*
X96131758Y-71743783D01*
X95756217Y-71368242D01*
X95265548Y-71165000D01*
X94734452Y-71165000D01*
X94243783Y-71368242D01*
X93868242Y-71743783D01*
X93750000Y-72029244D01*
X93631758Y-71743783D01*
X93256217Y-71368242D01*
X92765548Y-71165000D01*
X92234452Y-71165000D01*
X91743783Y-71368242D01*
X91368242Y-71743783D01*
X91250000Y-72029244D01*
X91131758Y-71743783D01*
X90756217Y-71368242D01*
X90265548Y-71165000D01*
X89734452Y-71165000D01*
X89243783Y-71368242D01*
X88868242Y-71743783D01*
X88750000Y-72029244D01*
X88631758Y-71743783D01*
X88256217Y-71368242D01*
X87765548Y-71165000D01*
X87234452Y-71165000D01*
X86743783Y-71368242D01*
X86368242Y-71743783D01*
X86250000Y-72029244D01*
X86131758Y-71743783D01*
X85756217Y-71368242D01*
X85265548Y-71165000D01*
X84734452Y-71165000D01*
X84243783Y-71368242D01*
X83868242Y-71743783D01*
X83750000Y-72029244D01*
X83631758Y-71743783D01*
X83256217Y-71368242D01*
X82765548Y-71165000D01*
X82234452Y-71165000D01*
X81743783Y-71368242D01*
X81368242Y-71743783D01*
X81165000Y-72234452D01*
X81165000Y-72765548D01*
X81368242Y-73256217D01*
X81743783Y-73631758D01*
X81778806Y-73646265D01*
X81482577Y-73768959D01*
X81067611Y-74144866D01*
X80828086Y-74650959D01*
X77235000Y-74650959D01*
X77235000Y-74555431D01*
X76894741Y-73733974D01*
X76266026Y-73105259D01*
X75444569Y-72765000D01*
X74555431Y-72765000D01*
X73733974Y-73105259D01*
X73105259Y-73733974D01*
X72765000Y-74555431D01*
X64438503Y-74555431D01*
X64370530Y-74391332D01*
X64191902Y-74212703D01*
X62695257Y-73212676D01*
X62461868Y-73116003D01*
X62209249Y-73116003D01*
X61977569Y-73211968D01*
X61773244Y-72718684D01*
X61341441Y-72286881D01*
X60777264Y-72053191D01*
X60166604Y-72053191D01*
X59602427Y-72286881D01*
X59170624Y-72718684D01*
X58936934Y-73282861D01*
X58635611Y-73282861D01*
X60143182Y-71081111D01*
X60370640Y-70785750D01*
X111340000Y-70785750D01*
X111340000Y-71376310D01*
X111436673Y-71609699D01*
X111615302Y-71788327D01*
X111848691Y-71885000D01*
X112214250Y-71885000D01*
X112373000Y-71726250D01*
X112373000Y-70627000D01*
X111498750Y-70627000D01*
X111340000Y-70785750D01*
X60370640Y-70785750D01*
X61821764Y-68901427D01*
X63619402Y-66818844D01*
X64334041Y-66078813D01*
X64849143Y-66078813D01*
X64849143Y-66689473D01*
X65082833Y-67253650D01*
X65514636Y-67685453D01*
X66078813Y-67919143D01*
X66318122Y-67919143D01*
X66309245Y-67932429D01*
X66259962Y-68180194D01*
X66309245Y-68427959D01*
X66449593Y-68638003D01*
X67722385Y-69910795D01*
X67932429Y-70051143D01*
X68180194Y-70100426D01*
X68427959Y-70051143D01*
X68638003Y-69910795D01*
X68925108Y-69623690D01*
X111340000Y-69623690D01*
X111340000Y-70214250D01*
X111498750Y-70373000D01*
X112373000Y-70373000D01*
X112373000Y-70160755D01*
X112610000Y-70160755D01*
X112610000Y-70839246D01*
X112627000Y-70924710D01*
X112627000Y-71726250D01*
X112785750Y-71885000D01*
X113151309Y-71885000D01*
X113316016Y-71816776D01*
X113317392Y-71817695D01*
X113770000Y-71907725D01*
X114222609Y-71817695D01*
X114405001Y-71695825D01*
X114587392Y-71817695D01*
X115040000Y-71907725D01*
X115492609Y-71817695D01*
X115876313Y-71561313D01*
X116132695Y-71177608D01*
X116200000Y-70839245D01*
X116200000Y-70160754D01*
X116132695Y-69822391D01*
X115876313Y-69438687D01*
X115492608Y-69182305D01*
X115040000Y-69092275D01*
X114587391Y-69182305D01*
X114405000Y-69304175D01*
X114222608Y-69182305D01*
X113770000Y-69092275D01*
X113317391Y-69182305D01*
X113316016Y-69183224D01*
X113151309Y-69115000D01*
X112785750Y-69115000D01*
X112627000Y-69273750D01*
X112627000Y-70075291D01*
X112610000Y-70160755D01*
X112373000Y-70160755D01*
X112373000Y-69273750D01*
X112214250Y-69115000D01*
X111848691Y-69115000D01*
X111615302Y-69211673D01*
X111436673Y-69390301D01*
X111340000Y-69623690D01*
X68925108Y-69623690D01*
X69910795Y-68638003D01*
X70051143Y-68427959D01*
X70100426Y-68180194D01*
X70051143Y-67932429D01*
X69910795Y-67722385D01*
X69608410Y-67420000D01*
X81138846Y-67420000D01*
X81242458Y-67940891D01*
X81537519Y-68382481D01*
X81979109Y-68677542D01*
X82368515Y-68755000D01*
X82631485Y-68755000D01*
X83020891Y-68677542D01*
X83462481Y-68382481D01*
X83750000Y-67952178D01*
X84037519Y-68382481D01*
X84479109Y-68677542D01*
X84868515Y-68755000D01*
X85131485Y-68755000D01*
X85520891Y-68677542D01*
X85962481Y-68382481D01*
X86250000Y-67952178D01*
X86537519Y-68382481D01*
X86979109Y-68677542D01*
X87368515Y-68755000D01*
X87631485Y-68755000D01*
X88020891Y-68677542D01*
X88462481Y-68382481D01*
X88750000Y-67952178D01*
X89037519Y-68382481D01*
X89479109Y-68677542D01*
X89868515Y-68755000D01*
X90131485Y-68755000D01*
X90520891Y-68677542D01*
X90962481Y-68382481D01*
X91250000Y-67952178D01*
X91537519Y-68382481D01*
X91979109Y-68677542D01*
X92368515Y-68755000D01*
X92631485Y-68755000D01*
X93020891Y-68677542D01*
X93462481Y-68382481D01*
X93750000Y-67952178D01*
X94037519Y-68382481D01*
X94479109Y-68677542D01*
X94868515Y-68755000D01*
X95131485Y-68755000D01*
X95520891Y-68677542D01*
X95962481Y-68382481D01*
X96250000Y-67952178D01*
X96537519Y-68382481D01*
X96979109Y-68677542D01*
X97368515Y-68755000D01*
X97631485Y-68755000D01*
X98020891Y-68677542D01*
X98462481Y-68382481D01*
X98750000Y-67952178D01*
X99037519Y-68382481D01*
X99479109Y-68677542D01*
X99868515Y-68755000D01*
X100131485Y-68755000D01*
X100520891Y-68677542D01*
X100962481Y-68382481D01*
X101097644Y-68180194D01*
X129899573Y-68180194D01*
X129948856Y-68427959D01*
X130089204Y-68638003D01*
X131361996Y-69910795D01*
X131572040Y-70051143D01*
X131819805Y-70100426D01*
X132067570Y-70051143D01*
X132277614Y-69910795D01*
X133550406Y-68638003D01*
X133690754Y-68427959D01*
X133740037Y-68180194D01*
X133690754Y-67932429D01*
X133681877Y-67919143D01*
X133921186Y-67919143D01*
X134485363Y-67685453D01*
X134917166Y-67253650D01*
X135150856Y-66689473D01*
X135150856Y-66078813D01*
X134917166Y-65514636D01*
X134485363Y-65082833D01*
X133921186Y-64849143D01*
X133310526Y-64849143D01*
X132746349Y-65082833D01*
X132314546Y-65514636D01*
X132080856Y-66078813D01*
X132080856Y-66318122D01*
X132067570Y-66309245D01*
X131819805Y-66259962D01*
X131572040Y-66309245D01*
X131361996Y-66449593D01*
X130089204Y-67722385D01*
X129948856Y-67932429D01*
X129899573Y-68180194D01*
X101097644Y-68180194D01*
X101257542Y-67940891D01*
X101361154Y-67420000D01*
X101257542Y-66899109D01*
X100962481Y-66457519D01*
X100520891Y-66162458D01*
X100131485Y-66085000D01*
X99868515Y-66085000D01*
X99479109Y-66162458D01*
X99037519Y-66457519D01*
X98750000Y-66887822D01*
X98462481Y-66457519D01*
X98020891Y-66162458D01*
X97631485Y-66085000D01*
X97368515Y-66085000D01*
X96979109Y-66162458D01*
X96537519Y-66457519D01*
X96250000Y-66887822D01*
X95962481Y-66457519D01*
X95520891Y-66162458D01*
X95131485Y-66085000D01*
X94868515Y-66085000D01*
X94479109Y-66162458D01*
X94037519Y-66457519D01*
X93750000Y-66887822D01*
X93462481Y-66457519D01*
X93020891Y-66162458D01*
X92631485Y-66085000D01*
X92368515Y-66085000D01*
X91979109Y-66162458D01*
X91537519Y-66457519D01*
X91250000Y-66887822D01*
X90962481Y-66457519D01*
X90520891Y-66162458D01*
X90131485Y-66085000D01*
X89868515Y-66085000D01*
X89479109Y-66162458D01*
X89037519Y-66457519D01*
X88750000Y-66887822D01*
X88462481Y-66457519D01*
X88020891Y-66162458D01*
X87631485Y-66085000D01*
X87368515Y-66085000D01*
X86979109Y-66162458D01*
X86537519Y-66457519D01*
X86250000Y-66887822D01*
X85962481Y-66457519D01*
X85520891Y-66162458D01*
X85131485Y-66085000D01*
X84868515Y-66085000D01*
X84479109Y-66162458D01*
X84037519Y-66457519D01*
X83750000Y-66887822D01*
X83462481Y-66457519D01*
X83020891Y-66162458D01*
X82631485Y-66085000D01*
X82368515Y-66085000D01*
X81979109Y-66162458D01*
X81537519Y-66457519D01*
X81242458Y-66899109D01*
X81138846Y-67420000D01*
X69608410Y-67420000D01*
X68638003Y-66449593D01*
X68427959Y-66309245D01*
X68180194Y-66259962D01*
X67932429Y-66309245D01*
X67919143Y-66318122D01*
X67919143Y-66078813D01*
X67685453Y-65514636D01*
X67253650Y-65082833D01*
X66689473Y-64849143D01*
X66078813Y-64849143D01*
X65514636Y-65082833D01*
X65082833Y-65514636D01*
X64849143Y-66078813D01*
X64334041Y-66078813D01*
X65530490Y-64839854D01*
X67549068Y-62970631D01*
X69668841Y-61217001D01*
X71093565Y-60166604D01*
X72053191Y-60166604D01*
X72053191Y-60777264D01*
X72286881Y-61341441D01*
X72718684Y-61773244D01*
X73211968Y-61977569D01*
X73116003Y-62209249D01*
X73116003Y-62461868D01*
X73212676Y-62695257D01*
X74212703Y-64191902D01*
X74391332Y-64370530D01*
X74624721Y-64467203D01*
X74877340Y-64467203D01*
X75110729Y-64370530D01*
X76607374Y-63370503D01*
X76786002Y-63191874D01*
X76882675Y-62958485D01*
X76882675Y-62705866D01*
X123117324Y-62705866D01*
X123117324Y-62958485D01*
X123213997Y-63191874D01*
X123392625Y-63370503D01*
X124889270Y-64370530D01*
X125122659Y-64467203D01*
X125375278Y-64467203D01*
X125608667Y-64370530D01*
X125787296Y-64191902D01*
X126787323Y-62695257D01*
X126883996Y-62461868D01*
X126883996Y-62209249D01*
X126788031Y-61977569D01*
X127281315Y-61773244D01*
X127713118Y-61341441D01*
X127946808Y-60777264D01*
X127946808Y-60166604D01*
X127713118Y-59602427D01*
X127281315Y-59170624D01*
X126717138Y-58936934D01*
X126106478Y-58936934D01*
X125542301Y-59170624D01*
X125110498Y-59602427D01*
X124876808Y-60166604D01*
X124876808Y-60700531D01*
X124626042Y-60700531D01*
X124392653Y-60797204D01*
X124214024Y-60975832D01*
X123213997Y-62472477D01*
X123117324Y-62705866D01*
X76882675Y-62705866D01*
X76786002Y-62472477D01*
X75886983Y-61127000D01*
X105264999Y-61127000D01*
X105264999Y-61402000D01*
X105407609Y-61864947D01*
X105716525Y-62238080D01*
X106144718Y-62464592D01*
X106182390Y-62468462D01*
X106372999Y-62343731D01*
X106372999Y-61127000D01*
X105264999Y-61127000D01*
X75886983Y-61127000D01*
X75785975Y-60975832D01*
X75607346Y-60797204D01*
X75373957Y-60700531D01*
X75123191Y-60700531D01*
X75123191Y-60598000D01*
X105264999Y-60598000D01*
X105264999Y-60873000D01*
X106372999Y-60873000D01*
X106372999Y-59656269D01*
X106626999Y-59656269D01*
X106626999Y-60873000D01*
X106646999Y-60873000D01*
X106646999Y-61127000D01*
X106626999Y-61127000D01*
X106626999Y-62343731D01*
X106817608Y-62468462D01*
X106855280Y-62464592D01*
X107283473Y-62238080D01*
X107403872Y-62092652D01*
X107515414Y-62259586D01*
X107806564Y-62454127D01*
X108149999Y-62522440D01*
X108850001Y-62522440D01*
X109193436Y-62454127D01*
X109484586Y-62259586D01*
X109679127Y-61968436D01*
X109747440Y-61625001D01*
X109747440Y-60374999D01*
X109679127Y-60031564D01*
X109484586Y-59740414D01*
X109193436Y-59545873D01*
X108850001Y-59477560D01*
X108149999Y-59477560D01*
X107806564Y-59545873D01*
X107515414Y-59740414D01*
X107403872Y-59907348D01*
X107283473Y-59761920D01*
X106855280Y-59535408D01*
X106817608Y-59531538D01*
X106626999Y-59656269D01*
X106372999Y-59656269D01*
X106182390Y-59531538D01*
X106144718Y-59535408D01*
X105716525Y-59761920D01*
X105407609Y-60135053D01*
X105264999Y-60598000D01*
X75123191Y-60598000D01*
X75123191Y-60166604D01*
X74889501Y-59602427D01*
X74457698Y-59170624D01*
X73893521Y-58936934D01*
X73282861Y-58936934D01*
X72718684Y-59170624D01*
X72286881Y-59602427D01*
X72053191Y-60166604D01*
X71093565Y-60166604D01*
X71883200Y-59584435D01*
X74185238Y-58078024D01*
X76567777Y-56702464D01*
X78406937Y-55773437D01*
X80272229Y-55773437D01*
X80272229Y-56384097D01*
X80505919Y-56948274D01*
X80937722Y-57380077D01*
X81158817Y-57471657D01*
X81145529Y-57480536D01*
X81005181Y-57690581D01*
X80955898Y-57938345D01*
X81005182Y-58186110D01*
X81694013Y-59849093D01*
X81834360Y-60059137D01*
X82044405Y-60199485D01*
X82292169Y-60248768D01*
X82539934Y-60199484D01*
X84202917Y-59510653D01*
X84412961Y-59370306D01*
X84553309Y-59160261D01*
X84602592Y-58912497D01*
X115397407Y-58912497D01*
X115446690Y-59160261D01*
X115587038Y-59370306D01*
X115797082Y-59510653D01*
X117460065Y-60199484D01*
X117707830Y-60248768D01*
X117955594Y-60199485D01*
X118165639Y-60059137D01*
X118305986Y-59849093D01*
X118994817Y-58186110D01*
X119044101Y-57938345D01*
X118994818Y-57690581D01*
X118854470Y-57480536D01*
X118841182Y-57471657D01*
X119062277Y-57380077D01*
X119494080Y-56948274D01*
X119727770Y-56384097D01*
X119727770Y-55773437D01*
X119494080Y-55209260D01*
X119062277Y-54777457D01*
X118498100Y-54543767D01*
X117887440Y-54543767D01*
X117323263Y-54777457D01*
X116891460Y-55209260D01*
X116657770Y-55773437D01*
X116657770Y-56384097D01*
X116749350Y-56605191D01*
X116733678Y-56602074D01*
X116485914Y-56651357D01*
X116275869Y-56791705D01*
X116135522Y-57001749D01*
X115446691Y-58664732D01*
X115397407Y-58912497D01*
X84602592Y-58912497D01*
X84553308Y-58664732D01*
X83864477Y-57001749D01*
X83724130Y-56791705D01*
X83514085Y-56651357D01*
X83266321Y-56602074D01*
X83250649Y-56605191D01*
X83342229Y-56384097D01*
X83342229Y-55773437D01*
X83108539Y-55209260D01*
X82676736Y-54777457D01*
X82112559Y-54543767D01*
X81501899Y-54543767D01*
X80937722Y-54777457D01*
X80505919Y-55209260D01*
X80272229Y-55773437D01*
X78406937Y-55773437D01*
X79023387Y-55462046D01*
X81544410Y-54360638D01*
X84122985Y-53401675D01*
X85200472Y-53068137D01*
X89190406Y-53068137D01*
X89190406Y-53678797D01*
X89424096Y-54242974D01*
X89801640Y-54620518D01*
X89624320Y-54797839D01*
X89527647Y-55031228D01*
X89527647Y-55283846D01*
X89878810Y-57049259D01*
X89975483Y-57282649D01*
X90154112Y-57461277D01*
X90387501Y-57557950D01*
X90640119Y-57557950D01*
X92405532Y-57206787D01*
X92638922Y-57110114D01*
X92817550Y-56931485D01*
X92914223Y-56698096D01*
X92914223Y-56445478D01*
X92563060Y-54680065D01*
X92466387Y-54446675D01*
X92287758Y-54268047D01*
X92056080Y-54172083D01*
X92085937Y-54100000D01*
X98452560Y-54100000D01*
X98452560Y-55900000D01*
X98501843Y-56147765D01*
X98642191Y-56357809D01*
X98852235Y-56498157D01*
X99100000Y-56547440D01*
X100900000Y-56547440D01*
X101147765Y-56498157D01*
X101226604Y-56445478D01*
X107085776Y-56445478D01*
X107085776Y-56698096D01*
X107182449Y-56931485D01*
X107361077Y-57110114D01*
X107594467Y-57206787D01*
X109359880Y-57557950D01*
X109612498Y-57557950D01*
X109845887Y-57461277D01*
X110024516Y-57282649D01*
X110121189Y-57049259D01*
X110472352Y-55283846D01*
X110472352Y-55031228D01*
X110375679Y-54797839D01*
X110198359Y-54620518D01*
X110575903Y-54242974D01*
X110809593Y-53678797D01*
X110809593Y-53068137D01*
X110575903Y-52503960D01*
X110144100Y-52072157D01*
X109579923Y-51838467D01*
X108969263Y-51838467D01*
X108405086Y-52072157D01*
X107973283Y-52503960D01*
X107739593Y-53068137D01*
X107739593Y-53678797D01*
X107943919Y-54172083D01*
X107712241Y-54268047D01*
X107533612Y-54446675D01*
X107436939Y-54680065D01*
X107085776Y-56445478D01*
X101226604Y-56445478D01*
X101357809Y-56357809D01*
X101498157Y-56147765D01*
X101547440Y-55900000D01*
X101547440Y-54100000D01*
X101498157Y-53852235D01*
X101357809Y-53642191D01*
X101147765Y-53501843D01*
X101132092Y-53498725D01*
X101301310Y-53329507D01*
X101535000Y-52765330D01*
X101535000Y-52154670D01*
X101301310Y-51590493D01*
X100869507Y-51158690D01*
X100305330Y-50925000D01*
X99694670Y-50925000D01*
X99130493Y-51158690D01*
X98698690Y-51590493D01*
X98465000Y-52154670D01*
X98465000Y-52765330D01*
X98698690Y-53329507D01*
X98867908Y-53498725D01*
X98852235Y-53501843D01*
X98642191Y-53642191D01*
X98501843Y-53852235D01*
X98452560Y-54100000D01*
X92085937Y-54100000D01*
X92260406Y-53678797D01*
X92260406Y-53068137D01*
X92026716Y-52503960D01*
X91594913Y-52072157D01*
X91030736Y-51838467D01*
X90420076Y-51838467D01*
X89855899Y-52072157D01*
X89424096Y-52503960D01*
X89190406Y-53068137D01*
X85200472Y-53068137D01*
X86751069Y-52588147D01*
X89420468Y-51922591D01*
X92122857Y-51407083D01*
X94849809Y-51043230D01*
X97592820Y-50832167D01*
X100343336Y-50774552D01*
X103092779Y-50870564D01*
X103092779Y-50870564D01*
G37*
X103092779Y-50870564D02*
X105832575Y-51119905D01*
X108554181Y-51521797D01*
X111249110Y-52074986D01*
X113908956Y-52777748D01*
X116525426Y-53627891D01*
X119090359Y-54622763D01*
X121595759Y-55759262D01*
X124033810Y-57033845D01*
X126396911Y-58442536D01*
X128677692Y-59980942D01*
X130869041Y-61644266D01*
X132964123Y-63427321D01*
X134956406Y-65324547D01*
X136839677Y-67330026D01*
X138608062Y-69437506D01*
X140256047Y-71640413D01*
X141778493Y-73931878D01*
X143170653Y-76304756D01*
X144428183Y-78751647D01*
X145547164Y-81264919D01*
X146524106Y-83836736D01*
X147355961Y-86459077D01*
X148040137Y-89123764D01*
X148574499Y-91822489D01*
X148957381Y-94546834D01*
X149187588Y-97288305D01*
X149264404Y-100038351D01*
X149245196Y-101413911D01*
X149091625Y-104160740D01*
X148784960Y-106894714D01*
X148326160Y-109607306D01*
X147716653Y-112290058D01*
X146958342Y-114934604D01*
X146053591Y-117532696D01*
X145005221Y-120076232D01*
X143816502Y-122557280D01*
X142491140Y-124968104D01*
X141033269Y-127301186D01*
X139447435Y-129549249D01*
X137738583Y-131705283D01*
X135912043Y-133762564D01*
X133973511Y-135714678D01*
X131929031Y-137555536D01*
X129784979Y-139279397D01*
X127548042Y-140880887D01*
X125225196Y-142355010D01*
X122823683Y-143697170D01*
X120350994Y-144903182D01*
X117814838Y-145969283D01*
X115223126Y-146892150D01*
X112583939Y-147668905D01*
X109905508Y-148297126D01*
X107196184Y-148774852D01*
X104464418Y-149100596D01*
X101718728Y-149273340D01*
X98967676Y-149292546D01*
X96219841Y-149158155D01*
X93483793Y-148870585D01*
X90768064Y-148430732D01*
X88081122Y-147839970D01*
X85431347Y-147100140D01*
X83143234Y-146321202D01*
X89190406Y-146321202D01*
X89190406Y-146931862D01*
X89424096Y-147496039D01*
X89855899Y-147927842D01*
X90420076Y-148161532D01*
X91030736Y-148161532D01*
X91594913Y-147927842D01*
X92026716Y-147496039D01*
X92260406Y-146931862D01*
X92260406Y-146321202D01*
X92056080Y-145827916D01*
X92287758Y-145731952D01*
X92466387Y-145553324D01*
X92563060Y-145319934D01*
X92805720Y-144100000D01*
X98452560Y-144100000D01*
X98452560Y-145900000D01*
X98501843Y-146147765D01*
X98642191Y-146357809D01*
X98852235Y-146498157D01*
X98867908Y-146501275D01*
X98698690Y-146670493D01*
X98465000Y-147234670D01*
X98465000Y-147845330D01*
X98698690Y-148409507D01*
X99130493Y-148841310D01*
X99694670Y-149075000D01*
X100305330Y-149075000D01*
X100869507Y-148841310D01*
X101301310Y-148409507D01*
X101535000Y-147845330D01*
X101535000Y-147234670D01*
X101301310Y-146670493D01*
X101132092Y-146501275D01*
X101147765Y-146498157D01*
X101357809Y-146357809D01*
X101498157Y-146147765D01*
X101547440Y-145900000D01*
X101547440Y-144100000D01*
X101498157Y-143852235D01*
X101357809Y-143642191D01*
X101147765Y-143501843D01*
X100900000Y-143452560D01*
X99100000Y-143452560D01*
X98852235Y-143501843D01*
X98642191Y-143642191D01*
X98501843Y-143852235D01*
X98452560Y-144100000D01*
X92805720Y-144100000D01*
X92914223Y-143554521D01*
X92914223Y-143301903D01*
X107085776Y-143301903D01*
X107085776Y-143554521D01*
X107436939Y-145319934D01*
X107533612Y-145553324D01*
X107712241Y-145731952D01*
X107943919Y-145827916D01*
X107739593Y-146321202D01*
X107739593Y-146931862D01*
X107973283Y-147496039D01*
X108405086Y-147927842D01*
X108969263Y-148161532D01*
X109579923Y-148161532D01*
X110144100Y-147927842D01*
X110575903Y-147496039D01*
X110809593Y-146931862D01*
X110809593Y-146321202D01*
X110575903Y-145757025D01*
X110198359Y-145379481D01*
X110375679Y-145202160D01*
X110472352Y-144968771D01*
X110472352Y-144716153D01*
X110121189Y-142950740D01*
X110024516Y-142717350D01*
X109845887Y-142538722D01*
X109612498Y-142442049D01*
X109359880Y-142442049D01*
X107594467Y-142793212D01*
X107361077Y-142889885D01*
X107182449Y-143068514D01*
X107085776Y-143301903D01*
X92914223Y-143301903D01*
X92817550Y-143068514D01*
X92638922Y-142889885D01*
X92405532Y-142793212D01*
X90640119Y-142442049D01*
X90387501Y-142442049D01*
X90154112Y-142538722D01*
X89975483Y-142717350D01*
X89878810Y-142950740D01*
X89527647Y-144716153D01*
X89527647Y-144968771D01*
X89624320Y-145202160D01*
X89801640Y-145379481D01*
X89424096Y-145757025D01*
X89190406Y-146321202D01*
X83143234Y-146321202D01*
X82827002Y-146213548D01*
X80276209Y-145182961D01*
X77786922Y-144011591D01*
X77055111Y-143615902D01*
X80272229Y-143615902D01*
X80272229Y-144226562D01*
X80505919Y-144790739D01*
X80937722Y-145222542D01*
X81501899Y-145456232D01*
X82112559Y-145456232D01*
X82676736Y-145222542D01*
X83108539Y-144790739D01*
X83342229Y-144226562D01*
X83342229Y-143615902D01*
X83250649Y-143394808D01*
X83266321Y-143397925D01*
X83514085Y-143348642D01*
X83724130Y-143208294D01*
X83864477Y-142998250D01*
X84553308Y-141335267D01*
X84602592Y-141087502D01*
X115397407Y-141087502D01*
X115446691Y-141335267D01*
X116135522Y-142998250D01*
X116275869Y-143208294D01*
X116485914Y-143348642D01*
X116733678Y-143397925D01*
X116749350Y-143394808D01*
X116657770Y-143615902D01*
X116657770Y-144226562D01*
X116891460Y-144790739D01*
X117323263Y-145222542D01*
X117887440Y-145456232D01*
X118498100Y-145456232D01*
X119062277Y-145222542D01*
X119494080Y-144790739D01*
X119727770Y-144226562D01*
X119727770Y-143615902D01*
X119494080Y-143051725D01*
X119062277Y-142619922D01*
X118841182Y-142528342D01*
X118854470Y-142519463D01*
X118994818Y-142309418D01*
X119044101Y-142061654D01*
X118994817Y-141813889D01*
X118305986Y-140150906D01*
X118165639Y-139940862D01*
X117955594Y-139800514D01*
X117707830Y-139751231D01*
X117460065Y-139800515D01*
X115797082Y-140489346D01*
X115587038Y-140629693D01*
X115446690Y-140839738D01*
X115397407Y-141087502D01*
X84602592Y-141087502D01*
X84553309Y-140839738D01*
X84412961Y-140629693D01*
X84202917Y-140489346D01*
X82539934Y-139800515D01*
X82292169Y-139751231D01*
X82044405Y-139800514D01*
X81834360Y-139940862D01*
X81694013Y-140150906D01*
X81005182Y-141813889D01*
X80955898Y-142061654D01*
X81005181Y-142309418D01*
X81145529Y-142519463D01*
X81158817Y-142528342D01*
X80937722Y-142619922D01*
X80505919Y-143051725D01*
X80272229Y-143615902D01*
X77055111Y-143615902D01*
X75366904Y-142703093D01*
X73023702Y-141261545D01*
X70764623Y-139691444D01*
X70164703Y-139222735D01*
X72053191Y-139222735D01*
X72053191Y-139833395D01*
X72286881Y-140397572D01*
X72718684Y-140829375D01*
X73282861Y-141063065D01*
X73893521Y-141063065D01*
X74457698Y-140829375D01*
X74889501Y-140397572D01*
X75123191Y-139833395D01*
X75123191Y-139299468D01*
X75373957Y-139299468D01*
X75607346Y-139202795D01*
X75785975Y-139024167D01*
X76786002Y-137527522D01*
X76882675Y-137294133D01*
X76882675Y-137041514D01*
X123117324Y-137041514D01*
X123117324Y-137294133D01*
X123213997Y-137527522D01*
X124214024Y-139024167D01*
X124392653Y-139202795D01*
X124626042Y-139299468D01*
X124876808Y-139299468D01*
X124876808Y-139833395D01*
X125110498Y-140397572D01*
X125542301Y-140829375D01*
X126106478Y-141063065D01*
X126717138Y-141063065D01*
X127281315Y-140829375D01*
X127713118Y-140397572D01*
X127946808Y-139833395D01*
X127946808Y-139222735D01*
X127713118Y-138658558D01*
X127281315Y-138226755D01*
X126788031Y-138022430D01*
X126883996Y-137790750D01*
X126883996Y-137538131D01*
X126787323Y-137304742D01*
X125787296Y-135808097D01*
X125608667Y-135629469D01*
X125375278Y-135532796D01*
X125122659Y-135532796D01*
X124889270Y-135629469D01*
X123392625Y-136629496D01*
X123213997Y-136808125D01*
X123117324Y-137041514D01*
X76882675Y-137041514D01*
X76786002Y-136808125D01*
X76607374Y-136629496D01*
X75110729Y-135629469D01*
X74877340Y-135532796D01*
X74624721Y-135532796D01*
X74391332Y-135629469D01*
X74212703Y-135808097D01*
X73212676Y-137304742D01*
X73116003Y-137538131D01*
X73116003Y-137790750D01*
X73211968Y-138022430D01*
X72718684Y-138226755D01*
X72286881Y-138658558D01*
X72053191Y-139222735D01*
X70164703Y-139222735D01*
X68596711Y-137997686D01*
X66526728Y-136185553D01*
X64561129Y-134260696D01*
X63693505Y-133310526D01*
X64849143Y-133310526D01*
X64849143Y-133921186D01*
X65082833Y-134485363D01*
X65514636Y-134917166D01*
X66078813Y-135150856D01*
X66689473Y-135150856D01*
X67253650Y-134917166D01*
X67685453Y-134485363D01*
X67919143Y-133921186D01*
X67919143Y-133681877D01*
X67932429Y-133690754D01*
X68180194Y-133740037D01*
X68427959Y-133690754D01*
X68638003Y-133550406D01*
X69608409Y-132580000D01*
X98638846Y-132580000D01*
X98742458Y-133100891D01*
X99037519Y-133542481D01*
X99479109Y-133837542D01*
X99868515Y-133915000D01*
X100131485Y-133915000D01*
X100520891Y-133837542D01*
X100962481Y-133542481D01*
X101250000Y-133112178D01*
X101537519Y-133542481D01*
X101979109Y-133837542D01*
X102368515Y-133915000D01*
X102631485Y-133915000D01*
X103020891Y-133837542D01*
X103462481Y-133542481D01*
X103750000Y-133112178D01*
X104037519Y-133542481D01*
X104479109Y-133837542D01*
X104868515Y-133915000D01*
X105131485Y-133915000D01*
X105520891Y-133837542D01*
X105962481Y-133542481D01*
X106250000Y-133112178D01*
X106537519Y-133542481D01*
X106979109Y-133837542D01*
X107368515Y-133915000D01*
X107631485Y-133915000D01*
X108020891Y-133837542D01*
X108462481Y-133542481D01*
X108750000Y-133112178D01*
X109037519Y-133542481D01*
X109479109Y-133837542D01*
X109868515Y-133915000D01*
X110131485Y-133915000D01*
X110520891Y-133837542D01*
X110962481Y-133542481D01*
X111250000Y-133112178D01*
X111537519Y-133542481D01*
X111979109Y-133837542D01*
X112368515Y-133915000D01*
X112631485Y-133915000D01*
X113020891Y-133837542D01*
X113462481Y-133542481D01*
X113750000Y-133112178D01*
X114037519Y-133542481D01*
X114479109Y-133837542D01*
X114868515Y-133915000D01*
X115131485Y-133915000D01*
X115520891Y-133837542D01*
X115962481Y-133542481D01*
X116250000Y-133112178D01*
X116537519Y-133542481D01*
X116979109Y-133837542D01*
X117368515Y-133915000D01*
X117631485Y-133915000D01*
X118020891Y-133837542D01*
X118462481Y-133542481D01*
X118757542Y-133100891D01*
X118861154Y-132580000D01*
X118757542Y-132059109D01*
X118597645Y-131819805D01*
X129899573Y-131819805D01*
X129948856Y-132067570D01*
X130089204Y-132277614D01*
X131361996Y-133550406D01*
X131572040Y-133690754D01*
X131819805Y-133740037D01*
X132067570Y-133690754D01*
X132080856Y-133681877D01*
X132080856Y-133921186D01*
X132314546Y-134485363D01*
X132746349Y-134917166D01*
X133310526Y-135150856D01*
X133921186Y-135150856D01*
X134485363Y-134917166D01*
X134917166Y-134485363D01*
X135150856Y-133921186D01*
X135150856Y-133310526D01*
X134917166Y-132746349D01*
X134485363Y-132314546D01*
X133921186Y-132080856D01*
X133681877Y-132080856D01*
X133690754Y-132067570D01*
X133740037Y-131819805D01*
X133690754Y-131572040D01*
X133550406Y-131361996D01*
X132277614Y-130089204D01*
X132067570Y-129948856D01*
X131819805Y-129899573D01*
X131572040Y-129948856D01*
X131361996Y-130089204D01*
X130089204Y-131361996D01*
X129948856Y-131572040D01*
X129899573Y-131819805D01*
X118597645Y-131819805D01*
X118462481Y-131617519D01*
X118020891Y-131322458D01*
X117631485Y-131245000D01*
X117368515Y-131245000D01*
X116979109Y-131322458D01*
X116537519Y-131617519D01*
X116250000Y-132047822D01*
X115962481Y-131617519D01*
X115520891Y-131322458D01*
X115131485Y-131245000D01*
X114868515Y-131245000D01*
X114479109Y-131322458D01*
X114037519Y-131617519D01*
X113750000Y-132047822D01*
X113462481Y-131617519D01*
X113020891Y-131322458D01*
X112631485Y-131245000D01*
X112368515Y-131245000D01*
X111979109Y-131322458D01*
X111537519Y-131617519D01*
X111250000Y-132047822D01*
X110962481Y-131617519D01*
X110520891Y-131322458D01*
X110131485Y-131245000D01*
X109868515Y-131245000D01*
X109479109Y-131322458D01*
X109037519Y-131617519D01*
X108750000Y-132047822D01*
X108462481Y-131617519D01*
X108020891Y-131322458D01*
X107631485Y-131245000D01*
X107368515Y-131245000D01*
X106979109Y-131322458D01*
X106537519Y-131617519D01*
X106250000Y-132047822D01*
X105962481Y-131617519D01*
X105520891Y-131322458D01*
X105131485Y-131245000D01*
X104868515Y-131245000D01*
X104479109Y-131322458D01*
X104037519Y-131617519D01*
X103750000Y-132047822D01*
X103462481Y-131617519D01*
X103020891Y-131322458D01*
X102631485Y-131245000D01*
X102368515Y-131245000D01*
X101979109Y-131322458D01*
X101537519Y-131617519D01*
X101250000Y-132047822D01*
X100962481Y-131617519D01*
X100520891Y-131322458D01*
X100131485Y-131245000D01*
X99868515Y-131245000D01*
X99479109Y-131322458D01*
X99037519Y-131617519D01*
X98742458Y-132059109D01*
X98638846Y-132580000D01*
X69608409Y-132580000D01*
X69910795Y-132277614D01*
X70051143Y-132067570D01*
X70100426Y-131819805D01*
X70051143Y-131572040D01*
X69910795Y-131361996D01*
X68638003Y-130089204D01*
X68427959Y-129948856D01*
X68180194Y-129899573D01*
X67932429Y-129948856D01*
X67722385Y-130089204D01*
X66449593Y-131361996D01*
X66309245Y-131572040D01*
X66259962Y-131819805D01*
X66309245Y-132067570D01*
X66318122Y-132080856D01*
X66078813Y-132080856D01*
X65514636Y-132314546D01*
X65082833Y-132746349D01*
X64849143Y-133310526D01*
X63693505Y-133310526D01*
X62706043Y-132229117D01*
X60967255Y-130097152D01*
X59350188Y-127871450D01*
X58212741Y-126106478D01*
X58936934Y-126106478D01*
X58936934Y-126717138D01*
X59170624Y-127281315D01*
X59602427Y-127713118D01*
X60166604Y-127946808D01*
X60777264Y-127946808D01*
X61341441Y-127713118D01*
X61773244Y-127281315D01*
X61977569Y-126788031D01*
X62209249Y-126883996D01*
X62461868Y-126883996D01*
X62695257Y-126787323D01*
X64191902Y-125787296D01*
X64370530Y-125608667D01*
X64467203Y-125375278D01*
X64467203Y-125122659D01*
X64370530Y-124889270D01*
X64147466Y-124555431D01*
X72765000Y-124555431D01*
X72765000Y-125444569D01*
X73105259Y-126266026D01*
X73733974Y-126894741D01*
X74555431Y-127235000D01*
X75444569Y-127235000D01*
X76266026Y-126894741D01*
X76894741Y-126266026D01*
X77235000Y-125444569D01*
X77235000Y-124555431D01*
X76894741Y-123733974D01*
X76266026Y-123105259D01*
X75444569Y-122765000D01*
X74555431Y-122765000D01*
X73733974Y-123105259D01*
X73105259Y-123733974D01*
X72765000Y-124555431D01*
X64147466Y-124555431D01*
X63370503Y-123392625D01*
X63191874Y-123213997D01*
X62958485Y-123117324D01*
X62705866Y-123117324D01*
X62472477Y-123213997D01*
X60975832Y-124214024D01*
X60797204Y-124392653D01*
X60700531Y-124626042D01*
X60700531Y-124876808D01*
X60166604Y-124876808D01*
X59602427Y-125110498D01*
X59170624Y-125542301D01*
X58936934Y-126106478D01*
X58212741Y-126106478D01*
X57859884Y-125558952D01*
X56500991Y-123166868D01*
X55277747Y-120702658D01*
X54193965Y-118174007D01*
X54089664Y-117887440D01*
X54543767Y-117887440D01*
X54543767Y-118498100D01*
X54777457Y-119062277D01*
X55209260Y-119494080D01*
X55773437Y-119727770D01*
X56384097Y-119727770D01*
X56948274Y-119494080D01*
X57380077Y-119062277D01*
X57471657Y-118841182D01*
X57480536Y-118854470D01*
X57690581Y-118994818D01*
X57938345Y-119044101D01*
X58186110Y-118994817D01*
X59849093Y-118305986D01*
X60059137Y-118165639D01*
X60199485Y-117955594D01*
X60248768Y-117707830D01*
X60199484Y-117460065D01*
X59510653Y-115797082D01*
X59370306Y-115587038D01*
X59160261Y-115446690D01*
X58912497Y-115397407D01*
X58664732Y-115446691D01*
X57001749Y-116135522D01*
X56791705Y-116275869D01*
X56651357Y-116485914D01*
X56602074Y-116733678D01*
X56605191Y-116749350D01*
X56384097Y-116657770D01*
X55773437Y-116657770D01*
X55209260Y-116891460D01*
X54777457Y-117323263D01*
X54543767Y-117887440D01*
X54089664Y-117887440D01*
X53253027Y-115588801D01*
X52457866Y-112955101D01*
X51810962Y-110281120D01*
X51570192Y-108969263D01*
X51838467Y-108969263D01*
X51838467Y-109579923D01*
X52072157Y-110144100D01*
X52503960Y-110575903D01*
X53068137Y-110809593D01*
X53678797Y-110809593D01*
X54242974Y-110575903D01*
X54620518Y-110198359D01*
X54797839Y-110375679D01*
X55031228Y-110472352D01*
X55283846Y-110472352D01*
X57049259Y-110121189D01*
X57282649Y-110024516D01*
X57461277Y-109845887D01*
X57557950Y-109612498D01*
X57557950Y-109359880D01*
X57206787Y-107594467D01*
X57110114Y-107361077D01*
X56931485Y-107182449D01*
X56698096Y-107085776D01*
X56445478Y-107085776D01*
X54680065Y-107436939D01*
X54446675Y-107533612D01*
X54268047Y-107712241D01*
X54172083Y-107943919D01*
X53678797Y-107739593D01*
X53068137Y-107739593D01*
X52503960Y-107973283D01*
X52072157Y-108405086D01*
X51838467Y-108969263D01*
X51570192Y-108969263D01*
X51314333Y-107575198D01*
X50969526Y-104845773D01*
X50777618Y-102101355D01*
X50744012Y-99694670D01*
X50925000Y-99694670D01*
X50925000Y-100305330D01*
X51158690Y-100869507D01*
X51590493Y-101301310D01*
X52154670Y-101535000D01*
X52765330Y-101535000D01*
X53329507Y-101301310D01*
X53498725Y-101132092D01*
X53501843Y-101147765D01*
X53642191Y-101357809D01*
X53852235Y-101498157D01*
X54100000Y-101547440D01*
X55900000Y-101547440D01*
X56147765Y-101498157D01*
X56357809Y-101357809D01*
X56498157Y-101147765D01*
X56547440Y-100900000D01*
X56547440Y-100000000D01*
X66058846Y-100000000D01*
X66162458Y-100520891D01*
X66457519Y-100962481D01*
X66887822Y-101250000D01*
X66457519Y-101537519D01*
X66162458Y-101979109D01*
X66058846Y-102500000D01*
X66162458Y-103020891D01*
X66457519Y-103462481D01*
X66887822Y-103750000D01*
X66457519Y-104037519D01*
X66162458Y-104479109D01*
X66058846Y-105000000D01*
X66162458Y-105520891D01*
X66457519Y-105962481D01*
X66887822Y-106250000D01*
X66457519Y-106537519D01*
X66162458Y-106979109D01*
X66058846Y-107500000D01*
X66162458Y-108020891D01*
X66457519Y-108462481D01*
X66887822Y-108750000D01*
X66457519Y-109037519D01*
X66162458Y-109479109D01*
X66058846Y-110000000D01*
X66162458Y-110520891D01*
X66457519Y-110962481D01*
X66887822Y-111250000D01*
X66457519Y-111537519D01*
X66162458Y-111979109D01*
X66058846Y-112500000D01*
X66162458Y-113020891D01*
X66457519Y-113462481D01*
X66887822Y-113750000D01*
X66457519Y-114037519D01*
X66162458Y-114479109D01*
X66058846Y-115000000D01*
X66162458Y-115520891D01*
X66457519Y-115962481D01*
X66887822Y-116250000D01*
X66457519Y-116537519D01*
X66162458Y-116979109D01*
X66058846Y-117500000D01*
X66162458Y-118020891D01*
X66457519Y-118462481D01*
X66899109Y-118757542D01*
X67288515Y-118835000D01*
X67551485Y-118835000D01*
X67940891Y-118757542D01*
X68382481Y-118462481D01*
X68677542Y-118020891D01*
X68781154Y-117500000D01*
X68677542Y-116979109D01*
X68382481Y-116537519D01*
X67952178Y-116250000D01*
X68382481Y-115962481D01*
X68677542Y-115520891D01*
X68781154Y-115000000D01*
X68677542Y-114479109D01*
X68382481Y-114037519D01*
X67952178Y-113750000D01*
X68382481Y-113462481D01*
X68677542Y-113020891D01*
X68781154Y-112500000D01*
X68677542Y-111979109D01*
X68382481Y-111537519D01*
X67952178Y-111250000D01*
X68382481Y-110962481D01*
X68677542Y-110520891D01*
X68781154Y-110000000D01*
X68677542Y-109479109D01*
X68382481Y-109037519D01*
X67952178Y-108750000D01*
X68382481Y-108462481D01*
X68677542Y-108020891D01*
X68781154Y-107500000D01*
X68677542Y-106979109D01*
X68382481Y-106537519D01*
X67952178Y-106250000D01*
X68382481Y-105962481D01*
X68677542Y-105520891D01*
X68781154Y-105000000D01*
X68677542Y-104479109D01*
X68382481Y-104037519D01*
X67952178Y-103750000D01*
X68382481Y-103462481D01*
X68677542Y-103020891D01*
X68781154Y-102500000D01*
X68677542Y-101979109D01*
X68382481Y-101537519D01*
X67952178Y-101250000D01*
X68382481Y-100962481D01*
X68677542Y-100520891D01*
X68781154Y-100000000D01*
X68728334Y-99734452D01*
X71165000Y-99734452D01*
X71165000Y-100265548D01*
X71368242Y-100756217D01*
X71743783Y-101131758D01*
X72029244Y-101250000D01*
X71743783Y-101368242D01*
X71368242Y-101743783D01*
X71165000Y-102234452D01*
X71165000Y-102765548D01*
X71368242Y-103256217D01*
X71743783Y-103631758D01*
X72029244Y-103750000D01*
X71743783Y-103868242D01*
X71368242Y-104243783D01*
X71165000Y-104734452D01*
X71165000Y-105265548D01*
X71368242Y-105756217D01*
X71743783Y-106131758D01*
X72029244Y-106250000D01*
X71743783Y-106368242D01*
X71368242Y-106743783D01*
X71165000Y-107234452D01*
X71165000Y-107765548D01*
X71368242Y-108256217D01*
X71743783Y-108631758D01*
X72029244Y-108750000D01*
X71743783Y-108868242D01*
X71368242Y-109243783D01*
X71165000Y-109734452D01*
X71165000Y-110265548D01*
X71368242Y-110756217D01*
X71743783Y-111131758D01*
X72029244Y-111250000D01*
X71743783Y-111368242D01*
X71368242Y-111743783D01*
X71165000Y-112234452D01*
X71165000Y-112765548D01*
X71368242Y-113256217D01*
X71743783Y-113631758D01*
X72029244Y-113750000D01*
X71743783Y-113868242D01*
X71368242Y-114243783D01*
X71165000Y-114734452D01*
X71165000Y-115265548D01*
X71368242Y-115756217D01*
X71743783Y-116131758D01*
X72029244Y-116250000D01*
X71743783Y-116368242D01*
X71368242Y-116743783D01*
X71165000Y-117234452D01*
X71165000Y-117765548D01*
X71368242Y-118256217D01*
X71743783Y-118631758D01*
X72234452Y-118835000D01*
X72765548Y-118835000D01*
X73256217Y-118631758D01*
X73631758Y-118256217D01*
X73646265Y-118221194D01*
X73768959Y-118517423D01*
X74144866Y-118932389D01*
X74650959Y-119171914D01*
X74873000Y-119050629D01*
X74873000Y-117907000D01*
X75127000Y-117907000D01*
X75127000Y-119050629D01*
X75349041Y-119171914D01*
X75855134Y-118932389D01*
X76231041Y-118517423D01*
X76391904Y-118129039D01*
X76269915Y-117907000D01*
X75127000Y-117907000D01*
X74873000Y-117907000D01*
X74853000Y-117907000D01*
X74853000Y-117653000D01*
X74873000Y-117653000D01*
X74873000Y-117633000D01*
X75127000Y-117633000D01*
X75127000Y-117653000D01*
X76269915Y-117653000D01*
X76391904Y-117430961D01*
X76231041Y-117042577D01*
X75855134Y-116627611D01*
X75650892Y-116530947D01*
X76034577Y-116274577D01*
X76351740Y-115799909D01*
X76463113Y-115240000D01*
X76351740Y-114680091D01*
X76034577Y-114205423D01*
X75682242Y-113970000D01*
X76034577Y-113734577D01*
X76351740Y-113259909D01*
X76463113Y-112700000D01*
X76351740Y-112140091D01*
X76034577Y-111665423D01*
X75682242Y-111430000D01*
X76034577Y-111194577D01*
X76351740Y-110719909D01*
X76463113Y-110160000D01*
X81156887Y-110160000D01*
X81268260Y-110719909D01*
X81585423Y-111194577D01*
X81937758Y-111430000D01*
X81585423Y-111665423D01*
X81268260Y-112140091D01*
X81156887Y-112700000D01*
X81268260Y-113259909D01*
X81585423Y-113734577D01*
X81937758Y-113970000D01*
X81585423Y-114205423D01*
X81268260Y-114680091D01*
X81156887Y-115240000D01*
X81268260Y-115799909D01*
X81585423Y-116274577D01*
X81937758Y-116510000D01*
X81585423Y-116745423D01*
X81268260Y-117220091D01*
X81156887Y-117780000D01*
X81268260Y-118339909D01*
X81585423Y-118814577D01*
X82060091Y-119131740D01*
X82478667Y-119215000D01*
X82761333Y-119215000D01*
X83179909Y-119131740D01*
X83654577Y-118814577D01*
X83971740Y-118339909D01*
X84083113Y-117780000D01*
X84003548Y-117380000D01*
X98536887Y-117380000D01*
X98648260Y-117939909D01*
X98965423Y-118414577D01*
X99440091Y-118731740D01*
X99858667Y-118815000D01*
X100141333Y-118815000D01*
X100365001Y-118770510D01*
X100365002Y-123552560D01*
X99200000Y-123552560D01*
X98952235Y-123601843D01*
X98742191Y-123742191D01*
X98601843Y-123952235D01*
X98552560Y-124200000D01*
X98552560Y-125800000D01*
X98601843Y-126047765D01*
X98742191Y-126257809D01*
X98952235Y-126398157D01*
X99170461Y-126441564D01*
X98868242Y-126743783D01*
X98665000Y-127234452D01*
X98665000Y-127765548D01*
X98868242Y-128256217D01*
X99243783Y-128631758D01*
X99734452Y-128835000D01*
X100265548Y-128835000D01*
X100756217Y-128631758D01*
X101131758Y-128256217D01*
X101250000Y-127970756D01*
X101368242Y-128256217D01*
X101743783Y-128631758D01*
X102234452Y-128835000D01*
X102765548Y-128835000D01*
X103256217Y-128631758D01*
X103631758Y-128256217D01*
X103750000Y-127970756D01*
X103868242Y-128256217D01*
X104243783Y-128631758D01*
X104734452Y-128835000D01*
X105265548Y-128835000D01*
X105756217Y-128631758D01*
X106131758Y-128256217D01*
X106250000Y-127970756D01*
X106368242Y-128256217D01*
X106743783Y-128631758D01*
X107234452Y-128835000D01*
X107765548Y-128835000D01*
X108256217Y-128631758D01*
X108631758Y-128256217D01*
X108750000Y-127970756D01*
X108868242Y-128256217D01*
X109243783Y-128631758D01*
X109734452Y-128835000D01*
X110265548Y-128835000D01*
X110756217Y-128631758D01*
X111131758Y-128256217D01*
X111250000Y-127970756D01*
X111368242Y-128256217D01*
X111743783Y-128631758D01*
X112234452Y-128835000D01*
X112765548Y-128835000D01*
X113256217Y-128631758D01*
X113631758Y-128256217D01*
X113750000Y-127970756D01*
X113868242Y-128256217D01*
X114243783Y-128631758D01*
X114734452Y-128835000D01*
X115265548Y-128835000D01*
X115756217Y-128631758D01*
X116131758Y-128256217D01*
X116250000Y-127970756D01*
X116368242Y-128256217D01*
X116743783Y-128631758D01*
X117234452Y-128835000D01*
X117765548Y-128835000D01*
X118256217Y-128631758D01*
X118631758Y-128256217D01*
X118835000Y-127765548D01*
X118835000Y-127234452D01*
X118631758Y-126743783D01*
X118256217Y-126368242D01*
X118221194Y-126353735D01*
X118517423Y-126231041D01*
X118932389Y-125855134D01*
X119171914Y-125349041D01*
X119050629Y-125127000D01*
X117907000Y-125127000D01*
X117907000Y-125147000D01*
X117653000Y-125147000D01*
X117653000Y-125127000D01*
X117633000Y-125127000D01*
X117633000Y-124873000D01*
X117653000Y-124873000D01*
X117653000Y-123730085D01*
X117907000Y-123730085D01*
X117907000Y-124873000D01*
X119050629Y-124873000D01*
X119171914Y-124650959D01*
X119126703Y-124555431D01*
X122765000Y-124555431D01*
X122765000Y-125444569D01*
X123105259Y-126266026D01*
X123733974Y-126894741D01*
X124555431Y-127235000D01*
X125444569Y-127235000D01*
X126266026Y-126894741D01*
X126894741Y-126266026D01*
X127235000Y-125444569D01*
X127235000Y-125122659D01*
X135532796Y-125122659D01*
X135532796Y-125375278D01*
X135629469Y-125608667D01*
X135808097Y-125787296D01*
X137304742Y-126787323D01*
X137538131Y-126883996D01*
X137790750Y-126883996D01*
X138022430Y-126788031D01*
X138226755Y-127281315D01*
X138658558Y-127713118D01*
X139222735Y-127946808D01*
X139833395Y-127946808D01*
X140397572Y-127713118D01*
X140829375Y-127281315D01*
X141063065Y-126717138D01*
X141063065Y-126106478D01*
X140829375Y-125542301D01*
X140397572Y-125110498D01*
X139833395Y-124876808D01*
X139299468Y-124876808D01*
X139299468Y-124626042D01*
X139202795Y-124392653D01*
X139024167Y-124214024D01*
X137527522Y-123213997D01*
X137294133Y-123117324D01*
X137041514Y-123117324D01*
X136808125Y-123213997D01*
X136629496Y-123392625D01*
X135629469Y-124889270D01*
X135532796Y-125122659D01*
X127235000Y-125122659D01*
X127235000Y-124555431D01*
X126894741Y-123733974D01*
X126266026Y-123105259D01*
X125444569Y-122765000D01*
X124555431Y-122765000D01*
X123733974Y-123105259D01*
X123105259Y-123733974D01*
X122765000Y-124555431D01*
X119126703Y-124555431D01*
X118932389Y-124144866D01*
X118517423Y-123768959D01*
X118129039Y-123608096D01*
X117907000Y-123730085D01*
X117653000Y-123730085D01*
X117430961Y-123608096D01*
X117042577Y-123768959D01*
X116627611Y-124144866D01*
X116530947Y-124349108D01*
X116274577Y-123965423D01*
X115799909Y-123648260D01*
X115381333Y-123565000D01*
X115098667Y-123565000D01*
X114680091Y-123648260D01*
X114205423Y-123965423D01*
X113970000Y-124317758D01*
X113734577Y-123965423D01*
X113259909Y-123648260D01*
X112841333Y-123565000D01*
X112558667Y-123565000D01*
X112140091Y-123648260D01*
X111665423Y-123965423D01*
X111430000Y-124317758D01*
X111194577Y-123965423D01*
X110719909Y-123648260D01*
X110301333Y-123565000D01*
X110018667Y-123565000D01*
X109600091Y-123648260D01*
X109125423Y-123965423D01*
X108890000Y-124317758D01*
X108654577Y-123965423D01*
X108179909Y-123648260D01*
X107761333Y-123565000D01*
X107478667Y-123565000D01*
X107060091Y-123648260D01*
X106585423Y-123965423D01*
X106350000Y-124317758D01*
X106114577Y-123965423D01*
X105639909Y-123648260D01*
X105221333Y-123565000D01*
X104938667Y-123565000D01*
X104520091Y-123648260D01*
X104045423Y-123965423D01*
X103810000Y-124317758D01*
X103574577Y-123965423D01*
X103099909Y-123648260D01*
X102681333Y-123565000D01*
X102398667Y-123565000D01*
X102135001Y-123617446D01*
X102135001Y-119036577D01*
X102363561Y-118808017D01*
X102398667Y-118815000D01*
X102681333Y-118815000D01*
X103099909Y-118731740D01*
X103574577Y-118414577D01*
X103810000Y-118062242D01*
X104045423Y-118414577D01*
X104520091Y-118731740D01*
X104938667Y-118815000D01*
X105221333Y-118815000D01*
X105639909Y-118731740D01*
X106114577Y-118414577D01*
X106370947Y-118030892D01*
X106467611Y-118235134D01*
X106882577Y-118611041D01*
X107270961Y-118771904D01*
X107493000Y-118649915D01*
X107493000Y-117507000D01*
X107473000Y-117507000D01*
X107473000Y-117253000D01*
X107493000Y-117253000D01*
X107493000Y-116110085D01*
X107747000Y-116110085D01*
X107747000Y-117253000D01*
X107767000Y-117253000D01*
X107767000Y-117507000D01*
X107747000Y-117507000D01*
X107747000Y-118649915D01*
X107969039Y-118771904D01*
X108357423Y-118611041D01*
X108772389Y-118235134D01*
X108869053Y-118030892D01*
X109125423Y-118414577D01*
X109600091Y-118731740D01*
X110018667Y-118815000D01*
X110301333Y-118815000D01*
X110719909Y-118731740D01*
X111194577Y-118414577D01*
X111430000Y-118062242D01*
X111665423Y-118414577D01*
X112140091Y-118731740D01*
X112558667Y-118815000D01*
X112841333Y-118815000D01*
X113259909Y-118731740D01*
X113734577Y-118414577D01*
X113970000Y-118062242D01*
X114205423Y-118414577D01*
X114680091Y-118731740D01*
X115098667Y-118815000D01*
X115381333Y-118815000D01*
X115799909Y-118731740D01*
X116274577Y-118414577D01*
X116510000Y-118062242D01*
X116745423Y-118414577D01*
X117220091Y-118731740D01*
X117638667Y-118815000D01*
X117921333Y-118815000D01*
X118339909Y-118731740D01*
X118814577Y-118414577D01*
X119131740Y-117939909D01*
X119177903Y-117707830D01*
X139751231Y-117707830D01*
X139800514Y-117955594D01*
X139940862Y-118165639D01*
X140150906Y-118305986D01*
X141813889Y-118994817D01*
X142061654Y-119044101D01*
X142309418Y-118994818D01*
X142519463Y-118854470D01*
X142528342Y-118841182D01*
X142619922Y-119062277D01*
X143051725Y-119494080D01*
X143615902Y-119727770D01*
X144226562Y-119727770D01*
X144790739Y-119494080D01*
X145222542Y-119062277D01*
X145456232Y-118498100D01*
X145456232Y-117887440D01*
X145222542Y-117323263D01*
X144790739Y-116891460D01*
X144226562Y-116657770D01*
X143615902Y-116657770D01*
X143394808Y-116749350D01*
X143397925Y-116733678D01*
X143348642Y-116485914D01*
X143208294Y-116275869D01*
X142998250Y-116135522D01*
X141335267Y-115446691D01*
X141087502Y-115397407D01*
X140839738Y-115446690D01*
X140629693Y-115587038D01*
X140489346Y-115797082D01*
X139800515Y-117460065D01*
X139751231Y-117707830D01*
X119177903Y-117707830D01*
X119243113Y-117380000D01*
X119131740Y-116820091D01*
X118814577Y-116345423D01*
X118339909Y-116028260D01*
X117921333Y-115945000D01*
X117638667Y-115945000D01*
X117220091Y-116028260D01*
X116745423Y-116345423D01*
X116510000Y-116697758D01*
X116274577Y-116345423D01*
X115799909Y-116028260D01*
X115381333Y-115945000D01*
X115098667Y-115945000D01*
X114680091Y-116028260D01*
X114205423Y-116345423D01*
X113970000Y-116697758D01*
X113734577Y-116345423D01*
X113259909Y-116028260D01*
X112841333Y-115945000D01*
X112558667Y-115945000D01*
X112140091Y-116028260D01*
X111665423Y-116345423D01*
X111430000Y-116697758D01*
X111194577Y-116345423D01*
X110719909Y-116028260D01*
X110301333Y-115945000D01*
X110018667Y-115945000D01*
X109600091Y-116028260D01*
X109125423Y-116345423D01*
X108869053Y-116729108D01*
X108772389Y-116524866D01*
X108357423Y-116148959D01*
X107969039Y-115988096D01*
X107747000Y-116110085D01*
X107493000Y-116110085D01*
X107270961Y-115988096D01*
X106882577Y-116148959D01*
X106467611Y-116524866D01*
X106370947Y-116729108D01*
X106114577Y-116345423D01*
X105639909Y-116028260D01*
X105221333Y-115945000D01*
X104938667Y-115945000D01*
X104520091Y-116028260D01*
X104045423Y-116345423D01*
X103810000Y-116697758D01*
X103574577Y-116345423D01*
X103099909Y-116028260D01*
X102681333Y-115945000D01*
X102398667Y-115945000D01*
X101980091Y-116028260D01*
X101505423Y-116345423D01*
X101270000Y-116697758D01*
X101034577Y-116345423D01*
X100559909Y-116028260D01*
X100141333Y-115945000D01*
X99858667Y-115945000D01*
X99440091Y-116028260D01*
X98965423Y-116345423D01*
X98648260Y-116820091D01*
X98536887Y-117380000D01*
X84003548Y-117380000D01*
X83971740Y-117220091D01*
X83654577Y-116745423D01*
X83302242Y-116510000D01*
X83654577Y-116274577D01*
X83971740Y-115799909D01*
X84083113Y-115240000D01*
X83971740Y-114680091D01*
X83654577Y-114205423D01*
X83302242Y-113970000D01*
X83654577Y-113734577D01*
X83971740Y-113259909D01*
X84083113Y-112700000D01*
X83971740Y-112140091D01*
X83654577Y-111665423D01*
X83302242Y-111430000D01*
X83654577Y-111194577D01*
X83971740Y-110719909D01*
X84083113Y-110160000D01*
X83971740Y-109600091D01*
X83811237Y-109359880D01*
X142442049Y-109359880D01*
X142442049Y-109612498D01*
X142538722Y-109845887D01*
X142717350Y-110024516D01*
X142950740Y-110121189D01*
X144716153Y-110472352D01*
X144968771Y-110472352D01*
X145202160Y-110375679D01*
X145379481Y-110198359D01*
X145757025Y-110575903D01*
X146321202Y-110809593D01*
X146931862Y-110809593D01*
X147496039Y-110575903D01*
X147927842Y-110144100D01*
X148161532Y-109579923D01*
X148161532Y-108969263D01*
X147927842Y-108405086D01*
X147496039Y-107973283D01*
X146931862Y-107739593D01*
X146321202Y-107739593D01*
X145827916Y-107943919D01*
X145731952Y-107712241D01*
X145553324Y-107533612D01*
X145319934Y-107436939D01*
X143554521Y-107085776D01*
X143301903Y-107085776D01*
X143068514Y-107182449D01*
X142889885Y-107361077D01*
X142793212Y-107594467D01*
X142442049Y-109359880D01*
X83811237Y-109359880D01*
X83654577Y-109125423D01*
X83270892Y-108869053D01*
X83475134Y-108772389D01*
X83851041Y-108357423D01*
X84011904Y-107969039D01*
X83889915Y-107747000D01*
X82747000Y-107747000D01*
X82747000Y-107767000D01*
X82493000Y-107767000D01*
X82493000Y-107747000D01*
X81350085Y-107747000D01*
X81228096Y-107969039D01*
X81388959Y-108357423D01*
X81764866Y-108772389D01*
X81969108Y-108869053D01*
X81585423Y-109125423D01*
X81268260Y-109600091D01*
X81156887Y-110160000D01*
X76463113Y-110160000D01*
X76351740Y-109600091D01*
X76034577Y-109125423D01*
X75682242Y-108890000D01*
X76034577Y-108654577D01*
X76351740Y-108179909D01*
X76463113Y-107620000D01*
X76351740Y-107060091D01*
X76034577Y-106585423D01*
X75682242Y-106350000D01*
X76034577Y-106114577D01*
X76351740Y-105639909D01*
X76463113Y-105080000D01*
X76351740Y-104520091D01*
X76034577Y-104045423D01*
X75682242Y-103810000D01*
X76034577Y-103574577D01*
X76351740Y-103099909D01*
X76463113Y-102540000D01*
X76382554Y-102135001D01*
X80963423Y-102135001D01*
X81191983Y-102363561D01*
X81156887Y-102540000D01*
X81268260Y-103099909D01*
X81585423Y-103574577D01*
X81937758Y-103810000D01*
X81585423Y-104045423D01*
X81268260Y-104520091D01*
X81156887Y-105080000D01*
X81268260Y-105639909D01*
X81585423Y-106114577D01*
X81969108Y-106370947D01*
X81764866Y-106467611D01*
X81388959Y-106882577D01*
X81228096Y-107270961D01*
X81350085Y-107493000D01*
X82493000Y-107493000D01*
X82493000Y-107473000D01*
X82747000Y-107473000D01*
X82747000Y-107493000D01*
X83889915Y-107493000D01*
X84011904Y-107270961D01*
X83851041Y-106882577D01*
X83475134Y-106467611D01*
X83270892Y-106370947D01*
X83654577Y-106114577D01*
X83971740Y-105639909D01*
X84083113Y-105080000D01*
X83971740Y-104520091D01*
X83654577Y-104045423D01*
X83302242Y-103810000D01*
X83654577Y-103574577D01*
X83769533Y-103402532D01*
X95777073Y-103402532D01*
X95875736Y-103669387D01*
X96485461Y-103895908D01*
X97135460Y-103871856D01*
X97624264Y-103669387D01*
X97722927Y-103402532D01*
X102277073Y-103402532D01*
X102375736Y-103669387D01*
X102985461Y-103895908D01*
X103635460Y-103871856D01*
X104124264Y-103669387D01*
X104222927Y-103402532D01*
X103250000Y-102429605D01*
X102277073Y-103402532D01*
X97722927Y-103402532D01*
X96750000Y-102429605D01*
X95777073Y-103402532D01*
X83769533Y-103402532D01*
X83971740Y-103099909D01*
X84083113Y-102540000D01*
X83972809Y-101985461D01*
X95104092Y-101985461D01*
X95128144Y-102635460D01*
X95330613Y-103124264D01*
X95597468Y-103222927D01*
X96570395Y-102250000D01*
X96929605Y-102250000D01*
X97902532Y-103222927D01*
X98169387Y-103124264D01*
X98395908Y-102514539D01*
X98376331Y-101985461D01*
X101604092Y-101985461D01*
X101628144Y-102635460D01*
X101830613Y-103124264D01*
X102097468Y-103222927D01*
X103070395Y-102250000D01*
X103429605Y-102250000D01*
X104402532Y-103222927D01*
X104669387Y-103124264D01*
X104895908Y-102514539D01*
X104871856Y-101864540D01*
X104669387Y-101375736D01*
X104402532Y-101277073D01*
X103429605Y-102250000D01*
X103070395Y-102250000D01*
X102097468Y-101277073D01*
X101830613Y-101375736D01*
X101604092Y-101985461D01*
X98376331Y-101985461D01*
X98371856Y-101864540D01*
X98169387Y-101375736D01*
X97902532Y-101277073D01*
X96929605Y-102250000D01*
X96570395Y-102250000D01*
X95597468Y-101277073D01*
X95330613Y-101375736D01*
X95104092Y-101985461D01*
X83972809Y-101985461D01*
X83971740Y-101980091D01*
X83654577Y-101505423D01*
X83302242Y-101270000D01*
X83560454Y-101097468D01*
X95777073Y-101097468D01*
X96750000Y-102070395D01*
X97722927Y-101097468D01*
X102277073Y-101097468D01*
X103250000Y-102070395D01*
X104222927Y-101097468D01*
X104124264Y-100830613D01*
X103514539Y-100604092D01*
X102864540Y-100628144D01*
X102375736Y-100830613D01*
X102277073Y-101097468D01*
X97722927Y-101097468D01*
X97624264Y-100830613D01*
X97014539Y-100604092D01*
X96364540Y-100628144D01*
X95875736Y-100830613D01*
X95777073Y-101097468D01*
X83560454Y-101097468D01*
X83654577Y-101034577D01*
X83971740Y-100559909D01*
X84083113Y-100000000D01*
X83971740Y-99440091D01*
X83654577Y-98965423D01*
X83179909Y-98648260D01*
X82761333Y-98565000D01*
X82478667Y-98565000D01*
X82060091Y-98648260D01*
X81585423Y-98965423D01*
X81268260Y-99440091D01*
X81156887Y-100000000D01*
X81229490Y-100365001D01*
X76447440Y-100365001D01*
X76447440Y-99200000D01*
X76398157Y-98952235D01*
X76257809Y-98742191D01*
X76047765Y-98601843D01*
X75800000Y-98552560D01*
X74200000Y-98552560D01*
X73952235Y-98601843D01*
X73742191Y-98742191D01*
X73601843Y-98952235D01*
X73558436Y-99170461D01*
X73256217Y-98868242D01*
X72765548Y-98665000D01*
X72234452Y-98665000D01*
X71743783Y-98868242D01*
X71368242Y-99243783D01*
X71165000Y-99734452D01*
X68728334Y-99734452D01*
X68677542Y-99479109D01*
X68382481Y-99037519D01*
X67940891Y-98742458D01*
X67551485Y-98665000D01*
X67288515Y-98665000D01*
X66899109Y-98742458D01*
X66457519Y-99037519D01*
X66162458Y-99479109D01*
X66058846Y-100000000D01*
X56547440Y-100000000D01*
X56547440Y-99100000D01*
X56498157Y-98852235D01*
X56357809Y-98642191D01*
X56147765Y-98501843D01*
X55900000Y-98452560D01*
X54100000Y-98452560D01*
X53852235Y-98501843D01*
X53642191Y-98642191D01*
X53501843Y-98852235D01*
X53498725Y-98867908D01*
X53329507Y-98698690D01*
X52765330Y-98465000D01*
X52154670Y-98465000D01*
X51590493Y-98698690D01*
X51158690Y-99130493D01*
X50925000Y-99694670D01*
X50744012Y-99694670D01*
X50739206Y-99350504D01*
X50854411Y-96601798D01*
X51122873Y-93863809D01*
X51220302Y-93234452D01*
X90165000Y-93234452D01*
X90165000Y-93765548D01*
X90368242Y-94256217D01*
X90743783Y-94631758D01*
X91234452Y-94835000D01*
X91765548Y-94835000D01*
X92256217Y-94631758D01*
X92631758Y-94256217D01*
X92655043Y-94200000D01*
X94552560Y-94200000D01*
X94552560Y-95800000D01*
X94601843Y-96047765D01*
X94742191Y-96257809D01*
X94952235Y-96398157D01*
X95200000Y-96447440D01*
X95740321Y-96447440D01*
X95363914Y-96823847D01*
X95115000Y-97424778D01*
X95115000Y-98075222D01*
X95363914Y-98676153D01*
X95823847Y-99136086D01*
X96424778Y-99385000D01*
X97075222Y-99385000D01*
X97676153Y-99136086D01*
X98136086Y-98676153D01*
X98385000Y-98075222D01*
X98385000Y-97424778D01*
X98136086Y-96823847D01*
X97676153Y-96363914D01*
X97292966Y-96205193D01*
X97398157Y-96047765D01*
X97424785Y-95913894D01*
X97505423Y-96034577D01*
X97980091Y-96351740D01*
X98398667Y-96435000D01*
X98681333Y-96435000D01*
X99099909Y-96351740D01*
X99574577Y-96034577D01*
X99810000Y-95682242D01*
X100045423Y-96034577D01*
X100520091Y-96351740D01*
X100938667Y-96435000D01*
X101221333Y-96435000D01*
X101639909Y-96351740D01*
X102114577Y-96034577D01*
X102370947Y-95650892D01*
X102467611Y-95855134D01*
X102807915Y-96163406D01*
X102323847Y-96363914D01*
X101863914Y-96823847D01*
X101615000Y-97424778D01*
X101615000Y-98075222D01*
X101863914Y-98676153D01*
X102323847Y-99136086D01*
X102924778Y-99385000D01*
X103575222Y-99385000D01*
X104176153Y-99136086D01*
X104636086Y-98676153D01*
X104885000Y-98075222D01*
X104885000Y-97424778D01*
X104636086Y-96823847D01*
X104176153Y-96363914D01*
X104106388Y-96335016D01*
X104357423Y-96231041D01*
X104772389Y-95855134D01*
X105011914Y-95349041D01*
X104890629Y-95127000D01*
X103747000Y-95127000D01*
X103747000Y-95147000D01*
X103493000Y-95147000D01*
X103493000Y-95127000D01*
X103473000Y-95127000D01*
X103473000Y-94920000D01*
X115916887Y-94920000D01*
X116028260Y-95479909D01*
X116345423Y-95954577D01*
X116697758Y-96190000D01*
X116345423Y-96425423D01*
X116028260Y-96900091D01*
X115916887Y-97460000D01*
X116028260Y-98019909D01*
X116345423Y-98494577D01*
X116697758Y-98730000D01*
X116345423Y-98965423D01*
X116028260Y-99440091D01*
X115916887Y-100000000D01*
X116028260Y-100559909D01*
X116345423Y-101034577D01*
X116820091Y-101351740D01*
X117238667Y-101435000D01*
X117521333Y-101435000D01*
X117939909Y-101351740D01*
X118414577Y-101034577D01*
X118731740Y-100559909D01*
X118843113Y-100000000D01*
X118770510Y-99634999D01*
X123552560Y-99634999D01*
X123552560Y-100800000D01*
X123601843Y-101047765D01*
X123742191Y-101257809D01*
X123952235Y-101398157D01*
X124200000Y-101447440D01*
X125800000Y-101447440D01*
X126047765Y-101398157D01*
X126257809Y-101257809D01*
X126398157Y-101047765D01*
X126441564Y-100829539D01*
X126743783Y-101131758D01*
X127234452Y-101335000D01*
X127765548Y-101335000D01*
X128256217Y-101131758D01*
X128631758Y-100756217D01*
X128835000Y-100265548D01*
X128835000Y-99734452D01*
X128631758Y-99243783D01*
X128256217Y-98868242D01*
X127970756Y-98750000D01*
X128256217Y-98631758D01*
X128631758Y-98256217D01*
X128835000Y-97765548D01*
X128835000Y-97234452D01*
X128631758Y-96743783D01*
X128256217Y-96368242D01*
X127970756Y-96250000D01*
X128256217Y-96131758D01*
X128631758Y-95756217D01*
X128835000Y-95265548D01*
X128835000Y-94734452D01*
X128631758Y-94243783D01*
X128256217Y-93868242D01*
X127970756Y-93750000D01*
X128256217Y-93631758D01*
X128631758Y-93256217D01*
X128835000Y-92765548D01*
X128835000Y-92234452D01*
X128631758Y-91743783D01*
X128256217Y-91368242D01*
X127970756Y-91250000D01*
X128256217Y-91131758D01*
X128631758Y-90756217D01*
X128835000Y-90265548D01*
X128835000Y-89734452D01*
X128631758Y-89243783D01*
X128256217Y-88868242D01*
X127970756Y-88750000D01*
X128256217Y-88631758D01*
X128631758Y-88256217D01*
X128835000Y-87765548D01*
X128835000Y-87234452D01*
X128631758Y-86743783D01*
X128256217Y-86368242D01*
X127970756Y-86250000D01*
X128256217Y-86131758D01*
X128631758Y-85756217D01*
X128835000Y-85265548D01*
X128835000Y-84734452D01*
X128631758Y-84243783D01*
X128256217Y-83868242D01*
X127970756Y-83750000D01*
X128256217Y-83631758D01*
X128631758Y-83256217D01*
X128835000Y-82765548D01*
X128835000Y-82500000D01*
X131218846Y-82500000D01*
X131322458Y-83020891D01*
X131617519Y-83462481D01*
X132047822Y-83750000D01*
X131617519Y-84037519D01*
X131322458Y-84479109D01*
X131218846Y-85000000D01*
X131322458Y-85520891D01*
X131617519Y-85962481D01*
X132047822Y-86250000D01*
X131617519Y-86537519D01*
X131322458Y-86979109D01*
X131218846Y-87500000D01*
X131322458Y-88020891D01*
X131617519Y-88462481D01*
X132047822Y-88750000D01*
X131617519Y-89037519D01*
X131322458Y-89479109D01*
X131218846Y-90000000D01*
X131322458Y-90520891D01*
X131617519Y-90962481D01*
X132047822Y-91250000D01*
X131617519Y-91537519D01*
X131322458Y-91979109D01*
X131218846Y-92500000D01*
X131322458Y-93020891D01*
X131617519Y-93462481D01*
X132047822Y-93750000D01*
X131617519Y-94037519D01*
X131322458Y-94479109D01*
X131218846Y-95000000D01*
X131322458Y-95520891D01*
X131617519Y-95962481D01*
X132047822Y-96250000D01*
X131617519Y-96537519D01*
X131322458Y-96979109D01*
X131218846Y-97500000D01*
X131322458Y-98020891D01*
X131617519Y-98462481D01*
X132047822Y-98750000D01*
X131617519Y-99037519D01*
X131322458Y-99479109D01*
X131218846Y-100000000D01*
X131322458Y-100520891D01*
X131617519Y-100962481D01*
X132059109Y-101257542D01*
X132448515Y-101335000D01*
X132711485Y-101335000D01*
X133100891Y-101257542D01*
X133542481Y-100962481D01*
X133837542Y-100520891D01*
X133941154Y-100000000D01*
X133837542Y-99479109D01*
X133584230Y-99100000D01*
X143452560Y-99100000D01*
X143452560Y-100900000D01*
X143501843Y-101147765D01*
X143642191Y-101357809D01*
X143852235Y-101498157D01*
X144100000Y-101547440D01*
X145900000Y-101547440D01*
X146147765Y-101498157D01*
X146357809Y-101357809D01*
X146498157Y-101147765D01*
X146501275Y-101132092D01*
X146670493Y-101301310D01*
X147234670Y-101535000D01*
X147845330Y-101535000D01*
X148409507Y-101301310D01*
X148841310Y-100869507D01*
X149075000Y-100305330D01*
X149075000Y-99694670D01*
X148841310Y-99130493D01*
X148409507Y-98698690D01*
X147845330Y-98465000D01*
X147234670Y-98465000D01*
X146670493Y-98698690D01*
X146501275Y-98867908D01*
X146498157Y-98852235D01*
X146357809Y-98642191D01*
X146147765Y-98501843D01*
X145900000Y-98452560D01*
X144100000Y-98452560D01*
X143852235Y-98501843D01*
X143642191Y-98642191D01*
X143501843Y-98852235D01*
X143452560Y-99100000D01*
X133584230Y-99100000D01*
X133542481Y-99037519D01*
X133112178Y-98750000D01*
X133542481Y-98462481D01*
X133837542Y-98020891D01*
X133941154Y-97500000D01*
X133837542Y-96979109D01*
X133542481Y-96537519D01*
X133112178Y-96250000D01*
X133542481Y-95962481D01*
X133837542Y-95520891D01*
X133941154Y-95000000D01*
X133837542Y-94479109D01*
X133542481Y-94037519D01*
X133112178Y-93750000D01*
X133542481Y-93462481D01*
X133837542Y-93020891D01*
X133941154Y-92500000D01*
X133837542Y-91979109D01*
X133542481Y-91537519D01*
X133112178Y-91250000D01*
X133542481Y-90962481D01*
X133837542Y-90520891D01*
X133864075Y-90387501D01*
X142442049Y-90387501D01*
X142442049Y-90640119D01*
X142793212Y-92405532D01*
X142889885Y-92638922D01*
X143068514Y-92817550D01*
X143301903Y-92914223D01*
X143554521Y-92914223D01*
X145319934Y-92563060D01*
X145553324Y-92466387D01*
X145731952Y-92287758D01*
X145827916Y-92056080D01*
X146321202Y-92260406D01*
X146931862Y-92260406D01*
X147496039Y-92026716D01*
X147927842Y-91594913D01*
X148161532Y-91030736D01*
X148161532Y-90420076D01*
X147927842Y-89855899D01*
X147496039Y-89424096D01*
X146931862Y-89190406D01*
X146321202Y-89190406D01*
X145757025Y-89424096D01*
X145379481Y-89801640D01*
X145202160Y-89624320D01*
X144968771Y-89527647D01*
X144716153Y-89527647D01*
X142950740Y-89878810D01*
X142717350Y-89975483D01*
X142538722Y-90154112D01*
X142442049Y-90387501D01*
X133864075Y-90387501D01*
X133941154Y-90000000D01*
X133837542Y-89479109D01*
X133542481Y-89037519D01*
X133112178Y-88750000D01*
X133542481Y-88462481D01*
X133837542Y-88020891D01*
X133941154Y-87500000D01*
X133837542Y-86979109D01*
X133542481Y-86537519D01*
X133112178Y-86250000D01*
X133542481Y-85962481D01*
X133837542Y-85520891D01*
X133941154Y-85000000D01*
X133837542Y-84479109D01*
X133542481Y-84037519D01*
X133112178Y-83750000D01*
X133542481Y-83462481D01*
X133837542Y-83020891D01*
X133941154Y-82500000D01*
X133899814Y-82292169D01*
X139751231Y-82292169D01*
X139800515Y-82539934D01*
X140489346Y-84202917D01*
X140629693Y-84412961D01*
X140839738Y-84553309D01*
X141087502Y-84602592D01*
X141335267Y-84553308D01*
X142998250Y-83864477D01*
X143208294Y-83724130D01*
X143348642Y-83514085D01*
X143397925Y-83266321D01*
X143394808Y-83250649D01*
X143615902Y-83342229D01*
X144226562Y-83342229D01*
X144790739Y-83108539D01*
X145222542Y-82676736D01*
X145456232Y-82112559D01*
X145456232Y-81501899D01*
X145222542Y-80937722D01*
X144790739Y-80505919D01*
X144226562Y-80272229D01*
X143615902Y-80272229D01*
X143051725Y-80505919D01*
X142619922Y-80937722D01*
X142528342Y-81158817D01*
X142519463Y-81145529D01*
X142309418Y-81005181D01*
X142061654Y-80955898D01*
X141813889Y-81005182D01*
X140150906Y-81694013D01*
X139940862Y-81834360D01*
X139800514Y-82044405D01*
X139751231Y-82292169D01*
X133899814Y-82292169D01*
X133837542Y-81979109D01*
X133542481Y-81537519D01*
X133100891Y-81242458D01*
X132711485Y-81165000D01*
X132448515Y-81165000D01*
X132059109Y-81242458D01*
X131617519Y-81537519D01*
X131322458Y-81979109D01*
X131218846Y-82500000D01*
X128835000Y-82500000D01*
X128835000Y-82234452D01*
X128631758Y-81743783D01*
X128256217Y-81368242D01*
X127765548Y-81165000D01*
X127234452Y-81165000D01*
X126743783Y-81368242D01*
X126368242Y-81743783D01*
X126353735Y-81778806D01*
X126231041Y-81482577D01*
X125855134Y-81067611D01*
X125349041Y-80828086D01*
X125127000Y-80949371D01*
X125127000Y-82093000D01*
X125147000Y-82093000D01*
X125147000Y-82347000D01*
X125127000Y-82347000D01*
X125127000Y-82367000D01*
X124873000Y-82367000D01*
X124873000Y-82347000D01*
X123730085Y-82347000D01*
X123608096Y-82569039D01*
X123768959Y-82957423D01*
X124144866Y-83372389D01*
X124349108Y-83469053D01*
X123965423Y-83725423D01*
X123648260Y-84200091D01*
X123536887Y-84760000D01*
X123648260Y-85319909D01*
X123965423Y-85794577D01*
X124317758Y-86030000D01*
X123965423Y-86265423D01*
X123648260Y-86740091D01*
X123536887Y-87300000D01*
X123648260Y-87859909D01*
X123965423Y-88334577D01*
X124317758Y-88570000D01*
X123965423Y-88805423D01*
X123648260Y-89280091D01*
X123536887Y-89840000D01*
X123648260Y-90399909D01*
X123965423Y-90874577D01*
X124317758Y-91110000D01*
X123965423Y-91345423D01*
X123648260Y-91820091D01*
X123536887Y-92380000D01*
X123648260Y-92939909D01*
X123965423Y-93414577D01*
X124317758Y-93650000D01*
X123965423Y-93885423D01*
X123648260Y-94360091D01*
X123536887Y-94920000D01*
X123648260Y-95479909D01*
X123965423Y-95954577D01*
X124317758Y-96190000D01*
X123965423Y-96425423D01*
X123648260Y-96900091D01*
X123536887Y-97460000D01*
X123617446Y-97864999D01*
X119036578Y-97864999D01*
X118808017Y-97636439D01*
X118843113Y-97460000D01*
X118731740Y-96900091D01*
X118414577Y-96425423D01*
X118062242Y-96190000D01*
X118414577Y-95954577D01*
X118731740Y-95479909D01*
X118843113Y-94920000D01*
X118731740Y-94360091D01*
X118414577Y-93885423D01*
X118030892Y-93629053D01*
X118235134Y-93532389D01*
X118611041Y-93117423D01*
X118771904Y-92729039D01*
X118649915Y-92507000D01*
X117507000Y-92507000D01*
X117507000Y-92527000D01*
X117253000Y-92527000D01*
X117253000Y-92507000D01*
X116110085Y-92507000D01*
X115988096Y-92729039D01*
X116148959Y-93117423D01*
X116524866Y-93532389D01*
X116729108Y-93629053D01*
X116345423Y-93885423D01*
X116028260Y-94360091D01*
X115916887Y-94920000D01*
X103473000Y-94920000D01*
X103473000Y-94873000D01*
X103493000Y-94873000D01*
X103493000Y-93730085D01*
X103747000Y-93730085D01*
X103747000Y-94873000D01*
X104890629Y-94873000D01*
X105011914Y-94650959D01*
X104772389Y-94144866D01*
X104357423Y-93768959D01*
X103969039Y-93608096D01*
X103747000Y-93730085D01*
X103493000Y-93730085D01*
X103270961Y-93608096D01*
X102882577Y-93768959D01*
X102467611Y-94144866D01*
X102370947Y-94349108D01*
X102114577Y-93965423D01*
X101639909Y-93648260D01*
X101221333Y-93565000D01*
X100938667Y-93565000D01*
X100520091Y-93648260D01*
X100045423Y-93965423D01*
X99810000Y-94317758D01*
X99574577Y-93965423D01*
X99099909Y-93648260D01*
X98681333Y-93565000D01*
X98398667Y-93565000D01*
X97980091Y-93648260D01*
X97505423Y-93965423D01*
X97424785Y-94086106D01*
X97398157Y-93952235D01*
X97257809Y-93742191D01*
X97047765Y-93601843D01*
X96800000Y-93552560D01*
X95200000Y-93552560D01*
X94952235Y-93601843D01*
X94742191Y-93742191D01*
X94601843Y-93952235D01*
X94552560Y-94200000D01*
X92655043Y-94200000D01*
X92835000Y-93765548D01*
X92835000Y-93234452D01*
X92631758Y-92743783D01*
X92256217Y-92368242D01*
X91765548Y-92165000D01*
X91234452Y-92165000D01*
X90743783Y-92368242D01*
X90368242Y-92743783D01*
X90165000Y-93234452D01*
X51220302Y-93234452D01*
X51543755Y-91145075D01*
X51697858Y-90420076D01*
X51838467Y-90420076D01*
X51838467Y-91030736D01*
X52072157Y-91594913D01*
X52503960Y-92026716D01*
X53068137Y-92260406D01*
X53678797Y-92260406D01*
X54172083Y-92056080D01*
X54268047Y-92287758D01*
X54446675Y-92466387D01*
X54680065Y-92563060D01*
X56445478Y-92914223D01*
X56698096Y-92914223D01*
X56931485Y-92817550D01*
X57110114Y-92638922D01*
X57206787Y-92405532D01*
X57557950Y-90640119D01*
X57557950Y-90387501D01*
X57461277Y-90154112D01*
X57282649Y-89975483D01*
X57049259Y-89878810D01*
X55283846Y-89527647D01*
X55031228Y-89527647D01*
X54797839Y-89624320D01*
X54620518Y-89801640D01*
X54242974Y-89424096D01*
X53678797Y-89190406D01*
X53068137Y-89190406D01*
X52503960Y-89424096D01*
X52072157Y-89855899D01*
X51838467Y-90420076D01*
X51697858Y-90420076D01*
X52115745Y-88454075D01*
X52125002Y-88420000D01*
X90138846Y-88420000D01*
X90242458Y-88940891D01*
X90537519Y-89382481D01*
X90979109Y-89677542D01*
X91368515Y-89755000D01*
X91631485Y-89755000D01*
X92020891Y-89677542D01*
X92462481Y-89382481D01*
X92757542Y-88940891D01*
X92861154Y-88420000D01*
X92757542Y-87899109D01*
X92462481Y-87457519D01*
X92346466Y-87380000D01*
X94536887Y-87380000D01*
X94648260Y-87939909D01*
X94965423Y-88414577D01*
X95440091Y-88731740D01*
X95858667Y-88815000D01*
X96141333Y-88815000D01*
X96559909Y-88731740D01*
X97034577Y-88414577D01*
X97270000Y-88062242D01*
X97505423Y-88414577D01*
X97980091Y-88731740D01*
X98398667Y-88815000D01*
X98681333Y-88815000D01*
X99099909Y-88731740D01*
X99574577Y-88414577D01*
X99810000Y-88062242D01*
X100045423Y-88414577D01*
X100520091Y-88731740D01*
X100938667Y-88815000D01*
X101221333Y-88815000D01*
X101639909Y-88731740D01*
X102114577Y-88414577D01*
X102350000Y-88062242D01*
X102585423Y-88414577D01*
X103060091Y-88731740D01*
X103478667Y-88815000D01*
X103761333Y-88815000D01*
X104179909Y-88731740D01*
X104654577Y-88414577D01*
X104971740Y-87939909D01*
X105083113Y-87380000D01*
X104971740Y-86820091D01*
X104654577Y-86345423D01*
X104179909Y-86028260D01*
X103761333Y-85945000D01*
X103478667Y-85945000D01*
X103060091Y-86028260D01*
X102585423Y-86345423D01*
X102350000Y-86697758D01*
X102114577Y-86345423D01*
X101639909Y-86028260D01*
X101221333Y-85945000D01*
X100938667Y-85945000D01*
X100520091Y-86028260D01*
X100045423Y-86345423D01*
X99810000Y-86697758D01*
X99574577Y-86345423D01*
X99099909Y-86028260D01*
X98681333Y-85945000D01*
X98398667Y-85945000D01*
X97980091Y-86028260D01*
X97505423Y-86345423D01*
X97270000Y-86697758D01*
X97034577Y-86345423D01*
X96559909Y-86028260D01*
X96141333Y-85945000D01*
X95858667Y-85945000D01*
X95440091Y-86028260D01*
X94965423Y-86345423D01*
X94648260Y-86820091D01*
X94536887Y-87380000D01*
X92346466Y-87380000D01*
X92020891Y-87162458D01*
X91631485Y-87085000D01*
X91368515Y-87085000D01*
X90979109Y-87162458D01*
X90537519Y-87457519D01*
X90242458Y-87899109D01*
X90138846Y-88420000D01*
X52125002Y-88420000D01*
X52837059Y-85799200D01*
X53705447Y-83188729D01*
X54373310Y-81501899D01*
X54543767Y-81501899D01*
X54543767Y-82112559D01*
X54777457Y-82676736D01*
X55209260Y-83108539D01*
X55773437Y-83342229D01*
X56384097Y-83342229D01*
X56605191Y-83250649D01*
X56602074Y-83266321D01*
X56651357Y-83514085D01*
X56791705Y-83724130D01*
X57001749Y-83864477D01*
X58664732Y-84553308D01*
X58912497Y-84602592D01*
X59160261Y-84553309D01*
X59370306Y-84412961D01*
X59510653Y-84202917D01*
X60166319Y-82620000D01*
X80756887Y-82620000D01*
X80868260Y-83179909D01*
X81185423Y-83654577D01*
X81660091Y-83971740D01*
X82078667Y-84055000D01*
X82361333Y-84055000D01*
X82779909Y-83971740D01*
X83254577Y-83654577D01*
X83490000Y-83302242D01*
X83725423Y-83654577D01*
X84200091Y-83971740D01*
X84618667Y-84055000D01*
X84901333Y-84055000D01*
X85319909Y-83971740D01*
X85794577Y-83654577D01*
X86030000Y-83302242D01*
X86265423Y-83654577D01*
X86740091Y-83971740D01*
X87158667Y-84055000D01*
X87441333Y-84055000D01*
X87859909Y-83971740D01*
X88334577Y-83654577D01*
X88570000Y-83302242D01*
X88805423Y-83654577D01*
X89280091Y-83971740D01*
X89698667Y-84055000D01*
X89981333Y-84055000D01*
X90399909Y-83971740D01*
X90874577Y-83654577D01*
X91130947Y-83270892D01*
X91227611Y-83475134D01*
X91642577Y-83851041D01*
X92030961Y-84011904D01*
X92253000Y-83889915D01*
X92253000Y-82747000D01*
X92233000Y-82747000D01*
X92233000Y-82493000D01*
X92253000Y-82493000D01*
X92253000Y-81350085D01*
X92030961Y-81228096D01*
X91642577Y-81388959D01*
X91227611Y-81764866D01*
X91130947Y-81969108D01*
X90874577Y-81585423D01*
X90399909Y-81268260D01*
X89981333Y-81185000D01*
X89698667Y-81185000D01*
X89280091Y-81268260D01*
X88805423Y-81585423D01*
X88570000Y-81937758D01*
X88334577Y-81585423D01*
X87859909Y-81268260D01*
X87441333Y-81185000D01*
X87158667Y-81185000D01*
X86740091Y-81268260D01*
X86265423Y-81585423D01*
X86030000Y-81937758D01*
X85794577Y-81585423D01*
X85319909Y-81268260D01*
X84901333Y-81185000D01*
X84618667Y-81185000D01*
X84200091Y-81268260D01*
X83725423Y-81585423D01*
X83490000Y-81937758D01*
X83254577Y-81585423D01*
X82779909Y-81268260D01*
X82361333Y-81185000D01*
X82078667Y-81185000D01*
X81660091Y-81268260D01*
X81185423Y-81585423D01*
X80868260Y-82060091D01*
X80756887Y-82620000D01*
X60166319Y-82620000D01*
X60199484Y-82539934D01*
X60248768Y-82292169D01*
X60199485Y-82044405D01*
X60059137Y-81834360D01*
X59849093Y-81694013D01*
X58186110Y-81005182D01*
X57938345Y-80955898D01*
X57690581Y-81005181D01*
X57480536Y-81145529D01*
X57471657Y-81158817D01*
X57380077Y-80937722D01*
X56948274Y-80505919D01*
X56384097Y-80272229D01*
X55773437Y-80272229D01*
X55209260Y-80505919D01*
X54777457Y-80937722D01*
X54543767Y-81501899D01*
X54373310Y-81501899D01*
X54718202Y-80630803D01*
X55872164Y-78133399D01*
X57163736Y-75704305D01*
X58588890Y-73351096D01*
X58635611Y-73282861D01*
X58936934Y-73282861D01*
X58936934Y-73893521D01*
X59170624Y-74457698D01*
X59602427Y-74889501D01*
X60166604Y-75123191D01*
X60700531Y-75123191D01*
X60700531Y-75373957D01*
X60797204Y-75607346D01*
X60975832Y-75785975D01*
X62472477Y-76786002D01*
X62705866Y-76882675D01*
X62958485Y-76882675D01*
X63191874Y-76786002D01*
X63370503Y-76607374D01*
X64370530Y-75110729D01*
X64467203Y-74877340D01*
X64467203Y-74624721D01*
X64438503Y-74555431D01*
X72765000Y-74555431D01*
X72765000Y-75444569D01*
X73105259Y-76266026D01*
X73733974Y-76894741D01*
X74555431Y-77235000D01*
X75444569Y-77235000D01*
X76266026Y-76894741D01*
X76894741Y-76266026D01*
X77235000Y-75444569D01*
X77235000Y-75349041D01*
X80828086Y-75349041D01*
X81067611Y-75855134D01*
X81482577Y-76231041D01*
X81870961Y-76391904D01*
X82093000Y-76269915D01*
X82093000Y-75127000D01*
X80949371Y-75127000D01*
X80828086Y-75349041D01*
X77235000Y-75349041D01*
X77235000Y-74650959D01*
X80828086Y-74650959D01*
X80949371Y-74873000D01*
X82093000Y-74873000D01*
X82093000Y-74853000D01*
X82347000Y-74853000D01*
X82347000Y-74873000D01*
X82367000Y-74873000D01*
X82367000Y-75127000D01*
X82347000Y-75127000D01*
X82347000Y-76269915D01*
X82569039Y-76391904D01*
X82957423Y-76231041D01*
X83372389Y-75855134D01*
X83469053Y-75650892D01*
X83725423Y-76034577D01*
X84200091Y-76351740D01*
X84618667Y-76435000D01*
X84901333Y-76435000D01*
X85319909Y-76351740D01*
X85794577Y-76034577D01*
X86030000Y-75682242D01*
X86265423Y-76034577D01*
X86740091Y-76351740D01*
X87158667Y-76435000D01*
X87441333Y-76435000D01*
X87859909Y-76351740D01*
X88334577Y-76034577D01*
X88570000Y-75682242D01*
X88805423Y-76034577D01*
X89280091Y-76351740D01*
X89698667Y-76435000D01*
X89981333Y-76435000D01*
X90399909Y-76351740D01*
X90874577Y-76034577D01*
X91110000Y-75682242D01*
X91345423Y-76034577D01*
X91820091Y-76351740D01*
X92238667Y-76435000D01*
X92521333Y-76435000D01*
X92939909Y-76351740D01*
X93414577Y-76034577D01*
X93650000Y-75682242D01*
X93885423Y-76034577D01*
X94360091Y-76351740D01*
X94778667Y-76435000D01*
X95061333Y-76435000D01*
X95479909Y-76351740D01*
X95954577Y-76034577D01*
X96190000Y-75682242D01*
X96425423Y-76034577D01*
X96900091Y-76351740D01*
X97318667Y-76435000D01*
X97601333Y-76435000D01*
X97825001Y-76390510D01*
X97825002Y-81003420D01*
X97695847Y-81132575D01*
X97695844Y-81132577D01*
X97636438Y-81191983D01*
X97601333Y-81185000D01*
X97318667Y-81185000D01*
X96900091Y-81268260D01*
X96425423Y-81585423D01*
X96190000Y-81937758D01*
X95954577Y-81585423D01*
X95479909Y-81268260D01*
X95061333Y-81185000D01*
X94778667Y-81185000D01*
X94360091Y-81268260D01*
X93885423Y-81585423D01*
X93629053Y-81969108D01*
X93532389Y-81764866D01*
X93117423Y-81388959D01*
X92729039Y-81228096D01*
X92507000Y-81350085D01*
X92507000Y-82493000D01*
X92527000Y-82493000D01*
X92527000Y-82747000D01*
X92507000Y-82747000D01*
X92507000Y-83889915D01*
X92729039Y-84011904D01*
X93117423Y-83851041D01*
X93532389Y-83475134D01*
X93629053Y-83270892D01*
X93885423Y-83654577D01*
X94360091Y-83971740D01*
X94778667Y-84055000D01*
X95061333Y-84055000D01*
X95479909Y-83971740D01*
X95954577Y-83654577D01*
X96190000Y-83302242D01*
X96425423Y-83654577D01*
X96900091Y-83971740D01*
X97318667Y-84055000D01*
X97601333Y-84055000D01*
X98019909Y-83971740D01*
X98494577Y-83654577D01*
X98730000Y-83302242D01*
X98965423Y-83654577D01*
X99440091Y-83971740D01*
X99858667Y-84055000D01*
X100141333Y-84055000D01*
X100559909Y-83971740D01*
X101034577Y-83654577D01*
X101351740Y-83179909D01*
X101463113Y-82620000D01*
X101383548Y-82220000D01*
X115916887Y-82220000D01*
X116028260Y-82779909D01*
X116345423Y-83254577D01*
X116697758Y-83490000D01*
X116345423Y-83725423D01*
X116028260Y-84200091D01*
X115916887Y-84760000D01*
X116028260Y-85319909D01*
X116345423Y-85794577D01*
X116697758Y-86030000D01*
X116345423Y-86265423D01*
X116028260Y-86740091D01*
X115916887Y-87300000D01*
X116028260Y-87859909D01*
X116345423Y-88334577D01*
X116697758Y-88570000D01*
X116345423Y-88805423D01*
X116028260Y-89280091D01*
X115916887Y-89840000D01*
X116028260Y-90399909D01*
X116345423Y-90874577D01*
X116729108Y-91130947D01*
X116524866Y-91227611D01*
X116148959Y-91642577D01*
X115988096Y-92030961D01*
X116110085Y-92253000D01*
X117253000Y-92253000D01*
X117253000Y-92233000D01*
X117507000Y-92233000D01*
X117507000Y-92253000D01*
X118649915Y-92253000D01*
X118771904Y-92030961D01*
X118611041Y-91642577D01*
X118235134Y-91227611D01*
X118030892Y-91130947D01*
X118414577Y-90874577D01*
X118731740Y-90399909D01*
X118843113Y-89840000D01*
X118731740Y-89280091D01*
X118414577Y-88805423D01*
X118062242Y-88570000D01*
X118414577Y-88334577D01*
X118731740Y-87859909D01*
X118843113Y-87300000D01*
X118731740Y-86740091D01*
X118414577Y-86265423D01*
X118062242Y-86030000D01*
X118414577Y-85794577D01*
X118731740Y-85319909D01*
X118843113Y-84760000D01*
X118731740Y-84200091D01*
X118414577Y-83725423D01*
X118062242Y-83490000D01*
X118414577Y-83254577D01*
X118731740Y-82779909D01*
X118843113Y-82220000D01*
X118773685Y-81870961D01*
X123608096Y-81870961D01*
X123730085Y-82093000D01*
X124873000Y-82093000D01*
X124873000Y-80949371D01*
X124650959Y-80828086D01*
X124144866Y-81067611D01*
X123768959Y-81482577D01*
X123608096Y-81870961D01*
X118773685Y-81870961D01*
X118731740Y-81660091D01*
X118414577Y-81185423D01*
X117939909Y-80868260D01*
X117521333Y-80785000D01*
X117238667Y-80785000D01*
X116820091Y-80868260D01*
X116345423Y-81185423D01*
X116028260Y-81660091D01*
X115916887Y-82220000D01*
X101383548Y-82220000D01*
X101351740Y-82060091D01*
X101034577Y-81585423D01*
X100559909Y-81268260D01*
X100141333Y-81185000D01*
X99858667Y-81185000D01*
X99595001Y-81237446D01*
X99595001Y-76447440D01*
X100800000Y-76447440D01*
X101047765Y-76398157D01*
X101257809Y-76257809D01*
X101398157Y-76047765D01*
X101447440Y-75800000D01*
X101447440Y-74555431D01*
X122765000Y-74555431D01*
X122765000Y-75444569D01*
X123105259Y-76266026D01*
X123733974Y-76894741D01*
X124555431Y-77235000D01*
X125444569Y-77235000D01*
X126266026Y-76894741D01*
X126894741Y-76266026D01*
X127235000Y-75444569D01*
X127235000Y-74624721D01*
X135532796Y-74624721D01*
X135532796Y-74877340D01*
X135629469Y-75110729D01*
X136629496Y-76607374D01*
X136808125Y-76786002D01*
X137041514Y-76882675D01*
X137294133Y-76882675D01*
X137527522Y-76786002D01*
X139024167Y-75785975D01*
X139202795Y-75607346D01*
X139299468Y-75373957D01*
X139299468Y-75123191D01*
X139833395Y-75123191D01*
X140397572Y-74889501D01*
X140829375Y-74457698D01*
X141063065Y-73893521D01*
X141063065Y-73282861D01*
X140829375Y-72718684D01*
X140397572Y-72286881D01*
X139833395Y-72053191D01*
X139222735Y-72053191D01*
X138658558Y-72286881D01*
X138226755Y-72718684D01*
X138022430Y-73211968D01*
X137790750Y-73116003D01*
X137538131Y-73116003D01*
X137304742Y-73212676D01*
X135808097Y-74212703D01*
X135629469Y-74391332D01*
X135532796Y-74624721D01*
X127235000Y-74624721D01*
X127235000Y-74555431D01*
X126894741Y-73733974D01*
X126266026Y-73105259D01*
X125444569Y-72765000D01*
X124555431Y-72765000D01*
X123733974Y-73105259D01*
X123105259Y-73733974D01*
X122765000Y-74555431D01*
X101447440Y-74555431D01*
X101447440Y-74200000D01*
X101398157Y-73952235D01*
X101257809Y-73742191D01*
X101047765Y-73601843D01*
X100829539Y-73558436D01*
X101131758Y-73256217D01*
X101335000Y-72765548D01*
X101335000Y-72234452D01*
X101131758Y-71743783D01*
X100756217Y-71368242D01*
X100265548Y-71165000D01*
X99734452Y-71165000D01*
X99243783Y-71368242D01*
X98868242Y-71743783D01*
X98750000Y-72029244D01*
X98631758Y-71743783D01*
X98256217Y-71368242D01*
X97765548Y-71165000D01*
X97234452Y-71165000D01*
X96743783Y-71368242D01*
X96368242Y-71743783D01*
X96250000Y-72029244D01*
X96131758Y-71743783D01*
X95756217Y-71368242D01*
X95265548Y-71165000D01*
X94734452Y-71165000D01*
X94243783Y-71368242D01*
X93868242Y-71743783D01*
X93750000Y-72029244D01*
X93631758Y-71743783D01*
X93256217Y-71368242D01*
X92765548Y-71165000D01*
X92234452Y-71165000D01*
X91743783Y-71368242D01*
X91368242Y-71743783D01*
X91250000Y-72029244D01*
X91131758Y-71743783D01*
X90756217Y-71368242D01*
X90265548Y-71165000D01*
X89734452Y-71165000D01*
X89243783Y-71368242D01*
X88868242Y-71743783D01*
X88750000Y-72029244D01*
X88631758Y-71743783D01*
X88256217Y-71368242D01*
X87765548Y-71165000D01*
X87234452Y-71165000D01*
X86743783Y-71368242D01*
X86368242Y-71743783D01*
X86250000Y-72029244D01*
X86131758Y-71743783D01*
X85756217Y-71368242D01*
X85265548Y-71165000D01*
X84734452Y-71165000D01*
X84243783Y-71368242D01*
X83868242Y-71743783D01*
X83750000Y-72029244D01*
X83631758Y-71743783D01*
X83256217Y-71368242D01*
X82765548Y-71165000D01*
X82234452Y-71165000D01*
X81743783Y-71368242D01*
X81368242Y-71743783D01*
X81165000Y-72234452D01*
X81165000Y-72765548D01*
X81368242Y-73256217D01*
X81743783Y-73631758D01*
X81778806Y-73646265D01*
X81482577Y-73768959D01*
X81067611Y-74144866D01*
X80828086Y-74650959D01*
X77235000Y-74650959D01*
X77235000Y-74555431D01*
X76894741Y-73733974D01*
X76266026Y-73105259D01*
X75444569Y-72765000D01*
X74555431Y-72765000D01*
X73733974Y-73105259D01*
X73105259Y-73733974D01*
X72765000Y-74555431D01*
X64438503Y-74555431D01*
X64370530Y-74391332D01*
X64191902Y-74212703D01*
X62695257Y-73212676D01*
X62461868Y-73116003D01*
X62209249Y-73116003D01*
X61977569Y-73211968D01*
X61773244Y-72718684D01*
X61341441Y-72286881D01*
X60777264Y-72053191D01*
X60166604Y-72053191D01*
X59602427Y-72286881D01*
X59170624Y-72718684D01*
X58936934Y-73282861D01*
X58635611Y-73282861D01*
X60143182Y-71081111D01*
X60370640Y-70785750D01*
X111340000Y-70785750D01*
X111340000Y-71376310D01*
X111436673Y-71609699D01*
X111615302Y-71788327D01*
X111848691Y-71885000D01*
X112214250Y-71885000D01*
X112373000Y-71726250D01*
X112373000Y-70627000D01*
X111498750Y-70627000D01*
X111340000Y-70785750D01*
X60370640Y-70785750D01*
X61821764Y-68901427D01*
X63619402Y-66818844D01*
X64334041Y-66078813D01*
X64849143Y-66078813D01*
X64849143Y-66689473D01*
X65082833Y-67253650D01*
X65514636Y-67685453D01*
X66078813Y-67919143D01*
X66318122Y-67919143D01*
X66309245Y-67932429D01*
X66259962Y-68180194D01*
X66309245Y-68427959D01*
X66449593Y-68638003D01*
X67722385Y-69910795D01*
X67932429Y-70051143D01*
X68180194Y-70100426D01*
X68427959Y-70051143D01*
X68638003Y-69910795D01*
X68925108Y-69623690D01*
X111340000Y-69623690D01*
X111340000Y-70214250D01*
X111498750Y-70373000D01*
X112373000Y-70373000D01*
X112373000Y-70160755D01*
X112610000Y-70160755D01*
X112610000Y-70839246D01*
X112627000Y-70924710D01*
X112627000Y-71726250D01*
X112785750Y-71885000D01*
X113151309Y-71885000D01*
X113316016Y-71816776D01*
X113317392Y-71817695D01*
X113770000Y-71907725D01*
X114222609Y-71817695D01*
X114405001Y-71695825D01*
X114587392Y-71817695D01*
X115040000Y-71907725D01*
X115492609Y-71817695D01*
X115876313Y-71561313D01*
X116132695Y-71177608D01*
X116200000Y-70839245D01*
X116200000Y-70160754D01*
X116132695Y-69822391D01*
X115876313Y-69438687D01*
X115492608Y-69182305D01*
X115040000Y-69092275D01*
X114587391Y-69182305D01*
X114405000Y-69304175D01*
X114222608Y-69182305D01*
X113770000Y-69092275D01*
X113317391Y-69182305D01*
X113316016Y-69183224D01*
X113151309Y-69115000D01*
X112785750Y-69115000D01*
X112627000Y-69273750D01*
X112627000Y-70075291D01*
X112610000Y-70160755D01*
X112373000Y-70160755D01*
X112373000Y-69273750D01*
X112214250Y-69115000D01*
X111848691Y-69115000D01*
X111615302Y-69211673D01*
X111436673Y-69390301D01*
X111340000Y-69623690D01*
X68925108Y-69623690D01*
X69910795Y-68638003D01*
X70051143Y-68427959D01*
X70100426Y-68180194D01*
X70051143Y-67932429D01*
X69910795Y-67722385D01*
X69608410Y-67420000D01*
X81138846Y-67420000D01*
X81242458Y-67940891D01*
X81537519Y-68382481D01*
X81979109Y-68677542D01*
X82368515Y-68755000D01*
X82631485Y-68755000D01*
X83020891Y-68677542D01*
X83462481Y-68382481D01*
X83750000Y-67952178D01*
X84037519Y-68382481D01*
X84479109Y-68677542D01*
X84868515Y-68755000D01*
X85131485Y-68755000D01*
X85520891Y-68677542D01*
X85962481Y-68382481D01*
X86250000Y-67952178D01*
X86537519Y-68382481D01*
X86979109Y-68677542D01*
X87368515Y-68755000D01*
X87631485Y-68755000D01*
X88020891Y-68677542D01*
X88462481Y-68382481D01*
X88750000Y-67952178D01*
X89037519Y-68382481D01*
X89479109Y-68677542D01*
X89868515Y-68755000D01*
X90131485Y-68755000D01*
X90520891Y-68677542D01*
X90962481Y-68382481D01*
X91250000Y-67952178D01*
X91537519Y-68382481D01*
X91979109Y-68677542D01*
X92368515Y-68755000D01*
X92631485Y-68755000D01*
X93020891Y-68677542D01*
X93462481Y-68382481D01*
X93750000Y-67952178D01*
X94037519Y-68382481D01*
X94479109Y-68677542D01*
X94868515Y-68755000D01*
X95131485Y-68755000D01*
X95520891Y-68677542D01*
X95962481Y-68382481D01*
X96250000Y-67952178D01*
X96537519Y-68382481D01*
X96979109Y-68677542D01*
X97368515Y-68755000D01*
X97631485Y-68755000D01*
X98020891Y-68677542D01*
X98462481Y-68382481D01*
X98750000Y-67952178D01*
X99037519Y-68382481D01*
X99479109Y-68677542D01*
X99868515Y-68755000D01*
X100131485Y-68755000D01*
X100520891Y-68677542D01*
X100962481Y-68382481D01*
X101097644Y-68180194D01*
X129899573Y-68180194D01*
X129948856Y-68427959D01*
X130089204Y-68638003D01*
X131361996Y-69910795D01*
X131572040Y-70051143D01*
X131819805Y-70100426D01*
X132067570Y-70051143D01*
X132277614Y-69910795D01*
X133550406Y-68638003D01*
X133690754Y-68427959D01*
X133740037Y-68180194D01*
X133690754Y-67932429D01*
X133681877Y-67919143D01*
X133921186Y-67919143D01*
X134485363Y-67685453D01*
X134917166Y-67253650D01*
X135150856Y-66689473D01*
X135150856Y-66078813D01*
X134917166Y-65514636D01*
X134485363Y-65082833D01*
X133921186Y-64849143D01*
X133310526Y-64849143D01*
X132746349Y-65082833D01*
X132314546Y-65514636D01*
X132080856Y-66078813D01*
X132080856Y-66318122D01*
X132067570Y-66309245D01*
X131819805Y-66259962D01*
X131572040Y-66309245D01*
X131361996Y-66449593D01*
X130089204Y-67722385D01*
X129948856Y-67932429D01*
X129899573Y-68180194D01*
X101097644Y-68180194D01*
X101257542Y-67940891D01*
X101361154Y-67420000D01*
X101257542Y-66899109D01*
X100962481Y-66457519D01*
X100520891Y-66162458D01*
X100131485Y-66085000D01*
X99868515Y-66085000D01*
X99479109Y-66162458D01*
X99037519Y-66457519D01*
X98750000Y-66887822D01*
X98462481Y-66457519D01*
X98020891Y-66162458D01*
X97631485Y-66085000D01*
X97368515Y-66085000D01*
X96979109Y-66162458D01*
X96537519Y-66457519D01*
X96250000Y-66887822D01*
X95962481Y-66457519D01*
X95520891Y-66162458D01*
X95131485Y-66085000D01*
X94868515Y-66085000D01*
X94479109Y-66162458D01*
X94037519Y-66457519D01*
X93750000Y-66887822D01*
X93462481Y-66457519D01*
X93020891Y-66162458D01*
X92631485Y-66085000D01*
X92368515Y-66085000D01*
X91979109Y-66162458D01*
X91537519Y-66457519D01*
X91250000Y-66887822D01*
X90962481Y-66457519D01*
X90520891Y-66162458D01*
X90131485Y-66085000D01*
X89868515Y-66085000D01*
X89479109Y-66162458D01*
X89037519Y-66457519D01*
X88750000Y-66887822D01*
X88462481Y-66457519D01*
X88020891Y-66162458D01*
X87631485Y-66085000D01*
X87368515Y-66085000D01*
X86979109Y-66162458D01*
X86537519Y-66457519D01*
X86250000Y-66887822D01*
X85962481Y-66457519D01*
X85520891Y-66162458D01*
X85131485Y-66085000D01*
X84868515Y-66085000D01*
X84479109Y-66162458D01*
X84037519Y-66457519D01*
X83750000Y-66887822D01*
X83462481Y-66457519D01*
X83020891Y-66162458D01*
X82631485Y-66085000D01*
X82368515Y-66085000D01*
X81979109Y-66162458D01*
X81537519Y-66457519D01*
X81242458Y-66899109D01*
X81138846Y-67420000D01*
X69608410Y-67420000D01*
X68638003Y-66449593D01*
X68427959Y-66309245D01*
X68180194Y-66259962D01*
X67932429Y-66309245D01*
X67919143Y-66318122D01*
X67919143Y-66078813D01*
X67685453Y-65514636D01*
X67253650Y-65082833D01*
X66689473Y-64849143D01*
X66078813Y-64849143D01*
X65514636Y-65082833D01*
X65082833Y-65514636D01*
X64849143Y-66078813D01*
X64334041Y-66078813D01*
X65530490Y-64839854D01*
X67549068Y-62970631D01*
X69668841Y-61217001D01*
X71093565Y-60166604D01*
X72053191Y-60166604D01*
X72053191Y-60777264D01*
X72286881Y-61341441D01*
X72718684Y-61773244D01*
X73211968Y-61977569D01*
X73116003Y-62209249D01*
X73116003Y-62461868D01*
X73212676Y-62695257D01*
X74212703Y-64191902D01*
X74391332Y-64370530D01*
X74624721Y-64467203D01*
X74877340Y-64467203D01*
X75110729Y-64370530D01*
X76607374Y-63370503D01*
X76786002Y-63191874D01*
X76882675Y-62958485D01*
X76882675Y-62705866D01*
X123117324Y-62705866D01*
X123117324Y-62958485D01*
X123213997Y-63191874D01*
X123392625Y-63370503D01*
X124889270Y-64370530D01*
X125122659Y-64467203D01*
X125375278Y-64467203D01*
X125608667Y-64370530D01*
X125787296Y-64191902D01*
X126787323Y-62695257D01*
X126883996Y-62461868D01*
X126883996Y-62209249D01*
X126788031Y-61977569D01*
X127281315Y-61773244D01*
X127713118Y-61341441D01*
X127946808Y-60777264D01*
X127946808Y-60166604D01*
X127713118Y-59602427D01*
X127281315Y-59170624D01*
X126717138Y-58936934D01*
X126106478Y-58936934D01*
X125542301Y-59170624D01*
X125110498Y-59602427D01*
X124876808Y-60166604D01*
X124876808Y-60700531D01*
X124626042Y-60700531D01*
X124392653Y-60797204D01*
X124214024Y-60975832D01*
X123213997Y-62472477D01*
X123117324Y-62705866D01*
X76882675Y-62705866D01*
X76786002Y-62472477D01*
X75886983Y-61127000D01*
X105264999Y-61127000D01*
X105264999Y-61402000D01*
X105407609Y-61864947D01*
X105716525Y-62238080D01*
X106144718Y-62464592D01*
X106182390Y-62468462D01*
X106372999Y-62343731D01*
X106372999Y-61127000D01*
X105264999Y-61127000D01*
X75886983Y-61127000D01*
X75785975Y-60975832D01*
X75607346Y-60797204D01*
X75373957Y-60700531D01*
X75123191Y-60700531D01*
X75123191Y-60598000D01*
X105264999Y-60598000D01*
X105264999Y-60873000D01*
X106372999Y-60873000D01*
X106372999Y-59656269D01*
X106626999Y-59656269D01*
X106626999Y-60873000D01*
X106646999Y-60873000D01*
X106646999Y-61127000D01*
X106626999Y-61127000D01*
X106626999Y-62343731D01*
X106817608Y-62468462D01*
X106855280Y-62464592D01*
X107283473Y-62238080D01*
X107403872Y-62092652D01*
X107515414Y-62259586D01*
X107806564Y-62454127D01*
X108149999Y-62522440D01*
X108850001Y-62522440D01*
X109193436Y-62454127D01*
X109484586Y-62259586D01*
X109679127Y-61968436D01*
X109747440Y-61625001D01*
X109747440Y-60374999D01*
X109679127Y-60031564D01*
X109484586Y-59740414D01*
X109193436Y-59545873D01*
X108850001Y-59477560D01*
X108149999Y-59477560D01*
X107806564Y-59545873D01*
X107515414Y-59740414D01*
X107403872Y-59907348D01*
X107283473Y-59761920D01*
X106855280Y-59535408D01*
X106817608Y-59531538D01*
X106626999Y-59656269D01*
X106372999Y-59656269D01*
X106182390Y-59531538D01*
X106144718Y-59535408D01*
X105716525Y-59761920D01*
X105407609Y-60135053D01*
X105264999Y-60598000D01*
X75123191Y-60598000D01*
X75123191Y-60166604D01*
X74889501Y-59602427D01*
X74457698Y-59170624D01*
X73893521Y-58936934D01*
X73282861Y-58936934D01*
X72718684Y-59170624D01*
X72286881Y-59602427D01*
X72053191Y-60166604D01*
X71093565Y-60166604D01*
X71883200Y-59584435D01*
X74185238Y-58078024D01*
X76567777Y-56702464D01*
X78406937Y-55773437D01*
X80272229Y-55773437D01*
X80272229Y-56384097D01*
X80505919Y-56948274D01*
X80937722Y-57380077D01*
X81158817Y-57471657D01*
X81145529Y-57480536D01*
X81005181Y-57690581D01*
X80955898Y-57938345D01*
X81005182Y-58186110D01*
X81694013Y-59849093D01*
X81834360Y-60059137D01*
X82044405Y-60199485D01*
X82292169Y-60248768D01*
X82539934Y-60199484D01*
X84202917Y-59510653D01*
X84412961Y-59370306D01*
X84553309Y-59160261D01*
X84602592Y-58912497D01*
X115397407Y-58912497D01*
X115446690Y-59160261D01*
X115587038Y-59370306D01*
X115797082Y-59510653D01*
X117460065Y-60199484D01*
X117707830Y-60248768D01*
X117955594Y-60199485D01*
X118165639Y-60059137D01*
X118305986Y-59849093D01*
X118994817Y-58186110D01*
X119044101Y-57938345D01*
X118994818Y-57690581D01*
X118854470Y-57480536D01*
X118841182Y-57471657D01*
X119062277Y-57380077D01*
X119494080Y-56948274D01*
X119727770Y-56384097D01*
X119727770Y-55773437D01*
X119494080Y-55209260D01*
X119062277Y-54777457D01*
X118498100Y-54543767D01*
X117887440Y-54543767D01*
X117323263Y-54777457D01*
X116891460Y-55209260D01*
X116657770Y-55773437D01*
X116657770Y-56384097D01*
X116749350Y-56605191D01*
X116733678Y-56602074D01*
X116485914Y-56651357D01*
X116275869Y-56791705D01*
X116135522Y-57001749D01*
X115446691Y-58664732D01*
X115397407Y-58912497D01*
X84602592Y-58912497D01*
X84553308Y-58664732D01*
X83864477Y-57001749D01*
X83724130Y-56791705D01*
X83514085Y-56651357D01*
X83266321Y-56602074D01*
X83250649Y-56605191D01*
X83342229Y-56384097D01*
X83342229Y-55773437D01*
X83108539Y-55209260D01*
X82676736Y-54777457D01*
X82112559Y-54543767D01*
X81501899Y-54543767D01*
X80937722Y-54777457D01*
X80505919Y-55209260D01*
X80272229Y-55773437D01*
X78406937Y-55773437D01*
X79023387Y-55462046D01*
X81544410Y-54360638D01*
X84122985Y-53401675D01*
X85200472Y-53068137D01*
X89190406Y-53068137D01*
X89190406Y-53678797D01*
X89424096Y-54242974D01*
X89801640Y-54620518D01*
X89624320Y-54797839D01*
X89527647Y-55031228D01*
X89527647Y-55283846D01*
X89878810Y-57049259D01*
X89975483Y-57282649D01*
X90154112Y-57461277D01*
X90387501Y-57557950D01*
X90640119Y-57557950D01*
X92405532Y-57206787D01*
X92638922Y-57110114D01*
X92817550Y-56931485D01*
X92914223Y-56698096D01*
X92914223Y-56445478D01*
X92563060Y-54680065D01*
X92466387Y-54446675D01*
X92287758Y-54268047D01*
X92056080Y-54172083D01*
X92085937Y-54100000D01*
X98452560Y-54100000D01*
X98452560Y-55900000D01*
X98501843Y-56147765D01*
X98642191Y-56357809D01*
X98852235Y-56498157D01*
X99100000Y-56547440D01*
X100900000Y-56547440D01*
X101147765Y-56498157D01*
X101226604Y-56445478D01*
X107085776Y-56445478D01*
X107085776Y-56698096D01*
X107182449Y-56931485D01*
X107361077Y-57110114D01*
X107594467Y-57206787D01*
X109359880Y-57557950D01*
X109612498Y-57557950D01*
X109845887Y-57461277D01*
X110024516Y-57282649D01*
X110121189Y-57049259D01*
X110472352Y-55283846D01*
X110472352Y-55031228D01*
X110375679Y-54797839D01*
X110198359Y-54620518D01*
X110575903Y-54242974D01*
X110809593Y-53678797D01*
X110809593Y-53068137D01*
X110575903Y-52503960D01*
X110144100Y-52072157D01*
X109579923Y-51838467D01*
X108969263Y-51838467D01*
X108405086Y-52072157D01*
X107973283Y-52503960D01*
X107739593Y-53068137D01*
X107739593Y-53678797D01*
X107943919Y-54172083D01*
X107712241Y-54268047D01*
X107533612Y-54446675D01*
X107436939Y-54680065D01*
X107085776Y-56445478D01*
X101226604Y-56445478D01*
X101357809Y-56357809D01*
X101498157Y-56147765D01*
X101547440Y-55900000D01*
X101547440Y-54100000D01*
X101498157Y-53852235D01*
X101357809Y-53642191D01*
X101147765Y-53501843D01*
X101132092Y-53498725D01*
X101301310Y-53329507D01*
X101535000Y-52765330D01*
X101535000Y-52154670D01*
X101301310Y-51590493D01*
X100869507Y-51158690D01*
X100305330Y-50925000D01*
X99694670Y-50925000D01*
X99130493Y-51158690D01*
X98698690Y-51590493D01*
X98465000Y-52154670D01*
X98465000Y-52765330D01*
X98698690Y-53329507D01*
X98867908Y-53498725D01*
X98852235Y-53501843D01*
X98642191Y-53642191D01*
X98501843Y-53852235D01*
X98452560Y-54100000D01*
X92085937Y-54100000D01*
X92260406Y-53678797D01*
X92260406Y-53068137D01*
X92026716Y-52503960D01*
X91594913Y-52072157D01*
X91030736Y-51838467D01*
X90420076Y-51838467D01*
X89855899Y-52072157D01*
X89424096Y-52503960D01*
X89190406Y-53068137D01*
X85200472Y-53068137D01*
X86751069Y-52588147D01*
X89420468Y-51922591D01*
X92122857Y-51407083D01*
X94849809Y-51043230D01*
X97592820Y-50832167D01*
X100343336Y-50774552D01*
X103092779Y-50870564D01*
G04 #@! TD*
M02*
