G04 #@! TF.GenerationSoftware,KiCad,Pcbnew,(5.0.2)-1*
G04 #@! TF.CreationDate,2020-02-12T22:05:28+00:00*
G04 #@! TF.ProjectId,teatime,74656174-696d-4652-9e6b-696361645f70,rev?*
G04 #@! TF.SameCoordinates,Original*
G04 #@! TF.FileFunction,Legend,Bot*
G04 #@! TF.FilePolarity,Positive*
%FSLAX46Y46*%
G04 Gerber Fmt 4.6, Leading zero omitted, Abs format (unit mm)*
G04 Created by KiCad (PCBNEW (5.0.2)-1) date 12/02/2020 22:05:28*
%MOMM*%
%LPD*%
G01*
G04 APERTURE LIST*
%ADD10C,0.120000*%
%ADD11C,0.150000*%
G04 APERTURE END LIST*
D10*
G04 #@! TO.C,BT1*
X109360000Y-61140000D02*
X109640000Y-61140000D01*
X109640000Y-61140000D02*
X109640000Y-59540000D01*
X109640000Y-59540000D02*
X110560000Y-59540000D01*
X110560000Y-59540000D02*
X110560000Y-67360000D01*
X110560000Y-67360000D02*
X104440000Y-67360000D01*
X104440000Y-67360000D02*
X104440000Y-59540000D01*
X104440000Y-59540000D02*
X105360000Y-59540000D01*
X105360000Y-59540000D02*
X105360000Y-61140000D01*
X105360000Y-61140000D02*
X105640000Y-61140000D01*
X108000000Y-67360000D02*
X108000000Y-63000000D01*
X108000000Y-63000000D02*
X107000000Y-63000000D01*
X107000000Y-63000000D02*
X107000000Y-67360000D01*
X110560000Y-61140000D02*
X109640000Y-61140000D01*
X104440000Y-61140000D02*
X105360000Y-61140000D01*
X109800000Y-63500000D02*
X109800000Y-65100000D01*
X109800000Y-65100000D02*
X108800000Y-65100000D01*
X108800000Y-65100000D02*
X108800000Y-63500000D01*
X108800000Y-63500000D02*
X109800000Y-63500000D01*
X105200000Y-63500000D02*
X105200000Y-65100000D01*
X105200000Y-65100000D02*
X106200000Y-65100000D01*
X106200000Y-65100000D02*
X106200000Y-63500000D01*
X106200000Y-63500000D02*
X105200000Y-63500000D01*
X108800000Y-65100000D02*
X108800000Y-67360000D01*
X109300000Y-65100000D02*
X109300000Y-67360000D01*
X109360000Y-61140000D02*
X109360000Y-59925000D01*
D11*
X108285714Y-58378571D02*
X108142857Y-58426190D01*
X108095238Y-58473809D01*
X108047619Y-58569047D01*
X108047619Y-58711904D01*
X108095238Y-58807142D01*
X108142857Y-58854761D01*
X108238095Y-58902380D01*
X108619047Y-58902380D01*
X108619047Y-57902380D01*
X108285714Y-57902380D01*
X108190476Y-57950000D01*
X108142857Y-57997619D01*
X108095238Y-58092857D01*
X108095238Y-58188095D01*
X108142857Y-58283333D01*
X108190476Y-58330952D01*
X108285714Y-58378571D01*
X108619047Y-58378571D01*
X107761904Y-57902380D02*
X107190476Y-57902380D01*
X107476190Y-58902380D02*
X107476190Y-57902380D01*
X106333333Y-58902380D02*
X106904761Y-58902380D01*
X106619047Y-58902380D02*
X106619047Y-57902380D01*
X106714285Y-58045238D01*
X106809523Y-58140476D01*
X106904761Y-58188095D01*
G04 #@! TD*
M02*
