G04 #@! TF.GenerationSoftware,KiCad,Pcbnew,(5.0.2)-1*
G04 #@! TF.CreationDate,2020-02-15T12:45:26+00:00*
G04 #@! TF.ProjectId,teatime,74656174-696d-4652-9e6b-696361645f70,rev?*
G04 #@! TF.SameCoordinates,Original*
G04 #@! TF.FileFunction,Copper,L1,Top*
G04 #@! TF.FilePolarity,Positive*
%FSLAX46Y46*%
G04 Gerber Fmt 4.6, Leading zero omitted, Abs format (unit mm)*
G04 Created by KiCad (PCBNEW (5.0.2)-1) date 15/02/2020 12:45:26*
%MOMM*%
%LPD*%
G01*
G04 APERTURE LIST*
G04 #@! TA.AperFunction,ComponentPad*
%ADD10C,1.600000*%
G04 #@! TD*
G04 #@! TA.AperFunction,ComponentPad*
%ADD11C,1.400000*%
G04 #@! TD*
G04 #@! TA.AperFunction,ComponentPad*
%ADD12C,2.000000*%
G04 #@! TD*
G04 #@! TA.AperFunction,ComponentPad*
%ADD13O,1.400000X1.400000*%
G04 #@! TD*
G04 #@! TA.AperFunction,ComponentPad*
%ADD14R,1.500000X1.050000*%
G04 #@! TD*
G04 #@! TA.AperFunction,ComponentPad*
%ADD15O,1.500000X1.050000*%
G04 #@! TD*
G04 #@! TA.AperFunction,ComponentPad*
%ADD16O,1.600000X1.600000*%
G04 #@! TD*
G04 #@! TA.AperFunction,ComponentPad*
%ADD17R,1.600000X1.600000*%
G04 #@! TD*
G04 #@! TA.AperFunction,Conductor*
%ADD18C,0.100000*%
G04 #@! TD*
G04 #@! TA.AperFunction,ComponentPad*
%ADD19C,1.200000*%
G04 #@! TD*
G04 #@! TA.AperFunction,ComponentPad*
%ADD20O,1.750000X1.200000*%
G04 #@! TD*
G04 #@! TA.AperFunction,ComponentPad*
%ADD21C,1.800000*%
G04 #@! TD*
G04 #@! TA.AperFunction,ComponentPad*
%ADD22R,1.800000X1.800000*%
G04 #@! TD*
G04 #@! TA.AperFunction,Conductor*
%ADD23C,0.500000*%
G04 #@! TD*
G04 #@! TA.AperFunction,Conductor*
%ADD24C,1.000000*%
G04 #@! TD*
G04 APERTURE END LIST*
D10*
G04 #@! TO.P,C3,1*
G04 #@! TO.N,+3V3*
X107000000Y-70250000D03*
G04 #@! TO.P,C3,2*
G04 #@! TO.N,GND*
X107000000Y-67750000D03*
G04 #@! TD*
G04 #@! TO.P,C4,2*
G04 #@! TO.N,GND*
X103500000Y-80000000D03*
G04 #@! TO.P,C4,1*
G04 #@! TO.N,+3V3*
X103500000Y-82500000D03*
G04 #@! TD*
G04 #@! TO.P,C5,1*
G04 #@! TO.N,+3V3*
X82400000Y-96250000D03*
G04 #@! TO.P,C5,2*
G04 #@! TO.N,GND*
X79900000Y-96250000D03*
G04 #@! TD*
G04 #@! TO.P,C6,2*
G04 #@! TO.N,GND*
X96250000Y-120100000D03*
G04 #@! TO.P,C6,1*
G04 #@! TO.N,+3V3*
X96250000Y-117600000D03*
G04 #@! TD*
G04 #@! TO.P,C7,1*
G04 #@! TO.N,+3V3*
X117600000Y-103750000D03*
G04 #@! TO.P,C7,2*
G04 #@! TO.N,GND*
X120100000Y-103750000D03*
G04 #@! TD*
D11*
G04 #@! TO.P,C1,2*
G04 #@! TO.N,GND*
X134000000Y-113750000D03*
G04 #@! TO.P,C1,1*
G04 #@! TO.N,Net-(BT1-Pad1)*
X131500000Y-113750000D03*
G04 #@! TD*
G04 #@! TO.P,C2,1*
G04 #@! TO.N,+3V3*
X125000000Y-113750000D03*
G04 #@! TO.P,C2,2*
G04 #@! TO.N,GND*
X127500000Y-113750000D03*
G04 #@! TD*
D12*
G04 #@! TO.P,SW1,2*
G04 #@! TO.N,GND*
X106250000Y-102500000D03*
X93750000Y-102500000D03*
G04 #@! TO.P,SW1,1*
G04 #@! TO.N,Net-(R33-Pad1)*
X93750000Y-97500000D03*
X106250000Y-97500000D03*
G04 #@! TD*
D11*
G04 #@! TO.P,R22,1*
G04 #@! TO.N,Net-(R22-Pad1)*
X112700000Y-127500000D03*
D13*
G04 #@! TO.P,R22,2*
G04 #@! TO.N,Net-(D22-Pad1)*
X112700000Y-135120000D03*
G04 #@! TD*
G04 #@! TO.P,R24,2*
G04 #@! TO.N,Net-(D24-Pad1)*
X117780000Y-135120000D03*
D11*
G04 #@! TO.P,R24,1*
G04 #@! TO.N,Net-(R24-Pad1)*
X117780000Y-127500000D03*
G04 #@! TD*
G04 #@! TO.P,R25,1*
G04 #@! TO.N,Net-(R25-Pad1)*
X127500000Y-100000000D03*
D13*
G04 #@! TO.P,R25,2*
G04 #@! TO.N,Net-(D25-Pad1)*
X135120000Y-100000000D03*
G04 #@! TD*
G04 #@! TO.P,R26,2*
G04 #@! TO.N,Net-(D26-Pad1)*
X135120000Y-97460000D03*
D11*
G04 #@! TO.P,R26,1*
G04 #@! TO.N,Net-(R26-Pad1)*
X127500000Y-97460000D03*
G04 #@! TD*
G04 #@! TO.P,R27,1*
G04 #@! TO.N,Net-(R27-Pad1)*
X127500000Y-94920000D03*
D13*
G04 #@! TO.P,R27,2*
G04 #@! TO.N,Net-(D27-Pad1)*
X135120000Y-94920000D03*
G04 #@! TD*
G04 #@! TO.P,R28,2*
G04 #@! TO.N,Net-(D28-Pad1)*
X135120000Y-92380000D03*
D11*
G04 #@! TO.P,R28,1*
G04 #@! TO.N,Net-(R28-Pad1)*
X127500000Y-92380000D03*
G04 #@! TD*
G04 #@! TO.P,R29,1*
G04 #@! TO.N,Net-(R29-Pad1)*
X127500000Y-89840000D03*
D13*
G04 #@! TO.P,R29,2*
G04 #@! TO.N,Net-(D29-Pad1)*
X135120000Y-89840000D03*
G04 #@! TD*
G04 #@! TO.P,R30,2*
G04 #@! TO.N,Net-(D30-Pad1)*
X135120000Y-87300000D03*
D11*
G04 #@! TO.P,R30,1*
G04 #@! TO.N,Net-(R30-Pad1)*
X127500000Y-87300000D03*
G04 #@! TD*
G04 #@! TO.P,R31,1*
G04 #@! TO.N,Net-(R31-Pad1)*
X127500000Y-84760000D03*
D13*
G04 #@! TO.P,R31,2*
G04 #@! TO.N,Net-(D31-Pad1)*
X135120000Y-84760000D03*
G04 #@! TD*
G04 #@! TO.P,R32,2*
G04 #@! TO.N,Net-(D32-Pad1)*
X135120000Y-82220000D03*
D11*
G04 #@! TO.P,R32,1*
G04 #@! TO.N,Net-(R32-Pad1)*
X127500000Y-82220000D03*
G04 #@! TD*
G04 #@! TO.P,R17,1*
G04 #@! TO.N,Net-(R17-Pad1)*
X100000000Y-127500000D03*
D13*
G04 #@! TO.P,R17,2*
G04 #@! TO.N,Net-(D17-Pad1)*
X100000000Y-135120000D03*
G04 #@! TD*
G04 #@! TO.P,R4,2*
G04 #@! TO.N,Net-(D4-Pad1)*
X92380000Y-64880000D03*
D11*
G04 #@! TO.P,R4,1*
G04 #@! TO.N,Net-(R4-Pad1)*
X92380000Y-72500000D03*
G04 #@! TD*
G04 #@! TO.P,R2,1*
G04 #@! TO.N,Net-(R2-Pad1)*
X97460000Y-72500000D03*
D13*
G04 #@! TO.P,R2,2*
G04 #@! TO.N,Net-(D2-Pad1)*
X97460000Y-64880000D03*
G04 #@! TD*
G04 #@! TO.P,R1,2*
G04 #@! TO.N,Net-(D1-Pad1)*
X100000000Y-64880000D03*
D11*
G04 #@! TO.P,R1,1*
G04 #@! TO.N,Net-(R1-Pad1)*
X100000000Y-72500000D03*
G04 #@! TD*
G04 #@! TO.P,R3,1*
G04 #@! TO.N,Net-(R3-Pad1)*
X94920000Y-72500000D03*
D13*
G04 #@! TO.P,R3,2*
G04 #@! TO.N,Net-(D3-Pad1)*
X94920000Y-64880000D03*
G04 #@! TD*
G04 #@! TO.P,R23,2*
G04 #@! TO.N,Net-(D23-Pad1)*
X115240000Y-135120000D03*
D11*
G04 #@! TO.P,R23,1*
G04 #@! TO.N,Net-(R23-Pad1)*
X115240000Y-127500000D03*
G04 #@! TD*
G04 #@! TO.P,R33,1*
G04 #@! TO.N,Net-(R33-Pad1)*
X106250000Y-87500000D03*
D13*
G04 #@! TO.P,R33,2*
G04 #@! TO.N,+3V3*
X113870000Y-87500000D03*
G04 #@! TD*
G04 #@! TO.P,R7,2*
G04 #@! TO.N,Net-(D7-Pad1)*
X84760000Y-64880000D03*
D11*
G04 #@! TO.P,R7,1*
G04 #@! TO.N,Net-(R7-Pad1)*
X84760000Y-72500000D03*
G04 #@! TD*
G04 #@! TO.P,R8,1*
G04 #@! TO.N,Net-(R8-Pad1)*
X82220000Y-72500000D03*
D13*
G04 #@! TO.P,R8,2*
G04 #@! TO.N,Net-(D8-Pad1)*
X82220000Y-64880000D03*
G04 #@! TD*
G04 #@! TO.P,R9,2*
G04 #@! TO.N,Net-(D9-Pad1)*
X64880000Y-100000000D03*
D11*
G04 #@! TO.P,R9,1*
G04 #@! TO.N,Net-(R9-Pad1)*
X72500000Y-100000000D03*
G04 #@! TD*
G04 #@! TO.P,R10,1*
G04 #@! TO.N,Net-(R10-Pad1)*
X72500000Y-102540000D03*
D13*
G04 #@! TO.P,R10,2*
G04 #@! TO.N,Net-(D10-Pad1)*
X64880000Y-102540000D03*
G04 #@! TD*
G04 #@! TO.P,R11,2*
G04 #@! TO.N,Net-(D11-Pad1)*
X64880000Y-105080000D03*
D11*
G04 #@! TO.P,R11,1*
G04 #@! TO.N,Net-(R11-Pad1)*
X72500000Y-105080000D03*
G04 #@! TD*
G04 #@! TO.P,R12,1*
G04 #@! TO.N,Net-(R12-Pad1)*
X72500000Y-107620000D03*
D13*
G04 #@! TO.P,R12,2*
G04 #@! TO.N,Net-(D12-Pad1)*
X64880000Y-107620000D03*
G04 #@! TD*
G04 #@! TO.P,R13,2*
G04 #@! TO.N,Net-(D13-Pad1)*
X64880000Y-110160000D03*
D11*
G04 #@! TO.P,R13,1*
G04 #@! TO.N,Net-(R13-Pad1)*
X72500000Y-110160000D03*
G04 #@! TD*
G04 #@! TO.P,R14,1*
G04 #@! TO.N,Net-(R14-Pad1)*
X72500000Y-112700000D03*
D13*
G04 #@! TO.P,R14,2*
G04 #@! TO.N,Net-(D14-Pad1)*
X64880000Y-112700000D03*
G04 #@! TD*
G04 #@! TO.P,R15,2*
G04 #@! TO.N,Net-(D15-Pad1)*
X64880000Y-115240000D03*
D11*
G04 #@! TO.P,R15,1*
G04 #@! TO.N,Net-(R15-Pad1)*
X72500000Y-115240000D03*
G04 #@! TD*
G04 #@! TO.P,R16,1*
G04 #@! TO.N,Net-(R16-Pad1)*
X72500000Y-117780000D03*
D13*
G04 #@! TO.P,R16,2*
G04 #@! TO.N,Net-(D16-Pad1)*
X64880000Y-117780000D03*
G04 #@! TD*
G04 #@! TO.P,R6,2*
G04 #@! TO.N,Net-(D6-Pad1)*
X87300000Y-64880000D03*
D11*
G04 #@! TO.P,R6,1*
G04 #@! TO.N,Net-(R6-Pad1)*
X87300000Y-72500000D03*
G04 #@! TD*
G04 #@! TO.P,R18,1*
G04 #@! TO.N,Net-(R18-Pad1)*
X102540000Y-127500000D03*
D13*
G04 #@! TO.P,R18,2*
G04 #@! TO.N,Net-(D18-Pad1)*
X102540000Y-135120000D03*
G04 #@! TD*
G04 #@! TO.P,R20,2*
G04 #@! TO.N,Net-(D20-Pad1)*
X107620000Y-135120000D03*
D11*
G04 #@! TO.P,R20,1*
G04 #@! TO.N,Net-(R20-Pad1)*
X107620000Y-127500000D03*
G04 #@! TD*
G04 #@! TO.P,R5,1*
G04 #@! TO.N,Net-(R5-Pad1)*
X89840000Y-72500000D03*
D13*
G04 #@! TO.P,R5,2*
G04 #@! TO.N,Net-(D5-Pad1)*
X89840000Y-64880000D03*
G04 #@! TD*
G04 #@! TO.P,R19,2*
G04 #@! TO.N,Net-(D19-Pad1)*
X105080000Y-135120000D03*
D11*
G04 #@! TO.P,R19,1*
G04 #@! TO.N,Net-(R19-Pad1)*
X105080000Y-127500000D03*
G04 #@! TD*
G04 #@! TO.P,R21,1*
G04 #@! TO.N,Net-(R21-Pad1)*
X110160000Y-127500000D03*
D13*
G04 #@! TO.P,R21,2*
G04 #@! TO.N,Net-(D21-Pad1)*
X110160000Y-135120000D03*
G04 #@! TD*
D14*
G04 #@! TO.P,U1,1*
G04 #@! TO.N,GND*
X121000000Y-110000000D03*
D15*
G04 #@! TO.P,U1,3*
G04 #@! TO.N,+3V3*
X121000000Y-112540000D03*
G04 #@! TO.P,U1,2*
G04 #@! TO.N,Net-(BT1-Pad1)*
X121000000Y-111270000D03*
G04 #@! TD*
D16*
G04 #@! TO.P,U6,8*
G04 #@! TO.N,+3V3*
X111000000Y-70380000D03*
G04 #@! TO.P,U6,4*
G04 #@! TO.N,GND*
X118620000Y-78000000D03*
G04 #@! TO.P,U6,7*
G04 #@! TO.N,Net-(U2-Pad14)*
X113540000Y-70380000D03*
G04 #@! TO.P,U6,3*
G04 #@! TO.N,Net-(U6-Pad3)*
X116080000Y-78000000D03*
G04 #@! TO.P,U6,6*
G04 #@! TO.N,Net-(U2-Pad11)*
X116080000Y-70380000D03*
G04 #@! TO.P,U6,2*
G04 #@! TO.N,Net-(U6-Pad2)*
X113540000Y-78000000D03*
G04 #@! TO.P,U6,5*
G04 #@! TO.N,Net-(U2-Pad12)*
X118620000Y-70380000D03*
D17*
G04 #@! TO.P,U6,1*
G04 #@! TO.N,Net-(R33-Pad1)*
X111000000Y-78000000D03*
G04 #@! TD*
D18*
G04 #@! TO.N,Net-(BT1-Pad1)*
G04 #@! TO.C,BT1*
G36*
X138649505Y-106401204D02*
X138673773Y-106404804D01*
X138697572Y-106410765D01*
X138720671Y-106419030D01*
X138742850Y-106429520D01*
X138763893Y-106442132D01*
X138783599Y-106456747D01*
X138801777Y-106473223D01*
X138818253Y-106491401D01*
X138832868Y-106511107D01*
X138845480Y-106532150D01*
X138855970Y-106554329D01*
X138864235Y-106577428D01*
X138870196Y-106601227D01*
X138873796Y-106625495D01*
X138875000Y-106649999D01*
X138875000Y-107350001D01*
X138873796Y-107374505D01*
X138870196Y-107398773D01*
X138864235Y-107422572D01*
X138855970Y-107445671D01*
X138845480Y-107467850D01*
X138832868Y-107488893D01*
X138818253Y-107508599D01*
X138801777Y-107526777D01*
X138783599Y-107543253D01*
X138763893Y-107557868D01*
X138742850Y-107570480D01*
X138720671Y-107580970D01*
X138697572Y-107589235D01*
X138673773Y-107595196D01*
X138649505Y-107598796D01*
X138625001Y-107600000D01*
X137374999Y-107600000D01*
X137350495Y-107598796D01*
X137326227Y-107595196D01*
X137302428Y-107589235D01*
X137279329Y-107580970D01*
X137257150Y-107570480D01*
X137236107Y-107557868D01*
X137216401Y-107543253D01*
X137198223Y-107526777D01*
X137181747Y-107508599D01*
X137167132Y-107488893D01*
X137154520Y-107467850D01*
X137144030Y-107445671D01*
X137135765Y-107422572D01*
X137129804Y-107398773D01*
X137126204Y-107374505D01*
X137125000Y-107350001D01*
X137125000Y-106649999D01*
X137126204Y-106625495D01*
X137129804Y-106601227D01*
X137135765Y-106577428D01*
X137144030Y-106554329D01*
X137154520Y-106532150D01*
X137167132Y-106511107D01*
X137181747Y-106491401D01*
X137198223Y-106473223D01*
X137216401Y-106456747D01*
X137236107Y-106442132D01*
X137257150Y-106429520D01*
X137279329Y-106419030D01*
X137302428Y-106410765D01*
X137326227Y-106404804D01*
X137350495Y-106401204D01*
X137374999Y-106400000D01*
X138625001Y-106400000D01*
X138649505Y-106401204D01*
X138649505Y-106401204D01*
G37*
D19*
G04 #@! TD*
G04 #@! TO.P,BT1,1*
G04 #@! TO.N,Net-(BT1-Pad1)*
X138000000Y-107000000D03*
D20*
G04 #@! TO.P,BT1,2*
G04 #@! TO.N,GND*
X138000000Y-104999999D03*
G04 #@! TD*
D21*
G04 #@! TO.P,D17,2*
G04 #@! TO.N,+3V3*
X100000000Y-147540000D03*
D22*
G04 #@! TO.P,D17,1*
G04 #@! TO.N,Net-(D17-Pad1)*
X100000000Y-145000000D03*
G04 #@! TD*
D21*
G04 #@! TO.P,D30,1*
G04 #@! TO.N,Net-(D30-Pad1)*
X125000660Y-62583867D03*
D18*
G04 #@! TD*
G04 #@! TO.N,Net-(D30-Pad1)*
G04 #@! TO.C,D30*
G36*
X125248969Y-63832203D02*
X123752324Y-62832176D01*
X124752351Y-61335531D01*
X126248996Y-62335558D01*
X125248969Y-63832203D01*
X125248969Y-63832203D01*
G37*
D21*
G04 #@! TO.P,D30,2*
G04 #@! TO.N,+3V3*
X126411808Y-60471934D03*
G04 #@! TD*
G04 #@! TO.P,D29,2*
G04 #@! TO.N,+3V3*
X133615856Y-66384143D03*
G04 #@! TO.P,D29,1*
G04 #@! TO.N,Net-(D29-Pad1)*
X131819805Y-68180194D03*
D18*
G04 #@! TD*
G04 #@! TO.N,Net-(D29-Pad1)*
G04 #@! TO.C,D29*
G36*
X131819805Y-69452986D02*
X130547013Y-68180194D01*
X131819805Y-66907402D01*
X133092597Y-68180194D01*
X131819805Y-69452986D01*
X131819805Y-69452986D01*
G37*
D21*
G04 #@! TO.P,D28,1*
G04 #@! TO.N,Net-(D28-Pad1)*
X137416132Y-74999339D03*
D18*
G04 #@! TD*
G04 #@! TO.N,Net-(D28-Pad1)*
G04 #@! TO.C,D28*
G36*
X137167823Y-76247675D02*
X136167796Y-74751030D01*
X137664441Y-73751003D01*
X138664468Y-75247648D01*
X137167823Y-76247675D01*
X137167823Y-76247675D01*
G37*
D21*
G04 #@! TO.P,D28,2*
G04 #@! TO.N,+3V3*
X139528065Y-73588191D03*
G04 #@! TD*
G04 #@! TO.P,D27,2*
G04 #@! TO.N,+3V3*
X143921232Y-81807229D03*
G04 #@! TO.P,D27,1*
G04 #@! TO.N,Net-(D27-Pad1)*
X141574578Y-82779245D03*
D18*
G04 #@! TD*
G04 #@! TO.N,Net-(D27-Pad1)*
G04 #@! TO.C,D27*
G36*
X141087502Y-83955152D02*
X140398671Y-82292169D01*
X142061654Y-81603338D01*
X142750485Y-83266321D01*
X141087502Y-83955152D01*
X141087502Y-83955152D01*
G37*
D21*
G04 #@! TO.P,D26,1*
G04 #@! TO.N,Net-(D26-Pad1)*
X144135337Y-91220935D03*
D18*
G04 #@! TD*
G04 #@! TO.N,Net-(D26-Pad1)*
G04 #@! TO.C,D26*
G36*
X143428212Y-92279223D02*
X143077049Y-90513810D01*
X144842462Y-90162647D01*
X145193625Y-91928060D01*
X143428212Y-92279223D01*
X143428212Y-92279223D01*
G37*
D21*
G04 #@! TO.P,D26,2*
G04 #@! TO.N,+3V3*
X146626532Y-90725406D03*
G04 #@! TD*
G04 #@! TO.P,D25,2*
G04 #@! TO.N,+3V3*
X147540000Y-100000000D03*
D22*
G04 #@! TO.P,D25,1*
G04 #@! TO.N,Net-(D25-Pad1)*
X145000000Y-100000000D03*
G04 #@! TD*
D21*
G04 #@! TO.P,D24,1*
G04 #@! TO.N,Net-(D24-Pad1)*
X144135337Y-108779064D03*
D18*
G04 #@! TD*
G04 #@! TO.N,Net-(D24-Pad1)*
G04 #@! TO.C,D24*
G36*
X143077049Y-109486189D02*
X143428212Y-107720776D01*
X145193625Y-108071939D01*
X144842462Y-109837352D01*
X143077049Y-109486189D01*
X143077049Y-109486189D01*
G37*
D21*
G04 #@! TO.P,D24,2*
G04 #@! TO.N,+3V3*
X146626532Y-109274593D03*
G04 #@! TD*
G04 #@! TO.P,D23,2*
G04 #@! TO.N,+3V3*
X143921232Y-118192770D03*
G04 #@! TO.P,D23,1*
G04 #@! TO.N,Net-(D23-Pad1)*
X141574578Y-117220754D03*
D18*
G04 #@! TD*
G04 #@! TO.N,Net-(D23-Pad1)*
G04 #@! TO.C,D23*
G36*
X140398671Y-117707830D02*
X141087502Y-116044847D01*
X142750485Y-116733678D01*
X142061654Y-118396661D01*
X140398671Y-117707830D01*
X140398671Y-117707830D01*
G37*
D21*
G04 #@! TO.P,D22,1*
G04 #@! TO.N,Net-(D22-Pad1)*
X137416132Y-125000660D03*
D18*
G04 #@! TD*
G04 #@! TO.N,Net-(D22-Pad1)*
G04 #@! TO.C,D22*
G36*
X136167796Y-125248969D02*
X137167823Y-123752324D01*
X138664468Y-124752351D01*
X137664441Y-126248996D01*
X136167796Y-125248969D01*
X136167796Y-125248969D01*
G37*
D21*
G04 #@! TO.P,D22,2*
G04 #@! TO.N,+3V3*
X139528065Y-126411808D03*
G04 #@! TD*
G04 #@! TO.P,D21,2*
G04 #@! TO.N,+3V3*
X133615856Y-133615856D03*
G04 #@! TO.P,D21,1*
G04 #@! TO.N,Net-(D21-Pad1)*
X131819805Y-131819805D03*
D18*
G04 #@! TD*
G04 #@! TO.N,Net-(D21-Pad1)*
G04 #@! TO.C,D21*
G36*
X130547013Y-131819805D02*
X131819805Y-130547013D01*
X133092597Y-131819805D01*
X131819805Y-133092597D01*
X130547013Y-131819805D01*
X130547013Y-131819805D01*
G37*
D21*
G04 #@! TO.P,D20,1*
G04 #@! TO.N,Net-(D20-Pad1)*
X125000660Y-137416132D03*
D18*
G04 #@! TD*
G04 #@! TO.N,Net-(D20-Pad1)*
G04 #@! TO.C,D20*
G36*
X123752324Y-137167823D02*
X125248969Y-136167796D01*
X126248996Y-137664441D01*
X124752351Y-138664468D01*
X123752324Y-137167823D01*
X123752324Y-137167823D01*
G37*
D21*
G04 #@! TO.P,D20,2*
G04 #@! TO.N,+3V3*
X126411808Y-139528065D03*
G04 #@! TD*
G04 #@! TO.P,D19,2*
G04 #@! TO.N,+3V3*
X118192770Y-143921232D03*
G04 #@! TO.P,D19,1*
G04 #@! TO.N,Net-(D19-Pad1)*
X117220754Y-141574578D03*
D18*
G04 #@! TD*
G04 #@! TO.N,Net-(D19-Pad1)*
G04 #@! TO.C,D19*
G36*
X116044847Y-141087502D02*
X117707830Y-140398671D01*
X118396661Y-142061654D01*
X116733678Y-142750485D01*
X116044847Y-141087502D01*
X116044847Y-141087502D01*
G37*
D21*
G04 #@! TO.P,D18,1*
G04 #@! TO.N,Net-(D18-Pad1)*
X108779064Y-144135337D03*
D18*
G04 #@! TD*
G04 #@! TO.N,Net-(D18-Pad1)*
G04 #@! TO.C,D18*
G36*
X107720776Y-143428212D02*
X109486189Y-143077049D01*
X109837352Y-144842462D01*
X108071939Y-145193625D01*
X107720776Y-143428212D01*
X107720776Y-143428212D01*
G37*
D21*
G04 #@! TO.P,D18,2*
G04 #@! TO.N,+3V3*
X109274593Y-146626532D03*
G04 #@! TD*
G04 #@! TO.P,D16,2*
G04 #@! TO.N,+3V3*
X90725406Y-146626532D03*
G04 #@! TO.P,D16,1*
G04 #@! TO.N,Net-(D16-Pad1)*
X91220935Y-144135337D03*
D18*
G04 #@! TD*
G04 #@! TO.N,Net-(D16-Pad1)*
G04 #@! TO.C,D16*
G36*
X90513810Y-143077049D02*
X92279223Y-143428212D01*
X91928060Y-145193625D01*
X90162647Y-144842462D01*
X90513810Y-143077049D01*
X90513810Y-143077049D01*
G37*
D21*
G04 #@! TO.P,D32,1*
G04 #@! TO.N,Net-(D32-Pad1)*
X108779064Y-55864662D03*
D18*
G04 #@! TD*
G04 #@! TO.N,Net-(D32-Pad1)*
G04 #@! TO.C,D32*
G36*
X109486189Y-56922950D02*
X107720776Y-56571787D01*
X108071939Y-54806374D01*
X109837352Y-55157537D01*
X109486189Y-56922950D01*
X109486189Y-56922950D01*
G37*
D21*
G04 #@! TO.P,D32,2*
G04 #@! TO.N,+3V3*
X109274593Y-53373467D03*
G04 #@! TD*
G04 #@! TO.P,D14,2*
G04 #@! TO.N,+3V3*
X73588191Y-139528065D03*
G04 #@! TO.P,D14,1*
G04 #@! TO.N,Net-(D14-Pad1)*
X74999339Y-137416132D03*
D18*
G04 #@! TD*
G04 #@! TO.N,Net-(D14-Pad1)*
G04 #@! TO.C,D14*
G36*
X74751030Y-136167796D02*
X76247675Y-137167823D01*
X75247648Y-138664468D01*
X73751003Y-137664441D01*
X74751030Y-136167796D01*
X74751030Y-136167796D01*
G37*
D21*
G04 #@! TO.P,D31,1*
G04 #@! TO.N,Net-(D31-Pad1)*
X117220754Y-58425421D03*
D18*
G04 #@! TD*
G04 #@! TO.N,Net-(D31-Pad1)*
G04 #@! TO.C,D31*
G36*
X117707830Y-59601328D02*
X116044847Y-58912497D01*
X116733678Y-57249514D01*
X118396661Y-57938345D01*
X117707830Y-59601328D01*
X117707830Y-59601328D01*
G37*
D21*
G04 #@! TO.P,D31,2*
G04 #@! TO.N,+3V3*
X118192770Y-56078767D03*
G04 #@! TD*
G04 #@! TO.P,D1,2*
G04 #@! TO.N,+3V3*
X100000000Y-52460000D03*
D22*
G04 #@! TO.P,D1,1*
G04 #@! TO.N,Net-(D1-Pad1)*
X100000000Y-55000000D03*
G04 #@! TD*
D21*
G04 #@! TO.P,D2,1*
G04 #@! TO.N,Net-(D2-Pad1)*
X91220935Y-55864662D03*
D18*
G04 #@! TD*
G04 #@! TO.N,Net-(D2-Pad1)*
G04 #@! TO.C,D2*
G36*
X92279223Y-56571787D02*
X90513810Y-56922950D01*
X90162647Y-55157537D01*
X91928060Y-54806374D01*
X92279223Y-56571787D01*
X92279223Y-56571787D01*
G37*
D21*
G04 #@! TO.P,D2,2*
G04 #@! TO.N,+3V3*
X90725406Y-53373467D03*
G04 #@! TD*
G04 #@! TO.P,D3,2*
G04 #@! TO.N,+3V3*
X81807229Y-56078767D03*
G04 #@! TO.P,D3,1*
G04 #@! TO.N,Net-(D3-Pad1)*
X82779245Y-58425421D03*
D18*
G04 #@! TD*
G04 #@! TO.N,Net-(D3-Pad1)*
G04 #@! TO.C,D3*
G36*
X83955152Y-58912497D02*
X82292169Y-59601328D01*
X81603338Y-57938345D01*
X83266321Y-57249514D01*
X83955152Y-58912497D01*
X83955152Y-58912497D01*
G37*
D21*
G04 #@! TO.P,D4,1*
G04 #@! TO.N,Net-(D4-Pad1)*
X74999339Y-62583867D03*
D18*
G04 #@! TD*
G04 #@! TO.N,Net-(D4-Pad1)*
G04 #@! TO.C,D4*
G36*
X76247675Y-62832176D02*
X74751030Y-63832203D01*
X73751003Y-62335558D01*
X75247648Y-61335531D01*
X76247675Y-62832176D01*
X76247675Y-62832176D01*
G37*
D21*
G04 #@! TO.P,D4,2*
G04 #@! TO.N,+3V3*
X73588191Y-60471934D03*
G04 #@! TD*
G04 #@! TO.P,D5,2*
G04 #@! TO.N,+3V3*
X66384143Y-66384143D03*
G04 #@! TO.P,D5,1*
G04 #@! TO.N,Net-(D5-Pad1)*
X68180194Y-68180194D03*
D18*
G04 #@! TD*
G04 #@! TO.N,Net-(D5-Pad1)*
G04 #@! TO.C,D5*
G36*
X69452986Y-68180194D02*
X68180194Y-69452986D01*
X66907402Y-68180194D01*
X68180194Y-66907402D01*
X69452986Y-68180194D01*
X69452986Y-68180194D01*
G37*
D21*
G04 #@! TO.P,D6,1*
G04 #@! TO.N,Net-(D6-Pad1)*
X62583867Y-74999339D03*
D18*
G04 #@! TD*
G04 #@! TO.N,Net-(D6-Pad1)*
G04 #@! TO.C,D6*
G36*
X63832203Y-74751030D02*
X62832176Y-76247675D01*
X61335531Y-75247648D01*
X62335558Y-73751003D01*
X63832203Y-74751030D01*
X63832203Y-74751030D01*
G37*
D21*
G04 #@! TO.P,D6,2*
G04 #@! TO.N,+3V3*
X60471934Y-73588191D03*
G04 #@! TD*
G04 #@! TO.P,D7,2*
G04 #@! TO.N,+3V3*
X56078767Y-81807229D03*
G04 #@! TO.P,D7,1*
G04 #@! TO.N,Net-(D7-Pad1)*
X58425421Y-82779245D03*
D18*
G04 #@! TD*
G04 #@! TO.N,Net-(D7-Pad1)*
G04 #@! TO.C,D7*
G36*
X59601328Y-82292169D02*
X58912497Y-83955152D01*
X57249514Y-83266321D01*
X57938345Y-81603338D01*
X59601328Y-82292169D01*
X59601328Y-82292169D01*
G37*
D21*
G04 #@! TO.P,D8,1*
G04 #@! TO.N,Net-(D8-Pad1)*
X55864662Y-91220935D03*
D18*
G04 #@! TD*
G04 #@! TO.N,Net-(D8-Pad1)*
G04 #@! TO.C,D8*
G36*
X56922950Y-90513810D02*
X56571787Y-92279223D01*
X54806374Y-91928060D01*
X55157537Y-90162647D01*
X56922950Y-90513810D01*
X56922950Y-90513810D01*
G37*
D21*
G04 #@! TO.P,D8,2*
G04 #@! TO.N,+3V3*
X53373467Y-90725406D03*
G04 #@! TD*
G04 #@! TO.P,D9,2*
G04 #@! TO.N,+3V3*
X52460000Y-100000000D03*
D22*
G04 #@! TO.P,D9,1*
G04 #@! TO.N,Net-(D9-Pad1)*
X55000000Y-100000000D03*
G04 #@! TD*
D21*
G04 #@! TO.P,D10,1*
G04 #@! TO.N,Net-(D10-Pad1)*
X55864662Y-108779064D03*
D18*
G04 #@! TD*
G04 #@! TO.N,Net-(D10-Pad1)*
G04 #@! TO.C,D10*
G36*
X56571787Y-107720776D02*
X56922950Y-109486189D01*
X55157537Y-109837352D01*
X54806374Y-108071939D01*
X56571787Y-107720776D01*
X56571787Y-107720776D01*
G37*
D21*
G04 #@! TO.P,D10,2*
G04 #@! TO.N,+3V3*
X53373467Y-109274593D03*
G04 #@! TD*
G04 #@! TO.P,D11,2*
G04 #@! TO.N,+3V3*
X56078767Y-118192770D03*
G04 #@! TO.P,D11,1*
G04 #@! TO.N,Net-(D11-Pad1)*
X58425421Y-117220754D03*
D18*
G04 #@! TD*
G04 #@! TO.N,Net-(D11-Pad1)*
G04 #@! TO.C,D11*
G36*
X58912497Y-116044847D02*
X59601328Y-117707830D01*
X57938345Y-118396661D01*
X57249514Y-116733678D01*
X58912497Y-116044847D01*
X58912497Y-116044847D01*
G37*
D21*
G04 #@! TO.P,D12,1*
G04 #@! TO.N,Net-(D12-Pad1)*
X62583867Y-125000660D03*
D18*
G04 #@! TD*
G04 #@! TO.N,Net-(D12-Pad1)*
G04 #@! TO.C,D12*
G36*
X62832176Y-123752324D02*
X63832203Y-125248969D01*
X62335558Y-126248996D01*
X61335531Y-124752351D01*
X62832176Y-123752324D01*
X62832176Y-123752324D01*
G37*
D21*
G04 #@! TO.P,D12,2*
G04 #@! TO.N,+3V3*
X60471934Y-126411808D03*
G04 #@! TD*
G04 #@! TO.P,D13,2*
G04 #@! TO.N,+3V3*
X66384143Y-133615856D03*
G04 #@! TO.P,D13,1*
G04 #@! TO.N,Net-(D13-Pad1)*
X68180194Y-131819805D03*
D18*
G04 #@! TD*
G04 #@! TO.N,Net-(D13-Pad1)*
G04 #@! TO.C,D13*
G36*
X68180194Y-130547013D02*
X69452986Y-131819805D01*
X68180194Y-133092597D01*
X66907402Y-131819805D01*
X68180194Y-130547013D01*
X68180194Y-130547013D01*
G37*
D21*
G04 #@! TO.P,D15,1*
G04 #@! TO.N,Net-(D15-Pad1)*
X82779245Y-141574578D03*
D18*
G04 #@! TD*
G04 #@! TO.N,Net-(D15-Pad1)*
G04 #@! TO.C,D15*
G36*
X82292169Y-140398671D02*
X83955152Y-141087502D01*
X83266321Y-142750485D01*
X81603338Y-142061654D01*
X82292169Y-140398671D01*
X82292169Y-140398671D01*
G37*
D21*
G04 #@! TO.P,D15,2*
G04 #@! TO.N,+3V3*
X81807229Y-143921232D03*
G04 #@! TD*
D16*
G04 #@! TO.P,U3,16*
G04 #@! TO.N,+3V3*
X82620000Y-100000000D03*
G04 #@! TO.P,U3,8*
G04 #@! TO.N,GND*
X75000000Y-117780000D03*
G04 #@! TO.P,U3,15*
G04 #@! TO.N,Net-(R9-Pad1)*
X82620000Y-102540000D03*
G04 #@! TO.P,U3,7*
G04 #@! TO.N,Net-(R16-Pad1)*
X75000000Y-115240000D03*
G04 #@! TO.P,U3,14*
G04 #@! TO.N,Net-(U2-Pad9)*
X82620000Y-105080000D03*
G04 #@! TO.P,U3,6*
G04 #@! TO.N,Net-(R15-Pad1)*
X75000000Y-112700000D03*
G04 #@! TO.P,U3,13*
G04 #@! TO.N,GND*
X82620000Y-107620000D03*
G04 #@! TO.P,U3,5*
G04 #@! TO.N,Net-(R14-Pad1)*
X75000000Y-110160000D03*
G04 #@! TO.P,U3,12*
G04 #@! TO.N,Net-(U2-Pad12)*
X82620000Y-110160000D03*
G04 #@! TO.P,U3,4*
G04 #@! TO.N,Net-(R13-Pad1)*
X75000000Y-107620000D03*
G04 #@! TO.P,U3,11*
G04 #@! TO.N,Net-(U2-Pad11)*
X82620000Y-112700000D03*
G04 #@! TO.P,U3,3*
G04 #@! TO.N,Net-(R12-Pad1)*
X75000000Y-105080000D03*
G04 #@! TO.P,U3,10*
G04 #@! TO.N,+3V3*
X82620000Y-115240000D03*
G04 #@! TO.P,U3,2*
G04 #@! TO.N,Net-(R11-Pad1)*
X75000000Y-102540000D03*
G04 #@! TO.P,U3,9*
G04 #@! TO.N,Net-(U3-Pad9)*
X82620000Y-117780000D03*
D17*
G04 #@! TO.P,U3,1*
G04 #@! TO.N,Net-(R10-Pad1)*
X75000000Y-100000000D03*
G04 #@! TD*
G04 #@! TO.P,U4,1*
G04 #@! TO.N,Net-(R18-Pad1)*
X100000000Y-125000000D03*
D16*
G04 #@! TO.P,U4,9*
G04 #@! TO.N,Net-(U4-Pad9)*
X117780000Y-117380000D03*
G04 #@! TO.P,U4,2*
G04 #@! TO.N,Net-(R19-Pad1)*
X102540000Y-125000000D03*
G04 #@! TO.P,U4,10*
G04 #@! TO.N,+3V3*
X115240000Y-117380000D03*
G04 #@! TO.P,U4,3*
G04 #@! TO.N,Net-(R20-Pad1)*
X105080000Y-125000000D03*
G04 #@! TO.P,U4,11*
G04 #@! TO.N,Net-(U2-Pad11)*
X112700000Y-117380000D03*
G04 #@! TO.P,U4,4*
G04 #@! TO.N,Net-(R21-Pad1)*
X107620000Y-125000000D03*
G04 #@! TO.P,U4,12*
G04 #@! TO.N,Net-(U2-Pad12)*
X110160000Y-117380000D03*
G04 #@! TO.P,U4,5*
G04 #@! TO.N,Net-(R22-Pad1)*
X110160000Y-125000000D03*
G04 #@! TO.P,U4,13*
G04 #@! TO.N,GND*
X107620000Y-117380000D03*
G04 #@! TO.P,U4,6*
G04 #@! TO.N,Net-(R23-Pad1)*
X112700000Y-125000000D03*
G04 #@! TO.P,U4,14*
G04 #@! TO.N,Net-(U3-Pad9)*
X105080000Y-117380000D03*
G04 #@! TO.P,U4,7*
G04 #@! TO.N,Net-(R24-Pad1)*
X115240000Y-125000000D03*
G04 #@! TO.P,U4,15*
G04 #@! TO.N,Net-(R17-Pad1)*
X102540000Y-117380000D03*
G04 #@! TO.P,U4,8*
G04 #@! TO.N,GND*
X117780000Y-125000000D03*
G04 #@! TO.P,U4,16*
G04 #@! TO.N,+3V3*
X100000000Y-117380000D03*
G04 #@! TD*
G04 #@! TO.P,U5,16*
G04 #@! TO.N,+3V3*
X117380000Y-100000000D03*
G04 #@! TO.P,U5,8*
G04 #@! TO.N,GND*
X125000000Y-82220000D03*
G04 #@! TO.P,U5,15*
G04 #@! TO.N,Net-(R25-Pad1)*
X117380000Y-97460000D03*
G04 #@! TO.P,U5,7*
G04 #@! TO.N,Net-(R32-Pad1)*
X125000000Y-84760000D03*
G04 #@! TO.P,U5,14*
G04 #@! TO.N,Net-(U4-Pad9)*
X117380000Y-94920000D03*
G04 #@! TO.P,U5,6*
G04 #@! TO.N,Net-(R31-Pad1)*
X125000000Y-87300000D03*
G04 #@! TO.P,U5,13*
G04 #@! TO.N,GND*
X117380000Y-92380000D03*
G04 #@! TO.P,U5,5*
G04 #@! TO.N,Net-(R30-Pad1)*
X125000000Y-89840000D03*
G04 #@! TO.P,U5,12*
G04 #@! TO.N,Net-(U2-Pad12)*
X117380000Y-89840000D03*
G04 #@! TO.P,U5,4*
G04 #@! TO.N,Net-(R29-Pad1)*
X125000000Y-92380000D03*
G04 #@! TO.P,U5,11*
G04 #@! TO.N,Net-(U2-Pad11)*
X117380000Y-87300000D03*
G04 #@! TO.P,U5,3*
G04 #@! TO.N,Net-(R28-Pad1)*
X125000000Y-94920000D03*
G04 #@! TO.P,U5,10*
G04 #@! TO.N,+3V3*
X117380000Y-84760000D03*
G04 #@! TO.P,U5,2*
G04 #@! TO.N,Net-(R27-Pad1)*
X125000000Y-97460000D03*
G04 #@! TO.P,U5,9*
G04 #@! TO.N,Net-(U5-Pad9)*
X117380000Y-82220000D03*
D17*
G04 #@! TO.P,U5,1*
G04 #@! TO.N,Net-(R26-Pad1)*
X125000000Y-100000000D03*
G04 #@! TD*
G04 #@! TO.P,U2,1*
G04 #@! TO.N,Net-(R2-Pad1)*
X100000000Y-75000000D03*
D16*
G04 #@! TO.P,U2,9*
G04 #@! TO.N,Net-(U2-Pad9)*
X82220000Y-82620000D03*
G04 #@! TO.P,U2,2*
G04 #@! TO.N,Net-(R3-Pad1)*
X97460000Y-75000000D03*
G04 #@! TO.P,U2,10*
G04 #@! TO.N,+3V3*
X84760000Y-82620000D03*
G04 #@! TO.P,U2,3*
G04 #@! TO.N,Net-(R4-Pad1)*
X94920000Y-75000000D03*
G04 #@! TO.P,U2,11*
G04 #@! TO.N,Net-(U2-Pad11)*
X87300000Y-82620000D03*
G04 #@! TO.P,U2,4*
G04 #@! TO.N,Net-(R5-Pad1)*
X92380000Y-75000000D03*
G04 #@! TO.P,U2,12*
G04 #@! TO.N,Net-(U2-Pad12)*
X89840000Y-82620000D03*
G04 #@! TO.P,U2,5*
G04 #@! TO.N,Net-(R6-Pad1)*
X89840000Y-75000000D03*
G04 #@! TO.P,U2,13*
G04 #@! TO.N,GND*
X92380000Y-82620000D03*
G04 #@! TO.P,U2,6*
G04 #@! TO.N,Net-(R7-Pad1)*
X87300000Y-75000000D03*
G04 #@! TO.P,U2,14*
G04 #@! TO.N,Net-(U2-Pad14)*
X94920000Y-82620000D03*
G04 #@! TO.P,U2,7*
G04 #@! TO.N,Net-(R8-Pad1)*
X84760000Y-75000000D03*
G04 #@! TO.P,U2,15*
G04 #@! TO.N,Net-(R1-Pad1)*
X97460000Y-82620000D03*
G04 #@! TO.P,U2,8*
G04 #@! TO.N,GND*
X82220000Y-75000000D03*
G04 #@! TO.P,U2,16*
G04 #@! TO.N,+3V3*
X100000000Y-82620000D03*
G04 #@! TD*
D23*
G04 #@! TO.N,Net-(D14-Pad1)*
X74999339Y-136233711D02*
X74999339Y-137416132D01*
X62500000Y-121000000D02*
X74999339Y-133499339D01*
X64880000Y-112700000D02*
X62500000Y-115080000D01*
X74999339Y-133499339D02*
X74999339Y-136233711D01*
X62500000Y-115080000D02*
X62500000Y-121000000D01*
G04 #@! TO.N,Net-(D1-Pad1)*
X100000000Y-64880000D02*
X100000000Y-55000000D01*
G04 #@! TO.N,Net-(D2-Pad1)*
X97460000Y-62103726D02*
X91220936Y-55864662D01*
X97460000Y-64880000D02*
X97460000Y-62103726D01*
G04 #@! TO.N,Net-(D13-Pad1)*
X68180194Y-130447013D02*
X68180194Y-131819805D01*
X68180194Y-128180194D02*
X68180194Y-130447013D01*
X61500000Y-121500000D02*
X68180194Y-128180194D01*
X64880000Y-110160000D02*
X61500000Y-113540000D01*
X61500000Y-113540000D02*
X61500000Y-121500000D01*
G04 #@! TO.N,Net-(D11-Pad1)*
X63890051Y-105080000D02*
X58425421Y-110544630D01*
X64880000Y-105080000D02*
X63890051Y-105080000D01*
X58425421Y-110544630D02*
X58425421Y-116146601D01*
X58425421Y-116146601D02*
X58425421Y-117220754D01*
G04 #@! TO.N,Net-(D10-Pad1)*
X62103726Y-102540000D02*
X55864662Y-108779064D01*
X64880000Y-102540000D02*
X62103726Y-102540000D01*
G04 #@! TO.N,Net-(D20-Pad1)*
X124281087Y-138135706D02*
X125000660Y-137416133D01*
X122916793Y-139500000D02*
X124281087Y-138135706D01*
X112000000Y-139500000D02*
X122916793Y-139500000D01*
X107620000Y-135120000D02*
X112000000Y-139500000D01*
G04 #@! TO.N,Net-(D19-Pad1)*
X105080000Y-136109949D02*
X110544630Y-141574579D01*
X105080000Y-135120000D02*
X105080000Y-136109949D01*
X110544630Y-141574579D02*
X116146601Y-141574579D01*
X116146601Y-141574579D02*
X117220754Y-141574579D01*
D24*
G04 #@! TO.N,Net-(BT1-Pad1)*
X131500000Y-113750000D02*
X133750000Y-111500000D01*
X133750000Y-111500000D02*
X135250000Y-111500000D01*
X138000000Y-108750000D02*
X138000000Y-107000000D01*
X135250000Y-111500000D02*
X138000000Y-108750000D01*
X129020000Y-111270000D02*
X131500000Y-113750000D01*
X121000000Y-111270000D02*
X129020000Y-111270000D01*
D23*
G04 #@! TO.N,Net-(U2-Pad9)*
X83419999Y-104280001D02*
X82620000Y-105080000D01*
X83870001Y-103829999D02*
X83419999Y-104280001D01*
X83870001Y-84270001D02*
X83870001Y-103829999D01*
X82220000Y-82620000D02*
X83870001Y-84270001D01*
G04 #@! TO.N,Net-(U2-Pad11)*
X118179999Y-88099999D02*
X117380000Y-87300000D01*
X112700000Y-117380000D02*
X115000000Y-115080000D01*
X115000000Y-115080000D02*
X115000000Y-92909998D01*
X118630001Y-88550001D02*
X118179999Y-88099999D01*
X115000000Y-92909998D02*
X116819997Y-91090001D01*
X116819997Y-91090001D02*
X117980001Y-91090001D01*
X117980001Y-91090001D02*
X118630001Y-90440001D01*
X118630001Y-90440001D02*
X118630001Y-88550001D01*
X111900001Y-118179999D02*
X112700000Y-117380000D01*
X111449999Y-118630001D02*
X111900001Y-118179999D01*
X107090002Y-115000000D02*
X108909999Y-116819997D01*
X108909999Y-116819997D02*
X108909999Y-117980001D01*
X82620000Y-112700000D02*
X84920000Y-115000000D01*
X108909999Y-117980001D02*
X109559999Y-118630001D01*
X109559999Y-118630001D02*
X111449999Y-118630001D01*
X84920000Y-115000000D02*
X107090002Y-115000000D01*
X81000000Y-111080000D02*
X82620000Y-112700000D01*
X81000000Y-109500000D02*
X81000000Y-111080000D01*
X83590001Y-108909999D02*
X81590001Y-108909999D01*
X85000000Y-107500000D02*
X83590001Y-108909999D01*
X81590001Y-108909999D02*
X81000000Y-109500000D01*
X87300000Y-82620000D02*
X85000000Y-84920000D01*
X85000000Y-84920000D02*
X85000000Y-107500000D01*
X88099999Y-81820001D02*
X87300000Y-82620000D01*
X88550001Y-81369999D02*
X88099999Y-81820001D01*
X90440001Y-81369999D02*
X88550001Y-81369999D01*
X91090001Y-82019999D02*
X90440001Y-81369999D01*
X92909998Y-85000000D02*
X91090001Y-83180003D01*
X114710000Y-71750000D02*
X113500000Y-71750000D01*
X116080000Y-70380000D02*
X114710000Y-71750000D01*
X113500000Y-71750000D02*
X106750000Y-78500000D01*
X106750000Y-78500000D02*
X106750000Y-82750000D01*
X106750000Y-82750000D02*
X104500000Y-85000000D01*
X104500000Y-85000000D02*
X92909998Y-85000000D01*
X91090001Y-83180003D02*
X91090001Y-82019999D01*
G04 #@! TO.N,Net-(R10-Pad1)*
X75000000Y-100040000D02*
X72500000Y-102540000D01*
X75000000Y-100000000D02*
X75000000Y-100040000D01*
G04 #@! TO.N,Net-(D4-Pad1)*
X88000000Y-60500000D02*
X77083207Y-60500000D01*
X75718913Y-61864294D02*
X74999340Y-62583867D01*
X77083207Y-60500000D02*
X75718913Y-61864294D01*
X92380000Y-64880000D02*
X88000000Y-60500000D01*
G04 #@! TO.N,Net-(R4-Pad1)*
X94920000Y-75000000D02*
X94880000Y-75000000D01*
X94880000Y-75000000D02*
X92380000Y-72500000D01*
G04 #@! TO.N,Net-(D17-Pad1)*
X100000000Y-135120000D02*
X100000000Y-145000000D01*
G04 #@! TO.N,Net-(D16-Pad1)*
X88635337Y-144135337D02*
X91220935Y-144135337D01*
X64880000Y-117780000D02*
X64880000Y-120380000D01*
X64880000Y-120380000D02*
X88635337Y-144135337D01*
G04 #@! TO.N,Net-(R16-Pad1)*
X75000000Y-115280000D02*
X72500000Y-117780000D01*
X75000000Y-115240000D02*
X75000000Y-115280000D01*
G04 #@! TO.N,Net-(R15-Pad1)*
X75000000Y-112740000D02*
X72500000Y-115240000D01*
X75000000Y-112700000D02*
X75000000Y-112740000D01*
G04 #@! TO.N,Net-(D15-Pad1)*
X63500000Y-116620000D02*
X64880000Y-115240000D01*
X63500000Y-120500000D02*
X63500000Y-116620000D01*
X82787000Y-139787000D02*
X63500000Y-120500000D01*
X82787000Y-141566823D02*
X82787000Y-139787000D01*
X82779245Y-141574578D02*
X82787000Y-141566823D01*
G04 #@! TO.N,Net-(R14-Pad1)*
X75000000Y-110200000D02*
X72500000Y-112700000D01*
X75000000Y-110160000D02*
X75000000Y-110200000D01*
G04 #@! TO.N,Net-(R13-Pad1)*
X75000000Y-107660000D02*
X72500000Y-110160000D01*
X75000000Y-107620000D02*
X75000000Y-107660000D01*
G04 #@! TO.N,Net-(D12-Pad1)*
X61864294Y-124281087D02*
X62583867Y-125000660D01*
X60500000Y-122916793D02*
X61864294Y-124281087D01*
X64880000Y-107620000D02*
X60500000Y-112000000D01*
X60500000Y-112000000D02*
X60500000Y-122916793D01*
G04 #@! TO.N,Net-(R12-Pad1)*
X75000000Y-105120000D02*
X72500000Y-107620000D01*
X75000000Y-105080000D02*
X75000000Y-105120000D01*
G04 #@! TO.N,Net-(R11-Pad1)*
X75000000Y-102580000D02*
X72500000Y-105080000D01*
X75000000Y-102540000D02*
X75000000Y-102580000D01*
G04 #@! TO.N,Net-(R19-Pad1)*
X102580000Y-125000000D02*
X105080000Y-127500000D01*
X102540000Y-125000000D02*
X102580000Y-125000000D01*
G04 #@! TO.N,Net-(D8-Pad1)*
X79620000Y-64880000D02*
X55864663Y-88635337D01*
X82220000Y-64880000D02*
X79620000Y-64880000D01*
X55864663Y-88635337D02*
X55864663Y-91220935D01*
G04 #@! TO.N,Net-(R8-Pad1)*
X84720000Y-75000000D02*
X82220000Y-72500000D01*
X84760000Y-75000000D02*
X84720000Y-75000000D01*
G04 #@! TO.N,Net-(R7-Pad1)*
X87300000Y-75000000D02*
X87260000Y-75000000D01*
X87260000Y-75000000D02*
X84760000Y-72500000D01*
G04 #@! TO.N,Net-(D7-Pad1)*
X83380000Y-63500000D02*
X84760000Y-64880000D01*
X79500000Y-63500000D02*
X83380000Y-63500000D01*
X58433177Y-82787000D02*
X60213000Y-82787000D01*
X60213000Y-82787000D02*
X79500000Y-63500000D01*
G04 #@! TO.N,Net-(D6-Pad1)*
X84920000Y-62500000D02*
X79000000Y-62500000D01*
X79000000Y-62500000D02*
X66500661Y-74999339D01*
X87300000Y-64880000D02*
X84920000Y-62500000D01*
X66500661Y-74999339D02*
X63766289Y-74999339D01*
X63766289Y-74999339D02*
X62583868Y-74999339D01*
G04 #@! TO.N,Net-(R6-Pad1)*
X89800000Y-75000000D02*
X87300000Y-72500000D01*
X89840000Y-75000000D02*
X89800000Y-75000000D01*
G04 #@! TO.N,Net-(R5-Pad1)*
X92380000Y-75000000D02*
X92340000Y-75000000D01*
X92340000Y-75000000D02*
X89840000Y-72500000D01*
G04 #@! TO.N,Net-(D5-Pad1)*
X69552987Y-68180194D02*
X68180195Y-68180194D01*
X71819806Y-68180194D02*
X69552987Y-68180194D01*
X86460000Y-61500000D02*
X78500000Y-61500000D01*
X89840000Y-64880000D02*
X86460000Y-61500000D01*
X78500000Y-61500000D02*
X71819806Y-68180194D01*
G04 #@! TO.N,Net-(D3-Pad1)*
X94920000Y-63890051D02*
X89455370Y-58425421D01*
X94920000Y-64880000D02*
X94920000Y-63890051D01*
X89455370Y-58425421D02*
X83853399Y-58425421D01*
X83853399Y-58425421D02*
X82779246Y-58425421D01*
G04 #@! TO.N,Net-(R3-Pad1)*
X97460000Y-75000000D02*
X97420000Y-75000000D01*
X97420000Y-75000000D02*
X94920000Y-72500000D01*
G04 #@! TO.N,Net-(R27-Pad1)*
X125000000Y-97420000D02*
X127500000Y-94920000D01*
X125000000Y-97460000D02*
X125000000Y-97420000D01*
G04 #@! TO.N,Net-(D27-Pad1)*
X136109949Y-94920000D02*
X141574579Y-89455370D01*
X135120000Y-94920000D02*
X136109949Y-94920000D01*
X141574579Y-89455370D02*
X141574579Y-83853399D01*
X141574579Y-83853399D02*
X141574579Y-82779246D01*
G04 #@! TO.N,Net-(D21-Pad1)*
X121500000Y-138500000D02*
X128180194Y-131819806D01*
X128180194Y-131819806D02*
X130447013Y-131819806D01*
X110160000Y-135120000D02*
X113540000Y-138500000D01*
X130447013Y-131819806D02*
X131819805Y-131819806D01*
X113540000Y-138500000D02*
X121500000Y-138500000D01*
G04 #@! TO.N,Net-(R21-Pad1)*
X107660000Y-125000000D02*
X110160000Y-127500000D01*
X107620000Y-125000000D02*
X107660000Y-125000000D01*
G04 #@! TO.N,Net-(R2-Pad1)*
X100000000Y-75000000D02*
X99960000Y-75000000D01*
X99960000Y-75000000D02*
X97460000Y-72500000D01*
G04 #@! TO.N,Net-(R20-Pad1)*
X105080000Y-125000000D02*
X105120000Y-125000000D01*
X105120000Y-125000000D02*
X107620000Y-127500000D01*
G04 #@! TO.N,Net-(R32-Pad1)*
X125000000Y-84760000D02*
X125000000Y-84720000D01*
X125000000Y-84720000D02*
X127500000Y-82220000D01*
G04 #@! TO.N,Net-(D32-Pad1)*
X135120000Y-82220000D02*
X135120000Y-79620000D01*
X111364663Y-55864663D02*
X108779065Y-55864663D01*
X135120000Y-79620000D02*
X111364663Y-55864663D01*
G04 #@! TO.N,Net-(D31-Pad1)*
X136500000Y-79500000D02*
X136500000Y-83380000D01*
X136500000Y-83380000D02*
X135120000Y-84760000D01*
X117213000Y-58433177D02*
X117213000Y-60213000D01*
X117213000Y-60213000D02*
X136500000Y-79500000D01*
G04 #@! TO.N,Net-(R31-Pad1)*
X125000000Y-87300000D02*
X125000000Y-87260000D01*
X125000000Y-87260000D02*
X127500000Y-84760000D01*
G04 #@! TO.N,Net-(R30-Pad1)*
X125000000Y-89800000D02*
X127500000Y-87300000D01*
X125000000Y-89840000D02*
X125000000Y-89800000D01*
G04 #@! TO.N,Net-(D30-Pad1)*
X137500000Y-84920000D02*
X137500000Y-79000000D01*
X137500000Y-79000000D02*
X125000661Y-66500661D01*
X125000661Y-66500661D02*
X125000661Y-63766289D01*
X125000661Y-63766289D02*
X125000661Y-62583868D01*
X135120000Y-87300000D02*
X137500000Y-84920000D01*
G04 #@! TO.N,Net-(D29-Pad1)*
X135120000Y-89840000D02*
X138500000Y-86460000D01*
X138500000Y-86460000D02*
X138500000Y-78500000D01*
X131819806Y-69552987D02*
X131819806Y-68180195D01*
X138500000Y-78500000D02*
X131819806Y-71819806D01*
X131819806Y-71819806D02*
X131819806Y-69552987D01*
G04 #@! TO.N,Net-(R29-Pad1)*
X125000000Y-92340000D02*
X127500000Y-89840000D01*
X125000000Y-92380000D02*
X125000000Y-92340000D01*
G04 #@! TO.N,Net-(R28-Pad1)*
X125000000Y-94920000D02*
X125000000Y-94880000D01*
X125000000Y-94880000D02*
X127500000Y-92380000D01*
G04 #@! TO.N,Net-(D28-Pad1)*
X135120000Y-92380000D02*
X139500000Y-88000000D01*
X139500000Y-88000000D02*
X139500000Y-77083207D01*
X138135706Y-75718913D02*
X137416133Y-74999340D01*
X139500000Y-77083207D02*
X138135706Y-75718913D01*
G04 #@! TO.N,Net-(D18-Pad1)*
X102540000Y-137896274D02*
X108779064Y-144135338D01*
X102540000Y-135120000D02*
X102540000Y-137896274D01*
G04 #@! TO.N,Net-(R18-Pad1)*
X100040000Y-125000000D02*
X102540000Y-127500000D01*
X100000000Y-125000000D02*
X100040000Y-125000000D01*
G04 #@! TO.N,Net-(R26-Pad1)*
X125000000Y-99960000D02*
X127500000Y-97460000D01*
X125000000Y-100000000D02*
X125000000Y-99960000D01*
G04 #@! TO.N,Net-(D26-Pad1)*
X135120000Y-97460000D02*
X137896274Y-97460000D01*
X137896274Y-97460000D02*
X144135338Y-91220936D01*
G04 #@! TO.N,Net-(D25-Pad1)*
X135120000Y-100000000D02*
X145000000Y-100000000D01*
G04 #@! TO.N,Net-(R24-Pad1)*
X115280000Y-125000000D02*
X117780000Y-127500000D01*
X115240000Y-125000000D02*
X115280000Y-125000000D01*
G04 #@! TO.N,Net-(D24-Pad1)*
X120380000Y-135120000D02*
X144135337Y-111364663D01*
X117780000Y-135120000D02*
X120380000Y-135120000D01*
X144135337Y-111364663D02*
X144135337Y-108779065D01*
G04 #@! TO.N,Net-(D23-Pad1)*
X116620000Y-136500000D02*
X115240000Y-135120000D01*
X141566823Y-117213000D02*
X139787000Y-117213000D01*
X139787000Y-117213000D02*
X120500000Y-136500000D01*
X120500000Y-136500000D02*
X116620000Y-136500000D01*
G04 #@! TO.N,Net-(R23-Pad1)*
X112740000Y-125000000D02*
X115240000Y-127500000D01*
X112700000Y-125000000D02*
X112740000Y-125000000D01*
G04 #@! TO.N,Net-(R22-Pad1)*
X110160000Y-125000000D02*
X110200000Y-125000000D01*
X110200000Y-125000000D02*
X112700000Y-127500000D01*
G04 #@! TO.N,Net-(D22-Pad1)*
X136233711Y-125000661D02*
X137416132Y-125000661D01*
X112700000Y-135120000D02*
X115080000Y-137500000D01*
X121000000Y-137500000D02*
X133499339Y-125000661D01*
X133499339Y-125000661D02*
X136233711Y-125000661D01*
X115080000Y-137500000D02*
X121000000Y-137500000D01*
G04 #@! TO.N,Net-(D9-Pad1)*
X64880000Y-100000000D02*
X55000000Y-100000000D01*
D24*
G04 #@! TO.N,+3V3*
X109274593Y-53373467D02*
X118192770Y-56078767D01*
X118192770Y-56078767D02*
X126411808Y-60471934D01*
X126411808Y-60471934D02*
X133615856Y-66384143D01*
X133615856Y-66384143D02*
X139528065Y-73588191D01*
X139528065Y-73588191D02*
X143921232Y-81807229D01*
X143921232Y-81807229D02*
X146626532Y-90725406D01*
X146626532Y-90725406D02*
X147540000Y-100000000D01*
X146626532Y-109274593D02*
X143921232Y-118192770D01*
X143921232Y-118192770D02*
X139528065Y-126411808D01*
X139528065Y-126411808D02*
X133615856Y-133615856D01*
X133615856Y-133615856D02*
X126411808Y-139528065D01*
X126411808Y-139528065D02*
X118192770Y-143921232D01*
X118192770Y-143921232D02*
X109274593Y-146626532D01*
X109274593Y-146626532D02*
X100000000Y-147540000D01*
X90725406Y-146626532D02*
X81807229Y-143921232D01*
X81807229Y-143921232D02*
X73588191Y-139528065D01*
X73588191Y-139528065D02*
X66384143Y-133615856D01*
X66384143Y-133615856D02*
X60471934Y-126411808D01*
X60471934Y-126411808D02*
X56078767Y-118192770D01*
X56078767Y-118192770D02*
X53373467Y-109274593D01*
X53373467Y-109274593D02*
X52460000Y-100000000D01*
X53373467Y-90725406D02*
X56078767Y-81807229D01*
X56078767Y-81807229D02*
X60471934Y-73588191D01*
X60471934Y-73588191D02*
X66384143Y-66384143D01*
X66384143Y-66384143D02*
X73588191Y-60471934D01*
X73588191Y-60471934D02*
X81807229Y-56078767D01*
X81807229Y-56078767D02*
X90725406Y-53373467D01*
X90725406Y-53373467D02*
X100000000Y-52460000D01*
X103000000Y-52755473D02*
X109274593Y-53373467D01*
X100000000Y-52460000D02*
X103000000Y-52755473D01*
X52952457Y-95000000D02*
X53373467Y-90725406D01*
X52460000Y-100000000D02*
X52952457Y-95000000D01*
X82500000Y-99880000D02*
X82620000Y-100000000D01*
X147047542Y-105000000D02*
X146626532Y-109274593D01*
X147540000Y-100000000D02*
X147047542Y-105000000D01*
X81369999Y-116490001D02*
X82620000Y-115240000D01*
X81119999Y-116740001D02*
X81369999Y-116490001D01*
X81119999Y-118500001D02*
X81119999Y-116740001D01*
X82119998Y-119500000D02*
X81119999Y-118500001D01*
X118500000Y-119000000D02*
X119500000Y-118000000D01*
X115240000Y-117380000D02*
X116860000Y-119000000D01*
X116860000Y-119000000D02*
X118500000Y-119000000D01*
X80299990Y-102320010D02*
X82620000Y-100000000D01*
X80000000Y-102620000D02*
X80299990Y-102320010D01*
X82620000Y-115240000D02*
X80000000Y-112620000D01*
X80000000Y-112620000D02*
X80000000Y-102620000D01*
X100799999Y-118179999D02*
X100000000Y-117380000D01*
X102620000Y-120000000D02*
X100799999Y-118179999D01*
X115240000Y-117380000D02*
X112620000Y-120000000D01*
X112620000Y-120000000D02*
X102620000Y-120000000D01*
X99200001Y-81820001D02*
X100000000Y-82620000D01*
X97380000Y-80000000D02*
X99200001Y-81820001D01*
X84760000Y-82620000D02*
X87380000Y-80000000D01*
X87380000Y-80000000D02*
X97380000Y-80000000D01*
X119330011Y-98049989D02*
X117380000Y-100000000D01*
X120000000Y-97380000D02*
X119330011Y-98049989D01*
X117380000Y-84760000D02*
X120000000Y-87380000D01*
X120000000Y-87380000D02*
X120000000Y-97380000D01*
X103720000Y-82620000D02*
X103750000Y-82650000D01*
X82400000Y-99780000D02*
X82620000Y-100000000D01*
X82400000Y-96250000D02*
X82400000Y-99780000D01*
X83509999Y-81369999D02*
X84760000Y-82620000D01*
X82400000Y-85150000D02*
X80500000Y-83250000D01*
X82400000Y-96250000D02*
X82400000Y-85150000D01*
X80500000Y-83250000D02*
X80500000Y-82000000D01*
X80500000Y-82000000D02*
X81500000Y-81000000D01*
X81500000Y-81000000D02*
X83140000Y-81000000D01*
X83140000Y-81000000D02*
X83509999Y-81369999D01*
X99780000Y-117600000D02*
X100000000Y-117380000D01*
X96250000Y-117600000D02*
X99780000Y-117600000D01*
X96250000Y-117600000D02*
X85150000Y-117600000D01*
X83250000Y-119500000D02*
X82119998Y-119500000D01*
X85150000Y-117600000D02*
X83250000Y-119500000D01*
X117600000Y-103750000D02*
X117600000Y-114600000D01*
X119500000Y-116500000D02*
X119500000Y-118000000D01*
X117600000Y-114600000D02*
X119500000Y-116500000D01*
X117600000Y-100220000D02*
X117380000Y-100000000D01*
X117600000Y-103750000D02*
X117600000Y-100220000D01*
X95000000Y-147047542D02*
X90725406Y-146626532D01*
X100000000Y-147540000D02*
X95000000Y-147047542D01*
X103380000Y-82620000D02*
X103500000Y-82500000D01*
X100000000Y-82620000D02*
X103380000Y-82620000D01*
X105000000Y-72250000D02*
X107000000Y-70250000D01*
X103500000Y-82500000D02*
X105000000Y-81000000D01*
X105000000Y-81000000D02*
X105000000Y-72250000D01*
X110870000Y-70250000D02*
X111000000Y-70380000D01*
X107000000Y-70250000D02*
X110870000Y-70250000D01*
X114640000Y-87500000D02*
X117380000Y-84760000D01*
X113870000Y-87500000D02*
X114640000Y-87500000D01*
X123790000Y-112540000D02*
X125000000Y-113750000D01*
X122250000Y-112540000D02*
X123790000Y-112540000D01*
X125000000Y-113750000D02*
X120750000Y-118000000D01*
X120750000Y-118000000D02*
X119500000Y-118000000D01*
X145000000Y-105000000D02*
X147047542Y-105000000D01*
X134750000Y-115250000D02*
X145000000Y-105000000D01*
X125000000Y-113750000D02*
X126500000Y-115250000D01*
X126500000Y-115250000D02*
X134750000Y-115250000D01*
X122250000Y-112540000D02*
X121000000Y-112540000D01*
D23*
G04 #@! TO.N,Net-(U2-Pad12)*
X110160000Y-116248630D02*
X110160000Y-117380000D01*
X107911370Y-114000000D02*
X110160000Y-116248630D01*
X110160000Y-116248630D02*
X114000000Y-112408630D01*
X116248630Y-89840000D02*
X117380000Y-89840000D01*
X114000000Y-92088630D02*
X116248630Y-89840000D01*
X114000000Y-112408630D02*
X114000000Y-92088630D01*
X82620000Y-110160000D02*
X83751370Y-110160000D01*
X87591370Y-114000000D02*
X88000000Y-114000000D01*
X83751370Y-110160000D02*
X87591370Y-114000000D01*
X88000000Y-114000000D02*
X107911370Y-114000000D01*
X83751370Y-110160000D02*
X86000000Y-107911370D01*
X89840000Y-83751370D02*
X89840000Y-82620000D01*
X89840000Y-83751370D02*
X86000000Y-87591370D01*
X86000000Y-87591370D02*
X86000000Y-107911370D01*
X117820001Y-71179999D02*
X118620000Y-70380000D01*
X116500000Y-72500000D02*
X117820001Y-71179999D01*
X89840000Y-83751370D02*
X91838630Y-85750000D01*
X105000000Y-85750000D02*
X107500000Y-83250000D01*
X107500000Y-83250000D02*
X107500000Y-79000000D01*
X107500000Y-79000000D02*
X114000000Y-72500000D01*
X91838630Y-85750000D02*
X105000000Y-85750000D01*
X114000000Y-72500000D02*
X116500000Y-72500000D01*
G04 #@! TO.N,Net-(U2-Pad14)*
X106000000Y-77920000D02*
X113540000Y-70380000D01*
X106000000Y-82250000D02*
X106000000Y-77920000D01*
X104000000Y-84250000D02*
X106000000Y-82250000D01*
X94920000Y-82620000D02*
X96550000Y-84250000D01*
X96550000Y-84250000D02*
X104000000Y-84250000D01*
G04 #@! TO.N,Net-(U4-Pad9)*
X116580001Y-95719999D02*
X117380000Y-94920000D01*
X116129999Y-96170001D02*
X116580001Y-95719999D01*
X116129999Y-115629999D02*
X116129999Y-96170001D01*
X117780000Y-117380000D02*
X117780000Y-117280000D01*
X117780000Y-117280000D02*
X116129999Y-115629999D01*
G04 #@! TO.N,Net-(U3-Pad9)*
X104280001Y-116580001D02*
X105080000Y-117380000D01*
X103829999Y-116129999D02*
X104280001Y-116580001D01*
X84270001Y-116129999D02*
X103829999Y-116129999D01*
X82620000Y-117780000D02*
X84270001Y-116129999D01*
G04 #@! TO.N,Net-(R33-Pad1)*
X106250000Y-97500000D02*
X106250000Y-87500000D01*
X111000000Y-82750000D02*
X111000000Y-78000000D01*
X106250000Y-87500000D02*
X111000000Y-82750000D01*
X93750000Y-97500000D02*
X106250000Y-97500000D01*
G04 #@! TD*
M02*
