G04 #@! TF.GenerationSoftware,KiCad,Pcbnew,(5.0.2)-1*
G04 #@! TF.CreationDate,2020-02-15T13:34:47+00:00*
G04 #@! TF.ProjectId,teatime,74656174-696d-4652-9e6b-696361645f70,rev?*
G04 #@! TF.SameCoordinates,Original*
G04 #@! TF.FileFunction,Legend,Bot*
G04 #@! TF.FilePolarity,Positive*
%FSLAX46Y46*%
G04 Gerber Fmt 4.6, Leading zero omitted, Abs format (unit mm)*
G04 Created by KiCad (PCBNEW (5.0.2)-1) date 15/02/2020 13:34:47*
%MOMM*%
%LPD*%
G01*
G04 APERTURE LIST*
%ADD10C,0.150000*%
%ADD11C,0.300000*%
%ADD12C,0.100000*%
%ADD13C,0.120000*%
G04 APERTURE END LIST*
D10*
X129372619Y-111261904D02*
X129372619Y-111738095D01*
X130372619Y-111738095D01*
X129372619Y-110928571D02*
X130039285Y-110928571D01*
X130372619Y-110928571D02*
X130325000Y-110976190D01*
X130277380Y-110928571D01*
X130325000Y-110880952D01*
X130372619Y-110928571D01*
X130277380Y-110928571D01*
X130039285Y-110595238D02*
X130039285Y-110214285D01*
X130372619Y-110452380D02*
X129515476Y-110452380D01*
X129420238Y-110404761D01*
X129372619Y-110309523D01*
X129372619Y-110214285D01*
X129372619Y-109880952D02*
X130372619Y-109880952D01*
X129372619Y-109452380D02*
X129896428Y-109452380D01*
X129991666Y-109500000D01*
X130039285Y-109595238D01*
X130039285Y-109738095D01*
X129991666Y-109833333D01*
X129944047Y-109880952D01*
X129372619Y-108976190D02*
X130039285Y-108976190D01*
X130372619Y-108976190D02*
X130325000Y-109023809D01*
X130277380Y-108976190D01*
X130325000Y-108928571D01*
X130372619Y-108976190D01*
X130277380Y-108976190D01*
X130039285Y-108071428D02*
X129372619Y-108071428D01*
X130039285Y-108500000D02*
X129515476Y-108500000D01*
X129420238Y-108452380D01*
X129372619Y-108357142D01*
X129372619Y-108214285D01*
X129420238Y-108119047D01*
X129467857Y-108071428D01*
X129372619Y-107595238D02*
X130039285Y-107595238D01*
X129944047Y-107595238D02*
X129991666Y-107547619D01*
X130039285Y-107452380D01*
X130039285Y-107309523D01*
X129991666Y-107214285D01*
X129896428Y-107166666D01*
X129372619Y-107166666D01*
X129896428Y-107166666D02*
X129991666Y-107119047D01*
X130039285Y-107023809D01*
X130039285Y-106880952D01*
X129991666Y-106785714D01*
X129896428Y-106738095D01*
X129372619Y-106738095D01*
X129372619Y-105500000D02*
X130372619Y-105500000D01*
X130372619Y-105119047D01*
X130325000Y-105023809D01*
X130277380Y-104976190D01*
X130182142Y-104928571D01*
X130039285Y-104928571D01*
X129944047Y-104976190D01*
X129896428Y-105023809D01*
X129848809Y-105119047D01*
X129848809Y-105500000D01*
X129372619Y-104500000D02*
X130039285Y-104500000D01*
X129848809Y-104500000D02*
X129944047Y-104452380D01*
X129991666Y-104404761D01*
X130039285Y-104309523D01*
X130039285Y-104214285D01*
X129372619Y-103880952D02*
X130039285Y-103880952D01*
X130372619Y-103880952D02*
X130325000Y-103928571D01*
X130277380Y-103880952D01*
X130325000Y-103833333D01*
X130372619Y-103880952D01*
X130277380Y-103880952D01*
X129372619Y-103404761D02*
X130039285Y-103404761D01*
X129944047Y-103404761D02*
X129991666Y-103357142D01*
X130039285Y-103261904D01*
X130039285Y-103119047D01*
X129991666Y-103023809D01*
X129896428Y-102976190D01*
X129372619Y-102976190D01*
X129896428Y-102976190D02*
X129991666Y-102928571D01*
X130039285Y-102833333D01*
X130039285Y-102690476D01*
X129991666Y-102595238D01*
X129896428Y-102547619D01*
X129372619Y-102547619D01*
X129372619Y-101642857D02*
X129896428Y-101642857D01*
X129991666Y-101690476D01*
X130039285Y-101785714D01*
X130039285Y-101976190D01*
X129991666Y-102071428D01*
X129420238Y-101642857D02*
X129372619Y-101738095D01*
X129372619Y-101976190D01*
X129420238Y-102071428D01*
X129515476Y-102119047D01*
X129610714Y-102119047D01*
X129705952Y-102071428D01*
X129753571Y-101976190D01*
X129753571Y-101738095D01*
X129801190Y-101642857D01*
X129372619Y-101166666D02*
X130039285Y-101166666D01*
X129848809Y-101166666D02*
X129944047Y-101119047D01*
X129991666Y-101071428D01*
X130039285Y-100976190D01*
X130039285Y-100880952D01*
X130039285Y-100642857D02*
X129372619Y-100404761D01*
X130039285Y-100166666D02*
X129372619Y-100404761D01*
X129134523Y-100500000D01*
X129086904Y-100547619D01*
X129039285Y-100642857D01*
X128722619Y-109119047D02*
X128722619Y-108500000D01*
X128341666Y-108833333D01*
X128341666Y-108690476D01*
X128294047Y-108595238D01*
X128246428Y-108547619D01*
X128151190Y-108500000D01*
X127913095Y-108500000D01*
X127817857Y-108547619D01*
X127770238Y-108595238D01*
X127722619Y-108690476D01*
X127722619Y-108976190D01*
X127770238Y-109071428D01*
X127817857Y-109119047D01*
X127817857Y-108071428D02*
X127770238Y-108023809D01*
X127722619Y-108071428D01*
X127770238Y-108119047D01*
X127817857Y-108071428D01*
X127722619Y-108071428D01*
X128722619Y-107119047D02*
X128722619Y-107595238D01*
X128246428Y-107642857D01*
X128294047Y-107595238D01*
X128341666Y-107500000D01*
X128341666Y-107261904D01*
X128294047Y-107166666D01*
X128246428Y-107119047D01*
X128151190Y-107071428D01*
X127913095Y-107071428D01*
X127817857Y-107119047D01*
X127770238Y-107166666D01*
X127722619Y-107261904D01*
X127722619Y-107500000D01*
X127770238Y-107595238D01*
X127817857Y-107642857D01*
X128722619Y-106785714D02*
X127722619Y-106452380D01*
X128722619Y-106119047D01*
X127722619Y-105023809D02*
X128722619Y-105023809D01*
X128008333Y-104690476D01*
X128722619Y-104357142D01*
X127722619Y-104357142D01*
X127722619Y-103880952D02*
X128389285Y-103880952D01*
X128722619Y-103880952D02*
X128675000Y-103928571D01*
X128627380Y-103880952D01*
X128675000Y-103833333D01*
X128722619Y-103880952D01*
X128627380Y-103880952D01*
X128389285Y-103404761D02*
X127722619Y-103404761D01*
X128294047Y-103404761D02*
X128341666Y-103357142D01*
X128389285Y-103261904D01*
X128389285Y-103119047D01*
X128341666Y-103023809D01*
X128246428Y-102976190D01*
X127722619Y-102976190D01*
D11*
X138107142Y-101571428D02*
X138107142Y-100428571D01*
X137428571Y-111107142D02*
X138571428Y-111107142D01*
X138000000Y-111678571D02*
X138000000Y-110535714D01*
D12*
G04 #@! TO.C,HS1*
G36*
X77000000Y-80500000D02*
X77000000Y-80100000D01*
X77400000Y-80100000D01*
X77400000Y-80500000D01*
X77000000Y-80500000D01*
G37*
G36*
X76600000Y-80500000D02*
X76600000Y-80100000D01*
X77000000Y-80100000D01*
X77000000Y-80500000D01*
X76600000Y-80500000D01*
G37*
G36*
X76200000Y-80500000D02*
X76200000Y-80100000D01*
X76600000Y-80100000D01*
X76600000Y-80500000D01*
X76200000Y-80500000D01*
G37*
G36*
X75800000Y-80500000D02*
X75800000Y-80100000D01*
X76200000Y-80100000D01*
X76200000Y-80500000D01*
X75800000Y-80500000D01*
G37*
G36*
X75400000Y-80500000D02*
X75400000Y-80100000D01*
X75800000Y-80100000D01*
X75800000Y-80500000D01*
X75400000Y-80500000D01*
G37*
G36*
X75000000Y-80500000D02*
X75000000Y-80100000D01*
X75400000Y-80100000D01*
X75400000Y-80500000D01*
X75000000Y-80500000D01*
G37*
G36*
X74600000Y-80500000D02*
X74600000Y-80100000D01*
X75000000Y-80100000D01*
X75000000Y-80500000D01*
X74600000Y-80500000D01*
G37*
G36*
X74200000Y-80500000D02*
X74200000Y-80100000D01*
X74600000Y-80100000D01*
X74600000Y-80500000D01*
X74200000Y-80500000D01*
G37*
G36*
X73800000Y-80500000D02*
X73800000Y-80100000D01*
X74200000Y-80100000D01*
X74200000Y-80500000D01*
X73800000Y-80500000D01*
G37*
G36*
X73400000Y-80500000D02*
X73400000Y-80100000D01*
X73800000Y-80100000D01*
X73800000Y-80500000D01*
X73400000Y-80500000D01*
G37*
G36*
X73000000Y-80500000D02*
X73000000Y-80100000D01*
X73400000Y-80100000D01*
X73400000Y-80500000D01*
X73000000Y-80500000D01*
G37*
G36*
X72600000Y-80500000D02*
X72600000Y-80100000D01*
X73000000Y-80100000D01*
X73000000Y-80500000D01*
X72600000Y-80500000D01*
G37*
G36*
X72200000Y-80500000D02*
X72200000Y-80100000D01*
X72600000Y-80100000D01*
X72600000Y-80500000D01*
X72200000Y-80500000D01*
G37*
G36*
X71800000Y-80500000D02*
X71800000Y-80100000D01*
X72200000Y-80100000D01*
X72200000Y-80500000D01*
X71800000Y-80500000D01*
G37*
G36*
X71400000Y-80500000D02*
X71400000Y-80100000D01*
X71800000Y-80100000D01*
X71800000Y-80500000D01*
X71400000Y-80500000D01*
G37*
G36*
X71000000Y-80500000D02*
X71000000Y-80100000D01*
X71400000Y-80100000D01*
X71400000Y-80500000D01*
X71000000Y-80500000D01*
G37*
G36*
X70600000Y-80500000D02*
X70600000Y-80100000D01*
X71000000Y-80100000D01*
X71000000Y-80500000D01*
X70600000Y-80500000D01*
G37*
G36*
X70200000Y-80500000D02*
X70200000Y-80100000D01*
X70600000Y-80100000D01*
X70600000Y-80500000D01*
X70200000Y-80500000D01*
G37*
G36*
X69800000Y-80500000D02*
X69800000Y-80100000D01*
X70200000Y-80100000D01*
X70200000Y-80500000D01*
X69800000Y-80500000D01*
G37*
G36*
X69400000Y-80500000D02*
X69400000Y-80100000D01*
X69800000Y-80100000D01*
X69800000Y-80500000D01*
X69400000Y-80500000D01*
G37*
G36*
X69000000Y-80500000D02*
X69000000Y-80100000D01*
X69400000Y-80100000D01*
X69400000Y-80500000D01*
X69000000Y-80500000D01*
G37*
G36*
X68600000Y-80500000D02*
X68600000Y-80100000D01*
X69000000Y-80100000D01*
X69000000Y-80500000D01*
X68600000Y-80500000D01*
G37*
G36*
X68200000Y-80500000D02*
X68200000Y-80100000D01*
X68600000Y-80100000D01*
X68600000Y-80500000D01*
X68200000Y-80500000D01*
G37*
G36*
X67800000Y-80500000D02*
X67800000Y-80100000D01*
X68200000Y-80100000D01*
X68200000Y-80500000D01*
X67800000Y-80500000D01*
G37*
G36*
X67400000Y-80500000D02*
X67400000Y-80100000D01*
X67800000Y-80100000D01*
X67800000Y-80500000D01*
X67400000Y-80500000D01*
G37*
G36*
X67000000Y-80500000D02*
X67000000Y-80100000D01*
X67400000Y-80100000D01*
X67400000Y-80500000D01*
X67000000Y-80500000D01*
G37*
G36*
X66600000Y-80500000D02*
X66600000Y-80100000D01*
X67000000Y-80100000D01*
X67000000Y-80500000D01*
X66600000Y-80500000D01*
G37*
G36*
X66200000Y-80500000D02*
X66200000Y-80100000D01*
X66600000Y-80100000D01*
X66600000Y-80500000D01*
X66200000Y-80500000D01*
G37*
G36*
X65800000Y-80500000D02*
X65800000Y-80100000D01*
X66200000Y-80100000D01*
X66200000Y-80500000D01*
X65800000Y-80500000D01*
G37*
G36*
X65400000Y-80500000D02*
X65400000Y-80100000D01*
X65800000Y-80100000D01*
X65800000Y-80500000D01*
X65400000Y-80500000D01*
G37*
G36*
X65000000Y-80500000D02*
X65000000Y-80100000D01*
X65400000Y-80100000D01*
X65400000Y-80500000D01*
X65000000Y-80500000D01*
G37*
G36*
X64600000Y-80500000D02*
X64600000Y-80100000D01*
X65000000Y-80100000D01*
X65000000Y-80500000D01*
X64600000Y-80500000D01*
G37*
G36*
X64200000Y-80500000D02*
X64200000Y-80100000D01*
X64600000Y-80100000D01*
X64600000Y-80500000D01*
X64200000Y-80500000D01*
G37*
G36*
X63800000Y-80500000D02*
X63800000Y-80100000D01*
X64200000Y-80100000D01*
X64200000Y-80500000D01*
X63800000Y-80500000D01*
G37*
G36*
X63400000Y-80500000D02*
X63400000Y-80100000D01*
X63800000Y-80100000D01*
X63800000Y-80500000D01*
X63400000Y-80500000D01*
G37*
G36*
X63000000Y-80500000D02*
X63000000Y-80100000D01*
X63400000Y-80100000D01*
X63400000Y-80500000D01*
X63000000Y-80500000D01*
G37*
G36*
X62600000Y-80500000D02*
X62600000Y-80100000D01*
X63000000Y-80100000D01*
X63000000Y-80500000D01*
X62600000Y-80500000D01*
G37*
G36*
X77000000Y-80900000D02*
X77000000Y-80500000D01*
X77400000Y-80500000D01*
X77400000Y-80900000D01*
X77000000Y-80900000D01*
G37*
G36*
X76600000Y-80900000D02*
X76600000Y-80500000D01*
X77000000Y-80500000D01*
X77000000Y-80900000D01*
X76600000Y-80900000D01*
G37*
G36*
X76200000Y-80900000D02*
X76200000Y-80500000D01*
X76600000Y-80500000D01*
X76600000Y-80900000D01*
X76200000Y-80900000D01*
G37*
G36*
X75800000Y-80900000D02*
X75800000Y-80500000D01*
X76200000Y-80500000D01*
X76200000Y-80900000D01*
X75800000Y-80900000D01*
G37*
G36*
X75400000Y-80900000D02*
X75400000Y-80500000D01*
X75800000Y-80500000D01*
X75800000Y-80900000D01*
X75400000Y-80900000D01*
G37*
G36*
X75000000Y-80900000D02*
X75000000Y-80500000D01*
X75400000Y-80500000D01*
X75400000Y-80900000D01*
X75000000Y-80900000D01*
G37*
G36*
X74600000Y-80900000D02*
X74600000Y-80500000D01*
X75000000Y-80500000D01*
X75000000Y-80900000D01*
X74600000Y-80900000D01*
G37*
G36*
X74200000Y-80900000D02*
X74200000Y-80500000D01*
X74600000Y-80500000D01*
X74600000Y-80900000D01*
X74200000Y-80900000D01*
G37*
G36*
X73800000Y-80900000D02*
X73800000Y-80500000D01*
X74200000Y-80500000D01*
X74200000Y-80900000D01*
X73800000Y-80900000D01*
G37*
G36*
X73400000Y-80900000D02*
X73400000Y-80500000D01*
X73800000Y-80500000D01*
X73800000Y-80900000D01*
X73400000Y-80900000D01*
G37*
G36*
X73000000Y-80900000D02*
X73000000Y-80500000D01*
X73400000Y-80500000D01*
X73400000Y-80900000D01*
X73000000Y-80900000D01*
G37*
G36*
X72600000Y-80900000D02*
X72600000Y-80500000D01*
X73000000Y-80500000D01*
X73000000Y-80900000D01*
X72600000Y-80900000D01*
G37*
G36*
X72200000Y-80900000D02*
X72200000Y-80500000D01*
X72600000Y-80500000D01*
X72600000Y-80900000D01*
X72200000Y-80900000D01*
G37*
G36*
X71800000Y-80900000D02*
X71800000Y-80500000D01*
X72200000Y-80500000D01*
X72200000Y-80900000D01*
X71800000Y-80900000D01*
G37*
G36*
X71400000Y-80900000D02*
X71400000Y-80500000D01*
X71800000Y-80500000D01*
X71800000Y-80900000D01*
X71400000Y-80900000D01*
G37*
G36*
X71000000Y-80900000D02*
X71000000Y-80500000D01*
X71400000Y-80500000D01*
X71400000Y-80900000D01*
X71000000Y-80900000D01*
G37*
G36*
X70600000Y-80900000D02*
X70600000Y-80500000D01*
X71000000Y-80500000D01*
X71000000Y-80900000D01*
X70600000Y-80900000D01*
G37*
G36*
X70200000Y-80900000D02*
X70200000Y-80500000D01*
X70600000Y-80500000D01*
X70600000Y-80900000D01*
X70200000Y-80900000D01*
G37*
G36*
X69800000Y-80900000D02*
X69800000Y-80500000D01*
X70200000Y-80500000D01*
X70200000Y-80900000D01*
X69800000Y-80900000D01*
G37*
G36*
X69400000Y-80900000D02*
X69400000Y-80500000D01*
X69800000Y-80500000D01*
X69800000Y-80900000D01*
X69400000Y-80900000D01*
G37*
G36*
X69000000Y-80900000D02*
X69000000Y-80500000D01*
X69400000Y-80500000D01*
X69400000Y-80900000D01*
X69000000Y-80900000D01*
G37*
G36*
X68600000Y-80900000D02*
X68600000Y-80500000D01*
X69000000Y-80500000D01*
X69000000Y-80900000D01*
X68600000Y-80900000D01*
G37*
G36*
X68200000Y-80900000D02*
X68200000Y-80500000D01*
X68600000Y-80500000D01*
X68600000Y-80900000D01*
X68200000Y-80900000D01*
G37*
G36*
X67800000Y-80900000D02*
X67800000Y-80500000D01*
X68200000Y-80500000D01*
X68200000Y-80900000D01*
X67800000Y-80900000D01*
G37*
G36*
X67400000Y-80900000D02*
X67400000Y-80500000D01*
X67800000Y-80500000D01*
X67800000Y-80900000D01*
X67400000Y-80900000D01*
G37*
G36*
X67000000Y-80900000D02*
X67000000Y-80500000D01*
X67400000Y-80500000D01*
X67400000Y-80900000D01*
X67000000Y-80900000D01*
G37*
G36*
X66600000Y-80900000D02*
X66600000Y-80500000D01*
X67000000Y-80500000D01*
X67000000Y-80900000D01*
X66600000Y-80900000D01*
G37*
G36*
X66200000Y-80900000D02*
X66200000Y-80500000D01*
X66600000Y-80500000D01*
X66600000Y-80900000D01*
X66200000Y-80900000D01*
G37*
G36*
X65800000Y-80900000D02*
X65800000Y-80500000D01*
X66200000Y-80500000D01*
X66200000Y-80900000D01*
X65800000Y-80900000D01*
G37*
G36*
X65400000Y-80900000D02*
X65400000Y-80500000D01*
X65800000Y-80500000D01*
X65800000Y-80900000D01*
X65400000Y-80900000D01*
G37*
G36*
X65000000Y-80900000D02*
X65000000Y-80500000D01*
X65400000Y-80500000D01*
X65400000Y-80900000D01*
X65000000Y-80900000D01*
G37*
G36*
X64600000Y-80900000D02*
X64600000Y-80500000D01*
X65000000Y-80500000D01*
X65000000Y-80900000D01*
X64600000Y-80900000D01*
G37*
G36*
X64200000Y-80900000D02*
X64200000Y-80500000D01*
X64600000Y-80500000D01*
X64600000Y-80900000D01*
X64200000Y-80900000D01*
G37*
G36*
X63800000Y-80900000D02*
X63800000Y-80500000D01*
X64200000Y-80500000D01*
X64200000Y-80900000D01*
X63800000Y-80900000D01*
G37*
G36*
X63400000Y-80900000D02*
X63400000Y-80500000D01*
X63800000Y-80500000D01*
X63800000Y-80900000D01*
X63400000Y-80900000D01*
G37*
G36*
X63000000Y-80900000D02*
X63000000Y-80500000D01*
X63400000Y-80500000D01*
X63400000Y-80900000D01*
X63000000Y-80900000D01*
G37*
G36*
X62600000Y-80900000D02*
X62600000Y-80500000D01*
X63000000Y-80500000D01*
X63000000Y-80900000D01*
X62600000Y-80900000D01*
G37*
G36*
X77000000Y-81300000D02*
X77000000Y-80900000D01*
X77400000Y-80900000D01*
X77400000Y-81300000D01*
X77000000Y-81300000D01*
G37*
G36*
X76600000Y-81300000D02*
X76600000Y-80900000D01*
X77000000Y-80900000D01*
X77000000Y-81300000D01*
X76600000Y-81300000D01*
G37*
G36*
X73400000Y-81300000D02*
X73400000Y-80900000D01*
X73800000Y-80900000D01*
X73800000Y-81300000D01*
X73400000Y-81300000D01*
G37*
G36*
X72600000Y-81300000D02*
X72600000Y-80900000D01*
X73000000Y-80900000D01*
X73000000Y-81300000D01*
X72600000Y-81300000D01*
G37*
G36*
X72200000Y-81300000D02*
X72200000Y-80900000D01*
X72600000Y-80900000D01*
X72600000Y-81300000D01*
X72200000Y-81300000D01*
G37*
G36*
X71400000Y-81300000D02*
X71400000Y-80900000D01*
X71800000Y-80900000D01*
X71800000Y-81300000D01*
X71400000Y-81300000D01*
G37*
G36*
X69400000Y-81300000D02*
X69400000Y-80900000D01*
X69800000Y-80900000D01*
X69800000Y-81300000D01*
X69400000Y-81300000D01*
G37*
G36*
X69000000Y-81300000D02*
X69000000Y-80900000D01*
X69400000Y-80900000D01*
X69400000Y-81300000D01*
X69000000Y-81300000D01*
G37*
G36*
X68600000Y-81300000D02*
X68600000Y-80900000D01*
X69000000Y-80900000D01*
X69000000Y-81300000D01*
X68600000Y-81300000D01*
G37*
G36*
X68200000Y-81300000D02*
X68200000Y-80900000D01*
X68600000Y-80900000D01*
X68600000Y-81300000D01*
X68200000Y-81300000D01*
G37*
G36*
X67800000Y-81300000D02*
X67800000Y-80900000D01*
X68200000Y-80900000D01*
X68200000Y-81300000D01*
X67800000Y-81300000D01*
G37*
G36*
X67400000Y-81300000D02*
X67400000Y-80900000D01*
X67800000Y-80900000D01*
X67800000Y-81300000D01*
X67400000Y-81300000D01*
G37*
G36*
X66600000Y-81300000D02*
X66600000Y-80900000D01*
X67000000Y-80900000D01*
X67000000Y-81300000D01*
X66600000Y-81300000D01*
G37*
G36*
X66200000Y-81300000D02*
X66200000Y-80900000D01*
X66600000Y-80900000D01*
X66600000Y-81300000D01*
X66200000Y-81300000D01*
G37*
G36*
X63000000Y-81300000D02*
X63000000Y-80900000D01*
X63400000Y-80900000D01*
X63400000Y-81300000D01*
X63000000Y-81300000D01*
G37*
G36*
X62600000Y-81300000D02*
X62600000Y-80900000D01*
X63000000Y-80900000D01*
X63000000Y-81300000D01*
X62600000Y-81300000D01*
G37*
G36*
X77000000Y-81700000D02*
X77000000Y-81300000D01*
X77400000Y-81300000D01*
X77400000Y-81700000D01*
X77000000Y-81700000D01*
G37*
G36*
X76600000Y-81700000D02*
X76600000Y-81300000D01*
X77000000Y-81300000D01*
X77000000Y-81700000D01*
X76600000Y-81700000D01*
G37*
G36*
X75800000Y-81700000D02*
X75800000Y-81300000D01*
X76200000Y-81300000D01*
X76200000Y-81700000D01*
X75800000Y-81700000D01*
G37*
G36*
X75400000Y-81700000D02*
X75400000Y-81300000D01*
X75800000Y-81300000D01*
X75800000Y-81700000D01*
X75400000Y-81700000D01*
G37*
G36*
X75000000Y-81700000D02*
X75000000Y-81300000D01*
X75400000Y-81300000D01*
X75400000Y-81700000D01*
X75000000Y-81700000D01*
G37*
G36*
X74600000Y-81700000D02*
X74600000Y-81300000D01*
X75000000Y-81300000D01*
X75000000Y-81700000D01*
X74600000Y-81700000D01*
G37*
G36*
X74200000Y-81700000D02*
X74200000Y-81300000D01*
X74600000Y-81300000D01*
X74600000Y-81700000D01*
X74200000Y-81700000D01*
G37*
G36*
X73400000Y-81700000D02*
X73400000Y-81300000D01*
X73800000Y-81300000D01*
X73800000Y-81700000D01*
X73400000Y-81700000D01*
G37*
G36*
X73000000Y-81700000D02*
X73000000Y-81300000D01*
X73400000Y-81300000D01*
X73400000Y-81700000D01*
X73000000Y-81700000D01*
G37*
G36*
X72200000Y-81700000D02*
X72200000Y-81300000D01*
X72600000Y-81300000D01*
X72600000Y-81700000D01*
X72200000Y-81700000D01*
G37*
G36*
X70200000Y-81700000D02*
X70200000Y-81300000D01*
X70600000Y-81300000D01*
X70600000Y-81700000D01*
X70200000Y-81700000D01*
G37*
G36*
X69400000Y-81700000D02*
X69400000Y-81300000D01*
X69800000Y-81300000D01*
X69800000Y-81700000D01*
X69400000Y-81700000D01*
G37*
G36*
X68200000Y-81700000D02*
X68200000Y-81300000D01*
X68600000Y-81300000D01*
X68600000Y-81700000D01*
X68200000Y-81700000D01*
G37*
G36*
X67800000Y-81700000D02*
X67800000Y-81300000D01*
X68200000Y-81300000D01*
X68200000Y-81700000D01*
X67800000Y-81700000D01*
G37*
G36*
X67400000Y-81700000D02*
X67400000Y-81300000D01*
X67800000Y-81300000D01*
X67800000Y-81700000D01*
X67400000Y-81700000D01*
G37*
G36*
X67000000Y-81700000D02*
X67000000Y-81300000D01*
X67400000Y-81300000D01*
X67400000Y-81700000D01*
X67000000Y-81700000D01*
G37*
G36*
X66600000Y-81700000D02*
X66600000Y-81300000D01*
X67000000Y-81300000D01*
X67000000Y-81700000D01*
X66600000Y-81700000D01*
G37*
G36*
X66200000Y-81700000D02*
X66200000Y-81300000D01*
X66600000Y-81300000D01*
X66600000Y-81700000D01*
X66200000Y-81700000D01*
G37*
G36*
X65400000Y-81700000D02*
X65400000Y-81300000D01*
X65800000Y-81300000D01*
X65800000Y-81700000D01*
X65400000Y-81700000D01*
G37*
G36*
X65000000Y-81700000D02*
X65000000Y-81300000D01*
X65400000Y-81300000D01*
X65400000Y-81700000D01*
X65000000Y-81700000D01*
G37*
G36*
X64600000Y-81700000D02*
X64600000Y-81300000D01*
X65000000Y-81300000D01*
X65000000Y-81700000D01*
X64600000Y-81700000D01*
G37*
G36*
X64200000Y-81700000D02*
X64200000Y-81300000D01*
X64600000Y-81300000D01*
X64600000Y-81700000D01*
X64200000Y-81700000D01*
G37*
G36*
X63800000Y-81700000D02*
X63800000Y-81300000D01*
X64200000Y-81300000D01*
X64200000Y-81700000D01*
X63800000Y-81700000D01*
G37*
G36*
X63000000Y-81700000D02*
X63000000Y-81300000D01*
X63400000Y-81300000D01*
X63400000Y-81700000D01*
X63000000Y-81700000D01*
G37*
G36*
X62600000Y-81700000D02*
X62600000Y-81300000D01*
X63000000Y-81300000D01*
X63000000Y-81700000D01*
X62600000Y-81700000D01*
G37*
G36*
X77000000Y-82100000D02*
X77000000Y-81700000D01*
X77400000Y-81700000D01*
X77400000Y-82100000D01*
X77000000Y-82100000D01*
G37*
G36*
X76600000Y-82100000D02*
X76600000Y-81700000D01*
X77000000Y-81700000D01*
X77000000Y-82100000D01*
X76600000Y-82100000D01*
G37*
G36*
X75800000Y-82100000D02*
X75800000Y-81700000D01*
X76200000Y-81700000D01*
X76200000Y-82100000D01*
X75800000Y-82100000D01*
G37*
G36*
X74200000Y-82100000D02*
X74200000Y-81700000D01*
X74600000Y-81700000D01*
X74600000Y-82100000D01*
X74200000Y-82100000D01*
G37*
G36*
X73400000Y-82100000D02*
X73400000Y-81700000D01*
X73800000Y-81700000D01*
X73800000Y-82100000D01*
X73400000Y-82100000D01*
G37*
G36*
X73000000Y-82100000D02*
X73000000Y-81700000D01*
X73400000Y-81700000D01*
X73400000Y-82100000D01*
X73000000Y-82100000D01*
G37*
G36*
X71800000Y-82100000D02*
X71800000Y-81700000D01*
X72200000Y-81700000D01*
X72200000Y-82100000D01*
X71800000Y-82100000D01*
G37*
G36*
X71400000Y-82100000D02*
X71400000Y-81700000D01*
X71800000Y-81700000D01*
X71800000Y-82100000D01*
X71400000Y-82100000D01*
G37*
G36*
X71000000Y-82100000D02*
X71000000Y-81700000D01*
X71400000Y-81700000D01*
X71400000Y-82100000D01*
X71000000Y-82100000D01*
G37*
G36*
X68600000Y-82100000D02*
X68600000Y-81700000D01*
X69000000Y-81700000D01*
X69000000Y-82100000D01*
X68600000Y-82100000D01*
G37*
G36*
X68200000Y-82100000D02*
X68200000Y-81700000D01*
X68600000Y-81700000D01*
X68600000Y-82100000D01*
X68200000Y-82100000D01*
G37*
G36*
X67400000Y-82100000D02*
X67400000Y-81700000D01*
X67800000Y-81700000D01*
X67800000Y-82100000D01*
X67400000Y-82100000D01*
G37*
G36*
X66200000Y-82100000D02*
X66200000Y-81700000D01*
X66600000Y-81700000D01*
X66600000Y-82100000D01*
X66200000Y-82100000D01*
G37*
G36*
X65400000Y-82100000D02*
X65400000Y-81700000D01*
X65800000Y-81700000D01*
X65800000Y-82100000D01*
X65400000Y-82100000D01*
G37*
G36*
X63800000Y-82100000D02*
X63800000Y-81700000D01*
X64200000Y-81700000D01*
X64200000Y-82100000D01*
X63800000Y-82100000D01*
G37*
G36*
X63000000Y-82100000D02*
X63000000Y-81700000D01*
X63400000Y-81700000D01*
X63400000Y-82100000D01*
X63000000Y-82100000D01*
G37*
G36*
X62600000Y-82100000D02*
X62600000Y-81700000D01*
X63000000Y-81700000D01*
X63000000Y-82100000D01*
X62600000Y-82100000D01*
G37*
G36*
X77000000Y-82500000D02*
X77000000Y-82100000D01*
X77400000Y-82100000D01*
X77400000Y-82500000D01*
X77000000Y-82500000D01*
G37*
G36*
X76600000Y-82500000D02*
X76600000Y-82100000D01*
X77000000Y-82100000D01*
X77000000Y-82500000D01*
X76600000Y-82500000D01*
G37*
G36*
X75800000Y-82500000D02*
X75800000Y-82100000D01*
X76200000Y-82100000D01*
X76200000Y-82500000D01*
X75800000Y-82500000D01*
G37*
G36*
X74200000Y-82500000D02*
X74200000Y-82100000D01*
X74600000Y-82100000D01*
X74600000Y-82500000D01*
X74200000Y-82500000D01*
G37*
G36*
X73400000Y-82500000D02*
X73400000Y-82100000D01*
X73800000Y-82100000D01*
X73800000Y-82500000D01*
X73400000Y-82500000D01*
G37*
G36*
X71800000Y-82500000D02*
X71800000Y-82100000D01*
X72200000Y-82100000D01*
X72200000Y-82500000D01*
X71800000Y-82500000D01*
G37*
G36*
X71400000Y-82500000D02*
X71400000Y-82100000D01*
X71800000Y-82100000D01*
X71800000Y-82500000D01*
X71400000Y-82500000D01*
G37*
G36*
X71000000Y-82500000D02*
X71000000Y-82100000D01*
X71400000Y-82100000D01*
X71400000Y-82500000D01*
X71000000Y-82500000D01*
G37*
G36*
X70600000Y-82500000D02*
X70600000Y-82100000D01*
X71000000Y-82100000D01*
X71000000Y-82500000D01*
X70600000Y-82500000D01*
G37*
G36*
X69000000Y-82500000D02*
X69000000Y-82100000D01*
X69400000Y-82100000D01*
X69400000Y-82500000D01*
X69000000Y-82500000D01*
G37*
G36*
X68600000Y-82500000D02*
X68600000Y-82100000D01*
X69000000Y-82100000D01*
X69000000Y-82500000D01*
X68600000Y-82500000D01*
G37*
G36*
X68200000Y-82500000D02*
X68200000Y-82100000D01*
X68600000Y-82100000D01*
X68600000Y-82500000D01*
X68200000Y-82500000D01*
G37*
G36*
X66600000Y-82500000D02*
X66600000Y-82100000D01*
X67000000Y-82100000D01*
X67000000Y-82500000D01*
X66600000Y-82500000D01*
G37*
G36*
X66200000Y-82500000D02*
X66200000Y-82100000D01*
X66600000Y-82100000D01*
X66600000Y-82500000D01*
X66200000Y-82500000D01*
G37*
G36*
X65400000Y-82500000D02*
X65400000Y-82100000D01*
X65800000Y-82100000D01*
X65800000Y-82500000D01*
X65400000Y-82500000D01*
G37*
G36*
X63800000Y-82500000D02*
X63800000Y-82100000D01*
X64200000Y-82100000D01*
X64200000Y-82500000D01*
X63800000Y-82500000D01*
G37*
G36*
X63000000Y-82500000D02*
X63000000Y-82100000D01*
X63400000Y-82100000D01*
X63400000Y-82500000D01*
X63000000Y-82500000D01*
G37*
G36*
X62600000Y-82500000D02*
X62600000Y-82100000D01*
X63000000Y-82100000D01*
X63000000Y-82500000D01*
X62600000Y-82500000D01*
G37*
G36*
X77000000Y-82900000D02*
X77000000Y-82500000D01*
X77400000Y-82500000D01*
X77400000Y-82900000D01*
X77000000Y-82900000D01*
G37*
G36*
X76600000Y-82900000D02*
X76600000Y-82500000D01*
X77000000Y-82500000D01*
X77000000Y-82900000D01*
X76600000Y-82900000D01*
G37*
G36*
X75800000Y-82900000D02*
X75800000Y-82500000D01*
X76200000Y-82500000D01*
X76200000Y-82900000D01*
X75800000Y-82900000D01*
G37*
G36*
X74200000Y-82900000D02*
X74200000Y-82500000D01*
X74600000Y-82500000D01*
X74600000Y-82900000D01*
X74200000Y-82900000D01*
G37*
G36*
X73400000Y-82900000D02*
X73400000Y-82500000D01*
X73800000Y-82500000D01*
X73800000Y-82900000D01*
X73400000Y-82900000D01*
G37*
G36*
X71400000Y-82900000D02*
X71400000Y-82500000D01*
X71800000Y-82500000D01*
X71800000Y-82900000D01*
X71400000Y-82900000D01*
G37*
G36*
X70600000Y-82900000D02*
X70600000Y-82500000D01*
X71000000Y-82500000D01*
X71000000Y-82900000D01*
X70600000Y-82900000D01*
G37*
G36*
X70200000Y-82900000D02*
X70200000Y-82500000D01*
X70600000Y-82500000D01*
X70600000Y-82900000D01*
X70200000Y-82900000D01*
G37*
G36*
X69400000Y-82900000D02*
X69400000Y-82500000D01*
X69800000Y-82500000D01*
X69800000Y-82900000D01*
X69400000Y-82900000D01*
G37*
G36*
X69000000Y-82900000D02*
X69000000Y-82500000D01*
X69400000Y-82500000D01*
X69400000Y-82900000D01*
X69000000Y-82900000D01*
G37*
G36*
X68200000Y-82900000D02*
X68200000Y-82500000D01*
X68600000Y-82500000D01*
X68600000Y-82900000D01*
X68200000Y-82900000D01*
G37*
G36*
X67800000Y-82900000D02*
X67800000Y-82500000D01*
X68200000Y-82500000D01*
X68200000Y-82900000D01*
X67800000Y-82900000D01*
G37*
G36*
X67000000Y-82900000D02*
X67000000Y-82500000D01*
X67400000Y-82500000D01*
X67400000Y-82900000D01*
X67000000Y-82900000D01*
G37*
G36*
X66600000Y-82900000D02*
X66600000Y-82500000D01*
X67000000Y-82500000D01*
X67000000Y-82900000D01*
X66600000Y-82900000D01*
G37*
G36*
X66200000Y-82900000D02*
X66200000Y-82500000D01*
X66600000Y-82500000D01*
X66600000Y-82900000D01*
X66200000Y-82900000D01*
G37*
G36*
X65400000Y-82900000D02*
X65400000Y-82500000D01*
X65800000Y-82500000D01*
X65800000Y-82900000D01*
X65400000Y-82900000D01*
G37*
G36*
X63800000Y-82900000D02*
X63800000Y-82500000D01*
X64200000Y-82500000D01*
X64200000Y-82900000D01*
X63800000Y-82900000D01*
G37*
G36*
X63000000Y-82900000D02*
X63000000Y-82500000D01*
X63400000Y-82500000D01*
X63400000Y-82900000D01*
X63000000Y-82900000D01*
G37*
G36*
X62600000Y-82900000D02*
X62600000Y-82500000D01*
X63000000Y-82500000D01*
X63000000Y-82900000D01*
X62600000Y-82900000D01*
G37*
G36*
X77000000Y-83300000D02*
X77000000Y-82900000D01*
X77400000Y-82900000D01*
X77400000Y-83300000D01*
X77000000Y-83300000D01*
G37*
G36*
X76600000Y-83300000D02*
X76600000Y-82900000D01*
X77000000Y-82900000D01*
X77000000Y-83300000D01*
X76600000Y-83300000D01*
G37*
G36*
X75800000Y-83300000D02*
X75800000Y-82900000D01*
X76200000Y-82900000D01*
X76200000Y-83300000D01*
X75800000Y-83300000D01*
G37*
G36*
X75400000Y-83300000D02*
X75400000Y-82900000D01*
X75800000Y-82900000D01*
X75800000Y-83300000D01*
X75400000Y-83300000D01*
G37*
G36*
X75000000Y-83300000D02*
X75000000Y-82900000D01*
X75400000Y-82900000D01*
X75400000Y-83300000D01*
X75000000Y-83300000D01*
G37*
G36*
X74600000Y-83300000D02*
X74600000Y-82900000D01*
X75000000Y-82900000D01*
X75000000Y-83300000D01*
X74600000Y-83300000D01*
G37*
G36*
X74200000Y-83300000D02*
X74200000Y-82900000D01*
X74600000Y-82900000D01*
X74600000Y-83300000D01*
X74200000Y-83300000D01*
G37*
G36*
X73400000Y-83300000D02*
X73400000Y-82900000D01*
X73800000Y-82900000D01*
X73800000Y-83300000D01*
X73400000Y-83300000D01*
G37*
G36*
X72200000Y-83300000D02*
X72200000Y-82900000D01*
X72600000Y-82900000D01*
X72600000Y-83300000D01*
X72200000Y-83300000D01*
G37*
G36*
X71800000Y-83300000D02*
X71800000Y-82900000D01*
X72200000Y-82900000D01*
X72200000Y-83300000D01*
X71800000Y-83300000D01*
G37*
G36*
X70600000Y-83300000D02*
X70600000Y-82900000D01*
X71000000Y-82900000D01*
X71000000Y-83300000D01*
X70600000Y-83300000D01*
G37*
G36*
X69800000Y-83300000D02*
X69800000Y-82900000D01*
X70200000Y-82900000D01*
X70200000Y-83300000D01*
X69800000Y-83300000D01*
G37*
G36*
X68600000Y-83300000D02*
X68600000Y-82900000D01*
X69000000Y-82900000D01*
X69000000Y-83300000D01*
X68600000Y-83300000D01*
G37*
G36*
X67400000Y-83300000D02*
X67400000Y-82900000D01*
X67800000Y-82900000D01*
X67800000Y-83300000D01*
X67400000Y-83300000D01*
G37*
G36*
X66200000Y-83300000D02*
X66200000Y-82900000D01*
X66600000Y-82900000D01*
X66600000Y-83300000D01*
X66200000Y-83300000D01*
G37*
G36*
X65400000Y-83300000D02*
X65400000Y-82900000D01*
X65800000Y-82900000D01*
X65800000Y-83300000D01*
X65400000Y-83300000D01*
G37*
G36*
X65000000Y-83300000D02*
X65000000Y-82900000D01*
X65400000Y-82900000D01*
X65400000Y-83300000D01*
X65000000Y-83300000D01*
G37*
G36*
X64600000Y-83300000D02*
X64600000Y-82900000D01*
X65000000Y-82900000D01*
X65000000Y-83300000D01*
X64600000Y-83300000D01*
G37*
G36*
X64200000Y-83300000D02*
X64200000Y-82900000D01*
X64600000Y-82900000D01*
X64600000Y-83300000D01*
X64200000Y-83300000D01*
G37*
G36*
X63800000Y-83300000D02*
X63800000Y-82900000D01*
X64200000Y-82900000D01*
X64200000Y-83300000D01*
X63800000Y-83300000D01*
G37*
G36*
X63000000Y-83300000D02*
X63000000Y-82900000D01*
X63400000Y-82900000D01*
X63400000Y-83300000D01*
X63000000Y-83300000D01*
G37*
G36*
X62600000Y-83300000D02*
X62600000Y-82900000D01*
X63000000Y-82900000D01*
X63000000Y-83300000D01*
X62600000Y-83300000D01*
G37*
G36*
X77000000Y-83700000D02*
X77000000Y-83300000D01*
X77400000Y-83300000D01*
X77400000Y-83700000D01*
X77000000Y-83700000D01*
G37*
G36*
X76600000Y-83700000D02*
X76600000Y-83300000D01*
X77000000Y-83300000D01*
X77000000Y-83700000D01*
X76600000Y-83700000D01*
G37*
G36*
X73400000Y-83700000D02*
X73400000Y-83300000D01*
X73800000Y-83300000D01*
X73800000Y-83700000D01*
X73400000Y-83700000D01*
G37*
G36*
X72600000Y-83700000D02*
X72600000Y-83300000D01*
X73000000Y-83300000D01*
X73000000Y-83700000D01*
X72600000Y-83700000D01*
G37*
G36*
X71800000Y-83700000D02*
X71800000Y-83300000D01*
X72200000Y-83300000D01*
X72200000Y-83700000D01*
X71800000Y-83700000D01*
G37*
G36*
X71000000Y-83700000D02*
X71000000Y-83300000D01*
X71400000Y-83300000D01*
X71400000Y-83700000D01*
X71000000Y-83700000D01*
G37*
G36*
X70200000Y-83700000D02*
X70200000Y-83300000D01*
X70600000Y-83300000D01*
X70600000Y-83700000D01*
X70200000Y-83700000D01*
G37*
G36*
X69400000Y-83700000D02*
X69400000Y-83300000D01*
X69800000Y-83300000D01*
X69800000Y-83700000D01*
X69400000Y-83700000D01*
G37*
G36*
X68600000Y-83700000D02*
X68600000Y-83300000D01*
X69000000Y-83300000D01*
X69000000Y-83700000D01*
X68600000Y-83700000D01*
G37*
G36*
X67800000Y-83700000D02*
X67800000Y-83300000D01*
X68200000Y-83300000D01*
X68200000Y-83700000D01*
X67800000Y-83700000D01*
G37*
G36*
X67000000Y-83700000D02*
X67000000Y-83300000D01*
X67400000Y-83300000D01*
X67400000Y-83700000D01*
X67000000Y-83700000D01*
G37*
G36*
X66200000Y-83700000D02*
X66200000Y-83300000D01*
X66600000Y-83300000D01*
X66600000Y-83700000D01*
X66200000Y-83700000D01*
G37*
G36*
X63000000Y-83700000D02*
X63000000Y-83300000D01*
X63400000Y-83300000D01*
X63400000Y-83700000D01*
X63000000Y-83700000D01*
G37*
G36*
X62600000Y-83700000D02*
X62600000Y-83300000D01*
X63000000Y-83300000D01*
X63000000Y-83700000D01*
X62600000Y-83700000D01*
G37*
G36*
X77000000Y-84100000D02*
X77000000Y-83700000D01*
X77400000Y-83700000D01*
X77400000Y-84100000D01*
X77000000Y-84100000D01*
G37*
G36*
X76600000Y-84100000D02*
X76600000Y-83700000D01*
X77000000Y-83700000D01*
X77000000Y-84100000D01*
X76600000Y-84100000D01*
G37*
G36*
X76200000Y-84100000D02*
X76200000Y-83700000D01*
X76600000Y-83700000D01*
X76600000Y-84100000D01*
X76200000Y-84100000D01*
G37*
G36*
X75800000Y-84100000D02*
X75800000Y-83700000D01*
X76200000Y-83700000D01*
X76200000Y-84100000D01*
X75800000Y-84100000D01*
G37*
G36*
X75400000Y-84100000D02*
X75400000Y-83700000D01*
X75800000Y-83700000D01*
X75800000Y-84100000D01*
X75400000Y-84100000D01*
G37*
G36*
X75000000Y-84100000D02*
X75000000Y-83700000D01*
X75400000Y-83700000D01*
X75400000Y-84100000D01*
X75000000Y-84100000D01*
G37*
G36*
X74600000Y-84100000D02*
X74600000Y-83700000D01*
X75000000Y-83700000D01*
X75000000Y-84100000D01*
X74600000Y-84100000D01*
G37*
G36*
X74200000Y-84100000D02*
X74200000Y-83700000D01*
X74600000Y-83700000D01*
X74600000Y-84100000D01*
X74200000Y-84100000D01*
G37*
G36*
X73800000Y-84100000D02*
X73800000Y-83700000D01*
X74200000Y-83700000D01*
X74200000Y-84100000D01*
X73800000Y-84100000D01*
G37*
G36*
X73400000Y-84100000D02*
X73400000Y-83700000D01*
X73800000Y-83700000D01*
X73800000Y-84100000D01*
X73400000Y-84100000D01*
G37*
G36*
X72200000Y-84100000D02*
X72200000Y-83700000D01*
X72600000Y-83700000D01*
X72600000Y-84100000D01*
X72200000Y-84100000D01*
G37*
G36*
X71800000Y-84100000D02*
X71800000Y-83700000D01*
X72200000Y-83700000D01*
X72200000Y-84100000D01*
X71800000Y-84100000D01*
G37*
G36*
X71400000Y-84100000D02*
X71400000Y-83700000D01*
X71800000Y-83700000D01*
X71800000Y-84100000D01*
X71400000Y-84100000D01*
G37*
G36*
X71000000Y-84100000D02*
X71000000Y-83700000D01*
X71400000Y-83700000D01*
X71400000Y-84100000D01*
X71000000Y-84100000D01*
G37*
G36*
X70600000Y-84100000D02*
X70600000Y-83700000D01*
X71000000Y-83700000D01*
X71000000Y-84100000D01*
X70600000Y-84100000D01*
G37*
G36*
X70200000Y-84100000D02*
X70200000Y-83700000D01*
X70600000Y-83700000D01*
X70600000Y-84100000D01*
X70200000Y-84100000D01*
G37*
G36*
X69800000Y-84100000D02*
X69800000Y-83700000D01*
X70200000Y-83700000D01*
X70200000Y-84100000D01*
X69800000Y-84100000D01*
G37*
G36*
X69000000Y-84100000D02*
X69000000Y-83700000D01*
X69400000Y-83700000D01*
X69400000Y-84100000D01*
X69000000Y-84100000D01*
G37*
G36*
X67000000Y-84100000D02*
X67000000Y-83700000D01*
X67400000Y-83700000D01*
X67400000Y-84100000D01*
X67000000Y-84100000D01*
G37*
G36*
X66200000Y-84100000D02*
X66200000Y-83700000D01*
X66600000Y-83700000D01*
X66600000Y-84100000D01*
X66200000Y-84100000D01*
G37*
G36*
X65800000Y-84100000D02*
X65800000Y-83700000D01*
X66200000Y-83700000D01*
X66200000Y-84100000D01*
X65800000Y-84100000D01*
G37*
G36*
X65400000Y-84100000D02*
X65400000Y-83700000D01*
X65800000Y-83700000D01*
X65800000Y-84100000D01*
X65400000Y-84100000D01*
G37*
G36*
X65000000Y-84100000D02*
X65000000Y-83700000D01*
X65400000Y-83700000D01*
X65400000Y-84100000D01*
X65000000Y-84100000D01*
G37*
G36*
X64600000Y-84100000D02*
X64600000Y-83700000D01*
X65000000Y-83700000D01*
X65000000Y-84100000D01*
X64600000Y-84100000D01*
G37*
G36*
X64200000Y-84100000D02*
X64200000Y-83700000D01*
X64600000Y-83700000D01*
X64600000Y-84100000D01*
X64200000Y-84100000D01*
G37*
G36*
X63800000Y-84100000D02*
X63800000Y-83700000D01*
X64200000Y-83700000D01*
X64200000Y-84100000D01*
X63800000Y-84100000D01*
G37*
G36*
X63400000Y-84100000D02*
X63400000Y-83700000D01*
X63800000Y-83700000D01*
X63800000Y-84100000D01*
X63400000Y-84100000D01*
G37*
G36*
X63000000Y-84100000D02*
X63000000Y-83700000D01*
X63400000Y-83700000D01*
X63400000Y-84100000D01*
X63000000Y-84100000D01*
G37*
G36*
X62600000Y-84100000D02*
X62600000Y-83700000D01*
X63000000Y-83700000D01*
X63000000Y-84100000D01*
X62600000Y-84100000D01*
G37*
G36*
X77000000Y-84500000D02*
X77000000Y-84100000D01*
X77400000Y-84100000D01*
X77400000Y-84500000D01*
X77000000Y-84500000D01*
G37*
G36*
X76600000Y-84500000D02*
X76600000Y-84100000D01*
X77000000Y-84100000D01*
X77000000Y-84500000D01*
X76600000Y-84500000D01*
G37*
G36*
X75800000Y-84500000D02*
X75800000Y-84100000D01*
X76200000Y-84100000D01*
X76200000Y-84500000D01*
X75800000Y-84500000D01*
G37*
G36*
X75400000Y-84500000D02*
X75400000Y-84100000D01*
X75800000Y-84100000D01*
X75800000Y-84500000D01*
X75400000Y-84500000D01*
G37*
G36*
X75000000Y-84500000D02*
X75000000Y-84100000D01*
X75400000Y-84100000D01*
X75400000Y-84500000D01*
X75000000Y-84500000D01*
G37*
G36*
X74200000Y-84500000D02*
X74200000Y-84100000D01*
X74600000Y-84100000D01*
X74600000Y-84500000D01*
X74200000Y-84500000D01*
G37*
G36*
X72600000Y-84500000D02*
X72600000Y-84100000D01*
X73000000Y-84100000D01*
X73000000Y-84500000D01*
X72600000Y-84500000D01*
G37*
G36*
X71800000Y-84500000D02*
X71800000Y-84100000D01*
X72200000Y-84100000D01*
X72200000Y-84500000D01*
X71800000Y-84500000D01*
G37*
G36*
X71000000Y-84500000D02*
X71000000Y-84100000D01*
X71400000Y-84100000D01*
X71400000Y-84500000D01*
X71000000Y-84500000D01*
G37*
G36*
X70600000Y-84500000D02*
X70600000Y-84100000D01*
X71000000Y-84100000D01*
X71000000Y-84500000D01*
X70600000Y-84500000D01*
G37*
G36*
X69800000Y-84500000D02*
X69800000Y-84100000D01*
X70200000Y-84100000D01*
X70200000Y-84500000D01*
X69800000Y-84500000D01*
G37*
G36*
X69000000Y-84500000D02*
X69000000Y-84100000D01*
X69400000Y-84100000D01*
X69400000Y-84500000D01*
X69000000Y-84500000D01*
G37*
G36*
X68600000Y-84500000D02*
X68600000Y-84100000D01*
X69000000Y-84100000D01*
X69000000Y-84500000D01*
X68600000Y-84500000D01*
G37*
G36*
X67400000Y-84500000D02*
X67400000Y-84100000D01*
X67800000Y-84100000D01*
X67800000Y-84500000D01*
X67400000Y-84500000D01*
G37*
G36*
X66600000Y-84500000D02*
X66600000Y-84100000D01*
X67000000Y-84100000D01*
X67000000Y-84500000D01*
X66600000Y-84500000D01*
G37*
G36*
X64200000Y-84500000D02*
X64200000Y-84100000D01*
X64600000Y-84100000D01*
X64600000Y-84500000D01*
X64200000Y-84500000D01*
G37*
G36*
X63800000Y-84500000D02*
X63800000Y-84100000D01*
X64200000Y-84100000D01*
X64200000Y-84500000D01*
X63800000Y-84500000D01*
G37*
G36*
X63000000Y-84500000D02*
X63000000Y-84100000D01*
X63400000Y-84100000D01*
X63400000Y-84500000D01*
X63000000Y-84500000D01*
G37*
G36*
X62600000Y-84500000D02*
X62600000Y-84100000D01*
X63000000Y-84100000D01*
X63000000Y-84500000D01*
X62600000Y-84500000D01*
G37*
G36*
X77000000Y-84900000D02*
X77000000Y-84500000D01*
X77400000Y-84500000D01*
X77400000Y-84900000D01*
X77000000Y-84900000D01*
G37*
G36*
X76600000Y-84900000D02*
X76600000Y-84500000D01*
X77000000Y-84500000D01*
X77000000Y-84900000D01*
X76600000Y-84900000D01*
G37*
G36*
X75800000Y-84900000D02*
X75800000Y-84500000D01*
X76200000Y-84500000D01*
X76200000Y-84900000D01*
X75800000Y-84900000D01*
G37*
G36*
X75400000Y-84900000D02*
X75400000Y-84500000D01*
X75800000Y-84500000D01*
X75800000Y-84900000D01*
X75400000Y-84900000D01*
G37*
G36*
X75000000Y-84900000D02*
X75000000Y-84500000D01*
X75400000Y-84500000D01*
X75400000Y-84900000D01*
X75000000Y-84900000D01*
G37*
G36*
X74200000Y-84900000D02*
X74200000Y-84500000D01*
X74600000Y-84500000D01*
X74600000Y-84900000D01*
X74200000Y-84900000D01*
G37*
G36*
X73800000Y-84900000D02*
X73800000Y-84500000D01*
X74200000Y-84500000D01*
X74200000Y-84900000D01*
X73800000Y-84900000D01*
G37*
G36*
X72200000Y-84900000D02*
X72200000Y-84500000D01*
X72600000Y-84500000D01*
X72600000Y-84900000D01*
X72200000Y-84900000D01*
G37*
G36*
X71800000Y-84900000D02*
X71800000Y-84500000D01*
X72200000Y-84500000D01*
X72200000Y-84900000D01*
X71800000Y-84900000D01*
G37*
G36*
X71400000Y-84900000D02*
X71400000Y-84500000D01*
X71800000Y-84500000D01*
X71800000Y-84900000D01*
X71400000Y-84900000D01*
G37*
G36*
X71000000Y-84900000D02*
X71000000Y-84500000D01*
X71400000Y-84500000D01*
X71400000Y-84900000D01*
X71000000Y-84900000D01*
G37*
G36*
X68600000Y-84900000D02*
X68600000Y-84500000D01*
X69000000Y-84500000D01*
X69000000Y-84900000D01*
X68600000Y-84900000D01*
G37*
G36*
X68200000Y-84900000D02*
X68200000Y-84500000D01*
X68600000Y-84500000D01*
X68600000Y-84900000D01*
X68200000Y-84900000D01*
G37*
G36*
X67400000Y-84900000D02*
X67400000Y-84500000D01*
X67800000Y-84500000D01*
X67800000Y-84900000D01*
X67400000Y-84900000D01*
G37*
G36*
X66600000Y-84900000D02*
X66600000Y-84500000D01*
X67000000Y-84500000D01*
X67000000Y-84900000D01*
X66600000Y-84900000D01*
G37*
G36*
X65800000Y-84900000D02*
X65800000Y-84500000D01*
X66200000Y-84500000D01*
X66200000Y-84900000D01*
X65800000Y-84900000D01*
G37*
G36*
X65400000Y-84900000D02*
X65400000Y-84500000D01*
X65800000Y-84500000D01*
X65800000Y-84900000D01*
X65400000Y-84900000D01*
G37*
G36*
X65000000Y-84900000D02*
X65000000Y-84500000D01*
X65400000Y-84500000D01*
X65400000Y-84900000D01*
X65000000Y-84900000D01*
G37*
G36*
X63400000Y-84900000D02*
X63400000Y-84500000D01*
X63800000Y-84500000D01*
X63800000Y-84900000D01*
X63400000Y-84900000D01*
G37*
G36*
X63000000Y-84900000D02*
X63000000Y-84500000D01*
X63400000Y-84500000D01*
X63400000Y-84900000D01*
X63000000Y-84900000D01*
G37*
G36*
X62600000Y-84900000D02*
X62600000Y-84500000D01*
X63000000Y-84500000D01*
X63000000Y-84900000D01*
X62600000Y-84900000D01*
G37*
G36*
X77000000Y-85300000D02*
X77000000Y-84900000D01*
X77400000Y-84900000D01*
X77400000Y-85300000D01*
X77000000Y-85300000D01*
G37*
G36*
X76600000Y-85300000D02*
X76600000Y-84900000D01*
X77000000Y-84900000D01*
X77000000Y-85300000D01*
X76600000Y-85300000D01*
G37*
G36*
X76200000Y-85300000D02*
X76200000Y-84900000D01*
X76600000Y-84900000D01*
X76600000Y-85300000D01*
X76200000Y-85300000D01*
G37*
G36*
X74600000Y-85300000D02*
X74600000Y-84900000D01*
X75000000Y-84900000D01*
X75000000Y-85300000D01*
X74600000Y-85300000D01*
G37*
G36*
X73400000Y-85300000D02*
X73400000Y-84900000D01*
X73800000Y-84900000D01*
X73800000Y-85300000D01*
X73400000Y-85300000D01*
G37*
G36*
X71800000Y-85300000D02*
X71800000Y-84900000D01*
X72200000Y-84900000D01*
X72200000Y-85300000D01*
X71800000Y-85300000D01*
G37*
G36*
X69400000Y-85300000D02*
X69400000Y-84900000D01*
X69800000Y-84900000D01*
X69800000Y-85300000D01*
X69400000Y-85300000D01*
G37*
G36*
X68600000Y-85300000D02*
X68600000Y-84900000D01*
X69000000Y-84900000D01*
X69000000Y-85300000D01*
X68600000Y-85300000D01*
G37*
G36*
X68200000Y-85300000D02*
X68200000Y-84900000D01*
X68600000Y-84900000D01*
X68600000Y-85300000D01*
X68200000Y-85300000D01*
G37*
G36*
X67800000Y-85300000D02*
X67800000Y-84900000D01*
X68200000Y-84900000D01*
X68200000Y-85300000D01*
X67800000Y-85300000D01*
G37*
G36*
X67400000Y-85300000D02*
X67400000Y-84900000D01*
X67800000Y-84900000D01*
X67800000Y-85300000D01*
X67400000Y-85300000D01*
G37*
G36*
X66600000Y-85300000D02*
X66600000Y-84900000D01*
X67000000Y-84900000D01*
X67000000Y-85300000D01*
X66600000Y-85300000D01*
G37*
G36*
X65800000Y-85300000D02*
X65800000Y-84900000D01*
X66200000Y-84900000D01*
X66200000Y-85300000D01*
X65800000Y-85300000D01*
G37*
G36*
X65400000Y-85300000D02*
X65400000Y-84900000D01*
X65800000Y-84900000D01*
X65800000Y-85300000D01*
X65400000Y-85300000D01*
G37*
G36*
X65000000Y-85300000D02*
X65000000Y-84900000D01*
X65400000Y-84900000D01*
X65400000Y-85300000D01*
X65000000Y-85300000D01*
G37*
G36*
X64200000Y-85300000D02*
X64200000Y-84900000D01*
X64600000Y-84900000D01*
X64600000Y-85300000D01*
X64200000Y-85300000D01*
G37*
G36*
X63400000Y-85300000D02*
X63400000Y-84900000D01*
X63800000Y-84900000D01*
X63800000Y-85300000D01*
X63400000Y-85300000D01*
G37*
G36*
X63000000Y-85300000D02*
X63000000Y-84900000D01*
X63400000Y-84900000D01*
X63400000Y-85300000D01*
X63000000Y-85300000D01*
G37*
G36*
X62600000Y-85300000D02*
X62600000Y-84900000D01*
X63000000Y-84900000D01*
X63000000Y-85300000D01*
X62600000Y-85300000D01*
G37*
G36*
X77000000Y-85700000D02*
X77000000Y-85300000D01*
X77400000Y-85300000D01*
X77400000Y-85700000D01*
X77000000Y-85700000D01*
G37*
G36*
X76600000Y-85700000D02*
X76600000Y-85300000D01*
X77000000Y-85300000D01*
X77000000Y-85700000D01*
X76600000Y-85700000D01*
G37*
G36*
X76200000Y-85700000D02*
X76200000Y-85300000D01*
X76600000Y-85300000D01*
X76600000Y-85700000D01*
X76200000Y-85700000D01*
G37*
G36*
X75400000Y-85700000D02*
X75400000Y-85300000D01*
X75800000Y-85300000D01*
X75800000Y-85700000D01*
X75400000Y-85700000D01*
G37*
G36*
X74600000Y-85700000D02*
X74600000Y-85300000D01*
X75000000Y-85300000D01*
X75000000Y-85700000D01*
X74600000Y-85700000D01*
G37*
G36*
X74200000Y-85700000D02*
X74200000Y-85300000D01*
X74600000Y-85300000D01*
X74600000Y-85700000D01*
X74200000Y-85700000D01*
G37*
G36*
X73800000Y-85700000D02*
X73800000Y-85300000D01*
X74200000Y-85300000D01*
X74200000Y-85700000D01*
X73800000Y-85700000D01*
G37*
G36*
X73400000Y-85700000D02*
X73400000Y-85300000D01*
X73800000Y-85300000D01*
X73800000Y-85700000D01*
X73400000Y-85700000D01*
G37*
G36*
X73000000Y-85700000D02*
X73000000Y-85300000D01*
X73400000Y-85300000D01*
X73400000Y-85700000D01*
X73000000Y-85700000D01*
G37*
G36*
X72600000Y-85700000D02*
X72600000Y-85300000D01*
X73000000Y-85300000D01*
X73000000Y-85700000D01*
X72600000Y-85700000D01*
G37*
G36*
X72200000Y-85700000D02*
X72200000Y-85300000D01*
X72600000Y-85300000D01*
X72600000Y-85700000D01*
X72200000Y-85700000D01*
G37*
G36*
X71800000Y-85700000D02*
X71800000Y-85300000D01*
X72200000Y-85300000D01*
X72200000Y-85700000D01*
X71800000Y-85700000D01*
G37*
G36*
X71400000Y-85700000D02*
X71400000Y-85300000D01*
X71800000Y-85300000D01*
X71800000Y-85700000D01*
X71400000Y-85700000D01*
G37*
G36*
X70600000Y-85700000D02*
X70600000Y-85300000D01*
X71000000Y-85300000D01*
X71000000Y-85700000D01*
X70600000Y-85700000D01*
G37*
G36*
X70200000Y-85700000D02*
X70200000Y-85300000D01*
X70600000Y-85300000D01*
X70600000Y-85700000D01*
X70200000Y-85700000D01*
G37*
G36*
X69400000Y-85700000D02*
X69400000Y-85300000D01*
X69800000Y-85300000D01*
X69800000Y-85700000D01*
X69400000Y-85700000D01*
G37*
G36*
X69000000Y-85700000D02*
X69000000Y-85300000D01*
X69400000Y-85300000D01*
X69400000Y-85700000D01*
X69000000Y-85700000D01*
G37*
G36*
X68600000Y-85700000D02*
X68600000Y-85300000D01*
X69000000Y-85300000D01*
X69000000Y-85700000D01*
X68600000Y-85700000D01*
G37*
G36*
X68200000Y-85700000D02*
X68200000Y-85300000D01*
X68600000Y-85300000D01*
X68600000Y-85700000D01*
X68200000Y-85700000D01*
G37*
G36*
X67800000Y-85700000D02*
X67800000Y-85300000D01*
X68200000Y-85300000D01*
X68200000Y-85700000D01*
X67800000Y-85700000D01*
G37*
G36*
X66600000Y-85700000D02*
X66600000Y-85300000D01*
X67000000Y-85300000D01*
X67000000Y-85700000D01*
X66600000Y-85700000D01*
G37*
G36*
X65800000Y-85700000D02*
X65800000Y-85300000D01*
X66200000Y-85300000D01*
X66200000Y-85700000D01*
X65800000Y-85700000D01*
G37*
G36*
X65400000Y-85700000D02*
X65400000Y-85300000D01*
X65800000Y-85300000D01*
X65800000Y-85700000D01*
X65400000Y-85700000D01*
G37*
G36*
X65000000Y-85700000D02*
X65000000Y-85300000D01*
X65400000Y-85300000D01*
X65400000Y-85700000D01*
X65000000Y-85700000D01*
G37*
G36*
X64600000Y-85700000D02*
X64600000Y-85300000D01*
X65000000Y-85300000D01*
X65000000Y-85700000D01*
X64600000Y-85700000D01*
G37*
G36*
X64200000Y-85700000D02*
X64200000Y-85300000D01*
X64600000Y-85300000D01*
X64600000Y-85700000D01*
X64200000Y-85700000D01*
G37*
G36*
X63800000Y-85700000D02*
X63800000Y-85300000D01*
X64200000Y-85300000D01*
X64200000Y-85700000D01*
X63800000Y-85700000D01*
G37*
G36*
X63400000Y-85700000D02*
X63400000Y-85300000D01*
X63800000Y-85300000D01*
X63800000Y-85700000D01*
X63400000Y-85700000D01*
G37*
G36*
X63000000Y-85700000D02*
X63000000Y-85300000D01*
X63400000Y-85300000D01*
X63400000Y-85700000D01*
X63000000Y-85700000D01*
G37*
G36*
X62600000Y-85700000D02*
X62600000Y-85300000D01*
X63000000Y-85300000D01*
X63000000Y-85700000D01*
X62600000Y-85700000D01*
G37*
G36*
X77000000Y-86100000D02*
X77000000Y-85700000D01*
X77400000Y-85700000D01*
X77400000Y-86100000D01*
X77000000Y-86100000D01*
G37*
G36*
X76600000Y-86100000D02*
X76600000Y-85700000D01*
X77000000Y-85700000D01*
X77000000Y-86100000D01*
X76600000Y-86100000D01*
G37*
G36*
X76200000Y-86100000D02*
X76200000Y-85700000D01*
X76600000Y-85700000D01*
X76600000Y-86100000D01*
X76200000Y-86100000D01*
G37*
G36*
X75800000Y-86100000D02*
X75800000Y-85700000D01*
X76200000Y-85700000D01*
X76200000Y-86100000D01*
X75800000Y-86100000D01*
G37*
G36*
X75000000Y-86100000D02*
X75000000Y-85700000D01*
X75400000Y-85700000D01*
X75400000Y-86100000D01*
X75000000Y-86100000D01*
G37*
G36*
X73000000Y-86100000D02*
X73000000Y-85700000D01*
X73400000Y-85700000D01*
X73400000Y-86100000D01*
X73000000Y-86100000D01*
G37*
G36*
X72600000Y-86100000D02*
X72600000Y-85700000D01*
X73000000Y-85700000D01*
X73000000Y-86100000D01*
X72600000Y-86100000D01*
G37*
G36*
X71800000Y-86100000D02*
X71800000Y-85700000D01*
X72200000Y-85700000D01*
X72200000Y-86100000D01*
X71800000Y-86100000D01*
G37*
G36*
X70600000Y-86100000D02*
X70600000Y-85700000D01*
X71000000Y-85700000D01*
X71000000Y-86100000D01*
X70600000Y-86100000D01*
G37*
G36*
X70200000Y-86100000D02*
X70200000Y-85700000D01*
X70600000Y-85700000D01*
X70600000Y-86100000D01*
X70200000Y-86100000D01*
G37*
G36*
X69400000Y-86100000D02*
X69400000Y-85700000D01*
X69800000Y-85700000D01*
X69800000Y-86100000D01*
X69400000Y-86100000D01*
G37*
G36*
X69000000Y-86100000D02*
X69000000Y-85700000D01*
X69400000Y-85700000D01*
X69400000Y-86100000D01*
X69000000Y-86100000D01*
G37*
G36*
X68600000Y-86100000D02*
X68600000Y-85700000D01*
X69000000Y-85700000D01*
X69000000Y-86100000D01*
X68600000Y-86100000D01*
G37*
G36*
X68200000Y-86100000D02*
X68200000Y-85700000D01*
X68600000Y-85700000D01*
X68600000Y-86100000D01*
X68200000Y-86100000D01*
G37*
G36*
X67800000Y-86100000D02*
X67800000Y-85700000D01*
X68200000Y-85700000D01*
X68200000Y-86100000D01*
X67800000Y-86100000D01*
G37*
G36*
X66600000Y-86100000D02*
X66600000Y-85700000D01*
X67000000Y-85700000D01*
X67000000Y-86100000D01*
X66600000Y-86100000D01*
G37*
G36*
X65400000Y-86100000D02*
X65400000Y-85700000D01*
X65800000Y-85700000D01*
X65800000Y-86100000D01*
X65400000Y-86100000D01*
G37*
G36*
X64200000Y-86100000D02*
X64200000Y-85700000D01*
X64600000Y-85700000D01*
X64600000Y-86100000D01*
X64200000Y-86100000D01*
G37*
G36*
X63800000Y-86100000D02*
X63800000Y-85700000D01*
X64200000Y-85700000D01*
X64200000Y-86100000D01*
X63800000Y-86100000D01*
G37*
G36*
X63000000Y-86100000D02*
X63000000Y-85700000D01*
X63400000Y-85700000D01*
X63400000Y-86100000D01*
X63000000Y-86100000D01*
G37*
G36*
X62600000Y-86100000D02*
X62600000Y-85700000D01*
X63000000Y-85700000D01*
X63000000Y-86100000D01*
X62600000Y-86100000D01*
G37*
G36*
X77000000Y-86500000D02*
X77000000Y-86100000D01*
X77400000Y-86100000D01*
X77400000Y-86500000D01*
X77000000Y-86500000D01*
G37*
G36*
X76600000Y-86500000D02*
X76600000Y-86100000D01*
X77000000Y-86100000D01*
X77000000Y-86500000D01*
X76600000Y-86500000D01*
G37*
G36*
X76200000Y-86500000D02*
X76200000Y-86100000D01*
X76600000Y-86100000D01*
X76600000Y-86500000D01*
X76200000Y-86500000D01*
G37*
G36*
X74600000Y-86500000D02*
X74600000Y-86100000D01*
X75000000Y-86100000D01*
X75000000Y-86500000D01*
X74600000Y-86500000D01*
G37*
G36*
X73800000Y-86500000D02*
X73800000Y-86100000D01*
X74200000Y-86100000D01*
X74200000Y-86500000D01*
X73800000Y-86500000D01*
G37*
G36*
X70200000Y-86500000D02*
X70200000Y-86100000D01*
X70600000Y-86100000D01*
X70600000Y-86500000D01*
X70200000Y-86500000D01*
G37*
G36*
X69800000Y-86500000D02*
X69800000Y-86100000D01*
X70200000Y-86100000D01*
X70200000Y-86500000D01*
X69800000Y-86500000D01*
G37*
G36*
X67400000Y-86500000D02*
X67400000Y-86100000D01*
X67800000Y-86100000D01*
X67800000Y-86500000D01*
X67400000Y-86500000D01*
G37*
G36*
X67000000Y-86500000D02*
X67000000Y-86100000D01*
X67400000Y-86100000D01*
X67400000Y-86500000D01*
X67000000Y-86500000D01*
G37*
G36*
X65000000Y-86500000D02*
X65000000Y-86100000D01*
X65400000Y-86100000D01*
X65400000Y-86500000D01*
X65000000Y-86500000D01*
G37*
G36*
X63800000Y-86500000D02*
X63800000Y-86100000D01*
X64200000Y-86100000D01*
X64200000Y-86500000D01*
X63800000Y-86500000D01*
G37*
G36*
X63400000Y-86500000D02*
X63400000Y-86100000D01*
X63800000Y-86100000D01*
X63800000Y-86500000D01*
X63400000Y-86500000D01*
G37*
G36*
X63000000Y-86500000D02*
X63000000Y-86100000D01*
X63400000Y-86100000D01*
X63400000Y-86500000D01*
X63000000Y-86500000D01*
G37*
G36*
X62600000Y-86500000D02*
X62600000Y-86100000D01*
X63000000Y-86100000D01*
X63000000Y-86500000D01*
X62600000Y-86500000D01*
G37*
G36*
X77000000Y-86900000D02*
X77000000Y-86500000D01*
X77400000Y-86500000D01*
X77400000Y-86900000D01*
X77000000Y-86900000D01*
G37*
G36*
X76600000Y-86900000D02*
X76600000Y-86500000D01*
X77000000Y-86500000D01*
X77000000Y-86900000D01*
X76600000Y-86900000D01*
G37*
G36*
X75800000Y-86900000D02*
X75800000Y-86500000D01*
X76200000Y-86500000D01*
X76200000Y-86900000D01*
X75800000Y-86900000D01*
G37*
G36*
X75400000Y-86900000D02*
X75400000Y-86500000D01*
X75800000Y-86500000D01*
X75800000Y-86900000D01*
X75400000Y-86900000D01*
G37*
G36*
X72600000Y-86900000D02*
X72600000Y-86500000D01*
X73000000Y-86500000D01*
X73000000Y-86900000D01*
X72600000Y-86900000D01*
G37*
G36*
X71400000Y-86900000D02*
X71400000Y-86500000D01*
X71800000Y-86500000D01*
X71800000Y-86900000D01*
X71400000Y-86900000D01*
G37*
G36*
X71000000Y-86900000D02*
X71000000Y-86500000D01*
X71400000Y-86500000D01*
X71400000Y-86900000D01*
X71000000Y-86900000D01*
G37*
G36*
X70600000Y-86900000D02*
X70600000Y-86500000D01*
X71000000Y-86500000D01*
X71000000Y-86900000D01*
X70600000Y-86900000D01*
G37*
G36*
X69800000Y-86900000D02*
X69800000Y-86500000D01*
X70200000Y-86500000D01*
X70200000Y-86900000D01*
X69800000Y-86900000D01*
G37*
G36*
X69400000Y-86900000D02*
X69400000Y-86500000D01*
X69800000Y-86500000D01*
X69800000Y-86900000D01*
X69400000Y-86900000D01*
G37*
G36*
X69000000Y-86900000D02*
X69000000Y-86500000D01*
X69400000Y-86500000D01*
X69400000Y-86900000D01*
X69000000Y-86900000D01*
G37*
G36*
X68600000Y-86900000D02*
X68600000Y-86500000D01*
X69000000Y-86500000D01*
X69000000Y-86900000D01*
X68600000Y-86900000D01*
G37*
G36*
X67800000Y-86900000D02*
X67800000Y-86500000D01*
X68200000Y-86500000D01*
X68200000Y-86900000D01*
X67800000Y-86900000D01*
G37*
G36*
X67400000Y-86900000D02*
X67400000Y-86500000D01*
X67800000Y-86500000D01*
X67800000Y-86900000D01*
X67400000Y-86900000D01*
G37*
G36*
X65400000Y-86900000D02*
X65400000Y-86500000D01*
X65800000Y-86500000D01*
X65800000Y-86900000D01*
X65400000Y-86900000D01*
G37*
G36*
X64600000Y-86900000D02*
X64600000Y-86500000D01*
X65000000Y-86500000D01*
X65000000Y-86900000D01*
X64600000Y-86900000D01*
G37*
G36*
X64200000Y-86900000D02*
X64200000Y-86500000D01*
X64600000Y-86500000D01*
X64600000Y-86900000D01*
X64200000Y-86900000D01*
G37*
G36*
X63400000Y-86900000D02*
X63400000Y-86500000D01*
X63800000Y-86500000D01*
X63800000Y-86900000D01*
X63400000Y-86900000D01*
G37*
G36*
X63000000Y-86900000D02*
X63000000Y-86500000D01*
X63400000Y-86500000D01*
X63400000Y-86900000D01*
X63000000Y-86900000D01*
G37*
G36*
X62600000Y-86900000D02*
X62600000Y-86500000D01*
X63000000Y-86500000D01*
X63000000Y-86900000D01*
X62600000Y-86900000D01*
G37*
G36*
X77000000Y-87300000D02*
X77000000Y-86900000D01*
X77400000Y-86900000D01*
X77400000Y-87300000D01*
X77000000Y-87300000D01*
G37*
G36*
X76600000Y-87300000D02*
X76600000Y-86900000D01*
X77000000Y-86900000D01*
X77000000Y-87300000D01*
X76600000Y-87300000D01*
G37*
G36*
X75000000Y-87300000D02*
X75000000Y-86900000D01*
X75400000Y-86900000D01*
X75400000Y-87300000D01*
X75000000Y-87300000D01*
G37*
G36*
X74600000Y-87300000D02*
X74600000Y-86900000D01*
X75000000Y-86900000D01*
X75000000Y-87300000D01*
X74600000Y-87300000D01*
G37*
G36*
X74200000Y-87300000D02*
X74200000Y-86900000D01*
X74600000Y-86900000D01*
X74600000Y-87300000D01*
X74200000Y-87300000D01*
G37*
G36*
X73800000Y-87300000D02*
X73800000Y-86900000D01*
X74200000Y-86900000D01*
X74200000Y-87300000D01*
X73800000Y-87300000D01*
G37*
G36*
X73400000Y-87300000D02*
X73400000Y-86900000D01*
X73800000Y-86900000D01*
X73800000Y-87300000D01*
X73400000Y-87300000D01*
G37*
G36*
X73000000Y-87300000D02*
X73000000Y-86900000D01*
X73400000Y-86900000D01*
X73400000Y-87300000D01*
X73000000Y-87300000D01*
G37*
G36*
X72600000Y-87300000D02*
X72600000Y-86900000D01*
X73000000Y-86900000D01*
X73000000Y-87300000D01*
X72600000Y-87300000D01*
G37*
G36*
X70600000Y-87300000D02*
X70600000Y-86900000D01*
X71000000Y-86900000D01*
X71000000Y-87300000D01*
X70600000Y-87300000D01*
G37*
G36*
X68600000Y-87300000D02*
X68600000Y-86900000D01*
X69000000Y-86900000D01*
X69000000Y-87300000D01*
X68600000Y-87300000D01*
G37*
G36*
X68200000Y-87300000D02*
X68200000Y-86900000D01*
X68600000Y-86900000D01*
X68600000Y-87300000D01*
X68200000Y-87300000D01*
G37*
G36*
X66600000Y-87300000D02*
X66600000Y-86900000D01*
X67000000Y-86900000D01*
X67000000Y-87300000D01*
X66600000Y-87300000D01*
G37*
G36*
X65400000Y-87300000D02*
X65400000Y-86900000D01*
X65800000Y-86900000D01*
X65800000Y-87300000D01*
X65400000Y-87300000D01*
G37*
G36*
X65000000Y-87300000D02*
X65000000Y-86900000D01*
X65400000Y-86900000D01*
X65400000Y-87300000D01*
X65000000Y-87300000D01*
G37*
G36*
X64600000Y-87300000D02*
X64600000Y-86900000D01*
X65000000Y-86900000D01*
X65000000Y-87300000D01*
X64600000Y-87300000D01*
G37*
G36*
X64200000Y-87300000D02*
X64200000Y-86900000D01*
X64600000Y-86900000D01*
X64600000Y-87300000D01*
X64200000Y-87300000D01*
G37*
G36*
X63800000Y-87300000D02*
X63800000Y-86900000D01*
X64200000Y-86900000D01*
X64200000Y-87300000D01*
X63800000Y-87300000D01*
G37*
G36*
X63400000Y-87300000D02*
X63400000Y-86900000D01*
X63800000Y-86900000D01*
X63800000Y-87300000D01*
X63400000Y-87300000D01*
G37*
G36*
X63000000Y-87300000D02*
X63000000Y-86900000D01*
X63400000Y-86900000D01*
X63400000Y-87300000D01*
X63000000Y-87300000D01*
G37*
G36*
X62600000Y-87300000D02*
X62600000Y-86900000D01*
X63000000Y-86900000D01*
X63000000Y-87300000D01*
X62600000Y-87300000D01*
G37*
G36*
X77000000Y-87700000D02*
X77000000Y-87300000D01*
X77400000Y-87300000D01*
X77400000Y-87700000D01*
X77000000Y-87700000D01*
G37*
G36*
X76600000Y-87700000D02*
X76600000Y-87300000D01*
X77000000Y-87300000D01*
X77000000Y-87700000D01*
X76600000Y-87700000D01*
G37*
G36*
X76200000Y-87700000D02*
X76200000Y-87300000D01*
X76600000Y-87300000D01*
X76600000Y-87700000D01*
X76200000Y-87700000D01*
G37*
G36*
X75400000Y-87700000D02*
X75400000Y-87300000D01*
X75800000Y-87300000D01*
X75800000Y-87700000D01*
X75400000Y-87700000D01*
G37*
G36*
X75000000Y-87700000D02*
X75000000Y-87300000D01*
X75400000Y-87300000D01*
X75400000Y-87700000D01*
X75000000Y-87700000D01*
G37*
G36*
X74600000Y-87700000D02*
X74600000Y-87300000D01*
X75000000Y-87300000D01*
X75000000Y-87700000D01*
X74600000Y-87700000D01*
G37*
G36*
X73000000Y-87700000D02*
X73000000Y-87300000D01*
X73400000Y-87300000D01*
X73400000Y-87700000D01*
X73000000Y-87700000D01*
G37*
G36*
X72600000Y-87700000D02*
X72600000Y-87300000D01*
X73000000Y-87300000D01*
X73000000Y-87700000D01*
X72600000Y-87700000D01*
G37*
G36*
X70200000Y-87700000D02*
X70200000Y-87300000D01*
X70600000Y-87300000D01*
X70600000Y-87700000D01*
X70200000Y-87700000D01*
G37*
G36*
X69800000Y-87700000D02*
X69800000Y-87300000D01*
X70200000Y-87300000D01*
X70200000Y-87700000D01*
X69800000Y-87700000D01*
G37*
G36*
X69000000Y-87700000D02*
X69000000Y-87300000D01*
X69400000Y-87300000D01*
X69400000Y-87700000D01*
X69000000Y-87700000D01*
G37*
G36*
X67000000Y-87700000D02*
X67000000Y-87300000D01*
X67400000Y-87300000D01*
X67400000Y-87700000D01*
X67000000Y-87700000D01*
G37*
G36*
X66200000Y-87700000D02*
X66200000Y-87300000D01*
X66600000Y-87300000D01*
X66600000Y-87700000D01*
X66200000Y-87700000D01*
G37*
G36*
X65400000Y-87700000D02*
X65400000Y-87300000D01*
X65800000Y-87300000D01*
X65800000Y-87700000D01*
X65400000Y-87700000D01*
G37*
G36*
X64600000Y-87700000D02*
X64600000Y-87300000D01*
X65000000Y-87300000D01*
X65000000Y-87700000D01*
X64600000Y-87700000D01*
G37*
G36*
X64200000Y-87700000D02*
X64200000Y-87300000D01*
X64600000Y-87300000D01*
X64600000Y-87700000D01*
X64200000Y-87700000D01*
G37*
G36*
X63400000Y-87700000D02*
X63400000Y-87300000D01*
X63800000Y-87300000D01*
X63800000Y-87700000D01*
X63400000Y-87700000D01*
G37*
G36*
X63000000Y-87700000D02*
X63000000Y-87300000D01*
X63400000Y-87300000D01*
X63400000Y-87700000D01*
X63000000Y-87700000D01*
G37*
G36*
X62600000Y-87700000D02*
X62600000Y-87300000D01*
X63000000Y-87300000D01*
X63000000Y-87700000D01*
X62600000Y-87700000D01*
G37*
G36*
X77000000Y-88100000D02*
X77000000Y-87700000D01*
X77400000Y-87700000D01*
X77400000Y-88100000D01*
X77000000Y-88100000D01*
G37*
G36*
X76600000Y-88100000D02*
X76600000Y-87700000D01*
X77000000Y-87700000D01*
X77000000Y-88100000D01*
X76600000Y-88100000D01*
G37*
G36*
X74200000Y-88100000D02*
X74200000Y-87700000D01*
X74600000Y-87700000D01*
X74600000Y-88100000D01*
X74200000Y-88100000D01*
G37*
G36*
X73800000Y-88100000D02*
X73800000Y-87700000D01*
X74200000Y-87700000D01*
X74200000Y-88100000D01*
X73800000Y-88100000D01*
G37*
G36*
X73400000Y-88100000D02*
X73400000Y-87700000D01*
X73800000Y-87700000D01*
X73800000Y-88100000D01*
X73400000Y-88100000D01*
G37*
G36*
X73000000Y-88100000D02*
X73000000Y-87700000D01*
X73400000Y-87700000D01*
X73400000Y-88100000D01*
X73000000Y-88100000D01*
G37*
G36*
X72600000Y-88100000D02*
X72600000Y-87700000D01*
X73000000Y-87700000D01*
X73000000Y-88100000D01*
X72600000Y-88100000D01*
G37*
G36*
X72200000Y-88100000D02*
X72200000Y-87700000D01*
X72600000Y-87700000D01*
X72600000Y-88100000D01*
X72200000Y-88100000D01*
G37*
G36*
X71800000Y-88100000D02*
X71800000Y-87700000D01*
X72200000Y-87700000D01*
X72200000Y-88100000D01*
X71800000Y-88100000D01*
G37*
G36*
X71400000Y-88100000D02*
X71400000Y-87700000D01*
X71800000Y-87700000D01*
X71800000Y-88100000D01*
X71400000Y-88100000D01*
G37*
G36*
X70600000Y-88100000D02*
X70600000Y-87700000D01*
X71000000Y-87700000D01*
X71000000Y-88100000D01*
X70600000Y-88100000D01*
G37*
G36*
X70200000Y-88100000D02*
X70200000Y-87700000D01*
X70600000Y-87700000D01*
X70600000Y-88100000D01*
X70200000Y-88100000D01*
G37*
G36*
X69400000Y-88100000D02*
X69400000Y-87700000D01*
X69800000Y-87700000D01*
X69800000Y-88100000D01*
X69400000Y-88100000D01*
G37*
G36*
X68200000Y-88100000D02*
X68200000Y-87700000D01*
X68600000Y-87700000D01*
X68600000Y-88100000D01*
X68200000Y-88100000D01*
G37*
G36*
X67800000Y-88100000D02*
X67800000Y-87700000D01*
X68200000Y-87700000D01*
X68200000Y-88100000D01*
X67800000Y-88100000D01*
G37*
G36*
X67400000Y-88100000D02*
X67400000Y-87700000D01*
X67800000Y-87700000D01*
X67800000Y-88100000D01*
X67400000Y-88100000D01*
G37*
G36*
X66600000Y-88100000D02*
X66600000Y-87700000D01*
X67000000Y-87700000D01*
X67000000Y-88100000D01*
X66600000Y-88100000D01*
G37*
G36*
X65800000Y-88100000D02*
X65800000Y-87700000D01*
X66200000Y-87700000D01*
X66200000Y-88100000D01*
X65800000Y-88100000D01*
G37*
G36*
X65400000Y-88100000D02*
X65400000Y-87700000D01*
X65800000Y-87700000D01*
X65800000Y-88100000D01*
X65400000Y-88100000D01*
G37*
G36*
X65000000Y-88100000D02*
X65000000Y-87700000D01*
X65400000Y-87700000D01*
X65400000Y-88100000D01*
X65000000Y-88100000D01*
G37*
G36*
X63800000Y-88100000D02*
X63800000Y-87700000D01*
X64200000Y-87700000D01*
X64200000Y-88100000D01*
X63800000Y-88100000D01*
G37*
G36*
X63400000Y-88100000D02*
X63400000Y-87700000D01*
X63800000Y-87700000D01*
X63800000Y-88100000D01*
X63400000Y-88100000D01*
G37*
G36*
X63000000Y-88100000D02*
X63000000Y-87700000D01*
X63400000Y-87700000D01*
X63400000Y-88100000D01*
X63000000Y-88100000D01*
G37*
G36*
X62600000Y-88100000D02*
X62600000Y-87700000D01*
X63000000Y-87700000D01*
X63000000Y-88100000D01*
X62600000Y-88100000D01*
G37*
G36*
X77000000Y-88500000D02*
X77000000Y-88100000D01*
X77400000Y-88100000D01*
X77400000Y-88500000D01*
X77000000Y-88500000D01*
G37*
G36*
X76600000Y-88500000D02*
X76600000Y-88100000D01*
X77000000Y-88100000D01*
X77000000Y-88500000D01*
X76600000Y-88500000D01*
G37*
G36*
X76200000Y-88500000D02*
X76200000Y-88100000D01*
X76600000Y-88100000D01*
X76600000Y-88500000D01*
X76200000Y-88500000D01*
G37*
G36*
X75000000Y-88500000D02*
X75000000Y-88100000D01*
X75400000Y-88100000D01*
X75400000Y-88500000D01*
X75000000Y-88500000D01*
G37*
G36*
X74200000Y-88500000D02*
X74200000Y-88100000D01*
X74600000Y-88100000D01*
X74600000Y-88500000D01*
X74200000Y-88500000D01*
G37*
G36*
X73000000Y-88500000D02*
X73000000Y-88100000D01*
X73400000Y-88100000D01*
X73400000Y-88500000D01*
X73000000Y-88500000D01*
G37*
G36*
X72200000Y-88500000D02*
X72200000Y-88100000D01*
X72600000Y-88100000D01*
X72600000Y-88500000D01*
X72200000Y-88500000D01*
G37*
G36*
X69000000Y-88500000D02*
X69000000Y-88100000D01*
X69400000Y-88100000D01*
X69400000Y-88500000D01*
X69000000Y-88500000D01*
G37*
G36*
X68600000Y-88500000D02*
X68600000Y-88100000D01*
X69000000Y-88100000D01*
X69000000Y-88500000D01*
X68600000Y-88500000D01*
G37*
G36*
X66600000Y-88500000D02*
X66600000Y-88100000D01*
X67000000Y-88100000D01*
X67000000Y-88500000D01*
X66600000Y-88500000D01*
G37*
G36*
X65000000Y-88500000D02*
X65000000Y-88100000D01*
X65400000Y-88100000D01*
X65400000Y-88500000D01*
X65000000Y-88500000D01*
G37*
G36*
X64200000Y-88500000D02*
X64200000Y-88100000D01*
X64600000Y-88100000D01*
X64600000Y-88500000D01*
X64200000Y-88500000D01*
G37*
G36*
X63400000Y-88500000D02*
X63400000Y-88100000D01*
X63800000Y-88100000D01*
X63800000Y-88500000D01*
X63400000Y-88500000D01*
G37*
G36*
X63000000Y-88500000D02*
X63000000Y-88100000D01*
X63400000Y-88100000D01*
X63400000Y-88500000D01*
X63000000Y-88500000D01*
G37*
G36*
X62600000Y-88500000D02*
X62600000Y-88100000D01*
X63000000Y-88100000D01*
X63000000Y-88500000D01*
X62600000Y-88500000D01*
G37*
G36*
X77000000Y-88900000D02*
X77000000Y-88500000D01*
X77400000Y-88500000D01*
X77400000Y-88900000D01*
X77000000Y-88900000D01*
G37*
G36*
X76600000Y-88900000D02*
X76600000Y-88500000D01*
X77000000Y-88500000D01*
X77000000Y-88900000D01*
X76600000Y-88900000D01*
G37*
G36*
X76200000Y-88900000D02*
X76200000Y-88500000D01*
X76600000Y-88500000D01*
X76600000Y-88900000D01*
X76200000Y-88900000D01*
G37*
G36*
X75800000Y-88900000D02*
X75800000Y-88500000D01*
X76200000Y-88500000D01*
X76200000Y-88900000D01*
X75800000Y-88900000D01*
G37*
G36*
X74600000Y-88900000D02*
X74600000Y-88500000D01*
X75000000Y-88500000D01*
X75000000Y-88900000D01*
X74600000Y-88900000D01*
G37*
G36*
X73800000Y-88900000D02*
X73800000Y-88500000D01*
X74200000Y-88500000D01*
X74200000Y-88900000D01*
X73800000Y-88900000D01*
G37*
G36*
X70200000Y-88900000D02*
X70200000Y-88500000D01*
X70600000Y-88500000D01*
X70600000Y-88900000D01*
X70200000Y-88900000D01*
G37*
G36*
X69800000Y-88900000D02*
X69800000Y-88500000D01*
X70200000Y-88500000D01*
X70200000Y-88900000D01*
X69800000Y-88900000D01*
G37*
G36*
X67400000Y-88900000D02*
X67400000Y-88500000D01*
X67800000Y-88500000D01*
X67800000Y-88900000D01*
X67400000Y-88900000D01*
G37*
G36*
X66200000Y-88900000D02*
X66200000Y-88500000D01*
X66600000Y-88500000D01*
X66600000Y-88900000D01*
X66200000Y-88900000D01*
G37*
G36*
X65000000Y-88900000D02*
X65000000Y-88500000D01*
X65400000Y-88500000D01*
X65400000Y-88900000D01*
X65000000Y-88900000D01*
G37*
G36*
X64600000Y-88900000D02*
X64600000Y-88500000D01*
X65000000Y-88500000D01*
X65000000Y-88900000D01*
X64600000Y-88900000D01*
G37*
G36*
X64200000Y-88900000D02*
X64200000Y-88500000D01*
X64600000Y-88500000D01*
X64600000Y-88900000D01*
X64200000Y-88900000D01*
G37*
G36*
X63000000Y-88900000D02*
X63000000Y-88500000D01*
X63400000Y-88500000D01*
X63400000Y-88900000D01*
X63000000Y-88900000D01*
G37*
G36*
X62600000Y-88900000D02*
X62600000Y-88500000D01*
X63000000Y-88500000D01*
X63000000Y-88900000D01*
X62600000Y-88900000D01*
G37*
G36*
X77000000Y-89300000D02*
X77000000Y-88900000D01*
X77400000Y-88900000D01*
X77400000Y-89300000D01*
X77000000Y-89300000D01*
G37*
G36*
X76600000Y-89300000D02*
X76600000Y-88900000D01*
X77000000Y-88900000D01*
X77000000Y-89300000D01*
X76600000Y-89300000D01*
G37*
G36*
X75800000Y-89300000D02*
X75800000Y-88900000D01*
X76200000Y-88900000D01*
X76200000Y-89300000D01*
X75800000Y-89300000D01*
G37*
G36*
X75000000Y-89300000D02*
X75000000Y-88900000D01*
X75400000Y-88900000D01*
X75400000Y-89300000D01*
X75000000Y-89300000D01*
G37*
G36*
X74600000Y-89300000D02*
X74600000Y-88900000D01*
X75000000Y-88900000D01*
X75000000Y-89300000D01*
X74600000Y-89300000D01*
G37*
G36*
X74200000Y-89300000D02*
X74200000Y-88900000D01*
X74600000Y-88900000D01*
X74600000Y-89300000D01*
X74200000Y-89300000D01*
G37*
G36*
X73000000Y-89300000D02*
X73000000Y-88900000D01*
X73400000Y-88900000D01*
X73400000Y-89300000D01*
X73000000Y-89300000D01*
G37*
G36*
X72600000Y-89300000D02*
X72600000Y-88900000D01*
X73000000Y-88900000D01*
X73000000Y-89300000D01*
X72600000Y-89300000D01*
G37*
G36*
X72200000Y-89300000D02*
X72200000Y-88900000D01*
X72600000Y-88900000D01*
X72600000Y-89300000D01*
X72200000Y-89300000D01*
G37*
G36*
X71800000Y-89300000D02*
X71800000Y-88900000D01*
X72200000Y-88900000D01*
X72200000Y-89300000D01*
X71800000Y-89300000D01*
G37*
G36*
X70600000Y-89300000D02*
X70600000Y-88900000D01*
X71000000Y-88900000D01*
X71000000Y-89300000D01*
X70600000Y-89300000D01*
G37*
G36*
X69800000Y-89300000D02*
X69800000Y-88900000D01*
X70200000Y-88900000D01*
X70200000Y-89300000D01*
X69800000Y-89300000D01*
G37*
G36*
X69400000Y-89300000D02*
X69400000Y-88900000D01*
X69800000Y-88900000D01*
X69800000Y-89300000D01*
X69400000Y-89300000D01*
G37*
G36*
X68600000Y-89300000D02*
X68600000Y-88900000D01*
X69000000Y-88900000D01*
X69000000Y-89300000D01*
X68600000Y-89300000D01*
G37*
G36*
X67800000Y-89300000D02*
X67800000Y-88900000D01*
X68200000Y-88900000D01*
X68200000Y-89300000D01*
X67800000Y-89300000D01*
G37*
G36*
X67400000Y-89300000D02*
X67400000Y-88900000D01*
X67800000Y-88900000D01*
X67800000Y-89300000D01*
X67400000Y-89300000D01*
G37*
G36*
X67000000Y-89300000D02*
X67000000Y-88900000D01*
X67400000Y-88900000D01*
X67400000Y-89300000D01*
X67000000Y-89300000D01*
G37*
G36*
X66200000Y-89300000D02*
X66200000Y-88900000D01*
X66600000Y-88900000D01*
X66600000Y-89300000D01*
X66200000Y-89300000D01*
G37*
G36*
X65800000Y-89300000D02*
X65800000Y-88900000D01*
X66200000Y-88900000D01*
X66200000Y-89300000D01*
X65800000Y-89300000D01*
G37*
G36*
X65400000Y-89300000D02*
X65400000Y-88900000D01*
X65800000Y-88900000D01*
X65800000Y-89300000D01*
X65400000Y-89300000D01*
G37*
G36*
X64200000Y-89300000D02*
X64200000Y-88900000D01*
X64600000Y-88900000D01*
X64600000Y-89300000D01*
X64200000Y-89300000D01*
G37*
G36*
X63800000Y-89300000D02*
X63800000Y-88900000D01*
X64200000Y-88900000D01*
X64200000Y-89300000D01*
X63800000Y-89300000D01*
G37*
G36*
X63400000Y-89300000D02*
X63400000Y-88900000D01*
X63800000Y-88900000D01*
X63800000Y-89300000D01*
X63400000Y-89300000D01*
G37*
G36*
X63000000Y-89300000D02*
X63000000Y-88900000D01*
X63400000Y-88900000D01*
X63400000Y-89300000D01*
X63000000Y-89300000D01*
G37*
G36*
X62600000Y-89300000D02*
X62600000Y-88900000D01*
X63000000Y-88900000D01*
X63000000Y-89300000D01*
X62600000Y-89300000D01*
G37*
G36*
X77000000Y-89700000D02*
X77000000Y-89300000D01*
X77400000Y-89300000D01*
X77400000Y-89700000D01*
X77000000Y-89700000D01*
G37*
G36*
X76600000Y-89700000D02*
X76600000Y-89300000D01*
X77000000Y-89300000D01*
X77000000Y-89700000D01*
X76600000Y-89700000D01*
G37*
G36*
X75400000Y-89700000D02*
X75400000Y-89300000D01*
X75800000Y-89300000D01*
X75800000Y-89700000D01*
X75400000Y-89700000D01*
G37*
G36*
X74600000Y-89700000D02*
X74600000Y-89300000D01*
X75000000Y-89300000D01*
X75000000Y-89700000D01*
X74600000Y-89700000D01*
G37*
G36*
X74200000Y-89700000D02*
X74200000Y-89300000D01*
X74600000Y-89300000D01*
X74600000Y-89700000D01*
X74200000Y-89700000D01*
G37*
G36*
X73800000Y-89700000D02*
X73800000Y-89300000D01*
X74200000Y-89300000D01*
X74200000Y-89700000D01*
X73800000Y-89700000D01*
G37*
G36*
X72200000Y-89700000D02*
X72200000Y-89300000D01*
X72600000Y-89300000D01*
X72600000Y-89700000D01*
X72200000Y-89700000D01*
G37*
G36*
X71400000Y-89700000D02*
X71400000Y-89300000D01*
X71800000Y-89300000D01*
X71800000Y-89700000D01*
X71400000Y-89700000D01*
G37*
G36*
X70600000Y-89700000D02*
X70600000Y-89300000D01*
X71000000Y-89300000D01*
X71000000Y-89700000D01*
X70600000Y-89700000D01*
G37*
G36*
X70200000Y-89700000D02*
X70200000Y-89300000D01*
X70600000Y-89300000D01*
X70600000Y-89700000D01*
X70200000Y-89700000D01*
G37*
G36*
X69000000Y-89700000D02*
X69000000Y-89300000D01*
X69400000Y-89300000D01*
X69400000Y-89700000D01*
X69000000Y-89700000D01*
G37*
G36*
X68200000Y-89700000D02*
X68200000Y-89300000D01*
X68600000Y-89300000D01*
X68600000Y-89700000D01*
X68200000Y-89700000D01*
G37*
G36*
X67800000Y-89700000D02*
X67800000Y-89300000D01*
X68200000Y-89300000D01*
X68200000Y-89700000D01*
X67800000Y-89700000D01*
G37*
G36*
X67000000Y-89700000D02*
X67000000Y-89300000D01*
X67400000Y-89300000D01*
X67400000Y-89700000D01*
X67000000Y-89700000D01*
G37*
G36*
X66600000Y-89700000D02*
X66600000Y-89300000D01*
X67000000Y-89300000D01*
X67000000Y-89700000D01*
X66600000Y-89700000D01*
G37*
G36*
X65000000Y-89700000D02*
X65000000Y-89300000D01*
X65400000Y-89300000D01*
X65400000Y-89700000D01*
X65000000Y-89700000D01*
G37*
G36*
X64600000Y-89700000D02*
X64600000Y-89300000D01*
X65000000Y-89300000D01*
X65000000Y-89700000D01*
X64600000Y-89700000D01*
G37*
G36*
X63400000Y-89700000D02*
X63400000Y-89300000D01*
X63800000Y-89300000D01*
X63800000Y-89700000D01*
X63400000Y-89700000D01*
G37*
G36*
X63000000Y-89700000D02*
X63000000Y-89300000D01*
X63400000Y-89300000D01*
X63400000Y-89700000D01*
X63000000Y-89700000D01*
G37*
G36*
X62600000Y-89700000D02*
X62600000Y-89300000D01*
X63000000Y-89300000D01*
X63000000Y-89700000D01*
X62600000Y-89700000D01*
G37*
G36*
X77000000Y-90100000D02*
X77000000Y-89700000D01*
X77400000Y-89700000D01*
X77400000Y-90100000D01*
X77000000Y-90100000D01*
G37*
G36*
X76600000Y-90100000D02*
X76600000Y-89700000D01*
X77000000Y-89700000D01*
X77000000Y-90100000D01*
X76600000Y-90100000D01*
G37*
G36*
X76200000Y-90100000D02*
X76200000Y-89700000D01*
X76600000Y-89700000D01*
X76600000Y-90100000D01*
X76200000Y-90100000D01*
G37*
G36*
X75800000Y-90100000D02*
X75800000Y-89700000D01*
X76200000Y-89700000D01*
X76200000Y-90100000D01*
X75800000Y-90100000D01*
G37*
G36*
X75400000Y-90100000D02*
X75400000Y-89700000D01*
X75800000Y-89700000D01*
X75800000Y-90100000D01*
X75400000Y-90100000D01*
G37*
G36*
X74600000Y-90100000D02*
X74600000Y-89700000D01*
X75000000Y-89700000D01*
X75000000Y-90100000D01*
X74600000Y-90100000D01*
G37*
G36*
X74200000Y-90100000D02*
X74200000Y-89700000D01*
X74600000Y-89700000D01*
X74600000Y-90100000D01*
X74200000Y-90100000D01*
G37*
G36*
X73400000Y-90100000D02*
X73400000Y-89700000D01*
X73800000Y-89700000D01*
X73800000Y-90100000D01*
X73400000Y-90100000D01*
G37*
G36*
X71400000Y-90100000D02*
X71400000Y-89700000D01*
X71800000Y-89700000D01*
X71800000Y-90100000D01*
X71400000Y-90100000D01*
G37*
G36*
X71000000Y-90100000D02*
X71000000Y-89700000D01*
X71400000Y-89700000D01*
X71400000Y-90100000D01*
X71000000Y-90100000D01*
G37*
G36*
X70200000Y-90100000D02*
X70200000Y-89700000D01*
X70600000Y-89700000D01*
X70600000Y-90100000D01*
X70200000Y-90100000D01*
G37*
G36*
X69400000Y-90100000D02*
X69400000Y-89700000D01*
X69800000Y-89700000D01*
X69800000Y-90100000D01*
X69400000Y-90100000D01*
G37*
G36*
X68200000Y-90100000D02*
X68200000Y-89700000D01*
X68600000Y-89700000D01*
X68600000Y-90100000D01*
X68200000Y-90100000D01*
G37*
G36*
X67800000Y-90100000D02*
X67800000Y-89700000D01*
X68200000Y-89700000D01*
X68200000Y-90100000D01*
X67800000Y-90100000D01*
G37*
G36*
X67000000Y-90100000D02*
X67000000Y-89700000D01*
X67400000Y-89700000D01*
X67400000Y-90100000D01*
X67000000Y-90100000D01*
G37*
G36*
X66600000Y-90100000D02*
X66600000Y-89700000D01*
X67000000Y-89700000D01*
X67000000Y-90100000D01*
X66600000Y-90100000D01*
G37*
G36*
X65800000Y-90100000D02*
X65800000Y-89700000D01*
X66200000Y-89700000D01*
X66200000Y-90100000D01*
X65800000Y-90100000D01*
G37*
G36*
X65400000Y-90100000D02*
X65400000Y-89700000D01*
X65800000Y-89700000D01*
X65800000Y-90100000D01*
X65400000Y-90100000D01*
G37*
G36*
X64600000Y-90100000D02*
X64600000Y-89700000D01*
X65000000Y-89700000D01*
X65000000Y-90100000D01*
X64600000Y-90100000D01*
G37*
G36*
X64200000Y-90100000D02*
X64200000Y-89700000D01*
X64600000Y-89700000D01*
X64600000Y-90100000D01*
X64200000Y-90100000D01*
G37*
G36*
X63400000Y-90100000D02*
X63400000Y-89700000D01*
X63800000Y-89700000D01*
X63800000Y-90100000D01*
X63400000Y-90100000D01*
G37*
G36*
X63000000Y-90100000D02*
X63000000Y-89700000D01*
X63400000Y-89700000D01*
X63400000Y-90100000D01*
X63000000Y-90100000D01*
G37*
G36*
X62600000Y-90100000D02*
X62600000Y-89700000D01*
X63000000Y-89700000D01*
X63000000Y-90100000D01*
X62600000Y-90100000D01*
G37*
G36*
X77000000Y-90500000D02*
X77000000Y-90100000D01*
X77400000Y-90100000D01*
X77400000Y-90500000D01*
X77000000Y-90500000D01*
G37*
G36*
X76600000Y-90500000D02*
X76600000Y-90100000D01*
X77000000Y-90100000D01*
X77000000Y-90500000D01*
X76600000Y-90500000D01*
G37*
G36*
X76200000Y-90500000D02*
X76200000Y-90100000D01*
X76600000Y-90100000D01*
X76600000Y-90500000D01*
X76200000Y-90500000D01*
G37*
G36*
X75800000Y-90500000D02*
X75800000Y-90100000D01*
X76200000Y-90100000D01*
X76200000Y-90500000D01*
X75800000Y-90500000D01*
G37*
G36*
X75000000Y-90500000D02*
X75000000Y-90100000D01*
X75400000Y-90100000D01*
X75400000Y-90500000D01*
X75000000Y-90500000D01*
G37*
G36*
X73800000Y-90500000D02*
X73800000Y-90100000D01*
X74200000Y-90100000D01*
X74200000Y-90500000D01*
X73800000Y-90500000D01*
G37*
G36*
X73000000Y-90500000D02*
X73000000Y-90100000D01*
X73400000Y-90100000D01*
X73400000Y-90500000D01*
X73000000Y-90500000D01*
G37*
G36*
X72600000Y-90500000D02*
X72600000Y-90100000D01*
X73000000Y-90100000D01*
X73000000Y-90500000D01*
X72600000Y-90500000D01*
G37*
G36*
X71800000Y-90500000D02*
X71800000Y-90100000D01*
X72200000Y-90100000D01*
X72200000Y-90500000D01*
X71800000Y-90500000D01*
G37*
G36*
X71400000Y-90500000D02*
X71400000Y-90100000D01*
X71800000Y-90100000D01*
X71800000Y-90500000D01*
X71400000Y-90500000D01*
G37*
G36*
X70200000Y-90500000D02*
X70200000Y-90100000D01*
X70600000Y-90100000D01*
X70600000Y-90500000D01*
X70200000Y-90500000D01*
G37*
G36*
X69800000Y-90500000D02*
X69800000Y-90100000D01*
X70200000Y-90100000D01*
X70200000Y-90500000D01*
X69800000Y-90500000D01*
G37*
G36*
X67400000Y-90500000D02*
X67400000Y-90100000D01*
X67800000Y-90100000D01*
X67800000Y-90500000D01*
X67400000Y-90500000D01*
G37*
G36*
X67000000Y-90500000D02*
X67000000Y-90100000D01*
X67400000Y-90100000D01*
X67400000Y-90500000D01*
X67000000Y-90500000D01*
G37*
G36*
X65000000Y-90500000D02*
X65000000Y-90100000D01*
X65400000Y-90100000D01*
X65400000Y-90500000D01*
X65000000Y-90500000D01*
G37*
G36*
X64600000Y-90500000D02*
X64600000Y-90100000D01*
X65000000Y-90100000D01*
X65000000Y-90500000D01*
X64600000Y-90500000D01*
G37*
G36*
X64200000Y-90500000D02*
X64200000Y-90100000D01*
X64600000Y-90100000D01*
X64600000Y-90500000D01*
X64200000Y-90500000D01*
G37*
G36*
X63000000Y-90500000D02*
X63000000Y-90100000D01*
X63400000Y-90100000D01*
X63400000Y-90500000D01*
X63000000Y-90500000D01*
G37*
G36*
X62600000Y-90500000D02*
X62600000Y-90100000D01*
X63000000Y-90100000D01*
X63000000Y-90500000D01*
X62600000Y-90500000D01*
G37*
G36*
X77000000Y-90900000D02*
X77000000Y-90500000D01*
X77400000Y-90500000D01*
X77400000Y-90900000D01*
X77000000Y-90900000D01*
G37*
G36*
X76600000Y-90900000D02*
X76600000Y-90500000D01*
X77000000Y-90500000D01*
X77000000Y-90900000D01*
X76600000Y-90900000D01*
G37*
G36*
X75400000Y-90900000D02*
X75400000Y-90500000D01*
X75800000Y-90500000D01*
X75800000Y-90900000D01*
X75400000Y-90900000D01*
G37*
G36*
X74600000Y-90900000D02*
X74600000Y-90500000D01*
X75000000Y-90500000D01*
X75000000Y-90900000D01*
X74600000Y-90900000D01*
G37*
G36*
X73000000Y-90900000D02*
X73000000Y-90500000D01*
X73400000Y-90500000D01*
X73400000Y-90900000D01*
X73000000Y-90900000D01*
G37*
G36*
X72600000Y-90900000D02*
X72600000Y-90500000D01*
X73000000Y-90500000D01*
X73000000Y-90900000D01*
X72600000Y-90900000D01*
G37*
G36*
X72200000Y-90900000D02*
X72200000Y-90500000D01*
X72600000Y-90500000D01*
X72600000Y-90900000D01*
X72200000Y-90900000D01*
G37*
G36*
X71400000Y-90900000D02*
X71400000Y-90500000D01*
X71800000Y-90500000D01*
X71800000Y-90900000D01*
X71400000Y-90900000D01*
G37*
G36*
X71000000Y-90900000D02*
X71000000Y-90500000D01*
X71400000Y-90500000D01*
X71400000Y-90900000D01*
X71000000Y-90900000D01*
G37*
G36*
X69800000Y-90900000D02*
X69800000Y-90500000D01*
X70200000Y-90500000D01*
X70200000Y-90900000D01*
X69800000Y-90900000D01*
G37*
G36*
X69000000Y-90900000D02*
X69000000Y-90500000D01*
X69400000Y-90500000D01*
X69400000Y-90900000D01*
X69000000Y-90900000D01*
G37*
G36*
X68600000Y-90900000D02*
X68600000Y-90500000D01*
X69000000Y-90500000D01*
X69000000Y-90900000D01*
X68600000Y-90900000D01*
G37*
G36*
X64200000Y-90900000D02*
X64200000Y-90500000D01*
X64600000Y-90500000D01*
X64600000Y-90900000D01*
X64200000Y-90900000D01*
G37*
G36*
X63800000Y-90900000D02*
X63800000Y-90500000D01*
X64200000Y-90500000D01*
X64200000Y-90900000D01*
X63800000Y-90900000D01*
G37*
G36*
X63000000Y-90900000D02*
X63000000Y-90500000D01*
X63400000Y-90500000D01*
X63400000Y-90900000D01*
X63000000Y-90900000D01*
G37*
G36*
X62600000Y-90900000D02*
X62600000Y-90500000D01*
X63000000Y-90500000D01*
X63000000Y-90900000D01*
X62600000Y-90900000D01*
G37*
G36*
X77000000Y-91300000D02*
X77000000Y-90900000D01*
X77400000Y-90900000D01*
X77400000Y-91300000D01*
X77000000Y-91300000D01*
G37*
G36*
X76600000Y-91300000D02*
X76600000Y-90900000D01*
X77000000Y-90900000D01*
X77000000Y-91300000D01*
X76600000Y-91300000D01*
G37*
G36*
X76200000Y-91300000D02*
X76200000Y-90900000D01*
X76600000Y-90900000D01*
X76600000Y-91300000D01*
X76200000Y-91300000D01*
G37*
G36*
X75800000Y-91300000D02*
X75800000Y-90900000D01*
X76200000Y-90900000D01*
X76200000Y-91300000D01*
X75800000Y-91300000D01*
G37*
G36*
X75400000Y-91300000D02*
X75400000Y-90900000D01*
X75800000Y-90900000D01*
X75800000Y-91300000D01*
X75400000Y-91300000D01*
G37*
G36*
X75000000Y-91300000D02*
X75000000Y-90900000D01*
X75400000Y-90900000D01*
X75400000Y-91300000D01*
X75000000Y-91300000D01*
G37*
G36*
X74600000Y-91300000D02*
X74600000Y-90900000D01*
X75000000Y-90900000D01*
X75000000Y-91300000D01*
X74600000Y-91300000D01*
G37*
G36*
X74200000Y-91300000D02*
X74200000Y-90900000D01*
X74600000Y-90900000D01*
X74600000Y-91300000D01*
X74200000Y-91300000D01*
G37*
G36*
X73800000Y-91300000D02*
X73800000Y-90900000D01*
X74200000Y-90900000D01*
X74200000Y-91300000D01*
X73800000Y-91300000D01*
G37*
G36*
X73400000Y-91300000D02*
X73400000Y-90900000D01*
X73800000Y-90900000D01*
X73800000Y-91300000D01*
X73400000Y-91300000D01*
G37*
G36*
X71800000Y-91300000D02*
X71800000Y-90900000D01*
X72200000Y-90900000D01*
X72200000Y-91300000D01*
X71800000Y-91300000D01*
G37*
G36*
X68600000Y-91300000D02*
X68600000Y-90900000D01*
X69000000Y-90900000D01*
X69000000Y-91300000D01*
X68600000Y-91300000D01*
G37*
G36*
X67400000Y-91300000D02*
X67400000Y-90900000D01*
X67800000Y-90900000D01*
X67800000Y-91300000D01*
X67400000Y-91300000D01*
G37*
G36*
X66200000Y-91300000D02*
X66200000Y-90900000D01*
X66600000Y-90900000D01*
X66600000Y-91300000D01*
X66200000Y-91300000D01*
G37*
G36*
X65800000Y-91300000D02*
X65800000Y-90900000D01*
X66200000Y-90900000D01*
X66200000Y-91300000D01*
X65800000Y-91300000D01*
G37*
G36*
X65400000Y-91300000D02*
X65400000Y-90900000D01*
X65800000Y-90900000D01*
X65800000Y-91300000D01*
X65400000Y-91300000D01*
G37*
G36*
X64600000Y-91300000D02*
X64600000Y-90900000D01*
X65000000Y-90900000D01*
X65000000Y-91300000D01*
X64600000Y-91300000D01*
G37*
G36*
X63400000Y-91300000D02*
X63400000Y-90900000D01*
X63800000Y-90900000D01*
X63800000Y-91300000D01*
X63400000Y-91300000D01*
G37*
G36*
X63000000Y-91300000D02*
X63000000Y-90900000D01*
X63400000Y-90900000D01*
X63400000Y-91300000D01*
X63000000Y-91300000D01*
G37*
G36*
X62600000Y-91300000D02*
X62600000Y-90900000D01*
X63000000Y-90900000D01*
X63000000Y-91300000D01*
X62600000Y-91300000D01*
G37*
G36*
X77000000Y-91700000D02*
X77000000Y-91300000D01*
X77400000Y-91300000D01*
X77400000Y-91700000D01*
X77000000Y-91700000D01*
G37*
G36*
X76600000Y-91700000D02*
X76600000Y-91300000D01*
X77000000Y-91300000D01*
X77000000Y-91700000D01*
X76600000Y-91700000D01*
G37*
G36*
X73400000Y-91700000D02*
X73400000Y-91300000D01*
X73800000Y-91300000D01*
X73800000Y-91700000D01*
X73400000Y-91700000D01*
G37*
G36*
X72600000Y-91700000D02*
X72600000Y-91300000D01*
X73000000Y-91300000D01*
X73000000Y-91700000D01*
X72600000Y-91700000D01*
G37*
G36*
X72200000Y-91700000D02*
X72200000Y-91300000D01*
X72600000Y-91300000D01*
X72600000Y-91700000D01*
X72200000Y-91700000D01*
G37*
G36*
X71800000Y-91700000D02*
X71800000Y-91300000D01*
X72200000Y-91300000D01*
X72200000Y-91700000D01*
X71800000Y-91700000D01*
G37*
G36*
X71400000Y-91700000D02*
X71400000Y-91300000D01*
X71800000Y-91300000D01*
X71800000Y-91700000D01*
X71400000Y-91700000D01*
G37*
G36*
X71000000Y-91700000D02*
X71000000Y-91300000D01*
X71400000Y-91300000D01*
X71400000Y-91700000D01*
X71000000Y-91700000D01*
G37*
G36*
X70600000Y-91700000D02*
X70600000Y-91300000D01*
X71000000Y-91300000D01*
X71000000Y-91700000D01*
X70600000Y-91700000D01*
G37*
G36*
X69800000Y-91700000D02*
X69800000Y-91300000D01*
X70200000Y-91300000D01*
X70200000Y-91700000D01*
X69800000Y-91700000D01*
G37*
G36*
X69400000Y-91700000D02*
X69400000Y-91300000D01*
X69800000Y-91300000D01*
X69800000Y-91700000D01*
X69400000Y-91700000D01*
G37*
G36*
X68600000Y-91700000D02*
X68600000Y-91300000D01*
X69000000Y-91300000D01*
X69000000Y-91700000D01*
X68600000Y-91700000D01*
G37*
G36*
X67800000Y-91700000D02*
X67800000Y-91300000D01*
X68200000Y-91300000D01*
X68200000Y-91700000D01*
X67800000Y-91700000D01*
G37*
G36*
X67400000Y-91700000D02*
X67400000Y-91300000D01*
X67800000Y-91300000D01*
X67800000Y-91700000D01*
X67400000Y-91700000D01*
G37*
G36*
X67000000Y-91700000D02*
X67000000Y-91300000D01*
X67400000Y-91300000D01*
X67400000Y-91700000D01*
X67000000Y-91700000D01*
G37*
G36*
X66200000Y-91700000D02*
X66200000Y-91300000D01*
X66600000Y-91300000D01*
X66600000Y-91700000D01*
X66200000Y-91700000D01*
G37*
G36*
X65400000Y-91700000D02*
X65400000Y-91300000D01*
X65800000Y-91300000D01*
X65800000Y-91700000D01*
X65400000Y-91700000D01*
G37*
G36*
X64200000Y-91700000D02*
X64200000Y-91300000D01*
X64600000Y-91300000D01*
X64600000Y-91700000D01*
X64200000Y-91700000D01*
G37*
G36*
X63800000Y-91700000D02*
X63800000Y-91300000D01*
X64200000Y-91300000D01*
X64200000Y-91700000D01*
X63800000Y-91700000D01*
G37*
G36*
X63400000Y-91700000D02*
X63400000Y-91300000D01*
X63800000Y-91300000D01*
X63800000Y-91700000D01*
X63400000Y-91700000D01*
G37*
G36*
X63000000Y-91700000D02*
X63000000Y-91300000D01*
X63400000Y-91300000D01*
X63400000Y-91700000D01*
X63000000Y-91700000D01*
G37*
G36*
X62600000Y-91700000D02*
X62600000Y-91300000D01*
X63000000Y-91300000D01*
X63000000Y-91700000D01*
X62600000Y-91700000D01*
G37*
G36*
X77000000Y-92100000D02*
X77000000Y-91700000D01*
X77400000Y-91700000D01*
X77400000Y-92100000D01*
X77000000Y-92100000D01*
G37*
G36*
X76600000Y-92100000D02*
X76600000Y-91700000D01*
X77000000Y-91700000D01*
X77000000Y-92100000D01*
X76600000Y-92100000D01*
G37*
G36*
X75800000Y-92100000D02*
X75800000Y-91700000D01*
X76200000Y-91700000D01*
X76200000Y-92100000D01*
X75800000Y-92100000D01*
G37*
G36*
X75400000Y-92100000D02*
X75400000Y-91700000D01*
X75800000Y-91700000D01*
X75800000Y-92100000D01*
X75400000Y-92100000D01*
G37*
G36*
X75000000Y-92100000D02*
X75000000Y-91700000D01*
X75400000Y-91700000D01*
X75400000Y-92100000D01*
X75000000Y-92100000D01*
G37*
G36*
X74600000Y-92100000D02*
X74600000Y-91700000D01*
X75000000Y-91700000D01*
X75000000Y-92100000D01*
X74600000Y-92100000D01*
G37*
G36*
X74200000Y-92100000D02*
X74200000Y-91700000D01*
X74600000Y-91700000D01*
X74600000Y-92100000D01*
X74200000Y-92100000D01*
G37*
G36*
X73400000Y-92100000D02*
X73400000Y-91700000D01*
X73800000Y-91700000D01*
X73800000Y-92100000D01*
X73400000Y-92100000D01*
G37*
G36*
X73000000Y-92100000D02*
X73000000Y-91700000D01*
X73400000Y-91700000D01*
X73400000Y-92100000D01*
X73000000Y-92100000D01*
G37*
G36*
X72600000Y-92100000D02*
X72600000Y-91700000D01*
X73000000Y-91700000D01*
X73000000Y-92100000D01*
X72600000Y-92100000D01*
G37*
G36*
X71000000Y-92100000D02*
X71000000Y-91700000D01*
X71400000Y-91700000D01*
X71400000Y-92100000D01*
X71000000Y-92100000D01*
G37*
G36*
X70600000Y-92100000D02*
X70600000Y-91700000D01*
X71000000Y-91700000D01*
X71000000Y-92100000D01*
X70600000Y-92100000D01*
G37*
G36*
X69800000Y-92100000D02*
X69800000Y-91700000D01*
X70200000Y-91700000D01*
X70200000Y-92100000D01*
X69800000Y-92100000D01*
G37*
G36*
X69400000Y-92100000D02*
X69400000Y-91700000D01*
X69800000Y-91700000D01*
X69800000Y-92100000D01*
X69400000Y-92100000D01*
G37*
G36*
X69000000Y-92100000D02*
X69000000Y-91700000D01*
X69400000Y-91700000D01*
X69400000Y-92100000D01*
X69000000Y-92100000D01*
G37*
G36*
X68600000Y-92100000D02*
X68600000Y-91700000D01*
X69000000Y-91700000D01*
X69000000Y-92100000D01*
X68600000Y-92100000D01*
G37*
G36*
X67800000Y-92100000D02*
X67800000Y-91700000D01*
X68200000Y-91700000D01*
X68200000Y-92100000D01*
X67800000Y-92100000D01*
G37*
G36*
X67000000Y-92100000D02*
X67000000Y-91700000D01*
X67400000Y-91700000D01*
X67400000Y-92100000D01*
X67000000Y-92100000D01*
G37*
G36*
X66200000Y-92100000D02*
X66200000Y-91700000D01*
X66600000Y-91700000D01*
X66600000Y-92100000D01*
X66200000Y-92100000D01*
G37*
G36*
X65800000Y-92100000D02*
X65800000Y-91700000D01*
X66200000Y-91700000D01*
X66200000Y-92100000D01*
X65800000Y-92100000D01*
G37*
G36*
X65400000Y-92100000D02*
X65400000Y-91700000D01*
X65800000Y-91700000D01*
X65800000Y-92100000D01*
X65400000Y-92100000D01*
G37*
G36*
X64600000Y-92100000D02*
X64600000Y-91700000D01*
X65000000Y-91700000D01*
X65000000Y-92100000D01*
X64600000Y-92100000D01*
G37*
G36*
X64200000Y-92100000D02*
X64200000Y-91700000D01*
X64600000Y-91700000D01*
X64600000Y-92100000D01*
X64200000Y-92100000D01*
G37*
G36*
X63400000Y-92100000D02*
X63400000Y-91700000D01*
X63800000Y-91700000D01*
X63800000Y-92100000D01*
X63400000Y-92100000D01*
G37*
G36*
X63000000Y-92100000D02*
X63000000Y-91700000D01*
X63400000Y-91700000D01*
X63400000Y-92100000D01*
X63000000Y-92100000D01*
G37*
G36*
X62600000Y-92100000D02*
X62600000Y-91700000D01*
X63000000Y-91700000D01*
X63000000Y-92100000D01*
X62600000Y-92100000D01*
G37*
G36*
X77000000Y-92500000D02*
X77000000Y-92100000D01*
X77400000Y-92100000D01*
X77400000Y-92500000D01*
X77000000Y-92500000D01*
G37*
G36*
X76600000Y-92500000D02*
X76600000Y-92100000D01*
X77000000Y-92100000D01*
X77000000Y-92500000D01*
X76600000Y-92500000D01*
G37*
G36*
X75800000Y-92500000D02*
X75800000Y-92100000D01*
X76200000Y-92100000D01*
X76200000Y-92500000D01*
X75800000Y-92500000D01*
G37*
G36*
X74200000Y-92500000D02*
X74200000Y-92100000D01*
X74600000Y-92100000D01*
X74600000Y-92500000D01*
X74200000Y-92500000D01*
G37*
G36*
X73400000Y-92500000D02*
X73400000Y-92100000D01*
X73800000Y-92100000D01*
X73800000Y-92500000D01*
X73400000Y-92500000D01*
G37*
G36*
X72600000Y-92500000D02*
X72600000Y-92100000D01*
X73000000Y-92100000D01*
X73000000Y-92500000D01*
X72600000Y-92500000D01*
G37*
G36*
X71400000Y-92500000D02*
X71400000Y-92100000D01*
X71800000Y-92100000D01*
X71800000Y-92500000D01*
X71400000Y-92500000D01*
G37*
G36*
X71000000Y-92500000D02*
X71000000Y-92100000D01*
X71400000Y-92100000D01*
X71400000Y-92500000D01*
X71000000Y-92500000D01*
G37*
G36*
X70200000Y-92500000D02*
X70200000Y-92100000D01*
X70600000Y-92100000D01*
X70600000Y-92500000D01*
X70200000Y-92500000D01*
G37*
G36*
X69400000Y-92500000D02*
X69400000Y-92100000D01*
X69800000Y-92100000D01*
X69800000Y-92500000D01*
X69400000Y-92500000D01*
G37*
G36*
X69000000Y-92500000D02*
X69000000Y-92100000D01*
X69400000Y-92100000D01*
X69400000Y-92500000D01*
X69000000Y-92500000D01*
G37*
G36*
X68600000Y-92500000D02*
X68600000Y-92100000D01*
X69000000Y-92100000D01*
X69000000Y-92500000D01*
X68600000Y-92500000D01*
G37*
G36*
X68200000Y-92500000D02*
X68200000Y-92100000D01*
X68600000Y-92100000D01*
X68600000Y-92500000D01*
X68200000Y-92500000D01*
G37*
G36*
X67800000Y-92500000D02*
X67800000Y-92100000D01*
X68200000Y-92100000D01*
X68200000Y-92500000D01*
X67800000Y-92500000D01*
G37*
G36*
X67000000Y-92500000D02*
X67000000Y-92100000D01*
X67400000Y-92100000D01*
X67400000Y-92500000D01*
X67000000Y-92500000D01*
G37*
G36*
X64200000Y-92500000D02*
X64200000Y-92100000D01*
X64600000Y-92100000D01*
X64600000Y-92500000D01*
X64200000Y-92500000D01*
G37*
G36*
X63800000Y-92500000D02*
X63800000Y-92100000D01*
X64200000Y-92100000D01*
X64200000Y-92500000D01*
X63800000Y-92500000D01*
G37*
G36*
X63000000Y-92500000D02*
X63000000Y-92100000D01*
X63400000Y-92100000D01*
X63400000Y-92500000D01*
X63000000Y-92500000D01*
G37*
G36*
X62600000Y-92500000D02*
X62600000Y-92100000D01*
X63000000Y-92100000D01*
X63000000Y-92500000D01*
X62600000Y-92500000D01*
G37*
G36*
X77000000Y-92900000D02*
X77000000Y-92500000D01*
X77400000Y-92500000D01*
X77400000Y-92900000D01*
X77000000Y-92900000D01*
G37*
G36*
X76600000Y-92900000D02*
X76600000Y-92500000D01*
X77000000Y-92500000D01*
X77000000Y-92900000D01*
X76600000Y-92900000D01*
G37*
G36*
X75800000Y-92900000D02*
X75800000Y-92500000D01*
X76200000Y-92500000D01*
X76200000Y-92900000D01*
X75800000Y-92900000D01*
G37*
G36*
X74200000Y-92900000D02*
X74200000Y-92500000D01*
X74600000Y-92500000D01*
X74600000Y-92900000D01*
X74200000Y-92900000D01*
G37*
G36*
X73400000Y-92900000D02*
X73400000Y-92500000D01*
X73800000Y-92500000D01*
X73800000Y-92900000D01*
X73400000Y-92900000D01*
G37*
G36*
X73000000Y-92900000D02*
X73000000Y-92500000D01*
X73400000Y-92500000D01*
X73400000Y-92900000D01*
X73000000Y-92900000D01*
G37*
G36*
X72600000Y-92900000D02*
X72600000Y-92500000D01*
X73000000Y-92500000D01*
X73000000Y-92900000D01*
X72600000Y-92900000D01*
G37*
G36*
X72200000Y-92900000D02*
X72200000Y-92500000D01*
X72600000Y-92500000D01*
X72600000Y-92900000D01*
X72200000Y-92900000D01*
G37*
G36*
X71400000Y-92900000D02*
X71400000Y-92500000D01*
X71800000Y-92500000D01*
X71800000Y-92900000D01*
X71400000Y-92900000D01*
G37*
G36*
X71000000Y-92900000D02*
X71000000Y-92500000D01*
X71400000Y-92500000D01*
X71400000Y-92900000D01*
X71000000Y-92900000D01*
G37*
G36*
X70200000Y-92900000D02*
X70200000Y-92500000D01*
X70600000Y-92500000D01*
X70600000Y-92900000D01*
X70200000Y-92900000D01*
G37*
G36*
X69800000Y-92900000D02*
X69800000Y-92500000D01*
X70200000Y-92500000D01*
X70200000Y-92900000D01*
X69800000Y-92900000D01*
G37*
G36*
X67400000Y-92900000D02*
X67400000Y-92500000D01*
X67800000Y-92500000D01*
X67800000Y-92900000D01*
X67400000Y-92900000D01*
G37*
G36*
X66200000Y-92900000D02*
X66200000Y-92500000D01*
X66600000Y-92500000D01*
X66600000Y-92900000D01*
X66200000Y-92900000D01*
G37*
G36*
X63400000Y-92900000D02*
X63400000Y-92500000D01*
X63800000Y-92500000D01*
X63800000Y-92900000D01*
X63400000Y-92900000D01*
G37*
G36*
X63000000Y-92900000D02*
X63000000Y-92500000D01*
X63400000Y-92500000D01*
X63400000Y-92900000D01*
X63000000Y-92900000D01*
G37*
G36*
X62600000Y-92900000D02*
X62600000Y-92500000D01*
X63000000Y-92500000D01*
X63000000Y-92900000D01*
X62600000Y-92900000D01*
G37*
G36*
X77000000Y-93300000D02*
X77000000Y-92900000D01*
X77400000Y-92900000D01*
X77400000Y-93300000D01*
X77000000Y-93300000D01*
G37*
G36*
X76600000Y-93300000D02*
X76600000Y-92900000D01*
X77000000Y-92900000D01*
X77000000Y-93300000D01*
X76600000Y-93300000D01*
G37*
G36*
X75800000Y-93300000D02*
X75800000Y-92900000D01*
X76200000Y-92900000D01*
X76200000Y-93300000D01*
X75800000Y-93300000D01*
G37*
G36*
X74200000Y-93300000D02*
X74200000Y-92900000D01*
X74600000Y-92900000D01*
X74600000Y-93300000D01*
X74200000Y-93300000D01*
G37*
G36*
X73400000Y-93300000D02*
X73400000Y-92900000D01*
X73800000Y-92900000D01*
X73800000Y-93300000D01*
X73400000Y-93300000D01*
G37*
G36*
X73000000Y-93300000D02*
X73000000Y-92900000D01*
X73400000Y-92900000D01*
X73400000Y-93300000D01*
X73000000Y-93300000D01*
G37*
G36*
X71400000Y-93300000D02*
X71400000Y-92900000D01*
X71800000Y-92900000D01*
X71800000Y-93300000D01*
X71400000Y-93300000D01*
G37*
G36*
X69800000Y-93300000D02*
X69800000Y-92900000D01*
X70200000Y-92900000D01*
X70200000Y-93300000D01*
X69800000Y-93300000D01*
G37*
G36*
X69400000Y-93300000D02*
X69400000Y-92900000D01*
X69800000Y-92900000D01*
X69800000Y-93300000D01*
X69400000Y-93300000D01*
G37*
G36*
X68600000Y-93300000D02*
X68600000Y-92900000D01*
X69000000Y-92900000D01*
X69000000Y-93300000D01*
X68600000Y-93300000D01*
G37*
G36*
X67800000Y-93300000D02*
X67800000Y-92900000D01*
X68200000Y-92900000D01*
X68200000Y-93300000D01*
X67800000Y-93300000D01*
G37*
G36*
X67400000Y-93300000D02*
X67400000Y-92900000D01*
X67800000Y-92900000D01*
X67800000Y-93300000D01*
X67400000Y-93300000D01*
G37*
G36*
X66200000Y-93300000D02*
X66200000Y-92900000D01*
X66600000Y-92900000D01*
X66600000Y-93300000D01*
X66200000Y-93300000D01*
G37*
G36*
X64200000Y-93300000D02*
X64200000Y-92900000D01*
X64600000Y-92900000D01*
X64600000Y-93300000D01*
X64200000Y-93300000D01*
G37*
G36*
X63800000Y-93300000D02*
X63800000Y-92900000D01*
X64200000Y-92900000D01*
X64200000Y-93300000D01*
X63800000Y-93300000D01*
G37*
G36*
X63400000Y-93300000D02*
X63400000Y-92900000D01*
X63800000Y-92900000D01*
X63800000Y-93300000D01*
X63400000Y-93300000D01*
G37*
G36*
X63000000Y-93300000D02*
X63000000Y-92900000D01*
X63400000Y-92900000D01*
X63400000Y-93300000D01*
X63000000Y-93300000D01*
G37*
G36*
X62600000Y-93300000D02*
X62600000Y-92900000D01*
X63000000Y-92900000D01*
X63000000Y-93300000D01*
X62600000Y-93300000D01*
G37*
G36*
X77000000Y-93700000D02*
X77000000Y-93300000D01*
X77400000Y-93300000D01*
X77400000Y-93700000D01*
X77000000Y-93700000D01*
G37*
G36*
X76600000Y-93700000D02*
X76600000Y-93300000D01*
X77000000Y-93300000D01*
X77000000Y-93700000D01*
X76600000Y-93700000D01*
G37*
G36*
X75800000Y-93700000D02*
X75800000Y-93300000D01*
X76200000Y-93300000D01*
X76200000Y-93700000D01*
X75800000Y-93700000D01*
G37*
G36*
X75400000Y-93700000D02*
X75400000Y-93300000D01*
X75800000Y-93300000D01*
X75800000Y-93700000D01*
X75400000Y-93700000D01*
G37*
G36*
X75000000Y-93700000D02*
X75000000Y-93300000D01*
X75400000Y-93300000D01*
X75400000Y-93700000D01*
X75000000Y-93700000D01*
G37*
G36*
X74600000Y-93700000D02*
X74600000Y-93300000D01*
X75000000Y-93300000D01*
X75000000Y-93700000D01*
X74600000Y-93700000D01*
G37*
G36*
X74200000Y-93700000D02*
X74200000Y-93300000D01*
X74600000Y-93300000D01*
X74600000Y-93700000D01*
X74200000Y-93700000D01*
G37*
G36*
X73400000Y-93700000D02*
X73400000Y-93300000D01*
X73800000Y-93300000D01*
X73800000Y-93700000D01*
X73400000Y-93700000D01*
G37*
G36*
X73000000Y-93700000D02*
X73000000Y-93300000D01*
X73400000Y-93300000D01*
X73400000Y-93700000D01*
X73000000Y-93700000D01*
G37*
G36*
X72600000Y-93700000D02*
X72600000Y-93300000D01*
X73000000Y-93300000D01*
X73000000Y-93700000D01*
X72600000Y-93700000D01*
G37*
G36*
X72200000Y-93700000D02*
X72200000Y-93300000D01*
X72600000Y-93300000D01*
X72600000Y-93700000D01*
X72200000Y-93700000D01*
G37*
G36*
X71400000Y-93700000D02*
X71400000Y-93300000D01*
X71800000Y-93300000D01*
X71800000Y-93700000D01*
X71400000Y-93700000D01*
G37*
G36*
X69000000Y-93700000D02*
X69000000Y-93300000D01*
X69400000Y-93300000D01*
X69400000Y-93700000D01*
X69000000Y-93700000D01*
G37*
G36*
X68600000Y-93700000D02*
X68600000Y-93300000D01*
X69000000Y-93300000D01*
X69000000Y-93700000D01*
X68600000Y-93700000D01*
G37*
G36*
X68200000Y-93700000D02*
X68200000Y-93300000D01*
X68600000Y-93300000D01*
X68600000Y-93700000D01*
X68200000Y-93700000D01*
G37*
G36*
X67400000Y-93700000D02*
X67400000Y-93300000D01*
X67800000Y-93300000D01*
X67800000Y-93700000D01*
X67400000Y-93700000D01*
G37*
G36*
X67000000Y-93700000D02*
X67000000Y-93300000D01*
X67400000Y-93300000D01*
X67400000Y-93700000D01*
X67000000Y-93700000D01*
G37*
G36*
X66600000Y-93700000D02*
X66600000Y-93300000D01*
X67000000Y-93300000D01*
X67000000Y-93700000D01*
X66600000Y-93700000D01*
G37*
G36*
X66200000Y-93700000D02*
X66200000Y-93300000D01*
X66600000Y-93300000D01*
X66600000Y-93700000D01*
X66200000Y-93700000D01*
G37*
G36*
X65800000Y-93700000D02*
X65800000Y-93300000D01*
X66200000Y-93300000D01*
X66200000Y-93700000D01*
X65800000Y-93700000D01*
G37*
G36*
X65400000Y-93700000D02*
X65400000Y-93300000D01*
X65800000Y-93300000D01*
X65800000Y-93700000D01*
X65400000Y-93700000D01*
G37*
G36*
X65000000Y-93700000D02*
X65000000Y-93300000D01*
X65400000Y-93300000D01*
X65400000Y-93700000D01*
X65000000Y-93700000D01*
G37*
G36*
X64600000Y-93700000D02*
X64600000Y-93300000D01*
X65000000Y-93300000D01*
X65000000Y-93700000D01*
X64600000Y-93700000D01*
G37*
G36*
X64200000Y-93700000D02*
X64200000Y-93300000D01*
X64600000Y-93300000D01*
X64600000Y-93700000D01*
X64200000Y-93700000D01*
G37*
G36*
X63800000Y-93700000D02*
X63800000Y-93300000D01*
X64200000Y-93300000D01*
X64200000Y-93700000D01*
X63800000Y-93700000D01*
G37*
G36*
X63400000Y-93700000D02*
X63400000Y-93300000D01*
X63800000Y-93300000D01*
X63800000Y-93700000D01*
X63400000Y-93700000D01*
G37*
G36*
X63000000Y-93700000D02*
X63000000Y-93300000D01*
X63400000Y-93300000D01*
X63400000Y-93700000D01*
X63000000Y-93700000D01*
G37*
G36*
X62600000Y-93700000D02*
X62600000Y-93300000D01*
X63000000Y-93300000D01*
X63000000Y-93700000D01*
X62600000Y-93700000D01*
G37*
G36*
X77000000Y-94100000D02*
X77000000Y-93700000D01*
X77400000Y-93700000D01*
X77400000Y-94100000D01*
X77000000Y-94100000D01*
G37*
G36*
X76600000Y-94100000D02*
X76600000Y-93700000D01*
X77000000Y-93700000D01*
X77000000Y-94100000D01*
X76600000Y-94100000D01*
G37*
G36*
X73400000Y-94100000D02*
X73400000Y-93700000D01*
X73800000Y-93700000D01*
X73800000Y-94100000D01*
X73400000Y-94100000D01*
G37*
G36*
X72200000Y-94100000D02*
X72200000Y-93700000D01*
X72600000Y-93700000D01*
X72600000Y-94100000D01*
X72200000Y-94100000D01*
G37*
G36*
X71400000Y-94100000D02*
X71400000Y-93700000D01*
X71800000Y-93700000D01*
X71800000Y-94100000D01*
X71400000Y-94100000D01*
G37*
G36*
X70600000Y-94100000D02*
X70600000Y-93700000D01*
X71000000Y-93700000D01*
X71000000Y-94100000D01*
X70600000Y-94100000D01*
G37*
G36*
X70200000Y-94100000D02*
X70200000Y-93700000D01*
X70600000Y-93700000D01*
X70600000Y-94100000D01*
X70200000Y-94100000D01*
G37*
G36*
X69800000Y-94100000D02*
X69800000Y-93700000D01*
X70200000Y-93700000D01*
X70200000Y-94100000D01*
X69800000Y-94100000D01*
G37*
G36*
X69000000Y-94100000D02*
X69000000Y-93700000D01*
X69400000Y-93700000D01*
X69400000Y-94100000D01*
X69000000Y-94100000D01*
G37*
G36*
X67000000Y-94100000D02*
X67000000Y-93700000D01*
X67400000Y-93700000D01*
X67400000Y-94100000D01*
X67000000Y-94100000D01*
G37*
G36*
X66200000Y-94100000D02*
X66200000Y-93700000D01*
X66600000Y-93700000D01*
X66600000Y-94100000D01*
X66200000Y-94100000D01*
G37*
G36*
X65400000Y-94100000D02*
X65400000Y-93700000D01*
X65800000Y-93700000D01*
X65800000Y-94100000D01*
X65400000Y-94100000D01*
G37*
G36*
X65000000Y-94100000D02*
X65000000Y-93700000D01*
X65400000Y-93700000D01*
X65400000Y-94100000D01*
X65000000Y-94100000D01*
G37*
G36*
X64600000Y-94100000D02*
X64600000Y-93700000D01*
X65000000Y-93700000D01*
X65000000Y-94100000D01*
X64600000Y-94100000D01*
G37*
G36*
X64200000Y-94100000D02*
X64200000Y-93700000D01*
X64600000Y-93700000D01*
X64600000Y-94100000D01*
X64200000Y-94100000D01*
G37*
G36*
X63800000Y-94100000D02*
X63800000Y-93700000D01*
X64200000Y-93700000D01*
X64200000Y-94100000D01*
X63800000Y-94100000D01*
G37*
G36*
X63000000Y-94100000D02*
X63000000Y-93700000D01*
X63400000Y-93700000D01*
X63400000Y-94100000D01*
X63000000Y-94100000D01*
G37*
G36*
X62600000Y-94100000D02*
X62600000Y-93700000D01*
X63000000Y-93700000D01*
X63000000Y-94100000D01*
X62600000Y-94100000D01*
G37*
G36*
X77000000Y-94500000D02*
X77000000Y-94100000D01*
X77400000Y-94100000D01*
X77400000Y-94500000D01*
X77000000Y-94500000D01*
G37*
G36*
X76600000Y-94500000D02*
X76600000Y-94100000D01*
X77000000Y-94100000D01*
X77000000Y-94500000D01*
X76600000Y-94500000D01*
G37*
G36*
X76200000Y-94500000D02*
X76200000Y-94100000D01*
X76600000Y-94100000D01*
X76600000Y-94500000D01*
X76200000Y-94500000D01*
G37*
G36*
X75800000Y-94500000D02*
X75800000Y-94100000D01*
X76200000Y-94100000D01*
X76200000Y-94500000D01*
X75800000Y-94500000D01*
G37*
G36*
X75400000Y-94500000D02*
X75400000Y-94100000D01*
X75800000Y-94100000D01*
X75800000Y-94500000D01*
X75400000Y-94500000D01*
G37*
G36*
X75000000Y-94500000D02*
X75000000Y-94100000D01*
X75400000Y-94100000D01*
X75400000Y-94500000D01*
X75000000Y-94500000D01*
G37*
G36*
X74600000Y-94500000D02*
X74600000Y-94100000D01*
X75000000Y-94100000D01*
X75000000Y-94500000D01*
X74600000Y-94500000D01*
G37*
G36*
X74200000Y-94500000D02*
X74200000Y-94100000D01*
X74600000Y-94100000D01*
X74600000Y-94500000D01*
X74200000Y-94500000D01*
G37*
G36*
X73800000Y-94500000D02*
X73800000Y-94100000D01*
X74200000Y-94100000D01*
X74200000Y-94500000D01*
X73800000Y-94500000D01*
G37*
G36*
X73400000Y-94500000D02*
X73400000Y-94100000D01*
X73800000Y-94100000D01*
X73800000Y-94500000D01*
X73400000Y-94500000D01*
G37*
G36*
X73000000Y-94500000D02*
X73000000Y-94100000D01*
X73400000Y-94100000D01*
X73400000Y-94500000D01*
X73000000Y-94500000D01*
G37*
G36*
X72600000Y-94500000D02*
X72600000Y-94100000D01*
X73000000Y-94100000D01*
X73000000Y-94500000D01*
X72600000Y-94500000D01*
G37*
G36*
X72200000Y-94500000D02*
X72200000Y-94100000D01*
X72600000Y-94100000D01*
X72600000Y-94500000D01*
X72200000Y-94500000D01*
G37*
G36*
X71800000Y-94500000D02*
X71800000Y-94100000D01*
X72200000Y-94100000D01*
X72200000Y-94500000D01*
X71800000Y-94500000D01*
G37*
G36*
X71400000Y-94500000D02*
X71400000Y-94100000D01*
X71800000Y-94100000D01*
X71800000Y-94500000D01*
X71400000Y-94500000D01*
G37*
G36*
X71000000Y-94500000D02*
X71000000Y-94100000D01*
X71400000Y-94100000D01*
X71400000Y-94500000D01*
X71000000Y-94500000D01*
G37*
G36*
X70600000Y-94500000D02*
X70600000Y-94100000D01*
X71000000Y-94100000D01*
X71000000Y-94500000D01*
X70600000Y-94500000D01*
G37*
G36*
X70200000Y-94500000D02*
X70200000Y-94100000D01*
X70600000Y-94100000D01*
X70600000Y-94500000D01*
X70200000Y-94500000D01*
G37*
G36*
X69800000Y-94500000D02*
X69800000Y-94100000D01*
X70200000Y-94100000D01*
X70200000Y-94500000D01*
X69800000Y-94500000D01*
G37*
G36*
X69400000Y-94500000D02*
X69400000Y-94100000D01*
X69800000Y-94100000D01*
X69800000Y-94500000D01*
X69400000Y-94500000D01*
G37*
G36*
X69000000Y-94500000D02*
X69000000Y-94100000D01*
X69400000Y-94100000D01*
X69400000Y-94500000D01*
X69000000Y-94500000D01*
G37*
G36*
X68600000Y-94500000D02*
X68600000Y-94100000D01*
X69000000Y-94100000D01*
X69000000Y-94500000D01*
X68600000Y-94500000D01*
G37*
G36*
X68200000Y-94500000D02*
X68200000Y-94100000D01*
X68600000Y-94100000D01*
X68600000Y-94500000D01*
X68200000Y-94500000D01*
G37*
G36*
X67800000Y-94500000D02*
X67800000Y-94100000D01*
X68200000Y-94100000D01*
X68200000Y-94500000D01*
X67800000Y-94500000D01*
G37*
G36*
X67400000Y-94500000D02*
X67400000Y-94100000D01*
X67800000Y-94100000D01*
X67800000Y-94500000D01*
X67400000Y-94500000D01*
G37*
G36*
X67000000Y-94500000D02*
X67000000Y-94100000D01*
X67400000Y-94100000D01*
X67400000Y-94500000D01*
X67000000Y-94500000D01*
G37*
G36*
X66600000Y-94500000D02*
X66600000Y-94100000D01*
X67000000Y-94100000D01*
X67000000Y-94500000D01*
X66600000Y-94500000D01*
G37*
G36*
X66200000Y-94500000D02*
X66200000Y-94100000D01*
X66600000Y-94100000D01*
X66600000Y-94500000D01*
X66200000Y-94500000D01*
G37*
G36*
X65800000Y-94500000D02*
X65800000Y-94100000D01*
X66200000Y-94100000D01*
X66200000Y-94500000D01*
X65800000Y-94500000D01*
G37*
G36*
X65400000Y-94500000D02*
X65400000Y-94100000D01*
X65800000Y-94100000D01*
X65800000Y-94500000D01*
X65400000Y-94500000D01*
G37*
G36*
X65000000Y-94500000D02*
X65000000Y-94100000D01*
X65400000Y-94100000D01*
X65400000Y-94500000D01*
X65000000Y-94500000D01*
G37*
G36*
X64600000Y-94500000D02*
X64600000Y-94100000D01*
X65000000Y-94100000D01*
X65000000Y-94500000D01*
X64600000Y-94500000D01*
G37*
G36*
X64200000Y-94500000D02*
X64200000Y-94100000D01*
X64600000Y-94100000D01*
X64600000Y-94500000D01*
X64200000Y-94500000D01*
G37*
G36*
X63800000Y-94500000D02*
X63800000Y-94100000D01*
X64200000Y-94100000D01*
X64200000Y-94500000D01*
X63800000Y-94500000D01*
G37*
G36*
X63400000Y-94500000D02*
X63400000Y-94100000D01*
X63800000Y-94100000D01*
X63800000Y-94500000D01*
X63400000Y-94500000D01*
G37*
G36*
X63000000Y-94500000D02*
X63000000Y-94100000D01*
X63400000Y-94100000D01*
X63400000Y-94500000D01*
X63000000Y-94500000D01*
G37*
G36*
X62600000Y-94500000D02*
X62600000Y-94100000D01*
X63000000Y-94100000D01*
X63000000Y-94500000D01*
X62600000Y-94500000D01*
G37*
G36*
X77000000Y-94900000D02*
X77000000Y-94500000D01*
X77400000Y-94500000D01*
X77400000Y-94900000D01*
X77000000Y-94900000D01*
G37*
G36*
X76600000Y-94900000D02*
X76600000Y-94500000D01*
X77000000Y-94500000D01*
X77000000Y-94900000D01*
X76600000Y-94900000D01*
G37*
G36*
X76200000Y-94900000D02*
X76200000Y-94500000D01*
X76600000Y-94500000D01*
X76600000Y-94900000D01*
X76200000Y-94900000D01*
G37*
G36*
X75800000Y-94900000D02*
X75800000Y-94500000D01*
X76200000Y-94500000D01*
X76200000Y-94900000D01*
X75800000Y-94900000D01*
G37*
G36*
X75400000Y-94900000D02*
X75400000Y-94500000D01*
X75800000Y-94500000D01*
X75800000Y-94900000D01*
X75400000Y-94900000D01*
G37*
G36*
X75000000Y-94900000D02*
X75000000Y-94500000D01*
X75400000Y-94500000D01*
X75400000Y-94900000D01*
X75000000Y-94900000D01*
G37*
G36*
X74600000Y-94900000D02*
X74600000Y-94500000D01*
X75000000Y-94500000D01*
X75000000Y-94900000D01*
X74600000Y-94900000D01*
G37*
G36*
X74200000Y-94900000D02*
X74200000Y-94500000D01*
X74600000Y-94500000D01*
X74600000Y-94900000D01*
X74200000Y-94900000D01*
G37*
G36*
X73800000Y-94900000D02*
X73800000Y-94500000D01*
X74200000Y-94500000D01*
X74200000Y-94900000D01*
X73800000Y-94900000D01*
G37*
G36*
X73400000Y-94900000D02*
X73400000Y-94500000D01*
X73800000Y-94500000D01*
X73800000Y-94900000D01*
X73400000Y-94900000D01*
G37*
G36*
X73000000Y-94900000D02*
X73000000Y-94500000D01*
X73400000Y-94500000D01*
X73400000Y-94900000D01*
X73000000Y-94900000D01*
G37*
G36*
X72600000Y-94900000D02*
X72600000Y-94500000D01*
X73000000Y-94500000D01*
X73000000Y-94900000D01*
X72600000Y-94900000D01*
G37*
G36*
X72200000Y-94900000D02*
X72200000Y-94500000D01*
X72600000Y-94500000D01*
X72600000Y-94900000D01*
X72200000Y-94900000D01*
G37*
G36*
X71800000Y-94900000D02*
X71800000Y-94500000D01*
X72200000Y-94500000D01*
X72200000Y-94900000D01*
X71800000Y-94900000D01*
G37*
G36*
X71400000Y-94900000D02*
X71400000Y-94500000D01*
X71800000Y-94500000D01*
X71800000Y-94900000D01*
X71400000Y-94900000D01*
G37*
G36*
X71000000Y-94900000D02*
X71000000Y-94500000D01*
X71400000Y-94500000D01*
X71400000Y-94900000D01*
X71000000Y-94900000D01*
G37*
G36*
X70600000Y-94900000D02*
X70600000Y-94500000D01*
X71000000Y-94500000D01*
X71000000Y-94900000D01*
X70600000Y-94900000D01*
G37*
G36*
X70200000Y-94900000D02*
X70200000Y-94500000D01*
X70600000Y-94500000D01*
X70600000Y-94900000D01*
X70200000Y-94900000D01*
G37*
G36*
X69800000Y-94900000D02*
X69800000Y-94500000D01*
X70200000Y-94500000D01*
X70200000Y-94900000D01*
X69800000Y-94900000D01*
G37*
G36*
X69400000Y-94900000D02*
X69400000Y-94500000D01*
X69800000Y-94500000D01*
X69800000Y-94900000D01*
X69400000Y-94900000D01*
G37*
G36*
X69000000Y-94900000D02*
X69000000Y-94500000D01*
X69400000Y-94500000D01*
X69400000Y-94900000D01*
X69000000Y-94900000D01*
G37*
G36*
X68600000Y-94900000D02*
X68600000Y-94500000D01*
X69000000Y-94500000D01*
X69000000Y-94900000D01*
X68600000Y-94900000D01*
G37*
G36*
X68200000Y-94900000D02*
X68200000Y-94500000D01*
X68600000Y-94500000D01*
X68600000Y-94900000D01*
X68200000Y-94900000D01*
G37*
G36*
X67800000Y-94900000D02*
X67800000Y-94500000D01*
X68200000Y-94500000D01*
X68200000Y-94900000D01*
X67800000Y-94900000D01*
G37*
G36*
X67400000Y-94900000D02*
X67400000Y-94500000D01*
X67800000Y-94500000D01*
X67800000Y-94900000D01*
X67400000Y-94900000D01*
G37*
G36*
X67000000Y-94900000D02*
X67000000Y-94500000D01*
X67400000Y-94500000D01*
X67400000Y-94900000D01*
X67000000Y-94900000D01*
G37*
G36*
X66600000Y-94900000D02*
X66600000Y-94500000D01*
X67000000Y-94500000D01*
X67000000Y-94900000D01*
X66600000Y-94900000D01*
G37*
G36*
X66200000Y-94900000D02*
X66200000Y-94500000D01*
X66600000Y-94500000D01*
X66600000Y-94900000D01*
X66200000Y-94900000D01*
G37*
G36*
X65800000Y-94900000D02*
X65800000Y-94500000D01*
X66200000Y-94500000D01*
X66200000Y-94900000D01*
X65800000Y-94900000D01*
G37*
G36*
X65400000Y-94900000D02*
X65400000Y-94500000D01*
X65800000Y-94500000D01*
X65800000Y-94900000D01*
X65400000Y-94900000D01*
G37*
G36*
X65000000Y-94900000D02*
X65000000Y-94500000D01*
X65400000Y-94500000D01*
X65400000Y-94900000D01*
X65000000Y-94900000D01*
G37*
G36*
X64600000Y-94900000D02*
X64600000Y-94500000D01*
X65000000Y-94500000D01*
X65000000Y-94900000D01*
X64600000Y-94900000D01*
G37*
G36*
X64200000Y-94900000D02*
X64200000Y-94500000D01*
X64600000Y-94500000D01*
X64600000Y-94900000D01*
X64200000Y-94900000D01*
G37*
G36*
X63800000Y-94900000D02*
X63800000Y-94500000D01*
X64200000Y-94500000D01*
X64200000Y-94900000D01*
X63800000Y-94900000D01*
G37*
G36*
X63400000Y-94900000D02*
X63400000Y-94500000D01*
X63800000Y-94500000D01*
X63800000Y-94900000D01*
X63400000Y-94900000D01*
G37*
G36*
X63000000Y-94900000D02*
X63000000Y-94500000D01*
X63400000Y-94500000D01*
X63400000Y-94900000D01*
X63000000Y-94900000D01*
G37*
G36*
X62600000Y-94900000D02*
X62600000Y-94500000D01*
X63000000Y-94500000D01*
X63000000Y-94900000D01*
X62600000Y-94900000D01*
G37*
D13*
G04 #@! TO.C,BT1*
X137860000Y-107860000D02*
X137860000Y-108140000D01*
X137860000Y-108140000D02*
X139460000Y-108140000D01*
X139460000Y-108140000D02*
X139460000Y-109060000D01*
X139460000Y-109060000D02*
X131640000Y-109060000D01*
X131640000Y-109060000D02*
X131640000Y-102940000D01*
X131640000Y-102940000D02*
X139460000Y-102940000D01*
X139460000Y-102940000D02*
X139460000Y-103860000D01*
X139460000Y-103860000D02*
X137860000Y-103860000D01*
X137860000Y-103860000D02*
X137860000Y-104140000D01*
X131640000Y-106500000D02*
X136000000Y-106500000D01*
X136000000Y-106500000D02*
X136000000Y-105500000D01*
X136000000Y-105500000D02*
X131640000Y-105500000D01*
X137860000Y-109060000D02*
X137860000Y-108140000D01*
X137860000Y-102940000D02*
X137860000Y-103860000D01*
X135500000Y-108300000D02*
X133900000Y-108300000D01*
X133900000Y-108300000D02*
X133900000Y-107300000D01*
X133900000Y-107300000D02*
X135500000Y-107300000D01*
X135500000Y-107300000D02*
X135500000Y-108300000D01*
X135500000Y-103700000D02*
X133900000Y-103700000D01*
X133900000Y-103700000D02*
X133900000Y-104700000D01*
X133900000Y-104700000D02*
X135500000Y-104700000D01*
X135500000Y-104700000D02*
X135500000Y-103700000D01*
X133900000Y-107300000D02*
X131640000Y-107300000D01*
X133900000Y-107800000D02*
X131640000Y-107800000D01*
X137860000Y-107860000D02*
X139075000Y-107860000D01*
G04 #@! TD*
M02*
