G04 #@! TF.GenerationSoftware,KiCad,Pcbnew,(5.0.2)-1*
G04 #@! TF.CreationDate,2020-02-13T23:16:43+00:00*
G04 #@! TF.ProjectId,teatime,74656174-696d-4652-9e6b-696361645f70,rev?*
G04 #@! TF.SameCoordinates,Original*
G04 #@! TF.FileFunction,Legend,Top*
G04 #@! TF.FilePolarity,Positive*
%FSLAX46Y46*%
G04 Gerber Fmt 4.6, Leading zero omitted, Abs format (unit mm)*
G04 Created by KiCad (PCBNEW (5.0.2)-1) date 13/02/2020 23:16:43*
%MOMM*%
%LPD*%
G01*
G04 APERTURE LIST*
%ADD10C,0.120000*%
%ADD11C,0.150000*%
G04 APERTURE END LIST*
D10*
G04 #@! TO.C,C3*
X105590000Y-90647936D02*
X105590000Y-91852064D01*
X107410000Y-90647936D02*
X107410000Y-91852064D01*
G04 #@! TO.C,U1*
X111370000Y-79500000D02*
X111370000Y-74310000D01*
X116170000Y-79500000D02*
X111370000Y-79500000D01*
X116170000Y-74310000D02*
X116170000Y-79500000D01*
X111370000Y-74310000D02*
X116170000Y-74310000D01*
X115040000Y-71520000D02*
X115040000Y-74310000D01*
X113770000Y-71520000D02*
X113770000Y-74310000D01*
X112500000Y-71520000D02*
X112500000Y-74310000D01*
X111865000Y-74310000D02*
X111865000Y-79517000D01*
X115675000Y-74310000D02*
X115675000Y-79517000D01*
X111611000Y-70500000D02*
X111230000Y-70119000D01*
X111230000Y-70119000D02*
X111230000Y-70881000D01*
X111230000Y-70881000D02*
X111611000Y-70500000D01*
G04 #@! TO.C,R32*
X128120000Y-83420000D02*
X131960000Y-83420000D01*
X128120000Y-81580000D02*
X131960000Y-81580000D01*
G04 #@! TO.C,R31*
X128120000Y-85920000D02*
X131960000Y-85920000D01*
X128120000Y-84080000D02*
X131960000Y-84080000D01*
G04 #@! TO.C,R30*
X128120000Y-88420000D02*
X131960000Y-88420000D01*
X128120000Y-86580000D02*
X131960000Y-86580000D01*
G04 #@! TO.C,R29*
X128120000Y-90920000D02*
X131960000Y-90920000D01*
X128120000Y-89080000D02*
X131960000Y-89080000D01*
G04 #@! TO.C,R28*
X128120000Y-93420000D02*
X131960000Y-93420000D01*
X128120000Y-91580000D02*
X131960000Y-91580000D01*
G04 #@! TO.C,R27*
X128120000Y-95920000D02*
X131960000Y-95920000D01*
X128120000Y-94080000D02*
X131960000Y-94080000D01*
G04 #@! TO.C,R26*
X128120000Y-98420000D02*
X131960000Y-98420000D01*
X128120000Y-96580000D02*
X131960000Y-96580000D01*
G04 #@! TO.C,R25*
X128120000Y-100920000D02*
X131960000Y-100920000D01*
X128120000Y-99080000D02*
X131960000Y-99080000D01*
G04 #@! TO.C,R24*
X116580000Y-128120000D02*
X116580000Y-131960000D01*
X118420000Y-128120000D02*
X118420000Y-131960000D01*
G04 #@! TO.C,R23*
X114080000Y-128120000D02*
X114080000Y-131960000D01*
X115920000Y-128120000D02*
X115920000Y-131960000D01*
G04 #@! TO.C,R22*
X111580000Y-128120000D02*
X111580000Y-131960000D01*
X113420000Y-128120000D02*
X113420000Y-131960000D01*
G04 #@! TO.C,R21*
X109080000Y-128120000D02*
X109080000Y-131960000D01*
X110920000Y-128120000D02*
X110920000Y-131960000D01*
G04 #@! TO.C,R20*
X106580000Y-128120000D02*
X106580000Y-131960000D01*
X108420000Y-128120000D02*
X108420000Y-131960000D01*
G04 #@! TO.C,R19*
X104080000Y-128120000D02*
X104080000Y-131960000D01*
X105920000Y-128120000D02*
X105920000Y-131960000D01*
G04 #@! TO.C,R18*
X101580000Y-128120000D02*
X101580000Y-131960000D01*
X103420000Y-128120000D02*
X103420000Y-131960000D01*
G04 #@! TO.C,R17*
X99080000Y-128120000D02*
X99080000Y-131960000D01*
X100920000Y-128120000D02*
X100920000Y-131960000D01*
G04 #@! TO.C,R16*
X71880000Y-116580000D02*
X68040000Y-116580000D01*
X71880000Y-118420000D02*
X68040000Y-118420000D01*
G04 #@! TO.C,R15*
X71880000Y-114080000D02*
X68040000Y-114080000D01*
X71880000Y-115920000D02*
X68040000Y-115920000D01*
G04 #@! TO.C,R14*
X71880000Y-111580000D02*
X68040000Y-111580000D01*
X71880000Y-113420000D02*
X68040000Y-113420000D01*
G04 #@! TO.C,R13*
X71880000Y-109080000D02*
X68040000Y-109080000D01*
X71880000Y-110920000D02*
X68040000Y-110920000D01*
G04 #@! TO.C,R12*
X71880000Y-106580000D02*
X68040000Y-106580000D01*
X71880000Y-108420000D02*
X68040000Y-108420000D01*
G04 #@! TO.C,R11*
X71880000Y-104080000D02*
X68040000Y-104080000D01*
X71880000Y-105920000D02*
X68040000Y-105920000D01*
G04 #@! TO.C,R10*
X71880000Y-101580000D02*
X68040000Y-101580000D01*
X71880000Y-103420000D02*
X68040000Y-103420000D01*
G04 #@! TO.C,R9*
X71880000Y-99080000D02*
X68040000Y-99080000D01*
X71880000Y-100920000D02*
X68040000Y-100920000D01*
G04 #@! TO.C,R8*
X83420000Y-71880000D02*
X83420000Y-68040000D01*
X81580000Y-71880000D02*
X81580000Y-68040000D01*
G04 #@! TO.C,R7*
X85920000Y-71880000D02*
X85920000Y-68040000D01*
X84080000Y-71880000D02*
X84080000Y-68040000D01*
G04 #@! TO.C,R6*
X88420000Y-71880000D02*
X88420000Y-68040000D01*
X86580000Y-71880000D02*
X86580000Y-68040000D01*
G04 #@! TO.C,R5*
X90920000Y-71880000D02*
X90920000Y-68040000D01*
X89080000Y-71880000D02*
X89080000Y-68040000D01*
G04 #@! TO.C,R4*
X93420000Y-71880000D02*
X93420000Y-68040000D01*
X91580000Y-71880000D02*
X91580000Y-68040000D01*
G04 #@! TO.C,R3*
X95920000Y-71880000D02*
X95920000Y-68040000D01*
X94080000Y-71880000D02*
X94080000Y-68040000D01*
G04 #@! TO.C,R2*
X98420000Y-71880000D02*
X98420000Y-68040000D01*
X96580000Y-71880000D02*
X96580000Y-68040000D01*
G04 #@! TO.C,U6*
X94670000Y-88540000D02*
X94670000Y-90190000D01*
X104950000Y-88540000D02*
X94670000Y-88540000D01*
X104950000Y-93840000D02*
X104950000Y-88540000D01*
X94670000Y-93840000D02*
X104950000Y-93840000D01*
X94670000Y-92190000D02*
X94670000Y-93840000D01*
X94670000Y-90190000D02*
G75*
G02X94670000Y-92190000I0J-1000000D01*
G01*
G04 #@! TO.C,SW1*
X103500000Y-100750000D02*
X103500000Y-99250000D01*
X102250000Y-96750000D02*
X97750000Y-96750000D01*
X96500000Y-99250000D02*
X96500000Y-100750000D01*
X97750000Y-103250000D02*
X102250000Y-103250000D01*
G04 #@! TO.C,R33*
X92420000Y-92880000D02*
X92420000Y-89040000D01*
X90580000Y-92880000D02*
X90580000Y-89040000D01*
G04 #@! TO.C,C1*
X113102064Y-62590000D02*
X111897936Y-62590000D01*
X113102064Y-64410000D02*
X111897936Y-64410000D01*
G04 #@! TO.C,C2*
X114602064Y-66910000D02*
X113397936Y-66910000D01*
X114602064Y-65090000D02*
X113397936Y-65090000D01*
G04 #@! TO.C,D17*
X101545000Y-143710000D02*
X98455000Y-143710000D01*
X102500000Y-146270000D02*
G75*
G03X102500000Y-146270000I-2500000J0D01*
G01*
X100000462Y-149260000D02*
G75*
G02X98455170Y-143710000I-462J2990000D01*
G01*
X99999538Y-149260000D02*
G75*
G03X101544830Y-143710000I462J2990000D01*
G01*
G04 #@! TO.C,D30*
X127367773Y-59042064D02*
G75*
G03X122999495Y-62798201I-1661539J-2485837D01*
G01*
X127367004Y-59041551D02*
G75*
G02X125568454Y-64514724I-1660770J-2486350D01*
G01*
X128206234Y-61527901D02*
G75*
G03X128206234Y-61527901I-2500000J0D01*
G01*
X122999354Y-62798107D02*
X125568595Y-64514819D01*
G04 #@! TO.C,D29*
X129815157Y-67999882D02*
X132000117Y-70184842D01*
X135217831Y-67282168D02*
G75*
G03X135217831Y-67282168I-2500000J0D01*
G01*
X134831755Y-65167592D02*
G75*
G02X131999997Y-70184722I-2113924J-2114576D01*
G01*
X134832407Y-65168244D02*
G75*
G03X129815277Y-68000002I-2114576J-2113924D01*
G01*
G04 #@! TO.C,D28*
X140958448Y-72632995D02*
G75*
G03X135485275Y-74431545I-2486350J-1660770D01*
G01*
X140957935Y-72632226D02*
G75*
G02X137201798Y-77000504I-2485837J-1661539D01*
G01*
X140972098Y-74293765D02*
G75*
G03X140972098Y-74293765I-2500000J0D01*
G01*
X135485180Y-74431404D02*
X137201892Y-77000645D01*
G04 #@! TO.C,D27*
X139791528Y-81845513D02*
X140974019Y-84700301D01*
X145247905Y-82293237D02*
G75*
G03X145247905Y-82293237I-2500000J0D01*
G01*
X145510128Y-81148587D02*
G75*
G02X140973954Y-84700143I-2762223J-1144650D01*
G01*
X145510480Y-81149440D02*
G75*
G03X139791593Y-81845670I-2762575J-1143797D01*
G01*
G04 #@! TO.C,D26*
X148313571Y-90390303D02*
G75*
G03X142568743Y-89957455I-2932637J-582867D01*
G01*
X148313392Y-90389397D02*
G75*
G02X143171505Y-92987748I-2932458J-583773D01*
G01*
X147880935Y-90973170D02*
G75*
G03X147880935Y-90973170I-2500001J0D01*
G01*
X142568709Y-89957288D02*
X143171539Y-92987915D01*
G04 #@! TO.C,D25*
X143710000Y-98455000D02*
X143710000Y-101545000D01*
X148770000Y-100000000D02*
G75*
G03X148770000Y-100000000I-2500000J0D01*
G01*
X149260000Y-99999538D02*
G75*
G02X143710000Y-101544830I-2990000J-462D01*
G01*
X149260000Y-100000462D02*
G75*
G03X143710000Y-98455170I-2990000J462D01*
G01*
G04 #@! TO.C,D24*
X148313392Y-109610602D02*
G75*
G03X143171505Y-107012251I-2932458J583773D01*
G01*
X148313571Y-109609696D02*
G75*
G02X142568743Y-110042544I-2932637J582867D01*
G01*
X147880935Y-109026829D02*
G75*
G03X147880935Y-109026829I-2500001J0D01*
G01*
X143171539Y-107012084D02*
X142568709Y-110042711D01*
G04 #@! TO.C,D23*
X140974019Y-115299698D02*
X139791528Y-118154486D01*
X145247905Y-117706762D02*
G75*
G03X145247905Y-117706762I-2500000J0D01*
G01*
X145510480Y-118850559D02*
G75*
G02X139791593Y-118154329I-2762575J1143797D01*
G01*
X145510128Y-118851412D02*
G75*
G03X140973954Y-115299856I-2762223J1144650D01*
G01*
G04 #@! TO.C,D22*
X140957935Y-127367773D02*
G75*
G03X137201798Y-122999495I-2485837J1661539D01*
G01*
X140958448Y-127367004D02*
G75*
G02X135485275Y-125568454I-2486350J1660770D01*
G01*
X140972098Y-125706234D02*
G75*
G03X140972098Y-125706234I-2500000J0D01*
G01*
X137201892Y-122999354D02*
X135485180Y-125568595D01*
G04 #@! TO.C,D21*
X132000117Y-129815157D02*
X129815157Y-132000117D01*
X135217831Y-132717831D02*
G75*
G03X135217831Y-132717831I-2500000J0D01*
G01*
X134832407Y-134831755D02*
G75*
G02X129815277Y-131999997I-2114576J2113924D01*
G01*
X134831755Y-134832407D02*
G75*
G03X131999997Y-129815277I-2113924J2114576D01*
G01*
G04 #@! TO.C,D20*
X127367004Y-140958448D02*
G75*
G03X125568454Y-135485275I-1660770J2486350D01*
G01*
X127367773Y-140957935D02*
G75*
G02X122999495Y-137201798I-1661539J2485837D01*
G01*
X128206234Y-138472098D02*
G75*
G03X128206234Y-138472098I-2500000J0D01*
G01*
X125568595Y-135485180D02*
X122999354Y-137201892D01*
G04 #@! TO.C,D19*
X118154486Y-139791528D02*
X115299698Y-140974019D01*
X120206762Y-142747905D02*
G75*
G03X120206762Y-142747905I-2500000J0D01*
G01*
X118851412Y-145510128D02*
G75*
G02X115299856Y-140973954I-1144650J2762223D01*
G01*
X118850559Y-145510480D02*
G75*
G03X118154329Y-139791593I-1143797J2762575D01*
G01*
G04 #@! TO.C,D18*
X109609696Y-148313571D02*
G75*
G03X110042544Y-142568743I-582867J2932637D01*
G01*
X109610602Y-148313392D02*
G75*
G02X107012251Y-143171505I-583773J2932458D01*
G01*
X111526830Y-145380934D02*
G75*
G03X111526830Y-145380934I-2500001J0D01*
G01*
X110042711Y-142568709D02*
X107012084Y-143171539D01*
G04 #@! TO.C,D16*
X92987915Y-143171539D02*
X89957288Y-142568709D01*
X93473171Y-145380934D02*
G75*
G03X93473171Y-145380934I-2500001J0D01*
G01*
X90390303Y-148313571D02*
G75*
G02X89957455Y-142568743I582867J2932637D01*
G01*
X90389397Y-148313392D02*
G75*
G03X92987748Y-143171505I583773J2932458D01*
G01*
G04 #@! TO.C,D32*
X109610602Y-51686607D02*
G75*
G03X107012251Y-56828494I-583773J-2932458D01*
G01*
X109609696Y-51686428D02*
G75*
G02X110042544Y-57431256I-582867J-2932637D01*
G01*
X111526830Y-54619065D02*
G75*
G03X111526830Y-54619065I-2500001J0D01*
G01*
X107012084Y-56828460D02*
X110042711Y-57431290D01*
G04 #@! TO.C,D14*
X77000645Y-137201892D02*
X74431404Y-135485180D01*
X76793765Y-138472098D02*
G75*
G03X76793765Y-138472098I-2500000J0D01*
G01*
X72632995Y-140958448D02*
G75*
G02X74431545Y-135485275I1660770J2486350D01*
G01*
X72632226Y-140957935D02*
G75*
G03X77000504Y-137201798I1661539J2485837D01*
G01*
G04 #@! TO.C,D31*
X118851412Y-54489871D02*
G75*
G03X115299856Y-59026045I-1144650J-2762223D01*
G01*
X118850559Y-54489519D02*
G75*
G02X118154329Y-60208406I-1143797J-2762575D01*
G01*
X120206762Y-57252094D02*
G75*
G03X120206762Y-57252094I-2500000J0D01*
G01*
X115299698Y-59025980D02*
X118154486Y-60208471D01*
G04 #@! TO.C,D1*
X98455000Y-56290000D02*
X101545000Y-56290000D01*
X102500000Y-53730000D02*
G75*
G03X102500000Y-53730000I-2500000J0D01*
G01*
X99999538Y-50740000D02*
G75*
G02X101544830Y-56290000I462J-2990000D01*
G01*
X100000462Y-50740000D02*
G75*
G03X98455170Y-56290000I-462J-2990000D01*
G01*
G04 #@! TO.C,D2*
X90390303Y-51686428D02*
G75*
G03X89957455Y-57431256I582867J-2932637D01*
G01*
X90389397Y-51686607D02*
G75*
G02X92987748Y-56828494I583773J-2932458D01*
G01*
X93473171Y-54619065D02*
G75*
G03X93473171Y-54619065I-2500001J0D01*
G01*
X89957288Y-57431290D02*
X92987915Y-56828460D01*
G04 #@! TO.C,D3*
X81845513Y-60208471D02*
X84700301Y-59025980D01*
X84793237Y-57252094D02*
G75*
G03X84793237Y-57252094I-2500000J0D01*
G01*
X81148587Y-54489871D02*
G75*
G02X84700143Y-59026045I1144650J-2762223D01*
G01*
X81149440Y-54489519D02*
G75*
G03X81845670Y-60208406I1143797J-2762575D01*
G01*
G04 #@! TO.C,D4*
X72632995Y-59041551D02*
G75*
G03X74431545Y-64514724I1660770J-2486350D01*
G01*
X72632226Y-59042064D02*
G75*
G02X77000504Y-62798201I1661539J-2485837D01*
G01*
X76793765Y-61527901D02*
G75*
G03X76793765Y-61527901I-2500000J0D01*
G01*
X74431404Y-64514819D02*
X77000645Y-62798107D01*
G04 #@! TO.C,D5*
X67999882Y-70184842D02*
X70184842Y-67999882D01*
X69782168Y-67282168D02*
G75*
G03X69782168Y-67282168I-2500000J0D01*
G01*
X65167592Y-65168244D02*
G75*
G02X70184722Y-68000002I2114576J-2113924D01*
G01*
X65168244Y-65167592D02*
G75*
G03X68000002Y-70184722I2113924J-2114576D01*
G01*
G04 #@! TO.C,D6*
X59042064Y-72632226D02*
G75*
G03X62798201Y-77000504I2485837J-1661539D01*
G01*
X59041551Y-72632995D02*
G75*
G02X64514724Y-74431545I2486350J-1660770D01*
G01*
X64027901Y-74293765D02*
G75*
G03X64027901Y-74293765I-2500000J0D01*
G01*
X62798107Y-77000645D02*
X64514819Y-74431404D01*
G04 #@! TO.C,D7*
X59025980Y-84700301D02*
X60208471Y-81845513D01*
X59752094Y-82293237D02*
G75*
G03X59752094Y-82293237I-2500000J0D01*
G01*
X54489519Y-81149440D02*
G75*
G02X60208406Y-81845670I2762575J-1143797D01*
G01*
X54489871Y-81148587D02*
G75*
G03X59026045Y-84700143I2762223J-1144650D01*
G01*
G04 #@! TO.C,D8*
X51686607Y-90389397D02*
G75*
G03X56828494Y-92987748I2932458J-583773D01*
G01*
X51686428Y-90390303D02*
G75*
G02X57431256Y-89957455I2932637J-582867D01*
G01*
X57119066Y-90973170D02*
G75*
G03X57119066Y-90973170I-2500001J0D01*
G01*
X56828460Y-92987915D02*
X57431290Y-89957288D01*
G04 #@! TO.C,D9*
X56290000Y-101545000D02*
X56290000Y-98455000D01*
X56230000Y-100000000D02*
G75*
G03X56230000Y-100000000I-2500000J0D01*
G01*
X50740000Y-100000462D02*
G75*
G02X56290000Y-98455170I2990000J462D01*
G01*
X50740000Y-99999538D02*
G75*
G03X56290000Y-101544830I2990000J-462D01*
G01*
G04 #@! TO.C,D10*
X51686428Y-109609696D02*
G75*
G03X57431256Y-110042544I2932637J582867D01*
G01*
X51686607Y-109610602D02*
G75*
G02X56828494Y-107012251I2932458J583773D01*
G01*
X57119066Y-109026829D02*
G75*
G03X57119066Y-109026829I-2500001J0D01*
G01*
X57431290Y-110042711D02*
X56828460Y-107012084D01*
G04 #@! TO.C,D11*
X60208471Y-118154486D02*
X59025980Y-115299698D01*
X59752094Y-117706762D02*
G75*
G03X59752094Y-117706762I-2500000J0D01*
G01*
X54489871Y-118851412D02*
G75*
G02X59026045Y-115299856I2762223J1144650D01*
G01*
X54489519Y-118850559D02*
G75*
G03X60208406Y-118154329I2762575J1143797D01*
G01*
G04 #@! TO.C,D12*
X59041551Y-127367004D02*
G75*
G03X64514724Y-125568454I2486350J1660770D01*
G01*
X59042064Y-127367773D02*
G75*
G02X62798201Y-122999495I2485837J1661539D01*
G01*
X64027901Y-125706234D02*
G75*
G03X64027901Y-125706234I-2500000J0D01*
G01*
X64514819Y-125568595D02*
X62798107Y-122999354D01*
G04 #@! TO.C,D13*
X70184842Y-132000117D02*
X67999882Y-129815157D01*
X69782168Y-132717831D02*
G75*
G03X69782168Y-132717831I-2500000J0D01*
G01*
X65168244Y-134832407D02*
G75*
G02X68000002Y-129815277I2113924J2114576D01*
G01*
X65167592Y-134831755D02*
G75*
G03X70184722Y-131999997I2114576J2113924D01*
G01*
G04 #@! TO.C,D15*
X81148587Y-145510128D02*
G75*
G03X84700143Y-140973954I1144650J2762223D01*
G01*
X81149440Y-145510480D02*
G75*
G02X81845670Y-139791593I1143797J2762575D01*
G01*
X84793237Y-142747905D02*
G75*
G03X84793237Y-142747905I-2500000J0D01*
G01*
X84700301Y-140974019D02*
X81845513Y-139791528D01*
G04 #@! TO.C,U3*
X81460000Y-98670000D02*
X79810000Y-98670000D01*
X81460000Y-119110000D02*
X81460000Y-98670000D01*
X76160000Y-119110000D02*
X81460000Y-119110000D01*
X76160000Y-98670000D02*
X76160000Y-119110000D01*
X77810000Y-98670000D02*
X76160000Y-98670000D01*
X79810000Y-98670000D02*
G75*
G02X77810000Y-98670000I-1000000J0D01*
G01*
G04 #@! TO.C,U4*
X98670000Y-120190000D02*
G75*
G02X98670000Y-122190000I0J-1000000D01*
G01*
X98670000Y-122190000D02*
X98670000Y-123840000D01*
X98670000Y-123840000D02*
X119110000Y-123840000D01*
X119110000Y-123840000D02*
X119110000Y-118540000D01*
X119110000Y-118540000D02*
X98670000Y-118540000D01*
X98670000Y-118540000D02*
X98670000Y-120190000D01*
G04 #@! TO.C,U5*
X118540000Y-101330000D02*
X120190000Y-101330000D01*
X118540000Y-80890000D02*
X118540000Y-101330000D01*
X123840000Y-80890000D02*
X118540000Y-80890000D01*
X123840000Y-101330000D02*
X123840000Y-80890000D01*
X122190000Y-101330000D02*
X123840000Y-101330000D01*
X120190000Y-101330000D02*
G75*
G02X122190000Y-101330000I1000000J0D01*
G01*
G04 #@! TO.C,U2*
X101330000Y-79810000D02*
G75*
G02X101330000Y-77810000I0J1000000D01*
G01*
X101330000Y-77810000D02*
X101330000Y-76160000D01*
X101330000Y-76160000D02*
X80890000Y-76160000D01*
X80890000Y-76160000D02*
X80890000Y-81460000D01*
X80890000Y-81460000D02*
X101330000Y-81460000D01*
X101330000Y-81460000D02*
X101330000Y-79810000D01*
G04 #@! TO.C,R1*
X100920000Y-71880000D02*
X100920000Y-68040000D01*
X99080000Y-71880000D02*
X99080000Y-68040000D01*
G04 #@! TO.C,C3*
D11*
X108677142Y-91416666D02*
X108724761Y-91464285D01*
X108772380Y-91607142D01*
X108772380Y-91702380D01*
X108724761Y-91845238D01*
X108629523Y-91940476D01*
X108534285Y-91988095D01*
X108343809Y-92035714D01*
X108200952Y-92035714D01*
X108010476Y-91988095D01*
X107915238Y-91940476D01*
X107820000Y-91845238D01*
X107772380Y-91702380D01*
X107772380Y-91607142D01*
X107820000Y-91464285D01*
X107867619Y-91416666D01*
X107772380Y-91083333D02*
X107772380Y-90464285D01*
X108153333Y-90797619D01*
X108153333Y-90654761D01*
X108200952Y-90559523D01*
X108248571Y-90511904D01*
X108343809Y-90464285D01*
X108581904Y-90464285D01*
X108677142Y-90511904D01*
X108724761Y-90559523D01*
X108772380Y-90654761D01*
X108772380Y-90940476D01*
X108724761Y-91035714D01*
X108677142Y-91083333D01*
G04 #@! TO.C,U1*
X113008095Y-79985380D02*
X113008095Y-80794904D01*
X113055714Y-80890142D01*
X113103333Y-80937761D01*
X113198571Y-80985380D01*
X113389047Y-80985380D01*
X113484285Y-80937761D01*
X113531904Y-80890142D01*
X113579523Y-80794904D01*
X113579523Y-79985380D01*
X114579523Y-80985380D02*
X114008095Y-80985380D01*
X114293809Y-80985380D02*
X114293809Y-79985380D01*
X114198571Y-80128238D01*
X114103333Y-80223476D01*
X114008095Y-80271095D01*
G04 #@! TO.C,R32*
X134357142Y-82952380D02*
X134023809Y-82476190D01*
X133785714Y-82952380D02*
X133785714Y-81952380D01*
X134166666Y-81952380D01*
X134261904Y-82000000D01*
X134309523Y-82047619D01*
X134357142Y-82142857D01*
X134357142Y-82285714D01*
X134309523Y-82380952D01*
X134261904Y-82428571D01*
X134166666Y-82476190D01*
X133785714Y-82476190D01*
X134690476Y-81952380D02*
X135309523Y-81952380D01*
X134976190Y-82333333D01*
X135119047Y-82333333D01*
X135214285Y-82380952D01*
X135261904Y-82428571D01*
X135309523Y-82523809D01*
X135309523Y-82761904D01*
X135261904Y-82857142D01*
X135214285Y-82904761D01*
X135119047Y-82952380D01*
X134833333Y-82952380D01*
X134738095Y-82904761D01*
X134690476Y-82857142D01*
X135690476Y-82047619D02*
X135738095Y-82000000D01*
X135833333Y-81952380D01*
X136071428Y-81952380D01*
X136166666Y-82000000D01*
X136214285Y-82047619D01*
X136261904Y-82142857D01*
X136261904Y-82238095D01*
X136214285Y-82380952D01*
X135642857Y-82952380D01*
X136261904Y-82952380D01*
G04 #@! TO.C,R31*
X134357142Y-85452380D02*
X134023809Y-84976190D01*
X133785714Y-85452380D02*
X133785714Y-84452380D01*
X134166666Y-84452380D01*
X134261904Y-84500000D01*
X134309523Y-84547619D01*
X134357142Y-84642857D01*
X134357142Y-84785714D01*
X134309523Y-84880952D01*
X134261904Y-84928571D01*
X134166666Y-84976190D01*
X133785714Y-84976190D01*
X134690476Y-84452380D02*
X135309523Y-84452380D01*
X134976190Y-84833333D01*
X135119047Y-84833333D01*
X135214285Y-84880952D01*
X135261904Y-84928571D01*
X135309523Y-85023809D01*
X135309523Y-85261904D01*
X135261904Y-85357142D01*
X135214285Y-85404761D01*
X135119047Y-85452380D01*
X134833333Y-85452380D01*
X134738095Y-85404761D01*
X134690476Y-85357142D01*
X136261904Y-85452380D02*
X135690476Y-85452380D01*
X135976190Y-85452380D02*
X135976190Y-84452380D01*
X135880952Y-84595238D01*
X135785714Y-84690476D01*
X135690476Y-84738095D01*
G04 #@! TO.C,R30*
X134357142Y-87952380D02*
X134023809Y-87476190D01*
X133785714Y-87952380D02*
X133785714Y-86952380D01*
X134166666Y-86952380D01*
X134261904Y-87000000D01*
X134309523Y-87047619D01*
X134357142Y-87142857D01*
X134357142Y-87285714D01*
X134309523Y-87380952D01*
X134261904Y-87428571D01*
X134166666Y-87476190D01*
X133785714Y-87476190D01*
X134690476Y-86952380D02*
X135309523Y-86952380D01*
X134976190Y-87333333D01*
X135119047Y-87333333D01*
X135214285Y-87380952D01*
X135261904Y-87428571D01*
X135309523Y-87523809D01*
X135309523Y-87761904D01*
X135261904Y-87857142D01*
X135214285Y-87904761D01*
X135119047Y-87952380D01*
X134833333Y-87952380D01*
X134738095Y-87904761D01*
X134690476Y-87857142D01*
X135928571Y-86952380D02*
X136023809Y-86952380D01*
X136119047Y-87000000D01*
X136166666Y-87047619D01*
X136214285Y-87142857D01*
X136261904Y-87333333D01*
X136261904Y-87571428D01*
X136214285Y-87761904D01*
X136166666Y-87857142D01*
X136119047Y-87904761D01*
X136023809Y-87952380D01*
X135928571Y-87952380D01*
X135833333Y-87904761D01*
X135785714Y-87857142D01*
X135738095Y-87761904D01*
X135690476Y-87571428D01*
X135690476Y-87333333D01*
X135738095Y-87142857D01*
X135785714Y-87047619D01*
X135833333Y-87000000D01*
X135928571Y-86952380D01*
G04 #@! TO.C,R29*
X134357142Y-90452380D02*
X134023809Y-89976190D01*
X133785714Y-90452380D02*
X133785714Y-89452380D01*
X134166666Y-89452380D01*
X134261904Y-89500000D01*
X134309523Y-89547619D01*
X134357142Y-89642857D01*
X134357142Y-89785714D01*
X134309523Y-89880952D01*
X134261904Y-89928571D01*
X134166666Y-89976190D01*
X133785714Y-89976190D01*
X134738095Y-89547619D02*
X134785714Y-89500000D01*
X134880952Y-89452380D01*
X135119047Y-89452380D01*
X135214285Y-89500000D01*
X135261904Y-89547619D01*
X135309523Y-89642857D01*
X135309523Y-89738095D01*
X135261904Y-89880952D01*
X134690476Y-90452380D01*
X135309523Y-90452380D01*
X135785714Y-90452380D02*
X135976190Y-90452380D01*
X136071428Y-90404761D01*
X136119047Y-90357142D01*
X136214285Y-90214285D01*
X136261904Y-90023809D01*
X136261904Y-89642857D01*
X136214285Y-89547619D01*
X136166666Y-89500000D01*
X136071428Y-89452380D01*
X135880952Y-89452380D01*
X135785714Y-89500000D01*
X135738095Y-89547619D01*
X135690476Y-89642857D01*
X135690476Y-89880952D01*
X135738095Y-89976190D01*
X135785714Y-90023809D01*
X135880952Y-90071428D01*
X136071428Y-90071428D01*
X136166666Y-90023809D01*
X136214285Y-89976190D01*
X136261904Y-89880952D01*
G04 #@! TO.C,R28*
X134357142Y-92952380D02*
X134023809Y-92476190D01*
X133785714Y-92952380D02*
X133785714Y-91952380D01*
X134166666Y-91952380D01*
X134261904Y-92000000D01*
X134309523Y-92047619D01*
X134357142Y-92142857D01*
X134357142Y-92285714D01*
X134309523Y-92380952D01*
X134261904Y-92428571D01*
X134166666Y-92476190D01*
X133785714Y-92476190D01*
X134738095Y-92047619D02*
X134785714Y-92000000D01*
X134880952Y-91952380D01*
X135119047Y-91952380D01*
X135214285Y-92000000D01*
X135261904Y-92047619D01*
X135309523Y-92142857D01*
X135309523Y-92238095D01*
X135261904Y-92380952D01*
X134690476Y-92952380D01*
X135309523Y-92952380D01*
X135880952Y-92380952D02*
X135785714Y-92333333D01*
X135738095Y-92285714D01*
X135690476Y-92190476D01*
X135690476Y-92142857D01*
X135738095Y-92047619D01*
X135785714Y-92000000D01*
X135880952Y-91952380D01*
X136071428Y-91952380D01*
X136166666Y-92000000D01*
X136214285Y-92047619D01*
X136261904Y-92142857D01*
X136261904Y-92190476D01*
X136214285Y-92285714D01*
X136166666Y-92333333D01*
X136071428Y-92380952D01*
X135880952Y-92380952D01*
X135785714Y-92428571D01*
X135738095Y-92476190D01*
X135690476Y-92571428D01*
X135690476Y-92761904D01*
X135738095Y-92857142D01*
X135785714Y-92904761D01*
X135880952Y-92952380D01*
X136071428Y-92952380D01*
X136166666Y-92904761D01*
X136214285Y-92857142D01*
X136261904Y-92761904D01*
X136261904Y-92571428D01*
X136214285Y-92476190D01*
X136166666Y-92428571D01*
X136071428Y-92380952D01*
G04 #@! TO.C,R27*
X134357142Y-95452380D02*
X134023809Y-94976190D01*
X133785714Y-95452380D02*
X133785714Y-94452380D01*
X134166666Y-94452380D01*
X134261904Y-94500000D01*
X134309523Y-94547619D01*
X134357142Y-94642857D01*
X134357142Y-94785714D01*
X134309523Y-94880952D01*
X134261904Y-94928571D01*
X134166666Y-94976190D01*
X133785714Y-94976190D01*
X134738095Y-94547619D02*
X134785714Y-94500000D01*
X134880952Y-94452380D01*
X135119047Y-94452380D01*
X135214285Y-94500000D01*
X135261904Y-94547619D01*
X135309523Y-94642857D01*
X135309523Y-94738095D01*
X135261904Y-94880952D01*
X134690476Y-95452380D01*
X135309523Y-95452380D01*
X135642857Y-94452380D02*
X136309523Y-94452380D01*
X135880952Y-95452380D01*
G04 #@! TO.C,R26*
X134357142Y-97952380D02*
X134023809Y-97476190D01*
X133785714Y-97952380D02*
X133785714Y-96952380D01*
X134166666Y-96952380D01*
X134261904Y-97000000D01*
X134309523Y-97047619D01*
X134357142Y-97142857D01*
X134357142Y-97285714D01*
X134309523Y-97380952D01*
X134261904Y-97428571D01*
X134166666Y-97476190D01*
X133785714Y-97476190D01*
X134738095Y-97047619D02*
X134785714Y-97000000D01*
X134880952Y-96952380D01*
X135119047Y-96952380D01*
X135214285Y-97000000D01*
X135261904Y-97047619D01*
X135309523Y-97142857D01*
X135309523Y-97238095D01*
X135261904Y-97380952D01*
X134690476Y-97952380D01*
X135309523Y-97952380D01*
X136166666Y-96952380D02*
X135976190Y-96952380D01*
X135880952Y-97000000D01*
X135833333Y-97047619D01*
X135738095Y-97190476D01*
X135690476Y-97380952D01*
X135690476Y-97761904D01*
X135738095Y-97857142D01*
X135785714Y-97904761D01*
X135880952Y-97952380D01*
X136071428Y-97952380D01*
X136166666Y-97904761D01*
X136214285Y-97857142D01*
X136261904Y-97761904D01*
X136261904Y-97523809D01*
X136214285Y-97428571D01*
X136166666Y-97380952D01*
X136071428Y-97333333D01*
X135880952Y-97333333D01*
X135785714Y-97380952D01*
X135738095Y-97428571D01*
X135690476Y-97523809D01*
G04 #@! TO.C,R25*
X134357142Y-100452380D02*
X134023809Y-99976190D01*
X133785714Y-100452380D02*
X133785714Y-99452380D01*
X134166666Y-99452380D01*
X134261904Y-99500000D01*
X134309523Y-99547619D01*
X134357142Y-99642857D01*
X134357142Y-99785714D01*
X134309523Y-99880952D01*
X134261904Y-99928571D01*
X134166666Y-99976190D01*
X133785714Y-99976190D01*
X134738095Y-99547619D02*
X134785714Y-99500000D01*
X134880952Y-99452380D01*
X135119047Y-99452380D01*
X135214285Y-99500000D01*
X135261904Y-99547619D01*
X135309523Y-99642857D01*
X135309523Y-99738095D01*
X135261904Y-99880952D01*
X134690476Y-100452380D01*
X135309523Y-100452380D01*
X136214285Y-99452380D02*
X135738095Y-99452380D01*
X135690476Y-99928571D01*
X135738095Y-99880952D01*
X135833333Y-99833333D01*
X136071428Y-99833333D01*
X136166666Y-99880952D01*
X136214285Y-99928571D01*
X136261904Y-100023809D01*
X136261904Y-100261904D01*
X136214285Y-100357142D01*
X136166666Y-100404761D01*
X136071428Y-100452380D01*
X135833333Y-100452380D01*
X135738095Y-100404761D01*
X135690476Y-100357142D01*
G04 #@! TO.C,R24*
X117952380Y-135642857D02*
X117476190Y-135976190D01*
X117952380Y-136214285D02*
X116952380Y-136214285D01*
X116952380Y-135833333D01*
X117000000Y-135738095D01*
X117047619Y-135690476D01*
X117142857Y-135642857D01*
X117285714Y-135642857D01*
X117380952Y-135690476D01*
X117428571Y-135738095D01*
X117476190Y-135833333D01*
X117476190Y-136214285D01*
X117047619Y-135261904D02*
X117000000Y-135214285D01*
X116952380Y-135119047D01*
X116952380Y-134880952D01*
X117000000Y-134785714D01*
X117047619Y-134738095D01*
X117142857Y-134690476D01*
X117238095Y-134690476D01*
X117380952Y-134738095D01*
X117952380Y-135309523D01*
X117952380Y-134690476D01*
X117285714Y-133833333D02*
X117952380Y-133833333D01*
X116904761Y-134071428D02*
X117619047Y-134309523D01*
X117619047Y-133690476D01*
G04 #@! TO.C,R23*
X115452380Y-135642857D02*
X114976190Y-135976190D01*
X115452380Y-136214285D02*
X114452380Y-136214285D01*
X114452380Y-135833333D01*
X114500000Y-135738095D01*
X114547619Y-135690476D01*
X114642857Y-135642857D01*
X114785714Y-135642857D01*
X114880952Y-135690476D01*
X114928571Y-135738095D01*
X114976190Y-135833333D01*
X114976190Y-136214285D01*
X114547619Y-135261904D02*
X114500000Y-135214285D01*
X114452380Y-135119047D01*
X114452380Y-134880952D01*
X114500000Y-134785714D01*
X114547619Y-134738095D01*
X114642857Y-134690476D01*
X114738095Y-134690476D01*
X114880952Y-134738095D01*
X115452380Y-135309523D01*
X115452380Y-134690476D01*
X114452380Y-134357142D02*
X114452380Y-133738095D01*
X114833333Y-134071428D01*
X114833333Y-133928571D01*
X114880952Y-133833333D01*
X114928571Y-133785714D01*
X115023809Y-133738095D01*
X115261904Y-133738095D01*
X115357142Y-133785714D01*
X115404761Y-133833333D01*
X115452380Y-133928571D01*
X115452380Y-134214285D01*
X115404761Y-134309523D01*
X115357142Y-134357142D01*
G04 #@! TO.C,R22*
X112952380Y-135642857D02*
X112476190Y-135976190D01*
X112952380Y-136214285D02*
X111952380Y-136214285D01*
X111952380Y-135833333D01*
X112000000Y-135738095D01*
X112047619Y-135690476D01*
X112142857Y-135642857D01*
X112285714Y-135642857D01*
X112380952Y-135690476D01*
X112428571Y-135738095D01*
X112476190Y-135833333D01*
X112476190Y-136214285D01*
X112047619Y-135261904D02*
X112000000Y-135214285D01*
X111952380Y-135119047D01*
X111952380Y-134880952D01*
X112000000Y-134785714D01*
X112047619Y-134738095D01*
X112142857Y-134690476D01*
X112238095Y-134690476D01*
X112380952Y-134738095D01*
X112952380Y-135309523D01*
X112952380Y-134690476D01*
X112047619Y-134309523D02*
X112000000Y-134261904D01*
X111952380Y-134166666D01*
X111952380Y-133928571D01*
X112000000Y-133833333D01*
X112047619Y-133785714D01*
X112142857Y-133738095D01*
X112238095Y-133738095D01*
X112380952Y-133785714D01*
X112952380Y-134357142D01*
X112952380Y-133738095D01*
G04 #@! TO.C,R21*
X110452380Y-135642857D02*
X109976190Y-135976190D01*
X110452380Y-136214285D02*
X109452380Y-136214285D01*
X109452380Y-135833333D01*
X109500000Y-135738095D01*
X109547619Y-135690476D01*
X109642857Y-135642857D01*
X109785714Y-135642857D01*
X109880952Y-135690476D01*
X109928571Y-135738095D01*
X109976190Y-135833333D01*
X109976190Y-136214285D01*
X109547619Y-135261904D02*
X109500000Y-135214285D01*
X109452380Y-135119047D01*
X109452380Y-134880952D01*
X109500000Y-134785714D01*
X109547619Y-134738095D01*
X109642857Y-134690476D01*
X109738095Y-134690476D01*
X109880952Y-134738095D01*
X110452380Y-135309523D01*
X110452380Y-134690476D01*
X110452380Y-133738095D02*
X110452380Y-134309523D01*
X110452380Y-134023809D02*
X109452380Y-134023809D01*
X109595238Y-134119047D01*
X109690476Y-134214285D01*
X109738095Y-134309523D01*
G04 #@! TO.C,R20*
X107952380Y-135642857D02*
X107476190Y-135976190D01*
X107952380Y-136214285D02*
X106952380Y-136214285D01*
X106952380Y-135833333D01*
X107000000Y-135738095D01*
X107047619Y-135690476D01*
X107142857Y-135642857D01*
X107285714Y-135642857D01*
X107380952Y-135690476D01*
X107428571Y-135738095D01*
X107476190Y-135833333D01*
X107476190Y-136214285D01*
X107047619Y-135261904D02*
X107000000Y-135214285D01*
X106952380Y-135119047D01*
X106952380Y-134880952D01*
X107000000Y-134785714D01*
X107047619Y-134738095D01*
X107142857Y-134690476D01*
X107238095Y-134690476D01*
X107380952Y-134738095D01*
X107952380Y-135309523D01*
X107952380Y-134690476D01*
X106952380Y-134071428D02*
X106952380Y-133976190D01*
X107000000Y-133880952D01*
X107047619Y-133833333D01*
X107142857Y-133785714D01*
X107333333Y-133738095D01*
X107571428Y-133738095D01*
X107761904Y-133785714D01*
X107857142Y-133833333D01*
X107904761Y-133880952D01*
X107952380Y-133976190D01*
X107952380Y-134071428D01*
X107904761Y-134166666D01*
X107857142Y-134214285D01*
X107761904Y-134261904D01*
X107571428Y-134309523D01*
X107333333Y-134309523D01*
X107142857Y-134261904D01*
X107047619Y-134214285D01*
X107000000Y-134166666D01*
X106952380Y-134071428D01*
G04 #@! TO.C,R19*
X105452380Y-135642857D02*
X104976190Y-135976190D01*
X105452380Y-136214285D02*
X104452380Y-136214285D01*
X104452380Y-135833333D01*
X104500000Y-135738095D01*
X104547619Y-135690476D01*
X104642857Y-135642857D01*
X104785714Y-135642857D01*
X104880952Y-135690476D01*
X104928571Y-135738095D01*
X104976190Y-135833333D01*
X104976190Y-136214285D01*
X105452380Y-134690476D02*
X105452380Y-135261904D01*
X105452380Y-134976190D02*
X104452380Y-134976190D01*
X104595238Y-135071428D01*
X104690476Y-135166666D01*
X104738095Y-135261904D01*
X105452380Y-134214285D02*
X105452380Y-134023809D01*
X105404761Y-133928571D01*
X105357142Y-133880952D01*
X105214285Y-133785714D01*
X105023809Y-133738095D01*
X104642857Y-133738095D01*
X104547619Y-133785714D01*
X104500000Y-133833333D01*
X104452380Y-133928571D01*
X104452380Y-134119047D01*
X104500000Y-134214285D01*
X104547619Y-134261904D01*
X104642857Y-134309523D01*
X104880952Y-134309523D01*
X104976190Y-134261904D01*
X105023809Y-134214285D01*
X105071428Y-134119047D01*
X105071428Y-133928571D01*
X105023809Y-133833333D01*
X104976190Y-133785714D01*
X104880952Y-133738095D01*
G04 #@! TO.C,R18*
X102952380Y-135642857D02*
X102476190Y-135976190D01*
X102952380Y-136214285D02*
X101952380Y-136214285D01*
X101952380Y-135833333D01*
X102000000Y-135738095D01*
X102047619Y-135690476D01*
X102142857Y-135642857D01*
X102285714Y-135642857D01*
X102380952Y-135690476D01*
X102428571Y-135738095D01*
X102476190Y-135833333D01*
X102476190Y-136214285D01*
X102952380Y-134690476D02*
X102952380Y-135261904D01*
X102952380Y-134976190D02*
X101952380Y-134976190D01*
X102095238Y-135071428D01*
X102190476Y-135166666D01*
X102238095Y-135261904D01*
X102380952Y-134119047D02*
X102333333Y-134214285D01*
X102285714Y-134261904D01*
X102190476Y-134309523D01*
X102142857Y-134309523D01*
X102047619Y-134261904D01*
X102000000Y-134214285D01*
X101952380Y-134119047D01*
X101952380Y-133928571D01*
X102000000Y-133833333D01*
X102047619Y-133785714D01*
X102142857Y-133738095D01*
X102190476Y-133738095D01*
X102285714Y-133785714D01*
X102333333Y-133833333D01*
X102380952Y-133928571D01*
X102380952Y-134119047D01*
X102428571Y-134214285D01*
X102476190Y-134261904D01*
X102571428Y-134309523D01*
X102761904Y-134309523D01*
X102857142Y-134261904D01*
X102904761Y-134214285D01*
X102952380Y-134119047D01*
X102952380Y-133928571D01*
X102904761Y-133833333D01*
X102857142Y-133785714D01*
X102761904Y-133738095D01*
X102571428Y-133738095D01*
X102476190Y-133785714D01*
X102428571Y-133833333D01*
X102380952Y-133928571D01*
G04 #@! TO.C,R17*
X100452380Y-135642857D02*
X99976190Y-135976190D01*
X100452380Y-136214285D02*
X99452380Y-136214285D01*
X99452380Y-135833333D01*
X99500000Y-135738095D01*
X99547619Y-135690476D01*
X99642857Y-135642857D01*
X99785714Y-135642857D01*
X99880952Y-135690476D01*
X99928571Y-135738095D01*
X99976190Y-135833333D01*
X99976190Y-136214285D01*
X100452380Y-134690476D02*
X100452380Y-135261904D01*
X100452380Y-134976190D02*
X99452380Y-134976190D01*
X99595238Y-135071428D01*
X99690476Y-135166666D01*
X99738095Y-135261904D01*
X99452380Y-134357142D02*
X99452380Y-133690476D01*
X100452380Y-134119047D01*
G04 #@! TO.C,R16*
X64357142Y-117952380D02*
X64023809Y-117476190D01*
X63785714Y-117952380D02*
X63785714Y-116952380D01*
X64166666Y-116952380D01*
X64261904Y-117000000D01*
X64309523Y-117047619D01*
X64357142Y-117142857D01*
X64357142Y-117285714D01*
X64309523Y-117380952D01*
X64261904Y-117428571D01*
X64166666Y-117476190D01*
X63785714Y-117476190D01*
X65309523Y-117952380D02*
X64738095Y-117952380D01*
X65023809Y-117952380D02*
X65023809Y-116952380D01*
X64928571Y-117095238D01*
X64833333Y-117190476D01*
X64738095Y-117238095D01*
X66166666Y-116952380D02*
X65976190Y-116952380D01*
X65880952Y-117000000D01*
X65833333Y-117047619D01*
X65738095Y-117190476D01*
X65690476Y-117380952D01*
X65690476Y-117761904D01*
X65738095Y-117857142D01*
X65785714Y-117904761D01*
X65880952Y-117952380D01*
X66071428Y-117952380D01*
X66166666Y-117904761D01*
X66214285Y-117857142D01*
X66261904Y-117761904D01*
X66261904Y-117523809D01*
X66214285Y-117428571D01*
X66166666Y-117380952D01*
X66071428Y-117333333D01*
X65880952Y-117333333D01*
X65785714Y-117380952D01*
X65738095Y-117428571D01*
X65690476Y-117523809D01*
G04 #@! TO.C,R15*
X64357142Y-115452380D02*
X64023809Y-114976190D01*
X63785714Y-115452380D02*
X63785714Y-114452380D01*
X64166666Y-114452380D01*
X64261904Y-114500000D01*
X64309523Y-114547619D01*
X64357142Y-114642857D01*
X64357142Y-114785714D01*
X64309523Y-114880952D01*
X64261904Y-114928571D01*
X64166666Y-114976190D01*
X63785714Y-114976190D01*
X65309523Y-115452380D02*
X64738095Y-115452380D01*
X65023809Y-115452380D02*
X65023809Y-114452380D01*
X64928571Y-114595238D01*
X64833333Y-114690476D01*
X64738095Y-114738095D01*
X66214285Y-114452380D02*
X65738095Y-114452380D01*
X65690476Y-114928571D01*
X65738095Y-114880952D01*
X65833333Y-114833333D01*
X66071428Y-114833333D01*
X66166666Y-114880952D01*
X66214285Y-114928571D01*
X66261904Y-115023809D01*
X66261904Y-115261904D01*
X66214285Y-115357142D01*
X66166666Y-115404761D01*
X66071428Y-115452380D01*
X65833333Y-115452380D01*
X65738095Y-115404761D01*
X65690476Y-115357142D01*
G04 #@! TO.C,R14*
X64357142Y-112952380D02*
X64023809Y-112476190D01*
X63785714Y-112952380D02*
X63785714Y-111952380D01*
X64166666Y-111952380D01*
X64261904Y-112000000D01*
X64309523Y-112047619D01*
X64357142Y-112142857D01*
X64357142Y-112285714D01*
X64309523Y-112380952D01*
X64261904Y-112428571D01*
X64166666Y-112476190D01*
X63785714Y-112476190D01*
X65309523Y-112952380D02*
X64738095Y-112952380D01*
X65023809Y-112952380D02*
X65023809Y-111952380D01*
X64928571Y-112095238D01*
X64833333Y-112190476D01*
X64738095Y-112238095D01*
X66166666Y-112285714D02*
X66166666Y-112952380D01*
X65928571Y-111904761D02*
X65690476Y-112619047D01*
X66309523Y-112619047D01*
G04 #@! TO.C,R13*
X64357142Y-110452380D02*
X64023809Y-109976190D01*
X63785714Y-110452380D02*
X63785714Y-109452380D01*
X64166666Y-109452380D01*
X64261904Y-109500000D01*
X64309523Y-109547619D01*
X64357142Y-109642857D01*
X64357142Y-109785714D01*
X64309523Y-109880952D01*
X64261904Y-109928571D01*
X64166666Y-109976190D01*
X63785714Y-109976190D01*
X65309523Y-110452380D02*
X64738095Y-110452380D01*
X65023809Y-110452380D02*
X65023809Y-109452380D01*
X64928571Y-109595238D01*
X64833333Y-109690476D01*
X64738095Y-109738095D01*
X65642857Y-109452380D02*
X66261904Y-109452380D01*
X65928571Y-109833333D01*
X66071428Y-109833333D01*
X66166666Y-109880952D01*
X66214285Y-109928571D01*
X66261904Y-110023809D01*
X66261904Y-110261904D01*
X66214285Y-110357142D01*
X66166666Y-110404761D01*
X66071428Y-110452380D01*
X65785714Y-110452380D01*
X65690476Y-110404761D01*
X65642857Y-110357142D01*
G04 #@! TO.C,R12*
X64357142Y-107952380D02*
X64023809Y-107476190D01*
X63785714Y-107952380D02*
X63785714Y-106952380D01*
X64166666Y-106952380D01*
X64261904Y-107000000D01*
X64309523Y-107047619D01*
X64357142Y-107142857D01*
X64357142Y-107285714D01*
X64309523Y-107380952D01*
X64261904Y-107428571D01*
X64166666Y-107476190D01*
X63785714Y-107476190D01*
X65309523Y-107952380D02*
X64738095Y-107952380D01*
X65023809Y-107952380D02*
X65023809Y-106952380D01*
X64928571Y-107095238D01*
X64833333Y-107190476D01*
X64738095Y-107238095D01*
X65690476Y-107047619D02*
X65738095Y-107000000D01*
X65833333Y-106952380D01*
X66071428Y-106952380D01*
X66166666Y-107000000D01*
X66214285Y-107047619D01*
X66261904Y-107142857D01*
X66261904Y-107238095D01*
X66214285Y-107380952D01*
X65642857Y-107952380D01*
X66261904Y-107952380D01*
G04 #@! TO.C,R11*
X64357142Y-105452380D02*
X64023809Y-104976190D01*
X63785714Y-105452380D02*
X63785714Y-104452380D01*
X64166666Y-104452380D01*
X64261904Y-104500000D01*
X64309523Y-104547619D01*
X64357142Y-104642857D01*
X64357142Y-104785714D01*
X64309523Y-104880952D01*
X64261904Y-104928571D01*
X64166666Y-104976190D01*
X63785714Y-104976190D01*
X65309523Y-105452380D02*
X64738095Y-105452380D01*
X65023809Y-105452380D02*
X65023809Y-104452380D01*
X64928571Y-104595238D01*
X64833333Y-104690476D01*
X64738095Y-104738095D01*
X66261904Y-105452380D02*
X65690476Y-105452380D01*
X65976190Y-105452380D02*
X65976190Y-104452380D01*
X65880952Y-104595238D01*
X65785714Y-104690476D01*
X65690476Y-104738095D01*
G04 #@! TO.C,R10*
X64357142Y-102952380D02*
X64023809Y-102476190D01*
X63785714Y-102952380D02*
X63785714Y-101952380D01*
X64166666Y-101952380D01*
X64261904Y-102000000D01*
X64309523Y-102047619D01*
X64357142Y-102142857D01*
X64357142Y-102285714D01*
X64309523Y-102380952D01*
X64261904Y-102428571D01*
X64166666Y-102476190D01*
X63785714Y-102476190D01*
X65309523Y-102952380D02*
X64738095Y-102952380D01*
X65023809Y-102952380D02*
X65023809Y-101952380D01*
X64928571Y-102095238D01*
X64833333Y-102190476D01*
X64738095Y-102238095D01*
X65928571Y-101952380D02*
X66023809Y-101952380D01*
X66119047Y-102000000D01*
X66166666Y-102047619D01*
X66214285Y-102142857D01*
X66261904Y-102333333D01*
X66261904Y-102571428D01*
X66214285Y-102761904D01*
X66166666Y-102857142D01*
X66119047Y-102904761D01*
X66023809Y-102952380D01*
X65928571Y-102952380D01*
X65833333Y-102904761D01*
X65785714Y-102857142D01*
X65738095Y-102761904D01*
X65690476Y-102571428D01*
X65690476Y-102333333D01*
X65738095Y-102142857D01*
X65785714Y-102047619D01*
X65833333Y-102000000D01*
X65928571Y-101952380D01*
G04 #@! TO.C,R9*
X64833333Y-100452380D02*
X64500000Y-99976190D01*
X64261904Y-100452380D02*
X64261904Y-99452380D01*
X64642857Y-99452380D01*
X64738095Y-99500000D01*
X64785714Y-99547619D01*
X64833333Y-99642857D01*
X64833333Y-99785714D01*
X64785714Y-99880952D01*
X64738095Y-99928571D01*
X64642857Y-99976190D01*
X64261904Y-99976190D01*
X65309523Y-100452380D02*
X65500000Y-100452380D01*
X65595238Y-100404761D01*
X65642857Y-100357142D01*
X65738095Y-100214285D01*
X65785714Y-100023809D01*
X65785714Y-99642857D01*
X65738095Y-99547619D01*
X65690476Y-99500000D01*
X65595238Y-99452380D01*
X65404761Y-99452380D01*
X65309523Y-99500000D01*
X65261904Y-99547619D01*
X65214285Y-99642857D01*
X65214285Y-99880952D01*
X65261904Y-99976190D01*
X65309523Y-100023809D01*
X65404761Y-100071428D01*
X65595238Y-100071428D01*
X65690476Y-100023809D01*
X65738095Y-99976190D01*
X65785714Y-99880952D01*
G04 #@! TO.C,R8*
X82952380Y-65166666D02*
X82476190Y-65500000D01*
X82952380Y-65738095D02*
X81952380Y-65738095D01*
X81952380Y-65357142D01*
X82000000Y-65261904D01*
X82047619Y-65214285D01*
X82142857Y-65166666D01*
X82285714Y-65166666D01*
X82380952Y-65214285D01*
X82428571Y-65261904D01*
X82476190Y-65357142D01*
X82476190Y-65738095D01*
X82380952Y-64595238D02*
X82333333Y-64690476D01*
X82285714Y-64738095D01*
X82190476Y-64785714D01*
X82142857Y-64785714D01*
X82047619Y-64738095D01*
X82000000Y-64690476D01*
X81952380Y-64595238D01*
X81952380Y-64404761D01*
X82000000Y-64309523D01*
X82047619Y-64261904D01*
X82142857Y-64214285D01*
X82190476Y-64214285D01*
X82285714Y-64261904D01*
X82333333Y-64309523D01*
X82380952Y-64404761D01*
X82380952Y-64595238D01*
X82428571Y-64690476D01*
X82476190Y-64738095D01*
X82571428Y-64785714D01*
X82761904Y-64785714D01*
X82857142Y-64738095D01*
X82904761Y-64690476D01*
X82952380Y-64595238D01*
X82952380Y-64404761D01*
X82904761Y-64309523D01*
X82857142Y-64261904D01*
X82761904Y-64214285D01*
X82571428Y-64214285D01*
X82476190Y-64261904D01*
X82428571Y-64309523D01*
X82380952Y-64404761D01*
G04 #@! TO.C,R7*
X85452380Y-65166666D02*
X84976190Y-65500000D01*
X85452380Y-65738095D02*
X84452380Y-65738095D01*
X84452380Y-65357142D01*
X84500000Y-65261904D01*
X84547619Y-65214285D01*
X84642857Y-65166666D01*
X84785714Y-65166666D01*
X84880952Y-65214285D01*
X84928571Y-65261904D01*
X84976190Y-65357142D01*
X84976190Y-65738095D01*
X84452380Y-64833333D02*
X84452380Y-64166666D01*
X85452380Y-64595238D01*
G04 #@! TO.C,R6*
X87952380Y-65166666D02*
X87476190Y-65500000D01*
X87952380Y-65738095D02*
X86952380Y-65738095D01*
X86952380Y-65357142D01*
X87000000Y-65261904D01*
X87047619Y-65214285D01*
X87142857Y-65166666D01*
X87285714Y-65166666D01*
X87380952Y-65214285D01*
X87428571Y-65261904D01*
X87476190Y-65357142D01*
X87476190Y-65738095D01*
X86952380Y-64309523D02*
X86952380Y-64500000D01*
X87000000Y-64595238D01*
X87047619Y-64642857D01*
X87190476Y-64738095D01*
X87380952Y-64785714D01*
X87761904Y-64785714D01*
X87857142Y-64738095D01*
X87904761Y-64690476D01*
X87952380Y-64595238D01*
X87952380Y-64404761D01*
X87904761Y-64309523D01*
X87857142Y-64261904D01*
X87761904Y-64214285D01*
X87523809Y-64214285D01*
X87428571Y-64261904D01*
X87380952Y-64309523D01*
X87333333Y-64404761D01*
X87333333Y-64595238D01*
X87380952Y-64690476D01*
X87428571Y-64738095D01*
X87523809Y-64785714D01*
G04 #@! TO.C,R5*
X90452380Y-65166666D02*
X89976190Y-65500000D01*
X90452380Y-65738095D02*
X89452380Y-65738095D01*
X89452380Y-65357142D01*
X89500000Y-65261904D01*
X89547619Y-65214285D01*
X89642857Y-65166666D01*
X89785714Y-65166666D01*
X89880952Y-65214285D01*
X89928571Y-65261904D01*
X89976190Y-65357142D01*
X89976190Y-65738095D01*
X89452380Y-64261904D02*
X89452380Y-64738095D01*
X89928571Y-64785714D01*
X89880952Y-64738095D01*
X89833333Y-64642857D01*
X89833333Y-64404761D01*
X89880952Y-64309523D01*
X89928571Y-64261904D01*
X90023809Y-64214285D01*
X90261904Y-64214285D01*
X90357142Y-64261904D01*
X90404761Y-64309523D01*
X90452380Y-64404761D01*
X90452380Y-64642857D01*
X90404761Y-64738095D01*
X90357142Y-64785714D01*
G04 #@! TO.C,R4*
X92952380Y-65166666D02*
X92476190Y-65500000D01*
X92952380Y-65738095D02*
X91952380Y-65738095D01*
X91952380Y-65357142D01*
X92000000Y-65261904D01*
X92047619Y-65214285D01*
X92142857Y-65166666D01*
X92285714Y-65166666D01*
X92380952Y-65214285D01*
X92428571Y-65261904D01*
X92476190Y-65357142D01*
X92476190Y-65738095D01*
X92285714Y-64309523D02*
X92952380Y-64309523D01*
X91904761Y-64547619D02*
X92619047Y-64785714D01*
X92619047Y-64166666D01*
G04 #@! TO.C,R3*
X95452380Y-65166666D02*
X94976190Y-65500000D01*
X95452380Y-65738095D02*
X94452380Y-65738095D01*
X94452380Y-65357142D01*
X94500000Y-65261904D01*
X94547619Y-65214285D01*
X94642857Y-65166666D01*
X94785714Y-65166666D01*
X94880952Y-65214285D01*
X94928571Y-65261904D01*
X94976190Y-65357142D01*
X94976190Y-65738095D01*
X94452380Y-64833333D02*
X94452380Y-64214285D01*
X94833333Y-64547619D01*
X94833333Y-64404761D01*
X94880952Y-64309523D01*
X94928571Y-64261904D01*
X95023809Y-64214285D01*
X95261904Y-64214285D01*
X95357142Y-64261904D01*
X95404761Y-64309523D01*
X95452380Y-64404761D01*
X95452380Y-64690476D01*
X95404761Y-64785714D01*
X95357142Y-64833333D01*
G04 #@! TO.C,R2*
X97952380Y-65166666D02*
X97476190Y-65500000D01*
X97952380Y-65738095D02*
X96952380Y-65738095D01*
X96952380Y-65357142D01*
X97000000Y-65261904D01*
X97047619Y-65214285D01*
X97142857Y-65166666D01*
X97285714Y-65166666D01*
X97380952Y-65214285D01*
X97428571Y-65261904D01*
X97476190Y-65357142D01*
X97476190Y-65738095D01*
X97047619Y-64785714D02*
X97000000Y-64738095D01*
X96952380Y-64642857D01*
X96952380Y-64404761D01*
X97000000Y-64309523D01*
X97047619Y-64261904D01*
X97142857Y-64214285D01*
X97238095Y-64214285D01*
X97380952Y-64261904D01*
X97952380Y-64833333D01*
X97952380Y-64214285D01*
G04 #@! TO.C,U6*
X93122380Y-91951904D02*
X93931904Y-91951904D01*
X94027142Y-91904285D01*
X94074761Y-91856666D01*
X94122380Y-91761428D01*
X94122380Y-91570952D01*
X94074761Y-91475714D01*
X94027142Y-91428095D01*
X93931904Y-91380476D01*
X93122380Y-91380476D01*
X93122380Y-90475714D02*
X93122380Y-90666190D01*
X93170000Y-90761428D01*
X93217619Y-90809047D01*
X93360476Y-90904285D01*
X93550952Y-90951904D01*
X93931904Y-90951904D01*
X94027142Y-90904285D01*
X94074761Y-90856666D01*
X94122380Y-90761428D01*
X94122380Y-90570952D01*
X94074761Y-90475714D01*
X94027142Y-90428095D01*
X93931904Y-90380476D01*
X93693809Y-90380476D01*
X93598571Y-90428095D01*
X93550952Y-90475714D01*
X93503333Y-90570952D01*
X93503333Y-90761428D01*
X93550952Y-90856666D01*
X93598571Y-90904285D01*
X93693809Y-90951904D01*
G04 #@! TO.C,SW1*
X98666666Y-104904761D02*
X98809523Y-104952380D01*
X99047619Y-104952380D01*
X99142857Y-104904761D01*
X99190476Y-104857142D01*
X99238095Y-104761904D01*
X99238095Y-104666666D01*
X99190476Y-104571428D01*
X99142857Y-104523809D01*
X99047619Y-104476190D01*
X98857142Y-104428571D01*
X98761904Y-104380952D01*
X98714285Y-104333333D01*
X98666666Y-104238095D01*
X98666666Y-104142857D01*
X98714285Y-104047619D01*
X98761904Y-104000000D01*
X98857142Y-103952380D01*
X99095238Y-103952380D01*
X99238095Y-104000000D01*
X99571428Y-103952380D02*
X99809523Y-104952380D01*
X100000000Y-104238095D01*
X100190476Y-104952380D01*
X100428571Y-103952380D01*
X101333333Y-104952380D02*
X100761904Y-104952380D01*
X101047619Y-104952380D02*
X101047619Y-103952380D01*
X100952380Y-104095238D01*
X100857142Y-104190476D01*
X100761904Y-104238095D01*
G04 #@! TO.C,R33*
X89127619Y-90317142D02*
X89603809Y-89983809D01*
X89127619Y-89745714D02*
X90127619Y-89745714D01*
X90127619Y-90126666D01*
X90080000Y-90221904D01*
X90032380Y-90269523D01*
X89937142Y-90317142D01*
X89794285Y-90317142D01*
X89699047Y-90269523D01*
X89651428Y-90221904D01*
X89603809Y-90126666D01*
X89603809Y-89745714D01*
X90127619Y-90650476D02*
X90127619Y-91269523D01*
X89746666Y-90936190D01*
X89746666Y-91079047D01*
X89699047Y-91174285D01*
X89651428Y-91221904D01*
X89556190Y-91269523D01*
X89318095Y-91269523D01*
X89222857Y-91221904D01*
X89175238Y-91174285D01*
X89127619Y-91079047D01*
X89127619Y-90793333D01*
X89175238Y-90698095D01*
X89222857Y-90650476D01*
X90127619Y-91602857D02*
X90127619Y-92221904D01*
X89746666Y-91888571D01*
X89746666Y-92031428D01*
X89699047Y-92126666D01*
X89651428Y-92174285D01*
X89556190Y-92221904D01*
X89318095Y-92221904D01*
X89222857Y-92174285D01*
X89175238Y-92126666D01*
X89127619Y-92031428D01*
X89127619Y-91745714D01*
X89175238Y-91650476D01*
X89222857Y-91602857D01*
G04 #@! TO.C,C1*
X115833333Y-63857142D02*
X115785714Y-63904761D01*
X115642857Y-63952380D01*
X115547619Y-63952380D01*
X115404761Y-63904761D01*
X115309523Y-63809523D01*
X115261904Y-63714285D01*
X115214285Y-63523809D01*
X115214285Y-63380952D01*
X115261904Y-63190476D01*
X115309523Y-63095238D01*
X115404761Y-63000000D01*
X115547619Y-62952380D01*
X115642857Y-62952380D01*
X115785714Y-63000000D01*
X115833333Y-63047619D01*
X116785714Y-63952380D02*
X116214285Y-63952380D01*
X116500000Y-63952380D02*
X116500000Y-62952380D01*
X116404761Y-63095238D01*
X116309523Y-63190476D01*
X116214285Y-63238095D01*
G04 #@! TO.C,C2*
X117333333Y-66357142D02*
X117285714Y-66404761D01*
X117142857Y-66452380D01*
X117047619Y-66452380D01*
X116904761Y-66404761D01*
X116809523Y-66309523D01*
X116761904Y-66214285D01*
X116714285Y-66023809D01*
X116714285Y-65880952D01*
X116761904Y-65690476D01*
X116809523Y-65595238D01*
X116904761Y-65500000D01*
X117047619Y-65452380D01*
X117142857Y-65452380D01*
X117285714Y-65500000D01*
X117333333Y-65547619D01*
X117714285Y-65547619D02*
X117761904Y-65500000D01*
X117857142Y-65452380D01*
X118095238Y-65452380D01*
X118190476Y-65500000D01*
X118238095Y-65547619D01*
X118285714Y-65642857D01*
X118285714Y-65738095D01*
X118238095Y-65880952D01*
X117666666Y-66452380D01*
X118285714Y-66452380D01*
G04 #@! TO.C,D17*
X104412380Y-147484285D02*
X103412380Y-147484285D01*
X103412380Y-147246190D01*
X103460000Y-147103333D01*
X103555238Y-147008095D01*
X103650476Y-146960476D01*
X103840952Y-146912857D01*
X103983809Y-146912857D01*
X104174285Y-146960476D01*
X104269523Y-147008095D01*
X104364761Y-147103333D01*
X104412380Y-147246190D01*
X104412380Y-147484285D01*
X104412380Y-145960476D02*
X104412380Y-146531904D01*
X104412380Y-146246190D02*
X103412380Y-146246190D01*
X103555238Y-146341428D01*
X103650476Y-146436666D01*
X103698095Y-146531904D01*
X103412380Y-145627142D02*
X103412380Y-144960476D01*
X104412380Y-145389047D01*
G04 #@! TO.C,D30*
X122115135Y-60588813D02*
X121283665Y-60033242D01*
X121415944Y-59835273D01*
X121534904Y-59742948D01*
X121667004Y-59716672D01*
X121772647Y-59729989D01*
X121957478Y-59796218D01*
X122076259Y-59875586D01*
X122208179Y-60021002D01*
X122260910Y-60113507D01*
X122287187Y-60245607D01*
X122247413Y-60390844D01*
X122115135Y-60588813D01*
X121786324Y-59280960D02*
X122130248Y-58766241D01*
X122261808Y-59255043D01*
X122341176Y-59136262D01*
X122433681Y-59083530D01*
X122499730Y-59070392D01*
X122605374Y-59083710D01*
X122803343Y-59215988D01*
X122856074Y-59308494D01*
X122869212Y-59374543D01*
X122855895Y-59480186D01*
X122697160Y-59717749D01*
X122604655Y-59770481D01*
X122538606Y-59783619D01*
X122474173Y-58251522D02*
X122527084Y-58172334D01*
X122619589Y-58119602D01*
X122685639Y-58106464D01*
X122791282Y-58119782D01*
X122976113Y-58186011D01*
X123174082Y-58318290D01*
X123306001Y-58463706D01*
X123358733Y-58556212D01*
X123371871Y-58622261D01*
X123358554Y-58727904D01*
X123305642Y-58807092D01*
X123213137Y-58859824D01*
X123147087Y-58872962D01*
X123041444Y-58859644D01*
X122856613Y-58793415D01*
X122658644Y-58661136D01*
X122526725Y-58515720D01*
X122473993Y-58423215D01*
X122460855Y-58357165D01*
X122474173Y-58251522D01*
G04 #@! TO.C,D29*
X129378939Y-65660537D02*
X128671833Y-64953430D01*
X128840191Y-64785071D01*
X128974878Y-64717728D01*
X129109565Y-64717728D01*
X129210581Y-64751400D01*
X129378939Y-64852415D01*
X129479955Y-64953430D01*
X129580970Y-65121789D01*
X129614642Y-65222804D01*
X129614642Y-65357491D01*
X129547298Y-65492178D01*
X129378939Y-65660537D01*
X129412611Y-64347338D02*
X129412611Y-64279995D01*
X129446283Y-64178980D01*
X129614642Y-64010621D01*
X129715657Y-63976949D01*
X129783000Y-63976949D01*
X129884016Y-64010621D01*
X129951359Y-64077964D01*
X130018703Y-64212651D01*
X130018703Y-65020774D01*
X130456436Y-64583041D01*
X130793153Y-64246323D02*
X130927840Y-64111636D01*
X130961512Y-64010621D01*
X130961512Y-63943277D01*
X130927840Y-63774919D01*
X130826825Y-63606560D01*
X130557451Y-63337186D01*
X130456436Y-63303514D01*
X130389092Y-63303514D01*
X130288077Y-63337186D01*
X130153390Y-63471873D01*
X130119718Y-63572888D01*
X130119718Y-63640232D01*
X130153390Y-63741247D01*
X130321749Y-63909606D01*
X130422764Y-63943277D01*
X130490107Y-63943277D01*
X130591123Y-63909606D01*
X130725810Y-63774919D01*
X130759481Y-63673903D01*
X130759481Y-63606560D01*
X130725810Y-63505545D01*
G04 #@! TO.C,D28*
X135513727Y-72051907D02*
X134958157Y-71220437D01*
X135156126Y-71088158D01*
X135301363Y-71048385D01*
X135433462Y-71074661D01*
X135525967Y-71127393D01*
X135671384Y-71259312D01*
X135750751Y-71378094D01*
X135816980Y-71562925D01*
X135830298Y-71668568D01*
X135804022Y-71800667D01*
X135711696Y-71919628D01*
X135513727Y-72051907D01*
X135802944Y-70770510D02*
X135816082Y-70704460D01*
X135868814Y-70611955D01*
X136066783Y-70479677D01*
X136172426Y-70466359D01*
X136238476Y-70479497D01*
X136330981Y-70532229D01*
X136383893Y-70611416D01*
X136423666Y-70756654D01*
X136266009Y-71549248D01*
X136780729Y-71205323D01*
X136938385Y-70412729D02*
X136832742Y-70426047D01*
X136766692Y-70412909D01*
X136674187Y-70360177D01*
X136647732Y-70320583D01*
X136634414Y-70214940D01*
X136647552Y-70148890D01*
X136700284Y-70056385D01*
X136858659Y-69950562D01*
X136964302Y-69937244D01*
X137030352Y-69950382D01*
X137122857Y-70003114D01*
X137149313Y-70042708D01*
X137162630Y-70148351D01*
X137149492Y-70214401D01*
X137096760Y-70306906D01*
X136938385Y-70412729D01*
X136885653Y-70505234D01*
X136872515Y-70571284D01*
X136885833Y-70676927D01*
X136991656Y-70835302D01*
X137084161Y-70888034D01*
X137150211Y-70901172D01*
X137255854Y-70887855D01*
X137414229Y-70782032D01*
X137466961Y-70689526D01*
X137480099Y-70623477D01*
X137466781Y-70517834D01*
X137360959Y-70359458D01*
X137268453Y-70306727D01*
X137202404Y-70293589D01*
X137096760Y-70306906D01*
G04 #@! TO.C,D27*
X140283743Y-79517306D02*
X139901060Y-78593426D01*
X140121031Y-78502311D01*
X140271237Y-78491637D01*
X140395672Y-78543179D01*
X140476112Y-78612945D01*
X140592998Y-78770699D01*
X140647667Y-78902681D01*
X140676565Y-79096881D01*
X140669017Y-79203093D01*
X140617475Y-79327528D01*
X140503715Y-79426191D01*
X140283743Y-79517306D01*
X140817391Y-78316955D02*
X140843163Y-78254737D01*
X140912928Y-78174297D01*
X141132899Y-78083182D01*
X141239111Y-78090730D01*
X141301328Y-78116501D01*
X141381769Y-78186267D01*
X141418215Y-78274255D01*
X141428889Y-78424461D01*
X141119634Y-79171069D01*
X141691560Y-78934169D01*
X141616836Y-77882729D02*
X142232756Y-77627606D01*
X142219491Y-78715493D01*
G04 #@! TO.C,D26*
X143505678Y-87769844D02*
X143310588Y-86789059D01*
X143544108Y-86742609D01*
X143693510Y-86761443D01*
X143805498Y-86836271D01*
X143870783Y-86920389D01*
X143954647Y-87097916D01*
X143982517Y-87238028D01*
X143972973Y-87434134D01*
X143944849Y-87536832D01*
X143870021Y-87648820D01*
X143739198Y-87723394D01*
X143505678Y-87769844D01*
X144263249Y-86696667D02*
X144300663Y-86640673D01*
X144384781Y-86575389D01*
X144618301Y-86528939D01*
X144721000Y-86557063D01*
X144776994Y-86594477D01*
X144842278Y-86678595D01*
X144860858Y-86772003D01*
X144842024Y-86921405D01*
X144393055Y-87593334D01*
X145000208Y-87472564D01*
X145645791Y-86324558D02*
X145458975Y-86361718D01*
X145374856Y-86427003D01*
X145337442Y-86482997D01*
X145271904Y-86641689D01*
X145262360Y-86837795D01*
X145336680Y-87211428D01*
X145401965Y-87295546D01*
X145457959Y-87332960D01*
X145560657Y-87361084D01*
X145747473Y-87323924D01*
X145831591Y-87258640D01*
X145869005Y-87202646D01*
X145897129Y-87099947D01*
X145850679Y-86866427D01*
X145785395Y-86782309D01*
X145729401Y-86744895D01*
X145626703Y-86716771D01*
X145439887Y-86753931D01*
X145355768Y-86819215D01*
X145318354Y-86875209D01*
X145290230Y-86977907D01*
G04 #@! TO.C,D25*
X145055714Y-96492380D02*
X145055714Y-95492380D01*
X145293809Y-95492380D01*
X145436666Y-95540000D01*
X145531904Y-95635238D01*
X145579523Y-95730476D01*
X145627142Y-95920952D01*
X145627142Y-96063809D01*
X145579523Y-96254285D01*
X145531904Y-96349523D01*
X145436666Y-96444761D01*
X145293809Y-96492380D01*
X145055714Y-96492380D01*
X146008095Y-95587619D02*
X146055714Y-95540000D01*
X146150952Y-95492380D01*
X146389047Y-95492380D01*
X146484285Y-95540000D01*
X146531904Y-95587619D01*
X146579523Y-95682857D01*
X146579523Y-95778095D01*
X146531904Y-95920952D01*
X145960476Y-96492380D01*
X146579523Y-96492380D01*
X147484285Y-95492380D02*
X147008095Y-95492380D01*
X146960476Y-95968571D01*
X147008095Y-95920952D01*
X147103333Y-95873333D01*
X147341428Y-95873333D01*
X147436666Y-95920952D01*
X147484285Y-95968571D01*
X147531904Y-96063809D01*
X147531904Y-96301904D01*
X147484285Y-96397142D01*
X147436666Y-96444761D01*
X147341428Y-96492380D01*
X147103333Y-96492380D01*
X147008095Y-96444761D01*
X146960476Y-96397142D01*
G04 #@! TO.C,D24*
X144874283Y-105349712D02*
X145069373Y-104368926D01*
X145302893Y-104415376D01*
X145433716Y-104489951D01*
X145508544Y-104601939D01*
X145536668Y-104704637D01*
X145546212Y-104900743D01*
X145518342Y-105040855D01*
X145434478Y-105218382D01*
X145369193Y-105302500D01*
X145257205Y-105377328D01*
X145107803Y-105396162D01*
X144874283Y-105349712D01*
X145984874Y-104648135D02*
X146040868Y-104610721D01*
X146143567Y-104582597D01*
X146377087Y-104629047D01*
X146461205Y-104694331D01*
X146498619Y-104750325D01*
X146526743Y-104853023D01*
X146508163Y-104946431D01*
X146433589Y-105077253D01*
X145761660Y-105526222D01*
X146368813Y-105646992D01*
X147339546Y-105160356D02*
X147209486Y-105814212D01*
X147180346Y-104740273D02*
X146807475Y-105394384D01*
X147414628Y-105515154D01*
G04 #@! TO.C,D23*
X142968358Y-114001457D02*
X143351042Y-113077577D01*
X143571013Y-113168693D01*
X143684773Y-113267356D01*
X143736315Y-113391790D01*
X143743863Y-113498002D01*
X143714965Y-113692202D01*
X143660296Y-113824185D01*
X143543410Y-113981939D01*
X143462970Y-114051704D01*
X143338535Y-114103247D01*
X143188329Y-114092572D01*
X142968358Y-114001457D01*
X144194481Y-113530026D02*
X144256698Y-113504255D01*
X144362910Y-113496707D01*
X144582881Y-113587822D01*
X144652646Y-113668262D01*
X144678418Y-113730480D01*
X144685966Y-113836691D01*
X144649520Y-113924680D01*
X144550857Y-114038439D01*
X143804249Y-114347694D01*
X144376175Y-114584594D01*
X145066818Y-113788275D02*
X145638743Y-114025175D01*
X145184999Y-114249567D01*
X145316982Y-114304237D01*
X145386748Y-114384677D01*
X145412519Y-114446894D01*
X145420067Y-114553106D01*
X145328952Y-114773077D01*
X145248512Y-114842843D01*
X145186294Y-114868614D01*
X145080083Y-114876162D01*
X144816117Y-114766824D01*
X144746352Y-114686384D01*
X144720580Y-114624166D01*
G04 #@! TO.C,D22*
X139411185Y-122115135D02*
X139966756Y-121283665D01*
X140164725Y-121415944D01*
X140257050Y-121534904D01*
X140283326Y-121667004D01*
X140270009Y-121772647D01*
X140203780Y-121957478D01*
X140124412Y-122076259D01*
X139978996Y-122208179D01*
X139886491Y-122260910D01*
X139754391Y-122287187D01*
X139609154Y-122247413D01*
X139411185Y-122115135D01*
X140705720Y-121891967D02*
X140771770Y-121878829D01*
X140877413Y-121892147D01*
X141075382Y-122024425D01*
X141128114Y-122116930D01*
X141141252Y-122182980D01*
X141127934Y-122288623D01*
X141075023Y-122367811D01*
X140956062Y-122460137D01*
X140163467Y-122617793D01*
X140678187Y-122961718D01*
X141497596Y-122421082D02*
X141563645Y-122407943D01*
X141669289Y-122421261D01*
X141867258Y-122553540D01*
X141919989Y-122646045D01*
X141933128Y-122712094D01*
X141919810Y-122817738D01*
X141866898Y-122896925D01*
X141747937Y-122989251D01*
X140955343Y-123146908D01*
X141470063Y-123490832D01*
G04 #@! TO.C,D21*
X134339461Y-129378939D02*
X135046568Y-128671833D01*
X135214927Y-128840191D01*
X135282270Y-128974878D01*
X135282270Y-129109565D01*
X135248598Y-129210581D01*
X135147583Y-129378939D01*
X135046568Y-129479955D01*
X134878209Y-129580970D01*
X134777194Y-129614642D01*
X134642507Y-129614642D01*
X134507820Y-129547298D01*
X134339461Y-129378939D01*
X135652660Y-129412611D02*
X135720003Y-129412611D01*
X135821018Y-129446283D01*
X135989377Y-129614642D01*
X136023049Y-129715657D01*
X136023049Y-129783000D01*
X135989377Y-129884016D01*
X135922034Y-129951359D01*
X135787347Y-130018703D01*
X134979224Y-130018703D01*
X135416957Y-130456436D01*
X136090392Y-131129871D02*
X135686331Y-130725810D01*
X135888362Y-130927840D02*
X136595469Y-130220733D01*
X136427110Y-130254405D01*
X136292423Y-130254405D01*
X136191408Y-130220733D01*
G04 #@! TO.C,D20*
X127948091Y-135513727D02*
X128779561Y-134958157D01*
X128911840Y-135156126D01*
X128951613Y-135301363D01*
X128925337Y-135433462D01*
X128872605Y-135525967D01*
X128740686Y-135671384D01*
X128621904Y-135750751D01*
X128437073Y-135816980D01*
X128331430Y-135830298D01*
X128199331Y-135804022D01*
X128080370Y-135711696D01*
X127948091Y-135513727D01*
X129229488Y-135802944D02*
X129295538Y-135816082D01*
X129388043Y-135868814D01*
X129520321Y-136066783D01*
X129533639Y-136172426D01*
X129520501Y-136238476D01*
X129467769Y-136330981D01*
X129388582Y-136383893D01*
X129243344Y-136423666D01*
X128450750Y-136266009D01*
X128794675Y-136780729D01*
X129970069Y-136739878D02*
X130022980Y-136819065D01*
X130036298Y-136924708D01*
X130023160Y-136990758D01*
X129970428Y-137083263D01*
X129838508Y-137228680D01*
X129640540Y-137360959D01*
X129455709Y-137427188D01*
X129350065Y-137440505D01*
X129284016Y-137427367D01*
X129191511Y-137374635D01*
X129138599Y-137295448D01*
X129125281Y-137189805D01*
X129138420Y-137123755D01*
X129191151Y-137031250D01*
X129323071Y-136885833D01*
X129521040Y-136753554D01*
X129705871Y-136687325D01*
X129811514Y-136674008D01*
X129877564Y-136687146D01*
X129970069Y-136739878D01*
G04 #@! TO.C,D19*
X120482692Y-140283743D02*
X121406572Y-139901060D01*
X121497687Y-140121031D01*
X121508361Y-140271237D01*
X121456819Y-140395672D01*
X121387053Y-140476112D01*
X121229299Y-140592998D01*
X121097317Y-140647667D01*
X120903117Y-140676565D01*
X120796905Y-140669017D01*
X120672470Y-140617475D01*
X120573807Y-140503715D01*
X120482692Y-140283743D01*
X121065829Y-141691560D02*
X120847152Y-141163629D01*
X120956491Y-141427594D02*
X121880370Y-141044911D01*
X121711941Y-141011591D01*
X121587507Y-140960049D01*
X121507066Y-140890283D01*
X121248059Y-142131503D02*
X121320951Y-142307480D01*
X121401391Y-142377245D01*
X121463609Y-142403016D01*
X121632037Y-142436336D01*
X121826237Y-142407438D01*
X122178192Y-142261654D01*
X122247957Y-142181214D01*
X122273728Y-142118996D01*
X122281276Y-142012785D01*
X122208384Y-141836808D01*
X122127944Y-141767042D01*
X122065727Y-141741271D01*
X121959515Y-141733723D01*
X121739544Y-141824838D01*
X121669778Y-141905278D01*
X121644007Y-141967495D01*
X121636459Y-142073707D01*
X121709351Y-142249684D01*
X121789791Y-142319449D01*
X121852009Y-142345221D01*
X121958220Y-142352769D01*
G04 #@! TO.C,D18*
X112230154Y-143505678D02*
X113210939Y-143310588D01*
X113257389Y-143544108D01*
X113238555Y-143693510D01*
X113163727Y-143805498D01*
X113079609Y-143870783D01*
X112902082Y-143954647D01*
X112761970Y-143982517D01*
X112565864Y-143972973D01*
X112463166Y-143944849D01*
X112351178Y-143870021D01*
X112276604Y-143739198D01*
X112230154Y-143505678D01*
X112527434Y-145000208D02*
X112415954Y-144439759D01*
X112471694Y-144719984D02*
X113452479Y-144524893D01*
X113293787Y-144459355D01*
X113181799Y-144384527D01*
X113116515Y-144300409D01*
X113199363Y-145449177D02*
X113227487Y-145346478D01*
X113264901Y-145290484D01*
X113349019Y-145225200D01*
X113395723Y-145215910D01*
X113498421Y-145244034D01*
X113554415Y-145281448D01*
X113619699Y-145365566D01*
X113656860Y-145552383D01*
X113628736Y-145655081D01*
X113591321Y-145711075D01*
X113507203Y-145776359D01*
X113460499Y-145785649D01*
X113357801Y-145757525D01*
X113301807Y-145720111D01*
X113236523Y-145635993D01*
X113199363Y-145449177D01*
X113134079Y-145365058D01*
X113078085Y-145327644D01*
X112975387Y-145299520D01*
X112788570Y-145336680D01*
X112704452Y-145401965D01*
X112667038Y-145457959D01*
X112638914Y-145560657D01*
X112676074Y-145747473D01*
X112741358Y-145831591D01*
X112797352Y-145869005D01*
X112900051Y-145897129D01*
X113086867Y-145859969D01*
X113170985Y-145794685D01*
X113208399Y-145738691D01*
X113236523Y-145635993D01*
G04 #@! TO.C,D16*
X95063873Y-147432700D02*
X94083087Y-147237610D01*
X94129537Y-147004090D01*
X94204112Y-146873267D01*
X94316100Y-146798439D01*
X94418798Y-146770315D01*
X94614904Y-146760771D01*
X94755016Y-146788641D01*
X94932543Y-146872505D01*
X95016661Y-146937790D01*
X95091489Y-147049778D01*
X95110323Y-147199180D01*
X95063873Y-147432700D01*
X95361153Y-145938170D02*
X95249673Y-146498619D01*
X95305413Y-146218395D02*
X94324628Y-146023304D01*
X94446160Y-146144582D01*
X94520988Y-146256571D01*
X94549112Y-146359269D01*
X94547588Y-144902407D02*
X94510428Y-145089223D01*
X94538552Y-145191921D01*
X94575966Y-145247915D01*
X94697498Y-145369193D01*
X94875025Y-145453058D01*
X95248657Y-145527378D01*
X95351355Y-145499254D01*
X95407349Y-145461840D01*
X95472633Y-145377722D01*
X95509793Y-145190905D01*
X95481669Y-145088207D01*
X95444255Y-145032213D01*
X95360137Y-144966929D01*
X95126617Y-144920479D01*
X95023919Y-144948603D01*
X94967925Y-144986017D01*
X94902641Y-145070135D01*
X94865481Y-145256951D01*
X94893605Y-145359649D01*
X94931019Y-145415644D01*
X95015137Y-145480928D01*
G04 #@! TO.C,D32*
X105349712Y-55125715D02*
X104368926Y-54930625D01*
X104415376Y-54697105D01*
X104489951Y-54566282D01*
X104601939Y-54491454D01*
X104704637Y-54463330D01*
X104900743Y-54453786D01*
X105040855Y-54481656D01*
X105218382Y-54565520D01*
X105302500Y-54630805D01*
X105377328Y-54742793D01*
X105396162Y-54892195D01*
X105349712Y-55125715D01*
X104545437Y-54043248D02*
X104666207Y-53436095D01*
X104974809Y-53837343D01*
X105002679Y-53697231D01*
X105067963Y-53613113D01*
X105123957Y-53575699D01*
X105226656Y-53547575D01*
X105460176Y-53594025D01*
X105544294Y-53659309D01*
X105581708Y-53715303D01*
X105609832Y-53818001D01*
X105554092Y-54098226D01*
X105488808Y-54182344D01*
X105432814Y-54219758D01*
X104833935Y-53081042D02*
X104796521Y-53025048D01*
X104768397Y-52922350D01*
X104814847Y-52688830D01*
X104880131Y-52604712D01*
X104936125Y-52567298D01*
X105038823Y-52539174D01*
X105132232Y-52557754D01*
X105263054Y-52632328D01*
X105712022Y-53304257D01*
X105832792Y-52697104D01*
G04 #@! TO.C,D14*
X77287904Y-141933128D02*
X76456434Y-141377557D01*
X76588713Y-141179588D01*
X76707673Y-141087263D01*
X76839773Y-141060987D01*
X76945416Y-141074304D01*
X77130247Y-141140533D01*
X77249028Y-141219901D01*
X77380948Y-141365317D01*
X77433679Y-141457822D01*
X77459956Y-141589922D01*
X77420182Y-141735159D01*
X77287904Y-141933128D01*
X78134487Y-140666126D02*
X77817018Y-141141252D01*
X77975752Y-140903689D02*
X77144283Y-140348119D01*
X77210153Y-140506674D01*
X77236429Y-140638773D01*
X77223111Y-140744416D01*
X78056377Y-139583058D02*
X78610690Y-139953438D01*
X77607348Y-139569381D02*
X78068976Y-140164186D01*
X78412900Y-139649467D01*
G04 #@! TO.C,D31*
X114001457Y-57031640D02*
X113077577Y-56648956D01*
X113168693Y-56428985D01*
X113267356Y-56315225D01*
X113391790Y-56263683D01*
X113498002Y-56256135D01*
X113692202Y-56285033D01*
X113824185Y-56339702D01*
X113981939Y-56456588D01*
X114051704Y-56537028D01*
X114103247Y-56661463D01*
X114092572Y-56811669D01*
X114001457Y-57031640D01*
X113423815Y-55813065D02*
X113660714Y-55241140D01*
X113885107Y-55694884D01*
X113939776Y-55562901D01*
X114020216Y-55493136D01*
X114082434Y-55467365D01*
X114188645Y-55459816D01*
X114408617Y-55550931D01*
X114478382Y-55631372D01*
X114504153Y-55693589D01*
X114511702Y-55799801D01*
X114402363Y-56063766D01*
X114321923Y-56133532D01*
X114259706Y-56159303D01*
X114949054Y-54743938D02*
X114730378Y-55271869D01*
X114839716Y-55007904D02*
X113915836Y-54625220D01*
X114011373Y-54767878D01*
X114062916Y-54892313D01*
X114070464Y-54998524D01*
G04 #@! TO.C,D1*
X96492380Y-54468095D02*
X95492380Y-54468095D01*
X95492380Y-54230000D01*
X95540000Y-54087142D01*
X95635238Y-53991904D01*
X95730476Y-53944285D01*
X95920952Y-53896666D01*
X96063809Y-53896666D01*
X96254285Y-53944285D01*
X96349523Y-53991904D01*
X96444761Y-54087142D01*
X96492380Y-54230000D01*
X96492380Y-54468095D01*
X96492380Y-52944285D02*
X96492380Y-53515714D01*
X96492380Y-53230000D02*
X95492380Y-53230000D01*
X95635238Y-53325238D01*
X95730476Y-53420476D01*
X95778095Y-53515714D01*
G04 #@! TO.C,D2*
X86501577Y-54755964D02*
X87482362Y-54560873D01*
X87528812Y-54794394D01*
X87509978Y-54943796D01*
X87435150Y-55055784D01*
X87351032Y-55121068D01*
X87173506Y-55204932D01*
X87033393Y-55232802D01*
X86837287Y-55223258D01*
X86734589Y-55195134D01*
X86622601Y-55120306D01*
X86548027Y-54989484D01*
X86501577Y-54755964D01*
X87574754Y-55513535D02*
X87630748Y-55550949D01*
X87696032Y-55635067D01*
X87742482Y-55868587D01*
X87714358Y-55971285D01*
X87676944Y-56027279D01*
X87592826Y-56092563D01*
X87499418Y-56111143D01*
X87350016Y-56092309D01*
X86678087Y-55643341D01*
X86798857Y-56250494D01*
G04 #@! TO.C,D3*
X77934271Y-58258727D02*
X78858151Y-57876044D01*
X78949266Y-58096015D01*
X78959941Y-58246221D01*
X78908398Y-58370655D01*
X78838633Y-58451096D01*
X78680879Y-58567982D01*
X78548896Y-58622651D01*
X78354696Y-58651549D01*
X78248484Y-58644001D01*
X78124050Y-58592458D01*
X78025386Y-58478698D01*
X77934271Y-58258727D01*
X79204388Y-58711935D02*
X79441287Y-59283860D01*
X78961772Y-59121684D01*
X79016441Y-59253667D01*
X79008893Y-59359879D01*
X78983122Y-59422096D01*
X78913356Y-59502536D01*
X78693385Y-59593651D01*
X78587173Y-59586103D01*
X78524956Y-59560332D01*
X78444516Y-59490566D01*
X78335178Y-59226601D01*
X78342726Y-59120389D01*
X78368497Y-59058172D01*
G04 #@! TO.C,D4*
X70214940Y-63365584D02*
X71046409Y-62810014D01*
X71178688Y-63007983D01*
X71218461Y-63153220D01*
X71192185Y-63285319D01*
X71139453Y-63377824D01*
X71007534Y-63523241D01*
X70888753Y-63602608D01*
X70703922Y-63668837D01*
X70598278Y-63682155D01*
X70466179Y-63655879D01*
X70347218Y-63563553D01*
X70214940Y-63365584D01*
X71562925Y-64183018D02*
X71008612Y-64553398D01*
X71747396Y-63773403D02*
X71021211Y-63972270D01*
X71365135Y-64486989D01*
G04 #@! TO.C,D5*
X63640232Y-69880280D02*
X64347338Y-69173173D01*
X64515697Y-69341532D01*
X64583041Y-69476219D01*
X64583041Y-69610906D01*
X64549369Y-69711921D01*
X64448354Y-69880280D01*
X64347338Y-69981295D01*
X64178980Y-70082311D01*
X64077964Y-70115982D01*
X63943277Y-70115982D01*
X63808590Y-70048639D01*
X63640232Y-69880280D01*
X65391163Y-70216998D02*
X65054445Y-69880280D01*
X64684056Y-70183326D01*
X64751400Y-70183326D01*
X64852415Y-70216998D01*
X65020774Y-70385356D01*
X65054445Y-70486372D01*
X65054445Y-70553715D01*
X65020774Y-70654730D01*
X64852415Y-70823089D01*
X64751400Y-70856761D01*
X64684056Y-70856761D01*
X64583041Y-70823089D01*
X64414682Y-70654730D01*
X64381010Y-70553715D01*
X64381010Y-70486372D01*
G04 #@! TO.C,D6*
X58462808Y-77552461D02*
X59018379Y-76720991D01*
X59216348Y-76853270D01*
X59308673Y-76972231D01*
X59334949Y-77104330D01*
X59321632Y-77209973D01*
X59255403Y-77394804D01*
X59176035Y-77513585D01*
X59030619Y-77645505D01*
X58938113Y-77698237D01*
X58806014Y-77724513D01*
X58660777Y-77684739D01*
X58462808Y-77552461D01*
X60206192Y-77514663D02*
X60047817Y-77408840D01*
X59942174Y-77395522D01*
X59876124Y-77408660D01*
X59717570Y-77474530D01*
X59572153Y-77606450D01*
X59360507Y-77923200D01*
X59347189Y-78028843D01*
X59360327Y-78094893D01*
X59413059Y-78187398D01*
X59571434Y-78293221D01*
X59677078Y-78306539D01*
X59743127Y-78293401D01*
X59835633Y-78240669D01*
X59967911Y-78042700D01*
X59981229Y-77937057D01*
X59968091Y-77871007D01*
X59915359Y-77778502D01*
X59756984Y-77672679D01*
X59651340Y-77659361D01*
X59585291Y-77672499D01*
X59492786Y-77725231D01*
G04 #@! TO.C,D7*
X54881638Y-86087288D02*
X55264321Y-85163409D01*
X55484292Y-85254524D01*
X55598052Y-85353187D01*
X55649595Y-85477622D01*
X55657143Y-85583833D01*
X55628245Y-85778033D01*
X55573576Y-85910016D01*
X55456690Y-86067770D01*
X55376249Y-86137536D01*
X55251815Y-86189078D01*
X55101609Y-86178403D01*
X54881638Y-86087288D01*
X56100212Y-85509646D02*
X56716132Y-85764768D01*
X55937500Y-86524641D01*
G04 #@! TO.C,D8*
X53034338Y-95156773D02*
X53229429Y-94175988D01*
X53462949Y-94222438D01*
X53593771Y-94297012D01*
X53668599Y-94409000D01*
X53696723Y-94511698D01*
X53706267Y-94707804D01*
X53678397Y-94847916D01*
X53594533Y-95025443D01*
X53529249Y-95109561D01*
X53417261Y-95184389D01*
X53267859Y-95203223D01*
X53034338Y-95156773D01*
X54266716Y-94819284D02*
X54182598Y-94754000D01*
X54145184Y-94698006D01*
X54117060Y-94595308D01*
X54126350Y-94548604D01*
X54191634Y-94464486D01*
X54247628Y-94427072D01*
X54350326Y-94398948D01*
X54537142Y-94436108D01*
X54621261Y-94501392D01*
X54658675Y-94557386D01*
X54686799Y-94660084D01*
X54677509Y-94706788D01*
X54612225Y-94790906D01*
X54556230Y-94828321D01*
X54453532Y-94856445D01*
X54266716Y-94819284D01*
X54164018Y-94847409D01*
X54108024Y-94884823D01*
X54042740Y-94968941D01*
X54005580Y-95155757D01*
X54033704Y-95258455D01*
X54071118Y-95314449D01*
X54155236Y-95379733D01*
X54342052Y-95416893D01*
X54444750Y-95388769D01*
X54500744Y-95351355D01*
X54566028Y-95267237D01*
X54603188Y-95080421D01*
X54575064Y-94977723D01*
X54537650Y-94921729D01*
X54453532Y-94856445D01*
G04 #@! TO.C,D9*
X52991904Y-104412380D02*
X52991904Y-103412380D01*
X53230000Y-103412380D01*
X53372857Y-103460000D01*
X53468095Y-103555238D01*
X53515714Y-103650476D01*
X53563333Y-103840952D01*
X53563333Y-103983809D01*
X53515714Y-104174285D01*
X53468095Y-104269523D01*
X53372857Y-104364761D01*
X53230000Y-104412380D01*
X52991904Y-104412380D01*
X54039523Y-104412380D02*
X54230000Y-104412380D01*
X54325238Y-104364761D01*
X54372857Y-104317142D01*
X54468095Y-104174285D01*
X54515714Y-103983809D01*
X54515714Y-103602857D01*
X54468095Y-103507619D01*
X54420476Y-103460000D01*
X54325238Y-103412380D01*
X54134761Y-103412380D01*
X54039523Y-103460000D01*
X53991904Y-103507619D01*
X53944285Y-103602857D01*
X53944285Y-103840952D01*
X53991904Y-103936190D01*
X54039523Y-103983809D01*
X54134761Y-104031428D01*
X54325238Y-104031428D01*
X54420476Y-103983809D01*
X54468095Y-103936190D01*
X54515714Y-103840952D01*
G04 #@! TO.C,D10*
X54288923Y-113591321D02*
X54093833Y-112610536D01*
X54327353Y-112564086D01*
X54476755Y-112582920D01*
X54588743Y-112657748D01*
X54654028Y-112741866D01*
X54737892Y-112919393D01*
X54765762Y-113059505D01*
X54756218Y-113255611D01*
X54728094Y-113358309D01*
X54653266Y-113470297D01*
X54522443Y-113544871D01*
X54288923Y-113591321D01*
X55783453Y-113294041D02*
X55223004Y-113405521D01*
X55503229Y-113349781D02*
X55308138Y-112368996D01*
X55242600Y-112527688D01*
X55167772Y-112639676D01*
X55083654Y-112704960D01*
X56195516Y-112192485D02*
X56288924Y-112173905D01*
X56391622Y-112202029D01*
X56447616Y-112239444D01*
X56512900Y-112323562D01*
X56596764Y-112501088D01*
X56643214Y-112734608D01*
X56633670Y-112930714D01*
X56605546Y-113033413D01*
X56568132Y-113089407D01*
X56484014Y-113154691D01*
X56390606Y-113173271D01*
X56287908Y-113145147D01*
X56231914Y-113107733D01*
X56166630Y-113023615D01*
X56082765Y-112846088D01*
X56036315Y-112612568D01*
X56045859Y-112416462D01*
X56073983Y-112313764D01*
X56111397Y-112257770D01*
X56195516Y-112192485D01*
G04 #@! TO.C,D11*
X57818784Y-122247957D02*
X57436101Y-121324077D01*
X57656072Y-121232962D01*
X57806278Y-121222288D01*
X57930713Y-121273830D01*
X58011153Y-121343596D01*
X58128039Y-121501350D01*
X58182708Y-121633332D01*
X58211606Y-121827532D01*
X58204058Y-121933744D01*
X58152516Y-122058179D01*
X58038756Y-122156842D01*
X57818784Y-122247957D01*
X59226601Y-121664820D02*
X58698670Y-121883497D01*
X58962635Y-121774158D02*
X58579952Y-120850279D01*
X58546632Y-121018708D01*
X58495090Y-121143142D01*
X58425324Y-121223583D01*
X60106486Y-121300360D02*
X59578555Y-121519036D01*
X59842521Y-121409698D02*
X59459837Y-120485819D01*
X59426518Y-120654247D01*
X59374975Y-120778682D01*
X59305210Y-120859122D01*
G04 #@! TO.C,D12*
X62969646Y-130049616D02*
X62414076Y-129218146D01*
X62612045Y-129085867D01*
X62757282Y-129046094D01*
X62889381Y-129072370D01*
X62981886Y-129125102D01*
X63127303Y-129257021D01*
X63206670Y-129375803D01*
X63272899Y-129560634D01*
X63286217Y-129666277D01*
X63259941Y-129798376D01*
X63167615Y-129917337D01*
X62969646Y-130049616D01*
X64236648Y-129203032D02*
X63761522Y-129520501D01*
X63999085Y-129361767D02*
X63443515Y-128530297D01*
X63443694Y-128701990D01*
X63417418Y-128834089D01*
X63364686Y-128926594D01*
X64050739Y-128239104D02*
X64063877Y-128173055D01*
X64116609Y-128080550D01*
X64314578Y-127948271D01*
X64420221Y-127934953D01*
X64486271Y-127948091D01*
X64578776Y-128000823D01*
X64631687Y-128080011D01*
X64671461Y-128225248D01*
X64513804Y-129017842D01*
X65028523Y-128673918D01*
G04 #@! TO.C,D13*
X69543562Y-136696484D02*
X68836456Y-135989377D01*
X69004814Y-135821018D01*
X69139501Y-135753675D01*
X69274188Y-135753675D01*
X69375204Y-135787347D01*
X69543562Y-135888362D01*
X69644578Y-135989377D01*
X69745593Y-136157736D01*
X69779265Y-136258751D01*
X69779265Y-136393438D01*
X69711921Y-136528125D01*
X69543562Y-136696484D01*
X70621059Y-135618988D02*
X70216998Y-136023049D01*
X70419028Y-135821018D02*
X69711921Y-135113911D01*
X69745593Y-135282270D01*
X69745593Y-135416957D01*
X69711921Y-135517973D01*
X70149654Y-134676179D02*
X70587387Y-134238446D01*
X70621059Y-134743522D01*
X70722074Y-134642507D01*
X70823089Y-134608835D01*
X70890433Y-134608835D01*
X70991448Y-134642507D01*
X71159807Y-134810866D01*
X71193478Y-134911881D01*
X71193478Y-134979224D01*
X71159807Y-135080240D01*
X70957776Y-135282270D01*
X70856761Y-135315942D01*
X70789417Y-135315942D01*
G04 #@! TO.C,D15*
X85905058Y-145558303D02*
X84981178Y-145175619D01*
X85072294Y-144955648D01*
X85170957Y-144841888D01*
X85295391Y-144790346D01*
X85401603Y-144782798D01*
X85595803Y-144811696D01*
X85727786Y-144866365D01*
X85885540Y-144983251D01*
X85955305Y-145063691D01*
X86006848Y-145188126D01*
X85996173Y-145338332D01*
X85905058Y-145558303D01*
X86488195Y-144150486D02*
X86269518Y-144678418D01*
X86378857Y-144414452D02*
X85454977Y-144031769D01*
X85550514Y-144174426D01*
X85602056Y-144298861D01*
X85609604Y-144405072D01*
X85910552Y-142931912D02*
X85728322Y-143371855D01*
X86150042Y-143598079D01*
X86124271Y-143535862D01*
X86116722Y-143429650D01*
X86207838Y-143209679D01*
X86288278Y-143139913D01*
X86350495Y-143114142D01*
X86456707Y-143106594D01*
X86676678Y-143197709D01*
X86746444Y-143278149D01*
X86772215Y-143340367D01*
X86779763Y-143446578D01*
X86688648Y-143666550D01*
X86608208Y-143736315D01*
X86545990Y-143762086D01*
G04 #@! TO.C,U3*
X78048095Y-97122380D02*
X78048095Y-97931904D01*
X78095714Y-98027142D01*
X78143333Y-98074761D01*
X78238571Y-98122380D01*
X78429047Y-98122380D01*
X78524285Y-98074761D01*
X78571904Y-98027142D01*
X78619523Y-97931904D01*
X78619523Y-97122380D01*
X79000476Y-97122380D02*
X79619523Y-97122380D01*
X79286190Y-97503333D01*
X79429047Y-97503333D01*
X79524285Y-97550952D01*
X79571904Y-97598571D01*
X79619523Y-97693809D01*
X79619523Y-97931904D01*
X79571904Y-98027142D01*
X79524285Y-98074761D01*
X79429047Y-98122380D01*
X79143333Y-98122380D01*
X79048095Y-98074761D01*
X79000476Y-98027142D01*
G04 #@! TO.C,U4*
X97122380Y-121951904D02*
X97931904Y-121951904D01*
X98027142Y-121904285D01*
X98074761Y-121856666D01*
X98122380Y-121761428D01*
X98122380Y-121570952D01*
X98074761Y-121475714D01*
X98027142Y-121428095D01*
X97931904Y-121380476D01*
X97122380Y-121380476D01*
X97455714Y-120475714D02*
X98122380Y-120475714D01*
X97074761Y-120713809D02*
X97789047Y-120951904D01*
X97789047Y-120332857D01*
G04 #@! TO.C,U5*
X120428095Y-101782380D02*
X120428095Y-102591904D01*
X120475714Y-102687142D01*
X120523333Y-102734761D01*
X120618571Y-102782380D01*
X120809047Y-102782380D01*
X120904285Y-102734761D01*
X120951904Y-102687142D01*
X120999523Y-102591904D01*
X120999523Y-101782380D01*
X121951904Y-101782380D02*
X121475714Y-101782380D01*
X121428095Y-102258571D01*
X121475714Y-102210952D01*
X121570952Y-102163333D01*
X121809047Y-102163333D01*
X121904285Y-102210952D01*
X121951904Y-102258571D01*
X121999523Y-102353809D01*
X121999523Y-102591904D01*
X121951904Y-102687142D01*
X121904285Y-102734761D01*
X121809047Y-102782380D01*
X121570952Y-102782380D01*
X121475714Y-102734761D01*
X121428095Y-102687142D01*
G04 #@! TO.C,U2*
X101782380Y-79571904D02*
X102591904Y-79571904D01*
X102687142Y-79524285D01*
X102734761Y-79476666D01*
X102782380Y-79381428D01*
X102782380Y-79190952D01*
X102734761Y-79095714D01*
X102687142Y-79048095D01*
X102591904Y-79000476D01*
X101782380Y-79000476D01*
X101877619Y-78571904D02*
X101830000Y-78524285D01*
X101782380Y-78429047D01*
X101782380Y-78190952D01*
X101830000Y-78095714D01*
X101877619Y-78048095D01*
X101972857Y-78000476D01*
X102068095Y-78000476D01*
X102210952Y-78048095D01*
X102782380Y-78619523D01*
X102782380Y-78000476D01*
G04 #@! TO.C,R1*
X100452380Y-65166666D02*
X99976190Y-65500000D01*
X100452380Y-65738095D02*
X99452380Y-65738095D01*
X99452380Y-65357142D01*
X99500000Y-65261904D01*
X99547619Y-65214285D01*
X99642857Y-65166666D01*
X99785714Y-65166666D01*
X99880952Y-65214285D01*
X99928571Y-65261904D01*
X99976190Y-65357142D01*
X99976190Y-65738095D01*
X100452380Y-64214285D02*
X100452380Y-64785714D01*
X100452380Y-64500000D02*
X99452380Y-64500000D01*
X99595238Y-64595238D01*
X99690476Y-64690476D01*
X99738095Y-64785714D01*
G04 #@! TD*
M02*
