M48
;DRILL file {KiCad (5.0.2)-1} date 13/02/2020 23:16:40
;FORMAT={-:-/ absolute / inch / decimal}
FMAT,2
INCH,TZ
T1C0.0276
T2C0.0295
T3C0.0315
T4C0.0354
T5C0.0433
%
G90
G05
T1
X3.937Y-5.0197
X3.937Y-5.2197
X2.6543Y-4.4291
X2.8543Y-4.4291
X2.6543Y-3.937
X2.8543Y-3.937
X4.3307Y-5.0197
X4.3307Y-5.2197
X4.5276Y-5.0197
X4.5276Y-5.2197
X4.0354Y-5.0197
X4.0354Y-5.2197
X2.6543Y-4.0354
X2.8543Y-4.0354
X3.937Y-2.6543
X3.937Y-2.8543
X4.4291Y-5.0197
X4.4291Y-5.2197
X5.0197Y-3.937
X5.2197Y-3.937
X2.6543Y-4.5276
X2.8543Y-4.5276
X3.6024Y-3.4811
X3.6024Y-3.6811
X5.0197Y-3.6417
X5.2197Y-3.6417
X2.6543Y-4.626
X2.8543Y-4.626
X5.0197Y-3.5433
X5.2197Y-3.5433
X4.1339Y-5.0197
X4.1339Y-5.2197
X3.8386Y-2.6543
X3.8386Y-2.8543
X3.3465Y-2.6543
X3.3465Y-2.8543
X3.6417Y-2.6543
X3.6417Y-2.8543
X5.0197Y-3.8386
X5.2197Y-3.8386
X5.0197Y-3.3465
X5.2197Y-3.3465
X2.6543Y-4.3307
X2.8543Y-4.3307
X4.2323Y-5.0197
X4.2323Y-5.2197
X3.7402Y-2.6543
X3.7402Y-2.8543
X2.6543Y-4.1339
X2.8543Y-4.1339
X5.0197Y-3.7402
X5.2197Y-3.7402
X5.0197Y-3.248
X5.2197Y-3.248
X3.248Y-2.6543
X3.248Y-2.8543
X3.5433Y-2.6543
X3.5433Y-2.8543
X2.6543Y-4.2323
X2.8543Y-4.2323
X5.0197Y-3.4449
X5.2197Y-3.4449
X4.626Y-5.0197
X4.626Y-5.2197
X3.4449Y-2.6543
X3.4449Y-2.8543
T2
X4.1929Y-2.4016
X4.2717Y-2.4016
X4.4291Y-2.7756
X4.4791Y-2.7756
X4.5291Y-2.7756
T3
X3.237Y-2.9528
X3.237Y-3.2528
X3.337Y-2.9528
X3.337Y-3.2528
X3.437Y-2.9528
X3.437Y-3.2528
X3.537Y-2.9528
X3.537Y-3.2528
X3.637Y-2.9528
X3.637Y-3.2528
X3.737Y-2.9528
X3.737Y-3.2528
X3.837Y-2.9528
X3.837Y-3.2528
X3.937Y-2.9528
X3.937Y-3.2528
X2.9528Y-3.937
X2.9528Y-4.037
X2.9528Y-4.137
X2.9528Y-4.237
X2.9528Y-4.337
X2.9528Y-4.437
X2.9528Y-4.537
X2.9528Y-4.637
X3.2528Y-3.937
X3.2528Y-4.037
X3.2528Y-4.137
X3.2528Y-4.237
X3.2528Y-4.337
X3.2528Y-4.437
X3.2528Y-4.537
X3.2528Y-4.637
X3.7795Y-3.4402
X3.7795Y-3.7402
X3.8795Y-3.4402
X3.8795Y-3.7402
X3.9795Y-3.4402
X3.9795Y-3.7402
X4.0795Y-3.4402
X4.0795Y-3.7402
X4.6213Y-3.237
X4.6213Y-3.337
X4.6213Y-3.437
X4.6213Y-3.537
X4.6213Y-3.637
X4.6213Y-3.737
X4.6213Y-3.837
X4.6213Y-3.937
X4.9213Y-3.237
X4.9213Y-3.337
X4.9213Y-3.437
X4.9213Y-3.537
X4.9213Y-3.637
X4.9213Y-3.737
X4.9213Y-3.837
X4.9213Y-3.937
X3.937Y-4.6213
X3.937Y-4.9213
X4.037Y-4.6213
X4.037Y-4.9213
X4.137Y-4.6213
X4.137Y-4.9213
X4.237Y-4.6213
X4.237Y-4.9213
X4.337Y-4.6213
X4.337Y-4.9213
X4.437Y-4.6213
X4.437Y-4.9213
X4.537Y-4.6213
X4.537Y-4.9213
X4.637Y-4.6213
X4.637Y-4.9213
T4
X2.2078Y-3.2208
X2.3002Y-3.259
X5.5738Y-4.615
X5.6662Y-4.6533
X4.9213Y-5.4101
X4.9768Y-5.4932
X4.2826Y-2.1994
X4.3021Y-2.1013
X2.1013Y-4.3021
X2.1994Y-4.2826
X2.3808Y-2.8972
X2.4639Y-2.9527
X3.2208Y-5.6662
X3.259Y-5.5738
X5.1898Y-2.6843
X5.2605Y-2.6135
X3.937Y-5.7087
X3.937Y-5.8087
X4.615Y-2.3002
X4.6533Y-2.2078
X3.2208Y-2.2078
X3.259Y-2.3002
X2.6135Y-5.2605
X2.6843Y-5.1898
X5.5738Y-3.259
X5.6662Y-3.2208
X5.6746Y-4.2826
X5.7727Y-4.3021
X4.9213Y-2.4639
X4.9768Y-2.3808
X2.3808Y-4.9768
X2.4639Y-4.9213
X3.5719Y-2.1013
X3.5914Y-2.1994
X2.6135Y-2.6135
X2.6843Y-2.6843
X5.6746Y-3.5914
X5.7727Y-3.5719
X5.4101Y-2.9527
X5.4932Y-2.8972
X4.615Y-5.5738
X4.6533Y-5.6662
X2.2078Y-4.6533
X2.3002Y-4.615
X2.8972Y-2.3808
X2.9527Y-2.4639
X3.5719Y-5.7727
X3.5914Y-5.6746
X5.7087Y-3.937
X5.8087Y-3.937
X2.1013Y-3.5719
X2.1994Y-3.5914
X5.4101Y-4.9213
X5.4932Y-4.9768
X5.1898Y-5.1898
X5.2605Y-5.2605
X3.937Y-2.0654
X3.937Y-2.1654
X2.0654Y-3.937
X2.1654Y-3.937
X4.2826Y-5.6746
X4.3021Y-5.7727
X2.8972Y-5.4932
X2.9527Y-5.4101
T5
X3.8091Y-3.8484
X3.8091Y-4.0256
X4.065Y-3.8484
X4.065Y-4.0256
T0
M30
