G04 #@! TF.GenerationSoftware,KiCad,Pcbnew,(5.1.6)-1*
G04 #@! TF.CreationDate,2020-09-12T14:33:07+01:00*
G04 #@! TF.ProjectId,teatime,74656174-696d-4652-9e6b-696361645f70,rev?*
G04 #@! TF.SameCoordinates,Original*
G04 #@! TF.FileFunction,Legend,Bot*
G04 #@! TF.FilePolarity,Positive*
%FSLAX46Y46*%
G04 Gerber Fmt 4.6, Leading zero omitted, Abs format (unit mm)*
G04 Created by KiCad (PCBNEW (5.1.6)-1) date 2020-09-12 14:33:07*
%MOMM*%
%LPD*%
G01*
G04 APERTURE LIST*
%ADD10C,0.150000*%
%ADD11C,0.100000*%
%ADD12C,0.120000*%
G04 APERTURE END LIST*
D10*
X105714285Y-115977380D02*
X105142857Y-115977380D01*
X105428571Y-116977380D02*
X105428571Y-115977380D01*
X104428571Y-116929761D02*
X104523809Y-116977380D01*
X104714285Y-116977380D01*
X104809523Y-116929761D01*
X104857142Y-116834523D01*
X104857142Y-116453571D01*
X104809523Y-116358333D01*
X104714285Y-116310714D01*
X104523809Y-116310714D01*
X104428571Y-116358333D01*
X104380952Y-116453571D01*
X104380952Y-116548809D01*
X104857142Y-116644047D01*
X103523809Y-116977380D02*
X103523809Y-116453571D01*
X103571428Y-116358333D01*
X103666666Y-116310714D01*
X103857142Y-116310714D01*
X103952380Y-116358333D01*
X103523809Y-116929761D02*
X103619047Y-116977380D01*
X103857142Y-116977380D01*
X103952380Y-116929761D01*
X104000000Y-116834523D01*
X104000000Y-116739285D01*
X103952380Y-116644047D01*
X103857142Y-116596428D01*
X103619047Y-116596428D01*
X103523809Y-116548809D01*
X103190476Y-116310714D02*
X102809523Y-116310714D01*
X103047619Y-115977380D02*
X103047619Y-116834523D01*
X103000000Y-116929761D01*
X102904761Y-116977380D01*
X102809523Y-116977380D01*
X102476190Y-116977380D02*
X102476190Y-116310714D01*
X102476190Y-115977380D02*
X102523809Y-116025000D01*
X102476190Y-116072619D01*
X102428571Y-116025000D01*
X102476190Y-115977380D01*
X102476190Y-116072619D01*
X102000000Y-116977380D02*
X102000000Y-116310714D01*
X102000000Y-116405952D02*
X101952380Y-116358333D01*
X101857142Y-116310714D01*
X101714285Y-116310714D01*
X101619047Y-116358333D01*
X101571428Y-116453571D01*
X101571428Y-116977380D01*
X101571428Y-116453571D02*
X101523809Y-116358333D01*
X101428571Y-116310714D01*
X101285714Y-116310714D01*
X101190476Y-116358333D01*
X101142857Y-116453571D01*
X101142857Y-116977380D01*
X100285714Y-116929761D02*
X100380952Y-116977380D01*
X100571428Y-116977380D01*
X100666666Y-116929761D01*
X100714285Y-116834523D01*
X100714285Y-116453571D01*
X100666666Y-116358333D01*
X100571428Y-116310714D01*
X100380952Y-116310714D01*
X100285714Y-116358333D01*
X100238095Y-116453571D01*
X100238095Y-116548809D01*
X100714285Y-116644047D01*
X99047619Y-116596428D02*
X98285714Y-116596428D01*
X97095238Y-116929761D02*
X96952380Y-116977380D01*
X96714285Y-116977380D01*
X96619047Y-116929761D01*
X96571428Y-116882142D01*
X96523809Y-116786904D01*
X96523809Y-116691666D01*
X96571428Y-116596428D01*
X96619047Y-116548809D01*
X96714285Y-116501190D01*
X96904761Y-116453571D01*
X97000000Y-116405952D01*
X97047619Y-116358333D01*
X97095238Y-116263095D01*
X97095238Y-116167857D01*
X97047619Y-116072619D01*
X97000000Y-116025000D01*
X96904761Y-115977380D01*
X96666666Y-115977380D01*
X96523809Y-116025000D01*
X96095238Y-116977380D02*
X96095238Y-115977380D01*
X95761904Y-116691666D01*
X95428571Y-115977380D01*
X95428571Y-116977380D01*
X94952380Y-116977380D02*
X94952380Y-115977380D01*
X94714285Y-115977380D01*
X94571428Y-116025000D01*
X94476190Y-116120238D01*
X94428571Y-116215476D01*
X94380952Y-116405952D01*
X94380952Y-116548809D01*
X94428571Y-116739285D01*
X94476190Y-116834523D01*
X94571428Y-116929761D01*
X94714285Y-116977380D01*
X94952380Y-116977380D01*
X105071428Y-118627380D02*
X105071428Y-117627380D01*
X105071428Y-118103571D02*
X104500000Y-118103571D01*
X104500000Y-118627380D02*
X104500000Y-117627380D01*
X103595238Y-118627380D02*
X103595238Y-118103571D01*
X103642857Y-118008333D01*
X103738095Y-117960714D01*
X103928571Y-117960714D01*
X104023809Y-118008333D01*
X103595238Y-118579761D02*
X103690476Y-118627380D01*
X103928571Y-118627380D01*
X104023809Y-118579761D01*
X104071428Y-118484523D01*
X104071428Y-118389285D01*
X104023809Y-118294047D01*
X103928571Y-118246428D01*
X103690476Y-118246428D01*
X103595238Y-118198809D01*
X103119047Y-118627380D02*
X103119047Y-117960714D01*
X103119047Y-118151190D02*
X103071428Y-118055952D01*
X103023809Y-118008333D01*
X102928571Y-117960714D01*
X102833333Y-117960714D01*
X102500000Y-118627380D02*
X102500000Y-117627380D01*
X102404761Y-118246428D02*
X102119047Y-118627380D01*
X102119047Y-117960714D02*
X102500000Y-118341666D01*
X101547619Y-118627380D02*
X101642857Y-118579761D01*
X101690476Y-118532142D01*
X101738095Y-118436904D01*
X101738095Y-118151190D01*
X101690476Y-118055952D01*
X101642857Y-118008333D01*
X101547619Y-117960714D01*
X101404761Y-117960714D01*
X101309523Y-118008333D01*
X101261904Y-118055952D01*
X101214285Y-118151190D01*
X101214285Y-118436904D01*
X101261904Y-118532142D01*
X101309523Y-118579761D01*
X101404761Y-118627380D01*
X101547619Y-118627380D01*
X100785714Y-117960714D02*
X100785714Y-118627380D01*
X100785714Y-118055952D02*
X100738095Y-118008333D01*
X100642857Y-117960714D01*
X100500000Y-117960714D01*
X100404761Y-118008333D01*
X100357142Y-118103571D01*
X100357142Y-118627380D01*
X99500000Y-118579761D02*
X99595238Y-118627380D01*
X99785714Y-118627380D01*
X99880952Y-118579761D01*
X99928571Y-118484523D01*
X99928571Y-118103571D01*
X99880952Y-118008333D01*
X99785714Y-117960714D01*
X99595238Y-117960714D01*
X99500000Y-118008333D01*
X99452380Y-118103571D01*
X99452380Y-118198809D01*
X99928571Y-118294047D01*
X99023809Y-117960714D02*
X99023809Y-118627380D01*
X99023809Y-118055952D02*
X98976190Y-118008333D01*
X98880952Y-117960714D01*
X98738095Y-117960714D01*
X98642857Y-118008333D01*
X98595238Y-118103571D01*
X98595238Y-118627380D01*
X97785714Y-118103571D02*
X97642857Y-118151190D01*
X97595238Y-118198809D01*
X97547619Y-118294047D01*
X97547619Y-118436904D01*
X97595238Y-118532142D01*
X97642857Y-118579761D01*
X97738095Y-118627380D01*
X98119047Y-118627380D01*
X98119047Y-117627380D01*
X97785714Y-117627380D01*
X97690476Y-117675000D01*
X97642857Y-117722619D01*
X97595238Y-117817857D01*
X97595238Y-117913095D01*
X97642857Y-118008333D01*
X97690476Y-118055952D01*
X97785714Y-118103571D01*
X98119047Y-118103571D01*
X96690476Y-118627380D02*
X96690476Y-118103571D01*
X96738095Y-118008333D01*
X96833333Y-117960714D01*
X97023809Y-117960714D01*
X97119047Y-118008333D01*
X96690476Y-118579761D02*
X96785714Y-118627380D01*
X97023809Y-118627380D01*
X97119047Y-118579761D01*
X97166666Y-118484523D01*
X97166666Y-118389285D01*
X97119047Y-118294047D01*
X97023809Y-118246428D01*
X96785714Y-118246428D01*
X96690476Y-118198809D01*
X95785714Y-118627380D02*
X95785714Y-117627380D01*
X95785714Y-118579761D02*
X95880952Y-118627380D01*
X96071428Y-118627380D01*
X96166666Y-118579761D01*
X96214285Y-118532142D01*
X96261904Y-118436904D01*
X96261904Y-118151190D01*
X96214285Y-118055952D01*
X96166666Y-118008333D01*
X96071428Y-117960714D01*
X95880952Y-117960714D01*
X95785714Y-118008333D01*
X94928571Y-118579761D02*
X95023809Y-118627380D01*
X95214285Y-118627380D01*
X95309523Y-118579761D01*
X95357142Y-118484523D01*
X95357142Y-118103571D01*
X95309523Y-118008333D01*
X95214285Y-117960714D01*
X95023809Y-117960714D01*
X94928571Y-118008333D01*
X94880952Y-118103571D01*
X94880952Y-118198809D01*
X95357142Y-118294047D01*
X104857142Y-119372619D02*
X104809523Y-119325000D01*
X104714285Y-119277380D01*
X104476190Y-119277380D01*
X104380952Y-119325000D01*
X104333333Y-119372619D01*
X104285714Y-119467857D01*
X104285714Y-119563095D01*
X104333333Y-119705952D01*
X104904761Y-120277380D01*
X104285714Y-120277380D01*
X103666666Y-119277380D02*
X103571428Y-119277380D01*
X103476190Y-119325000D01*
X103428571Y-119372619D01*
X103380952Y-119467857D01*
X103333333Y-119658333D01*
X103333333Y-119896428D01*
X103380952Y-120086904D01*
X103428571Y-120182142D01*
X103476190Y-120229761D01*
X103571428Y-120277380D01*
X103666666Y-120277380D01*
X103761904Y-120229761D01*
X103809523Y-120182142D01*
X103857142Y-120086904D01*
X103904761Y-119896428D01*
X103904761Y-119658333D01*
X103857142Y-119467857D01*
X103809523Y-119372619D01*
X103761904Y-119325000D01*
X103666666Y-119277380D01*
X102952380Y-119372619D02*
X102904761Y-119325000D01*
X102809523Y-119277380D01*
X102571428Y-119277380D01*
X102476190Y-119325000D01*
X102428571Y-119372619D01*
X102380952Y-119467857D01*
X102380952Y-119563095D01*
X102428571Y-119705952D01*
X103000000Y-120277380D01*
X102380952Y-120277380D01*
X101761904Y-119277380D02*
X101666666Y-119277380D01*
X101571428Y-119325000D01*
X101523809Y-119372619D01*
X101476190Y-119467857D01*
X101428571Y-119658333D01*
X101428571Y-119896428D01*
X101476190Y-120086904D01*
X101523809Y-120182142D01*
X101571428Y-120229761D01*
X101666666Y-120277380D01*
X101761904Y-120277380D01*
X101857142Y-120229761D01*
X101904761Y-120182142D01*
X101952380Y-120086904D01*
X102000000Y-119896428D01*
X102000000Y-119658333D01*
X101952380Y-119467857D01*
X101904761Y-119372619D01*
X101857142Y-119325000D01*
X101761904Y-119277380D01*
X101000000Y-119896428D02*
X100238095Y-119896428D01*
X99571428Y-119277380D02*
X99476190Y-119277380D01*
X99380952Y-119325000D01*
X99333333Y-119372619D01*
X99285714Y-119467857D01*
X99238095Y-119658333D01*
X99238095Y-119896428D01*
X99285714Y-120086904D01*
X99333333Y-120182142D01*
X99380952Y-120229761D01*
X99476190Y-120277380D01*
X99571428Y-120277380D01*
X99666666Y-120229761D01*
X99714285Y-120182142D01*
X99761904Y-120086904D01*
X99809523Y-119896428D01*
X99809523Y-119658333D01*
X99761904Y-119467857D01*
X99714285Y-119372619D01*
X99666666Y-119325000D01*
X99571428Y-119277380D01*
X98761904Y-120277380D02*
X98571428Y-120277380D01*
X98476190Y-120229761D01*
X98428571Y-120182142D01*
X98333333Y-120039285D01*
X98285714Y-119848809D01*
X98285714Y-119467857D01*
X98333333Y-119372619D01*
X98380952Y-119325000D01*
X98476190Y-119277380D01*
X98666666Y-119277380D01*
X98761904Y-119325000D01*
X98809523Y-119372619D01*
X98857142Y-119467857D01*
X98857142Y-119705952D01*
X98809523Y-119801190D01*
X98761904Y-119848809D01*
X98666666Y-119896428D01*
X98476190Y-119896428D01*
X98380952Y-119848809D01*
X98333333Y-119801190D01*
X98285714Y-119705952D01*
X97857142Y-119896428D02*
X97095238Y-119896428D01*
X96095238Y-120277380D02*
X96666666Y-120277380D01*
X96380952Y-120277380D02*
X96380952Y-119277380D01*
X96476190Y-119420238D01*
X96571428Y-119515476D01*
X96666666Y-119563095D01*
X95714285Y-119372619D02*
X95666666Y-119325000D01*
X95571428Y-119277380D01*
X95333333Y-119277380D01*
X95238095Y-119325000D01*
X95190476Y-119372619D01*
X95142857Y-119467857D01*
X95142857Y-119563095D01*
X95190476Y-119705952D01*
X95761904Y-120277380D01*
X95142857Y-120277380D01*
X101357142Y-121927380D02*
X101690476Y-121451190D01*
X101928571Y-121927380D02*
X101928571Y-120927380D01*
X101547619Y-120927380D01*
X101452380Y-120975000D01*
X101404761Y-121022619D01*
X101357142Y-121117857D01*
X101357142Y-121260714D01*
X101404761Y-121355952D01*
X101452380Y-121403571D01*
X101547619Y-121451190D01*
X101928571Y-121451190D01*
X100547619Y-121879761D02*
X100642857Y-121927380D01*
X100833333Y-121927380D01*
X100928571Y-121879761D01*
X100976190Y-121784523D01*
X100976190Y-121403571D01*
X100928571Y-121308333D01*
X100833333Y-121260714D01*
X100642857Y-121260714D01*
X100547619Y-121308333D01*
X100500000Y-121403571D01*
X100500000Y-121498809D01*
X100976190Y-121594047D01*
X100166666Y-121260714D02*
X99928571Y-121927380D01*
X99690476Y-121260714D01*
X98023809Y-121927380D02*
X98595238Y-121927380D01*
X98309523Y-121927380D02*
X98309523Y-120927380D01*
X98404761Y-121070238D01*
X98500000Y-121165476D01*
X98595238Y-121213095D01*
D11*
G36*
X92600000Y-93400000D02*
G01*
X92600000Y-93000000D01*
X93000000Y-93000000D01*
X93000000Y-93400000D01*
X92600000Y-93400000D01*
G37*
G36*
X93000000Y-93400000D02*
G01*
X93000000Y-93000000D01*
X93400000Y-93000000D01*
X93400000Y-93400000D01*
X93000000Y-93400000D01*
G37*
G36*
X93400000Y-93400000D02*
G01*
X93400000Y-93000000D01*
X93800000Y-93000000D01*
X93800000Y-93400000D01*
X93400000Y-93400000D01*
G37*
G36*
X93800000Y-93400000D02*
G01*
X93800000Y-93000000D01*
X94200000Y-93000000D01*
X94200000Y-93400000D01*
X93800000Y-93400000D01*
G37*
G36*
X94200000Y-93400000D02*
G01*
X94200000Y-93000000D01*
X94600000Y-93000000D01*
X94600000Y-93400000D01*
X94200000Y-93400000D01*
G37*
G36*
X94600000Y-93400000D02*
G01*
X94600000Y-93000000D01*
X95000000Y-93000000D01*
X95000000Y-93400000D01*
X94600000Y-93400000D01*
G37*
G36*
X95000000Y-93400000D02*
G01*
X95000000Y-93000000D01*
X95400000Y-93000000D01*
X95400000Y-93400000D01*
X95000000Y-93400000D01*
G37*
G36*
X95400000Y-93400000D02*
G01*
X95400000Y-93000000D01*
X95800000Y-93000000D01*
X95800000Y-93400000D01*
X95400000Y-93400000D01*
G37*
G36*
X95800000Y-93400000D02*
G01*
X95800000Y-93000000D01*
X96200000Y-93000000D01*
X96200000Y-93400000D01*
X95800000Y-93400000D01*
G37*
G36*
X96200000Y-93400000D02*
G01*
X96200000Y-93000000D01*
X96600000Y-93000000D01*
X96600000Y-93400000D01*
X96200000Y-93400000D01*
G37*
G36*
X96600000Y-93400000D02*
G01*
X96600000Y-93000000D01*
X97000000Y-93000000D01*
X97000000Y-93400000D01*
X96600000Y-93400000D01*
G37*
G36*
X97000000Y-93400000D02*
G01*
X97000000Y-93000000D01*
X97400000Y-93000000D01*
X97400000Y-93400000D01*
X97000000Y-93400000D01*
G37*
G36*
X97400000Y-93400000D02*
G01*
X97400000Y-93000000D01*
X97800000Y-93000000D01*
X97800000Y-93400000D01*
X97400000Y-93400000D01*
G37*
G36*
X97800000Y-93400000D02*
G01*
X97800000Y-93000000D01*
X98200000Y-93000000D01*
X98200000Y-93400000D01*
X97800000Y-93400000D01*
G37*
G36*
X98200000Y-93400000D02*
G01*
X98200000Y-93000000D01*
X98600000Y-93000000D01*
X98600000Y-93400000D01*
X98200000Y-93400000D01*
G37*
G36*
X98600000Y-93400000D02*
G01*
X98600000Y-93000000D01*
X99000000Y-93000000D01*
X99000000Y-93400000D01*
X98600000Y-93400000D01*
G37*
G36*
X99000000Y-93400000D02*
G01*
X99000000Y-93000000D01*
X99400000Y-93000000D01*
X99400000Y-93400000D01*
X99000000Y-93400000D01*
G37*
G36*
X99400000Y-93400000D02*
G01*
X99400000Y-93000000D01*
X99800000Y-93000000D01*
X99800000Y-93400000D01*
X99400000Y-93400000D01*
G37*
G36*
X99800000Y-93400000D02*
G01*
X99800000Y-93000000D01*
X100200000Y-93000000D01*
X100200000Y-93400000D01*
X99800000Y-93400000D01*
G37*
G36*
X100200000Y-93400000D02*
G01*
X100200000Y-93000000D01*
X100600000Y-93000000D01*
X100600000Y-93400000D01*
X100200000Y-93400000D01*
G37*
G36*
X100600000Y-93400000D02*
G01*
X100600000Y-93000000D01*
X101000000Y-93000000D01*
X101000000Y-93400000D01*
X100600000Y-93400000D01*
G37*
G36*
X101000000Y-93400000D02*
G01*
X101000000Y-93000000D01*
X101400000Y-93000000D01*
X101400000Y-93400000D01*
X101000000Y-93400000D01*
G37*
G36*
X101400000Y-93400000D02*
G01*
X101400000Y-93000000D01*
X101800000Y-93000000D01*
X101800000Y-93400000D01*
X101400000Y-93400000D01*
G37*
G36*
X101800000Y-93400000D02*
G01*
X101800000Y-93000000D01*
X102200000Y-93000000D01*
X102200000Y-93400000D01*
X101800000Y-93400000D01*
G37*
G36*
X102200000Y-93400000D02*
G01*
X102200000Y-93000000D01*
X102600000Y-93000000D01*
X102600000Y-93400000D01*
X102200000Y-93400000D01*
G37*
G36*
X102600000Y-93400000D02*
G01*
X102600000Y-93000000D01*
X103000000Y-93000000D01*
X103000000Y-93400000D01*
X102600000Y-93400000D01*
G37*
G36*
X103000000Y-93400000D02*
G01*
X103000000Y-93000000D01*
X103400000Y-93000000D01*
X103400000Y-93400000D01*
X103000000Y-93400000D01*
G37*
G36*
X103400000Y-93400000D02*
G01*
X103400000Y-93000000D01*
X103800000Y-93000000D01*
X103800000Y-93400000D01*
X103400000Y-93400000D01*
G37*
G36*
X103800000Y-93400000D02*
G01*
X103800000Y-93000000D01*
X104200000Y-93000000D01*
X104200000Y-93400000D01*
X103800000Y-93400000D01*
G37*
G36*
X104200000Y-93400000D02*
G01*
X104200000Y-93000000D01*
X104600000Y-93000000D01*
X104600000Y-93400000D01*
X104200000Y-93400000D01*
G37*
G36*
X104600000Y-93400000D02*
G01*
X104600000Y-93000000D01*
X105000000Y-93000000D01*
X105000000Y-93400000D01*
X104600000Y-93400000D01*
G37*
G36*
X105000000Y-93400000D02*
G01*
X105000000Y-93000000D01*
X105400000Y-93000000D01*
X105400000Y-93400000D01*
X105000000Y-93400000D01*
G37*
G36*
X105400000Y-93400000D02*
G01*
X105400000Y-93000000D01*
X105800000Y-93000000D01*
X105800000Y-93400000D01*
X105400000Y-93400000D01*
G37*
G36*
X105800000Y-93400000D02*
G01*
X105800000Y-93000000D01*
X106200000Y-93000000D01*
X106200000Y-93400000D01*
X105800000Y-93400000D01*
G37*
G36*
X106200000Y-93400000D02*
G01*
X106200000Y-93000000D01*
X106600000Y-93000000D01*
X106600000Y-93400000D01*
X106200000Y-93400000D01*
G37*
G36*
X106600000Y-93400000D02*
G01*
X106600000Y-93000000D01*
X107000000Y-93000000D01*
X107000000Y-93400000D01*
X106600000Y-93400000D01*
G37*
G36*
X107000000Y-93400000D02*
G01*
X107000000Y-93000000D01*
X107400000Y-93000000D01*
X107400000Y-93400000D01*
X107000000Y-93400000D01*
G37*
G36*
X92600000Y-93000000D02*
G01*
X92600000Y-92600000D01*
X93000000Y-92600000D01*
X93000000Y-93000000D01*
X92600000Y-93000000D01*
G37*
G36*
X93000000Y-93000000D02*
G01*
X93000000Y-92600000D01*
X93400000Y-92600000D01*
X93400000Y-93000000D01*
X93000000Y-93000000D01*
G37*
G36*
X93400000Y-93000000D02*
G01*
X93400000Y-92600000D01*
X93800000Y-92600000D01*
X93800000Y-93000000D01*
X93400000Y-93000000D01*
G37*
G36*
X93800000Y-93000000D02*
G01*
X93800000Y-92600000D01*
X94200000Y-92600000D01*
X94200000Y-93000000D01*
X93800000Y-93000000D01*
G37*
G36*
X94200000Y-93000000D02*
G01*
X94200000Y-92600000D01*
X94600000Y-92600000D01*
X94600000Y-93000000D01*
X94200000Y-93000000D01*
G37*
G36*
X94600000Y-93000000D02*
G01*
X94600000Y-92600000D01*
X95000000Y-92600000D01*
X95000000Y-93000000D01*
X94600000Y-93000000D01*
G37*
G36*
X95000000Y-93000000D02*
G01*
X95000000Y-92600000D01*
X95400000Y-92600000D01*
X95400000Y-93000000D01*
X95000000Y-93000000D01*
G37*
G36*
X95400000Y-93000000D02*
G01*
X95400000Y-92600000D01*
X95800000Y-92600000D01*
X95800000Y-93000000D01*
X95400000Y-93000000D01*
G37*
G36*
X95800000Y-93000000D02*
G01*
X95800000Y-92600000D01*
X96200000Y-92600000D01*
X96200000Y-93000000D01*
X95800000Y-93000000D01*
G37*
G36*
X96200000Y-93000000D02*
G01*
X96200000Y-92600000D01*
X96600000Y-92600000D01*
X96600000Y-93000000D01*
X96200000Y-93000000D01*
G37*
G36*
X96600000Y-93000000D02*
G01*
X96600000Y-92600000D01*
X97000000Y-92600000D01*
X97000000Y-93000000D01*
X96600000Y-93000000D01*
G37*
G36*
X97000000Y-93000000D02*
G01*
X97000000Y-92600000D01*
X97400000Y-92600000D01*
X97400000Y-93000000D01*
X97000000Y-93000000D01*
G37*
G36*
X97400000Y-93000000D02*
G01*
X97400000Y-92600000D01*
X97800000Y-92600000D01*
X97800000Y-93000000D01*
X97400000Y-93000000D01*
G37*
G36*
X97800000Y-93000000D02*
G01*
X97800000Y-92600000D01*
X98200000Y-92600000D01*
X98200000Y-93000000D01*
X97800000Y-93000000D01*
G37*
G36*
X98200000Y-93000000D02*
G01*
X98200000Y-92600000D01*
X98600000Y-92600000D01*
X98600000Y-93000000D01*
X98200000Y-93000000D01*
G37*
G36*
X98600000Y-93000000D02*
G01*
X98600000Y-92600000D01*
X99000000Y-92600000D01*
X99000000Y-93000000D01*
X98600000Y-93000000D01*
G37*
G36*
X99000000Y-93000000D02*
G01*
X99000000Y-92600000D01*
X99400000Y-92600000D01*
X99400000Y-93000000D01*
X99000000Y-93000000D01*
G37*
G36*
X99400000Y-93000000D02*
G01*
X99400000Y-92600000D01*
X99800000Y-92600000D01*
X99800000Y-93000000D01*
X99400000Y-93000000D01*
G37*
G36*
X99800000Y-93000000D02*
G01*
X99800000Y-92600000D01*
X100200000Y-92600000D01*
X100200000Y-93000000D01*
X99800000Y-93000000D01*
G37*
G36*
X100200000Y-93000000D02*
G01*
X100200000Y-92600000D01*
X100600000Y-92600000D01*
X100600000Y-93000000D01*
X100200000Y-93000000D01*
G37*
G36*
X100600000Y-93000000D02*
G01*
X100600000Y-92600000D01*
X101000000Y-92600000D01*
X101000000Y-93000000D01*
X100600000Y-93000000D01*
G37*
G36*
X101000000Y-93000000D02*
G01*
X101000000Y-92600000D01*
X101400000Y-92600000D01*
X101400000Y-93000000D01*
X101000000Y-93000000D01*
G37*
G36*
X101400000Y-93000000D02*
G01*
X101400000Y-92600000D01*
X101800000Y-92600000D01*
X101800000Y-93000000D01*
X101400000Y-93000000D01*
G37*
G36*
X101800000Y-93000000D02*
G01*
X101800000Y-92600000D01*
X102200000Y-92600000D01*
X102200000Y-93000000D01*
X101800000Y-93000000D01*
G37*
G36*
X102200000Y-93000000D02*
G01*
X102200000Y-92600000D01*
X102600000Y-92600000D01*
X102600000Y-93000000D01*
X102200000Y-93000000D01*
G37*
G36*
X102600000Y-93000000D02*
G01*
X102600000Y-92600000D01*
X103000000Y-92600000D01*
X103000000Y-93000000D01*
X102600000Y-93000000D01*
G37*
G36*
X103000000Y-93000000D02*
G01*
X103000000Y-92600000D01*
X103400000Y-92600000D01*
X103400000Y-93000000D01*
X103000000Y-93000000D01*
G37*
G36*
X103400000Y-93000000D02*
G01*
X103400000Y-92600000D01*
X103800000Y-92600000D01*
X103800000Y-93000000D01*
X103400000Y-93000000D01*
G37*
G36*
X103800000Y-93000000D02*
G01*
X103800000Y-92600000D01*
X104200000Y-92600000D01*
X104200000Y-93000000D01*
X103800000Y-93000000D01*
G37*
G36*
X104200000Y-93000000D02*
G01*
X104200000Y-92600000D01*
X104600000Y-92600000D01*
X104600000Y-93000000D01*
X104200000Y-93000000D01*
G37*
G36*
X104600000Y-93000000D02*
G01*
X104600000Y-92600000D01*
X105000000Y-92600000D01*
X105000000Y-93000000D01*
X104600000Y-93000000D01*
G37*
G36*
X105000000Y-93000000D02*
G01*
X105000000Y-92600000D01*
X105400000Y-92600000D01*
X105400000Y-93000000D01*
X105000000Y-93000000D01*
G37*
G36*
X105400000Y-93000000D02*
G01*
X105400000Y-92600000D01*
X105800000Y-92600000D01*
X105800000Y-93000000D01*
X105400000Y-93000000D01*
G37*
G36*
X105800000Y-93000000D02*
G01*
X105800000Y-92600000D01*
X106200000Y-92600000D01*
X106200000Y-93000000D01*
X105800000Y-93000000D01*
G37*
G36*
X106200000Y-93000000D02*
G01*
X106200000Y-92600000D01*
X106600000Y-92600000D01*
X106600000Y-93000000D01*
X106200000Y-93000000D01*
G37*
G36*
X106600000Y-93000000D02*
G01*
X106600000Y-92600000D01*
X107000000Y-92600000D01*
X107000000Y-93000000D01*
X106600000Y-93000000D01*
G37*
G36*
X107000000Y-93000000D02*
G01*
X107000000Y-92600000D01*
X107400000Y-92600000D01*
X107400000Y-93000000D01*
X107000000Y-93000000D01*
G37*
G36*
X92600000Y-92600000D02*
G01*
X92600000Y-92200000D01*
X93000000Y-92200000D01*
X93000000Y-92600000D01*
X92600000Y-92600000D01*
G37*
G36*
X93000000Y-92600000D02*
G01*
X93000000Y-92200000D01*
X93400000Y-92200000D01*
X93400000Y-92600000D01*
X93000000Y-92600000D01*
G37*
G36*
X93800000Y-92600000D02*
G01*
X93800000Y-92200000D01*
X94200000Y-92200000D01*
X94200000Y-92600000D01*
X93800000Y-92600000D01*
G37*
G36*
X94200000Y-92600000D02*
G01*
X94200000Y-92200000D01*
X94600000Y-92200000D01*
X94600000Y-92600000D01*
X94200000Y-92600000D01*
G37*
G36*
X94600000Y-92600000D02*
G01*
X94600000Y-92200000D01*
X95000000Y-92200000D01*
X95000000Y-92600000D01*
X94600000Y-92600000D01*
G37*
G36*
X95000000Y-92600000D02*
G01*
X95000000Y-92200000D01*
X95400000Y-92200000D01*
X95400000Y-92600000D01*
X95000000Y-92600000D01*
G37*
G36*
X95400000Y-92600000D02*
G01*
X95400000Y-92200000D01*
X95800000Y-92200000D01*
X95800000Y-92600000D01*
X95400000Y-92600000D01*
G37*
G36*
X96200000Y-92600000D02*
G01*
X96200000Y-92200000D01*
X96600000Y-92200000D01*
X96600000Y-92600000D01*
X96200000Y-92600000D01*
G37*
G36*
X97000000Y-92600000D02*
G01*
X97000000Y-92200000D01*
X97400000Y-92200000D01*
X97400000Y-92600000D01*
X97000000Y-92600000D01*
G37*
G36*
X99000000Y-92600000D02*
G01*
X99000000Y-92200000D01*
X99400000Y-92200000D01*
X99400000Y-92600000D01*
X99000000Y-92600000D01*
G37*
G36*
X99800000Y-92600000D02*
G01*
X99800000Y-92200000D01*
X100200000Y-92200000D01*
X100200000Y-92600000D01*
X99800000Y-92600000D01*
G37*
G36*
X100200000Y-92600000D02*
G01*
X100200000Y-92200000D01*
X100600000Y-92200000D01*
X100600000Y-92600000D01*
X100200000Y-92600000D01*
G37*
G36*
X100600000Y-92600000D02*
G01*
X100600000Y-92200000D01*
X101000000Y-92200000D01*
X101000000Y-92600000D01*
X100600000Y-92600000D01*
G37*
G36*
X101400000Y-92600000D02*
G01*
X101400000Y-92200000D01*
X101800000Y-92200000D01*
X101800000Y-92600000D01*
X101400000Y-92600000D01*
G37*
G36*
X102200000Y-92600000D02*
G01*
X102200000Y-92200000D01*
X102600000Y-92200000D01*
X102600000Y-92600000D01*
X102200000Y-92600000D01*
G37*
G36*
X103400000Y-92600000D02*
G01*
X103400000Y-92200000D01*
X103800000Y-92200000D01*
X103800000Y-92600000D01*
X103400000Y-92600000D01*
G37*
G36*
X106600000Y-92600000D02*
G01*
X106600000Y-92200000D01*
X107000000Y-92200000D01*
X107000000Y-92600000D01*
X106600000Y-92600000D01*
G37*
G36*
X107000000Y-92600000D02*
G01*
X107000000Y-92200000D01*
X107400000Y-92200000D01*
X107400000Y-92600000D01*
X107000000Y-92600000D01*
G37*
G36*
X92600000Y-92200000D02*
G01*
X92600000Y-91800000D01*
X93000000Y-91800000D01*
X93000000Y-92200000D01*
X92600000Y-92200000D01*
G37*
G36*
X93000000Y-92200000D02*
G01*
X93000000Y-91800000D01*
X93400000Y-91800000D01*
X93400000Y-92200000D01*
X93000000Y-92200000D01*
G37*
G36*
X93400000Y-92200000D02*
G01*
X93400000Y-91800000D01*
X93800000Y-91800000D01*
X93800000Y-92200000D01*
X93400000Y-92200000D01*
G37*
G36*
X93800000Y-92200000D02*
G01*
X93800000Y-91800000D01*
X94200000Y-91800000D01*
X94200000Y-92200000D01*
X93800000Y-92200000D01*
G37*
G36*
X94200000Y-92200000D02*
G01*
X94200000Y-91800000D01*
X94600000Y-91800000D01*
X94600000Y-92200000D01*
X94200000Y-92200000D01*
G37*
G36*
X94600000Y-92200000D02*
G01*
X94600000Y-91800000D01*
X95000000Y-91800000D01*
X95000000Y-92200000D01*
X94600000Y-92200000D01*
G37*
G36*
X95000000Y-92200000D02*
G01*
X95000000Y-91800000D01*
X95400000Y-91800000D01*
X95400000Y-92200000D01*
X95000000Y-92200000D01*
G37*
G36*
X95400000Y-92200000D02*
G01*
X95400000Y-91800000D01*
X95800000Y-91800000D01*
X95800000Y-92200000D01*
X95400000Y-92200000D01*
G37*
G36*
X95800000Y-92200000D02*
G01*
X95800000Y-91800000D01*
X96200000Y-91800000D01*
X96200000Y-92200000D01*
X95800000Y-92200000D01*
G37*
G36*
X96200000Y-92200000D02*
G01*
X96200000Y-91800000D01*
X96600000Y-91800000D01*
X96600000Y-92200000D01*
X96200000Y-92200000D01*
G37*
G36*
X96600000Y-92200000D02*
G01*
X96600000Y-91800000D01*
X97000000Y-91800000D01*
X97000000Y-92200000D01*
X96600000Y-92200000D01*
G37*
G36*
X97000000Y-92200000D02*
G01*
X97000000Y-91800000D01*
X97400000Y-91800000D01*
X97400000Y-92200000D01*
X97000000Y-92200000D01*
G37*
G36*
X97400000Y-92200000D02*
G01*
X97400000Y-91800000D01*
X97800000Y-91800000D01*
X97800000Y-92200000D01*
X97400000Y-92200000D01*
G37*
G36*
X98200000Y-92200000D02*
G01*
X98200000Y-91800000D01*
X98600000Y-91800000D01*
X98600000Y-92200000D01*
X98200000Y-92200000D01*
G37*
G36*
X98600000Y-92200000D02*
G01*
X98600000Y-91800000D01*
X99000000Y-91800000D01*
X99000000Y-92200000D01*
X98600000Y-92200000D01*
G37*
G36*
X99000000Y-92200000D02*
G01*
X99000000Y-91800000D01*
X99400000Y-91800000D01*
X99400000Y-92200000D01*
X99000000Y-92200000D01*
G37*
G36*
X101400000Y-92200000D02*
G01*
X101400000Y-91800000D01*
X101800000Y-91800000D01*
X101800000Y-92200000D01*
X101400000Y-92200000D01*
G37*
G36*
X102200000Y-92200000D02*
G01*
X102200000Y-91800000D01*
X102600000Y-91800000D01*
X102600000Y-92200000D01*
X102200000Y-92200000D01*
G37*
G36*
X102600000Y-92200000D02*
G01*
X102600000Y-91800000D01*
X103000000Y-91800000D01*
X103000000Y-92200000D01*
X102600000Y-92200000D01*
G37*
G36*
X103000000Y-92200000D02*
G01*
X103000000Y-91800000D01*
X103400000Y-91800000D01*
X103400000Y-92200000D01*
X103000000Y-92200000D01*
G37*
G36*
X103400000Y-92200000D02*
G01*
X103400000Y-91800000D01*
X103800000Y-91800000D01*
X103800000Y-92200000D01*
X103400000Y-92200000D01*
G37*
G36*
X104200000Y-92200000D02*
G01*
X104200000Y-91800000D01*
X104600000Y-91800000D01*
X104600000Y-92200000D01*
X104200000Y-92200000D01*
G37*
G36*
X104600000Y-92200000D02*
G01*
X104600000Y-91800000D01*
X105000000Y-91800000D01*
X105000000Y-92200000D01*
X104600000Y-92200000D01*
G37*
G36*
X105000000Y-92200000D02*
G01*
X105000000Y-91800000D01*
X105400000Y-91800000D01*
X105400000Y-92200000D01*
X105000000Y-92200000D01*
G37*
G36*
X105400000Y-92200000D02*
G01*
X105400000Y-91800000D01*
X105800000Y-91800000D01*
X105800000Y-92200000D01*
X105400000Y-92200000D01*
G37*
G36*
X105800000Y-92200000D02*
G01*
X105800000Y-91800000D01*
X106200000Y-91800000D01*
X106200000Y-92200000D01*
X105800000Y-92200000D01*
G37*
G36*
X106600000Y-92200000D02*
G01*
X106600000Y-91800000D01*
X107000000Y-91800000D01*
X107000000Y-92200000D01*
X106600000Y-92200000D01*
G37*
G36*
X107000000Y-92200000D02*
G01*
X107000000Y-91800000D01*
X107400000Y-91800000D01*
X107400000Y-92200000D01*
X107000000Y-92200000D01*
G37*
G36*
X92600000Y-91800000D02*
G01*
X92600000Y-91400000D01*
X93000000Y-91400000D01*
X93000000Y-91800000D01*
X92600000Y-91800000D01*
G37*
G36*
X93000000Y-91800000D02*
G01*
X93000000Y-91400000D01*
X93400000Y-91400000D01*
X93400000Y-91800000D01*
X93000000Y-91800000D01*
G37*
G36*
X93400000Y-91800000D02*
G01*
X93400000Y-91400000D01*
X93800000Y-91400000D01*
X93800000Y-91800000D01*
X93400000Y-91800000D01*
G37*
G36*
X93800000Y-91800000D02*
G01*
X93800000Y-91400000D01*
X94200000Y-91400000D01*
X94200000Y-91800000D01*
X93800000Y-91800000D01*
G37*
G36*
X94200000Y-91800000D02*
G01*
X94200000Y-91400000D01*
X94600000Y-91400000D01*
X94600000Y-91800000D01*
X94200000Y-91800000D01*
G37*
G36*
X96200000Y-91800000D02*
G01*
X96200000Y-91400000D01*
X96600000Y-91400000D01*
X96600000Y-91800000D01*
X96200000Y-91800000D01*
G37*
G36*
X97400000Y-91800000D02*
G01*
X97400000Y-91400000D01*
X97800000Y-91400000D01*
X97800000Y-91800000D01*
X97400000Y-91800000D01*
G37*
G36*
X97800000Y-91800000D02*
G01*
X97800000Y-91400000D01*
X98200000Y-91400000D01*
X98200000Y-91800000D01*
X97800000Y-91800000D01*
G37*
G36*
X98600000Y-91800000D02*
G01*
X98600000Y-91400000D01*
X99000000Y-91400000D01*
X99000000Y-91800000D01*
X98600000Y-91800000D01*
G37*
G36*
X99400000Y-91800000D02*
G01*
X99400000Y-91400000D01*
X99800000Y-91400000D01*
X99800000Y-91800000D01*
X99400000Y-91800000D01*
G37*
G36*
X99800000Y-91800000D02*
G01*
X99800000Y-91400000D01*
X100200000Y-91400000D01*
X100200000Y-91800000D01*
X99800000Y-91800000D01*
G37*
G36*
X101400000Y-91800000D02*
G01*
X101400000Y-91400000D01*
X101800000Y-91400000D01*
X101800000Y-91800000D01*
X101400000Y-91800000D01*
G37*
G36*
X103000000Y-91800000D02*
G01*
X103000000Y-91400000D01*
X103400000Y-91400000D01*
X103400000Y-91800000D01*
X103000000Y-91800000D01*
G37*
G36*
X103400000Y-91800000D02*
G01*
X103400000Y-91400000D01*
X103800000Y-91400000D01*
X103800000Y-91800000D01*
X103400000Y-91800000D01*
G37*
G36*
X104200000Y-91800000D02*
G01*
X104200000Y-91400000D01*
X104600000Y-91400000D01*
X104600000Y-91800000D01*
X104200000Y-91800000D01*
G37*
G36*
X105800000Y-91800000D02*
G01*
X105800000Y-91400000D01*
X106200000Y-91400000D01*
X106200000Y-91800000D01*
X105800000Y-91800000D01*
G37*
G36*
X106600000Y-91800000D02*
G01*
X106600000Y-91400000D01*
X107000000Y-91400000D01*
X107000000Y-91800000D01*
X106600000Y-91800000D01*
G37*
G36*
X107000000Y-91800000D02*
G01*
X107000000Y-91400000D01*
X107400000Y-91400000D01*
X107400000Y-91800000D01*
X107000000Y-91800000D01*
G37*
G36*
X92600000Y-91400000D02*
G01*
X92600000Y-91000000D01*
X93000000Y-91000000D01*
X93000000Y-91400000D01*
X92600000Y-91400000D01*
G37*
G36*
X93000000Y-91400000D02*
G01*
X93000000Y-91000000D01*
X93400000Y-91000000D01*
X93400000Y-91400000D01*
X93000000Y-91400000D01*
G37*
G36*
X93400000Y-91400000D02*
G01*
X93400000Y-91000000D01*
X93800000Y-91000000D01*
X93800000Y-91400000D01*
X93400000Y-91400000D01*
G37*
G36*
X96200000Y-91400000D02*
G01*
X96200000Y-91000000D01*
X96600000Y-91000000D01*
X96600000Y-91400000D01*
X96200000Y-91400000D01*
G37*
G36*
X97400000Y-91400000D02*
G01*
X97400000Y-91000000D01*
X97800000Y-91000000D01*
X97800000Y-91400000D01*
X97400000Y-91400000D01*
G37*
G36*
X99800000Y-91400000D02*
G01*
X99800000Y-91000000D01*
X100200000Y-91000000D01*
X100200000Y-91400000D01*
X99800000Y-91400000D01*
G37*
G36*
X100200000Y-91400000D02*
G01*
X100200000Y-91000000D01*
X100600000Y-91000000D01*
X100600000Y-91400000D01*
X100200000Y-91400000D01*
G37*
G36*
X101000000Y-91400000D02*
G01*
X101000000Y-91000000D01*
X101400000Y-91000000D01*
X101400000Y-91400000D01*
X101000000Y-91400000D01*
G37*
G36*
X101400000Y-91400000D02*
G01*
X101400000Y-91000000D01*
X101800000Y-91000000D01*
X101800000Y-91400000D01*
X101400000Y-91400000D01*
G37*
G36*
X102200000Y-91400000D02*
G01*
X102200000Y-91000000D01*
X102600000Y-91000000D01*
X102600000Y-91400000D01*
X102200000Y-91400000D01*
G37*
G36*
X102600000Y-91400000D02*
G01*
X102600000Y-91000000D01*
X103000000Y-91000000D01*
X103000000Y-91400000D01*
X102600000Y-91400000D01*
G37*
G36*
X103000000Y-91400000D02*
G01*
X103000000Y-91000000D01*
X103400000Y-91000000D01*
X103400000Y-91400000D01*
X103000000Y-91400000D01*
G37*
G36*
X103400000Y-91400000D02*
G01*
X103400000Y-91000000D01*
X103800000Y-91000000D01*
X103800000Y-91400000D01*
X103400000Y-91400000D01*
G37*
G36*
X104200000Y-91400000D02*
G01*
X104200000Y-91000000D01*
X104600000Y-91000000D01*
X104600000Y-91400000D01*
X104200000Y-91400000D01*
G37*
G36*
X105800000Y-91400000D02*
G01*
X105800000Y-91000000D01*
X106200000Y-91000000D01*
X106200000Y-91400000D01*
X105800000Y-91400000D01*
G37*
G36*
X106600000Y-91400000D02*
G01*
X106600000Y-91000000D01*
X107000000Y-91000000D01*
X107000000Y-91400000D01*
X106600000Y-91400000D01*
G37*
G36*
X107000000Y-91400000D02*
G01*
X107000000Y-91000000D01*
X107400000Y-91000000D01*
X107400000Y-91400000D01*
X107000000Y-91400000D01*
G37*
G36*
X92600000Y-91000000D02*
G01*
X92600000Y-90600000D01*
X93000000Y-90600000D01*
X93000000Y-91000000D01*
X92600000Y-91000000D01*
G37*
G36*
X93000000Y-91000000D02*
G01*
X93000000Y-90600000D01*
X93400000Y-90600000D01*
X93400000Y-91000000D01*
X93000000Y-91000000D01*
G37*
G36*
X93800000Y-91000000D02*
G01*
X93800000Y-90600000D01*
X94200000Y-90600000D01*
X94200000Y-91000000D01*
X93800000Y-91000000D01*
G37*
G36*
X94200000Y-91000000D02*
G01*
X94200000Y-90600000D01*
X94600000Y-90600000D01*
X94600000Y-91000000D01*
X94200000Y-91000000D01*
G37*
G36*
X97000000Y-91000000D02*
G01*
X97000000Y-90600000D01*
X97400000Y-90600000D01*
X97400000Y-91000000D01*
X97000000Y-91000000D01*
G37*
G36*
X97800000Y-91000000D02*
G01*
X97800000Y-90600000D01*
X98200000Y-90600000D01*
X98200000Y-91000000D01*
X97800000Y-91000000D01*
G37*
G36*
X98200000Y-91000000D02*
G01*
X98200000Y-90600000D01*
X98600000Y-90600000D01*
X98600000Y-91000000D01*
X98200000Y-91000000D01*
G37*
G36*
X98600000Y-91000000D02*
G01*
X98600000Y-90600000D01*
X99000000Y-90600000D01*
X99000000Y-91000000D01*
X98600000Y-91000000D01*
G37*
G36*
X99000000Y-91000000D02*
G01*
X99000000Y-90600000D01*
X99400000Y-90600000D01*
X99400000Y-91000000D01*
X99000000Y-91000000D01*
G37*
G36*
X99400000Y-91000000D02*
G01*
X99400000Y-90600000D01*
X99800000Y-90600000D01*
X99800000Y-91000000D01*
X99400000Y-91000000D01*
G37*
G36*
X100200000Y-91000000D02*
G01*
X100200000Y-90600000D01*
X100600000Y-90600000D01*
X100600000Y-91000000D01*
X100200000Y-91000000D01*
G37*
G36*
X101000000Y-91000000D02*
G01*
X101000000Y-90600000D01*
X101400000Y-90600000D01*
X101400000Y-91000000D01*
X101000000Y-91000000D01*
G37*
G36*
X101400000Y-91000000D02*
G01*
X101400000Y-90600000D01*
X101800000Y-90600000D01*
X101800000Y-91000000D01*
X101400000Y-91000000D01*
G37*
G36*
X102600000Y-91000000D02*
G01*
X102600000Y-90600000D01*
X103000000Y-90600000D01*
X103000000Y-91000000D01*
X102600000Y-91000000D01*
G37*
G36*
X103400000Y-91000000D02*
G01*
X103400000Y-90600000D01*
X103800000Y-90600000D01*
X103800000Y-91000000D01*
X103400000Y-91000000D01*
G37*
G36*
X104200000Y-91000000D02*
G01*
X104200000Y-90600000D01*
X104600000Y-90600000D01*
X104600000Y-91000000D01*
X104200000Y-91000000D01*
G37*
G36*
X105800000Y-91000000D02*
G01*
X105800000Y-90600000D01*
X106200000Y-90600000D01*
X106200000Y-91000000D01*
X105800000Y-91000000D01*
G37*
G36*
X106600000Y-91000000D02*
G01*
X106600000Y-90600000D01*
X107000000Y-90600000D01*
X107000000Y-91000000D01*
X106600000Y-91000000D01*
G37*
G36*
X107000000Y-91000000D02*
G01*
X107000000Y-90600000D01*
X107400000Y-90600000D01*
X107400000Y-91000000D01*
X107000000Y-91000000D01*
G37*
G36*
X92600000Y-90600000D02*
G01*
X92600000Y-90200000D01*
X93000000Y-90200000D01*
X93000000Y-90600000D01*
X92600000Y-90600000D01*
G37*
G36*
X93000000Y-90600000D02*
G01*
X93000000Y-90200000D01*
X93400000Y-90200000D01*
X93400000Y-90600000D01*
X93000000Y-90600000D01*
G37*
G36*
X93400000Y-90600000D02*
G01*
X93400000Y-90200000D01*
X93800000Y-90200000D01*
X93800000Y-90600000D01*
X93400000Y-90600000D01*
G37*
G36*
X94200000Y-90600000D02*
G01*
X94200000Y-90200000D01*
X94600000Y-90200000D01*
X94600000Y-90600000D01*
X94200000Y-90600000D01*
G37*
G36*
X94600000Y-90600000D02*
G01*
X94600000Y-90200000D01*
X95000000Y-90200000D01*
X95000000Y-90600000D01*
X94600000Y-90600000D01*
G37*
G36*
X95400000Y-90600000D02*
G01*
X95400000Y-90200000D01*
X95800000Y-90200000D01*
X95800000Y-90600000D01*
X95400000Y-90600000D01*
G37*
G36*
X95800000Y-90600000D02*
G01*
X95800000Y-90200000D01*
X96200000Y-90200000D01*
X96200000Y-90600000D01*
X95800000Y-90600000D01*
G37*
G36*
X96200000Y-90600000D02*
G01*
X96200000Y-90200000D01*
X96600000Y-90200000D01*
X96600000Y-90600000D01*
X96200000Y-90600000D01*
G37*
G36*
X97000000Y-90600000D02*
G01*
X97000000Y-90200000D01*
X97400000Y-90200000D01*
X97400000Y-90600000D01*
X97000000Y-90600000D01*
G37*
G36*
X97800000Y-90600000D02*
G01*
X97800000Y-90200000D01*
X98200000Y-90200000D01*
X98200000Y-90600000D01*
X97800000Y-90600000D01*
G37*
G36*
X98600000Y-90600000D02*
G01*
X98600000Y-90200000D01*
X99000000Y-90200000D01*
X99000000Y-90600000D01*
X98600000Y-90600000D01*
G37*
G36*
X99000000Y-90600000D02*
G01*
X99000000Y-90200000D01*
X99400000Y-90200000D01*
X99400000Y-90600000D01*
X99000000Y-90600000D01*
G37*
G36*
X99400000Y-90600000D02*
G01*
X99400000Y-90200000D01*
X99800000Y-90200000D01*
X99800000Y-90600000D01*
X99400000Y-90600000D01*
G37*
G36*
X99800000Y-90600000D02*
G01*
X99800000Y-90200000D01*
X100200000Y-90200000D01*
X100200000Y-90600000D01*
X99800000Y-90600000D01*
G37*
G36*
X100600000Y-90600000D02*
G01*
X100600000Y-90200000D01*
X101000000Y-90200000D01*
X101000000Y-90600000D01*
X100600000Y-90600000D01*
G37*
G36*
X101000000Y-90600000D02*
G01*
X101000000Y-90200000D01*
X101400000Y-90200000D01*
X101400000Y-90600000D01*
X101000000Y-90600000D01*
G37*
G36*
X102600000Y-90600000D02*
G01*
X102600000Y-90200000D01*
X103000000Y-90200000D01*
X103000000Y-90600000D01*
X102600000Y-90600000D01*
G37*
G36*
X103000000Y-90600000D02*
G01*
X103000000Y-90200000D01*
X103400000Y-90200000D01*
X103400000Y-90600000D01*
X103000000Y-90600000D01*
G37*
G36*
X103400000Y-90600000D02*
G01*
X103400000Y-90200000D01*
X103800000Y-90200000D01*
X103800000Y-90600000D01*
X103400000Y-90600000D01*
G37*
G36*
X104200000Y-90600000D02*
G01*
X104200000Y-90200000D01*
X104600000Y-90200000D01*
X104600000Y-90600000D01*
X104200000Y-90600000D01*
G37*
G36*
X104600000Y-90600000D02*
G01*
X104600000Y-90200000D01*
X105000000Y-90200000D01*
X105000000Y-90600000D01*
X104600000Y-90600000D01*
G37*
G36*
X105000000Y-90600000D02*
G01*
X105000000Y-90200000D01*
X105400000Y-90200000D01*
X105400000Y-90600000D01*
X105000000Y-90600000D01*
G37*
G36*
X105400000Y-90600000D02*
G01*
X105400000Y-90200000D01*
X105800000Y-90200000D01*
X105800000Y-90600000D01*
X105400000Y-90600000D01*
G37*
G36*
X105800000Y-90600000D02*
G01*
X105800000Y-90200000D01*
X106200000Y-90200000D01*
X106200000Y-90600000D01*
X105800000Y-90600000D01*
G37*
G36*
X106600000Y-90600000D02*
G01*
X106600000Y-90200000D01*
X107000000Y-90200000D01*
X107000000Y-90600000D01*
X106600000Y-90600000D01*
G37*
G36*
X107000000Y-90600000D02*
G01*
X107000000Y-90200000D01*
X107400000Y-90200000D01*
X107400000Y-90600000D01*
X107000000Y-90600000D01*
G37*
G36*
X92600000Y-90200000D02*
G01*
X92600000Y-89800000D01*
X93000000Y-89800000D01*
X93000000Y-90200000D01*
X92600000Y-90200000D01*
G37*
G36*
X93000000Y-90200000D02*
G01*
X93000000Y-89800000D01*
X93400000Y-89800000D01*
X93400000Y-90200000D01*
X93000000Y-90200000D01*
G37*
G36*
X93400000Y-90200000D02*
G01*
X93400000Y-89800000D01*
X93800000Y-89800000D01*
X93800000Y-90200000D01*
X93400000Y-90200000D01*
G37*
G36*
X93800000Y-90200000D02*
G01*
X93800000Y-89800000D01*
X94200000Y-89800000D01*
X94200000Y-90200000D01*
X93800000Y-90200000D01*
G37*
G36*
X94200000Y-90200000D02*
G01*
X94200000Y-89800000D01*
X94600000Y-89800000D01*
X94600000Y-90200000D01*
X94200000Y-90200000D01*
G37*
G36*
X95400000Y-90200000D02*
G01*
X95400000Y-89800000D01*
X95800000Y-89800000D01*
X95800000Y-90200000D01*
X95400000Y-90200000D01*
G37*
G36*
X96200000Y-90200000D02*
G01*
X96200000Y-89800000D01*
X96600000Y-89800000D01*
X96600000Y-90200000D01*
X96200000Y-90200000D01*
G37*
G36*
X97000000Y-90200000D02*
G01*
X97000000Y-89800000D01*
X97400000Y-89800000D01*
X97400000Y-90200000D01*
X97000000Y-90200000D01*
G37*
G36*
X97400000Y-90200000D02*
G01*
X97400000Y-89800000D01*
X97800000Y-89800000D01*
X97800000Y-90200000D01*
X97400000Y-90200000D01*
G37*
G36*
X97800000Y-90200000D02*
G01*
X97800000Y-89800000D01*
X98200000Y-89800000D01*
X98200000Y-90200000D01*
X97800000Y-90200000D01*
G37*
G36*
X98600000Y-90200000D02*
G01*
X98600000Y-89800000D01*
X99000000Y-89800000D01*
X99000000Y-90200000D01*
X98600000Y-90200000D01*
G37*
G36*
X99400000Y-90200000D02*
G01*
X99400000Y-89800000D01*
X99800000Y-89800000D01*
X99800000Y-90200000D01*
X99400000Y-90200000D01*
G37*
G36*
X99800000Y-90200000D02*
G01*
X99800000Y-89800000D01*
X100200000Y-89800000D01*
X100200000Y-90200000D01*
X99800000Y-90200000D01*
G37*
G36*
X100600000Y-90200000D02*
G01*
X100600000Y-89800000D01*
X101000000Y-89800000D01*
X101000000Y-90200000D01*
X100600000Y-90200000D01*
G37*
G36*
X101000000Y-90200000D02*
G01*
X101000000Y-89800000D01*
X101400000Y-89800000D01*
X101400000Y-90200000D01*
X101000000Y-90200000D01*
G37*
G36*
X101400000Y-90200000D02*
G01*
X101400000Y-89800000D01*
X101800000Y-89800000D01*
X101800000Y-90200000D01*
X101400000Y-90200000D01*
G37*
G36*
X101800000Y-90200000D02*
G01*
X101800000Y-89800000D01*
X102200000Y-89800000D01*
X102200000Y-90200000D01*
X101800000Y-90200000D01*
G37*
G36*
X102200000Y-90200000D02*
G01*
X102200000Y-89800000D01*
X102600000Y-89800000D01*
X102600000Y-90200000D01*
X102200000Y-90200000D01*
G37*
G36*
X102600000Y-90200000D02*
G01*
X102600000Y-89800000D01*
X103000000Y-89800000D01*
X103000000Y-90200000D01*
X102600000Y-90200000D01*
G37*
G36*
X103400000Y-90200000D02*
G01*
X103400000Y-89800000D01*
X103800000Y-89800000D01*
X103800000Y-90200000D01*
X103400000Y-90200000D01*
G37*
G36*
X106600000Y-90200000D02*
G01*
X106600000Y-89800000D01*
X107000000Y-89800000D01*
X107000000Y-90200000D01*
X106600000Y-90200000D01*
G37*
G36*
X107000000Y-90200000D02*
G01*
X107000000Y-89800000D01*
X107400000Y-89800000D01*
X107400000Y-90200000D01*
X107000000Y-90200000D01*
G37*
G36*
X92600000Y-89800000D02*
G01*
X92600000Y-89400000D01*
X93000000Y-89400000D01*
X93000000Y-89800000D01*
X92600000Y-89800000D01*
G37*
G36*
X93000000Y-89800000D02*
G01*
X93000000Y-89400000D01*
X93400000Y-89400000D01*
X93400000Y-89800000D01*
X93000000Y-89800000D01*
G37*
G36*
X93400000Y-89800000D02*
G01*
X93400000Y-89400000D01*
X93800000Y-89400000D01*
X93800000Y-89800000D01*
X93400000Y-89800000D01*
G37*
G36*
X94600000Y-89800000D02*
G01*
X94600000Y-89400000D01*
X95000000Y-89400000D01*
X95000000Y-89800000D01*
X94600000Y-89800000D01*
G37*
G36*
X95400000Y-89800000D02*
G01*
X95400000Y-89400000D01*
X95800000Y-89400000D01*
X95800000Y-89800000D01*
X95400000Y-89800000D01*
G37*
G36*
X95800000Y-89800000D02*
G01*
X95800000Y-89400000D01*
X96200000Y-89400000D01*
X96200000Y-89800000D01*
X95800000Y-89800000D01*
G37*
G36*
X96200000Y-89800000D02*
G01*
X96200000Y-89400000D01*
X96600000Y-89400000D01*
X96600000Y-89800000D01*
X96200000Y-89800000D01*
G37*
G36*
X97400000Y-89800000D02*
G01*
X97400000Y-89400000D01*
X97800000Y-89400000D01*
X97800000Y-89800000D01*
X97400000Y-89800000D01*
G37*
G36*
X98600000Y-89800000D02*
G01*
X98600000Y-89400000D01*
X99000000Y-89400000D01*
X99000000Y-89800000D01*
X98600000Y-89800000D01*
G37*
G36*
X101800000Y-89800000D02*
G01*
X101800000Y-89400000D01*
X102200000Y-89400000D01*
X102200000Y-89800000D01*
X101800000Y-89800000D01*
G37*
G36*
X103400000Y-89800000D02*
G01*
X103400000Y-89400000D01*
X103800000Y-89400000D01*
X103800000Y-89800000D01*
X103400000Y-89800000D01*
G37*
G36*
X103800000Y-89800000D02*
G01*
X103800000Y-89400000D01*
X104200000Y-89400000D01*
X104200000Y-89800000D01*
X103800000Y-89800000D01*
G37*
G36*
X104200000Y-89800000D02*
G01*
X104200000Y-89400000D01*
X104600000Y-89400000D01*
X104600000Y-89800000D01*
X104200000Y-89800000D01*
G37*
G36*
X104600000Y-89800000D02*
G01*
X104600000Y-89400000D01*
X105000000Y-89400000D01*
X105000000Y-89800000D01*
X104600000Y-89800000D01*
G37*
G36*
X105000000Y-89800000D02*
G01*
X105000000Y-89400000D01*
X105400000Y-89400000D01*
X105400000Y-89800000D01*
X105000000Y-89800000D01*
G37*
G36*
X105400000Y-89800000D02*
G01*
X105400000Y-89400000D01*
X105800000Y-89400000D01*
X105800000Y-89800000D01*
X105400000Y-89800000D01*
G37*
G36*
X105800000Y-89800000D02*
G01*
X105800000Y-89400000D01*
X106200000Y-89400000D01*
X106200000Y-89800000D01*
X105800000Y-89800000D01*
G37*
G36*
X106200000Y-89800000D02*
G01*
X106200000Y-89400000D01*
X106600000Y-89400000D01*
X106600000Y-89800000D01*
X106200000Y-89800000D01*
G37*
G36*
X106600000Y-89800000D02*
G01*
X106600000Y-89400000D01*
X107000000Y-89400000D01*
X107000000Y-89800000D01*
X106600000Y-89800000D01*
G37*
G36*
X107000000Y-89800000D02*
G01*
X107000000Y-89400000D01*
X107400000Y-89400000D01*
X107400000Y-89800000D01*
X107000000Y-89800000D01*
G37*
G36*
X92600000Y-89400000D02*
G01*
X92600000Y-89000000D01*
X93000000Y-89000000D01*
X93000000Y-89400000D01*
X92600000Y-89400000D01*
G37*
G36*
X93000000Y-89400000D02*
G01*
X93000000Y-89000000D01*
X93400000Y-89000000D01*
X93400000Y-89400000D01*
X93000000Y-89400000D01*
G37*
G36*
X93800000Y-89400000D02*
G01*
X93800000Y-89000000D01*
X94200000Y-89000000D01*
X94200000Y-89400000D01*
X93800000Y-89400000D01*
G37*
G36*
X94200000Y-89400000D02*
G01*
X94200000Y-89000000D01*
X94600000Y-89000000D01*
X94600000Y-89400000D01*
X94200000Y-89400000D01*
G37*
G36*
X98600000Y-89400000D02*
G01*
X98600000Y-89000000D01*
X99000000Y-89000000D01*
X99000000Y-89400000D01*
X98600000Y-89400000D01*
G37*
G36*
X99000000Y-89400000D02*
G01*
X99000000Y-89000000D01*
X99400000Y-89000000D01*
X99400000Y-89400000D01*
X99000000Y-89400000D01*
G37*
G36*
X99800000Y-89400000D02*
G01*
X99800000Y-89000000D01*
X100200000Y-89000000D01*
X100200000Y-89400000D01*
X99800000Y-89400000D01*
G37*
G36*
X101000000Y-89400000D02*
G01*
X101000000Y-89000000D01*
X101400000Y-89000000D01*
X101400000Y-89400000D01*
X101000000Y-89400000D01*
G37*
G36*
X101400000Y-89400000D02*
G01*
X101400000Y-89000000D01*
X101800000Y-89000000D01*
X101800000Y-89400000D01*
X101400000Y-89400000D01*
G37*
G36*
X102200000Y-89400000D02*
G01*
X102200000Y-89000000D01*
X102600000Y-89000000D01*
X102600000Y-89400000D01*
X102200000Y-89400000D01*
G37*
G36*
X102600000Y-89400000D02*
G01*
X102600000Y-89000000D01*
X103000000Y-89000000D01*
X103000000Y-89400000D01*
X102600000Y-89400000D01*
G37*
G36*
X103000000Y-89400000D02*
G01*
X103000000Y-89000000D01*
X103400000Y-89000000D01*
X103400000Y-89400000D01*
X103000000Y-89400000D01*
G37*
G36*
X104600000Y-89400000D02*
G01*
X104600000Y-89000000D01*
X105000000Y-89000000D01*
X105000000Y-89400000D01*
X104600000Y-89400000D01*
G37*
G36*
X105400000Y-89400000D02*
G01*
X105400000Y-89000000D01*
X105800000Y-89000000D01*
X105800000Y-89400000D01*
X105400000Y-89400000D01*
G37*
G36*
X106600000Y-89400000D02*
G01*
X106600000Y-89000000D01*
X107000000Y-89000000D01*
X107000000Y-89400000D01*
X106600000Y-89400000D01*
G37*
G36*
X107000000Y-89400000D02*
G01*
X107000000Y-89000000D01*
X107400000Y-89000000D01*
X107400000Y-89400000D01*
X107000000Y-89400000D01*
G37*
G36*
X92600000Y-89000000D02*
G01*
X92600000Y-88600000D01*
X93000000Y-88600000D01*
X93000000Y-89000000D01*
X92600000Y-89000000D01*
G37*
G36*
X93000000Y-89000000D02*
G01*
X93000000Y-88600000D01*
X93400000Y-88600000D01*
X93400000Y-89000000D01*
X93000000Y-89000000D01*
G37*
G36*
X94200000Y-89000000D02*
G01*
X94200000Y-88600000D01*
X94600000Y-88600000D01*
X94600000Y-89000000D01*
X94200000Y-89000000D01*
G37*
G36*
X94600000Y-89000000D02*
G01*
X94600000Y-88600000D01*
X95000000Y-88600000D01*
X95000000Y-89000000D01*
X94600000Y-89000000D01*
G37*
G36*
X95000000Y-89000000D02*
G01*
X95000000Y-88600000D01*
X95400000Y-88600000D01*
X95400000Y-89000000D01*
X95000000Y-89000000D01*
G37*
G36*
X97000000Y-89000000D02*
G01*
X97000000Y-88600000D01*
X97400000Y-88600000D01*
X97400000Y-89000000D01*
X97000000Y-89000000D01*
G37*
G36*
X97400000Y-89000000D02*
G01*
X97400000Y-88600000D01*
X97800000Y-88600000D01*
X97800000Y-89000000D01*
X97400000Y-89000000D01*
G37*
G36*
X99800000Y-89000000D02*
G01*
X99800000Y-88600000D01*
X100200000Y-88600000D01*
X100200000Y-89000000D01*
X99800000Y-89000000D01*
G37*
G36*
X100200000Y-89000000D02*
G01*
X100200000Y-88600000D01*
X100600000Y-88600000D01*
X100600000Y-89000000D01*
X100200000Y-89000000D01*
G37*
G36*
X101400000Y-89000000D02*
G01*
X101400000Y-88600000D01*
X101800000Y-88600000D01*
X101800000Y-89000000D01*
X101400000Y-89000000D01*
G37*
G36*
X101800000Y-89000000D02*
G01*
X101800000Y-88600000D01*
X102200000Y-88600000D01*
X102200000Y-89000000D01*
X101800000Y-89000000D01*
G37*
G36*
X102600000Y-89000000D02*
G01*
X102600000Y-88600000D01*
X103000000Y-88600000D01*
X103000000Y-89000000D01*
X102600000Y-89000000D01*
G37*
G36*
X103000000Y-89000000D02*
G01*
X103000000Y-88600000D01*
X103400000Y-88600000D01*
X103400000Y-89000000D01*
X103000000Y-89000000D01*
G37*
G36*
X103800000Y-89000000D02*
G01*
X103800000Y-88600000D01*
X104200000Y-88600000D01*
X104200000Y-89000000D01*
X103800000Y-89000000D01*
G37*
G36*
X105000000Y-89000000D02*
G01*
X105000000Y-88600000D01*
X105400000Y-88600000D01*
X105400000Y-89000000D01*
X105000000Y-89000000D01*
G37*
G36*
X105800000Y-89000000D02*
G01*
X105800000Y-88600000D01*
X106200000Y-88600000D01*
X106200000Y-89000000D01*
X105800000Y-89000000D01*
G37*
G36*
X106200000Y-89000000D02*
G01*
X106200000Y-88600000D01*
X106600000Y-88600000D01*
X106600000Y-89000000D01*
X106200000Y-89000000D01*
G37*
G36*
X106600000Y-89000000D02*
G01*
X106600000Y-88600000D01*
X107000000Y-88600000D01*
X107000000Y-89000000D01*
X106600000Y-89000000D01*
G37*
G36*
X107000000Y-89000000D02*
G01*
X107000000Y-88600000D01*
X107400000Y-88600000D01*
X107400000Y-89000000D01*
X107000000Y-89000000D01*
G37*
G36*
X92600000Y-88600000D02*
G01*
X92600000Y-88200000D01*
X93000000Y-88200000D01*
X93000000Y-88600000D01*
X92600000Y-88600000D01*
G37*
G36*
X93000000Y-88600000D02*
G01*
X93000000Y-88200000D01*
X93400000Y-88200000D01*
X93400000Y-88600000D01*
X93000000Y-88600000D01*
G37*
G36*
X93400000Y-88600000D02*
G01*
X93400000Y-88200000D01*
X93800000Y-88200000D01*
X93800000Y-88600000D01*
X93400000Y-88600000D01*
G37*
G36*
X94200000Y-88600000D02*
G01*
X94200000Y-88200000D01*
X94600000Y-88200000D01*
X94600000Y-88600000D01*
X94200000Y-88600000D01*
G37*
G36*
X94600000Y-88600000D02*
G01*
X94600000Y-88200000D01*
X95000000Y-88200000D01*
X95000000Y-88600000D01*
X94600000Y-88600000D01*
G37*
G36*
X95400000Y-88600000D02*
G01*
X95400000Y-88200000D01*
X95800000Y-88200000D01*
X95800000Y-88600000D01*
X95400000Y-88600000D01*
G37*
G36*
X95800000Y-88600000D02*
G01*
X95800000Y-88200000D01*
X96200000Y-88200000D01*
X96200000Y-88600000D01*
X95800000Y-88600000D01*
G37*
G36*
X96600000Y-88600000D02*
G01*
X96600000Y-88200000D01*
X97000000Y-88200000D01*
X97000000Y-88600000D01*
X96600000Y-88600000D01*
G37*
G36*
X97000000Y-88600000D02*
G01*
X97000000Y-88200000D01*
X97400000Y-88200000D01*
X97400000Y-88600000D01*
X97000000Y-88600000D01*
G37*
G36*
X97800000Y-88600000D02*
G01*
X97800000Y-88200000D01*
X98200000Y-88200000D01*
X98200000Y-88600000D01*
X97800000Y-88600000D01*
G37*
G36*
X98200000Y-88600000D02*
G01*
X98200000Y-88200000D01*
X98600000Y-88200000D01*
X98600000Y-88600000D01*
X98200000Y-88600000D01*
G37*
G36*
X99400000Y-88600000D02*
G01*
X99400000Y-88200000D01*
X99800000Y-88200000D01*
X99800000Y-88600000D01*
X99400000Y-88600000D01*
G37*
G36*
X100200000Y-88600000D02*
G01*
X100200000Y-88200000D01*
X100600000Y-88200000D01*
X100600000Y-88600000D01*
X100200000Y-88600000D01*
G37*
G36*
X101000000Y-88600000D02*
G01*
X101000000Y-88200000D01*
X101400000Y-88200000D01*
X101400000Y-88600000D01*
X101000000Y-88600000D01*
G37*
G36*
X101400000Y-88600000D02*
G01*
X101400000Y-88200000D01*
X101800000Y-88200000D01*
X101800000Y-88600000D01*
X101400000Y-88600000D01*
G37*
G36*
X103400000Y-88600000D02*
G01*
X103400000Y-88200000D01*
X103800000Y-88200000D01*
X103800000Y-88600000D01*
X103400000Y-88600000D01*
G37*
G36*
X104200000Y-88600000D02*
G01*
X104200000Y-88200000D01*
X104600000Y-88200000D01*
X104600000Y-88600000D01*
X104200000Y-88600000D01*
G37*
G36*
X104600000Y-88600000D02*
G01*
X104600000Y-88200000D01*
X105000000Y-88200000D01*
X105000000Y-88600000D01*
X104600000Y-88600000D01*
G37*
G36*
X105400000Y-88600000D02*
G01*
X105400000Y-88200000D01*
X105800000Y-88200000D01*
X105800000Y-88600000D01*
X105400000Y-88600000D01*
G37*
G36*
X105800000Y-88600000D02*
G01*
X105800000Y-88200000D01*
X106200000Y-88200000D01*
X106200000Y-88600000D01*
X105800000Y-88600000D01*
G37*
G36*
X106200000Y-88600000D02*
G01*
X106200000Y-88200000D01*
X106600000Y-88200000D01*
X106600000Y-88600000D01*
X106200000Y-88600000D01*
G37*
G36*
X106600000Y-88600000D02*
G01*
X106600000Y-88200000D01*
X107000000Y-88200000D01*
X107000000Y-88600000D01*
X106600000Y-88600000D01*
G37*
G36*
X107000000Y-88600000D02*
G01*
X107000000Y-88200000D01*
X107400000Y-88200000D01*
X107400000Y-88600000D01*
X107000000Y-88600000D01*
G37*
G36*
X92600000Y-88200000D02*
G01*
X92600000Y-87800000D01*
X93000000Y-87800000D01*
X93000000Y-88200000D01*
X92600000Y-88200000D01*
G37*
G36*
X93000000Y-88200000D02*
G01*
X93000000Y-87800000D01*
X93400000Y-87800000D01*
X93400000Y-88200000D01*
X93000000Y-88200000D01*
G37*
G36*
X93400000Y-88200000D02*
G01*
X93400000Y-87800000D01*
X93800000Y-87800000D01*
X93800000Y-88200000D01*
X93400000Y-88200000D01*
G37*
G36*
X94600000Y-88200000D02*
G01*
X94600000Y-87800000D01*
X95000000Y-87800000D01*
X95000000Y-88200000D01*
X94600000Y-88200000D01*
G37*
G36*
X95000000Y-88200000D02*
G01*
X95000000Y-87800000D01*
X95400000Y-87800000D01*
X95400000Y-88200000D01*
X95000000Y-88200000D01*
G37*
G36*
X96600000Y-88200000D02*
G01*
X96600000Y-87800000D01*
X97000000Y-87800000D01*
X97000000Y-88200000D01*
X96600000Y-88200000D01*
G37*
G36*
X97000000Y-88200000D02*
G01*
X97000000Y-87800000D01*
X97400000Y-87800000D01*
X97400000Y-88200000D01*
X97000000Y-88200000D01*
G37*
G36*
X97800000Y-88200000D02*
G01*
X97800000Y-87800000D01*
X98200000Y-87800000D01*
X98200000Y-88200000D01*
X97800000Y-88200000D01*
G37*
G36*
X98200000Y-88200000D02*
G01*
X98200000Y-87800000D01*
X98600000Y-87800000D01*
X98600000Y-88200000D01*
X98200000Y-88200000D01*
G37*
G36*
X99000000Y-88200000D02*
G01*
X99000000Y-87800000D01*
X99400000Y-87800000D01*
X99400000Y-88200000D01*
X99000000Y-88200000D01*
G37*
G36*
X100200000Y-88200000D02*
G01*
X100200000Y-87800000D01*
X100600000Y-87800000D01*
X100600000Y-88200000D01*
X100200000Y-88200000D01*
G37*
G36*
X100600000Y-88200000D02*
G01*
X100600000Y-87800000D01*
X101000000Y-87800000D01*
X101000000Y-88200000D01*
X100600000Y-88200000D01*
G37*
G36*
X101400000Y-88200000D02*
G01*
X101400000Y-87800000D01*
X101800000Y-87800000D01*
X101800000Y-88200000D01*
X101400000Y-88200000D01*
G37*
G36*
X102200000Y-88200000D02*
G01*
X102200000Y-87800000D01*
X102600000Y-87800000D01*
X102600000Y-88200000D01*
X102200000Y-88200000D01*
G37*
G36*
X103800000Y-88200000D02*
G01*
X103800000Y-87800000D01*
X104200000Y-87800000D01*
X104200000Y-88200000D01*
X103800000Y-88200000D01*
G37*
G36*
X104200000Y-88200000D02*
G01*
X104200000Y-87800000D01*
X104600000Y-87800000D01*
X104600000Y-88200000D01*
X104200000Y-88200000D01*
G37*
G36*
X104600000Y-88200000D02*
G01*
X104600000Y-87800000D01*
X105000000Y-87800000D01*
X105000000Y-88200000D01*
X104600000Y-88200000D01*
G37*
G36*
X105400000Y-88200000D02*
G01*
X105400000Y-87800000D01*
X105800000Y-87800000D01*
X105800000Y-88200000D01*
X105400000Y-88200000D01*
G37*
G36*
X106600000Y-88200000D02*
G01*
X106600000Y-87800000D01*
X107000000Y-87800000D01*
X107000000Y-88200000D01*
X106600000Y-88200000D01*
G37*
G36*
X107000000Y-88200000D02*
G01*
X107000000Y-87800000D01*
X107400000Y-87800000D01*
X107400000Y-88200000D01*
X107000000Y-88200000D01*
G37*
G36*
X92600000Y-87800000D02*
G01*
X92600000Y-87400000D01*
X93000000Y-87400000D01*
X93000000Y-87800000D01*
X92600000Y-87800000D01*
G37*
G36*
X93000000Y-87800000D02*
G01*
X93000000Y-87400000D01*
X93400000Y-87400000D01*
X93400000Y-87800000D01*
X93000000Y-87800000D01*
G37*
G36*
X93400000Y-87800000D02*
G01*
X93400000Y-87400000D01*
X93800000Y-87400000D01*
X93800000Y-87800000D01*
X93400000Y-87800000D01*
G37*
G36*
X93800000Y-87800000D02*
G01*
X93800000Y-87400000D01*
X94200000Y-87400000D01*
X94200000Y-87800000D01*
X93800000Y-87800000D01*
G37*
G36*
X94200000Y-87800000D02*
G01*
X94200000Y-87400000D01*
X94600000Y-87400000D01*
X94600000Y-87800000D01*
X94200000Y-87800000D01*
G37*
G36*
X95400000Y-87800000D02*
G01*
X95400000Y-87400000D01*
X95800000Y-87400000D01*
X95800000Y-87800000D01*
X95400000Y-87800000D01*
G37*
G36*
X95800000Y-87800000D02*
G01*
X95800000Y-87400000D01*
X96200000Y-87400000D01*
X96200000Y-87800000D01*
X95800000Y-87800000D01*
G37*
G36*
X96200000Y-87800000D02*
G01*
X96200000Y-87400000D01*
X96600000Y-87400000D01*
X96600000Y-87800000D01*
X96200000Y-87800000D01*
G37*
G36*
X97000000Y-87800000D02*
G01*
X97000000Y-87400000D01*
X97400000Y-87400000D01*
X97400000Y-87800000D01*
X97000000Y-87800000D01*
G37*
G36*
X97400000Y-87800000D02*
G01*
X97400000Y-87400000D01*
X97800000Y-87400000D01*
X97800000Y-87800000D01*
X97400000Y-87800000D01*
G37*
G36*
X97800000Y-87800000D02*
G01*
X97800000Y-87400000D01*
X98200000Y-87400000D01*
X98200000Y-87800000D01*
X97800000Y-87800000D01*
G37*
G36*
X98600000Y-87800000D02*
G01*
X98600000Y-87400000D01*
X99000000Y-87400000D01*
X99000000Y-87800000D01*
X98600000Y-87800000D01*
G37*
G36*
X99400000Y-87800000D02*
G01*
X99400000Y-87400000D01*
X99800000Y-87400000D01*
X99800000Y-87800000D01*
X99400000Y-87800000D01*
G37*
G36*
X99800000Y-87800000D02*
G01*
X99800000Y-87400000D01*
X100200000Y-87400000D01*
X100200000Y-87800000D01*
X99800000Y-87800000D01*
G37*
G36*
X100600000Y-87800000D02*
G01*
X100600000Y-87400000D01*
X101000000Y-87400000D01*
X101000000Y-87800000D01*
X100600000Y-87800000D01*
G37*
G36*
X101800000Y-87800000D02*
G01*
X101800000Y-87400000D01*
X102200000Y-87400000D01*
X102200000Y-87800000D01*
X101800000Y-87800000D01*
G37*
G36*
X102200000Y-87800000D02*
G01*
X102200000Y-87400000D01*
X102600000Y-87400000D01*
X102600000Y-87800000D01*
X102200000Y-87800000D01*
G37*
G36*
X102600000Y-87800000D02*
G01*
X102600000Y-87400000D01*
X103000000Y-87400000D01*
X103000000Y-87800000D01*
X102600000Y-87800000D01*
G37*
G36*
X103000000Y-87800000D02*
G01*
X103000000Y-87400000D01*
X103400000Y-87400000D01*
X103400000Y-87800000D01*
X103000000Y-87800000D01*
G37*
G36*
X104200000Y-87800000D02*
G01*
X104200000Y-87400000D01*
X104600000Y-87400000D01*
X104600000Y-87800000D01*
X104200000Y-87800000D01*
G37*
G36*
X104600000Y-87800000D02*
G01*
X104600000Y-87400000D01*
X105000000Y-87400000D01*
X105000000Y-87800000D01*
X104600000Y-87800000D01*
G37*
G36*
X105000000Y-87800000D02*
G01*
X105000000Y-87400000D01*
X105400000Y-87400000D01*
X105400000Y-87800000D01*
X105000000Y-87800000D01*
G37*
G36*
X105800000Y-87800000D02*
G01*
X105800000Y-87400000D01*
X106200000Y-87400000D01*
X106200000Y-87800000D01*
X105800000Y-87800000D01*
G37*
G36*
X106600000Y-87800000D02*
G01*
X106600000Y-87400000D01*
X107000000Y-87400000D01*
X107000000Y-87800000D01*
X106600000Y-87800000D01*
G37*
G36*
X107000000Y-87800000D02*
G01*
X107000000Y-87400000D01*
X107400000Y-87400000D01*
X107400000Y-87800000D01*
X107000000Y-87800000D01*
G37*
G36*
X92600000Y-87400000D02*
G01*
X92600000Y-87000000D01*
X93000000Y-87000000D01*
X93000000Y-87400000D01*
X92600000Y-87400000D01*
G37*
G36*
X93000000Y-87400000D02*
G01*
X93000000Y-87000000D01*
X93400000Y-87000000D01*
X93400000Y-87400000D01*
X93000000Y-87400000D01*
G37*
G36*
X94200000Y-87400000D02*
G01*
X94200000Y-87000000D01*
X94600000Y-87000000D01*
X94600000Y-87400000D01*
X94200000Y-87400000D01*
G37*
G36*
X94600000Y-87400000D02*
G01*
X94600000Y-87000000D01*
X95000000Y-87000000D01*
X95000000Y-87400000D01*
X94600000Y-87400000D01*
G37*
G36*
X95000000Y-87400000D02*
G01*
X95000000Y-87000000D01*
X95400000Y-87000000D01*
X95400000Y-87400000D01*
X95000000Y-87400000D01*
G37*
G36*
X96200000Y-87400000D02*
G01*
X96200000Y-87000000D01*
X96600000Y-87000000D01*
X96600000Y-87400000D01*
X96200000Y-87400000D01*
G37*
G36*
X97400000Y-87400000D02*
G01*
X97400000Y-87000000D01*
X97800000Y-87000000D01*
X97800000Y-87400000D01*
X97400000Y-87400000D01*
G37*
G36*
X99800000Y-87400000D02*
G01*
X99800000Y-87000000D01*
X100200000Y-87000000D01*
X100200000Y-87400000D01*
X99800000Y-87400000D01*
G37*
G36*
X100200000Y-87400000D02*
G01*
X100200000Y-87000000D01*
X100600000Y-87000000D01*
X100600000Y-87400000D01*
X100200000Y-87400000D01*
G37*
G36*
X103800000Y-87400000D02*
G01*
X103800000Y-87000000D01*
X104200000Y-87000000D01*
X104200000Y-87400000D01*
X103800000Y-87400000D01*
G37*
G36*
X104600000Y-87400000D02*
G01*
X104600000Y-87000000D01*
X105000000Y-87000000D01*
X105000000Y-87400000D01*
X104600000Y-87400000D01*
G37*
G36*
X105800000Y-87400000D02*
G01*
X105800000Y-87000000D01*
X106200000Y-87000000D01*
X106200000Y-87400000D01*
X105800000Y-87400000D01*
G37*
G36*
X106200000Y-87400000D02*
G01*
X106200000Y-87000000D01*
X106600000Y-87000000D01*
X106600000Y-87400000D01*
X106200000Y-87400000D01*
G37*
G36*
X106600000Y-87400000D02*
G01*
X106600000Y-87000000D01*
X107000000Y-87000000D01*
X107000000Y-87400000D01*
X106600000Y-87400000D01*
G37*
G36*
X107000000Y-87400000D02*
G01*
X107000000Y-87000000D01*
X107400000Y-87000000D01*
X107400000Y-87400000D01*
X107000000Y-87400000D01*
G37*
G36*
X92600000Y-87000000D02*
G01*
X92600000Y-86600000D01*
X93000000Y-86600000D01*
X93000000Y-87000000D01*
X92600000Y-87000000D01*
G37*
G36*
X93000000Y-87000000D02*
G01*
X93000000Y-86600000D01*
X93400000Y-86600000D01*
X93400000Y-87000000D01*
X93000000Y-87000000D01*
G37*
G36*
X93400000Y-87000000D02*
G01*
X93400000Y-86600000D01*
X93800000Y-86600000D01*
X93800000Y-87000000D01*
X93400000Y-87000000D01*
G37*
G36*
X94200000Y-87000000D02*
G01*
X94200000Y-86600000D01*
X94600000Y-86600000D01*
X94600000Y-87000000D01*
X94200000Y-87000000D01*
G37*
G36*
X95000000Y-87000000D02*
G01*
X95000000Y-86600000D01*
X95400000Y-86600000D01*
X95400000Y-87000000D01*
X95000000Y-87000000D01*
G37*
G36*
X96600000Y-87000000D02*
G01*
X96600000Y-86600000D01*
X97000000Y-86600000D01*
X97000000Y-87000000D01*
X96600000Y-87000000D01*
G37*
G36*
X98600000Y-87000000D02*
G01*
X98600000Y-86600000D01*
X99000000Y-86600000D01*
X99000000Y-87000000D01*
X98600000Y-87000000D01*
G37*
G36*
X99000000Y-87000000D02*
G01*
X99000000Y-86600000D01*
X99400000Y-86600000D01*
X99400000Y-87000000D01*
X99000000Y-87000000D01*
G37*
G36*
X102200000Y-87000000D02*
G01*
X102200000Y-86600000D01*
X102600000Y-86600000D01*
X102600000Y-87000000D01*
X102200000Y-87000000D01*
G37*
G36*
X103000000Y-87000000D02*
G01*
X103000000Y-86600000D01*
X103400000Y-86600000D01*
X103400000Y-87000000D01*
X103000000Y-87000000D01*
G37*
G36*
X104200000Y-87000000D02*
G01*
X104200000Y-86600000D01*
X104600000Y-86600000D01*
X104600000Y-87000000D01*
X104200000Y-87000000D01*
G37*
G36*
X105000000Y-87000000D02*
G01*
X105000000Y-86600000D01*
X105400000Y-86600000D01*
X105400000Y-87000000D01*
X105000000Y-87000000D01*
G37*
G36*
X106200000Y-87000000D02*
G01*
X106200000Y-86600000D01*
X106600000Y-86600000D01*
X106600000Y-87000000D01*
X106200000Y-87000000D01*
G37*
G36*
X106600000Y-87000000D02*
G01*
X106600000Y-86600000D01*
X107000000Y-86600000D01*
X107000000Y-87000000D01*
X106600000Y-87000000D01*
G37*
G36*
X107000000Y-87000000D02*
G01*
X107000000Y-86600000D01*
X107400000Y-86600000D01*
X107400000Y-87000000D01*
X107000000Y-87000000D01*
G37*
G36*
X92600000Y-86600000D02*
G01*
X92600000Y-86200000D01*
X93000000Y-86200000D01*
X93000000Y-86600000D01*
X92600000Y-86600000D01*
G37*
G36*
X93000000Y-86600000D02*
G01*
X93000000Y-86200000D01*
X93400000Y-86200000D01*
X93400000Y-86600000D01*
X93000000Y-86600000D01*
G37*
G36*
X93400000Y-86600000D02*
G01*
X93400000Y-86200000D01*
X93800000Y-86200000D01*
X93800000Y-86600000D01*
X93400000Y-86600000D01*
G37*
G36*
X93800000Y-86600000D02*
G01*
X93800000Y-86200000D01*
X94200000Y-86200000D01*
X94200000Y-86600000D01*
X93800000Y-86600000D01*
G37*
G36*
X95000000Y-86600000D02*
G01*
X95000000Y-86200000D01*
X95400000Y-86200000D01*
X95400000Y-86600000D01*
X95000000Y-86600000D01*
G37*
G36*
X95400000Y-86600000D02*
G01*
X95400000Y-86200000D01*
X95800000Y-86200000D01*
X95800000Y-86600000D01*
X95400000Y-86600000D01*
G37*
G36*
X95800000Y-86600000D02*
G01*
X95800000Y-86200000D01*
X96200000Y-86200000D01*
X96200000Y-86600000D01*
X95800000Y-86600000D01*
G37*
G36*
X96600000Y-86600000D02*
G01*
X96600000Y-86200000D01*
X97000000Y-86200000D01*
X97000000Y-86600000D01*
X96600000Y-86600000D01*
G37*
G36*
X97400000Y-86600000D02*
G01*
X97400000Y-86200000D01*
X97800000Y-86200000D01*
X97800000Y-86600000D01*
X97400000Y-86600000D01*
G37*
G36*
X97800000Y-86600000D02*
G01*
X97800000Y-86200000D01*
X98200000Y-86200000D01*
X98200000Y-86600000D01*
X97800000Y-86600000D01*
G37*
G36*
X98200000Y-86600000D02*
G01*
X98200000Y-86200000D01*
X98600000Y-86200000D01*
X98600000Y-86600000D01*
X98200000Y-86600000D01*
G37*
G36*
X99400000Y-86600000D02*
G01*
X99400000Y-86200000D01*
X99800000Y-86200000D01*
X99800000Y-86600000D01*
X99400000Y-86600000D01*
G37*
G36*
X100200000Y-86600000D02*
G01*
X100200000Y-86200000D01*
X100600000Y-86200000D01*
X100600000Y-86600000D01*
X100200000Y-86600000D01*
G37*
G36*
X100600000Y-86600000D02*
G01*
X100600000Y-86200000D01*
X101000000Y-86200000D01*
X101000000Y-86600000D01*
X100600000Y-86600000D01*
G37*
G36*
X101400000Y-86600000D02*
G01*
X101400000Y-86200000D01*
X101800000Y-86200000D01*
X101800000Y-86600000D01*
X101400000Y-86600000D01*
G37*
G36*
X101800000Y-86600000D02*
G01*
X101800000Y-86200000D01*
X102200000Y-86200000D01*
X102200000Y-86600000D01*
X101800000Y-86600000D01*
G37*
G36*
X102200000Y-86600000D02*
G01*
X102200000Y-86200000D01*
X102600000Y-86200000D01*
X102600000Y-86600000D01*
X102200000Y-86600000D01*
G37*
G36*
X102600000Y-86600000D02*
G01*
X102600000Y-86200000D01*
X103000000Y-86200000D01*
X103000000Y-86600000D01*
X102600000Y-86600000D01*
G37*
G36*
X103000000Y-86600000D02*
G01*
X103000000Y-86200000D01*
X103400000Y-86200000D01*
X103400000Y-86600000D01*
X103000000Y-86600000D01*
G37*
G36*
X103400000Y-86600000D02*
G01*
X103400000Y-86200000D01*
X103800000Y-86200000D01*
X103800000Y-86600000D01*
X103400000Y-86600000D01*
G37*
G36*
X103800000Y-86600000D02*
G01*
X103800000Y-86200000D01*
X104200000Y-86200000D01*
X104200000Y-86600000D01*
X103800000Y-86600000D01*
G37*
G36*
X104200000Y-86600000D02*
G01*
X104200000Y-86200000D01*
X104600000Y-86200000D01*
X104600000Y-86600000D01*
X104200000Y-86600000D01*
G37*
G36*
X106600000Y-86600000D02*
G01*
X106600000Y-86200000D01*
X107000000Y-86200000D01*
X107000000Y-86600000D01*
X106600000Y-86600000D01*
G37*
G36*
X107000000Y-86600000D02*
G01*
X107000000Y-86200000D01*
X107400000Y-86200000D01*
X107400000Y-86600000D01*
X107000000Y-86600000D01*
G37*
G36*
X92600000Y-86200000D02*
G01*
X92600000Y-85800000D01*
X93000000Y-85800000D01*
X93000000Y-86200000D01*
X92600000Y-86200000D01*
G37*
G36*
X93000000Y-86200000D02*
G01*
X93000000Y-85800000D01*
X93400000Y-85800000D01*
X93400000Y-86200000D01*
X93000000Y-86200000D01*
G37*
G36*
X93400000Y-86200000D02*
G01*
X93400000Y-85800000D01*
X93800000Y-85800000D01*
X93800000Y-86200000D01*
X93400000Y-86200000D01*
G37*
G36*
X94200000Y-86200000D02*
G01*
X94200000Y-85800000D01*
X94600000Y-85800000D01*
X94600000Y-86200000D01*
X94200000Y-86200000D01*
G37*
G36*
X94600000Y-86200000D02*
G01*
X94600000Y-85800000D01*
X95000000Y-85800000D01*
X95000000Y-86200000D01*
X94600000Y-86200000D01*
G37*
G36*
X95400000Y-86200000D02*
G01*
X95400000Y-85800000D01*
X95800000Y-85800000D01*
X95800000Y-86200000D01*
X95400000Y-86200000D01*
G37*
G36*
X96200000Y-86200000D02*
G01*
X96200000Y-85800000D01*
X96600000Y-85800000D01*
X96600000Y-86200000D01*
X96200000Y-86200000D01*
G37*
G36*
X97000000Y-86200000D02*
G01*
X97000000Y-85800000D01*
X97400000Y-85800000D01*
X97400000Y-86200000D01*
X97000000Y-86200000D01*
G37*
G36*
X99000000Y-86200000D02*
G01*
X99000000Y-85800000D01*
X99400000Y-85800000D01*
X99400000Y-86200000D01*
X99000000Y-86200000D01*
G37*
G36*
X99800000Y-86200000D02*
G01*
X99800000Y-85800000D01*
X100200000Y-85800000D01*
X100200000Y-86200000D01*
X99800000Y-86200000D01*
G37*
G36*
X100200000Y-86200000D02*
G01*
X100200000Y-85800000D01*
X100600000Y-85800000D01*
X100600000Y-86200000D01*
X100200000Y-86200000D01*
G37*
G36*
X102600000Y-86200000D02*
G01*
X102600000Y-85800000D01*
X103000000Y-85800000D01*
X103000000Y-86200000D01*
X102600000Y-86200000D01*
G37*
G36*
X103000000Y-86200000D02*
G01*
X103000000Y-85800000D01*
X103400000Y-85800000D01*
X103400000Y-86200000D01*
X103000000Y-86200000D01*
G37*
G36*
X104600000Y-86200000D02*
G01*
X104600000Y-85800000D01*
X105000000Y-85800000D01*
X105000000Y-86200000D01*
X104600000Y-86200000D01*
G37*
G36*
X105000000Y-86200000D02*
G01*
X105000000Y-85800000D01*
X105400000Y-85800000D01*
X105400000Y-86200000D01*
X105000000Y-86200000D01*
G37*
G36*
X105400000Y-86200000D02*
G01*
X105400000Y-85800000D01*
X105800000Y-85800000D01*
X105800000Y-86200000D01*
X105400000Y-86200000D01*
G37*
G36*
X106200000Y-86200000D02*
G01*
X106200000Y-85800000D01*
X106600000Y-85800000D01*
X106600000Y-86200000D01*
X106200000Y-86200000D01*
G37*
G36*
X106600000Y-86200000D02*
G01*
X106600000Y-85800000D01*
X107000000Y-85800000D01*
X107000000Y-86200000D01*
X106600000Y-86200000D01*
G37*
G36*
X107000000Y-86200000D02*
G01*
X107000000Y-85800000D01*
X107400000Y-85800000D01*
X107400000Y-86200000D01*
X107000000Y-86200000D01*
G37*
G36*
X92600000Y-85800000D02*
G01*
X92600000Y-85400000D01*
X93000000Y-85400000D01*
X93000000Y-85800000D01*
X92600000Y-85800000D01*
G37*
G36*
X93000000Y-85800000D02*
G01*
X93000000Y-85400000D01*
X93400000Y-85400000D01*
X93400000Y-85800000D01*
X93000000Y-85800000D01*
G37*
G36*
X93400000Y-85800000D02*
G01*
X93400000Y-85400000D01*
X93800000Y-85400000D01*
X93800000Y-85800000D01*
X93400000Y-85800000D01*
G37*
G36*
X93800000Y-85800000D02*
G01*
X93800000Y-85400000D01*
X94200000Y-85400000D01*
X94200000Y-85800000D01*
X93800000Y-85800000D01*
G37*
G36*
X94200000Y-85800000D02*
G01*
X94200000Y-85400000D01*
X94600000Y-85400000D01*
X94600000Y-85800000D01*
X94200000Y-85800000D01*
G37*
G36*
X94600000Y-85800000D02*
G01*
X94600000Y-85400000D01*
X95000000Y-85400000D01*
X95000000Y-85800000D01*
X94600000Y-85800000D01*
G37*
G36*
X95000000Y-85800000D02*
G01*
X95000000Y-85400000D01*
X95400000Y-85400000D01*
X95400000Y-85800000D01*
X95000000Y-85800000D01*
G37*
G36*
X95400000Y-85800000D02*
G01*
X95400000Y-85400000D01*
X95800000Y-85400000D01*
X95800000Y-85800000D01*
X95400000Y-85800000D01*
G37*
G36*
X96600000Y-85800000D02*
G01*
X96600000Y-85400000D01*
X97000000Y-85400000D01*
X97000000Y-85800000D01*
X96600000Y-85800000D01*
G37*
G36*
X98200000Y-85800000D02*
G01*
X98200000Y-85400000D01*
X98600000Y-85400000D01*
X98600000Y-85800000D01*
X98200000Y-85800000D01*
G37*
G36*
X98600000Y-85800000D02*
G01*
X98600000Y-85400000D01*
X99000000Y-85400000D01*
X99000000Y-85800000D01*
X98600000Y-85800000D01*
G37*
G36*
X100600000Y-85800000D02*
G01*
X100600000Y-85400000D01*
X101000000Y-85400000D01*
X101000000Y-85800000D01*
X100600000Y-85800000D01*
G37*
G36*
X102600000Y-85800000D02*
G01*
X102600000Y-85400000D01*
X103000000Y-85400000D01*
X103000000Y-85800000D01*
X102600000Y-85800000D01*
G37*
G36*
X103000000Y-85800000D02*
G01*
X103000000Y-85400000D01*
X103400000Y-85400000D01*
X103400000Y-85800000D01*
X103000000Y-85800000D01*
G37*
G36*
X103400000Y-85800000D02*
G01*
X103400000Y-85400000D01*
X103800000Y-85400000D01*
X103800000Y-85800000D01*
X103400000Y-85800000D01*
G37*
G36*
X103800000Y-85800000D02*
G01*
X103800000Y-85400000D01*
X104200000Y-85400000D01*
X104200000Y-85800000D01*
X103800000Y-85800000D01*
G37*
G36*
X104200000Y-85800000D02*
G01*
X104200000Y-85400000D01*
X104600000Y-85400000D01*
X104600000Y-85800000D01*
X104200000Y-85800000D01*
G37*
G36*
X104600000Y-85800000D02*
G01*
X104600000Y-85400000D01*
X105000000Y-85400000D01*
X105000000Y-85800000D01*
X104600000Y-85800000D01*
G37*
G36*
X105000000Y-85800000D02*
G01*
X105000000Y-85400000D01*
X105400000Y-85400000D01*
X105400000Y-85800000D01*
X105000000Y-85800000D01*
G37*
G36*
X106600000Y-85800000D02*
G01*
X106600000Y-85400000D01*
X107000000Y-85400000D01*
X107000000Y-85800000D01*
X106600000Y-85800000D01*
G37*
G36*
X107000000Y-85800000D02*
G01*
X107000000Y-85400000D01*
X107400000Y-85400000D01*
X107400000Y-85800000D01*
X107000000Y-85800000D01*
G37*
G36*
X92600000Y-85400000D02*
G01*
X92600000Y-85000000D01*
X93000000Y-85000000D01*
X93000000Y-85400000D01*
X92600000Y-85400000D01*
G37*
G36*
X93000000Y-85400000D02*
G01*
X93000000Y-85000000D01*
X93400000Y-85000000D01*
X93400000Y-85400000D01*
X93000000Y-85400000D01*
G37*
G36*
X93400000Y-85400000D02*
G01*
X93400000Y-85000000D01*
X93800000Y-85000000D01*
X93800000Y-85400000D01*
X93400000Y-85400000D01*
G37*
G36*
X94200000Y-85400000D02*
G01*
X94200000Y-85000000D01*
X94600000Y-85000000D01*
X94600000Y-85400000D01*
X94200000Y-85400000D01*
G37*
G36*
X94600000Y-85400000D02*
G01*
X94600000Y-85000000D01*
X95000000Y-85000000D01*
X95000000Y-85400000D01*
X94600000Y-85400000D01*
G37*
G36*
X95400000Y-85400000D02*
G01*
X95400000Y-85000000D01*
X95800000Y-85000000D01*
X95800000Y-85400000D01*
X95400000Y-85400000D01*
G37*
G36*
X97400000Y-85400000D02*
G01*
X97400000Y-85000000D01*
X97800000Y-85000000D01*
X97800000Y-85400000D01*
X97400000Y-85400000D01*
G37*
G36*
X97800000Y-85400000D02*
G01*
X97800000Y-85000000D01*
X98200000Y-85000000D01*
X98200000Y-85400000D01*
X97800000Y-85400000D01*
G37*
G36*
X98600000Y-85400000D02*
G01*
X98600000Y-85000000D01*
X99000000Y-85000000D01*
X99000000Y-85400000D01*
X98600000Y-85400000D01*
G37*
G36*
X99000000Y-85400000D02*
G01*
X99000000Y-85000000D01*
X99400000Y-85000000D01*
X99400000Y-85400000D01*
X99000000Y-85400000D01*
G37*
G36*
X99400000Y-85400000D02*
G01*
X99400000Y-85000000D01*
X99800000Y-85000000D01*
X99800000Y-85400000D01*
X99400000Y-85400000D01*
G37*
G36*
X99800000Y-85400000D02*
G01*
X99800000Y-85000000D01*
X100200000Y-85000000D01*
X100200000Y-85400000D01*
X99800000Y-85400000D01*
G37*
G36*
X100600000Y-85400000D02*
G01*
X100600000Y-85000000D01*
X101000000Y-85000000D01*
X101000000Y-85400000D01*
X100600000Y-85400000D01*
G37*
G36*
X101000000Y-85400000D02*
G01*
X101000000Y-85000000D01*
X101400000Y-85000000D01*
X101400000Y-85400000D01*
X101000000Y-85400000D01*
G37*
G36*
X101400000Y-85400000D02*
G01*
X101400000Y-85000000D01*
X101800000Y-85000000D01*
X101800000Y-85400000D01*
X101400000Y-85400000D01*
G37*
G36*
X102600000Y-85400000D02*
G01*
X102600000Y-85000000D01*
X103000000Y-85000000D01*
X103000000Y-85400000D01*
X102600000Y-85400000D01*
G37*
G36*
X105400000Y-85400000D02*
G01*
X105400000Y-85000000D01*
X105800000Y-85000000D01*
X105800000Y-85400000D01*
X105400000Y-85400000D01*
G37*
G36*
X105800000Y-85400000D02*
G01*
X105800000Y-85000000D01*
X106200000Y-85000000D01*
X106200000Y-85400000D01*
X105800000Y-85400000D01*
G37*
G36*
X106600000Y-85400000D02*
G01*
X106600000Y-85000000D01*
X107000000Y-85000000D01*
X107000000Y-85400000D01*
X106600000Y-85400000D01*
G37*
G36*
X107000000Y-85400000D02*
G01*
X107000000Y-85000000D01*
X107400000Y-85000000D01*
X107400000Y-85400000D01*
X107000000Y-85400000D01*
G37*
G36*
X92600000Y-85000000D02*
G01*
X92600000Y-84600000D01*
X93000000Y-84600000D01*
X93000000Y-85000000D01*
X92600000Y-85000000D01*
G37*
G36*
X93000000Y-85000000D02*
G01*
X93000000Y-84600000D01*
X93400000Y-84600000D01*
X93400000Y-85000000D01*
X93000000Y-85000000D01*
G37*
G36*
X93400000Y-85000000D02*
G01*
X93400000Y-84600000D01*
X93800000Y-84600000D01*
X93800000Y-85000000D01*
X93400000Y-85000000D01*
G37*
G36*
X93800000Y-85000000D02*
G01*
X93800000Y-84600000D01*
X94200000Y-84600000D01*
X94200000Y-85000000D01*
X93800000Y-85000000D01*
G37*
G36*
X95000000Y-85000000D02*
G01*
X95000000Y-84600000D01*
X95400000Y-84600000D01*
X95400000Y-85000000D01*
X95000000Y-85000000D01*
G37*
G36*
X97000000Y-85000000D02*
G01*
X97000000Y-84600000D01*
X97400000Y-84600000D01*
X97400000Y-85000000D01*
X97000000Y-85000000D01*
G37*
G36*
X97400000Y-85000000D02*
G01*
X97400000Y-84600000D01*
X97800000Y-84600000D01*
X97800000Y-85000000D01*
X97400000Y-85000000D01*
G37*
G36*
X99800000Y-85000000D02*
G01*
X99800000Y-84600000D01*
X100200000Y-84600000D01*
X100200000Y-85000000D01*
X99800000Y-85000000D01*
G37*
G36*
X100200000Y-85000000D02*
G01*
X100200000Y-84600000D01*
X100600000Y-84600000D01*
X100600000Y-85000000D01*
X100200000Y-85000000D01*
G37*
G36*
X103800000Y-85000000D02*
G01*
X103800000Y-84600000D01*
X104200000Y-84600000D01*
X104200000Y-85000000D01*
X103800000Y-85000000D01*
G37*
G36*
X104600000Y-85000000D02*
G01*
X104600000Y-84600000D01*
X105000000Y-84600000D01*
X105000000Y-85000000D01*
X104600000Y-85000000D01*
G37*
G36*
X106200000Y-85000000D02*
G01*
X106200000Y-84600000D01*
X106600000Y-84600000D01*
X106600000Y-85000000D01*
X106200000Y-85000000D01*
G37*
G36*
X106600000Y-85000000D02*
G01*
X106600000Y-84600000D01*
X107000000Y-84600000D01*
X107000000Y-85000000D01*
X106600000Y-85000000D01*
G37*
G36*
X107000000Y-85000000D02*
G01*
X107000000Y-84600000D01*
X107400000Y-84600000D01*
X107400000Y-85000000D01*
X107000000Y-85000000D01*
G37*
G36*
X92600000Y-84600000D02*
G01*
X92600000Y-84200000D01*
X93000000Y-84200000D01*
X93000000Y-84600000D01*
X92600000Y-84600000D01*
G37*
G36*
X93000000Y-84600000D02*
G01*
X93000000Y-84200000D01*
X93400000Y-84200000D01*
X93400000Y-84600000D01*
X93000000Y-84600000D01*
G37*
G36*
X93800000Y-84600000D02*
G01*
X93800000Y-84200000D01*
X94200000Y-84200000D01*
X94200000Y-84600000D01*
X93800000Y-84600000D01*
G37*
G36*
X94200000Y-84600000D02*
G01*
X94200000Y-84200000D01*
X94600000Y-84200000D01*
X94600000Y-84600000D01*
X94200000Y-84600000D01*
G37*
G36*
X95400000Y-84600000D02*
G01*
X95400000Y-84200000D01*
X95800000Y-84200000D01*
X95800000Y-84600000D01*
X95400000Y-84600000D01*
G37*
G36*
X96600000Y-84600000D02*
G01*
X96600000Y-84200000D01*
X97000000Y-84200000D01*
X97000000Y-84600000D01*
X96600000Y-84600000D01*
G37*
G36*
X97800000Y-84600000D02*
G01*
X97800000Y-84200000D01*
X98200000Y-84200000D01*
X98200000Y-84600000D01*
X97800000Y-84600000D01*
G37*
G36*
X98200000Y-84600000D02*
G01*
X98200000Y-84200000D01*
X98600000Y-84200000D01*
X98600000Y-84600000D01*
X98200000Y-84600000D01*
G37*
G36*
X98600000Y-84600000D02*
G01*
X98600000Y-84200000D01*
X99000000Y-84200000D01*
X99000000Y-84600000D01*
X98600000Y-84600000D01*
G37*
G36*
X99000000Y-84600000D02*
G01*
X99000000Y-84200000D01*
X99400000Y-84200000D01*
X99400000Y-84600000D01*
X99000000Y-84600000D01*
G37*
G36*
X99400000Y-84600000D02*
G01*
X99400000Y-84200000D01*
X99800000Y-84200000D01*
X99800000Y-84600000D01*
X99400000Y-84600000D01*
G37*
G36*
X100200000Y-84600000D02*
G01*
X100200000Y-84200000D01*
X100600000Y-84200000D01*
X100600000Y-84600000D01*
X100200000Y-84600000D01*
G37*
G36*
X100600000Y-84600000D02*
G01*
X100600000Y-84200000D01*
X101000000Y-84200000D01*
X101000000Y-84600000D01*
X100600000Y-84600000D01*
G37*
G36*
X101800000Y-84600000D02*
G01*
X101800000Y-84200000D01*
X102200000Y-84200000D01*
X102200000Y-84600000D01*
X101800000Y-84600000D01*
G37*
G36*
X102600000Y-84600000D02*
G01*
X102600000Y-84200000D01*
X103000000Y-84200000D01*
X103000000Y-84600000D01*
X102600000Y-84600000D01*
G37*
G36*
X103000000Y-84600000D02*
G01*
X103000000Y-84200000D01*
X103400000Y-84200000D01*
X103400000Y-84600000D01*
X103000000Y-84600000D01*
G37*
G36*
X105000000Y-84600000D02*
G01*
X105000000Y-84200000D01*
X105400000Y-84200000D01*
X105400000Y-84600000D01*
X105000000Y-84600000D01*
G37*
G36*
X105800000Y-84600000D02*
G01*
X105800000Y-84200000D01*
X106200000Y-84200000D01*
X106200000Y-84600000D01*
X105800000Y-84600000D01*
G37*
G36*
X106200000Y-84600000D02*
G01*
X106200000Y-84200000D01*
X106600000Y-84200000D01*
X106600000Y-84600000D01*
X106200000Y-84600000D01*
G37*
G36*
X106600000Y-84600000D02*
G01*
X106600000Y-84200000D01*
X107000000Y-84200000D01*
X107000000Y-84600000D01*
X106600000Y-84600000D01*
G37*
G36*
X107000000Y-84600000D02*
G01*
X107000000Y-84200000D01*
X107400000Y-84200000D01*
X107400000Y-84600000D01*
X107000000Y-84600000D01*
G37*
G36*
X92600000Y-84200000D02*
G01*
X92600000Y-83800000D01*
X93000000Y-83800000D01*
X93000000Y-84200000D01*
X92600000Y-84200000D01*
G37*
G36*
X93000000Y-84200000D02*
G01*
X93000000Y-83800000D01*
X93400000Y-83800000D01*
X93400000Y-84200000D01*
X93000000Y-84200000D01*
G37*
G36*
X93400000Y-84200000D02*
G01*
X93400000Y-83800000D01*
X93800000Y-83800000D01*
X93800000Y-84200000D01*
X93400000Y-84200000D01*
G37*
G36*
X93800000Y-84200000D02*
G01*
X93800000Y-83800000D01*
X94200000Y-83800000D01*
X94200000Y-84200000D01*
X93800000Y-84200000D01*
G37*
G36*
X94200000Y-84200000D02*
G01*
X94200000Y-83800000D01*
X94600000Y-83800000D01*
X94600000Y-84200000D01*
X94200000Y-84200000D01*
G37*
G36*
X94600000Y-84200000D02*
G01*
X94600000Y-83800000D01*
X95000000Y-83800000D01*
X95000000Y-84200000D01*
X94600000Y-84200000D01*
G37*
G36*
X95000000Y-84200000D02*
G01*
X95000000Y-83800000D01*
X95400000Y-83800000D01*
X95400000Y-84200000D01*
X95000000Y-84200000D01*
G37*
G36*
X95400000Y-84200000D02*
G01*
X95400000Y-83800000D01*
X95800000Y-83800000D01*
X95800000Y-84200000D01*
X95400000Y-84200000D01*
G37*
G36*
X95800000Y-84200000D02*
G01*
X95800000Y-83800000D01*
X96200000Y-83800000D01*
X96200000Y-84200000D01*
X95800000Y-84200000D01*
G37*
G36*
X96600000Y-84200000D02*
G01*
X96600000Y-83800000D01*
X97000000Y-83800000D01*
X97000000Y-84200000D01*
X96600000Y-84200000D01*
G37*
G36*
X97800000Y-84200000D02*
G01*
X97800000Y-83800000D01*
X98200000Y-83800000D01*
X98200000Y-84200000D01*
X97800000Y-84200000D01*
G37*
G36*
X98200000Y-84200000D02*
G01*
X98200000Y-83800000D01*
X98600000Y-83800000D01*
X98600000Y-84200000D01*
X98200000Y-84200000D01*
G37*
G36*
X98600000Y-84200000D02*
G01*
X98600000Y-83800000D01*
X99000000Y-83800000D01*
X99000000Y-84200000D01*
X98600000Y-84200000D01*
G37*
G36*
X99000000Y-84200000D02*
G01*
X99000000Y-83800000D01*
X99400000Y-83800000D01*
X99400000Y-84200000D01*
X99000000Y-84200000D01*
G37*
G36*
X99400000Y-84200000D02*
G01*
X99400000Y-83800000D01*
X99800000Y-83800000D01*
X99800000Y-84200000D01*
X99400000Y-84200000D01*
G37*
G36*
X100200000Y-84200000D02*
G01*
X100200000Y-83800000D01*
X100600000Y-83800000D01*
X100600000Y-84200000D01*
X100200000Y-84200000D01*
G37*
G36*
X100600000Y-84200000D02*
G01*
X100600000Y-83800000D01*
X101000000Y-83800000D01*
X101000000Y-84200000D01*
X100600000Y-84200000D01*
G37*
G36*
X101400000Y-84200000D02*
G01*
X101400000Y-83800000D01*
X101800000Y-83800000D01*
X101800000Y-84200000D01*
X101400000Y-84200000D01*
G37*
G36*
X101800000Y-84200000D02*
G01*
X101800000Y-83800000D01*
X102200000Y-83800000D01*
X102200000Y-84200000D01*
X101800000Y-84200000D01*
G37*
G36*
X102200000Y-84200000D02*
G01*
X102200000Y-83800000D01*
X102600000Y-83800000D01*
X102600000Y-84200000D01*
X102200000Y-84200000D01*
G37*
G36*
X102600000Y-84200000D02*
G01*
X102600000Y-83800000D01*
X103000000Y-83800000D01*
X103000000Y-84200000D01*
X102600000Y-84200000D01*
G37*
G36*
X103000000Y-84200000D02*
G01*
X103000000Y-83800000D01*
X103400000Y-83800000D01*
X103400000Y-84200000D01*
X103000000Y-84200000D01*
G37*
G36*
X103400000Y-84200000D02*
G01*
X103400000Y-83800000D01*
X103800000Y-83800000D01*
X103800000Y-84200000D01*
X103400000Y-84200000D01*
G37*
G36*
X103800000Y-84200000D02*
G01*
X103800000Y-83800000D01*
X104200000Y-83800000D01*
X104200000Y-84200000D01*
X103800000Y-84200000D01*
G37*
G36*
X104200000Y-84200000D02*
G01*
X104200000Y-83800000D01*
X104600000Y-83800000D01*
X104600000Y-84200000D01*
X104200000Y-84200000D01*
G37*
G36*
X104600000Y-84200000D02*
G01*
X104600000Y-83800000D01*
X105000000Y-83800000D01*
X105000000Y-84200000D01*
X104600000Y-84200000D01*
G37*
G36*
X105400000Y-84200000D02*
G01*
X105400000Y-83800000D01*
X105800000Y-83800000D01*
X105800000Y-84200000D01*
X105400000Y-84200000D01*
G37*
G36*
X106200000Y-84200000D02*
G01*
X106200000Y-83800000D01*
X106600000Y-83800000D01*
X106600000Y-84200000D01*
X106200000Y-84200000D01*
G37*
G36*
X106600000Y-84200000D02*
G01*
X106600000Y-83800000D01*
X107000000Y-83800000D01*
X107000000Y-84200000D01*
X106600000Y-84200000D01*
G37*
G36*
X107000000Y-84200000D02*
G01*
X107000000Y-83800000D01*
X107400000Y-83800000D01*
X107400000Y-84200000D01*
X107000000Y-84200000D01*
G37*
G36*
X92600000Y-83800000D02*
G01*
X92600000Y-83400000D01*
X93000000Y-83400000D01*
X93000000Y-83800000D01*
X92600000Y-83800000D01*
G37*
G36*
X93000000Y-83800000D02*
G01*
X93000000Y-83400000D01*
X93400000Y-83400000D01*
X93400000Y-83800000D01*
X93000000Y-83800000D01*
G37*
G36*
X93400000Y-83800000D02*
G01*
X93400000Y-83400000D01*
X93800000Y-83400000D01*
X93800000Y-83800000D01*
X93400000Y-83800000D01*
G37*
G36*
X94200000Y-83800000D02*
G01*
X94200000Y-83400000D01*
X94600000Y-83400000D01*
X94600000Y-83800000D01*
X94200000Y-83800000D01*
G37*
G36*
X95000000Y-83800000D02*
G01*
X95000000Y-83400000D01*
X95400000Y-83400000D01*
X95400000Y-83800000D01*
X95000000Y-83800000D01*
G37*
G36*
X95400000Y-83800000D02*
G01*
X95400000Y-83400000D01*
X95800000Y-83400000D01*
X95800000Y-83800000D01*
X95400000Y-83800000D01*
G37*
G36*
X95800000Y-83800000D02*
G01*
X95800000Y-83400000D01*
X96200000Y-83400000D01*
X96200000Y-83800000D01*
X95800000Y-83800000D01*
G37*
G36*
X96600000Y-83800000D02*
G01*
X96600000Y-83400000D01*
X97000000Y-83400000D01*
X97000000Y-83800000D01*
X96600000Y-83800000D01*
G37*
G36*
X97400000Y-83800000D02*
G01*
X97400000Y-83400000D01*
X97800000Y-83400000D01*
X97800000Y-83800000D01*
X97400000Y-83800000D01*
G37*
G36*
X97800000Y-83800000D02*
G01*
X97800000Y-83400000D01*
X98200000Y-83400000D01*
X98200000Y-83800000D01*
X97800000Y-83800000D01*
G37*
G36*
X98200000Y-83800000D02*
G01*
X98200000Y-83400000D01*
X98600000Y-83400000D01*
X98600000Y-83800000D01*
X98200000Y-83800000D01*
G37*
G36*
X98600000Y-83800000D02*
G01*
X98600000Y-83400000D01*
X99000000Y-83400000D01*
X99000000Y-83800000D01*
X98600000Y-83800000D01*
G37*
G36*
X99400000Y-83800000D02*
G01*
X99400000Y-83400000D01*
X99800000Y-83400000D01*
X99800000Y-83800000D01*
X99400000Y-83800000D01*
G37*
G36*
X101800000Y-83800000D02*
G01*
X101800000Y-83400000D01*
X102200000Y-83400000D01*
X102200000Y-83800000D01*
X101800000Y-83800000D01*
G37*
G36*
X103400000Y-83800000D02*
G01*
X103400000Y-83400000D01*
X103800000Y-83400000D01*
X103800000Y-83800000D01*
X103400000Y-83800000D01*
G37*
G36*
X104600000Y-83800000D02*
G01*
X104600000Y-83400000D01*
X105000000Y-83400000D01*
X105000000Y-83800000D01*
X104600000Y-83800000D01*
G37*
G36*
X106200000Y-83800000D02*
G01*
X106200000Y-83400000D01*
X106600000Y-83400000D01*
X106600000Y-83800000D01*
X106200000Y-83800000D01*
G37*
G36*
X106600000Y-83800000D02*
G01*
X106600000Y-83400000D01*
X107000000Y-83400000D01*
X107000000Y-83800000D01*
X106600000Y-83800000D01*
G37*
G36*
X107000000Y-83800000D02*
G01*
X107000000Y-83400000D01*
X107400000Y-83400000D01*
X107400000Y-83800000D01*
X107000000Y-83800000D01*
G37*
G36*
X92600000Y-83400000D02*
G01*
X92600000Y-83000000D01*
X93000000Y-83000000D01*
X93000000Y-83400000D01*
X92600000Y-83400000D01*
G37*
G36*
X93000000Y-83400000D02*
G01*
X93000000Y-83000000D01*
X93400000Y-83000000D01*
X93400000Y-83400000D01*
X93000000Y-83400000D01*
G37*
G36*
X93400000Y-83400000D02*
G01*
X93400000Y-83000000D01*
X93800000Y-83000000D01*
X93800000Y-83400000D01*
X93400000Y-83400000D01*
G37*
G36*
X95000000Y-83400000D02*
G01*
X95000000Y-83000000D01*
X95400000Y-83000000D01*
X95400000Y-83400000D01*
X95000000Y-83400000D01*
G37*
G36*
X95400000Y-83400000D02*
G01*
X95400000Y-83000000D01*
X95800000Y-83000000D01*
X95800000Y-83400000D01*
X95400000Y-83400000D01*
G37*
G36*
X95800000Y-83400000D02*
G01*
X95800000Y-83000000D01*
X96200000Y-83000000D01*
X96200000Y-83400000D01*
X95800000Y-83400000D01*
G37*
G36*
X96600000Y-83400000D02*
G01*
X96600000Y-83000000D01*
X97000000Y-83000000D01*
X97000000Y-83400000D01*
X96600000Y-83400000D01*
G37*
G36*
X97400000Y-83400000D02*
G01*
X97400000Y-83000000D01*
X97800000Y-83000000D01*
X97800000Y-83400000D01*
X97400000Y-83400000D01*
G37*
G36*
X98200000Y-83400000D02*
G01*
X98200000Y-83000000D01*
X98600000Y-83000000D01*
X98600000Y-83400000D01*
X98200000Y-83400000D01*
G37*
G36*
X98600000Y-83400000D02*
G01*
X98600000Y-83000000D01*
X99000000Y-83000000D01*
X99000000Y-83400000D01*
X98600000Y-83400000D01*
G37*
G36*
X101000000Y-83400000D02*
G01*
X101000000Y-83000000D01*
X101400000Y-83000000D01*
X101400000Y-83400000D01*
X101000000Y-83400000D01*
G37*
G36*
X101400000Y-83400000D02*
G01*
X101400000Y-83000000D01*
X101800000Y-83000000D01*
X101800000Y-83400000D01*
X101400000Y-83400000D01*
G37*
G36*
X101800000Y-83400000D02*
G01*
X101800000Y-83000000D01*
X102200000Y-83000000D01*
X102200000Y-83400000D01*
X101800000Y-83400000D01*
G37*
G36*
X102200000Y-83400000D02*
G01*
X102200000Y-83000000D01*
X102600000Y-83000000D01*
X102600000Y-83400000D01*
X102200000Y-83400000D01*
G37*
G36*
X103800000Y-83400000D02*
G01*
X103800000Y-83000000D01*
X104200000Y-83000000D01*
X104200000Y-83400000D01*
X103800000Y-83400000D01*
G37*
G36*
X104200000Y-83400000D02*
G01*
X104200000Y-83000000D01*
X104600000Y-83000000D01*
X104600000Y-83400000D01*
X104200000Y-83400000D01*
G37*
G36*
X105000000Y-83400000D02*
G01*
X105000000Y-83000000D01*
X105400000Y-83000000D01*
X105400000Y-83400000D01*
X105000000Y-83400000D01*
G37*
G36*
X105400000Y-83400000D02*
G01*
X105400000Y-83000000D01*
X105800000Y-83000000D01*
X105800000Y-83400000D01*
X105400000Y-83400000D01*
G37*
G36*
X105800000Y-83400000D02*
G01*
X105800000Y-83000000D01*
X106200000Y-83000000D01*
X106200000Y-83400000D01*
X105800000Y-83400000D01*
G37*
G36*
X106600000Y-83400000D02*
G01*
X106600000Y-83000000D01*
X107000000Y-83000000D01*
X107000000Y-83400000D01*
X106600000Y-83400000D01*
G37*
G36*
X107000000Y-83400000D02*
G01*
X107000000Y-83000000D01*
X107400000Y-83000000D01*
X107400000Y-83400000D01*
X107000000Y-83400000D01*
G37*
G36*
X92600000Y-83000000D02*
G01*
X92600000Y-82600000D01*
X93000000Y-82600000D01*
X93000000Y-83000000D01*
X92600000Y-83000000D01*
G37*
G36*
X93000000Y-83000000D02*
G01*
X93000000Y-82600000D01*
X93400000Y-82600000D01*
X93400000Y-83000000D01*
X93000000Y-83000000D01*
G37*
G36*
X93800000Y-83000000D02*
G01*
X93800000Y-82600000D01*
X94200000Y-82600000D01*
X94200000Y-83000000D01*
X93800000Y-83000000D01*
G37*
G36*
X94200000Y-83000000D02*
G01*
X94200000Y-82600000D01*
X94600000Y-82600000D01*
X94600000Y-83000000D01*
X94200000Y-83000000D01*
G37*
G36*
X96600000Y-83000000D02*
G01*
X96600000Y-82600000D01*
X97000000Y-82600000D01*
X97000000Y-83000000D01*
X96600000Y-83000000D01*
G37*
G36*
X97400000Y-83000000D02*
G01*
X97400000Y-82600000D01*
X97800000Y-82600000D01*
X97800000Y-83000000D01*
X97400000Y-83000000D01*
G37*
G36*
X98600000Y-83000000D02*
G01*
X98600000Y-82600000D01*
X99000000Y-82600000D01*
X99000000Y-83000000D01*
X98600000Y-83000000D01*
G37*
G36*
X99000000Y-83000000D02*
G01*
X99000000Y-82600000D01*
X99400000Y-82600000D01*
X99400000Y-83000000D01*
X99000000Y-83000000D01*
G37*
G36*
X99800000Y-83000000D02*
G01*
X99800000Y-82600000D01*
X100200000Y-82600000D01*
X100200000Y-83000000D01*
X99800000Y-83000000D01*
G37*
G36*
X100600000Y-83000000D02*
G01*
X100600000Y-82600000D01*
X101000000Y-82600000D01*
X101000000Y-83000000D01*
X100600000Y-83000000D01*
G37*
G36*
X101000000Y-83000000D02*
G01*
X101000000Y-82600000D01*
X101400000Y-82600000D01*
X101400000Y-83000000D01*
X101000000Y-83000000D01*
G37*
G36*
X101800000Y-83000000D02*
G01*
X101800000Y-82600000D01*
X102200000Y-82600000D01*
X102200000Y-83000000D01*
X101800000Y-83000000D01*
G37*
G36*
X102600000Y-83000000D02*
G01*
X102600000Y-82600000D01*
X103000000Y-82600000D01*
X103000000Y-83000000D01*
X102600000Y-83000000D01*
G37*
G36*
X104200000Y-83000000D02*
G01*
X104200000Y-82600000D01*
X104600000Y-82600000D01*
X104600000Y-83000000D01*
X104200000Y-83000000D01*
G37*
G36*
X105000000Y-83000000D02*
G01*
X105000000Y-82600000D01*
X105400000Y-82600000D01*
X105400000Y-83000000D01*
X105000000Y-83000000D01*
G37*
G36*
X105400000Y-83000000D02*
G01*
X105400000Y-82600000D01*
X105800000Y-82600000D01*
X105800000Y-83000000D01*
X105400000Y-83000000D01*
G37*
G36*
X105800000Y-83000000D02*
G01*
X105800000Y-82600000D01*
X106200000Y-82600000D01*
X106200000Y-83000000D01*
X105800000Y-83000000D01*
G37*
G36*
X106600000Y-83000000D02*
G01*
X106600000Y-82600000D01*
X107000000Y-82600000D01*
X107000000Y-83000000D01*
X106600000Y-83000000D01*
G37*
G36*
X107000000Y-83000000D02*
G01*
X107000000Y-82600000D01*
X107400000Y-82600000D01*
X107400000Y-83000000D01*
X107000000Y-83000000D01*
G37*
G36*
X92600000Y-82600000D02*
G01*
X92600000Y-82200000D01*
X93000000Y-82200000D01*
X93000000Y-82600000D01*
X92600000Y-82600000D01*
G37*
G36*
X93000000Y-82600000D02*
G01*
X93000000Y-82200000D01*
X93400000Y-82200000D01*
X93400000Y-82600000D01*
X93000000Y-82600000D01*
G37*
G36*
X93400000Y-82600000D02*
G01*
X93400000Y-82200000D01*
X93800000Y-82200000D01*
X93800000Y-82600000D01*
X93400000Y-82600000D01*
G37*
G36*
X93800000Y-82600000D02*
G01*
X93800000Y-82200000D01*
X94200000Y-82200000D01*
X94200000Y-82600000D01*
X93800000Y-82600000D01*
G37*
G36*
X94200000Y-82600000D02*
G01*
X94200000Y-82200000D01*
X94600000Y-82200000D01*
X94600000Y-82600000D01*
X94200000Y-82600000D01*
G37*
G36*
X94600000Y-82600000D02*
G01*
X94600000Y-82200000D01*
X95000000Y-82200000D01*
X95000000Y-82600000D01*
X94600000Y-82600000D01*
G37*
G36*
X95000000Y-82600000D02*
G01*
X95000000Y-82200000D01*
X95400000Y-82200000D01*
X95400000Y-82600000D01*
X95000000Y-82600000D01*
G37*
G36*
X95400000Y-82600000D02*
G01*
X95400000Y-82200000D01*
X95800000Y-82200000D01*
X95800000Y-82600000D01*
X95400000Y-82600000D01*
G37*
G36*
X95800000Y-82600000D02*
G01*
X95800000Y-82200000D01*
X96200000Y-82200000D01*
X96200000Y-82600000D01*
X95800000Y-82600000D01*
G37*
G36*
X96200000Y-82600000D02*
G01*
X96200000Y-82200000D01*
X96600000Y-82200000D01*
X96600000Y-82600000D01*
X96200000Y-82600000D01*
G37*
G36*
X97000000Y-82600000D02*
G01*
X97000000Y-82200000D01*
X97400000Y-82200000D01*
X97400000Y-82600000D01*
X97000000Y-82600000D01*
G37*
G36*
X99000000Y-82600000D02*
G01*
X99000000Y-82200000D01*
X99400000Y-82200000D01*
X99400000Y-82600000D01*
X99000000Y-82600000D01*
G37*
G36*
X99800000Y-82600000D02*
G01*
X99800000Y-82200000D01*
X100200000Y-82200000D01*
X100200000Y-82600000D01*
X99800000Y-82600000D01*
G37*
G36*
X100200000Y-82600000D02*
G01*
X100200000Y-82200000D01*
X100600000Y-82200000D01*
X100600000Y-82600000D01*
X100200000Y-82600000D01*
G37*
G36*
X100600000Y-82600000D02*
G01*
X100600000Y-82200000D01*
X101000000Y-82200000D01*
X101000000Y-82600000D01*
X100600000Y-82600000D01*
G37*
G36*
X101000000Y-82600000D02*
G01*
X101000000Y-82200000D01*
X101400000Y-82200000D01*
X101400000Y-82600000D01*
X101000000Y-82600000D01*
G37*
G36*
X101400000Y-82600000D02*
G01*
X101400000Y-82200000D01*
X101800000Y-82200000D01*
X101800000Y-82600000D01*
X101400000Y-82600000D01*
G37*
G36*
X101800000Y-82600000D02*
G01*
X101800000Y-82200000D01*
X102200000Y-82200000D01*
X102200000Y-82600000D01*
X101800000Y-82600000D01*
G37*
G36*
X102200000Y-82600000D02*
G01*
X102200000Y-82200000D01*
X102600000Y-82200000D01*
X102600000Y-82600000D01*
X102200000Y-82600000D01*
G37*
G36*
X103400000Y-82600000D02*
G01*
X103400000Y-82200000D01*
X103800000Y-82200000D01*
X103800000Y-82600000D01*
X103400000Y-82600000D01*
G37*
G36*
X103800000Y-82600000D02*
G01*
X103800000Y-82200000D01*
X104200000Y-82200000D01*
X104200000Y-82600000D01*
X103800000Y-82600000D01*
G37*
G36*
X104200000Y-82600000D02*
G01*
X104200000Y-82200000D01*
X104600000Y-82200000D01*
X104600000Y-82600000D01*
X104200000Y-82600000D01*
G37*
G36*
X104600000Y-82600000D02*
G01*
X104600000Y-82200000D01*
X105000000Y-82200000D01*
X105000000Y-82600000D01*
X104600000Y-82600000D01*
G37*
G36*
X105000000Y-82600000D02*
G01*
X105000000Y-82200000D01*
X105400000Y-82200000D01*
X105400000Y-82600000D01*
X105000000Y-82600000D01*
G37*
G36*
X105400000Y-82600000D02*
G01*
X105400000Y-82200000D01*
X105800000Y-82200000D01*
X105800000Y-82600000D01*
X105400000Y-82600000D01*
G37*
G36*
X105800000Y-82600000D02*
G01*
X105800000Y-82200000D01*
X106200000Y-82200000D01*
X106200000Y-82600000D01*
X105800000Y-82600000D01*
G37*
G36*
X106200000Y-82600000D02*
G01*
X106200000Y-82200000D01*
X106600000Y-82200000D01*
X106600000Y-82600000D01*
X106200000Y-82600000D01*
G37*
G36*
X106600000Y-82600000D02*
G01*
X106600000Y-82200000D01*
X107000000Y-82200000D01*
X107000000Y-82600000D01*
X106600000Y-82600000D01*
G37*
G36*
X107000000Y-82600000D02*
G01*
X107000000Y-82200000D01*
X107400000Y-82200000D01*
X107400000Y-82600000D01*
X107000000Y-82600000D01*
G37*
G36*
X92600000Y-82200000D02*
G01*
X92600000Y-81800000D01*
X93000000Y-81800000D01*
X93000000Y-82200000D01*
X92600000Y-82200000D01*
G37*
G36*
X93000000Y-82200000D02*
G01*
X93000000Y-81800000D01*
X93400000Y-81800000D01*
X93400000Y-82200000D01*
X93000000Y-82200000D01*
G37*
G36*
X96200000Y-82200000D02*
G01*
X96200000Y-81800000D01*
X96600000Y-81800000D01*
X96600000Y-82200000D01*
X96200000Y-82200000D01*
G37*
G36*
X97000000Y-82200000D02*
G01*
X97000000Y-81800000D01*
X97400000Y-81800000D01*
X97400000Y-82200000D01*
X97000000Y-82200000D01*
G37*
G36*
X97800000Y-82200000D02*
G01*
X97800000Y-81800000D01*
X98200000Y-81800000D01*
X98200000Y-82200000D01*
X97800000Y-82200000D01*
G37*
G36*
X98600000Y-82200000D02*
G01*
X98600000Y-81800000D01*
X99000000Y-81800000D01*
X99000000Y-82200000D01*
X98600000Y-82200000D01*
G37*
G36*
X99400000Y-82200000D02*
G01*
X99400000Y-81800000D01*
X99800000Y-81800000D01*
X99800000Y-82200000D01*
X99400000Y-82200000D01*
G37*
G36*
X100200000Y-82200000D02*
G01*
X100200000Y-81800000D01*
X100600000Y-81800000D01*
X100600000Y-82200000D01*
X100200000Y-82200000D01*
G37*
G36*
X101000000Y-82200000D02*
G01*
X101000000Y-81800000D01*
X101400000Y-81800000D01*
X101400000Y-82200000D01*
X101000000Y-82200000D01*
G37*
G36*
X101800000Y-82200000D02*
G01*
X101800000Y-81800000D01*
X102200000Y-81800000D01*
X102200000Y-82200000D01*
X101800000Y-82200000D01*
G37*
G36*
X102600000Y-82200000D02*
G01*
X102600000Y-81800000D01*
X103000000Y-81800000D01*
X103000000Y-82200000D01*
X102600000Y-82200000D01*
G37*
G36*
X103400000Y-82200000D02*
G01*
X103400000Y-81800000D01*
X103800000Y-81800000D01*
X103800000Y-82200000D01*
X103400000Y-82200000D01*
G37*
G36*
X106600000Y-82200000D02*
G01*
X106600000Y-81800000D01*
X107000000Y-81800000D01*
X107000000Y-82200000D01*
X106600000Y-82200000D01*
G37*
G36*
X107000000Y-82200000D02*
G01*
X107000000Y-81800000D01*
X107400000Y-81800000D01*
X107400000Y-82200000D01*
X107000000Y-82200000D01*
G37*
G36*
X92600000Y-81800000D02*
G01*
X92600000Y-81400000D01*
X93000000Y-81400000D01*
X93000000Y-81800000D01*
X92600000Y-81800000D01*
G37*
G36*
X93000000Y-81800000D02*
G01*
X93000000Y-81400000D01*
X93400000Y-81400000D01*
X93400000Y-81800000D01*
X93000000Y-81800000D01*
G37*
G36*
X93800000Y-81800000D02*
G01*
X93800000Y-81400000D01*
X94200000Y-81400000D01*
X94200000Y-81800000D01*
X93800000Y-81800000D01*
G37*
G36*
X94200000Y-81800000D02*
G01*
X94200000Y-81400000D01*
X94600000Y-81400000D01*
X94600000Y-81800000D01*
X94200000Y-81800000D01*
G37*
G36*
X94600000Y-81800000D02*
G01*
X94600000Y-81400000D01*
X95000000Y-81400000D01*
X95000000Y-81800000D01*
X94600000Y-81800000D01*
G37*
G36*
X95000000Y-81800000D02*
G01*
X95000000Y-81400000D01*
X95400000Y-81400000D01*
X95400000Y-81800000D01*
X95000000Y-81800000D01*
G37*
G36*
X95400000Y-81800000D02*
G01*
X95400000Y-81400000D01*
X95800000Y-81400000D01*
X95800000Y-81800000D01*
X95400000Y-81800000D01*
G37*
G36*
X96200000Y-81800000D02*
G01*
X96200000Y-81400000D01*
X96600000Y-81400000D01*
X96600000Y-81800000D01*
X96200000Y-81800000D01*
G37*
G36*
X97400000Y-81800000D02*
G01*
X97400000Y-81400000D01*
X97800000Y-81400000D01*
X97800000Y-81800000D01*
X97400000Y-81800000D01*
G37*
G36*
X98600000Y-81800000D02*
G01*
X98600000Y-81400000D01*
X99000000Y-81400000D01*
X99000000Y-81800000D01*
X98600000Y-81800000D01*
G37*
G36*
X99800000Y-81800000D02*
G01*
X99800000Y-81400000D01*
X100200000Y-81400000D01*
X100200000Y-81800000D01*
X99800000Y-81800000D01*
G37*
G36*
X100600000Y-81800000D02*
G01*
X100600000Y-81400000D01*
X101000000Y-81400000D01*
X101000000Y-81800000D01*
X100600000Y-81800000D01*
G37*
G36*
X101800000Y-81800000D02*
G01*
X101800000Y-81400000D01*
X102200000Y-81400000D01*
X102200000Y-81800000D01*
X101800000Y-81800000D01*
G37*
G36*
X102200000Y-81800000D02*
G01*
X102200000Y-81400000D01*
X102600000Y-81400000D01*
X102600000Y-81800000D01*
X102200000Y-81800000D01*
G37*
G36*
X103400000Y-81800000D02*
G01*
X103400000Y-81400000D01*
X103800000Y-81400000D01*
X103800000Y-81800000D01*
X103400000Y-81800000D01*
G37*
G36*
X104200000Y-81800000D02*
G01*
X104200000Y-81400000D01*
X104600000Y-81400000D01*
X104600000Y-81800000D01*
X104200000Y-81800000D01*
G37*
G36*
X104600000Y-81800000D02*
G01*
X104600000Y-81400000D01*
X105000000Y-81400000D01*
X105000000Y-81800000D01*
X104600000Y-81800000D01*
G37*
G36*
X105000000Y-81800000D02*
G01*
X105000000Y-81400000D01*
X105400000Y-81400000D01*
X105400000Y-81800000D01*
X105000000Y-81800000D01*
G37*
G36*
X105400000Y-81800000D02*
G01*
X105400000Y-81400000D01*
X105800000Y-81400000D01*
X105800000Y-81800000D01*
X105400000Y-81800000D01*
G37*
G36*
X105800000Y-81800000D02*
G01*
X105800000Y-81400000D01*
X106200000Y-81400000D01*
X106200000Y-81800000D01*
X105800000Y-81800000D01*
G37*
G36*
X106600000Y-81800000D02*
G01*
X106600000Y-81400000D01*
X107000000Y-81400000D01*
X107000000Y-81800000D01*
X106600000Y-81800000D01*
G37*
G36*
X107000000Y-81800000D02*
G01*
X107000000Y-81400000D01*
X107400000Y-81400000D01*
X107400000Y-81800000D01*
X107000000Y-81800000D01*
G37*
G36*
X92600000Y-81400000D02*
G01*
X92600000Y-81000000D01*
X93000000Y-81000000D01*
X93000000Y-81400000D01*
X92600000Y-81400000D01*
G37*
G36*
X93000000Y-81400000D02*
G01*
X93000000Y-81000000D01*
X93400000Y-81000000D01*
X93400000Y-81400000D01*
X93000000Y-81400000D01*
G37*
G36*
X93800000Y-81400000D02*
G01*
X93800000Y-81000000D01*
X94200000Y-81000000D01*
X94200000Y-81400000D01*
X93800000Y-81400000D01*
G37*
G36*
X95400000Y-81400000D02*
G01*
X95400000Y-81000000D01*
X95800000Y-81000000D01*
X95800000Y-81400000D01*
X95400000Y-81400000D01*
G37*
G36*
X96200000Y-81400000D02*
G01*
X96200000Y-81000000D01*
X96600000Y-81000000D01*
X96600000Y-81400000D01*
X96200000Y-81400000D01*
G37*
G36*
X96600000Y-81400000D02*
G01*
X96600000Y-81000000D01*
X97000000Y-81000000D01*
X97000000Y-81400000D01*
X96600000Y-81400000D01*
G37*
G36*
X97000000Y-81400000D02*
G01*
X97000000Y-81000000D01*
X97400000Y-81000000D01*
X97400000Y-81400000D01*
X97000000Y-81400000D01*
G37*
G36*
X97800000Y-81400000D02*
G01*
X97800000Y-81000000D01*
X98200000Y-81000000D01*
X98200000Y-81400000D01*
X97800000Y-81400000D01*
G37*
G36*
X98200000Y-81400000D02*
G01*
X98200000Y-81000000D01*
X98600000Y-81000000D01*
X98600000Y-81400000D01*
X98200000Y-81400000D01*
G37*
G36*
X99000000Y-81400000D02*
G01*
X99000000Y-81000000D01*
X99400000Y-81000000D01*
X99400000Y-81400000D01*
X99000000Y-81400000D01*
G37*
G36*
X99400000Y-81400000D02*
G01*
X99400000Y-81000000D01*
X99800000Y-81000000D01*
X99800000Y-81400000D01*
X99400000Y-81400000D01*
G37*
G36*
X100200000Y-81400000D02*
G01*
X100200000Y-81000000D01*
X100600000Y-81000000D01*
X100600000Y-81400000D01*
X100200000Y-81400000D01*
G37*
G36*
X100600000Y-81400000D02*
G01*
X100600000Y-81000000D01*
X101000000Y-81000000D01*
X101000000Y-81400000D01*
X100600000Y-81400000D01*
G37*
G36*
X101400000Y-81400000D02*
G01*
X101400000Y-81000000D01*
X101800000Y-81000000D01*
X101800000Y-81400000D01*
X101400000Y-81400000D01*
G37*
G36*
X103400000Y-81400000D02*
G01*
X103400000Y-81000000D01*
X103800000Y-81000000D01*
X103800000Y-81400000D01*
X103400000Y-81400000D01*
G37*
G36*
X104200000Y-81400000D02*
G01*
X104200000Y-81000000D01*
X104600000Y-81000000D01*
X104600000Y-81400000D01*
X104200000Y-81400000D01*
G37*
G36*
X105800000Y-81400000D02*
G01*
X105800000Y-81000000D01*
X106200000Y-81000000D01*
X106200000Y-81400000D01*
X105800000Y-81400000D01*
G37*
G36*
X106600000Y-81400000D02*
G01*
X106600000Y-81000000D01*
X107000000Y-81000000D01*
X107000000Y-81400000D01*
X106600000Y-81400000D01*
G37*
G36*
X107000000Y-81400000D02*
G01*
X107000000Y-81000000D01*
X107400000Y-81000000D01*
X107400000Y-81400000D01*
X107000000Y-81400000D01*
G37*
G36*
X92600000Y-81000000D02*
G01*
X92600000Y-80600000D01*
X93000000Y-80600000D01*
X93000000Y-81000000D01*
X92600000Y-81000000D01*
G37*
G36*
X93000000Y-81000000D02*
G01*
X93000000Y-80600000D01*
X93400000Y-80600000D01*
X93400000Y-81000000D01*
X93000000Y-81000000D01*
G37*
G36*
X93800000Y-81000000D02*
G01*
X93800000Y-80600000D01*
X94200000Y-80600000D01*
X94200000Y-81000000D01*
X93800000Y-81000000D01*
G37*
G36*
X95400000Y-81000000D02*
G01*
X95400000Y-80600000D01*
X95800000Y-80600000D01*
X95800000Y-81000000D01*
X95400000Y-81000000D01*
G37*
G36*
X96200000Y-81000000D02*
G01*
X96200000Y-80600000D01*
X96600000Y-80600000D01*
X96600000Y-81000000D01*
X96200000Y-81000000D01*
G37*
G36*
X96600000Y-81000000D02*
G01*
X96600000Y-80600000D01*
X97000000Y-80600000D01*
X97000000Y-81000000D01*
X96600000Y-81000000D01*
G37*
G36*
X98200000Y-81000000D02*
G01*
X98200000Y-80600000D01*
X98600000Y-80600000D01*
X98600000Y-81000000D01*
X98200000Y-81000000D01*
G37*
G36*
X98600000Y-81000000D02*
G01*
X98600000Y-80600000D01*
X99000000Y-80600000D01*
X99000000Y-81000000D01*
X98600000Y-81000000D01*
G37*
G36*
X99000000Y-81000000D02*
G01*
X99000000Y-80600000D01*
X99400000Y-80600000D01*
X99400000Y-81000000D01*
X99000000Y-81000000D01*
G37*
G36*
X100600000Y-81000000D02*
G01*
X100600000Y-80600000D01*
X101000000Y-80600000D01*
X101000000Y-81000000D01*
X100600000Y-81000000D01*
G37*
G36*
X101000000Y-81000000D02*
G01*
X101000000Y-80600000D01*
X101400000Y-80600000D01*
X101400000Y-81000000D01*
X101000000Y-81000000D01*
G37*
G36*
X101400000Y-81000000D02*
G01*
X101400000Y-80600000D01*
X101800000Y-80600000D01*
X101800000Y-81000000D01*
X101400000Y-81000000D01*
G37*
G36*
X101800000Y-81000000D02*
G01*
X101800000Y-80600000D01*
X102200000Y-80600000D01*
X102200000Y-81000000D01*
X101800000Y-81000000D01*
G37*
G36*
X103400000Y-81000000D02*
G01*
X103400000Y-80600000D01*
X103800000Y-80600000D01*
X103800000Y-81000000D01*
X103400000Y-81000000D01*
G37*
G36*
X104200000Y-81000000D02*
G01*
X104200000Y-80600000D01*
X104600000Y-80600000D01*
X104600000Y-81000000D01*
X104200000Y-81000000D01*
G37*
G36*
X105800000Y-81000000D02*
G01*
X105800000Y-80600000D01*
X106200000Y-80600000D01*
X106200000Y-81000000D01*
X105800000Y-81000000D01*
G37*
G36*
X106600000Y-81000000D02*
G01*
X106600000Y-80600000D01*
X107000000Y-80600000D01*
X107000000Y-81000000D01*
X106600000Y-81000000D01*
G37*
G36*
X107000000Y-81000000D02*
G01*
X107000000Y-80600000D01*
X107400000Y-80600000D01*
X107400000Y-81000000D01*
X107000000Y-81000000D01*
G37*
G36*
X92600000Y-80600000D02*
G01*
X92600000Y-80200000D01*
X93000000Y-80200000D01*
X93000000Y-80600000D01*
X92600000Y-80600000D01*
G37*
G36*
X93000000Y-80600000D02*
G01*
X93000000Y-80200000D01*
X93400000Y-80200000D01*
X93400000Y-80600000D01*
X93000000Y-80600000D01*
G37*
G36*
X93800000Y-80600000D02*
G01*
X93800000Y-80200000D01*
X94200000Y-80200000D01*
X94200000Y-80600000D01*
X93800000Y-80600000D01*
G37*
G36*
X95400000Y-80600000D02*
G01*
X95400000Y-80200000D01*
X95800000Y-80200000D01*
X95800000Y-80600000D01*
X95400000Y-80600000D01*
G37*
G36*
X96200000Y-80600000D02*
G01*
X96200000Y-80200000D01*
X96600000Y-80200000D01*
X96600000Y-80600000D01*
X96200000Y-80600000D01*
G37*
G36*
X97400000Y-80600000D02*
G01*
X97400000Y-80200000D01*
X97800000Y-80200000D01*
X97800000Y-80600000D01*
X97400000Y-80600000D01*
G37*
G36*
X98200000Y-80600000D02*
G01*
X98200000Y-80200000D01*
X98600000Y-80200000D01*
X98600000Y-80600000D01*
X98200000Y-80600000D01*
G37*
G36*
X98600000Y-80600000D02*
G01*
X98600000Y-80200000D01*
X99000000Y-80200000D01*
X99000000Y-80600000D01*
X98600000Y-80600000D01*
G37*
G36*
X101000000Y-80600000D02*
G01*
X101000000Y-80200000D01*
X101400000Y-80200000D01*
X101400000Y-80600000D01*
X101000000Y-80600000D01*
G37*
G36*
X101400000Y-80600000D02*
G01*
X101400000Y-80200000D01*
X101800000Y-80200000D01*
X101800000Y-80600000D01*
X101400000Y-80600000D01*
G37*
G36*
X101800000Y-80600000D02*
G01*
X101800000Y-80200000D01*
X102200000Y-80200000D01*
X102200000Y-80600000D01*
X101800000Y-80600000D01*
G37*
G36*
X103000000Y-80600000D02*
G01*
X103000000Y-80200000D01*
X103400000Y-80200000D01*
X103400000Y-80600000D01*
X103000000Y-80600000D01*
G37*
G36*
X103400000Y-80600000D02*
G01*
X103400000Y-80200000D01*
X103800000Y-80200000D01*
X103800000Y-80600000D01*
X103400000Y-80600000D01*
G37*
G36*
X104200000Y-80600000D02*
G01*
X104200000Y-80200000D01*
X104600000Y-80200000D01*
X104600000Y-80600000D01*
X104200000Y-80600000D01*
G37*
G36*
X105800000Y-80600000D02*
G01*
X105800000Y-80200000D01*
X106200000Y-80200000D01*
X106200000Y-80600000D01*
X105800000Y-80600000D01*
G37*
G36*
X106600000Y-80600000D02*
G01*
X106600000Y-80200000D01*
X107000000Y-80200000D01*
X107000000Y-80600000D01*
X106600000Y-80600000D01*
G37*
G36*
X107000000Y-80600000D02*
G01*
X107000000Y-80200000D01*
X107400000Y-80200000D01*
X107400000Y-80600000D01*
X107000000Y-80600000D01*
G37*
G36*
X92600000Y-80200000D02*
G01*
X92600000Y-79800000D01*
X93000000Y-79800000D01*
X93000000Y-80200000D01*
X92600000Y-80200000D01*
G37*
G36*
X93000000Y-80200000D02*
G01*
X93000000Y-79800000D01*
X93400000Y-79800000D01*
X93400000Y-80200000D01*
X93000000Y-80200000D01*
G37*
G36*
X93800000Y-80200000D02*
G01*
X93800000Y-79800000D01*
X94200000Y-79800000D01*
X94200000Y-80200000D01*
X93800000Y-80200000D01*
G37*
G36*
X94200000Y-80200000D02*
G01*
X94200000Y-79800000D01*
X94600000Y-79800000D01*
X94600000Y-80200000D01*
X94200000Y-80200000D01*
G37*
G36*
X94600000Y-80200000D02*
G01*
X94600000Y-79800000D01*
X95000000Y-79800000D01*
X95000000Y-80200000D01*
X94600000Y-80200000D01*
G37*
G36*
X95000000Y-80200000D02*
G01*
X95000000Y-79800000D01*
X95400000Y-79800000D01*
X95400000Y-80200000D01*
X95000000Y-80200000D01*
G37*
G36*
X95400000Y-80200000D02*
G01*
X95400000Y-79800000D01*
X95800000Y-79800000D01*
X95800000Y-80200000D01*
X95400000Y-80200000D01*
G37*
G36*
X96200000Y-80200000D02*
G01*
X96200000Y-79800000D01*
X96600000Y-79800000D01*
X96600000Y-80200000D01*
X96200000Y-80200000D01*
G37*
G36*
X96600000Y-80200000D02*
G01*
X96600000Y-79800000D01*
X97000000Y-79800000D01*
X97000000Y-80200000D01*
X96600000Y-80200000D01*
G37*
G36*
X97000000Y-80200000D02*
G01*
X97000000Y-79800000D01*
X97400000Y-79800000D01*
X97400000Y-80200000D01*
X97000000Y-80200000D01*
G37*
G36*
X97400000Y-80200000D02*
G01*
X97400000Y-79800000D01*
X97800000Y-79800000D01*
X97800000Y-80200000D01*
X97400000Y-80200000D01*
G37*
G36*
X97800000Y-80200000D02*
G01*
X97800000Y-79800000D01*
X98200000Y-79800000D01*
X98200000Y-80200000D01*
X97800000Y-80200000D01*
G37*
G36*
X98200000Y-80200000D02*
G01*
X98200000Y-79800000D01*
X98600000Y-79800000D01*
X98600000Y-80200000D01*
X98200000Y-80200000D01*
G37*
G36*
X99400000Y-80200000D02*
G01*
X99400000Y-79800000D01*
X99800000Y-79800000D01*
X99800000Y-80200000D01*
X99400000Y-80200000D01*
G37*
G36*
X100200000Y-80200000D02*
G01*
X100200000Y-79800000D01*
X100600000Y-79800000D01*
X100600000Y-80200000D01*
X100200000Y-80200000D01*
G37*
G36*
X102200000Y-80200000D02*
G01*
X102200000Y-79800000D01*
X102600000Y-79800000D01*
X102600000Y-80200000D01*
X102200000Y-80200000D01*
G37*
G36*
X103000000Y-80200000D02*
G01*
X103000000Y-79800000D01*
X103400000Y-79800000D01*
X103400000Y-80200000D01*
X103000000Y-80200000D01*
G37*
G36*
X103400000Y-80200000D02*
G01*
X103400000Y-79800000D01*
X103800000Y-79800000D01*
X103800000Y-80200000D01*
X103400000Y-80200000D01*
G37*
G36*
X104200000Y-80200000D02*
G01*
X104200000Y-79800000D01*
X104600000Y-79800000D01*
X104600000Y-80200000D01*
X104200000Y-80200000D01*
G37*
G36*
X104600000Y-80200000D02*
G01*
X104600000Y-79800000D01*
X105000000Y-79800000D01*
X105000000Y-80200000D01*
X104600000Y-80200000D01*
G37*
G36*
X105000000Y-80200000D02*
G01*
X105000000Y-79800000D01*
X105400000Y-79800000D01*
X105400000Y-80200000D01*
X105000000Y-80200000D01*
G37*
G36*
X105400000Y-80200000D02*
G01*
X105400000Y-79800000D01*
X105800000Y-79800000D01*
X105800000Y-80200000D01*
X105400000Y-80200000D01*
G37*
G36*
X105800000Y-80200000D02*
G01*
X105800000Y-79800000D01*
X106200000Y-79800000D01*
X106200000Y-80200000D01*
X105800000Y-80200000D01*
G37*
G36*
X106600000Y-80200000D02*
G01*
X106600000Y-79800000D01*
X107000000Y-79800000D01*
X107000000Y-80200000D01*
X106600000Y-80200000D01*
G37*
G36*
X107000000Y-80200000D02*
G01*
X107000000Y-79800000D01*
X107400000Y-79800000D01*
X107400000Y-80200000D01*
X107000000Y-80200000D01*
G37*
G36*
X92600000Y-79800000D02*
G01*
X92600000Y-79400000D01*
X93000000Y-79400000D01*
X93000000Y-79800000D01*
X92600000Y-79800000D01*
G37*
G36*
X93000000Y-79800000D02*
G01*
X93000000Y-79400000D01*
X93400000Y-79400000D01*
X93400000Y-79800000D01*
X93000000Y-79800000D01*
G37*
G36*
X96200000Y-79800000D02*
G01*
X96200000Y-79400000D01*
X96600000Y-79400000D01*
X96600000Y-79800000D01*
X96200000Y-79800000D01*
G37*
G36*
X96600000Y-79800000D02*
G01*
X96600000Y-79400000D01*
X97000000Y-79400000D01*
X97000000Y-79800000D01*
X96600000Y-79800000D01*
G37*
G36*
X97400000Y-79800000D02*
G01*
X97400000Y-79400000D01*
X97800000Y-79400000D01*
X97800000Y-79800000D01*
X97400000Y-79800000D01*
G37*
G36*
X97800000Y-79800000D02*
G01*
X97800000Y-79400000D01*
X98200000Y-79400000D01*
X98200000Y-79800000D01*
X97800000Y-79800000D01*
G37*
G36*
X98200000Y-79800000D02*
G01*
X98200000Y-79400000D01*
X98600000Y-79400000D01*
X98600000Y-79800000D01*
X98200000Y-79800000D01*
G37*
G36*
X98600000Y-79800000D02*
G01*
X98600000Y-79400000D01*
X99000000Y-79400000D01*
X99000000Y-79800000D01*
X98600000Y-79800000D01*
G37*
G36*
X99000000Y-79800000D02*
G01*
X99000000Y-79400000D01*
X99400000Y-79400000D01*
X99400000Y-79800000D01*
X99000000Y-79800000D01*
G37*
G36*
X99400000Y-79800000D02*
G01*
X99400000Y-79400000D01*
X99800000Y-79400000D01*
X99800000Y-79800000D01*
X99400000Y-79800000D01*
G37*
G36*
X101400000Y-79800000D02*
G01*
X101400000Y-79400000D01*
X101800000Y-79400000D01*
X101800000Y-79800000D01*
X101400000Y-79800000D01*
G37*
G36*
X102200000Y-79800000D02*
G01*
X102200000Y-79400000D01*
X102600000Y-79400000D01*
X102600000Y-79800000D01*
X102200000Y-79800000D01*
G37*
G36*
X102600000Y-79800000D02*
G01*
X102600000Y-79400000D01*
X103000000Y-79400000D01*
X103000000Y-79800000D01*
X102600000Y-79800000D01*
G37*
G36*
X103400000Y-79800000D02*
G01*
X103400000Y-79400000D01*
X103800000Y-79400000D01*
X103800000Y-79800000D01*
X103400000Y-79800000D01*
G37*
G36*
X106600000Y-79800000D02*
G01*
X106600000Y-79400000D01*
X107000000Y-79400000D01*
X107000000Y-79800000D01*
X106600000Y-79800000D01*
G37*
G36*
X107000000Y-79800000D02*
G01*
X107000000Y-79400000D01*
X107400000Y-79400000D01*
X107400000Y-79800000D01*
X107000000Y-79800000D01*
G37*
G36*
X92600000Y-79400000D02*
G01*
X92600000Y-79000000D01*
X93000000Y-79000000D01*
X93000000Y-79400000D01*
X92600000Y-79400000D01*
G37*
G36*
X93000000Y-79400000D02*
G01*
X93000000Y-79000000D01*
X93400000Y-79000000D01*
X93400000Y-79400000D01*
X93000000Y-79400000D01*
G37*
G36*
X93400000Y-79400000D02*
G01*
X93400000Y-79000000D01*
X93800000Y-79000000D01*
X93800000Y-79400000D01*
X93400000Y-79400000D01*
G37*
G36*
X93800000Y-79400000D02*
G01*
X93800000Y-79000000D01*
X94200000Y-79000000D01*
X94200000Y-79400000D01*
X93800000Y-79400000D01*
G37*
G36*
X94200000Y-79400000D02*
G01*
X94200000Y-79000000D01*
X94600000Y-79000000D01*
X94600000Y-79400000D01*
X94200000Y-79400000D01*
G37*
G36*
X94600000Y-79400000D02*
G01*
X94600000Y-79000000D01*
X95000000Y-79000000D01*
X95000000Y-79400000D01*
X94600000Y-79400000D01*
G37*
G36*
X95000000Y-79400000D02*
G01*
X95000000Y-79000000D01*
X95400000Y-79000000D01*
X95400000Y-79400000D01*
X95000000Y-79400000D01*
G37*
G36*
X95400000Y-79400000D02*
G01*
X95400000Y-79000000D01*
X95800000Y-79000000D01*
X95800000Y-79400000D01*
X95400000Y-79400000D01*
G37*
G36*
X95800000Y-79400000D02*
G01*
X95800000Y-79000000D01*
X96200000Y-79000000D01*
X96200000Y-79400000D01*
X95800000Y-79400000D01*
G37*
G36*
X96200000Y-79400000D02*
G01*
X96200000Y-79000000D01*
X96600000Y-79000000D01*
X96600000Y-79400000D01*
X96200000Y-79400000D01*
G37*
G36*
X96600000Y-79400000D02*
G01*
X96600000Y-79000000D01*
X97000000Y-79000000D01*
X97000000Y-79400000D01*
X96600000Y-79400000D01*
G37*
G36*
X97000000Y-79400000D02*
G01*
X97000000Y-79000000D01*
X97400000Y-79000000D01*
X97400000Y-79400000D01*
X97000000Y-79400000D01*
G37*
G36*
X97400000Y-79400000D02*
G01*
X97400000Y-79000000D01*
X97800000Y-79000000D01*
X97800000Y-79400000D01*
X97400000Y-79400000D01*
G37*
G36*
X97800000Y-79400000D02*
G01*
X97800000Y-79000000D01*
X98200000Y-79000000D01*
X98200000Y-79400000D01*
X97800000Y-79400000D01*
G37*
G36*
X98200000Y-79400000D02*
G01*
X98200000Y-79000000D01*
X98600000Y-79000000D01*
X98600000Y-79400000D01*
X98200000Y-79400000D01*
G37*
G36*
X98600000Y-79400000D02*
G01*
X98600000Y-79000000D01*
X99000000Y-79000000D01*
X99000000Y-79400000D01*
X98600000Y-79400000D01*
G37*
G36*
X99000000Y-79400000D02*
G01*
X99000000Y-79000000D01*
X99400000Y-79000000D01*
X99400000Y-79400000D01*
X99000000Y-79400000D01*
G37*
G36*
X99400000Y-79400000D02*
G01*
X99400000Y-79000000D01*
X99800000Y-79000000D01*
X99800000Y-79400000D01*
X99400000Y-79400000D01*
G37*
G36*
X99800000Y-79400000D02*
G01*
X99800000Y-79000000D01*
X100200000Y-79000000D01*
X100200000Y-79400000D01*
X99800000Y-79400000D01*
G37*
G36*
X100200000Y-79400000D02*
G01*
X100200000Y-79000000D01*
X100600000Y-79000000D01*
X100600000Y-79400000D01*
X100200000Y-79400000D01*
G37*
G36*
X100600000Y-79400000D02*
G01*
X100600000Y-79000000D01*
X101000000Y-79000000D01*
X101000000Y-79400000D01*
X100600000Y-79400000D01*
G37*
G36*
X101000000Y-79400000D02*
G01*
X101000000Y-79000000D01*
X101400000Y-79000000D01*
X101400000Y-79400000D01*
X101000000Y-79400000D01*
G37*
G36*
X101400000Y-79400000D02*
G01*
X101400000Y-79000000D01*
X101800000Y-79000000D01*
X101800000Y-79400000D01*
X101400000Y-79400000D01*
G37*
G36*
X101800000Y-79400000D02*
G01*
X101800000Y-79000000D01*
X102200000Y-79000000D01*
X102200000Y-79400000D01*
X101800000Y-79400000D01*
G37*
G36*
X102200000Y-79400000D02*
G01*
X102200000Y-79000000D01*
X102600000Y-79000000D01*
X102600000Y-79400000D01*
X102200000Y-79400000D01*
G37*
G36*
X102600000Y-79400000D02*
G01*
X102600000Y-79000000D01*
X103000000Y-79000000D01*
X103000000Y-79400000D01*
X102600000Y-79400000D01*
G37*
G36*
X103000000Y-79400000D02*
G01*
X103000000Y-79000000D01*
X103400000Y-79000000D01*
X103400000Y-79400000D01*
X103000000Y-79400000D01*
G37*
G36*
X103400000Y-79400000D02*
G01*
X103400000Y-79000000D01*
X103800000Y-79000000D01*
X103800000Y-79400000D01*
X103400000Y-79400000D01*
G37*
G36*
X103800000Y-79400000D02*
G01*
X103800000Y-79000000D01*
X104200000Y-79000000D01*
X104200000Y-79400000D01*
X103800000Y-79400000D01*
G37*
G36*
X104200000Y-79400000D02*
G01*
X104200000Y-79000000D01*
X104600000Y-79000000D01*
X104600000Y-79400000D01*
X104200000Y-79400000D01*
G37*
G36*
X104600000Y-79400000D02*
G01*
X104600000Y-79000000D01*
X105000000Y-79000000D01*
X105000000Y-79400000D01*
X104600000Y-79400000D01*
G37*
G36*
X105000000Y-79400000D02*
G01*
X105000000Y-79000000D01*
X105400000Y-79000000D01*
X105400000Y-79400000D01*
X105000000Y-79400000D01*
G37*
G36*
X105400000Y-79400000D02*
G01*
X105400000Y-79000000D01*
X105800000Y-79000000D01*
X105800000Y-79400000D01*
X105400000Y-79400000D01*
G37*
G36*
X105800000Y-79400000D02*
G01*
X105800000Y-79000000D01*
X106200000Y-79000000D01*
X106200000Y-79400000D01*
X105800000Y-79400000D01*
G37*
G36*
X106200000Y-79400000D02*
G01*
X106200000Y-79000000D01*
X106600000Y-79000000D01*
X106600000Y-79400000D01*
X106200000Y-79400000D01*
G37*
G36*
X106600000Y-79400000D02*
G01*
X106600000Y-79000000D01*
X107000000Y-79000000D01*
X107000000Y-79400000D01*
X106600000Y-79400000D01*
G37*
G36*
X107000000Y-79400000D02*
G01*
X107000000Y-79000000D01*
X107400000Y-79000000D01*
X107400000Y-79400000D01*
X107000000Y-79400000D01*
G37*
G36*
X92600000Y-79000000D02*
G01*
X92600000Y-78600000D01*
X93000000Y-78600000D01*
X93000000Y-79000000D01*
X92600000Y-79000000D01*
G37*
G36*
X93000000Y-79000000D02*
G01*
X93000000Y-78600000D01*
X93400000Y-78600000D01*
X93400000Y-79000000D01*
X93000000Y-79000000D01*
G37*
G36*
X93400000Y-79000000D02*
G01*
X93400000Y-78600000D01*
X93800000Y-78600000D01*
X93800000Y-79000000D01*
X93400000Y-79000000D01*
G37*
G36*
X93800000Y-79000000D02*
G01*
X93800000Y-78600000D01*
X94200000Y-78600000D01*
X94200000Y-79000000D01*
X93800000Y-79000000D01*
G37*
G36*
X94200000Y-79000000D02*
G01*
X94200000Y-78600000D01*
X94600000Y-78600000D01*
X94600000Y-79000000D01*
X94200000Y-79000000D01*
G37*
G36*
X94600000Y-79000000D02*
G01*
X94600000Y-78600000D01*
X95000000Y-78600000D01*
X95000000Y-79000000D01*
X94600000Y-79000000D01*
G37*
G36*
X95000000Y-79000000D02*
G01*
X95000000Y-78600000D01*
X95400000Y-78600000D01*
X95400000Y-79000000D01*
X95000000Y-79000000D01*
G37*
G36*
X95400000Y-79000000D02*
G01*
X95400000Y-78600000D01*
X95800000Y-78600000D01*
X95800000Y-79000000D01*
X95400000Y-79000000D01*
G37*
G36*
X95800000Y-79000000D02*
G01*
X95800000Y-78600000D01*
X96200000Y-78600000D01*
X96200000Y-79000000D01*
X95800000Y-79000000D01*
G37*
G36*
X96200000Y-79000000D02*
G01*
X96200000Y-78600000D01*
X96600000Y-78600000D01*
X96600000Y-79000000D01*
X96200000Y-79000000D01*
G37*
G36*
X96600000Y-79000000D02*
G01*
X96600000Y-78600000D01*
X97000000Y-78600000D01*
X97000000Y-79000000D01*
X96600000Y-79000000D01*
G37*
G36*
X97000000Y-79000000D02*
G01*
X97000000Y-78600000D01*
X97400000Y-78600000D01*
X97400000Y-79000000D01*
X97000000Y-79000000D01*
G37*
G36*
X97400000Y-79000000D02*
G01*
X97400000Y-78600000D01*
X97800000Y-78600000D01*
X97800000Y-79000000D01*
X97400000Y-79000000D01*
G37*
G36*
X97800000Y-79000000D02*
G01*
X97800000Y-78600000D01*
X98200000Y-78600000D01*
X98200000Y-79000000D01*
X97800000Y-79000000D01*
G37*
G36*
X98200000Y-79000000D02*
G01*
X98200000Y-78600000D01*
X98600000Y-78600000D01*
X98600000Y-79000000D01*
X98200000Y-79000000D01*
G37*
G36*
X98600000Y-79000000D02*
G01*
X98600000Y-78600000D01*
X99000000Y-78600000D01*
X99000000Y-79000000D01*
X98600000Y-79000000D01*
G37*
G36*
X99000000Y-79000000D02*
G01*
X99000000Y-78600000D01*
X99400000Y-78600000D01*
X99400000Y-79000000D01*
X99000000Y-79000000D01*
G37*
G36*
X99400000Y-79000000D02*
G01*
X99400000Y-78600000D01*
X99800000Y-78600000D01*
X99800000Y-79000000D01*
X99400000Y-79000000D01*
G37*
G36*
X99800000Y-79000000D02*
G01*
X99800000Y-78600000D01*
X100200000Y-78600000D01*
X100200000Y-79000000D01*
X99800000Y-79000000D01*
G37*
G36*
X100200000Y-79000000D02*
G01*
X100200000Y-78600000D01*
X100600000Y-78600000D01*
X100600000Y-79000000D01*
X100200000Y-79000000D01*
G37*
G36*
X100600000Y-79000000D02*
G01*
X100600000Y-78600000D01*
X101000000Y-78600000D01*
X101000000Y-79000000D01*
X100600000Y-79000000D01*
G37*
G36*
X101000000Y-79000000D02*
G01*
X101000000Y-78600000D01*
X101400000Y-78600000D01*
X101400000Y-79000000D01*
X101000000Y-79000000D01*
G37*
G36*
X101400000Y-79000000D02*
G01*
X101400000Y-78600000D01*
X101800000Y-78600000D01*
X101800000Y-79000000D01*
X101400000Y-79000000D01*
G37*
G36*
X101800000Y-79000000D02*
G01*
X101800000Y-78600000D01*
X102200000Y-78600000D01*
X102200000Y-79000000D01*
X101800000Y-79000000D01*
G37*
G36*
X102200000Y-79000000D02*
G01*
X102200000Y-78600000D01*
X102600000Y-78600000D01*
X102600000Y-79000000D01*
X102200000Y-79000000D01*
G37*
G36*
X102600000Y-79000000D02*
G01*
X102600000Y-78600000D01*
X103000000Y-78600000D01*
X103000000Y-79000000D01*
X102600000Y-79000000D01*
G37*
G36*
X103000000Y-79000000D02*
G01*
X103000000Y-78600000D01*
X103400000Y-78600000D01*
X103400000Y-79000000D01*
X103000000Y-79000000D01*
G37*
G36*
X103400000Y-79000000D02*
G01*
X103400000Y-78600000D01*
X103800000Y-78600000D01*
X103800000Y-79000000D01*
X103400000Y-79000000D01*
G37*
G36*
X103800000Y-79000000D02*
G01*
X103800000Y-78600000D01*
X104200000Y-78600000D01*
X104200000Y-79000000D01*
X103800000Y-79000000D01*
G37*
G36*
X104200000Y-79000000D02*
G01*
X104200000Y-78600000D01*
X104600000Y-78600000D01*
X104600000Y-79000000D01*
X104200000Y-79000000D01*
G37*
G36*
X104600000Y-79000000D02*
G01*
X104600000Y-78600000D01*
X105000000Y-78600000D01*
X105000000Y-79000000D01*
X104600000Y-79000000D01*
G37*
G36*
X105000000Y-79000000D02*
G01*
X105000000Y-78600000D01*
X105400000Y-78600000D01*
X105400000Y-79000000D01*
X105000000Y-79000000D01*
G37*
G36*
X105400000Y-79000000D02*
G01*
X105400000Y-78600000D01*
X105800000Y-78600000D01*
X105800000Y-79000000D01*
X105400000Y-79000000D01*
G37*
G36*
X105800000Y-79000000D02*
G01*
X105800000Y-78600000D01*
X106200000Y-78600000D01*
X106200000Y-79000000D01*
X105800000Y-79000000D01*
G37*
G36*
X106200000Y-79000000D02*
G01*
X106200000Y-78600000D01*
X106600000Y-78600000D01*
X106600000Y-79000000D01*
X106200000Y-79000000D01*
G37*
G36*
X106600000Y-79000000D02*
G01*
X106600000Y-78600000D01*
X107000000Y-78600000D01*
X107000000Y-79000000D01*
X106600000Y-79000000D01*
G37*
G36*
X107000000Y-79000000D02*
G01*
X107000000Y-78600000D01*
X107400000Y-78600000D01*
X107400000Y-79000000D01*
X107000000Y-79000000D01*
G37*
D12*
X92190000Y-103570000D02*
X92190000Y-112690000D01*
X92190000Y-112690000D02*
X107690000Y-112690000D01*
X107690000Y-112690000D02*
X107690000Y-103570000D01*
X107690000Y-103570000D02*
X92190000Y-103570000D01*
X97890000Y-103570000D02*
X97890000Y-104880000D01*
X97890000Y-104880000D02*
X93490000Y-104880000D01*
X93490000Y-104880000D02*
X93490000Y-111380000D01*
X93490000Y-111380000D02*
X106390000Y-111380000D01*
X106390000Y-111380000D02*
X106390000Y-104880000D01*
X106390000Y-104880000D02*
X101990000Y-104880000D01*
X101990000Y-104880000D02*
X101990000Y-104880000D01*
X101990000Y-104880000D02*
X101990000Y-103570000D01*
X97400000Y-103180000D02*
X96900000Y-102180000D01*
X96900000Y-102180000D02*
X97900000Y-102180000D01*
X97900000Y-102180000D02*
X97400000Y-103180000D01*
M02*
