G04 #@! TF.GenerationSoftware,KiCad,Pcbnew,(5.1.6)-1*
G04 #@! TF.CreationDate,2020-09-12T14:33:07+01:00*
G04 #@! TF.ProjectId,teatime,74656174-696d-4652-9e6b-696361645f70,rev?*
G04 #@! TF.SameCoordinates,Original*
G04 #@! TF.FileFunction,Copper,L1,Top*
G04 #@! TF.FilePolarity,Positive*
%FSLAX46Y46*%
G04 Gerber Fmt 4.6, Leading zero omitted, Abs format (unit mm)*
G04 Created by KiCad (PCBNEW (5.1.6)-1) date 2020-09-12 14:33:07*
%MOMM*%
%LPD*%
G01*
G04 APERTURE LIST*
G04 #@! TA.AperFunction,SMDPad,CuDef*
%ADD10C,0.100000*%
G04 #@! TD*
G04 #@! TA.AperFunction,SMDPad,CuDef*
%ADD11C,0.750000*%
G04 #@! TD*
G04 #@! TA.AperFunction,SMDPad,CuDef*
%ADD12R,1.100000X2.500000*%
G04 #@! TD*
G04 #@! TA.AperFunction,ComponentPad*
%ADD13O,1.900000X3.500000*%
G04 #@! TD*
G04 #@! TA.AperFunction,ComponentPad*
%ADD14C,1.700000*%
G04 #@! TD*
G04 #@! TA.AperFunction,ComponentPad*
%ADD15C,2.000000*%
G04 #@! TD*
G04 #@! TA.AperFunction,SMDPad,CuDef*
%ADD16R,0.650000X1.700000*%
G04 #@! TD*
G04 #@! TA.AperFunction,SMDPad,CuDef*
%ADD17R,0.900000X0.800000*%
G04 #@! TD*
G04 #@! TA.AperFunction,ViaPad*
%ADD18C,0.600000*%
G04 #@! TD*
G04 #@! TA.AperFunction,Conductor*
%ADD19C,0.500000*%
G04 #@! TD*
G04 #@! TA.AperFunction,Conductor*
%ADD20C,0.200000*%
G04 #@! TD*
G04 #@! TA.AperFunction,Conductor*
%ADD21C,1.000000*%
G04 #@! TD*
G04 APERTURE END LIST*
G04 #@! TA.AperFunction,SMDPad,CuDef*
G36*
G01*
X102400000Y-91556250D02*
X102400000Y-91043750D01*
G75*
G02*
X102618750Y-90825000I218750J0D01*
G01*
X103056250Y-90825000D01*
G75*
G02*
X103275000Y-91043750I0J-218750D01*
G01*
X103275000Y-91556250D01*
G75*
G02*
X103056250Y-91775000I-218750J0D01*
G01*
X102618750Y-91775000D01*
G75*
G02*
X102400000Y-91556250I0J218750D01*
G01*
G37*
G04 #@! TD.AperFunction*
G04 #@! TA.AperFunction,SMDPad,CuDef*
G36*
G01*
X100825000Y-91556250D02*
X100825000Y-91043750D01*
G75*
G02*
X101043750Y-90825000I218750J0D01*
G01*
X101481250Y-90825000D01*
G75*
G02*
X101700000Y-91043750I0J-218750D01*
G01*
X101700000Y-91556250D01*
G75*
G02*
X101481250Y-91775000I-218750J0D01*
G01*
X101043750Y-91775000D01*
G75*
G02*
X100825000Y-91556250I0J218750D01*
G01*
G37*
G04 #@! TD.AperFunction*
G04 #@! TA.AperFunction,SMDPad,CuDef*
D10*
G36*
X98450000Y-119649398D02*
G01*
X98425466Y-119649398D01*
X98376635Y-119644588D01*
X98328510Y-119635016D01*
X98281555Y-119620772D01*
X98236222Y-119601995D01*
X98192949Y-119578864D01*
X98152150Y-119551604D01*
X98114221Y-119520476D01*
X98079524Y-119485779D01*
X98048396Y-119447850D01*
X98021136Y-119407051D01*
X97998005Y-119363778D01*
X97979228Y-119318445D01*
X97964984Y-119271490D01*
X97955412Y-119223365D01*
X97950602Y-119174534D01*
X97950602Y-119150000D01*
X97950000Y-119150000D01*
X97950000Y-118650000D01*
X97950602Y-118650000D01*
X97950602Y-118625466D01*
X97955412Y-118576635D01*
X97964984Y-118528510D01*
X97979228Y-118481555D01*
X97998005Y-118436222D01*
X98021136Y-118392949D01*
X98048396Y-118352150D01*
X98079524Y-118314221D01*
X98114221Y-118279524D01*
X98152150Y-118248396D01*
X98192949Y-118221136D01*
X98236222Y-118198005D01*
X98281555Y-118179228D01*
X98328510Y-118164984D01*
X98376635Y-118155412D01*
X98425466Y-118150602D01*
X98450000Y-118150602D01*
X98450000Y-118150000D01*
X98950000Y-118150000D01*
X98950000Y-119650000D01*
X98450000Y-119650000D01*
X98450000Y-119649398D01*
G37*
G04 #@! TD.AperFunction*
G04 #@! TA.AperFunction,SMDPad,CuDef*
G36*
X99250000Y-118150000D02*
G01*
X99750000Y-118150000D01*
X99750000Y-118150602D01*
X99774534Y-118150602D01*
X99823365Y-118155412D01*
X99871490Y-118164984D01*
X99918445Y-118179228D01*
X99963778Y-118198005D01*
X100007051Y-118221136D01*
X100047850Y-118248396D01*
X100085779Y-118279524D01*
X100120476Y-118314221D01*
X100151604Y-118352150D01*
X100178864Y-118392949D01*
X100201995Y-118436222D01*
X100220772Y-118481555D01*
X100235016Y-118528510D01*
X100244588Y-118576635D01*
X100249398Y-118625466D01*
X100249398Y-118650000D01*
X100250000Y-118650000D01*
X100250000Y-119150000D01*
X100249398Y-119150000D01*
X100249398Y-119174534D01*
X100244588Y-119223365D01*
X100235016Y-119271490D01*
X100220772Y-119318445D01*
X100201995Y-119363778D01*
X100178864Y-119407051D01*
X100151604Y-119447850D01*
X100120476Y-119485779D01*
X100085779Y-119520476D01*
X100047850Y-119551604D01*
X100007051Y-119578864D01*
X99963778Y-119601995D01*
X99918445Y-119620772D01*
X99871490Y-119635016D01*
X99823365Y-119644588D01*
X99774534Y-119649398D01*
X99750000Y-119649398D01*
X99750000Y-119650000D01*
X99250000Y-119650000D01*
X99250000Y-118150000D01*
G37*
G04 #@! TD.AperFunction*
D11*
X108000000Y-86000000D03*
X86000000Y-92000000D03*
X100000000Y-131000000D03*
D12*
X101000000Y-127350000D03*
X99000000Y-127350000D03*
X103500000Y-127350000D03*
X96500000Y-127350000D03*
D13*
X105700000Y-130100000D03*
X94300000Y-130100000D03*
G04 #@! TA.AperFunction,SMDPad,CuDef*
G36*
G01*
X112976363Y-93097684D02*
X113188495Y-93309816D01*
G75*
G02*
X113188495Y-93521948I-106066J-106066D01*
G01*
X112021769Y-94688674D01*
G75*
G02*
X111809637Y-94688674I-106066J106066D01*
G01*
X111597505Y-94476542D01*
G75*
G02*
X111597505Y-94264410I106066J106066D01*
G01*
X112764231Y-93097684D01*
G75*
G02*
X112976363Y-93097684I106066J-106066D01*
G01*
G37*
G04 #@! TD.AperFunction*
G04 #@! TA.AperFunction,SMDPad,CuDef*
G36*
G01*
X112078338Y-92199658D02*
X112290470Y-92411790D01*
G75*
G02*
X112290470Y-92623922I-106066J-106066D01*
G01*
X111123744Y-93790648D01*
G75*
G02*
X110911612Y-93790648I-106066J106066D01*
G01*
X110699480Y-93578516D01*
G75*
G02*
X110699480Y-93366384I106066J106066D01*
G01*
X111866206Y-92199658D01*
G75*
G02*
X112078338Y-92199658I106066J-106066D01*
G01*
G37*
G04 #@! TD.AperFunction*
G04 #@! TA.AperFunction,SMDPad,CuDef*
G36*
G01*
X111180312Y-91301633D02*
X111392444Y-91513765D01*
G75*
G02*
X111392444Y-91725897I-106066J-106066D01*
G01*
X110225718Y-92892623D01*
G75*
G02*
X110013586Y-92892623I-106066J106066D01*
G01*
X109801454Y-92680491D01*
G75*
G02*
X109801454Y-92468359I106066J106066D01*
G01*
X110968180Y-91301633D01*
G75*
G02*
X111180312Y-91301633I106066J-106066D01*
G01*
G37*
G04 #@! TD.AperFunction*
G04 #@! TA.AperFunction,SMDPad,CuDef*
G36*
G01*
X110282287Y-90403607D02*
X110494419Y-90615739D01*
G75*
G02*
X110494419Y-90827871I-106066J-106066D01*
G01*
X109327693Y-91994597D01*
G75*
G02*
X109115561Y-91994597I-106066J106066D01*
G01*
X108903429Y-91782465D01*
G75*
G02*
X108903429Y-91570333I106066J106066D01*
G01*
X110070155Y-90403607D01*
G75*
G02*
X110282287Y-90403607I106066J-106066D01*
G01*
G37*
G04 #@! TD.AperFunction*
G04 #@! TA.AperFunction,SMDPad,CuDef*
G36*
G01*
X109384261Y-89505581D02*
X109596393Y-89717713D01*
G75*
G02*
X109596393Y-89929845I-106066J-106066D01*
G01*
X108429667Y-91096571D01*
G75*
G02*
X108217535Y-91096571I-106066J106066D01*
G01*
X108005403Y-90884439D01*
G75*
G02*
X108005403Y-90672307I106066J106066D01*
G01*
X109172129Y-89505581D01*
G75*
G02*
X109384261Y-89505581I106066J-106066D01*
G01*
G37*
G04 #@! TD.AperFunction*
G04 #@! TA.AperFunction,SMDPad,CuDef*
G36*
G01*
X108486235Y-88607556D02*
X108698367Y-88819688D01*
G75*
G02*
X108698367Y-89031820I-106066J-106066D01*
G01*
X107531641Y-90198546D01*
G75*
G02*
X107319509Y-90198546I-106066J106066D01*
G01*
X107107377Y-89986414D01*
G75*
G02*
X107107377Y-89774282I106066J106066D01*
G01*
X108274103Y-88607556D01*
G75*
G02*
X108486235Y-88607556I106066J-106066D01*
G01*
G37*
G04 #@! TD.AperFunction*
G04 #@! TA.AperFunction,SMDPad,CuDef*
G36*
G01*
X107588210Y-87709530D02*
X107800342Y-87921662D01*
G75*
G02*
X107800342Y-88133794I-106066J-106066D01*
G01*
X106633616Y-89300520D01*
G75*
G02*
X106421484Y-89300520I-106066J106066D01*
G01*
X106209352Y-89088388D01*
G75*
G02*
X106209352Y-88876256I106066J106066D01*
G01*
X107376078Y-87709530D01*
G75*
G02*
X107588210Y-87709530I106066J-106066D01*
G01*
G37*
G04 #@! TD.AperFunction*
G04 #@! TA.AperFunction,SMDPad,CuDef*
G36*
G01*
X106690184Y-86811505D02*
X106902316Y-87023637D01*
G75*
G02*
X106902316Y-87235769I-106066J-106066D01*
G01*
X105735590Y-88402495D01*
G75*
G02*
X105523458Y-88402495I-106066J106066D01*
G01*
X105311326Y-88190363D01*
G75*
G02*
X105311326Y-87978231I106066J106066D01*
G01*
X106478052Y-86811505D01*
G75*
G02*
X106690184Y-86811505I106066J-106066D01*
G01*
G37*
G04 #@! TD.AperFunction*
G04 #@! TA.AperFunction,SMDPad,CuDef*
G36*
G01*
X110190363Y-83311326D02*
X110402495Y-83523458D01*
G75*
G02*
X110402495Y-83735590I-106066J-106066D01*
G01*
X109235769Y-84902316D01*
G75*
G02*
X109023637Y-84902316I-106066J106066D01*
G01*
X108811505Y-84690184D01*
G75*
G02*
X108811505Y-84478052I106066J106066D01*
G01*
X109978231Y-83311326D01*
G75*
G02*
X110190363Y-83311326I106066J-106066D01*
G01*
G37*
G04 #@! TD.AperFunction*
G04 #@! TA.AperFunction,SMDPad,CuDef*
G36*
G01*
X111088388Y-84209352D02*
X111300520Y-84421484D01*
G75*
G02*
X111300520Y-84633616I-106066J-106066D01*
G01*
X110133794Y-85800342D01*
G75*
G02*
X109921662Y-85800342I-106066J106066D01*
G01*
X109709530Y-85588210D01*
G75*
G02*
X109709530Y-85376078I106066J106066D01*
G01*
X110876256Y-84209352D01*
G75*
G02*
X111088388Y-84209352I106066J-106066D01*
G01*
G37*
G04 #@! TD.AperFunction*
G04 #@! TA.AperFunction,SMDPad,CuDef*
G36*
G01*
X111986414Y-85107377D02*
X112198546Y-85319509D01*
G75*
G02*
X112198546Y-85531641I-106066J-106066D01*
G01*
X111031820Y-86698367D01*
G75*
G02*
X110819688Y-86698367I-106066J106066D01*
G01*
X110607556Y-86486235D01*
G75*
G02*
X110607556Y-86274103I106066J106066D01*
G01*
X111774282Y-85107377D01*
G75*
G02*
X111986414Y-85107377I106066J-106066D01*
G01*
G37*
G04 #@! TD.AperFunction*
G04 #@! TA.AperFunction,SMDPad,CuDef*
G36*
G01*
X112884439Y-86005403D02*
X113096571Y-86217535D01*
G75*
G02*
X113096571Y-86429667I-106066J-106066D01*
G01*
X111929845Y-87596393D01*
G75*
G02*
X111717713Y-87596393I-106066J106066D01*
G01*
X111505581Y-87384261D01*
G75*
G02*
X111505581Y-87172129I106066J106066D01*
G01*
X112672307Y-86005403D01*
G75*
G02*
X112884439Y-86005403I106066J-106066D01*
G01*
G37*
G04 #@! TD.AperFunction*
G04 #@! TA.AperFunction,SMDPad,CuDef*
G36*
G01*
X113782465Y-86903429D02*
X113994597Y-87115561D01*
G75*
G02*
X113994597Y-87327693I-106066J-106066D01*
G01*
X112827871Y-88494419D01*
G75*
G02*
X112615739Y-88494419I-106066J106066D01*
G01*
X112403607Y-88282287D01*
G75*
G02*
X112403607Y-88070155I106066J106066D01*
G01*
X113570333Y-86903429D01*
G75*
G02*
X113782465Y-86903429I106066J-106066D01*
G01*
G37*
G04 #@! TD.AperFunction*
G04 #@! TA.AperFunction,SMDPad,CuDef*
G36*
G01*
X114680491Y-87801454D02*
X114892623Y-88013586D01*
G75*
G02*
X114892623Y-88225718I-106066J-106066D01*
G01*
X113725897Y-89392444D01*
G75*
G02*
X113513765Y-89392444I-106066J106066D01*
G01*
X113301633Y-89180312D01*
G75*
G02*
X113301633Y-88968180I106066J106066D01*
G01*
X114468359Y-87801454D01*
G75*
G02*
X114680491Y-87801454I106066J-106066D01*
G01*
G37*
G04 #@! TD.AperFunction*
G04 #@! TA.AperFunction,SMDPad,CuDef*
G36*
G01*
X115578516Y-88699480D02*
X115790648Y-88911612D01*
G75*
G02*
X115790648Y-89123744I-106066J-106066D01*
G01*
X114623922Y-90290470D01*
G75*
G02*
X114411790Y-90290470I-106066J106066D01*
G01*
X114199658Y-90078338D01*
G75*
G02*
X114199658Y-89866206I106066J106066D01*
G01*
X115366384Y-88699480D01*
G75*
G02*
X115578516Y-88699480I106066J-106066D01*
G01*
G37*
G04 #@! TD.AperFunction*
G04 #@! TA.AperFunction,SMDPad,CuDef*
G36*
G01*
X116476542Y-89597505D02*
X116688674Y-89809637D01*
G75*
G02*
X116688674Y-90021769I-106066J-106066D01*
G01*
X115521948Y-91188495D01*
G75*
G02*
X115309816Y-91188495I-106066J106066D01*
G01*
X115097684Y-90976363D01*
G75*
G02*
X115097684Y-90764231I106066J106066D01*
G01*
X116264410Y-89597505D01*
G75*
G02*
X116476542Y-89597505I106066J-106066D01*
G01*
G37*
G04 #@! TD.AperFunction*
G04 #@! TA.AperFunction,SMDPad,CuDef*
G36*
G01*
X103550000Y-112756250D02*
X103550000Y-112243750D01*
G75*
G02*
X103768750Y-112025000I218750J0D01*
G01*
X104206250Y-112025000D01*
G75*
G02*
X104425000Y-112243750I0J-218750D01*
G01*
X104425000Y-112756250D01*
G75*
G02*
X104206250Y-112975000I-218750J0D01*
G01*
X103768750Y-112975000D01*
G75*
G02*
X103550000Y-112756250I0J218750D01*
G01*
G37*
G04 #@! TD.AperFunction*
G04 #@! TA.AperFunction,SMDPad,CuDef*
G36*
G01*
X101975000Y-112756250D02*
X101975000Y-112243750D01*
G75*
G02*
X102193750Y-112025000I218750J0D01*
G01*
X102631250Y-112025000D01*
G75*
G02*
X102850000Y-112243750I0J-218750D01*
G01*
X102850000Y-112756250D01*
G75*
G02*
X102631250Y-112975000I-218750J0D01*
G01*
X102193750Y-112975000D01*
G75*
G02*
X101975000Y-112756250I0J218750D01*
G01*
G37*
G04 #@! TD.AperFunction*
G04 #@! TA.AperFunction,SMDPad,CuDef*
G36*
G01*
X99550000Y-112343750D02*
X99550000Y-113256250D01*
G75*
G02*
X99306250Y-113500000I-243750J0D01*
G01*
X98818750Y-113500000D01*
G75*
G02*
X98575000Y-113256250I0J243750D01*
G01*
X98575000Y-112343750D01*
G75*
G02*
X98818750Y-112100000I243750J0D01*
G01*
X99306250Y-112100000D01*
G75*
G02*
X99550000Y-112343750I0J-243750D01*
G01*
G37*
G04 #@! TD.AperFunction*
G04 #@! TA.AperFunction,SMDPad,CuDef*
G36*
G01*
X101425000Y-112343750D02*
X101425000Y-113256250D01*
G75*
G02*
X101181250Y-113500000I-243750J0D01*
G01*
X100693750Y-113500000D01*
G75*
G02*
X100450000Y-113256250I0J243750D01*
G01*
X100450000Y-112343750D01*
G75*
G02*
X100693750Y-112100000I243750J0D01*
G01*
X101181250Y-112100000D01*
G75*
G02*
X101425000Y-112343750I0J-243750D01*
G01*
G37*
G04 #@! TD.AperFunction*
D14*
X102480000Y-109400000D03*
X99940000Y-109400000D03*
X97400000Y-109400000D03*
X102480000Y-106860000D03*
X99940000Y-106860000D03*
G04 #@! TA.AperFunction,ComponentPad*
G36*
G01*
X96800000Y-106010000D02*
X98000000Y-106010000D01*
G75*
G02*
X98250000Y-106260000I0J-250000D01*
G01*
X98250000Y-107460000D01*
G75*
G02*
X98000000Y-107710000I-250000J0D01*
G01*
X96800000Y-107710000D01*
G75*
G02*
X96550000Y-107460000I0J250000D01*
G01*
X96550000Y-106260000D01*
G75*
G02*
X96800000Y-106010000I250000J0D01*
G01*
G37*
G04 #@! TD.AperFunction*
G04 #@! TA.AperFunction,SMDPad,CuDef*
G36*
G01*
X105119896Y-76599202D02*
X104224929Y-76421181D01*
G75*
G02*
X104033416Y-76134562I47553J239066D01*
G01*
X104128523Y-75656430D01*
G75*
G02*
X104415142Y-75464917I239066J-47553D01*
G01*
X105310109Y-75642937D01*
G75*
G02*
X105501622Y-75929556I-47553J-239066D01*
G01*
X105406515Y-76407688D01*
G75*
G02*
X105119896Y-76599201I-239066J47553D01*
G01*
G37*
G04 #@! TD.AperFunction*
G04 #@! TA.AperFunction,SMDPad,CuDef*
G36*
G01*
X104754102Y-78438174D02*
X103859135Y-78260153D01*
G75*
G02*
X103667622Y-77973534I47553J239066D01*
G01*
X103762729Y-77495402D01*
G75*
G02*
X104049348Y-77303889I239066J-47553D01*
G01*
X104944315Y-77481909D01*
G75*
G02*
X105135828Y-77768528I-47553J-239066D01*
G01*
X105040721Y-78246660D01*
G75*
G02*
X104754102Y-78438173I-239066J47553D01*
G01*
G37*
G04 #@! TD.AperFunction*
G04 #@! TA.AperFunction,SMDPad,CuDef*
G36*
G01*
X109586788Y-78047684D02*
X108743748Y-77698485D01*
G75*
G02*
X108611831Y-77380010I93279J225196D01*
G01*
X108798389Y-76929619D01*
G75*
G02*
X109116864Y-76797702I225196J-93279D01*
G01*
X109959904Y-77146901D01*
G75*
G02*
X110091821Y-77465376I-93279J-225196D01*
G01*
X109905263Y-77915767D01*
G75*
G02*
X109586788Y-78047684I-225196J93279D01*
G01*
G37*
G04 #@! TD.AperFunction*
G04 #@! TA.AperFunction,SMDPad,CuDef*
G36*
G01*
X108869256Y-79779958D02*
X108026216Y-79430759D01*
G75*
G02*
X107894299Y-79112284I93279J225196D01*
G01*
X108080857Y-78661893D01*
G75*
G02*
X108399332Y-78529976I225196J-93279D01*
G01*
X109242372Y-78879175D01*
G75*
G02*
X109374289Y-79197650I-93279J-225196D01*
G01*
X109187731Y-79648041D01*
G75*
G02*
X108869256Y-79779958I-225196J93279D01*
G01*
G37*
G04 #@! TD.AperFunction*
G04 #@! TA.AperFunction,SMDPad,CuDef*
G36*
G01*
X113685265Y-80339781D02*
X112926549Y-79832824D01*
G75*
G02*
X112859298Y-79494733I135420J202671D01*
G01*
X113130138Y-79089391D01*
G75*
G02*
X113468229Y-79022140I202671J-135420D01*
G01*
X114226945Y-79529098D01*
G75*
G02*
X114294196Y-79867189I-135420J-202671D01*
G01*
X114023356Y-80272531D01*
G75*
G02*
X113685265Y-80339782I-202671J135420D01*
G01*
G37*
G04 #@! TD.AperFunction*
G04 #@! TA.AperFunction,SMDPad,CuDef*
G36*
G01*
X112643571Y-81898787D02*
X111884855Y-81391830D01*
G75*
G02*
X111817604Y-81053739I135420J202671D01*
G01*
X112088444Y-80648397D01*
G75*
G02*
X112426535Y-80581146I202671J-135420D01*
G01*
X113185251Y-81088104D01*
G75*
G02*
X113252502Y-81426195I-135420J-202671D01*
G01*
X112981662Y-81831537D01*
G75*
G02*
X112643571Y-81898788I-202671J135420D01*
G01*
G37*
G04 #@! TD.AperFunction*
G04 #@! TA.AperFunction,SMDPad,CuDef*
G36*
G01*
X117257825Y-83387409D02*
X116612590Y-82742174D01*
G75*
G02*
X116612590Y-82397460I172357J172357D01*
G01*
X116957305Y-82052745D01*
G75*
G02*
X117302019Y-82052745I172357J-172357D01*
G01*
X117947254Y-82697980D01*
G75*
G02*
X117947254Y-83042694I-172357J-172357D01*
G01*
X117602539Y-83387409D01*
G75*
G02*
X117257825Y-83387409I-172357J172357D01*
G01*
G37*
G04 #@! TD.AperFunction*
G04 #@! TA.AperFunction,SMDPad,CuDef*
G36*
G01*
X115931999Y-84713235D02*
X115286764Y-84068000D01*
G75*
G02*
X115286764Y-83723286I172357J172357D01*
G01*
X115631479Y-83378571D01*
G75*
G02*
X115976193Y-83378571I172357J-172357D01*
G01*
X116621428Y-84023806D01*
G75*
G02*
X116621428Y-84368520I-172357J-172357D01*
G01*
X116276713Y-84713235D01*
G75*
G02*
X115931999Y-84713235I-172357J172357D01*
G01*
G37*
G04 #@! TD.AperFunction*
G04 #@! TA.AperFunction,SMDPad,CuDef*
G36*
G01*
X120167175Y-87073450D02*
X119660217Y-86314734D01*
G75*
G02*
X119727468Y-85976643I202671J135420D01*
G01*
X120132810Y-85705803D01*
G75*
G02*
X120470901Y-85773054I135420J-202671D01*
G01*
X120977859Y-86531770D01*
G75*
G02*
X120910608Y-86869861I-202671J-135420D01*
G01*
X120505266Y-87140701D01*
G75*
G02*
X120167175Y-87073450I-135420J202671D01*
G01*
G37*
G04 #@! TD.AperFunction*
G04 #@! TA.AperFunction,SMDPad,CuDef*
G36*
G01*
X118608169Y-88115144D02*
X118101211Y-87356428D01*
G75*
G02*
X118168462Y-87018337I202671J135420D01*
G01*
X118573804Y-86747497D01*
G75*
G02*
X118911895Y-86814748I135420J-202671D01*
G01*
X119418853Y-87573464D01*
G75*
G02*
X119351602Y-87911555I-202671J-135420D01*
G01*
X118946260Y-88182395D01*
G75*
G02*
X118608169Y-88115144I-135420J202671D01*
G01*
G37*
G04 #@! TD.AperFunction*
G04 #@! TA.AperFunction,SMDPad,CuDef*
G36*
G01*
X122301514Y-91256251D02*
X121952315Y-90413211D01*
G75*
G02*
X122084232Y-90094736I225196J93279D01*
G01*
X122534623Y-89908178D01*
G75*
G02*
X122853098Y-90040095I93279J-225196D01*
G01*
X123202297Y-90883135D01*
G75*
G02*
X123070380Y-91201610I-225196J-93279D01*
G01*
X122619989Y-91388168D01*
G75*
G02*
X122301514Y-91256251I-93279J225196D01*
G01*
G37*
G04 #@! TD.AperFunction*
G04 #@! TA.AperFunction,SMDPad,CuDef*
G36*
G01*
X120569240Y-91973783D02*
X120220041Y-91130743D01*
G75*
G02*
X120351958Y-90812268I225196J93279D01*
G01*
X120802349Y-90625710D01*
G75*
G02*
X121120824Y-90757627I93279J-225196D01*
G01*
X121470023Y-91600667D01*
G75*
G02*
X121338106Y-91919142I-225196J-93279D01*
G01*
X120887715Y-92105700D01*
G75*
G02*
X120569240Y-91973783I-93279J225196D01*
G01*
G37*
G04 #@! TD.AperFunction*
G04 #@! TA.AperFunction,SMDPad,CuDef*
G36*
G01*
X123578817Y-95775070D02*
X123400798Y-94880103D01*
G75*
G02*
X123592311Y-94593484I239066J47553D01*
G01*
X124070443Y-94498377D01*
G75*
G02*
X124357062Y-94689890I47553J-239066D01*
G01*
X124535082Y-95584857D01*
G75*
G02*
X124343569Y-95871476I-239066J-47553D01*
G01*
X123865437Y-95966583D01*
G75*
G02*
X123578818Y-95775070I-47553J239066D01*
G01*
G37*
G04 #@! TD.AperFunction*
G04 #@! TA.AperFunction,SMDPad,CuDef*
G36*
G01*
X121739845Y-96140864D02*
X121561826Y-95245897D01*
G75*
G02*
X121753339Y-94959278I239066J47553D01*
G01*
X122231471Y-94864171D01*
G75*
G02*
X122518090Y-95055684I47553J-239066D01*
G01*
X122696110Y-95950651D01*
G75*
G02*
X122504597Y-96237270I-239066J-47553D01*
G01*
X122026465Y-96332377D01*
G75*
G02*
X121739846Y-96140864I-47553J239066D01*
G01*
G37*
G04 #@! TD.AperFunction*
G04 #@! TA.AperFunction,SMDPad,CuDef*
G36*
G01*
X123950000Y-100456250D02*
X123950000Y-99543750D01*
G75*
G02*
X124193750Y-99300000I243750J0D01*
G01*
X124681250Y-99300000D01*
G75*
G02*
X124925000Y-99543750I0J-243750D01*
G01*
X124925000Y-100456250D01*
G75*
G02*
X124681250Y-100700000I-243750J0D01*
G01*
X124193750Y-100700000D01*
G75*
G02*
X123950000Y-100456250I0J243750D01*
G01*
G37*
G04 #@! TD.AperFunction*
G04 #@! TA.AperFunction,SMDPad,CuDef*
G36*
G01*
X122075000Y-100456250D02*
X122075000Y-99543750D01*
G75*
G02*
X122318750Y-99300000I243750J0D01*
G01*
X122806250Y-99300000D01*
G75*
G02*
X123050000Y-99543750I0J-243750D01*
G01*
X123050000Y-100456250D01*
G75*
G02*
X122806250Y-100700000I-243750J0D01*
G01*
X122318750Y-100700000D01*
G75*
G02*
X122075000Y-100456250I0J243750D01*
G01*
G37*
G04 #@! TD.AperFunction*
G04 #@! TA.AperFunction,SMDPad,CuDef*
G36*
G01*
X123400797Y-105119896D02*
X123578818Y-104224929D01*
G75*
G02*
X123865437Y-104033416I239066J-47553D01*
G01*
X124343569Y-104128523D01*
G75*
G02*
X124535082Y-104415142I-47553J-239066D01*
G01*
X124357062Y-105310109D01*
G75*
G02*
X124070443Y-105501622I-239066J47553D01*
G01*
X123592311Y-105406515D01*
G75*
G02*
X123400798Y-105119896I47553J239066D01*
G01*
G37*
G04 #@! TD.AperFunction*
G04 #@! TA.AperFunction,SMDPad,CuDef*
G36*
G01*
X121561825Y-104754102D02*
X121739846Y-103859135D01*
G75*
G02*
X122026465Y-103667622I239066J-47553D01*
G01*
X122504597Y-103762729D01*
G75*
G02*
X122696110Y-104049348I-47553J-239066D01*
G01*
X122518090Y-104944315D01*
G75*
G02*
X122231471Y-105135828I-239066J47553D01*
G01*
X121753339Y-105040721D01*
G75*
G02*
X121561826Y-104754102I47553J239066D01*
G01*
G37*
G04 #@! TD.AperFunction*
G04 #@! TA.AperFunction,SMDPad,CuDef*
G36*
G01*
X121952315Y-109586788D02*
X122301514Y-108743748D01*
G75*
G02*
X122619989Y-108611831I225196J-93279D01*
G01*
X123070380Y-108798389D01*
G75*
G02*
X123202297Y-109116864I-93279J-225196D01*
G01*
X122853098Y-109959904D01*
G75*
G02*
X122534623Y-110091821I-225196J93279D01*
G01*
X122084232Y-109905263D01*
G75*
G02*
X121952315Y-109586788I93279J225196D01*
G01*
G37*
G04 #@! TD.AperFunction*
G04 #@! TA.AperFunction,SMDPad,CuDef*
G36*
G01*
X120220041Y-108869256D02*
X120569240Y-108026216D01*
G75*
G02*
X120887715Y-107894299I225196J-93279D01*
G01*
X121338106Y-108080857D01*
G75*
G02*
X121470023Y-108399332I-93279J-225196D01*
G01*
X121120824Y-109242372D01*
G75*
G02*
X120802349Y-109374289I-225196J93279D01*
G01*
X120351958Y-109187731D01*
G75*
G02*
X120220041Y-108869256I93279J225196D01*
G01*
G37*
G04 #@! TD.AperFunction*
G04 #@! TA.AperFunction,SMDPad,CuDef*
G36*
G01*
X119660218Y-113685265D02*
X120167175Y-112926549D01*
G75*
G02*
X120505266Y-112859298I202671J-135420D01*
G01*
X120910608Y-113130138D01*
G75*
G02*
X120977859Y-113468229I-135420J-202671D01*
G01*
X120470901Y-114226945D01*
G75*
G02*
X120132810Y-114294196I-202671J135420D01*
G01*
X119727468Y-114023356D01*
G75*
G02*
X119660217Y-113685265I135420J202671D01*
G01*
G37*
G04 #@! TD.AperFunction*
G04 #@! TA.AperFunction,SMDPad,CuDef*
G36*
G01*
X118101212Y-112643571D02*
X118608169Y-111884855D01*
G75*
G02*
X118946260Y-111817604I202671J-135420D01*
G01*
X119351602Y-112088444D01*
G75*
G02*
X119418853Y-112426535I-135420J-202671D01*
G01*
X118911895Y-113185251D01*
G75*
G02*
X118573804Y-113252502I-202671J135420D01*
G01*
X118168462Y-112981662D01*
G75*
G02*
X118101211Y-112643571I135420J202671D01*
G01*
G37*
G04 #@! TD.AperFunction*
G04 #@! TA.AperFunction,SMDPad,CuDef*
G36*
G01*
X116612590Y-117257825D02*
X117257825Y-116612590D01*
G75*
G02*
X117602539Y-116612590I172357J-172357D01*
G01*
X117947254Y-116957305D01*
G75*
G02*
X117947254Y-117302019I-172357J-172357D01*
G01*
X117302019Y-117947254D01*
G75*
G02*
X116957305Y-117947254I-172357J172357D01*
G01*
X116612590Y-117602539D01*
G75*
G02*
X116612590Y-117257825I172357J172357D01*
G01*
G37*
G04 #@! TD.AperFunction*
G04 #@! TA.AperFunction,SMDPad,CuDef*
G36*
G01*
X115286764Y-115931999D02*
X115931999Y-115286764D01*
G75*
G02*
X116276713Y-115286764I172357J-172357D01*
G01*
X116621428Y-115631479D01*
G75*
G02*
X116621428Y-115976193I-172357J-172357D01*
G01*
X115976193Y-116621428D01*
G75*
G02*
X115631479Y-116621428I-172357J172357D01*
G01*
X115286764Y-116276713D01*
G75*
G02*
X115286764Y-115931999I172357J172357D01*
G01*
G37*
G04 #@! TD.AperFunction*
G04 #@! TA.AperFunction,SMDPad,CuDef*
G36*
G01*
X112926549Y-120167175D02*
X113685265Y-119660217D01*
G75*
G02*
X114023356Y-119727468I135420J-202671D01*
G01*
X114294196Y-120132810D01*
G75*
G02*
X114226945Y-120470901I-202671J-135420D01*
G01*
X113468229Y-120977859D01*
G75*
G02*
X113130138Y-120910608I-135420J202671D01*
G01*
X112859298Y-120505266D01*
G75*
G02*
X112926549Y-120167175I202671J135420D01*
G01*
G37*
G04 #@! TD.AperFunction*
G04 #@! TA.AperFunction,SMDPad,CuDef*
G36*
G01*
X111884855Y-118608169D02*
X112643571Y-118101211D01*
G75*
G02*
X112981662Y-118168462I135420J-202671D01*
G01*
X113252502Y-118573804D01*
G75*
G02*
X113185251Y-118911895I-202671J-135420D01*
G01*
X112426535Y-119418853D01*
G75*
G02*
X112088444Y-119351602I-135420J202671D01*
G01*
X111817604Y-118946260D01*
G75*
G02*
X111884855Y-118608169I202671J135420D01*
G01*
G37*
G04 #@! TD.AperFunction*
G04 #@! TA.AperFunction,SMDPad,CuDef*
G36*
G01*
X108743748Y-122301514D02*
X109586788Y-121952315D01*
G75*
G02*
X109905263Y-122084232I93279J-225196D01*
G01*
X110091821Y-122534623D01*
G75*
G02*
X109959904Y-122853098I-225196J-93279D01*
G01*
X109116864Y-123202297D01*
G75*
G02*
X108798389Y-123070380I-93279J225196D01*
G01*
X108611831Y-122619989D01*
G75*
G02*
X108743748Y-122301514I225196J93279D01*
G01*
G37*
G04 #@! TD.AperFunction*
G04 #@! TA.AperFunction,SMDPad,CuDef*
G36*
G01*
X108026216Y-120569240D02*
X108869256Y-120220041D01*
G75*
G02*
X109187731Y-120351958I93279J-225196D01*
G01*
X109374289Y-120802349D01*
G75*
G02*
X109242372Y-121120824I-225196J-93279D01*
G01*
X108399332Y-121470023D01*
G75*
G02*
X108080857Y-121338106I-93279J225196D01*
G01*
X107894299Y-120887715D01*
G75*
G02*
X108026216Y-120569240I225196J93279D01*
G01*
G37*
G04 #@! TD.AperFunction*
G04 #@! TA.AperFunction,SMDPad,CuDef*
G36*
G01*
X104224929Y-123578817D02*
X105119896Y-123400798D01*
G75*
G02*
X105406515Y-123592311I47553J-239066D01*
G01*
X105501622Y-124070443D01*
G75*
G02*
X105310109Y-124357062I-239066J-47553D01*
G01*
X104415142Y-124535082D01*
G75*
G02*
X104128523Y-124343569I-47553J239066D01*
G01*
X104033416Y-123865437D01*
G75*
G02*
X104224929Y-123578818I239066J47553D01*
G01*
G37*
G04 #@! TD.AperFunction*
G04 #@! TA.AperFunction,SMDPad,CuDef*
G36*
G01*
X103859135Y-121739845D02*
X104754102Y-121561826D01*
G75*
G02*
X105040721Y-121753339I47553J-239066D01*
G01*
X105135828Y-122231471D01*
G75*
G02*
X104944315Y-122518090I-239066J-47553D01*
G01*
X104049348Y-122696110D01*
G75*
G02*
X103762729Y-122504597I-47553J239066D01*
G01*
X103667622Y-122026465D01*
G75*
G02*
X103859135Y-121739846I239066J47553D01*
G01*
G37*
G04 #@! TD.AperFunction*
G04 #@! TA.AperFunction,SMDPad,CuDef*
G36*
G01*
X99543750Y-123950000D02*
X100456250Y-123950000D01*
G75*
G02*
X100700000Y-124193750I0J-243750D01*
G01*
X100700000Y-124681250D01*
G75*
G02*
X100456250Y-124925000I-243750J0D01*
G01*
X99543750Y-124925000D01*
G75*
G02*
X99300000Y-124681250I0J243750D01*
G01*
X99300000Y-124193750D01*
G75*
G02*
X99543750Y-123950000I243750J0D01*
G01*
G37*
G04 #@! TD.AperFunction*
G04 #@! TA.AperFunction,SMDPad,CuDef*
G36*
G01*
X99543750Y-122075000D02*
X100456250Y-122075000D01*
G75*
G02*
X100700000Y-122318750I0J-243750D01*
G01*
X100700000Y-122806250D01*
G75*
G02*
X100456250Y-123050000I-243750J0D01*
G01*
X99543750Y-123050000D01*
G75*
G02*
X99300000Y-122806250I0J243750D01*
G01*
X99300000Y-122318750D01*
G75*
G02*
X99543750Y-122075000I243750J0D01*
G01*
G37*
G04 #@! TD.AperFunction*
G04 #@! TA.AperFunction,SMDPad,CuDef*
G36*
G01*
X94880103Y-123400797D02*
X95775070Y-123578818D01*
G75*
G02*
X95966583Y-123865437I-47553J-239066D01*
G01*
X95871476Y-124343569D01*
G75*
G02*
X95584857Y-124535082I-239066J47553D01*
G01*
X94689890Y-124357062D01*
G75*
G02*
X94498377Y-124070443I47553J239066D01*
G01*
X94593484Y-123592311D01*
G75*
G02*
X94880103Y-123400798I239066J-47553D01*
G01*
G37*
G04 #@! TD.AperFunction*
G04 #@! TA.AperFunction,SMDPad,CuDef*
G36*
G01*
X95245897Y-121561825D02*
X96140864Y-121739846D01*
G75*
G02*
X96332377Y-122026465I-47553J-239066D01*
G01*
X96237270Y-122504597D01*
G75*
G02*
X95950651Y-122696110I-239066J47553D01*
G01*
X95055684Y-122518090D01*
G75*
G02*
X94864171Y-122231471I47553J239066D01*
G01*
X94959278Y-121753339D01*
G75*
G02*
X95245897Y-121561826I239066J-47553D01*
G01*
G37*
G04 #@! TD.AperFunction*
G04 #@! TA.AperFunction,SMDPad,CuDef*
G36*
G01*
X90413211Y-121952315D02*
X91256251Y-122301514D01*
G75*
G02*
X91388168Y-122619989I-93279J-225196D01*
G01*
X91201610Y-123070380D01*
G75*
G02*
X90883135Y-123202297I-225196J93279D01*
G01*
X90040095Y-122853098D01*
G75*
G02*
X89908178Y-122534623I93279J225196D01*
G01*
X90094736Y-122084232D01*
G75*
G02*
X90413211Y-121952315I225196J-93279D01*
G01*
G37*
G04 #@! TD.AperFunction*
G04 #@! TA.AperFunction,SMDPad,CuDef*
G36*
G01*
X91130743Y-120220041D02*
X91973783Y-120569240D01*
G75*
G02*
X92105700Y-120887715I-93279J-225196D01*
G01*
X91919142Y-121338106D01*
G75*
G02*
X91600667Y-121470023I-225196J93279D01*
G01*
X90757627Y-121120824D01*
G75*
G02*
X90625710Y-120802349I93279J225196D01*
G01*
X90812268Y-120351958D01*
G75*
G02*
X91130743Y-120220041I225196J-93279D01*
G01*
G37*
G04 #@! TD.AperFunction*
G04 #@! TA.AperFunction,SMDPad,CuDef*
G36*
G01*
X86314734Y-119660218D02*
X87073450Y-120167175D01*
G75*
G02*
X87140701Y-120505266I-135420J-202671D01*
G01*
X86869861Y-120910608D01*
G75*
G02*
X86531770Y-120977859I-202671J135420D01*
G01*
X85773054Y-120470901D01*
G75*
G02*
X85705803Y-120132810I135420J202671D01*
G01*
X85976643Y-119727468D01*
G75*
G02*
X86314734Y-119660217I202671J-135420D01*
G01*
G37*
G04 #@! TD.AperFunction*
G04 #@! TA.AperFunction,SMDPad,CuDef*
G36*
G01*
X87356428Y-118101212D02*
X88115144Y-118608169D01*
G75*
G02*
X88182395Y-118946260I-135420J-202671D01*
G01*
X87911555Y-119351602D01*
G75*
G02*
X87573464Y-119418853I-202671J135420D01*
G01*
X86814748Y-118911895D01*
G75*
G02*
X86747497Y-118573804I135420J202671D01*
G01*
X87018337Y-118168462D01*
G75*
G02*
X87356428Y-118101211I202671J-135420D01*
G01*
G37*
G04 #@! TD.AperFunction*
G04 #@! TA.AperFunction,SMDPad,CuDef*
G36*
G01*
X82742174Y-116612590D02*
X83387409Y-117257825D01*
G75*
G02*
X83387409Y-117602539I-172357J-172357D01*
G01*
X83042694Y-117947254D01*
G75*
G02*
X82697980Y-117947254I-172357J172357D01*
G01*
X82052745Y-117302019D01*
G75*
G02*
X82052745Y-116957305I172357J172357D01*
G01*
X82397460Y-116612590D01*
G75*
G02*
X82742174Y-116612590I172357J-172357D01*
G01*
G37*
G04 #@! TD.AperFunction*
G04 #@! TA.AperFunction,SMDPad,CuDef*
G36*
G01*
X84068000Y-115286764D02*
X84713235Y-115931999D01*
G75*
G02*
X84713235Y-116276713I-172357J-172357D01*
G01*
X84368520Y-116621428D01*
G75*
G02*
X84023806Y-116621428I-172357J172357D01*
G01*
X83378571Y-115976193D01*
G75*
G02*
X83378571Y-115631479I172357J172357D01*
G01*
X83723286Y-115286764D01*
G75*
G02*
X84068000Y-115286764I172357J-172357D01*
G01*
G37*
G04 #@! TD.AperFunction*
G04 #@! TA.AperFunction,SMDPad,CuDef*
G36*
G01*
X79832824Y-112926549D02*
X80339782Y-113685265D01*
G75*
G02*
X80272531Y-114023356I-202671J-135420D01*
G01*
X79867189Y-114294196D01*
G75*
G02*
X79529098Y-114226945I-135420J202671D01*
G01*
X79022140Y-113468229D01*
G75*
G02*
X79089391Y-113130138I202671J135420D01*
G01*
X79494733Y-112859298D01*
G75*
G02*
X79832824Y-112926549I135420J-202671D01*
G01*
G37*
G04 #@! TD.AperFunction*
G04 #@! TA.AperFunction,SMDPad,CuDef*
G36*
G01*
X81391830Y-111884855D02*
X81898788Y-112643571D01*
G75*
G02*
X81831537Y-112981662I-202671J-135420D01*
G01*
X81426195Y-113252502D01*
G75*
G02*
X81088104Y-113185251I-135420J202671D01*
G01*
X80581146Y-112426535D01*
G75*
G02*
X80648397Y-112088444I202671J135420D01*
G01*
X81053739Y-111817604D01*
G75*
G02*
X81391830Y-111884855I135420J-202671D01*
G01*
G37*
G04 #@! TD.AperFunction*
G04 #@! TA.AperFunction,SMDPad,CuDef*
G36*
G01*
X77698485Y-108743748D02*
X78047684Y-109586788D01*
G75*
G02*
X77915767Y-109905263I-225196J-93279D01*
G01*
X77465376Y-110091821D01*
G75*
G02*
X77146901Y-109959904I-93279J225196D01*
G01*
X76797702Y-109116864D01*
G75*
G02*
X76929619Y-108798389I225196J93279D01*
G01*
X77380010Y-108611831D01*
G75*
G02*
X77698485Y-108743748I93279J-225196D01*
G01*
G37*
G04 #@! TD.AperFunction*
G04 #@! TA.AperFunction,SMDPad,CuDef*
G36*
G01*
X79430759Y-108026216D02*
X79779958Y-108869256D01*
G75*
G02*
X79648041Y-109187731I-225196J-93279D01*
G01*
X79197650Y-109374289D01*
G75*
G02*
X78879175Y-109242372I-93279J225196D01*
G01*
X78529976Y-108399332D01*
G75*
G02*
X78661893Y-108080857I225196J93279D01*
G01*
X79112284Y-107894299D01*
G75*
G02*
X79430759Y-108026216I93279J-225196D01*
G01*
G37*
G04 #@! TD.AperFunction*
G04 #@! TA.AperFunction,SMDPad,CuDef*
G36*
G01*
X76421182Y-104224929D02*
X76599201Y-105119896D01*
G75*
G02*
X76407688Y-105406515I-239066J-47553D01*
G01*
X75929556Y-105501622D01*
G75*
G02*
X75642937Y-105310109I-47553J239066D01*
G01*
X75464917Y-104415142D01*
G75*
G02*
X75656430Y-104128523I239066J47553D01*
G01*
X76134562Y-104033416D01*
G75*
G02*
X76421181Y-104224929I47553J-239066D01*
G01*
G37*
G04 #@! TD.AperFunction*
G04 #@! TA.AperFunction,SMDPad,CuDef*
G36*
G01*
X78260154Y-103859135D02*
X78438173Y-104754102D01*
G75*
G02*
X78246660Y-105040721I-239066J-47553D01*
G01*
X77768528Y-105135828D01*
G75*
G02*
X77481909Y-104944315I-47553J239066D01*
G01*
X77303889Y-104049348D01*
G75*
G02*
X77495402Y-103762729I239066J47553D01*
G01*
X77973534Y-103667622D01*
G75*
G02*
X78260153Y-103859135I47553J-239066D01*
G01*
G37*
G04 #@! TD.AperFunction*
G04 #@! TA.AperFunction,SMDPad,CuDef*
G36*
G01*
X76050000Y-99543750D02*
X76050000Y-100456250D01*
G75*
G02*
X75806250Y-100700000I-243750J0D01*
G01*
X75318750Y-100700000D01*
G75*
G02*
X75075000Y-100456250I0J243750D01*
G01*
X75075000Y-99543750D01*
G75*
G02*
X75318750Y-99300000I243750J0D01*
G01*
X75806250Y-99300000D01*
G75*
G02*
X76050000Y-99543750I0J-243750D01*
G01*
G37*
G04 #@! TD.AperFunction*
G04 #@! TA.AperFunction,SMDPad,CuDef*
G36*
G01*
X77925000Y-99543750D02*
X77925000Y-100456250D01*
G75*
G02*
X77681250Y-100700000I-243750J0D01*
G01*
X77193750Y-100700000D01*
G75*
G02*
X76950000Y-100456250I0J243750D01*
G01*
X76950000Y-99543750D01*
G75*
G02*
X77193750Y-99300000I243750J0D01*
G01*
X77681250Y-99300000D01*
G75*
G02*
X77925000Y-99543750I0J-243750D01*
G01*
G37*
G04 #@! TD.AperFunction*
G04 #@! TA.AperFunction,SMDPad,CuDef*
G36*
G01*
X76599202Y-94880103D02*
X76421181Y-95775070D01*
G75*
G02*
X76134562Y-95966583I-239066J47553D01*
G01*
X75656430Y-95871476D01*
G75*
G02*
X75464917Y-95584857I47553J239066D01*
G01*
X75642937Y-94689890D01*
G75*
G02*
X75929556Y-94498377I239066J-47553D01*
G01*
X76407688Y-94593484D01*
G75*
G02*
X76599201Y-94880103I-47553J-239066D01*
G01*
G37*
G04 #@! TD.AperFunction*
G04 #@! TA.AperFunction,SMDPad,CuDef*
G36*
G01*
X78438174Y-95245897D02*
X78260153Y-96140864D01*
G75*
G02*
X77973534Y-96332377I-239066J47553D01*
G01*
X77495402Y-96237270D01*
G75*
G02*
X77303889Y-95950651I47553J239066D01*
G01*
X77481909Y-95055684D01*
G75*
G02*
X77768528Y-94864171I239066J-47553D01*
G01*
X78246660Y-94959278D01*
G75*
G02*
X78438173Y-95245897I-47553J-239066D01*
G01*
G37*
G04 #@! TD.AperFunction*
G04 #@! TA.AperFunction,SMDPad,CuDef*
G36*
G01*
X78047684Y-90413211D02*
X77698485Y-91256251D01*
G75*
G02*
X77380010Y-91388168I-225196J93279D01*
G01*
X76929619Y-91201610D01*
G75*
G02*
X76797702Y-90883135I93279J225196D01*
G01*
X77146901Y-90040095D01*
G75*
G02*
X77465376Y-89908178I225196J-93279D01*
G01*
X77915767Y-90094736D01*
G75*
G02*
X78047684Y-90413211I-93279J-225196D01*
G01*
G37*
G04 #@! TD.AperFunction*
G04 #@! TA.AperFunction,SMDPad,CuDef*
G36*
G01*
X79779958Y-91130743D02*
X79430759Y-91973783D01*
G75*
G02*
X79112284Y-92105700I-225196J93279D01*
G01*
X78661893Y-91919142D01*
G75*
G02*
X78529976Y-91600667I93279J225196D01*
G01*
X78879175Y-90757627D01*
G75*
G02*
X79197650Y-90625710I225196J-93279D01*
G01*
X79648041Y-90812268D01*
G75*
G02*
X79779958Y-91130743I-93279J-225196D01*
G01*
G37*
G04 #@! TD.AperFunction*
G04 #@! TA.AperFunction,SMDPad,CuDef*
G36*
G01*
X80339781Y-86314734D02*
X79832824Y-87073450D01*
G75*
G02*
X79494733Y-87140701I-202671J135420D01*
G01*
X79089391Y-86869861D01*
G75*
G02*
X79022140Y-86531770I135420J202671D01*
G01*
X79529098Y-85773054D01*
G75*
G02*
X79867189Y-85705803I202671J-135420D01*
G01*
X80272531Y-85976643D01*
G75*
G02*
X80339782Y-86314734I-135420J-202671D01*
G01*
G37*
G04 #@! TD.AperFunction*
G04 #@! TA.AperFunction,SMDPad,CuDef*
G36*
G01*
X81898787Y-87356428D02*
X81391830Y-88115144D01*
G75*
G02*
X81053739Y-88182395I-202671J135420D01*
G01*
X80648397Y-87911555D01*
G75*
G02*
X80581146Y-87573464I135420J202671D01*
G01*
X81088104Y-86814748D01*
G75*
G02*
X81426195Y-86747497I202671J-135420D01*
G01*
X81831537Y-87018337D01*
G75*
G02*
X81898788Y-87356428I-135420J-202671D01*
G01*
G37*
G04 #@! TD.AperFunction*
G04 #@! TA.AperFunction,SMDPad,CuDef*
G36*
G01*
X83387409Y-82742174D02*
X82742174Y-83387409D01*
G75*
G02*
X82397460Y-83387409I-172357J172357D01*
G01*
X82052745Y-83042694D01*
G75*
G02*
X82052745Y-82697980I172357J172357D01*
G01*
X82697980Y-82052745D01*
G75*
G02*
X83042694Y-82052745I172357J-172357D01*
G01*
X83387409Y-82397460D01*
G75*
G02*
X83387409Y-82742174I-172357J-172357D01*
G01*
G37*
G04 #@! TD.AperFunction*
G04 #@! TA.AperFunction,SMDPad,CuDef*
G36*
G01*
X84713235Y-84068000D02*
X84068000Y-84713235D01*
G75*
G02*
X83723286Y-84713235I-172357J172357D01*
G01*
X83378571Y-84368520D01*
G75*
G02*
X83378571Y-84023806I172357J172357D01*
G01*
X84023806Y-83378571D01*
G75*
G02*
X84368520Y-83378571I172357J-172357D01*
G01*
X84713235Y-83723286D01*
G75*
G02*
X84713235Y-84068000I-172357J-172357D01*
G01*
G37*
G04 #@! TD.AperFunction*
G04 #@! TA.AperFunction,SMDPad,CuDef*
G36*
G01*
X87073450Y-79832824D02*
X86314734Y-80339782D01*
G75*
G02*
X85976643Y-80272531I-135420J202671D01*
G01*
X85705803Y-79867189D01*
G75*
G02*
X85773054Y-79529098I202671J135420D01*
G01*
X86531770Y-79022140D01*
G75*
G02*
X86869861Y-79089391I135420J-202671D01*
G01*
X87140701Y-79494733D01*
G75*
G02*
X87073450Y-79832824I-202671J-135420D01*
G01*
G37*
G04 #@! TD.AperFunction*
G04 #@! TA.AperFunction,SMDPad,CuDef*
G36*
G01*
X88115144Y-81391830D02*
X87356428Y-81898788D01*
G75*
G02*
X87018337Y-81831537I-135420J202671D01*
G01*
X86747497Y-81426195D01*
G75*
G02*
X86814748Y-81088104I202671J135420D01*
G01*
X87573464Y-80581146D01*
G75*
G02*
X87911555Y-80648397I135420J-202671D01*
G01*
X88182395Y-81053739D01*
G75*
G02*
X88115144Y-81391830I-202671J-135420D01*
G01*
G37*
G04 #@! TD.AperFunction*
G04 #@! TA.AperFunction,SMDPad,CuDef*
G36*
G01*
X91256251Y-77698485D02*
X90413211Y-78047684D01*
G75*
G02*
X90094736Y-77915767I-93279J225196D01*
G01*
X89908178Y-77465376D01*
G75*
G02*
X90040095Y-77146901I225196J93279D01*
G01*
X90883135Y-76797702D01*
G75*
G02*
X91201610Y-76929619I93279J-225196D01*
G01*
X91388168Y-77380010D01*
G75*
G02*
X91256251Y-77698485I-225196J-93279D01*
G01*
G37*
G04 #@! TD.AperFunction*
G04 #@! TA.AperFunction,SMDPad,CuDef*
G36*
G01*
X91973783Y-79430759D02*
X91130743Y-79779958D01*
G75*
G02*
X90812268Y-79648041I-93279J225196D01*
G01*
X90625710Y-79197650D01*
G75*
G02*
X90757627Y-78879175I225196J93279D01*
G01*
X91600667Y-78529976D01*
G75*
G02*
X91919142Y-78661893I93279J-225196D01*
G01*
X92105700Y-79112284D01*
G75*
G02*
X91973783Y-79430759I-225196J-93279D01*
G01*
G37*
G04 #@! TD.AperFunction*
G04 #@! TA.AperFunction,SMDPad,CuDef*
G36*
G01*
X95775070Y-76421182D02*
X94880103Y-76599201D01*
G75*
G02*
X94593484Y-76407688I-47553J239066D01*
G01*
X94498377Y-75929556D01*
G75*
G02*
X94689890Y-75642937I239066J47553D01*
G01*
X95584857Y-75464917D01*
G75*
G02*
X95871476Y-75656430I47553J-239066D01*
G01*
X95966583Y-76134562D01*
G75*
G02*
X95775070Y-76421181I-239066J-47553D01*
G01*
G37*
G04 #@! TD.AperFunction*
G04 #@! TA.AperFunction,SMDPad,CuDef*
G36*
G01*
X96140864Y-78260154D02*
X95245897Y-78438173D01*
G75*
G02*
X94959278Y-78246660I-47553J239066D01*
G01*
X94864171Y-77768528D01*
G75*
G02*
X95055684Y-77481909I239066J47553D01*
G01*
X95950651Y-77303889D01*
G75*
G02*
X96237270Y-77495402I47553J-239066D01*
G01*
X96332377Y-77973534D01*
G75*
G02*
X96140864Y-78260153I-239066J-47553D01*
G01*
G37*
G04 #@! TD.AperFunction*
G04 #@! TA.AperFunction,SMDPad,CuDef*
G36*
G01*
X100456250Y-76050000D02*
X99543750Y-76050000D01*
G75*
G02*
X99300000Y-75806250I0J243750D01*
G01*
X99300000Y-75318750D01*
G75*
G02*
X99543750Y-75075000I243750J0D01*
G01*
X100456250Y-75075000D01*
G75*
G02*
X100700000Y-75318750I0J-243750D01*
G01*
X100700000Y-75806250D01*
G75*
G02*
X100456250Y-76050000I-243750J0D01*
G01*
G37*
G04 #@! TD.AperFunction*
G04 #@! TA.AperFunction,SMDPad,CuDef*
G36*
G01*
X100456250Y-77925000D02*
X99543750Y-77925000D01*
G75*
G02*
X99300000Y-77681250I0J243750D01*
G01*
X99300000Y-77193750D01*
G75*
G02*
X99543750Y-76950000I243750J0D01*
G01*
X100456250Y-76950000D01*
G75*
G02*
X100700000Y-77193750I0J-243750D01*
G01*
X100700000Y-77681250D01*
G75*
G02*
X100456250Y-77925000I-243750J0D01*
G01*
G37*
G04 #@! TD.AperFunction*
D15*
X103300000Y-97800000D03*
X103300000Y-102300000D03*
X96800000Y-97800000D03*
X96800000Y-102300000D03*
D16*
X101905000Y-89150000D03*
X100635000Y-89150000D03*
X99365000Y-89150000D03*
X98095000Y-89150000D03*
X98095000Y-81850000D03*
X99365000Y-81850000D03*
X100635000Y-81850000D03*
X101905000Y-81850000D03*
G04 #@! TA.AperFunction,SMDPad,CuDef*
G36*
G01*
X93097684Y-87023637D02*
X93309816Y-86811505D01*
G75*
G02*
X93521948Y-86811505I106066J-106066D01*
G01*
X94688674Y-87978231D01*
G75*
G02*
X94688674Y-88190363I-106066J-106066D01*
G01*
X94476542Y-88402495D01*
G75*
G02*
X94264410Y-88402495I-106066J106066D01*
G01*
X93097684Y-87235769D01*
G75*
G02*
X93097684Y-87023637I106066J106066D01*
G01*
G37*
G04 #@! TD.AperFunction*
G04 #@! TA.AperFunction,SMDPad,CuDef*
G36*
G01*
X92199658Y-87921662D02*
X92411790Y-87709530D01*
G75*
G02*
X92623922Y-87709530I106066J-106066D01*
G01*
X93790648Y-88876256D01*
G75*
G02*
X93790648Y-89088388I-106066J-106066D01*
G01*
X93578516Y-89300520D01*
G75*
G02*
X93366384Y-89300520I-106066J106066D01*
G01*
X92199658Y-88133794D01*
G75*
G02*
X92199658Y-87921662I106066J106066D01*
G01*
G37*
G04 #@! TD.AperFunction*
G04 #@! TA.AperFunction,SMDPad,CuDef*
G36*
G01*
X91301633Y-88819688D02*
X91513765Y-88607556D01*
G75*
G02*
X91725897Y-88607556I106066J-106066D01*
G01*
X92892623Y-89774282D01*
G75*
G02*
X92892623Y-89986414I-106066J-106066D01*
G01*
X92680491Y-90198546D01*
G75*
G02*
X92468359Y-90198546I-106066J106066D01*
G01*
X91301633Y-89031820D01*
G75*
G02*
X91301633Y-88819688I106066J106066D01*
G01*
G37*
G04 #@! TD.AperFunction*
G04 #@! TA.AperFunction,SMDPad,CuDef*
G36*
G01*
X90403607Y-89717713D02*
X90615739Y-89505581D01*
G75*
G02*
X90827871Y-89505581I106066J-106066D01*
G01*
X91994597Y-90672307D01*
G75*
G02*
X91994597Y-90884439I-106066J-106066D01*
G01*
X91782465Y-91096571D01*
G75*
G02*
X91570333Y-91096571I-106066J106066D01*
G01*
X90403607Y-89929845D01*
G75*
G02*
X90403607Y-89717713I106066J106066D01*
G01*
G37*
G04 #@! TD.AperFunction*
G04 #@! TA.AperFunction,SMDPad,CuDef*
G36*
G01*
X89505581Y-90615739D02*
X89717713Y-90403607D01*
G75*
G02*
X89929845Y-90403607I106066J-106066D01*
G01*
X91096571Y-91570333D01*
G75*
G02*
X91096571Y-91782465I-106066J-106066D01*
G01*
X90884439Y-91994597D01*
G75*
G02*
X90672307Y-91994597I-106066J106066D01*
G01*
X89505581Y-90827871D01*
G75*
G02*
X89505581Y-90615739I106066J106066D01*
G01*
G37*
G04 #@! TD.AperFunction*
G04 #@! TA.AperFunction,SMDPad,CuDef*
G36*
G01*
X88607556Y-91513765D02*
X88819688Y-91301633D01*
G75*
G02*
X89031820Y-91301633I106066J-106066D01*
G01*
X90198546Y-92468359D01*
G75*
G02*
X90198546Y-92680491I-106066J-106066D01*
G01*
X89986414Y-92892623D01*
G75*
G02*
X89774282Y-92892623I-106066J106066D01*
G01*
X88607556Y-91725897D01*
G75*
G02*
X88607556Y-91513765I106066J106066D01*
G01*
G37*
G04 #@! TD.AperFunction*
G04 #@! TA.AperFunction,SMDPad,CuDef*
G36*
G01*
X87709530Y-92411790D02*
X87921662Y-92199658D01*
G75*
G02*
X88133794Y-92199658I106066J-106066D01*
G01*
X89300520Y-93366384D01*
G75*
G02*
X89300520Y-93578516I-106066J-106066D01*
G01*
X89088388Y-93790648D01*
G75*
G02*
X88876256Y-93790648I-106066J106066D01*
G01*
X87709530Y-92623922D01*
G75*
G02*
X87709530Y-92411790I106066J106066D01*
G01*
G37*
G04 #@! TD.AperFunction*
G04 #@! TA.AperFunction,SMDPad,CuDef*
G36*
G01*
X86811505Y-93309816D02*
X87023637Y-93097684D01*
G75*
G02*
X87235769Y-93097684I106066J-106066D01*
G01*
X88402495Y-94264410D01*
G75*
G02*
X88402495Y-94476542I-106066J-106066D01*
G01*
X88190363Y-94688674D01*
G75*
G02*
X87978231Y-94688674I-106066J106066D01*
G01*
X86811505Y-93521948D01*
G75*
G02*
X86811505Y-93309816I106066J106066D01*
G01*
G37*
G04 #@! TD.AperFunction*
G04 #@! TA.AperFunction,SMDPad,CuDef*
G36*
G01*
X83311326Y-89809637D02*
X83523458Y-89597505D01*
G75*
G02*
X83735590Y-89597505I106066J-106066D01*
G01*
X84902316Y-90764231D01*
G75*
G02*
X84902316Y-90976363I-106066J-106066D01*
G01*
X84690184Y-91188495D01*
G75*
G02*
X84478052Y-91188495I-106066J106066D01*
G01*
X83311326Y-90021769D01*
G75*
G02*
X83311326Y-89809637I106066J106066D01*
G01*
G37*
G04 #@! TD.AperFunction*
G04 #@! TA.AperFunction,SMDPad,CuDef*
G36*
G01*
X84209352Y-88911612D02*
X84421484Y-88699480D01*
G75*
G02*
X84633616Y-88699480I106066J-106066D01*
G01*
X85800342Y-89866206D01*
G75*
G02*
X85800342Y-90078338I-106066J-106066D01*
G01*
X85588210Y-90290470D01*
G75*
G02*
X85376078Y-90290470I-106066J106066D01*
G01*
X84209352Y-89123744D01*
G75*
G02*
X84209352Y-88911612I106066J106066D01*
G01*
G37*
G04 #@! TD.AperFunction*
G04 #@! TA.AperFunction,SMDPad,CuDef*
G36*
G01*
X85107377Y-88013586D02*
X85319509Y-87801454D01*
G75*
G02*
X85531641Y-87801454I106066J-106066D01*
G01*
X86698367Y-88968180D01*
G75*
G02*
X86698367Y-89180312I-106066J-106066D01*
G01*
X86486235Y-89392444D01*
G75*
G02*
X86274103Y-89392444I-106066J106066D01*
G01*
X85107377Y-88225718D01*
G75*
G02*
X85107377Y-88013586I106066J106066D01*
G01*
G37*
G04 #@! TD.AperFunction*
G04 #@! TA.AperFunction,SMDPad,CuDef*
G36*
G01*
X86005403Y-87115561D02*
X86217535Y-86903429D01*
G75*
G02*
X86429667Y-86903429I106066J-106066D01*
G01*
X87596393Y-88070155D01*
G75*
G02*
X87596393Y-88282287I-106066J-106066D01*
G01*
X87384261Y-88494419D01*
G75*
G02*
X87172129Y-88494419I-106066J106066D01*
G01*
X86005403Y-87327693D01*
G75*
G02*
X86005403Y-87115561I106066J106066D01*
G01*
G37*
G04 #@! TD.AperFunction*
G04 #@! TA.AperFunction,SMDPad,CuDef*
G36*
G01*
X86903429Y-86217535D02*
X87115561Y-86005403D01*
G75*
G02*
X87327693Y-86005403I106066J-106066D01*
G01*
X88494419Y-87172129D01*
G75*
G02*
X88494419Y-87384261I-106066J-106066D01*
G01*
X88282287Y-87596393D01*
G75*
G02*
X88070155Y-87596393I-106066J106066D01*
G01*
X86903429Y-86429667D01*
G75*
G02*
X86903429Y-86217535I106066J106066D01*
G01*
G37*
G04 #@! TD.AperFunction*
G04 #@! TA.AperFunction,SMDPad,CuDef*
G36*
G01*
X87801454Y-85319509D02*
X88013586Y-85107377D01*
G75*
G02*
X88225718Y-85107377I106066J-106066D01*
G01*
X89392444Y-86274103D01*
G75*
G02*
X89392444Y-86486235I-106066J-106066D01*
G01*
X89180312Y-86698367D01*
G75*
G02*
X88968180Y-86698367I-106066J106066D01*
G01*
X87801454Y-85531641D01*
G75*
G02*
X87801454Y-85319509I106066J106066D01*
G01*
G37*
G04 #@! TD.AperFunction*
G04 #@! TA.AperFunction,SMDPad,CuDef*
G36*
G01*
X88699480Y-84421484D02*
X88911612Y-84209352D01*
G75*
G02*
X89123744Y-84209352I106066J-106066D01*
G01*
X90290470Y-85376078D01*
G75*
G02*
X90290470Y-85588210I-106066J-106066D01*
G01*
X90078338Y-85800342D01*
G75*
G02*
X89866206Y-85800342I-106066J106066D01*
G01*
X88699480Y-84633616D01*
G75*
G02*
X88699480Y-84421484I106066J106066D01*
G01*
G37*
G04 #@! TD.AperFunction*
G04 #@! TA.AperFunction,SMDPad,CuDef*
G36*
G01*
X89597505Y-83523458D02*
X89809637Y-83311326D01*
G75*
G02*
X90021769Y-83311326I106066J-106066D01*
G01*
X91188495Y-84478052D01*
G75*
G02*
X91188495Y-84690184I-106066J-106066D01*
G01*
X90976363Y-84902316D01*
G75*
G02*
X90764231Y-84902316I-106066J106066D01*
G01*
X89597505Y-83735590D01*
G75*
G02*
X89597505Y-83523458I106066J106066D01*
G01*
G37*
G04 #@! TD.AperFunction*
G04 #@! TA.AperFunction,SMDPad,CuDef*
G36*
G01*
X103803613Y-79083901D02*
X103703630Y-79586553D01*
G75*
G02*
X103446407Y-79758424I-214547J42676D01*
G01*
X103017313Y-79673072D01*
G75*
G02*
X102845442Y-79415849I42676J214547D01*
G01*
X102945426Y-78913197D01*
G75*
G02*
X103202649Y-78741326I214547J-42676D01*
G01*
X103631743Y-78826678D01*
G75*
G02*
X103803614Y-79083901I-42676J-214547D01*
G01*
G37*
G04 #@! TD.AperFunction*
G04 #@! TA.AperFunction,SMDPad,CuDef*
G36*
G01*
X105348349Y-79391169D02*
X105248366Y-79893821D01*
G75*
G02*
X104991143Y-80065692I-214547J42676D01*
G01*
X104562049Y-79980340D01*
G75*
G02*
X104390178Y-79723117I42676J214547D01*
G01*
X104490162Y-79220465D01*
G75*
G02*
X104747385Y-79048594I214547J-42676D01*
G01*
X105176479Y-79133946D01*
G75*
G02*
X105348350Y-79391169I-42676J-214547D01*
G01*
G37*
G04 #@! TD.AperFunction*
G04 #@! TA.AperFunction,SMDPad,CuDef*
G36*
G01*
X107811057Y-80227846D02*
X107614932Y-80701334D01*
G75*
G02*
X107329121Y-80819721I-202099J83712D01*
G01*
X106924924Y-80652297D01*
G75*
G02*
X106806537Y-80366486I83712J202099D01*
G01*
X107002662Y-79892998D01*
G75*
G02*
X107288473Y-79774611I202099J-83712D01*
G01*
X107692670Y-79942035D01*
G75*
G02*
X107811057Y-80227846I-83712J-202099D01*
G01*
G37*
G04 #@! TD.AperFunction*
G04 #@! TA.AperFunction,SMDPad,CuDef*
G36*
G01*
X109266167Y-80830572D02*
X109070042Y-81304060D01*
G75*
G02*
X108784231Y-81422447I-202099J83712D01*
G01*
X108380034Y-81255023D01*
G75*
G02*
X108261647Y-80969212I83712J202099D01*
G01*
X108457772Y-80495724D01*
G75*
G02*
X108743583Y-80377337I202099J-83712D01*
G01*
X109147780Y-80544761D01*
G75*
G02*
X109266167Y-80830572I-83712J-202099D01*
G01*
G37*
G04 #@! TD.AperFunction*
G04 #@! TA.AperFunction,SMDPad,CuDef*
G36*
G01*
X111518325Y-82131624D02*
X111233595Y-82557752D01*
G75*
G02*
X110930180Y-82618105I-181884J121531D01*
G01*
X110566412Y-82375043D01*
G75*
G02*
X110506059Y-82071628I121531J181884D01*
G01*
X110790789Y-81645500D01*
G75*
G02*
X111094204Y-81585147I181884J-121531D01*
G01*
X111457972Y-81828209D01*
G75*
G02*
X111518325Y-82131624I-121531J-181884D01*
G01*
G37*
G04 #@! TD.AperFunction*
G04 #@! TA.AperFunction,SMDPad,CuDef*
G36*
G01*
X112827889Y-83006648D02*
X112543159Y-83432776D01*
G75*
G02*
X112239744Y-83493129I-181884J121531D01*
G01*
X111875976Y-83250067D01*
G75*
G02*
X111815623Y-82946652I121531J181884D01*
G01*
X112100353Y-82520524D01*
G75*
G02*
X112403768Y-82460171I181884J-121531D01*
G01*
X112767536Y-82703233D01*
G75*
G02*
X112827889Y-83006648I-121531J-181884D01*
G01*
G37*
G04 #@! TD.AperFunction*
G04 #@! TA.AperFunction,SMDPad,CuDef*
G36*
G01*
X114782950Y-84722073D02*
X114420558Y-85084466D01*
G75*
G02*
X114111198Y-85084466I-154680J154680D01*
G01*
X113801839Y-84775107D01*
G75*
G02*
X113801839Y-84465747I154680J154680D01*
G01*
X114164232Y-84103354D01*
G75*
G02*
X114473592Y-84103354I154680J-154680D01*
G01*
X114782951Y-84412713D01*
G75*
G02*
X114782951Y-84722073I-154680J-154680D01*
G01*
G37*
G04 #@! TD.AperFunction*
G04 #@! TA.AperFunction,SMDPad,CuDef*
G36*
G01*
X115896644Y-85835767D02*
X115534252Y-86198160D01*
G75*
G02*
X115224892Y-86198160I-154680J154680D01*
G01*
X114915533Y-85888801D01*
G75*
G02*
X114915533Y-85579441I154680J154680D01*
G01*
X115277926Y-85217048D01*
G75*
G02*
X115587286Y-85217048I154680J-154680D01*
G01*
X115896645Y-85526407D01*
G75*
G02*
X115896645Y-85835767I-154680J-154680D01*
G01*
G37*
G04 #@! TD.AperFunction*
G04 #@! TA.AperFunction,SMDPad,CuDef*
G36*
G01*
X117479475Y-87899646D02*
X117053347Y-88184376D01*
G75*
G02*
X116749932Y-88124023I-121531J181884D01*
G01*
X116506870Y-87760255D01*
G75*
G02*
X116567223Y-87456840I181884J121531D01*
G01*
X116993351Y-87172110D01*
G75*
G02*
X117296766Y-87232463I121531J-181884D01*
G01*
X117539828Y-87596231D01*
G75*
G02*
X117479475Y-87899646I-181884J-121531D01*
G01*
G37*
G04 #@! TD.AperFunction*
G04 #@! TA.AperFunction,SMDPad,CuDef*
G36*
G01*
X118354499Y-89209210D02*
X117928371Y-89493940D01*
G75*
G02*
X117624956Y-89433587I-121531J181884D01*
G01*
X117381894Y-89069819D01*
G75*
G02*
X117442247Y-88766404I181884J121531D01*
G01*
X117868375Y-88481674D01*
G75*
G02*
X118171790Y-88542027I121531J-181884D01*
G01*
X118414852Y-88905795D01*
G75*
G02*
X118354499Y-89209210I-181884J-121531D01*
G01*
G37*
G04 #@! TD.AperFunction*
G04 #@! TA.AperFunction,SMDPad,CuDef*
G36*
G01*
X119504275Y-91542227D02*
X119030787Y-91738352D01*
G75*
G02*
X118744976Y-91619965I-83712J202099D01*
G01*
X118577552Y-91215768D01*
G75*
G02*
X118695939Y-90929957I202099J83712D01*
G01*
X119169427Y-90733832D01*
G75*
G02*
X119455238Y-90852219I83712J-202099D01*
G01*
X119622662Y-91256416D01*
G75*
G02*
X119504275Y-91542227I-202099J-83712D01*
G01*
G37*
G04 #@! TD.AperFunction*
G04 #@! TA.AperFunction,SMDPad,CuDef*
G36*
G01*
X120107001Y-92997337D02*
X119633513Y-93193462D01*
G75*
G02*
X119347702Y-93075075I-83712J202099D01*
G01*
X119180278Y-92670878D01*
G75*
G02*
X119298665Y-92385067I202099J83712D01*
G01*
X119772153Y-92188942D01*
G75*
G02*
X120057964Y-92307329I83712J-202099D01*
G01*
X120225388Y-92711526D01*
G75*
G02*
X120107001Y-92997337I-202099J-83712D01*
G01*
G37*
G04 #@! TD.AperFunction*
G04 #@! TA.AperFunction,SMDPad,CuDef*
G36*
G01*
X120779534Y-95509837D02*
X120276882Y-95609821D01*
G75*
G02*
X120019659Y-95437950I-42676J214547D01*
G01*
X119934307Y-95008856D01*
G75*
G02*
X120106178Y-94751633I214547J42676D01*
G01*
X120608830Y-94651649D01*
G75*
G02*
X120866053Y-94823520I42676J-214547D01*
G01*
X120951405Y-95252614D01*
G75*
G02*
X120779534Y-95509837I-214547J-42676D01*
G01*
G37*
G04 #@! TD.AperFunction*
G04 #@! TA.AperFunction,SMDPad,CuDef*
G36*
G01*
X121086802Y-97054573D02*
X120584150Y-97154557D01*
G75*
G02*
X120326927Y-96982686I-42676J214547D01*
G01*
X120241575Y-96553592D01*
G75*
G02*
X120413446Y-96296369I214547J42676D01*
G01*
X120916098Y-96196385D01*
G75*
G02*
X121173321Y-96368256I42676J-214547D01*
G01*
X121258673Y-96797350D01*
G75*
G02*
X121086802Y-97054573I-214547J-42676D01*
G01*
G37*
G04 #@! TD.AperFunction*
G04 #@! TA.AperFunction,SMDPad,CuDef*
G36*
G01*
X121256250Y-99650000D02*
X120743750Y-99650000D01*
G75*
G02*
X120525000Y-99431250I0J218750D01*
G01*
X120525000Y-98993750D01*
G75*
G02*
X120743750Y-98775000I218750J0D01*
G01*
X121256250Y-98775000D01*
G75*
G02*
X121475000Y-98993750I0J-218750D01*
G01*
X121475000Y-99431250D01*
G75*
G02*
X121256250Y-99650000I-218750J0D01*
G01*
G37*
G04 #@! TD.AperFunction*
G04 #@! TA.AperFunction,SMDPad,CuDef*
G36*
G01*
X121256250Y-101225000D02*
X120743750Y-101225000D01*
G75*
G02*
X120525000Y-101006250I0J218750D01*
G01*
X120525000Y-100568750D01*
G75*
G02*
X120743750Y-100350000I218750J0D01*
G01*
X121256250Y-100350000D01*
G75*
G02*
X121475000Y-100568750I0J-218750D01*
G01*
X121475000Y-101006250D01*
G75*
G02*
X121256250Y-101225000I-218750J0D01*
G01*
G37*
G04 #@! TD.AperFunction*
G04 #@! TA.AperFunction,SMDPad,CuDef*
G36*
G01*
X120916098Y-103803613D02*
X120413446Y-103703630D01*
G75*
G02*
X120241575Y-103446407I42676J214547D01*
G01*
X120326927Y-103017313D01*
G75*
G02*
X120584150Y-102845442I214547J-42676D01*
G01*
X121086802Y-102945426D01*
G75*
G02*
X121258673Y-103202649I-42676J-214547D01*
G01*
X121173321Y-103631743D01*
G75*
G02*
X120916098Y-103803614I-214547J42676D01*
G01*
G37*
G04 #@! TD.AperFunction*
G04 #@! TA.AperFunction,SMDPad,CuDef*
G36*
G01*
X120608830Y-105348349D02*
X120106178Y-105248366D01*
G75*
G02*
X119934307Y-104991143I42676J214547D01*
G01*
X120019659Y-104562049D01*
G75*
G02*
X120276882Y-104390178I214547J-42676D01*
G01*
X120779534Y-104490162D01*
G75*
G02*
X120951405Y-104747385I-42676J-214547D01*
G01*
X120866053Y-105176479D01*
G75*
G02*
X120608830Y-105348350I-214547J42676D01*
G01*
G37*
G04 #@! TD.AperFunction*
G04 #@! TA.AperFunction,SMDPad,CuDef*
G36*
G01*
X119772153Y-107811057D02*
X119298665Y-107614932D01*
G75*
G02*
X119180278Y-107329121I83712J202099D01*
G01*
X119347702Y-106924924D01*
G75*
G02*
X119633513Y-106806537I202099J-83712D01*
G01*
X120107001Y-107002662D01*
G75*
G02*
X120225388Y-107288473I-83712J-202099D01*
G01*
X120057964Y-107692670D01*
G75*
G02*
X119772153Y-107811057I-202099J83712D01*
G01*
G37*
G04 #@! TD.AperFunction*
G04 #@! TA.AperFunction,SMDPad,CuDef*
G36*
G01*
X119169427Y-109266167D02*
X118695939Y-109070042D01*
G75*
G02*
X118577552Y-108784231I83712J202099D01*
G01*
X118744976Y-108380034D01*
G75*
G02*
X119030787Y-108261647I202099J-83712D01*
G01*
X119504275Y-108457772D01*
G75*
G02*
X119622662Y-108743583I-83712J-202099D01*
G01*
X119455238Y-109147780D01*
G75*
G02*
X119169427Y-109266167I-202099J83712D01*
G01*
G37*
G04 #@! TD.AperFunction*
G04 #@! TA.AperFunction,SMDPad,CuDef*
G36*
G01*
X117868375Y-111518325D02*
X117442247Y-111233595D01*
G75*
G02*
X117381894Y-110930180I121531J181884D01*
G01*
X117624956Y-110566412D01*
G75*
G02*
X117928371Y-110506059I181884J-121531D01*
G01*
X118354499Y-110790789D01*
G75*
G02*
X118414852Y-111094204I-121531J-181884D01*
G01*
X118171790Y-111457972D01*
G75*
G02*
X117868375Y-111518325I-181884J121531D01*
G01*
G37*
G04 #@! TD.AperFunction*
G04 #@! TA.AperFunction,SMDPad,CuDef*
G36*
G01*
X116993351Y-112827889D02*
X116567223Y-112543159D01*
G75*
G02*
X116506870Y-112239744I121531J181884D01*
G01*
X116749932Y-111875976D01*
G75*
G02*
X117053347Y-111815623I181884J-121531D01*
G01*
X117479475Y-112100353D01*
G75*
G02*
X117539828Y-112403768I-121531J-181884D01*
G01*
X117296766Y-112767536D01*
G75*
G02*
X116993351Y-112827889I-181884J121531D01*
G01*
G37*
G04 #@! TD.AperFunction*
G04 #@! TA.AperFunction,SMDPad,CuDef*
G36*
G01*
X115277926Y-114782950D02*
X114915533Y-114420558D01*
G75*
G02*
X114915533Y-114111198I154680J154680D01*
G01*
X115224892Y-113801839D01*
G75*
G02*
X115534252Y-113801839I154680J-154680D01*
G01*
X115896645Y-114164232D01*
G75*
G02*
X115896645Y-114473592I-154680J-154680D01*
G01*
X115587286Y-114782951D01*
G75*
G02*
X115277926Y-114782951I-154680J154680D01*
G01*
G37*
G04 #@! TD.AperFunction*
G04 #@! TA.AperFunction,SMDPad,CuDef*
G36*
G01*
X114164232Y-115896644D02*
X113801839Y-115534252D01*
G75*
G02*
X113801839Y-115224892I154680J154680D01*
G01*
X114111198Y-114915533D01*
G75*
G02*
X114420558Y-114915533I154680J-154680D01*
G01*
X114782951Y-115277926D01*
G75*
G02*
X114782951Y-115587286I-154680J-154680D01*
G01*
X114473592Y-115896645D01*
G75*
G02*
X114164232Y-115896645I-154680J154680D01*
G01*
G37*
G04 #@! TD.AperFunction*
G04 #@! TA.AperFunction,SMDPad,CuDef*
G36*
G01*
X112100353Y-117479475D02*
X111815623Y-117053347D01*
G75*
G02*
X111875976Y-116749932I181884J121531D01*
G01*
X112239744Y-116506870D01*
G75*
G02*
X112543159Y-116567223I121531J-181884D01*
G01*
X112827889Y-116993351D01*
G75*
G02*
X112767536Y-117296766I-181884J-121531D01*
G01*
X112403768Y-117539828D01*
G75*
G02*
X112100353Y-117479475I-121531J181884D01*
G01*
G37*
G04 #@! TD.AperFunction*
G04 #@! TA.AperFunction,SMDPad,CuDef*
G36*
G01*
X110790789Y-118354499D02*
X110506059Y-117928371D01*
G75*
G02*
X110566412Y-117624956I181884J121531D01*
G01*
X110930180Y-117381894D01*
G75*
G02*
X111233595Y-117442247I121531J-181884D01*
G01*
X111518325Y-117868375D01*
G75*
G02*
X111457972Y-118171790I-181884J-121531D01*
G01*
X111094204Y-118414852D01*
G75*
G02*
X110790789Y-118354499I-121531J181884D01*
G01*
G37*
G04 #@! TD.AperFunction*
G04 #@! TA.AperFunction,SMDPad,CuDef*
G36*
G01*
X108457772Y-119504275D02*
X108261647Y-119030787D01*
G75*
G02*
X108380034Y-118744976I202099J83712D01*
G01*
X108784231Y-118577552D01*
G75*
G02*
X109070042Y-118695939I83712J-202099D01*
G01*
X109266167Y-119169427D01*
G75*
G02*
X109147780Y-119455238I-202099J-83712D01*
G01*
X108743583Y-119622662D01*
G75*
G02*
X108457772Y-119504275I-83712J202099D01*
G01*
G37*
G04 #@! TD.AperFunction*
G04 #@! TA.AperFunction,SMDPad,CuDef*
G36*
G01*
X107002662Y-120107001D02*
X106806537Y-119633513D01*
G75*
G02*
X106924924Y-119347702I202099J83712D01*
G01*
X107329121Y-119180278D01*
G75*
G02*
X107614932Y-119298665I83712J-202099D01*
G01*
X107811057Y-119772153D01*
G75*
G02*
X107692670Y-120057964I-202099J-83712D01*
G01*
X107288473Y-120225388D01*
G75*
G02*
X107002662Y-120107001I-83712J202099D01*
G01*
G37*
G04 #@! TD.AperFunction*
G04 #@! TA.AperFunction,SMDPad,CuDef*
G36*
G01*
X104490162Y-120779534D02*
X104390178Y-120276882D01*
G75*
G02*
X104562049Y-120019659I214547J42676D01*
G01*
X104991143Y-119934307D01*
G75*
G02*
X105248366Y-120106178I42676J-214547D01*
G01*
X105348350Y-120608830D01*
G75*
G02*
X105176479Y-120866053I-214547J-42676D01*
G01*
X104747385Y-120951405D01*
G75*
G02*
X104490162Y-120779534I-42676J214547D01*
G01*
G37*
G04 #@! TD.AperFunction*
G04 #@! TA.AperFunction,SMDPad,CuDef*
G36*
G01*
X102945426Y-121086802D02*
X102845442Y-120584150D01*
G75*
G02*
X103017313Y-120326927I214547J42676D01*
G01*
X103446407Y-120241575D01*
G75*
G02*
X103703630Y-120413446I42676J-214547D01*
G01*
X103803614Y-120916098D01*
G75*
G02*
X103631743Y-121173321I-214547J-42676D01*
G01*
X103202649Y-121258673D01*
G75*
G02*
X102945426Y-121086802I-42676J214547D01*
G01*
G37*
G04 #@! TD.AperFunction*
G04 #@! TA.AperFunction,SMDPad,CuDef*
G36*
G01*
X100350000Y-121256250D02*
X100350000Y-120743750D01*
G75*
G02*
X100568750Y-120525000I218750J0D01*
G01*
X101006250Y-120525000D01*
G75*
G02*
X101225000Y-120743750I0J-218750D01*
G01*
X101225000Y-121256250D01*
G75*
G02*
X101006250Y-121475000I-218750J0D01*
G01*
X100568750Y-121475000D01*
G75*
G02*
X100350000Y-121256250I0J218750D01*
G01*
G37*
G04 #@! TD.AperFunction*
G04 #@! TA.AperFunction,SMDPad,CuDef*
G36*
G01*
X98775000Y-121256250D02*
X98775000Y-120743750D01*
G75*
G02*
X98993750Y-120525000I218750J0D01*
G01*
X99431250Y-120525000D01*
G75*
G02*
X99650000Y-120743750I0J-218750D01*
G01*
X99650000Y-121256250D01*
G75*
G02*
X99431250Y-121475000I-218750J0D01*
G01*
X98993750Y-121475000D01*
G75*
G02*
X98775000Y-121256250I0J218750D01*
G01*
G37*
G04 #@! TD.AperFunction*
G04 #@! TA.AperFunction,SMDPad,CuDef*
G36*
G01*
X96196386Y-120916098D02*
X96296369Y-120413446D01*
G75*
G02*
X96553592Y-120241575I214547J-42676D01*
G01*
X96982686Y-120326927D01*
G75*
G02*
X97154557Y-120584150I-42676J-214547D01*
G01*
X97054573Y-121086802D01*
G75*
G02*
X96797350Y-121258673I-214547J42676D01*
G01*
X96368256Y-121173321D01*
G75*
G02*
X96196385Y-120916098I42676J214547D01*
G01*
G37*
G04 #@! TD.AperFunction*
G04 #@! TA.AperFunction,SMDPad,CuDef*
G36*
G01*
X94651650Y-120608830D02*
X94751633Y-120106178D01*
G75*
G02*
X95008856Y-119934307I214547J-42676D01*
G01*
X95437950Y-120019659D01*
G75*
G02*
X95609821Y-120276882I-42676J-214547D01*
G01*
X95509837Y-120779534D01*
G75*
G02*
X95252614Y-120951405I-214547J42676D01*
G01*
X94823520Y-120866053D01*
G75*
G02*
X94651649Y-120608830I42676J214547D01*
G01*
G37*
G04 #@! TD.AperFunction*
G04 #@! TA.AperFunction,SMDPad,CuDef*
G36*
G01*
X92188942Y-119772153D02*
X92385067Y-119298665D01*
G75*
G02*
X92670878Y-119180278I202099J-83712D01*
G01*
X93075075Y-119347702D01*
G75*
G02*
X93193462Y-119633513I-83712J-202099D01*
G01*
X92997337Y-120107001D01*
G75*
G02*
X92711526Y-120225388I-202099J83712D01*
G01*
X92307329Y-120057964D01*
G75*
G02*
X92188942Y-119772153I83712J202099D01*
G01*
G37*
G04 #@! TD.AperFunction*
G04 #@! TA.AperFunction,SMDPad,CuDef*
G36*
G01*
X90733832Y-119169427D02*
X90929957Y-118695939D01*
G75*
G02*
X91215768Y-118577552I202099J-83712D01*
G01*
X91619965Y-118744976D01*
G75*
G02*
X91738352Y-119030787I-83712J-202099D01*
G01*
X91542227Y-119504275D01*
G75*
G02*
X91256416Y-119622662I-202099J83712D01*
G01*
X90852219Y-119455238D01*
G75*
G02*
X90733832Y-119169427I83712J202099D01*
G01*
G37*
G04 #@! TD.AperFunction*
G04 #@! TA.AperFunction,SMDPad,CuDef*
G36*
G01*
X88481674Y-117868375D02*
X88766404Y-117442247D01*
G75*
G02*
X89069819Y-117381894I181884J-121531D01*
G01*
X89433587Y-117624956D01*
G75*
G02*
X89493940Y-117928371I-121531J-181884D01*
G01*
X89209210Y-118354499D01*
G75*
G02*
X88905795Y-118414852I-181884J121531D01*
G01*
X88542027Y-118171790D01*
G75*
G02*
X88481674Y-117868375I121531J181884D01*
G01*
G37*
G04 #@! TD.AperFunction*
G04 #@! TA.AperFunction,SMDPad,CuDef*
G36*
G01*
X87172110Y-116993351D02*
X87456840Y-116567223D01*
G75*
G02*
X87760255Y-116506870I181884J-121531D01*
G01*
X88124023Y-116749932D01*
G75*
G02*
X88184376Y-117053347I-121531J-181884D01*
G01*
X87899646Y-117479475D01*
G75*
G02*
X87596231Y-117539828I-181884J121531D01*
G01*
X87232463Y-117296766D01*
G75*
G02*
X87172110Y-116993351I121531J181884D01*
G01*
G37*
G04 #@! TD.AperFunction*
G04 #@! TA.AperFunction,SMDPad,CuDef*
G36*
G01*
X85217049Y-115277926D02*
X85579441Y-114915533D01*
G75*
G02*
X85888801Y-114915533I154680J-154680D01*
G01*
X86198160Y-115224892D01*
G75*
G02*
X86198160Y-115534252I-154680J-154680D01*
G01*
X85835767Y-115896645D01*
G75*
G02*
X85526407Y-115896645I-154680J154680D01*
G01*
X85217048Y-115587286D01*
G75*
G02*
X85217048Y-115277926I154680J154680D01*
G01*
G37*
G04 #@! TD.AperFunction*
G04 #@! TA.AperFunction,SMDPad,CuDef*
G36*
G01*
X84103355Y-114164232D02*
X84465747Y-113801839D01*
G75*
G02*
X84775107Y-113801839I154680J-154680D01*
G01*
X85084466Y-114111198D01*
G75*
G02*
X85084466Y-114420558I-154680J-154680D01*
G01*
X84722073Y-114782951D01*
G75*
G02*
X84412713Y-114782951I-154680J154680D01*
G01*
X84103354Y-114473592D01*
G75*
G02*
X84103354Y-114164232I154680J154680D01*
G01*
G37*
G04 #@! TD.AperFunction*
G04 #@! TA.AperFunction,SMDPad,CuDef*
G36*
G01*
X82520524Y-112100353D02*
X82946652Y-111815623D01*
G75*
G02*
X83250067Y-111875976I121531J-181884D01*
G01*
X83493129Y-112239744D01*
G75*
G02*
X83432776Y-112543159I-181884J-121531D01*
G01*
X83006648Y-112827889D01*
G75*
G02*
X82703233Y-112767536I-121531J181884D01*
G01*
X82460171Y-112403768D01*
G75*
G02*
X82520524Y-112100353I181884J121531D01*
G01*
G37*
G04 #@! TD.AperFunction*
G04 #@! TA.AperFunction,SMDPad,CuDef*
G36*
G01*
X81645500Y-110790789D02*
X82071628Y-110506059D01*
G75*
G02*
X82375043Y-110566412I121531J-181884D01*
G01*
X82618105Y-110930180D01*
G75*
G02*
X82557752Y-111233595I-181884J-121531D01*
G01*
X82131624Y-111518325D01*
G75*
G02*
X81828209Y-111457972I-121531J181884D01*
G01*
X81585147Y-111094204D01*
G75*
G02*
X81645500Y-110790789I181884J121531D01*
G01*
G37*
G04 #@! TD.AperFunction*
G04 #@! TA.AperFunction,SMDPad,CuDef*
G36*
G01*
X80495724Y-108457772D02*
X80969212Y-108261647D01*
G75*
G02*
X81255023Y-108380034I83712J-202099D01*
G01*
X81422447Y-108784231D01*
G75*
G02*
X81304060Y-109070042I-202099J-83712D01*
G01*
X80830572Y-109266167D01*
G75*
G02*
X80544761Y-109147780I-83712J202099D01*
G01*
X80377337Y-108743583D01*
G75*
G02*
X80495724Y-108457772I202099J83712D01*
G01*
G37*
G04 #@! TD.AperFunction*
G04 #@! TA.AperFunction,SMDPad,CuDef*
G36*
G01*
X79892998Y-107002662D02*
X80366486Y-106806537D01*
G75*
G02*
X80652297Y-106924924I83712J-202099D01*
G01*
X80819721Y-107329121D01*
G75*
G02*
X80701334Y-107614932I-202099J-83712D01*
G01*
X80227846Y-107811057D01*
G75*
G02*
X79942035Y-107692670I-83712J202099D01*
G01*
X79774611Y-107288473D01*
G75*
G02*
X79892998Y-107002662I202099J83712D01*
G01*
G37*
G04 #@! TD.AperFunction*
G04 #@! TA.AperFunction,SMDPad,CuDef*
G36*
G01*
X79220465Y-104490162D02*
X79723117Y-104390178D01*
G75*
G02*
X79980340Y-104562049I42676J-214547D01*
G01*
X80065692Y-104991143D01*
G75*
G02*
X79893821Y-105248366I-214547J-42676D01*
G01*
X79391169Y-105348350D01*
G75*
G02*
X79133946Y-105176479I-42676J214547D01*
G01*
X79048594Y-104747385D01*
G75*
G02*
X79220465Y-104490162I214547J42676D01*
G01*
G37*
G04 #@! TD.AperFunction*
G04 #@! TA.AperFunction,SMDPad,CuDef*
G36*
G01*
X78913197Y-102945426D02*
X79415849Y-102845442D01*
G75*
G02*
X79673072Y-103017313I42676J-214547D01*
G01*
X79758424Y-103446407D01*
G75*
G02*
X79586553Y-103703630I-214547J-42676D01*
G01*
X79083901Y-103803614D01*
G75*
G02*
X78826678Y-103631743I-42676J214547D01*
G01*
X78741326Y-103202649D01*
G75*
G02*
X78913197Y-102945426I214547J42676D01*
G01*
G37*
G04 #@! TD.AperFunction*
G04 #@! TA.AperFunction,SMDPad,CuDef*
G36*
G01*
X78743750Y-100350000D02*
X79256250Y-100350000D01*
G75*
G02*
X79475000Y-100568750I0J-218750D01*
G01*
X79475000Y-101006250D01*
G75*
G02*
X79256250Y-101225000I-218750J0D01*
G01*
X78743750Y-101225000D01*
G75*
G02*
X78525000Y-101006250I0J218750D01*
G01*
X78525000Y-100568750D01*
G75*
G02*
X78743750Y-100350000I218750J0D01*
G01*
G37*
G04 #@! TD.AperFunction*
G04 #@! TA.AperFunction,SMDPad,CuDef*
G36*
G01*
X78743750Y-98775000D02*
X79256250Y-98775000D01*
G75*
G02*
X79475000Y-98993750I0J-218750D01*
G01*
X79475000Y-99431250D01*
G75*
G02*
X79256250Y-99650000I-218750J0D01*
G01*
X78743750Y-99650000D01*
G75*
G02*
X78525000Y-99431250I0J218750D01*
G01*
X78525000Y-98993750D01*
G75*
G02*
X78743750Y-98775000I218750J0D01*
G01*
G37*
G04 #@! TD.AperFunction*
G04 #@! TA.AperFunction,SMDPad,CuDef*
G36*
G01*
X79083901Y-96196386D02*
X79586553Y-96296369D01*
G75*
G02*
X79758424Y-96553592I-42676J-214547D01*
G01*
X79673072Y-96982686D01*
G75*
G02*
X79415849Y-97154557I-214547J42676D01*
G01*
X78913197Y-97054573D01*
G75*
G02*
X78741326Y-96797350I42676J214547D01*
G01*
X78826678Y-96368256D01*
G75*
G02*
X79083901Y-96196385I214547J-42676D01*
G01*
G37*
G04 #@! TD.AperFunction*
G04 #@! TA.AperFunction,SMDPad,CuDef*
G36*
G01*
X79391169Y-94651650D02*
X79893821Y-94751633D01*
G75*
G02*
X80065692Y-95008856I-42676J-214547D01*
G01*
X79980340Y-95437950D01*
G75*
G02*
X79723117Y-95609821I-214547J42676D01*
G01*
X79220465Y-95509837D01*
G75*
G02*
X79048594Y-95252614I42676J214547D01*
G01*
X79133946Y-94823520D01*
G75*
G02*
X79391169Y-94651649I214547J-42676D01*
G01*
G37*
G04 #@! TD.AperFunction*
G04 #@! TA.AperFunction,SMDPad,CuDef*
G36*
G01*
X80227846Y-92188942D02*
X80701334Y-92385067D01*
G75*
G02*
X80819721Y-92670878I-83712J-202099D01*
G01*
X80652297Y-93075075D01*
G75*
G02*
X80366486Y-93193462I-202099J83712D01*
G01*
X79892998Y-92997337D01*
G75*
G02*
X79774611Y-92711526I83712J202099D01*
G01*
X79942035Y-92307329D01*
G75*
G02*
X80227846Y-92188942I202099J-83712D01*
G01*
G37*
G04 #@! TD.AperFunction*
G04 #@! TA.AperFunction,SMDPad,CuDef*
G36*
G01*
X80830572Y-90733832D02*
X81304060Y-90929957D01*
G75*
G02*
X81422447Y-91215768I-83712J-202099D01*
G01*
X81255023Y-91619965D01*
G75*
G02*
X80969212Y-91738352I-202099J83712D01*
G01*
X80495724Y-91542227D01*
G75*
G02*
X80377337Y-91256416I83712J202099D01*
G01*
X80544761Y-90852219D01*
G75*
G02*
X80830572Y-90733832I202099J-83712D01*
G01*
G37*
G04 #@! TD.AperFunction*
G04 #@! TA.AperFunction,SMDPad,CuDef*
G36*
G01*
X82131624Y-88481674D02*
X82557752Y-88766404D01*
G75*
G02*
X82618105Y-89069819I-121531J-181884D01*
G01*
X82375043Y-89433587D01*
G75*
G02*
X82071628Y-89493940I-181884J121531D01*
G01*
X81645500Y-89209210D01*
G75*
G02*
X81585147Y-88905795I121531J181884D01*
G01*
X81828209Y-88542027D01*
G75*
G02*
X82131624Y-88481674I181884J-121531D01*
G01*
G37*
G04 #@! TD.AperFunction*
G04 #@! TA.AperFunction,SMDPad,CuDef*
G36*
G01*
X83006648Y-87172110D02*
X83432776Y-87456840D01*
G75*
G02*
X83493129Y-87760255I-121531J-181884D01*
G01*
X83250067Y-88124023D01*
G75*
G02*
X82946652Y-88184376I-181884J121531D01*
G01*
X82520524Y-87899646D01*
G75*
G02*
X82460171Y-87596231I121531J181884D01*
G01*
X82703233Y-87232463D01*
G75*
G02*
X83006648Y-87172110I181884J-121531D01*
G01*
G37*
G04 #@! TD.AperFunction*
G04 #@! TA.AperFunction,SMDPad,CuDef*
G36*
G01*
X84722073Y-85217049D02*
X85084466Y-85579441D01*
G75*
G02*
X85084466Y-85888801I-154680J-154680D01*
G01*
X84775107Y-86198160D01*
G75*
G02*
X84465747Y-86198160I-154680J154680D01*
G01*
X84103354Y-85835767D01*
G75*
G02*
X84103354Y-85526407I154680J154680D01*
G01*
X84412713Y-85217048D01*
G75*
G02*
X84722073Y-85217048I154680J-154680D01*
G01*
G37*
G04 #@! TD.AperFunction*
G04 #@! TA.AperFunction,SMDPad,CuDef*
G36*
G01*
X85835767Y-84103355D02*
X86198160Y-84465747D01*
G75*
G02*
X86198160Y-84775107I-154680J-154680D01*
G01*
X85888801Y-85084466D01*
G75*
G02*
X85579441Y-85084466I-154680J154680D01*
G01*
X85217048Y-84722073D01*
G75*
G02*
X85217048Y-84412713I154680J154680D01*
G01*
X85526407Y-84103354D01*
G75*
G02*
X85835767Y-84103354I154680J-154680D01*
G01*
G37*
G04 #@! TD.AperFunction*
G04 #@! TA.AperFunction,SMDPad,CuDef*
G36*
G01*
X87899646Y-82520524D02*
X88184376Y-82946652D01*
G75*
G02*
X88124023Y-83250067I-181884J-121531D01*
G01*
X87760255Y-83493129D01*
G75*
G02*
X87456840Y-83432776I-121531J181884D01*
G01*
X87172110Y-83006648D01*
G75*
G02*
X87232463Y-82703233I181884J121531D01*
G01*
X87596231Y-82460171D01*
G75*
G02*
X87899646Y-82520524I121531J-181884D01*
G01*
G37*
G04 #@! TD.AperFunction*
G04 #@! TA.AperFunction,SMDPad,CuDef*
G36*
G01*
X89209210Y-81645500D02*
X89493940Y-82071628D01*
G75*
G02*
X89433587Y-82375043I-181884J-121531D01*
G01*
X89069819Y-82618105D01*
G75*
G02*
X88766404Y-82557752I-121531J181884D01*
G01*
X88481674Y-82131624D01*
G75*
G02*
X88542027Y-81828209I181884J121531D01*
G01*
X88905795Y-81585147D01*
G75*
G02*
X89209210Y-81645500I121531J-181884D01*
G01*
G37*
G04 #@! TD.AperFunction*
G04 #@! TA.AperFunction,SMDPad,CuDef*
G36*
G01*
X91542227Y-80495724D02*
X91738352Y-80969212D01*
G75*
G02*
X91619965Y-81255023I-202099J-83712D01*
G01*
X91215768Y-81422447D01*
G75*
G02*
X90929957Y-81304060I-83712J202099D01*
G01*
X90733832Y-80830572D01*
G75*
G02*
X90852219Y-80544761I202099J83712D01*
G01*
X91256416Y-80377337D01*
G75*
G02*
X91542227Y-80495724I83712J-202099D01*
G01*
G37*
G04 #@! TD.AperFunction*
G04 #@! TA.AperFunction,SMDPad,CuDef*
G36*
G01*
X92997337Y-79892998D02*
X93193462Y-80366486D01*
G75*
G02*
X93075075Y-80652297I-202099J-83712D01*
G01*
X92670878Y-80819721D01*
G75*
G02*
X92385067Y-80701334I-83712J202099D01*
G01*
X92188942Y-80227846D01*
G75*
G02*
X92307329Y-79942035I202099J83712D01*
G01*
X92711526Y-79774611D01*
G75*
G02*
X92997337Y-79892998I83712J-202099D01*
G01*
G37*
G04 #@! TD.AperFunction*
G04 #@! TA.AperFunction,SMDPad,CuDef*
G36*
G01*
X95509837Y-79220465D02*
X95609821Y-79723117D01*
G75*
G02*
X95437950Y-79980340I-214547J-42676D01*
G01*
X95008856Y-80065692D01*
G75*
G02*
X94751633Y-79893821I-42676J214547D01*
G01*
X94651649Y-79391169D01*
G75*
G02*
X94823520Y-79133946I214547J42676D01*
G01*
X95252614Y-79048594D01*
G75*
G02*
X95509837Y-79220465I42676J-214547D01*
G01*
G37*
G04 #@! TD.AperFunction*
G04 #@! TA.AperFunction,SMDPad,CuDef*
G36*
G01*
X97054573Y-78913197D02*
X97154557Y-79415849D01*
G75*
G02*
X96982686Y-79673072I-214547J-42676D01*
G01*
X96553592Y-79758424D01*
G75*
G02*
X96296369Y-79586553I-42676J214547D01*
G01*
X96196385Y-79083901D01*
G75*
G02*
X96368256Y-78826678I214547J42676D01*
G01*
X96797350Y-78741326D01*
G75*
G02*
X97054573Y-78913197I42676J-214547D01*
G01*
G37*
G04 #@! TD.AperFunction*
G04 #@! TA.AperFunction,SMDPad,CuDef*
G36*
G01*
X99650000Y-78743750D02*
X99650000Y-79256250D01*
G75*
G02*
X99431250Y-79475000I-218750J0D01*
G01*
X98993750Y-79475000D01*
G75*
G02*
X98775000Y-79256250I0J218750D01*
G01*
X98775000Y-78743750D01*
G75*
G02*
X98993750Y-78525000I218750J0D01*
G01*
X99431250Y-78525000D01*
G75*
G02*
X99650000Y-78743750I0J-218750D01*
G01*
G37*
G04 #@! TD.AperFunction*
G04 #@! TA.AperFunction,SMDPad,CuDef*
G36*
G01*
X101225000Y-78743750D02*
X101225000Y-79256250D01*
G75*
G02*
X101006250Y-79475000I-218750J0D01*
G01*
X100568750Y-79475000D01*
G75*
G02*
X100350000Y-79256250I0J218750D01*
G01*
X100350000Y-78743750D01*
G75*
G02*
X100568750Y-78525000I218750J0D01*
G01*
X101006250Y-78525000D01*
G75*
G02*
X101225000Y-78743750I0J-218750D01*
G01*
G37*
G04 #@! TD.AperFunction*
G04 #@! TA.AperFunction,SMDPad,CuDef*
G36*
G01*
X106902316Y-112976363D02*
X106690184Y-113188495D01*
G75*
G02*
X106478052Y-113188495I-106066J106066D01*
G01*
X105311326Y-112021769D01*
G75*
G02*
X105311326Y-111809637I106066J106066D01*
G01*
X105523458Y-111597505D01*
G75*
G02*
X105735590Y-111597505I106066J-106066D01*
G01*
X106902316Y-112764231D01*
G75*
G02*
X106902316Y-112976363I-106066J-106066D01*
G01*
G37*
G04 #@! TD.AperFunction*
G04 #@! TA.AperFunction,SMDPad,CuDef*
G36*
G01*
X107800342Y-112078338D02*
X107588210Y-112290470D01*
G75*
G02*
X107376078Y-112290470I-106066J106066D01*
G01*
X106209352Y-111123744D01*
G75*
G02*
X106209352Y-110911612I106066J106066D01*
G01*
X106421484Y-110699480D01*
G75*
G02*
X106633616Y-110699480I106066J-106066D01*
G01*
X107800342Y-111866206D01*
G75*
G02*
X107800342Y-112078338I-106066J-106066D01*
G01*
G37*
G04 #@! TD.AperFunction*
G04 #@! TA.AperFunction,SMDPad,CuDef*
G36*
G01*
X108698367Y-111180312D02*
X108486235Y-111392444D01*
G75*
G02*
X108274103Y-111392444I-106066J106066D01*
G01*
X107107377Y-110225718D01*
G75*
G02*
X107107377Y-110013586I106066J106066D01*
G01*
X107319509Y-109801454D01*
G75*
G02*
X107531641Y-109801454I106066J-106066D01*
G01*
X108698367Y-110968180D01*
G75*
G02*
X108698367Y-111180312I-106066J-106066D01*
G01*
G37*
G04 #@! TD.AperFunction*
G04 #@! TA.AperFunction,SMDPad,CuDef*
G36*
G01*
X109596393Y-110282287D02*
X109384261Y-110494419D01*
G75*
G02*
X109172129Y-110494419I-106066J106066D01*
G01*
X108005403Y-109327693D01*
G75*
G02*
X108005403Y-109115561I106066J106066D01*
G01*
X108217535Y-108903429D01*
G75*
G02*
X108429667Y-108903429I106066J-106066D01*
G01*
X109596393Y-110070155D01*
G75*
G02*
X109596393Y-110282287I-106066J-106066D01*
G01*
G37*
G04 #@! TD.AperFunction*
G04 #@! TA.AperFunction,SMDPad,CuDef*
G36*
G01*
X110494419Y-109384261D02*
X110282287Y-109596393D01*
G75*
G02*
X110070155Y-109596393I-106066J106066D01*
G01*
X108903429Y-108429667D01*
G75*
G02*
X108903429Y-108217535I106066J106066D01*
G01*
X109115561Y-108005403D01*
G75*
G02*
X109327693Y-108005403I106066J-106066D01*
G01*
X110494419Y-109172129D01*
G75*
G02*
X110494419Y-109384261I-106066J-106066D01*
G01*
G37*
G04 #@! TD.AperFunction*
G04 #@! TA.AperFunction,SMDPad,CuDef*
G36*
G01*
X111392444Y-108486235D02*
X111180312Y-108698367D01*
G75*
G02*
X110968180Y-108698367I-106066J106066D01*
G01*
X109801454Y-107531641D01*
G75*
G02*
X109801454Y-107319509I106066J106066D01*
G01*
X110013586Y-107107377D01*
G75*
G02*
X110225718Y-107107377I106066J-106066D01*
G01*
X111392444Y-108274103D01*
G75*
G02*
X111392444Y-108486235I-106066J-106066D01*
G01*
G37*
G04 #@! TD.AperFunction*
G04 #@! TA.AperFunction,SMDPad,CuDef*
G36*
G01*
X112290470Y-107588210D02*
X112078338Y-107800342D01*
G75*
G02*
X111866206Y-107800342I-106066J106066D01*
G01*
X110699480Y-106633616D01*
G75*
G02*
X110699480Y-106421484I106066J106066D01*
G01*
X110911612Y-106209352D01*
G75*
G02*
X111123744Y-106209352I106066J-106066D01*
G01*
X112290470Y-107376078D01*
G75*
G02*
X112290470Y-107588210I-106066J-106066D01*
G01*
G37*
G04 #@! TD.AperFunction*
G04 #@! TA.AperFunction,SMDPad,CuDef*
G36*
G01*
X113188495Y-106690184D02*
X112976363Y-106902316D01*
G75*
G02*
X112764231Y-106902316I-106066J106066D01*
G01*
X111597505Y-105735590D01*
G75*
G02*
X111597505Y-105523458I106066J106066D01*
G01*
X111809637Y-105311326D01*
G75*
G02*
X112021769Y-105311326I106066J-106066D01*
G01*
X113188495Y-106478052D01*
G75*
G02*
X113188495Y-106690184I-106066J-106066D01*
G01*
G37*
G04 #@! TD.AperFunction*
G04 #@! TA.AperFunction,SMDPad,CuDef*
G36*
G01*
X116688674Y-110190363D02*
X116476542Y-110402495D01*
G75*
G02*
X116264410Y-110402495I-106066J106066D01*
G01*
X115097684Y-109235769D01*
G75*
G02*
X115097684Y-109023637I106066J106066D01*
G01*
X115309816Y-108811505D01*
G75*
G02*
X115521948Y-108811505I106066J-106066D01*
G01*
X116688674Y-109978231D01*
G75*
G02*
X116688674Y-110190363I-106066J-106066D01*
G01*
G37*
G04 #@! TD.AperFunction*
G04 #@! TA.AperFunction,SMDPad,CuDef*
G36*
G01*
X115790648Y-111088388D02*
X115578516Y-111300520D01*
G75*
G02*
X115366384Y-111300520I-106066J106066D01*
G01*
X114199658Y-110133794D01*
G75*
G02*
X114199658Y-109921662I106066J106066D01*
G01*
X114411790Y-109709530D01*
G75*
G02*
X114623922Y-109709530I106066J-106066D01*
G01*
X115790648Y-110876256D01*
G75*
G02*
X115790648Y-111088388I-106066J-106066D01*
G01*
G37*
G04 #@! TD.AperFunction*
G04 #@! TA.AperFunction,SMDPad,CuDef*
G36*
G01*
X114892623Y-111986414D02*
X114680491Y-112198546D01*
G75*
G02*
X114468359Y-112198546I-106066J106066D01*
G01*
X113301633Y-111031820D01*
G75*
G02*
X113301633Y-110819688I106066J106066D01*
G01*
X113513765Y-110607556D01*
G75*
G02*
X113725897Y-110607556I106066J-106066D01*
G01*
X114892623Y-111774282D01*
G75*
G02*
X114892623Y-111986414I-106066J-106066D01*
G01*
G37*
G04 #@! TD.AperFunction*
G04 #@! TA.AperFunction,SMDPad,CuDef*
G36*
G01*
X113994597Y-112884439D02*
X113782465Y-113096571D01*
G75*
G02*
X113570333Y-113096571I-106066J106066D01*
G01*
X112403607Y-111929845D01*
G75*
G02*
X112403607Y-111717713I106066J106066D01*
G01*
X112615739Y-111505581D01*
G75*
G02*
X112827871Y-111505581I106066J-106066D01*
G01*
X113994597Y-112672307D01*
G75*
G02*
X113994597Y-112884439I-106066J-106066D01*
G01*
G37*
G04 #@! TD.AperFunction*
G04 #@! TA.AperFunction,SMDPad,CuDef*
G36*
G01*
X113096571Y-113782465D02*
X112884439Y-113994597D01*
G75*
G02*
X112672307Y-113994597I-106066J106066D01*
G01*
X111505581Y-112827871D01*
G75*
G02*
X111505581Y-112615739I106066J106066D01*
G01*
X111717713Y-112403607D01*
G75*
G02*
X111929845Y-112403607I106066J-106066D01*
G01*
X113096571Y-113570333D01*
G75*
G02*
X113096571Y-113782465I-106066J-106066D01*
G01*
G37*
G04 #@! TD.AperFunction*
G04 #@! TA.AperFunction,SMDPad,CuDef*
G36*
G01*
X112198546Y-114680491D02*
X111986414Y-114892623D01*
G75*
G02*
X111774282Y-114892623I-106066J106066D01*
G01*
X110607556Y-113725897D01*
G75*
G02*
X110607556Y-113513765I106066J106066D01*
G01*
X110819688Y-113301633D01*
G75*
G02*
X111031820Y-113301633I106066J-106066D01*
G01*
X112198546Y-114468359D01*
G75*
G02*
X112198546Y-114680491I-106066J-106066D01*
G01*
G37*
G04 #@! TD.AperFunction*
G04 #@! TA.AperFunction,SMDPad,CuDef*
G36*
G01*
X111300520Y-115578516D02*
X111088388Y-115790648D01*
G75*
G02*
X110876256Y-115790648I-106066J106066D01*
G01*
X109709530Y-114623922D01*
G75*
G02*
X109709530Y-114411790I106066J106066D01*
G01*
X109921662Y-114199658D01*
G75*
G02*
X110133794Y-114199658I106066J-106066D01*
G01*
X111300520Y-115366384D01*
G75*
G02*
X111300520Y-115578516I-106066J-106066D01*
G01*
G37*
G04 #@! TD.AperFunction*
G04 #@! TA.AperFunction,SMDPad,CuDef*
G36*
G01*
X110402495Y-116476542D02*
X110190363Y-116688674D01*
G75*
G02*
X109978231Y-116688674I-106066J106066D01*
G01*
X108811505Y-115521948D01*
G75*
G02*
X108811505Y-115309816I106066J106066D01*
G01*
X109023637Y-115097684D01*
G75*
G02*
X109235769Y-115097684I106066J-106066D01*
G01*
X110402495Y-116264410D01*
G75*
G02*
X110402495Y-116476542I-106066J-106066D01*
G01*
G37*
G04 #@! TD.AperFunction*
G04 #@! TA.AperFunction,SMDPad,CuDef*
G36*
G01*
X87023637Y-106902316D02*
X86811505Y-106690184D01*
G75*
G02*
X86811505Y-106478052I106066J106066D01*
G01*
X87978231Y-105311326D01*
G75*
G02*
X88190363Y-105311326I106066J-106066D01*
G01*
X88402495Y-105523458D01*
G75*
G02*
X88402495Y-105735590I-106066J-106066D01*
G01*
X87235769Y-106902316D01*
G75*
G02*
X87023637Y-106902316I-106066J106066D01*
G01*
G37*
G04 #@! TD.AperFunction*
G04 #@! TA.AperFunction,SMDPad,CuDef*
G36*
G01*
X87921662Y-107800342D02*
X87709530Y-107588210D01*
G75*
G02*
X87709530Y-107376078I106066J106066D01*
G01*
X88876256Y-106209352D01*
G75*
G02*
X89088388Y-106209352I106066J-106066D01*
G01*
X89300520Y-106421484D01*
G75*
G02*
X89300520Y-106633616I-106066J-106066D01*
G01*
X88133794Y-107800342D01*
G75*
G02*
X87921662Y-107800342I-106066J106066D01*
G01*
G37*
G04 #@! TD.AperFunction*
G04 #@! TA.AperFunction,SMDPad,CuDef*
G36*
G01*
X88819688Y-108698367D02*
X88607556Y-108486235D01*
G75*
G02*
X88607556Y-108274103I106066J106066D01*
G01*
X89774282Y-107107377D01*
G75*
G02*
X89986414Y-107107377I106066J-106066D01*
G01*
X90198546Y-107319509D01*
G75*
G02*
X90198546Y-107531641I-106066J-106066D01*
G01*
X89031820Y-108698367D01*
G75*
G02*
X88819688Y-108698367I-106066J106066D01*
G01*
G37*
G04 #@! TD.AperFunction*
G04 #@! TA.AperFunction,SMDPad,CuDef*
G36*
G01*
X89717713Y-109596393D02*
X89505581Y-109384261D01*
G75*
G02*
X89505581Y-109172129I106066J106066D01*
G01*
X90672307Y-108005403D01*
G75*
G02*
X90884439Y-108005403I106066J-106066D01*
G01*
X91096571Y-108217535D01*
G75*
G02*
X91096571Y-108429667I-106066J-106066D01*
G01*
X89929845Y-109596393D01*
G75*
G02*
X89717713Y-109596393I-106066J106066D01*
G01*
G37*
G04 #@! TD.AperFunction*
G04 #@! TA.AperFunction,SMDPad,CuDef*
G36*
G01*
X90615739Y-110494419D02*
X90403607Y-110282287D01*
G75*
G02*
X90403607Y-110070155I106066J106066D01*
G01*
X91570333Y-108903429D01*
G75*
G02*
X91782465Y-108903429I106066J-106066D01*
G01*
X91994597Y-109115561D01*
G75*
G02*
X91994597Y-109327693I-106066J-106066D01*
G01*
X90827871Y-110494419D01*
G75*
G02*
X90615739Y-110494419I-106066J106066D01*
G01*
G37*
G04 #@! TD.AperFunction*
G04 #@! TA.AperFunction,SMDPad,CuDef*
G36*
G01*
X91513765Y-111392444D02*
X91301633Y-111180312D01*
G75*
G02*
X91301633Y-110968180I106066J106066D01*
G01*
X92468359Y-109801454D01*
G75*
G02*
X92680491Y-109801454I106066J-106066D01*
G01*
X92892623Y-110013586D01*
G75*
G02*
X92892623Y-110225718I-106066J-106066D01*
G01*
X91725897Y-111392444D01*
G75*
G02*
X91513765Y-111392444I-106066J106066D01*
G01*
G37*
G04 #@! TD.AperFunction*
G04 #@! TA.AperFunction,SMDPad,CuDef*
G36*
G01*
X92411790Y-112290470D02*
X92199658Y-112078338D01*
G75*
G02*
X92199658Y-111866206I106066J106066D01*
G01*
X93366384Y-110699480D01*
G75*
G02*
X93578516Y-110699480I106066J-106066D01*
G01*
X93790648Y-110911612D01*
G75*
G02*
X93790648Y-111123744I-106066J-106066D01*
G01*
X92623922Y-112290470D01*
G75*
G02*
X92411790Y-112290470I-106066J106066D01*
G01*
G37*
G04 #@! TD.AperFunction*
G04 #@! TA.AperFunction,SMDPad,CuDef*
G36*
G01*
X93309816Y-113188495D02*
X93097684Y-112976363D01*
G75*
G02*
X93097684Y-112764231I106066J106066D01*
G01*
X94264410Y-111597505D01*
G75*
G02*
X94476542Y-111597505I106066J-106066D01*
G01*
X94688674Y-111809637D01*
G75*
G02*
X94688674Y-112021769I-106066J-106066D01*
G01*
X93521948Y-113188495D01*
G75*
G02*
X93309816Y-113188495I-106066J106066D01*
G01*
G37*
G04 #@! TD.AperFunction*
G04 #@! TA.AperFunction,SMDPad,CuDef*
G36*
G01*
X89809637Y-116688674D02*
X89597505Y-116476542D01*
G75*
G02*
X89597505Y-116264410I106066J106066D01*
G01*
X90764231Y-115097684D01*
G75*
G02*
X90976363Y-115097684I106066J-106066D01*
G01*
X91188495Y-115309816D01*
G75*
G02*
X91188495Y-115521948I-106066J-106066D01*
G01*
X90021769Y-116688674D01*
G75*
G02*
X89809637Y-116688674I-106066J106066D01*
G01*
G37*
G04 #@! TD.AperFunction*
G04 #@! TA.AperFunction,SMDPad,CuDef*
G36*
G01*
X88911612Y-115790648D02*
X88699480Y-115578516D01*
G75*
G02*
X88699480Y-115366384I106066J106066D01*
G01*
X89866206Y-114199658D01*
G75*
G02*
X90078338Y-114199658I106066J-106066D01*
G01*
X90290470Y-114411790D01*
G75*
G02*
X90290470Y-114623922I-106066J-106066D01*
G01*
X89123744Y-115790648D01*
G75*
G02*
X88911612Y-115790648I-106066J106066D01*
G01*
G37*
G04 #@! TD.AperFunction*
G04 #@! TA.AperFunction,SMDPad,CuDef*
G36*
G01*
X88013586Y-114892623D02*
X87801454Y-114680491D01*
G75*
G02*
X87801454Y-114468359I106066J106066D01*
G01*
X88968180Y-113301633D01*
G75*
G02*
X89180312Y-113301633I106066J-106066D01*
G01*
X89392444Y-113513765D01*
G75*
G02*
X89392444Y-113725897I-106066J-106066D01*
G01*
X88225718Y-114892623D01*
G75*
G02*
X88013586Y-114892623I-106066J106066D01*
G01*
G37*
G04 #@! TD.AperFunction*
G04 #@! TA.AperFunction,SMDPad,CuDef*
G36*
G01*
X87115561Y-113994597D02*
X86903429Y-113782465D01*
G75*
G02*
X86903429Y-113570333I106066J106066D01*
G01*
X88070155Y-112403607D01*
G75*
G02*
X88282287Y-112403607I106066J-106066D01*
G01*
X88494419Y-112615739D01*
G75*
G02*
X88494419Y-112827871I-106066J-106066D01*
G01*
X87327693Y-113994597D01*
G75*
G02*
X87115561Y-113994597I-106066J106066D01*
G01*
G37*
G04 #@! TD.AperFunction*
G04 #@! TA.AperFunction,SMDPad,CuDef*
G36*
G01*
X86217535Y-113096571D02*
X86005403Y-112884439D01*
G75*
G02*
X86005403Y-112672307I106066J106066D01*
G01*
X87172129Y-111505581D01*
G75*
G02*
X87384261Y-111505581I106066J-106066D01*
G01*
X87596393Y-111717713D01*
G75*
G02*
X87596393Y-111929845I-106066J-106066D01*
G01*
X86429667Y-113096571D01*
G75*
G02*
X86217535Y-113096571I-106066J106066D01*
G01*
G37*
G04 #@! TD.AperFunction*
G04 #@! TA.AperFunction,SMDPad,CuDef*
G36*
G01*
X85319509Y-112198546D02*
X85107377Y-111986414D01*
G75*
G02*
X85107377Y-111774282I106066J106066D01*
G01*
X86274103Y-110607556D01*
G75*
G02*
X86486235Y-110607556I106066J-106066D01*
G01*
X86698367Y-110819688D01*
G75*
G02*
X86698367Y-111031820I-106066J-106066D01*
G01*
X85531641Y-112198546D01*
G75*
G02*
X85319509Y-112198546I-106066J106066D01*
G01*
G37*
G04 #@! TD.AperFunction*
G04 #@! TA.AperFunction,SMDPad,CuDef*
G36*
G01*
X84421484Y-111300520D02*
X84209352Y-111088388D01*
G75*
G02*
X84209352Y-110876256I106066J106066D01*
G01*
X85376078Y-109709530D01*
G75*
G02*
X85588210Y-109709530I106066J-106066D01*
G01*
X85800342Y-109921662D01*
G75*
G02*
X85800342Y-110133794I-106066J-106066D01*
G01*
X84633616Y-111300520D01*
G75*
G02*
X84421484Y-111300520I-106066J106066D01*
G01*
G37*
G04 #@! TD.AperFunction*
G04 #@! TA.AperFunction,SMDPad,CuDef*
G36*
G01*
X83523458Y-110402495D02*
X83311326Y-110190363D01*
G75*
G02*
X83311326Y-109978231I106066J106066D01*
G01*
X84478052Y-108811505D01*
G75*
G02*
X84690184Y-108811505I106066J-106066D01*
G01*
X84902316Y-109023637D01*
G75*
G02*
X84902316Y-109235769I-106066J-106066D01*
G01*
X83735590Y-110402495D01*
G75*
G02*
X83523458Y-110402495I-106066J106066D01*
G01*
G37*
G04 #@! TD.AperFunction*
D17*
X101000000Y-115850000D03*
X99000000Y-116800000D03*
X99000000Y-114900000D03*
G04 #@! TA.AperFunction,SMDPad,CuDef*
G36*
G01*
X103956250Y-88050000D02*
X103443750Y-88050000D01*
G75*
G02*
X103225000Y-87831250I0J218750D01*
G01*
X103225000Y-87393750D01*
G75*
G02*
X103443750Y-87175000I218750J0D01*
G01*
X103956250Y-87175000D01*
G75*
G02*
X104175000Y-87393750I0J-218750D01*
G01*
X104175000Y-87831250D01*
G75*
G02*
X103956250Y-88050000I-218750J0D01*
G01*
G37*
G04 #@! TD.AperFunction*
G04 #@! TA.AperFunction,SMDPad,CuDef*
G36*
G01*
X103956250Y-89625000D02*
X103443750Y-89625000D01*
G75*
G02*
X103225000Y-89406250I0J218750D01*
G01*
X103225000Y-88968750D01*
G75*
G02*
X103443750Y-88750000I218750J0D01*
G01*
X103956250Y-88750000D01*
G75*
G02*
X104175000Y-88968750I0J-218750D01*
G01*
X104175000Y-89406250D01*
G75*
G02*
X103956250Y-89625000I-218750J0D01*
G01*
G37*
G04 #@! TD.AperFunction*
G04 #@! TA.AperFunction,SMDPad,CuDef*
G36*
G01*
X104943750Y-115150000D02*
X105456250Y-115150000D01*
G75*
G02*
X105675000Y-115368750I0J-218750D01*
G01*
X105675000Y-115806250D01*
G75*
G02*
X105456250Y-116025000I-218750J0D01*
G01*
X104943750Y-116025000D01*
G75*
G02*
X104725000Y-115806250I0J218750D01*
G01*
X104725000Y-115368750D01*
G75*
G02*
X104943750Y-115150000I218750J0D01*
G01*
G37*
G04 #@! TD.AperFunction*
G04 #@! TA.AperFunction,SMDPad,CuDef*
G36*
G01*
X104943750Y-113575000D02*
X105456250Y-113575000D01*
G75*
G02*
X105675000Y-113793750I0J-218750D01*
G01*
X105675000Y-114231250D01*
G75*
G02*
X105456250Y-114450000I-218750J0D01*
G01*
X104943750Y-114450000D01*
G75*
G02*
X104725000Y-114231250I0J218750D01*
G01*
X104725000Y-113793750D01*
G75*
G02*
X104943750Y-113575000I218750J0D01*
G01*
G37*
G04 #@! TD.AperFunction*
G04 #@! TA.AperFunction,SMDPad,CuDef*
G36*
G01*
X115350000Y-95256250D02*
X115350000Y-94743750D01*
G75*
G02*
X115568750Y-94525000I218750J0D01*
G01*
X116006250Y-94525000D01*
G75*
G02*
X116225000Y-94743750I0J-218750D01*
G01*
X116225000Y-95256250D01*
G75*
G02*
X116006250Y-95475000I-218750J0D01*
G01*
X115568750Y-95475000D01*
G75*
G02*
X115350000Y-95256250I0J218750D01*
G01*
G37*
G04 #@! TD.AperFunction*
G04 #@! TA.AperFunction,SMDPad,CuDef*
G36*
G01*
X113775000Y-95256250D02*
X113775000Y-94743750D01*
G75*
G02*
X113993750Y-94525000I218750J0D01*
G01*
X114431250Y-94525000D01*
G75*
G02*
X114650000Y-94743750I0J-218750D01*
G01*
X114650000Y-95256250D01*
G75*
G02*
X114431250Y-95475000I-218750J0D01*
G01*
X113993750Y-95475000D01*
G75*
G02*
X113775000Y-95256250I0J218750D01*
G01*
G37*
G04 #@! TD.AperFunction*
G04 #@! TA.AperFunction,SMDPad,CuDef*
G36*
G01*
X84650000Y-104743750D02*
X84650000Y-105256250D01*
G75*
G02*
X84431250Y-105475000I-218750J0D01*
G01*
X83993750Y-105475000D01*
G75*
G02*
X83775000Y-105256250I0J218750D01*
G01*
X83775000Y-104743750D01*
G75*
G02*
X83993750Y-104525000I218750J0D01*
G01*
X84431250Y-104525000D01*
G75*
G02*
X84650000Y-104743750I0J-218750D01*
G01*
G37*
G04 #@! TD.AperFunction*
G04 #@! TA.AperFunction,SMDPad,CuDef*
G36*
G01*
X86225000Y-104743750D02*
X86225000Y-105256250D01*
G75*
G02*
X86006250Y-105475000I-218750J0D01*
G01*
X85568750Y-105475000D01*
G75*
G02*
X85350000Y-105256250I0J218750D01*
G01*
X85350000Y-104743750D01*
G75*
G02*
X85568750Y-104525000I218750J0D01*
G01*
X86006250Y-104525000D01*
G75*
G02*
X86225000Y-104743750I0J-218750D01*
G01*
G37*
G04 #@! TD.AperFunction*
G04 #@! TA.AperFunction,SMDPad,CuDef*
G36*
G01*
X95256250Y-84650000D02*
X94743750Y-84650000D01*
G75*
G02*
X94525000Y-84431250I0J218750D01*
G01*
X94525000Y-83993750D01*
G75*
G02*
X94743750Y-83775000I218750J0D01*
G01*
X95256250Y-83775000D01*
G75*
G02*
X95475000Y-83993750I0J-218750D01*
G01*
X95475000Y-84431250D01*
G75*
G02*
X95256250Y-84650000I-218750J0D01*
G01*
G37*
G04 #@! TD.AperFunction*
G04 #@! TA.AperFunction,SMDPad,CuDef*
G36*
G01*
X95256250Y-86225000D02*
X94743750Y-86225000D01*
G75*
G02*
X94525000Y-86006250I0J218750D01*
G01*
X94525000Y-85568750D01*
G75*
G02*
X94743750Y-85350000I218750J0D01*
G01*
X95256250Y-85350000D01*
G75*
G02*
X95475000Y-85568750I0J-218750D01*
G01*
X95475000Y-86006250D01*
G75*
G02*
X95256250Y-86225000I-218750J0D01*
G01*
G37*
G04 #@! TD.AperFunction*
G04 #@! TA.AperFunction,SMDPad,CuDef*
G36*
G01*
X97756250Y-115662500D02*
X97243750Y-115662500D01*
G75*
G02*
X97025000Y-115443750I0J218750D01*
G01*
X97025000Y-115006250D01*
G75*
G02*
X97243750Y-114787500I218750J0D01*
G01*
X97756250Y-114787500D01*
G75*
G02*
X97975000Y-115006250I0J-218750D01*
G01*
X97975000Y-115443750D01*
G75*
G02*
X97756250Y-115662500I-218750J0D01*
G01*
G37*
G04 #@! TD.AperFunction*
G04 #@! TA.AperFunction,SMDPad,CuDef*
G36*
G01*
X97756250Y-117237500D02*
X97243750Y-117237500D01*
G75*
G02*
X97025000Y-117018750I0J218750D01*
G01*
X97025000Y-116581250D01*
G75*
G02*
X97243750Y-116362500I218750J0D01*
G01*
X97756250Y-116362500D01*
G75*
G02*
X97975000Y-116581250I0J-218750D01*
G01*
X97975000Y-117018750D01*
G75*
G02*
X97756250Y-117237500I-218750J0D01*
G01*
G37*
G04 #@! TD.AperFunction*
G04 #@! TA.AperFunction,SMDPad,CuDef*
G36*
G01*
X102243750Y-116950000D02*
X102756250Y-116950000D01*
G75*
G02*
X102975000Y-117168750I0J-218750D01*
G01*
X102975000Y-117606250D01*
G75*
G02*
X102756250Y-117825000I-218750J0D01*
G01*
X102243750Y-117825000D01*
G75*
G02*
X102025000Y-117606250I0J218750D01*
G01*
X102025000Y-117168750D01*
G75*
G02*
X102243750Y-116950000I218750J0D01*
G01*
G37*
G04 #@! TD.AperFunction*
G04 #@! TA.AperFunction,SMDPad,CuDef*
G36*
G01*
X102243750Y-115375000D02*
X102756250Y-115375000D01*
G75*
G02*
X102975000Y-115593750I0J-218750D01*
G01*
X102975000Y-116031250D01*
G75*
G02*
X102756250Y-116250000I-218750J0D01*
G01*
X102243750Y-116250000D01*
G75*
G02*
X102025000Y-116031250I0J218750D01*
G01*
X102025000Y-115593750D01*
G75*
G02*
X102243750Y-115375000I218750J0D01*
G01*
G37*
G04 #@! TD.AperFunction*
D18*
X83500000Y-91000000D03*
X90200000Y-89300000D03*
X110700000Y-90200000D03*
X109000000Y-83500000D03*
X89300000Y-109800000D03*
X90900000Y-116400000D03*
X109800000Y-110700000D03*
X116400000Y-109100000D03*
X83300000Y-105000000D03*
X95000000Y-83300000D03*
X116700000Y-95000000D03*
X95350000Y-127350000D03*
X105200000Y-116400000D03*
X102500000Y-118100000D03*
X99000000Y-115700000D03*
X104000000Y-113250000D03*
X98100000Y-83000000D03*
X103700000Y-86800000D03*
X97400000Y-112200000D03*
X91250000Y-92150000D03*
X92107115Y-93007115D03*
X92000000Y-87500000D03*
X90900000Y-86400000D03*
X87500000Y-108000000D03*
X86414668Y-109085332D03*
X108000000Y-112500000D03*
X109100000Y-113600000D03*
X112500000Y-92000000D03*
X113600000Y-90900000D03*
X100000000Y-125600000D03*
X101100000Y-118900000D03*
D19*
X87678243Y-117023349D02*
X87464946Y-118760032D01*
D20*
X84106821Y-90393000D02*
X84106821Y-90393179D01*
X84106821Y-90393179D02*
X83500000Y-91000000D01*
X91199102Y-90301076D02*
X91199102Y-90299102D01*
X91199102Y-90299102D02*
X90200000Y-89300000D01*
X109698924Y-91199102D02*
X109700898Y-91199102D01*
X109700898Y-91199102D02*
X110700000Y-90200000D01*
X109607000Y-84106821D02*
X109606821Y-84106821D01*
X109606821Y-84106821D02*
X109000000Y-83500000D01*
X90301076Y-108800898D02*
X90299102Y-108800898D01*
X90299102Y-108800898D02*
X89300000Y-109800000D01*
X90393000Y-115893179D02*
X90393179Y-115893179D01*
X90393179Y-115893179D02*
X90900000Y-116400000D01*
X108800898Y-109698924D02*
X108800898Y-109700898D01*
X108800898Y-109700898D02*
X109800000Y-110700000D01*
X115893179Y-109607000D02*
X115893179Y-109606821D01*
X115893179Y-109606821D02*
X116400000Y-109100000D01*
X84212500Y-105000000D02*
X83300000Y-105000000D01*
X95000000Y-84212500D02*
X95000000Y-83300000D01*
X115787500Y-95000000D02*
X116700000Y-95000000D01*
D19*
X96500000Y-127350000D02*
X95350000Y-127350000D01*
X95350000Y-127350000D02*
X95350000Y-127350000D01*
X102500000Y-117387500D02*
X102500000Y-118100000D01*
X99000000Y-114900000D02*
X99000000Y-115700000D01*
X97500000Y-115225000D02*
X97975000Y-115700000D01*
X97975000Y-115700000D02*
X99000000Y-115700000D01*
X105200000Y-115587500D02*
X105200000Y-116400000D01*
X103987500Y-112500000D02*
X103987500Y-113237500D01*
X103987500Y-113237500D02*
X104000000Y-113250000D01*
D20*
X98095000Y-81850000D02*
X98095000Y-82995000D01*
X98095000Y-82995000D02*
X98100000Y-83000000D01*
D19*
X103700000Y-87612500D02*
X103700000Y-86800000D01*
X100787500Y-79000000D02*
X100000000Y-77437500D01*
X96675471Y-79249875D02*
X95598274Y-77871031D01*
X84593910Y-114292395D02*
X84045903Y-115954096D01*
X80297166Y-107308797D02*
X79154967Y-108634294D01*
X79249875Y-103324528D02*
X77871031Y-104401725D01*
X111012192Y-117898373D02*
X112535053Y-118760032D01*
X107308797Y-119702833D02*
X108634294Y-120845032D01*
D20*
X90300000Y-107005923D02*
X89403051Y-107902872D01*
X90300000Y-106800000D02*
X90300000Y-107005923D01*
X87607000Y-93893179D02*
X88400000Y-94686179D01*
X88400000Y-104900000D02*
X90300000Y-106800000D01*
X88400000Y-94686179D02*
X88400000Y-104900000D01*
D19*
X88987807Y-82101626D02*
X87464946Y-81239967D01*
X99212500Y-121000000D02*
X100000000Y-122562500D01*
X95130735Y-120442856D02*
X95598274Y-122128968D01*
X91236092Y-119100107D02*
X91365705Y-120845032D01*
X82101626Y-111012192D02*
X81239967Y-112535053D01*
X79557143Y-95130735D02*
X77871031Y-95598274D01*
X80899892Y-91236092D02*
X79154967Y-91365705D01*
X82976650Y-87678243D02*
X81239967Y-87464946D01*
X85707604Y-84593910D02*
X84045903Y-84045903D01*
X92691202Y-80297166D02*
X91365705Y-79154967D01*
X119702833Y-92691202D02*
X120845032Y-91365705D01*
X114292395Y-115406089D02*
X115954096Y-115954096D01*
X104869264Y-79557143D02*
X104401725Y-77871031D01*
X108763907Y-80899892D02*
X108634294Y-79154967D01*
X112321756Y-82976650D02*
X112535053Y-81239967D01*
X115406089Y-85707604D02*
X115954096Y-84045903D01*
X117898373Y-88987807D02*
X118760032Y-87464946D01*
X103324528Y-120750124D02*
X104401725Y-122128968D01*
X120750124Y-96675471D02*
X122128968Y-95598274D01*
X121000000Y-100787500D02*
X122562500Y-100000000D01*
X120442856Y-104869264D02*
X122128968Y-104401725D01*
X119100107Y-108763907D02*
X120845032Y-108634294D01*
X117023349Y-112321756D02*
X118760032Y-112535053D01*
X79000000Y-99212500D02*
X77437500Y-100000000D01*
D21*
X100000000Y-75562500D02*
X95232480Y-76032059D01*
X95232480Y-76032059D02*
X90648173Y-77422693D01*
X90648173Y-77422693D02*
X86423252Y-79680961D01*
X86423252Y-79680961D02*
X82720077Y-82720077D01*
X82720077Y-82720077D02*
X79680961Y-86423252D01*
X79680961Y-86423252D02*
X77422693Y-90648173D01*
X77422693Y-90648173D02*
X76032059Y-95232480D01*
X76032059Y-95232480D02*
X75562500Y-100000000D01*
X75562500Y-100000000D02*
X76032059Y-104767519D01*
X76032059Y-104767519D02*
X77422693Y-109351826D01*
X77422693Y-109351826D02*
X79680961Y-113576747D01*
X79680961Y-113576747D02*
X82720077Y-117279922D01*
X82720077Y-117279922D02*
X86423252Y-120319038D01*
X86423252Y-120319038D02*
X90648173Y-122577306D01*
X90648173Y-122577306D02*
X95232480Y-123967940D01*
X100000000Y-124437500D02*
X104767519Y-123967940D01*
X104767519Y-123967940D02*
X109351826Y-122577306D01*
X109351826Y-122577306D02*
X113576747Y-120319038D01*
X113576747Y-120319038D02*
X117279922Y-117279922D01*
X117279922Y-117279922D02*
X120319038Y-113576747D01*
X120319038Y-113576747D02*
X122577306Y-109351826D01*
X122577306Y-109351826D02*
X123967940Y-104767519D01*
X123967940Y-104767519D02*
X124437500Y-100000000D01*
X124437500Y-100000000D02*
X123967940Y-95232480D01*
X123967940Y-95232480D02*
X122577306Y-90648173D01*
X122577306Y-90648173D02*
X120319038Y-86423252D01*
X120319038Y-86423252D02*
X117279922Y-82720077D01*
X117279922Y-82720077D02*
X113576747Y-79680961D01*
X113576747Y-79680961D02*
X109351826Y-77422693D01*
X109351826Y-77422693D02*
X104767519Y-76032059D01*
X104767519Y-76032059D02*
X100000000Y-75562500D01*
D19*
X112286398Y-107796270D02*
X111494975Y-107004847D01*
X112286398Y-107796270D02*
X112718821Y-107796270D01*
X114212500Y-95000000D02*
X114212500Y-92602498D01*
X107909872Y-87600000D02*
X107004847Y-88505025D01*
X109210002Y-87600000D02*
X107909872Y-87600000D01*
X113855001Y-92244999D02*
X113855001Y-92431178D01*
X113855001Y-92244999D02*
X109210002Y-87600000D01*
X114212500Y-92602498D02*
X113855001Y-92244999D01*
X108310002Y-113300000D02*
X108905001Y-112705001D01*
X108905001Y-112705001D02*
X112286398Y-109323604D01*
X106106821Y-112393000D02*
X106106821Y-112406821D01*
X107655001Y-113955001D02*
X108905001Y-112705001D01*
X92133017Y-112357111D02*
X92995153Y-111494975D01*
X92133017Y-112648108D02*
X92133017Y-112357111D01*
X87607000Y-106106821D02*
X87593179Y-106106821D01*
X90747109Y-112357111D02*
X86044999Y-107655001D01*
X86044999Y-107655001D02*
X85787500Y-107397502D01*
X87709872Y-92200000D02*
X88505025Y-92995153D01*
X87284909Y-92200000D02*
X87709872Y-92200000D01*
X87709872Y-90680126D02*
X92344999Y-86044999D01*
X93893179Y-87607000D02*
X93893179Y-87593179D01*
X92344999Y-86044999D02*
X92602498Y-85787500D01*
D21*
X95232480Y-123967940D02*
X97690014Y-124209986D01*
X97690014Y-124209986D02*
X100000000Y-124437500D01*
D20*
X97500000Y-112800000D02*
X97400000Y-112900000D01*
D19*
X112286398Y-108228693D02*
X112286398Y-108413602D01*
X112718821Y-107796270D02*
X112286398Y-108228693D01*
X112286398Y-109323604D02*
X112286398Y-108413602D01*
X112286398Y-108413602D02*
X112286398Y-107796270D01*
X92133017Y-112648108D02*
X91842020Y-112357111D01*
X91842020Y-112357111D02*
X91642889Y-112357111D01*
X92133017Y-112357111D02*
X91642889Y-112357111D01*
X91642889Y-112357111D02*
X90747109Y-112357111D01*
X87709872Y-91775037D02*
X87709872Y-91509872D01*
X87284909Y-92200000D02*
X87709872Y-91775037D01*
X87709872Y-92200000D02*
X87709872Y-91509872D01*
X87709872Y-91509872D02*
X87709872Y-90680126D01*
X85825000Y-107250000D02*
X85787500Y-107212500D01*
X86450000Y-107250000D02*
X85825000Y-107250000D01*
X86450000Y-107250000D02*
X86044999Y-107655001D01*
X87593179Y-106106821D02*
X86450000Y-107250000D01*
X85787500Y-107397502D02*
X85787500Y-107212500D01*
X85787500Y-107212500D02*
X85787500Y-105000000D01*
X107300000Y-113600000D02*
X107655001Y-113955001D01*
X106106821Y-112406821D02*
X107300000Y-113600000D01*
X113643089Y-92643089D02*
X112393000Y-93893179D01*
X113855001Y-92431178D02*
X113643089Y-92643089D01*
X114171909Y-92643089D02*
X114212500Y-92602498D01*
X113643089Y-92643089D02*
X114171909Y-92643089D01*
X92700000Y-85800000D02*
X92687500Y-85787500D01*
X92700000Y-86400000D02*
X92700000Y-85800000D01*
X93893179Y-87593179D02*
X92700000Y-86400000D01*
X92700000Y-86400000D02*
X92344999Y-86044999D01*
X92687500Y-85787500D02*
X95000000Y-85787500D01*
X92602498Y-85787500D02*
X92687500Y-85787500D01*
X112300000Y-104400000D02*
X112300000Y-96912500D01*
X113682439Y-105782439D02*
X112300000Y-104400000D01*
X112300000Y-96912500D02*
X114212500Y-95000000D01*
X112718821Y-107796270D02*
X113682439Y-106832652D01*
X113682439Y-106832652D02*
X113682439Y-105782439D01*
X86881169Y-92603740D02*
X87284909Y-92200000D01*
X87800000Y-102987500D02*
X87800000Y-95600000D01*
X85787500Y-105000000D02*
X87800000Y-102987500D01*
X87800000Y-95600000D02*
X86317561Y-94117561D01*
X86317561Y-94117561D02*
X86317561Y-93167348D01*
X86317561Y-93167348D02*
X86881169Y-92603740D01*
X93484909Y-114000000D02*
X92133017Y-112648108D01*
X95775000Y-114000000D02*
X93484909Y-114000000D01*
X96000000Y-114000000D02*
X95775000Y-114000000D01*
X107610002Y-114000000D02*
X107655001Y-113955001D01*
X98450000Y-118900000D02*
X98450000Y-117950000D01*
X99000000Y-117400000D02*
X99000000Y-116800000D01*
X98450000Y-117950000D02*
X99000000Y-117400000D01*
X99000000Y-116800000D02*
X97500000Y-116800000D01*
X97500000Y-116800000D02*
X96700000Y-116800000D01*
X96700000Y-116800000D02*
X96400000Y-116500000D01*
X104209872Y-91300000D02*
X102837500Y-91300000D01*
X103700000Y-89187500D02*
X103700000Y-89200000D01*
X101942500Y-89187500D02*
X101905000Y-89150000D01*
X103700000Y-89187500D02*
X101942500Y-89187500D01*
X104800000Y-90300000D02*
X105209872Y-90300000D01*
X105209872Y-90300000D02*
X105254936Y-90254936D01*
X103700000Y-89200000D02*
X104800000Y-90300000D01*
X107004847Y-88505025D02*
X105254936Y-90254936D01*
X104800000Y-90300000D02*
X105004936Y-90504936D01*
X105254936Y-90254936D02*
X105004936Y-90504936D01*
X104800000Y-90700000D02*
X104804936Y-90704936D01*
X104800000Y-90300000D02*
X104800000Y-90700000D01*
X105004936Y-90504936D02*
X104804936Y-90704936D01*
X104804936Y-90704936D02*
X104209872Y-91300000D01*
X97850000Y-112800000D02*
X97800000Y-112800000D01*
X99062500Y-112800000D02*
X97850000Y-112800000D01*
X97400000Y-112900000D02*
X97400000Y-113200000D01*
X97850000Y-112800000D02*
X97600000Y-112800000D01*
X97400000Y-113250000D02*
X97400000Y-113600000D01*
X97850000Y-112800000D02*
X97400000Y-113250000D01*
X97400000Y-113200000D02*
X97400000Y-113600000D01*
X97400000Y-113600000D02*
X97400000Y-114000000D01*
X97400000Y-112600000D02*
X97400000Y-112900000D01*
X97850000Y-112800000D02*
X97400000Y-112350000D01*
X97400000Y-112350000D02*
X97400000Y-112600000D01*
X97400000Y-113700000D02*
X97700000Y-114000000D01*
X97400000Y-114000000D02*
X97700000Y-114000000D01*
X97700000Y-114000000D02*
X107610002Y-114000000D01*
X97400000Y-113700000D02*
X97100000Y-114000000D01*
X97400000Y-113600000D02*
X97400000Y-113700000D01*
X97400000Y-114000000D02*
X97100000Y-114000000D01*
X96400000Y-114350000D02*
X96750000Y-114000000D01*
X96400000Y-116500000D02*
X96400000Y-114500000D01*
X96400000Y-114500000D02*
X96400000Y-114000000D01*
X97100000Y-114000000D02*
X96750000Y-114000000D01*
X96750000Y-114000000D02*
X96400000Y-114000000D01*
X96400000Y-114350000D02*
X96050000Y-114000000D01*
X96400000Y-114000000D02*
X96050000Y-114000000D01*
X96400000Y-114500000D02*
X96400000Y-114350000D01*
X96050000Y-114000000D02*
X95775000Y-114000000D01*
X97900000Y-120650000D02*
X98450000Y-120100000D01*
X97690014Y-124209986D02*
X97900000Y-124000000D01*
X98450000Y-120100000D02*
X98450000Y-118900000D01*
X97900000Y-124000000D02*
X97900000Y-120650000D01*
D20*
X106800000Y-109700000D02*
X107005923Y-109700000D01*
X105000000Y-111500000D02*
X106800000Y-109700000D01*
X107005923Y-109700000D02*
X107902872Y-110596949D01*
X93893179Y-112393000D02*
X94786179Y-111500000D01*
X94786179Y-111500000D02*
X105000000Y-111500000D01*
X109700000Y-92994077D02*
X110596949Y-92097128D01*
X109700000Y-93200000D02*
X109700000Y-92994077D01*
X111700000Y-95200000D02*
X109700000Y-93200000D01*
X112393000Y-106106821D02*
X111700000Y-105413821D01*
X111700000Y-105413821D02*
X111700000Y-95200000D01*
X92944077Y-90250000D02*
X92097128Y-89403051D01*
X100635000Y-88100000D02*
X99935000Y-87400000D01*
X100635000Y-89150000D02*
X100635000Y-88100000D01*
X96300000Y-87400000D02*
X93450000Y-90250000D01*
X93450000Y-90250000D02*
X92944077Y-90250000D01*
X99935000Y-87400000D02*
X96300000Y-87400000D01*
X99950000Y-106850000D02*
X99950000Y-103400000D01*
X100635000Y-90165000D02*
X100635000Y-89150000D01*
X99950000Y-103400000D02*
X99750000Y-103200000D01*
X99940000Y-106860000D02*
X99950000Y-106850000D01*
X99750000Y-103200000D02*
X99750000Y-91050000D01*
X99750000Y-91050000D02*
X100635000Y-90165000D01*
X101260001Y-91297501D02*
X101262500Y-91300000D01*
X101894998Y-87445000D02*
X101260001Y-88079997D01*
X101905000Y-81850000D02*
X101905000Y-87445000D01*
X101260001Y-88079997D02*
X101260001Y-91297501D01*
X101905000Y-87445000D02*
X101894998Y-87445000D01*
X101250000Y-91312500D02*
X101262500Y-91300000D01*
X102480000Y-106860000D02*
X102480000Y-105600000D01*
X102480000Y-105600000D02*
X101250000Y-104370000D01*
X101450000Y-97800000D02*
X101250000Y-97600000D01*
X103300000Y-97800000D02*
X101450000Y-97800000D01*
X101250000Y-97750000D02*
X101250000Y-97600000D01*
X101250000Y-97600000D02*
X101250000Y-91312500D01*
X101250000Y-98000000D02*
X101250000Y-98100000D01*
X101450000Y-97800000D02*
X101250000Y-98000000D01*
X101250000Y-104370000D02*
X101250000Y-98100000D01*
X101250000Y-98100000D02*
X101250000Y-97750000D01*
X92100000Y-108798026D02*
X91199102Y-109698924D01*
X92100000Y-108000000D02*
X92100000Y-108798026D01*
X88739352Y-90957689D02*
X88263612Y-91433429D01*
X88742311Y-90957689D02*
X88739352Y-90957689D01*
X89300000Y-90400000D02*
X88742311Y-90957689D01*
X89644464Y-93658852D02*
X88800000Y-94503316D01*
X88263612Y-91433429D02*
X88263612Y-91905196D01*
X88263612Y-91905196D02*
X89644464Y-93286048D01*
X90301076Y-91199102D02*
X89501974Y-90400000D01*
X89644464Y-93286048D02*
X89644464Y-93658852D01*
X89501974Y-90400000D02*
X89300000Y-90400000D01*
X88800000Y-94503316D02*
X88800000Y-104700000D01*
X88800000Y-104700000D02*
X92100000Y-108000000D01*
X108698026Y-107800000D02*
X109698924Y-108800898D01*
X108100000Y-107800000D02*
X108698026Y-107800000D01*
X90957689Y-111260648D02*
X91433429Y-111736388D01*
X91199102Y-109698924D02*
X90400000Y-110498026D01*
X94403316Y-111100000D02*
X104800000Y-111100000D01*
X90400000Y-110700000D02*
X90957689Y-111257689D01*
X90400000Y-110498026D02*
X90400000Y-110700000D01*
X91433429Y-111736388D02*
X91905196Y-111736388D01*
X91905196Y-111736388D02*
X93286048Y-110355536D01*
X93286048Y-110355536D02*
X93658852Y-110355536D01*
X90957689Y-111257689D02*
X90957689Y-111260648D01*
X93658852Y-110355536D02*
X94403316Y-111100000D01*
X104800000Y-111100000D02*
X108100000Y-107800000D01*
X107900000Y-91201974D02*
X108800898Y-90301076D01*
X107900000Y-92100000D02*
X107900000Y-91201974D01*
X111257689Y-109042311D02*
X111260648Y-109042311D01*
X109698924Y-108800898D02*
X110498026Y-109600000D01*
X111736388Y-108094804D02*
X110355536Y-106713952D01*
X111200011Y-95400011D02*
X107900000Y-92100000D01*
X111260648Y-109042311D02*
X111736388Y-108566571D01*
X110498026Y-109600000D02*
X110700000Y-109600000D01*
X110355536Y-106713952D02*
X110355536Y-106341148D01*
X110700000Y-109600000D02*
X111257689Y-109042311D01*
X110355536Y-106341148D02*
X111200011Y-105496673D01*
X111736388Y-108566571D02*
X111736388Y-108094804D01*
X111200011Y-105496673D02*
X111200011Y-95400011D01*
X99940000Y-109400000D02*
X98690000Y-108150000D01*
X98690000Y-108150000D02*
X96400000Y-108150000D01*
X96400000Y-108150000D02*
X96050000Y-107800000D01*
X96050000Y-107800000D02*
X96050000Y-105900000D01*
X96050000Y-105900000D02*
X98950000Y-103000000D01*
X98095000Y-90200000D02*
X98095000Y-89150000D01*
X98950000Y-91055000D02*
X98095000Y-90200000D01*
X98950000Y-103000000D02*
X98950000Y-91055000D01*
X90301076Y-91199102D02*
X91250000Y-92148026D01*
X91250000Y-92148026D02*
X91250000Y-92150000D01*
X98095000Y-89150000D02*
X95964230Y-89150000D01*
X95964230Y-89150000D02*
X92107115Y-93007115D01*
X90305923Y-93000000D02*
X89403051Y-92097128D01*
X93000000Y-109694077D02*
X92097128Y-110596949D01*
X109694077Y-107000000D02*
X110596949Y-107902872D01*
X90305923Y-93000000D02*
X90300000Y-93005923D01*
X90300000Y-93569016D02*
X89200000Y-94669016D01*
X89200000Y-94669016D02*
X89200000Y-104500000D01*
X89200000Y-104500000D02*
X93000000Y-108300000D01*
X93000000Y-109694077D02*
X93005923Y-109700000D01*
X104600000Y-110700000D02*
X108300000Y-107000000D01*
X93569016Y-109700000D02*
X94569016Y-110700000D01*
X94569016Y-110700000D02*
X104600000Y-110700000D01*
X107000000Y-90305923D02*
X107902872Y-89403051D01*
X107000000Y-91900000D02*
X107000000Y-90305923D01*
X109700000Y-106430984D02*
X110800000Y-105330984D01*
X109694077Y-107000000D02*
X109700000Y-106994077D01*
X110800000Y-105330984D02*
X110800000Y-95700000D01*
X110800000Y-95700000D02*
X107000000Y-91900000D01*
X99365000Y-88065000D02*
X99100000Y-87800000D01*
X99100000Y-87800000D02*
X96465700Y-87800000D01*
X91265700Y-93000000D02*
X90800000Y-93000000D01*
X99365000Y-89150000D02*
X99365000Y-88065000D01*
X96465700Y-87800000D02*
X91265700Y-93000000D01*
X99350000Y-103200000D02*
X99350000Y-89165000D01*
X99350000Y-89165000D02*
X99365000Y-89150000D01*
X97400000Y-106860000D02*
X97400000Y-105150000D01*
X97400000Y-105150000D02*
X99350000Y-103200000D01*
X90450000Y-93000000D02*
X90300000Y-93150000D01*
X90300000Y-93150000D02*
X90300000Y-93569016D01*
X90450000Y-93000000D02*
X90305923Y-93000000D01*
X90300000Y-93005923D02*
X90300000Y-93150000D01*
X90800000Y-93000000D02*
X90450000Y-93000000D01*
X93050000Y-109550000D02*
X93200000Y-109700000D01*
X93000000Y-109550000D02*
X93050000Y-109550000D01*
X93000000Y-108300000D02*
X93000000Y-109550000D01*
X93000000Y-109550000D02*
X93000000Y-109694077D01*
X93200000Y-109700000D02*
X93569016Y-109700000D01*
X93005923Y-109700000D02*
X93200000Y-109700000D01*
X109550000Y-106950000D02*
X109700000Y-106800000D01*
X109550000Y-107000000D02*
X109550000Y-106950000D01*
X108300000Y-107000000D02*
X109550000Y-107000000D01*
X109700000Y-106994077D02*
X109700000Y-106800000D01*
X109550000Y-107000000D02*
X109694077Y-107000000D01*
X109700000Y-106800000D02*
X109700000Y-106430984D01*
X92995153Y-88505025D02*
X92995153Y-88495153D01*
X92995153Y-88495153D02*
X92000000Y-87500000D01*
X94700000Y-80400000D02*
X97812500Y-80400000D01*
X91532439Y-85767561D02*
X91532439Y-83567561D01*
X97812500Y-80400000D02*
X99212500Y-79000000D01*
X91532439Y-83567561D02*
X94700000Y-80400000D01*
X90900000Y-86400000D02*
X91532439Y-85767561D01*
X94942678Y-79557143D02*
X95130735Y-79557143D01*
X90393000Y-84106821D02*
X94942678Y-79557143D01*
X89494975Y-85004847D02*
X88600000Y-84109872D01*
X88600000Y-84109872D02*
X88600000Y-83800000D01*
X91236092Y-81163908D02*
X91236092Y-80899892D01*
X88600000Y-83800000D02*
X91236092Y-81163908D01*
X87678243Y-84984166D02*
X87678243Y-82976650D01*
X88596949Y-85902872D02*
X87678243Y-84984166D01*
X86605630Y-85707604D02*
X84593910Y-85707604D01*
X87698924Y-86800898D02*
X86605630Y-85707604D01*
X82816508Y-88987807D02*
X82101626Y-88987807D01*
X84904315Y-86900000D02*
X82816508Y-88987807D01*
X86800898Y-87698924D02*
X86001974Y-86900000D01*
X86001974Y-86900000D02*
X84904315Y-86900000D01*
X85902872Y-88596949D02*
X85005923Y-87700000D01*
X84670013Y-87700000D02*
X81800000Y-90570013D01*
X85005923Y-87700000D02*
X84670013Y-87700000D01*
X80631615Y-92691202D02*
X80297166Y-92691202D01*
X81800000Y-91522817D02*
X80631615Y-92691202D01*
X81800000Y-90570013D02*
X81800000Y-91522817D01*
X85004847Y-89494975D02*
X85900000Y-90390128D01*
X85900000Y-90390128D02*
X85900000Y-90600000D01*
X79824529Y-96675471D02*
X79249875Y-96675471D01*
X85900000Y-90600000D02*
X79824529Y-96675471D01*
X80400000Y-105300000D02*
X80400000Y-102187500D01*
X80400000Y-102187500D02*
X79000000Y-100787500D01*
X83500000Y-108400000D02*
X80400000Y-105300000D01*
X88505025Y-107004847D02*
X88495153Y-107004847D01*
X88495153Y-107004847D02*
X87500000Y-108000000D01*
X85729336Y-108400000D02*
X83500000Y-108400000D01*
X86414668Y-109085332D02*
X85729336Y-108400000D01*
X79557143Y-105057322D02*
X79557143Y-104869265D01*
X84106821Y-109607000D02*
X79557143Y-105057322D01*
X81163908Y-108763908D02*
X80899892Y-108763908D01*
X85004847Y-110505025D02*
X84109872Y-111400000D01*
X84109872Y-111400000D02*
X83800000Y-111400000D01*
X83800000Y-111400000D02*
X81163908Y-108763908D01*
X84984166Y-112321757D02*
X82976650Y-112321757D01*
X85902872Y-111403051D02*
X84984166Y-112321757D01*
X85707604Y-113394370D02*
X85707604Y-115406090D01*
X86800898Y-112301076D02*
X85707604Y-113394370D01*
X86900000Y-115095685D02*
X88987807Y-117183492D01*
X87698924Y-113199102D02*
X86900000Y-113998026D01*
X86900000Y-113998026D02*
X86900000Y-115095685D01*
X88987807Y-117183492D02*
X88987807Y-117898374D01*
X87700000Y-115329987D02*
X90570013Y-118200000D01*
X87700000Y-114994077D02*
X87700000Y-115329987D01*
X92691202Y-119368385D02*
X92691202Y-119702834D01*
X90570013Y-118200000D02*
X91522817Y-118200000D01*
X88596949Y-114097128D02*
X87700000Y-114994077D01*
X91522817Y-118200000D02*
X92691202Y-119368385D01*
X96675471Y-120175471D02*
X96675471Y-120750125D01*
X89494975Y-114995153D02*
X90390128Y-114100000D01*
X90600000Y-114100000D02*
X96675471Y-120175471D01*
X90390128Y-114100000D02*
X90600000Y-114100000D01*
X105300000Y-119600000D02*
X102187500Y-119600000D01*
X102187500Y-119600000D02*
X100787500Y-121000000D01*
X108400000Y-116500000D02*
X105300000Y-119600000D01*
X107004847Y-111494975D02*
X107004847Y-111504847D01*
X107004847Y-111504847D02*
X108000000Y-112500000D01*
X108400000Y-114300000D02*
X108400000Y-116500000D01*
X109100000Y-113600000D02*
X108400000Y-114300000D01*
X105057322Y-120442857D02*
X104869265Y-120442857D01*
X109607000Y-115893179D02*
X105057322Y-120442857D01*
X108763908Y-118836092D02*
X108763908Y-119100108D01*
X110505025Y-114995153D02*
X111400000Y-115890128D01*
X111400000Y-115890128D02*
X111400000Y-116200000D01*
X111400000Y-116200000D02*
X108763908Y-118836092D01*
X112321757Y-115015834D02*
X112321757Y-117023350D01*
X111403051Y-114097128D02*
X112321757Y-115015834D01*
X113394370Y-114292396D02*
X115406090Y-114292396D01*
X112301076Y-113199102D02*
X113394370Y-114292396D01*
X115095685Y-113100000D02*
X117183492Y-111012193D01*
X113199102Y-112301076D02*
X113998026Y-113100000D01*
X113998026Y-113100000D02*
X115095685Y-113100000D01*
X117183492Y-111012193D02*
X117898374Y-111012193D01*
X115329987Y-112300000D02*
X118200000Y-109429987D01*
X114994077Y-112300000D02*
X115329987Y-112300000D01*
X119368385Y-107308798D02*
X119702834Y-107308798D01*
X118200000Y-109429987D02*
X118200000Y-108477183D01*
X114097128Y-111403051D02*
X114994077Y-112300000D01*
X118200000Y-108477183D02*
X119368385Y-107308798D01*
X120175471Y-103324529D02*
X120750125Y-103324529D01*
X114995153Y-110505025D02*
X114100000Y-109609872D01*
X114100000Y-109400000D02*
X120175471Y-103324529D01*
X114100000Y-109609872D02*
X114100000Y-109400000D01*
X111494975Y-92995153D02*
X111504847Y-92995153D01*
X111504847Y-92995153D02*
X112500000Y-92000000D01*
X119600000Y-97812500D02*
X121000000Y-99212500D01*
X119600000Y-94700000D02*
X119600000Y-97812500D01*
X116432439Y-91532439D02*
X119600000Y-94700000D01*
X114232439Y-91532439D02*
X116432439Y-91532439D01*
X113600000Y-90900000D02*
X114232439Y-91532439D01*
X120442857Y-94942678D02*
X120442857Y-95130735D01*
X115893179Y-90393000D02*
X120442857Y-94942678D01*
X118836092Y-91236092D02*
X119100108Y-91236092D01*
X114995153Y-89494975D02*
X115890128Y-88600000D01*
X115890128Y-88600000D02*
X116200000Y-88600000D01*
X116200000Y-88600000D02*
X118836092Y-91236092D01*
X115015834Y-87678243D02*
X117023350Y-87678243D01*
X114097128Y-88596949D02*
X115015834Y-87678243D01*
X114292396Y-86605630D02*
X114292396Y-84593910D01*
X113199102Y-87698924D02*
X114292396Y-86605630D01*
X113100000Y-84904315D02*
X111012193Y-82816508D01*
X112301076Y-86800898D02*
X113100000Y-86001974D01*
X113100000Y-86001974D02*
X113100000Y-84904315D01*
X111012193Y-82816508D02*
X111012193Y-82101626D01*
X112300000Y-84670013D02*
X109429987Y-81800000D01*
X112300000Y-85005923D02*
X112300000Y-84670013D01*
X107308798Y-80631615D02*
X107308798Y-80297166D01*
X109429987Y-81800000D02*
X108477183Y-81800000D01*
X111403051Y-85902872D02*
X112300000Y-85005923D01*
X108477183Y-81800000D02*
X107308798Y-80631615D01*
X103324529Y-79824529D02*
X103324529Y-79249875D01*
X110505025Y-85004847D02*
X109609872Y-85900000D01*
X109400000Y-85900000D02*
X103324529Y-79824529D01*
X109609872Y-85900000D02*
X109400000Y-85900000D01*
D19*
X103500000Y-127350000D02*
X103500000Y-125900000D01*
X103200000Y-125600000D02*
X100000000Y-125600000D01*
X103500000Y-125900000D02*
X103200000Y-125600000D01*
X101100000Y-115950000D02*
X101000000Y-115850000D01*
X101100000Y-118900000D02*
X101100000Y-115950000D01*
X101037500Y-115812500D02*
X101000000Y-115850000D01*
X102500000Y-115812500D02*
X101037500Y-115812500D01*
X101100000Y-118900000D02*
X99750000Y-118900000D01*
X101237500Y-112500000D02*
X100937500Y-112800000D01*
X102412500Y-112500000D02*
X101237500Y-112500000D01*
M02*
