G04 #@! TF.GenerationSoftware,KiCad,Pcbnew,(5.1.6)-1*
G04 #@! TF.CreationDate,2020-09-17T20:52:05+01:00*
G04 #@! TF.ProjectId,teatime,74656174-696d-4652-9e6b-696361645f70,rev?*
G04 #@! TF.SameCoordinates,Original*
G04 #@! TF.FileFunction,Legend,Bot*
G04 #@! TF.FilePolarity,Positive*
%FSLAX46Y46*%
G04 Gerber Fmt 4.6, Leading zero omitted, Abs format (unit mm)*
G04 Created by KiCad (PCBNEW (5.1.6)-1) date 2020-09-17 20:52:05*
%MOMM*%
%LPD*%
G01*
G04 APERTURE LIST*
%ADD10C,0.150000*%
%ADD11C,0.120000*%
G04 APERTURE END LIST*
D10*
X105714285Y-79977380D02*
X105142857Y-79977380D01*
X105428571Y-80977380D02*
X105428571Y-79977380D01*
X104428571Y-80929761D02*
X104523809Y-80977380D01*
X104714285Y-80977380D01*
X104809523Y-80929761D01*
X104857142Y-80834523D01*
X104857142Y-80453571D01*
X104809523Y-80358333D01*
X104714285Y-80310714D01*
X104523809Y-80310714D01*
X104428571Y-80358333D01*
X104380952Y-80453571D01*
X104380952Y-80548809D01*
X104857142Y-80644047D01*
X103523809Y-80977380D02*
X103523809Y-80453571D01*
X103571428Y-80358333D01*
X103666666Y-80310714D01*
X103857142Y-80310714D01*
X103952380Y-80358333D01*
X103523809Y-80929761D02*
X103619047Y-80977380D01*
X103857142Y-80977380D01*
X103952380Y-80929761D01*
X104000000Y-80834523D01*
X104000000Y-80739285D01*
X103952380Y-80644047D01*
X103857142Y-80596428D01*
X103619047Y-80596428D01*
X103523809Y-80548809D01*
X103190476Y-80310714D02*
X102809523Y-80310714D01*
X103047619Y-79977380D02*
X103047619Y-80834523D01*
X103000000Y-80929761D01*
X102904761Y-80977380D01*
X102809523Y-80977380D01*
X102476190Y-80977380D02*
X102476190Y-80310714D01*
X102476190Y-79977380D02*
X102523809Y-80025000D01*
X102476190Y-80072619D01*
X102428571Y-80025000D01*
X102476190Y-79977380D01*
X102476190Y-80072619D01*
X102000000Y-80977380D02*
X102000000Y-80310714D01*
X102000000Y-80405952D02*
X101952380Y-80358333D01*
X101857142Y-80310714D01*
X101714285Y-80310714D01*
X101619047Y-80358333D01*
X101571428Y-80453571D01*
X101571428Y-80977380D01*
X101571428Y-80453571D02*
X101523809Y-80358333D01*
X101428571Y-80310714D01*
X101285714Y-80310714D01*
X101190476Y-80358333D01*
X101142857Y-80453571D01*
X101142857Y-80977380D01*
X100285714Y-80929761D02*
X100380952Y-80977380D01*
X100571428Y-80977380D01*
X100666666Y-80929761D01*
X100714285Y-80834523D01*
X100714285Y-80453571D01*
X100666666Y-80358333D01*
X100571428Y-80310714D01*
X100380952Y-80310714D01*
X100285714Y-80358333D01*
X100238095Y-80453571D01*
X100238095Y-80548809D01*
X100714285Y-80644047D01*
X99047619Y-80596428D02*
X98285714Y-80596428D01*
X97095238Y-80929761D02*
X96952380Y-80977380D01*
X96714285Y-80977380D01*
X96619047Y-80929761D01*
X96571428Y-80882142D01*
X96523809Y-80786904D01*
X96523809Y-80691666D01*
X96571428Y-80596428D01*
X96619047Y-80548809D01*
X96714285Y-80501190D01*
X96904761Y-80453571D01*
X97000000Y-80405952D01*
X97047619Y-80358333D01*
X97095238Y-80263095D01*
X97095238Y-80167857D01*
X97047619Y-80072619D01*
X97000000Y-80025000D01*
X96904761Y-79977380D01*
X96666666Y-79977380D01*
X96523809Y-80025000D01*
X96095238Y-80977380D02*
X96095238Y-79977380D01*
X95761904Y-80691666D01*
X95428571Y-79977380D01*
X95428571Y-80977380D01*
X94952380Y-80977380D02*
X94952380Y-79977380D01*
X94714285Y-79977380D01*
X94571428Y-80025000D01*
X94476190Y-80120238D01*
X94428571Y-80215476D01*
X94380952Y-80405952D01*
X94380952Y-80548809D01*
X94428571Y-80739285D01*
X94476190Y-80834523D01*
X94571428Y-80929761D01*
X94714285Y-80977380D01*
X94952380Y-80977380D01*
X105071428Y-82627380D02*
X105071428Y-81627380D01*
X105071428Y-82103571D02*
X104500000Y-82103571D01*
X104500000Y-82627380D02*
X104500000Y-81627380D01*
X103595238Y-82627380D02*
X103595238Y-82103571D01*
X103642857Y-82008333D01*
X103738095Y-81960714D01*
X103928571Y-81960714D01*
X104023809Y-82008333D01*
X103595238Y-82579761D02*
X103690476Y-82627380D01*
X103928571Y-82627380D01*
X104023809Y-82579761D01*
X104071428Y-82484523D01*
X104071428Y-82389285D01*
X104023809Y-82294047D01*
X103928571Y-82246428D01*
X103690476Y-82246428D01*
X103595238Y-82198809D01*
X103119047Y-82627380D02*
X103119047Y-81960714D01*
X103119047Y-82151190D02*
X103071428Y-82055952D01*
X103023809Y-82008333D01*
X102928571Y-81960714D01*
X102833333Y-81960714D01*
X102500000Y-82627380D02*
X102500000Y-81627380D01*
X102404761Y-82246428D02*
X102119047Y-82627380D01*
X102119047Y-81960714D02*
X102500000Y-82341666D01*
X101547619Y-82627380D02*
X101642857Y-82579761D01*
X101690476Y-82532142D01*
X101738095Y-82436904D01*
X101738095Y-82151190D01*
X101690476Y-82055952D01*
X101642857Y-82008333D01*
X101547619Y-81960714D01*
X101404761Y-81960714D01*
X101309523Y-82008333D01*
X101261904Y-82055952D01*
X101214285Y-82151190D01*
X101214285Y-82436904D01*
X101261904Y-82532142D01*
X101309523Y-82579761D01*
X101404761Y-82627380D01*
X101547619Y-82627380D01*
X100785714Y-81960714D02*
X100785714Y-82627380D01*
X100785714Y-82055952D02*
X100738095Y-82008333D01*
X100642857Y-81960714D01*
X100500000Y-81960714D01*
X100404761Y-82008333D01*
X100357142Y-82103571D01*
X100357142Y-82627380D01*
X99500000Y-82579761D02*
X99595238Y-82627380D01*
X99785714Y-82627380D01*
X99880952Y-82579761D01*
X99928571Y-82484523D01*
X99928571Y-82103571D01*
X99880952Y-82008333D01*
X99785714Y-81960714D01*
X99595238Y-81960714D01*
X99500000Y-82008333D01*
X99452380Y-82103571D01*
X99452380Y-82198809D01*
X99928571Y-82294047D01*
X99023809Y-81960714D02*
X99023809Y-82627380D01*
X99023809Y-82055952D02*
X98976190Y-82008333D01*
X98880952Y-81960714D01*
X98738095Y-81960714D01*
X98642857Y-82008333D01*
X98595238Y-82103571D01*
X98595238Y-82627380D01*
X97785714Y-82103571D02*
X97642857Y-82151190D01*
X97595238Y-82198809D01*
X97547619Y-82294047D01*
X97547619Y-82436904D01*
X97595238Y-82532142D01*
X97642857Y-82579761D01*
X97738095Y-82627380D01*
X98119047Y-82627380D01*
X98119047Y-81627380D01*
X97785714Y-81627380D01*
X97690476Y-81675000D01*
X97642857Y-81722619D01*
X97595238Y-81817857D01*
X97595238Y-81913095D01*
X97642857Y-82008333D01*
X97690476Y-82055952D01*
X97785714Y-82103571D01*
X98119047Y-82103571D01*
X96690476Y-82627380D02*
X96690476Y-82103571D01*
X96738095Y-82008333D01*
X96833333Y-81960714D01*
X97023809Y-81960714D01*
X97119047Y-82008333D01*
X96690476Y-82579761D02*
X96785714Y-82627380D01*
X97023809Y-82627380D01*
X97119047Y-82579761D01*
X97166666Y-82484523D01*
X97166666Y-82389285D01*
X97119047Y-82294047D01*
X97023809Y-82246428D01*
X96785714Y-82246428D01*
X96690476Y-82198809D01*
X95785714Y-82627380D02*
X95785714Y-81627380D01*
X95785714Y-82579761D02*
X95880952Y-82627380D01*
X96071428Y-82627380D01*
X96166666Y-82579761D01*
X96214285Y-82532142D01*
X96261904Y-82436904D01*
X96261904Y-82151190D01*
X96214285Y-82055952D01*
X96166666Y-82008333D01*
X96071428Y-81960714D01*
X95880952Y-81960714D01*
X95785714Y-82008333D01*
X94928571Y-82579761D02*
X95023809Y-82627380D01*
X95214285Y-82627380D01*
X95309523Y-82579761D01*
X95357142Y-82484523D01*
X95357142Y-82103571D01*
X95309523Y-82008333D01*
X95214285Y-81960714D01*
X95023809Y-81960714D01*
X94928571Y-82008333D01*
X94880952Y-82103571D01*
X94880952Y-82198809D01*
X95357142Y-82294047D01*
X104857142Y-83372619D02*
X104809523Y-83325000D01*
X104714285Y-83277380D01*
X104476190Y-83277380D01*
X104380952Y-83325000D01*
X104333333Y-83372619D01*
X104285714Y-83467857D01*
X104285714Y-83563095D01*
X104333333Y-83705952D01*
X104904761Y-84277380D01*
X104285714Y-84277380D01*
X103666666Y-83277380D02*
X103571428Y-83277380D01*
X103476190Y-83325000D01*
X103428571Y-83372619D01*
X103380952Y-83467857D01*
X103333333Y-83658333D01*
X103333333Y-83896428D01*
X103380952Y-84086904D01*
X103428571Y-84182142D01*
X103476190Y-84229761D01*
X103571428Y-84277380D01*
X103666666Y-84277380D01*
X103761904Y-84229761D01*
X103809523Y-84182142D01*
X103857142Y-84086904D01*
X103904761Y-83896428D01*
X103904761Y-83658333D01*
X103857142Y-83467857D01*
X103809523Y-83372619D01*
X103761904Y-83325000D01*
X103666666Y-83277380D01*
X102952380Y-83372619D02*
X102904761Y-83325000D01*
X102809523Y-83277380D01*
X102571428Y-83277380D01*
X102476190Y-83325000D01*
X102428571Y-83372619D01*
X102380952Y-83467857D01*
X102380952Y-83563095D01*
X102428571Y-83705952D01*
X103000000Y-84277380D01*
X102380952Y-84277380D01*
X101761904Y-83277380D02*
X101666666Y-83277380D01*
X101571428Y-83325000D01*
X101523809Y-83372619D01*
X101476190Y-83467857D01*
X101428571Y-83658333D01*
X101428571Y-83896428D01*
X101476190Y-84086904D01*
X101523809Y-84182142D01*
X101571428Y-84229761D01*
X101666666Y-84277380D01*
X101761904Y-84277380D01*
X101857142Y-84229761D01*
X101904761Y-84182142D01*
X101952380Y-84086904D01*
X102000000Y-83896428D01*
X102000000Y-83658333D01*
X101952380Y-83467857D01*
X101904761Y-83372619D01*
X101857142Y-83325000D01*
X101761904Y-83277380D01*
X101000000Y-83896428D02*
X100238095Y-83896428D01*
X99571428Y-83277380D02*
X99476190Y-83277380D01*
X99380952Y-83325000D01*
X99333333Y-83372619D01*
X99285714Y-83467857D01*
X99238095Y-83658333D01*
X99238095Y-83896428D01*
X99285714Y-84086904D01*
X99333333Y-84182142D01*
X99380952Y-84229761D01*
X99476190Y-84277380D01*
X99571428Y-84277380D01*
X99666666Y-84229761D01*
X99714285Y-84182142D01*
X99761904Y-84086904D01*
X99809523Y-83896428D01*
X99809523Y-83658333D01*
X99761904Y-83467857D01*
X99714285Y-83372619D01*
X99666666Y-83325000D01*
X99571428Y-83277380D01*
X98761904Y-84277380D02*
X98571428Y-84277380D01*
X98476190Y-84229761D01*
X98428571Y-84182142D01*
X98333333Y-84039285D01*
X98285714Y-83848809D01*
X98285714Y-83467857D01*
X98333333Y-83372619D01*
X98380952Y-83325000D01*
X98476190Y-83277380D01*
X98666666Y-83277380D01*
X98761904Y-83325000D01*
X98809523Y-83372619D01*
X98857142Y-83467857D01*
X98857142Y-83705952D01*
X98809523Y-83801190D01*
X98761904Y-83848809D01*
X98666666Y-83896428D01*
X98476190Y-83896428D01*
X98380952Y-83848809D01*
X98333333Y-83801190D01*
X98285714Y-83705952D01*
X97857142Y-83896428D02*
X97095238Y-83896428D01*
X96095238Y-84277380D02*
X96666666Y-84277380D01*
X96380952Y-84277380D02*
X96380952Y-83277380D01*
X96476190Y-83420238D01*
X96571428Y-83515476D01*
X96666666Y-83563095D01*
X95761904Y-83277380D02*
X95095238Y-83277380D01*
X95523809Y-84277380D01*
X101357142Y-85927380D02*
X101690476Y-85451190D01*
X101928571Y-85927380D02*
X101928571Y-84927380D01*
X101547619Y-84927380D01*
X101452380Y-84975000D01*
X101404761Y-85022619D01*
X101357142Y-85117857D01*
X101357142Y-85260714D01*
X101404761Y-85355952D01*
X101452380Y-85403571D01*
X101547619Y-85451190D01*
X101928571Y-85451190D01*
X100547619Y-85879761D02*
X100642857Y-85927380D01*
X100833333Y-85927380D01*
X100928571Y-85879761D01*
X100976190Y-85784523D01*
X100976190Y-85403571D01*
X100928571Y-85308333D01*
X100833333Y-85260714D01*
X100642857Y-85260714D01*
X100547619Y-85308333D01*
X100500000Y-85403571D01*
X100500000Y-85498809D01*
X100976190Y-85594047D01*
X100166666Y-85260714D02*
X99928571Y-85927380D01*
X99690476Y-85260714D01*
X98023809Y-85927380D02*
X98595238Y-85927380D01*
X98309523Y-85927380D02*
X98309523Y-84927380D01*
X98404761Y-85070238D01*
X98500000Y-85165476D01*
X98595238Y-85213095D01*
D11*
X107700000Y-95000000D02*
G75*
G03*
X107700000Y-95000000I-7600000J0D01*
G01*
D10*
X104290952Y-92531428D02*
X103529047Y-92531428D01*
X103910000Y-92912380D02*
X103910000Y-92150476D01*
M02*
