G04 #@! TF.GenerationSoftware,KiCad,Pcbnew,(5.1.6)-1*
G04 #@! TF.CreationDate,2020-09-18T10:49:42+01:00*
G04 #@! TF.ProjectId,teatime,74656174-696d-4652-9e6b-696361645f70,rev?*
G04 #@! TF.SameCoordinates,Original*
G04 #@! TF.FileFunction,Legend,Top*
G04 #@! TF.FilePolarity,Positive*
%FSLAX46Y46*%
G04 Gerber Fmt 4.6, Leading zero omitted, Abs format (unit mm)*
G04 Created by KiCad (PCBNEW (5.1.6)-1) date 2020-09-18 10:49:42*
%MOMM*%
%LPD*%
G01*
G04 APERTURE LIST*
%ADD10C,0.120000*%
%ADD11C,0.150000*%
G04 APERTURE END LIST*
D10*
X104210000Y-88562779D02*
X104210000Y-88237221D01*
X103190000Y-88562779D02*
X103190000Y-88237221D01*
X106024273Y-115745522D02*
X106254478Y-115975727D01*
X106745522Y-115024273D02*
X106975727Y-115254478D01*
X115745522Y-93975727D02*
X115975727Y-93745522D01*
X115024273Y-93254478D02*
X115254478Y-93024273D01*
X84254478Y-106024273D02*
X84024273Y-106254478D01*
X84975727Y-106745522D02*
X84745522Y-106975727D01*
X93975727Y-84254478D02*
X93745522Y-84024273D01*
X93254478Y-84975727D02*
X93024273Y-84745522D01*
X98010000Y-116175279D02*
X98010000Y-115849721D01*
X96990000Y-116175279D02*
X96990000Y-115849721D01*
X101990000Y-116437221D02*
X101990000Y-116762779D01*
X103010000Y-116437221D02*
X103010000Y-116762779D01*
X106624721Y-98760000D02*
X106950279Y-98760000D01*
X106624721Y-97740000D02*
X106950279Y-97740000D01*
X105490000Y-95549721D02*
X105490000Y-95875279D01*
X106510000Y-95549721D02*
X106510000Y-95875279D01*
X107760000Y-102580000D02*
X106300000Y-102580000D01*
X107760000Y-99420000D02*
X105600000Y-99420000D01*
X107760000Y-99420000D02*
X107760000Y-100350000D01*
X107760000Y-102580000D02*
X107760000Y-101650000D01*
X103870000Y-104670000D02*
X103870000Y-106000000D01*
X102540000Y-104670000D02*
X103870000Y-104670000D01*
X103870000Y-107270000D02*
X103870000Y-109870000D01*
X101270000Y-107270000D02*
X103870000Y-107270000D01*
X101270000Y-104670000D02*
X101270000Y-107270000D01*
X103870000Y-109870000D02*
X96130000Y-109870000D01*
X101270000Y-104670000D02*
X96130000Y-104670000D01*
X96130000Y-104670000D02*
X96130000Y-109870000D01*
X101887221Y-90790000D02*
X102212779Y-90790000D01*
X101887221Y-91810000D02*
X102212779Y-91810000D01*
X99800000Y-119900000D02*
X98400000Y-119900000D01*
X97700000Y-119200000D02*
X97700000Y-118600000D01*
X98400000Y-117900000D02*
X99800000Y-117900000D01*
X100500000Y-118600000D02*
X100500000Y-119200000D01*
X100500000Y-119200000D02*
G75*
G02*
X99800000Y-119900000I-700000J0D01*
G01*
X99800000Y-117900000D02*
G75*
G02*
X100500000Y-118600000I0J-700000D01*
G01*
X97700000Y-118600000D02*
G75*
G02*
X98400000Y-117900000I700000J0D01*
G01*
X98400000Y-119900000D02*
G75*
G02*
X97700000Y-119200000I0J700000D01*
G01*
X104400000Y-128980000D02*
X95600000Y-128980000D01*
X106145000Y-132150000D02*
X106145000Y-133200000D01*
X93855000Y-132150000D02*
X93855000Y-133200000D01*
X104400000Y-128980000D02*
X104400000Y-128225000D01*
X107422040Y-85422040D02*
X106043181Y-86800898D01*
X107422040Y-85422040D02*
X108800898Y-84043181D01*
X114577960Y-92577960D02*
X113199102Y-93956819D01*
X114577960Y-92577960D02*
X117017479Y-90138442D01*
X96962779Y-112240000D02*
X96637221Y-112240000D01*
X96962779Y-113260000D02*
X96637221Y-113260000D01*
X98315000Y-113710000D02*
X101000000Y-113710000D01*
X98315000Y-111790000D02*
X98315000Y-113710000D01*
X101000000Y-111790000D02*
X98315000Y-111790000D01*
X105197449Y-78791455D02*
X105721266Y-76158046D01*
X103314341Y-78416881D02*
X105197449Y-78791455D01*
X103838158Y-75783473D02*
X103314341Y-78416881D01*
X109235163Y-80212943D02*
X110262668Y-77732327D01*
X107461314Y-79478191D02*
X109235163Y-80212943D01*
X108488819Y-76997574D02*
X107461314Y-79478191D01*
X112917975Y-82394838D02*
X114409681Y-80162342D01*
X111321553Y-81328143D02*
X112917975Y-82394838D01*
X112813259Y-79095647D02*
X111321553Y-81328143D01*
X116104357Y-85253287D02*
X118002938Y-83354706D01*
X114746712Y-83895642D02*
X116104357Y-85253287D01*
X116645293Y-81997061D02*
X114746712Y-83895642D01*
X118671856Y-88678446D02*
X120904352Y-87186740D01*
X117605161Y-87082024D02*
X118671856Y-88678446D01*
X119837657Y-85590318D02*
X117605161Y-87082024D01*
X120521808Y-92538685D02*
X123002425Y-91511180D01*
X119787056Y-90764836D02*
X120521808Y-92538685D01*
X122267672Y-89737331D02*
X119787056Y-90764836D01*
X121583118Y-96685658D02*
X124216526Y-96161841D01*
X121208544Y-94802550D02*
X121583118Y-96685658D01*
X123841953Y-94278733D02*
X121208544Y-94802550D01*
X121815000Y-100960000D02*
X124500000Y-100960000D01*
X121815000Y-99040000D02*
X121815000Y-100960000D01*
X124500000Y-99040000D02*
X121815000Y-99040000D01*
X121208544Y-105197449D02*
X123841953Y-105721266D01*
X121583118Y-103314341D02*
X121208544Y-105197449D01*
X124216526Y-103838158D02*
X121583118Y-103314341D01*
X119787056Y-109235163D02*
X122267672Y-110262668D01*
X120521808Y-107461314D02*
X119787056Y-109235163D01*
X123002425Y-108488819D02*
X120521808Y-107461314D01*
X117605161Y-112917975D02*
X119837657Y-114409681D01*
X118671856Y-111321553D02*
X117605161Y-112917975D01*
X120904352Y-112813259D02*
X118671856Y-111321553D01*
X114746712Y-116104357D02*
X116645293Y-118002938D01*
X116104357Y-114746712D02*
X114746712Y-116104357D01*
X118002938Y-116645293D02*
X116104357Y-114746712D01*
X111321553Y-118671856D02*
X112813259Y-120904352D01*
X112917975Y-117605161D02*
X111321553Y-118671856D01*
X114409681Y-119837657D02*
X112917975Y-117605161D01*
X107461314Y-120521808D02*
X108488819Y-123002425D01*
X109235163Y-119787056D02*
X107461314Y-120521808D01*
X110262668Y-122267672D02*
X109235163Y-119787056D01*
X103314341Y-121583118D02*
X103838158Y-124216526D01*
X105197449Y-121208544D02*
X103314341Y-121583118D01*
X105721266Y-123841953D02*
X105197449Y-121208544D01*
X99040000Y-121815000D02*
X99040000Y-124500000D01*
X100960000Y-121815000D02*
X99040000Y-121815000D01*
X100960000Y-124500000D02*
X100960000Y-121815000D01*
X94802550Y-121208544D02*
X94278733Y-123841953D01*
X96685658Y-121583118D02*
X94802550Y-121208544D01*
X96161841Y-124216526D02*
X96685658Y-121583118D01*
X90764836Y-119787056D02*
X89737331Y-122267672D01*
X92538685Y-120521808D02*
X90764836Y-119787056D01*
X91511180Y-123002425D02*
X92538685Y-120521808D01*
X87082024Y-117605161D02*
X85590318Y-119837657D01*
X88678446Y-118671856D02*
X87082024Y-117605161D01*
X87186740Y-120904352D02*
X88678446Y-118671856D01*
X83895642Y-114746712D02*
X81997061Y-116645293D01*
X85253287Y-116104357D02*
X83895642Y-114746712D01*
X83354706Y-118002938D02*
X85253287Y-116104357D01*
X81328143Y-111321553D02*
X79095647Y-112813259D01*
X82394838Y-112917975D02*
X81328143Y-111321553D01*
X80162342Y-114409681D02*
X82394838Y-112917975D01*
X79478191Y-107461314D02*
X76997574Y-108488819D01*
X80212943Y-109235163D02*
X79478191Y-107461314D01*
X77732327Y-110262668D02*
X80212943Y-109235163D01*
X78416881Y-103314341D02*
X75783473Y-103838158D01*
X78791455Y-105197449D02*
X78416881Y-103314341D01*
X76158046Y-105721266D02*
X78791455Y-105197449D01*
X78185000Y-99040000D02*
X75500000Y-99040000D01*
X78185000Y-100960000D02*
X78185000Y-99040000D01*
X75500000Y-100960000D02*
X78185000Y-100960000D01*
X78791455Y-94802550D02*
X76158046Y-94278733D01*
X78416881Y-96685658D02*
X78791455Y-94802550D01*
X75783473Y-96161841D02*
X78416881Y-96685658D01*
X80212943Y-90764836D02*
X77732327Y-89737331D01*
X79478191Y-92538685D02*
X80212943Y-90764836D01*
X76997574Y-91511180D02*
X79478191Y-92538685D01*
X82394838Y-87082024D02*
X80162342Y-85590318D01*
X81328143Y-88678446D02*
X82394838Y-87082024D01*
X79095647Y-87186740D02*
X81328143Y-88678446D01*
X85253287Y-83895642D02*
X83354706Y-81997061D01*
X83895642Y-85253287D02*
X85253287Y-83895642D01*
X81997061Y-83354706D02*
X83895642Y-85253287D01*
X88678446Y-81328143D02*
X87186740Y-79095647D01*
X87082024Y-82394838D02*
X88678446Y-81328143D01*
X85590318Y-80162342D02*
X87082024Y-82394838D01*
X92538685Y-79478191D02*
X91511180Y-76997574D01*
X90764836Y-80212943D02*
X92538685Y-79478191D01*
X89737331Y-77732327D02*
X90764836Y-80212943D01*
X96685658Y-78416881D02*
X96161841Y-75783473D01*
X94802550Y-78791455D02*
X96685658Y-78416881D01*
X94278733Y-76158046D02*
X94802550Y-78791455D01*
X100960000Y-78185000D02*
X100960000Y-75500000D01*
X99040000Y-78185000D02*
X100960000Y-78185000D01*
X99040000Y-75500000D02*
X99040000Y-78185000D01*
X97800000Y-103300000D02*
X102300000Y-103300000D01*
X96550000Y-99300000D02*
X96550000Y-100800000D01*
X102300000Y-96800000D02*
X97800000Y-96800000D01*
X103550000Y-100800000D02*
X103550000Y-99300000D01*
D11*
X102755000Y-82750000D02*
X102550000Y-82750000D01*
X102755000Y-88250000D02*
X102455000Y-88250000D01*
X97245000Y-88250000D02*
X97545000Y-88250000D01*
X97245000Y-82750000D02*
X97545000Y-82750000D01*
X102755000Y-82750000D02*
X102755000Y-88250000D01*
X97245000Y-82750000D02*
X97245000Y-88250000D01*
X102550000Y-82750000D02*
X102550000Y-81000000D01*
D10*
X85422040Y-92577960D02*
X86800898Y-93956819D01*
X85422040Y-92577960D02*
X84043181Y-91199102D01*
X92577960Y-85422040D02*
X93956819Y-86800898D01*
X92577960Y-85422040D02*
X90138442Y-82982521D01*
X104157051Y-79935466D02*
X103837749Y-79871953D01*
X104356043Y-78935065D02*
X104036741Y-78871552D01*
X107991572Y-81132000D02*
X107690795Y-81007415D01*
X108381909Y-80189643D02*
X108081132Y-80065058D01*
X111518979Y-83053623D02*
X111248287Y-82872752D01*
X112085661Y-82205524D02*
X111814969Y-82024653D01*
X114603720Y-85626484D02*
X114373515Y-85396279D01*
X115324969Y-84905235D02*
X115094764Y-84675030D01*
X117127247Y-88751712D02*
X116946376Y-88481020D01*
X117975346Y-88185030D02*
X117794475Y-87914338D01*
X118992584Y-92309204D02*
X118867999Y-92008427D01*
X119934941Y-91918867D02*
X119810356Y-91618090D01*
X120128046Y-96162250D02*
X120064533Y-95842948D01*
X121128447Y-95963258D02*
X121064934Y-95643956D01*
X120490000Y-100162779D02*
X120490000Y-99837221D01*
X121510000Y-100162779D02*
X121510000Y-99837221D01*
X120064533Y-104157051D02*
X120128046Y-103837749D01*
X121064934Y-104356043D02*
X121128447Y-104036741D01*
X118867999Y-107991572D02*
X118992584Y-107690795D01*
X119810356Y-108381909D02*
X119934941Y-108081132D01*
X116946376Y-111518979D02*
X117127247Y-111248287D01*
X117794475Y-112085661D02*
X117975346Y-111814969D01*
X114373515Y-114603720D02*
X114603720Y-114373515D01*
X115094764Y-115324969D02*
X115324969Y-115094764D01*
X111248287Y-117127247D02*
X111518979Y-116946376D01*
X111814969Y-117975346D02*
X112085661Y-117794475D01*
X107690795Y-118992584D02*
X107991572Y-118867999D01*
X108081132Y-119934941D02*
X108381909Y-119810356D01*
X103837749Y-120128046D02*
X104157051Y-120064533D01*
X104036741Y-121128447D02*
X104356043Y-121064934D01*
X99837221Y-120490000D02*
X100162779Y-120490000D01*
X99837221Y-121510000D02*
X100162779Y-121510000D01*
X95842948Y-120064533D02*
X96162250Y-120128046D01*
X95643956Y-121064934D02*
X95963258Y-121128447D01*
X92008427Y-118867999D02*
X92309204Y-118992584D01*
X91618090Y-119810356D02*
X91918867Y-119934941D01*
X88481020Y-116946376D02*
X88751712Y-117127247D01*
X87914338Y-117794475D02*
X88185030Y-117975346D01*
X85396279Y-114373515D02*
X85626484Y-114603720D01*
X84675030Y-115094764D02*
X84905235Y-115324969D01*
X82872752Y-111248287D02*
X83053623Y-111518979D01*
X82024653Y-111814969D02*
X82205524Y-112085661D01*
X81007415Y-107690795D02*
X81132000Y-107991572D01*
X80065058Y-108081132D02*
X80189643Y-108381909D01*
X79871953Y-103837749D02*
X79935466Y-104157051D01*
X78871552Y-104036741D02*
X78935065Y-104356043D01*
X79510000Y-99837221D02*
X79510000Y-100162779D01*
X78490000Y-99837221D02*
X78490000Y-100162779D01*
X79935466Y-95842948D02*
X79871953Y-96162250D01*
X78935065Y-95643956D02*
X78871552Y-95963258D01*
X81132000Y-92008427D02*
X81007415Y-92309204D01*
X80189643Y-91618090D02*
X80065058Y-91918867D01*
X83053623Y-88481020D02*
X82872752Y-88751712D01*
X82205524Y-87914338D02*
X82024653Y-88185030D01*
X85626484Y-85396279D02*
X85396279Y-85626484D01*
X84905235Y-84675030D02*
X84675030Y-84905235D01*
X88751712Y-82872752D02*
X88481020Y-83053623D01*
X88185030Y-82024653D02*
X87914338Y-82205524D01*
X92309204Y-81007415D02*
X92008427Y-81132000D01*
X91918867Y-80065058D02*
X91618090Y-80189643D01*
X96162250Y-79871953D02*
X95842948Y-79935466D01*
X95963258Y-78871552D02*
X95643956Y-78935065D01*
X100162779Y-79510000D02*
X99837221Y-79510000D01*
X100162779Y-78490000D02*
X99837221Y-78490000D01*
X114577960Y-107422040D02*
X113199102Y-106043181D01*
X114577960Y-107422040D02*
X115956819Y-108800898D01*
X107422040Y-114577960D02*
X106043181Y-113199102D01*
X107422040Y-114577960D02*
X109861558Y-117017479D01*
X92577960Y-114577960D02*
X93956819Y-113199102D01*
X92577960Y-114577960D02*
X91199102Y-115956819D01*
X85422040Y-107422040D02*
X86800898Y-106043181D01*
X85422040Y-107422040D02*
X82982521Y-109861558D01*
X100760000Y-117430000D02*
X100760000Y-116500000D01*
X100760000Y-114270000D02*
X100760000Y-115200000D01*
X100760000Y-114270000D02*
X98600000Y-114270000D01*
X100760000Y-117430000D02*
X99300000Y-117430000D01*
D11*
X109180710Y-86406259D02*
X109652114Y-86877664D01*
X108641962Y-87281725D01*
X109988832Y-87685786D02*
X109517427Y-88157190D01*
X110089847Y-87248053D02*
X109416412Y-87584771D01*
X109854145Y-88022503D01*
X109887816Y-88527580D02*
X110594923Y-87820473D01*
X110258206Y-88157190D02*
X110662267Y-88561251D01*
X110291877Y-88931641D02*
X110998984Y-88224534D01*
X111100000Y-89605076D02*
X111032656Y-89605076D01*
X110897969Y-89537732D01*
X110830625Y-89470389D01*
X110763282Y-89335702D01*
X110763282Y-89201015D01*
X110796954Y-89100000D01*
X110897969Y-88931641D01*
X110998984Y-88830625D01*
X111167343Y-88729610D01*
X111268358Y-88695938D01*
X111403045Y-88695938D01*
X111537732Y-88763282D01*
X111605076Y-88830625D01*
X111672419Y-88965312D01*
X111672419Y-89032656D01*
X112379526Y-89605076D02*
X112042809Y-89268358D01*
X111672419Y-89571404D01*
X111739763Y-89571404D01*
X111840778Y-89605076D01*
X112009137Y-89773435D01*
X112042809Y-89874450D01*
X112042809Y-89941793D01*
X112009137Y-90042809D01*
X111840778Y-90211167D01*
X111739763Y-90244839D01*
X111672419Y-90244839D01*
X111571404Y-90211167D01*
X111403045Y-90042809D01*
X111369374Y-89941793D01*
X111369374Y-89874450D01*
X112042809Y-90682572D02*
X112177496Y-90817259D01*
X112278511Y-90850931D01*
X112345854Y-90850931D01*
X112514213Y-90817259D01*
X112682572Y-90716244D01*
X112951946Y-90446870D01*
X112985618Y-90345854D01*
X112985618Y-90278511D01*
X112951946Y-90177496D01*
X112817259Y-90042809D01*
X112716244Y-90009137D01*
X112648900Y-90009137D01*
X112547885Y-90042809D01*
X112379526Y-90211167D01*
X112345854Y-90312183D01*
X112345854Y-90379526D01*
X112379526Y-90480541D01*
X112514213Y-90615228D01*
X112615228Y-90648900D01*
X112682572Y-90648900D01*
X112783587Y-90615228D01*
X113726396Y-90951946D02*
X113389679Y-90615228D01*
X113019289Y-90918274D01*
X113086633Y-90918274D01*
X113187648Y-90951946D01*
X113356007Y-91120305D01*
X113389679Y-91221320D01*
X113389679Y-91288663D01*
X113356007Y-91389679D01*
X113187648Y-91558037D01*
X113086633Y-91591709D01*
X113019289Y-91591709D01*
X112918274Y-91558037D01*
X112749915Y-91389679D01*
X112716244Y-91288663D01*
X112716244Y-91221320D01*
X86306259Y-90919289D02*
X86777664Y-90447885D01*
X87181725Y-91458037D01*
X87585786Y-90111167D02*
X88057190Y-90582572D01*
X87148053Y-90010152D02*
X87484771Y-90683587D01*
X87922503Y-90245854D01*
X88427580Y-90212183D02*
X87720473Y-89505076D01*
X88057190Y-89841793D02*
X88461251Y-89437732D01*
X88831641Y-89808122D02*
X88124534Y-89101015D01*
X89505076Y-89000000D02*
X89505076Y-89067343D01*
X89437732Y-89202030D01*
X89370389Y-89269374D01*
X89235702Y-89336717D01*
X89101015Y-89336717D01*
X89000000Y-89303045D01*
X88831641Y-89202030D01*
X88730625Y-89101015D01*
X88629610Y-88932656D01*
X88595938Y-88831641D01*
X88595938Y-88696954D01*
X88663282Y-88562267D01*
X88730625Y-88494923D01*
X88865312Y-88427580D01*
X88932656Y-88427580D01*
X89505076Y-87720473D02*
X89168358Y-88057190D01*
X89471404Y-88427580D01*
X89471404Y-88360236D01*
X89505076Y-88259221D01*
X89673435Y-88090862D01*
X89774450Y-88057190D01*
X89841793Y-88057190D01*
X89942809Y-88090862D01*
X90111167Y-88259221D01*
X90144839Y-88360236D01*
X90144839Y-88427580D01*
X90111167Y-88528595D01*
X89942809Y-88696954D01*
X89841793Y-88730625D01*
X89774450Y-88730625D01*
X90582572Y-88057190D02*
X90717259Y-87922503D01*
X90750931Y-87821488D01*
X90750931Y-87754145D01*
X90717259Y-87585786D01*
X90616244Y-87417427D01*
X90346870Y-87148053D01*
X90245854Y-87114381D01*
X90178511Y-87114381D01*
X90077496Y-87148053D01*
X89942809Y-87282740D01*
X89909137Y-87383755D01*
X89909137Y-87451099D01*
X89942809Y-87552114D01*
X90111167Y-87720473D01*
X90212183Y-87754145D01*
X90279526Y-87754145D01*
X90380541Y-87720473D01*
X90515228Y-87585786D01*
X90548900Y-87484771D01*
X90548900Y-87417427D01*
X90515228Y-87316412D01*
X90851946Y-86373603D02*
X90515228Y-86710320D01*
X90818274Y-87080710D01*
X90818274Y-87013366D01*
X90851946Y-86912351D01*
X91020305Y-86743992D01*
X91121320Y-86710320D01*
X91188663Y-86710320D01*
X91289679Y-86743992D01*
X91458037Y-86912351D01*
X91491709Y-87013366D01*
X91491709Y-87080710D01*
X91458037Y-87181725D01*
X91289679Y-87350084D01*
X91188663Y-87383755D01*
X91121320Y-87383755D01*
X108306259Y-112919289D02*
X108777664Y-112447885D01*
X109181725Y-113458037D01*
X109585786Y-112111167D02*
X110057190Y-112582572D01*
X109148053Y-112010152D02*
X109484771Y-112683587D01*
X109922503Y-112245854D01*
X110427580Y-112212183D02*
X109720473Y-111505076D01*
X110057190Y-111841793D02*
X110461251Y-111437732D01*
X110831641Y-111808122D02*
X110124534Y-111101015D01*
X111505076Y-111000000D02*
X111505076Y-111067343D01*
X111437732Y-111202030D01*
X111370389Y-111269374D01*
X111235702Y-111336717D01*
X111101015Y-111336717D01*
X111000000Y-111303045D01*
X110831641Y-111202030D01*
X110730625Y-111101015D01*
X110629610Y-110932656D01*
X110595938Y-110831641D01*
X110595938Y-110696954D01*
X110663282Y-110562267D01*
X110730625Y-110494923D01*
X110865312Y-110427580D01*
X110932656Y-110427580D01*
X111505076Y-109720473D02*
X111168358Y-110057190D01*
X111471404Y-110427580D01*
X111471404Y-110360236D01*
X111505076Y-110259221D01*
X111673435Y-110090862D01*
X111774450Y-110057190D01*
X111841793Y-110057190D01*
X111942809Y-110090862D01*
X112111167Y-110259221D01*
X112144839Y-110360236D01*
X112144839Y-110427580D01*
X112111167Y-110528595D01*
X111942809Y-110696954D01*
X111841793Y-110730625D01*
X111774450Y-110730625D01*
X112582572Y-110057190D02*
X112717259Y-109922503D01*
X112750931Y-109821488D01*
X112750931Y-109754145D01*
X112717259Y-109585786D01*
X112616244Y-109417427D01*
X112346870Y-109148053D01*
X112245854Y-109114381D01*
X112178511Y-109114381D01*
X112077496Y-109148053D01*
X111942809Y-109282740D01*
X111909137Y-109383755D01*
X111909137Y-109451099D01*
X111942809Y-109552114D01*
X112111167Y-109720473D01*
X112212183Y-109754145D01*
X112279526Y-109754145D01*
X112380541Y-109720473D01*
X112515228Y-109585786D01*
X112548900Y-109484771D01*
X112548900Y-109417427D01*
X112515228Y-109316412D01*
X112851946Y-108373603D02*
X112515228Y-108710320D01*
X112818274Y-109080710D01*
X112818274Y-109013366D01*
X112851946Y-108912351D01*
X113020305Y-108743992D01*
X113121320Y-108710320D01*
X113188663Y-108710320D01*
X113289679Y-108743992D01*
X113458037Y-108912351D01*
X113491709Y-109013366D01*
X113491709Y-109080710D01*
X113458037Y-109181725D01*
X113289679Y-109350084D01*
X113188663Y-109383755D01*
X113121320Y-109383755D01*
X87080710Y-108806258D02*
X87552114Y-109277663D01*
X86541962Y-109681724D01*
X87888832Y-110085785D02*
X87417427Y-110557189D01*
X87989847Y-109648052D02*
X87316412Y-109984770D01*
X87754145Y-110422502D01*
X87787816Y-110927579D02*
X88494923Y-110220472D01*
X88158206Y-110557189D02*
X88562267Y-110961250D01*
X88191877Y-111331640D02*
X88898984Y-110624533D01*
X89000000Y-112005075D02*
X88932656Y-112005075D01*
X88797969Y-111937731D01*
X88730625Y-111870388D01*
X88663282Y-111735701D01*
X88663282Y-111601014D01*
X88696954Y-111499999D01*
X88797969Y-111331640D01*
X88898984Y-111230624D01*
X89067343Y-111129609D01*
X89168358Y-111095937D01*
X89303045Y-111095937D01*
X89437732Y-111163281D01*
X89505076Y-111230624D01*
X89572419Y-111365311D01*
X89572419Y-111432655D01*
X90279526Y-112005075D02*
X89942809Y-111668357D01*
X89572419Y-111971403D01*
X89639763Y-111971403D01*
X89740778Y-112005075D01*
X89909137Y-112173434D01*
X89942809Y-112274449D01*
X89942809Y-112341792D01*
X89909137Y-112442808D01*
X89740778Y-112611166D01*
X89639763Y-112644838D01*
X89572419Y-112644838D01*
X89471404Y-112611166D01*
X89303045Y-112442808D01*
X89269374Y-112341792D01*
X89269374Y-112274449D01*
X89942809Y-113082571D02*
X90077496Y-113217258D01*
X90178511Y-113250930D01*
X90245854Y-113250930D01*
X90414213Y-113217258D01*
X90582572Y-113116243D01*
X90851946Y-112846869D01*
X90885618Y-112745853D01*
X90885618Y-112678510D01*
X90851946Y-112577495D01*
X90717259Y-112442808D01*
X90616244Y-112409136D01*
X90548900Y-112409136D01*
X90447885Y-112442808D01*
X90279526Y-112611166D01*
X90245854Y-112712182D01*
X90245854Y-112779525D01*
X90279526Y-112880540D01*
X90414213Y-113015227D01*
X90515228Y-113048899D01*
X90582572Y-113048899D01*
X90683587Y-113015227D01*
X91626396Y-113351945D02*
X91289679Y-113015227D01*
X90919289Y-113318273D01*
X90986633Y-113318273D01*
X91087648Y-113351945D01*
X91256007Y-113520304D01*
X91289679Y-113621319D01*
X91289679Y-113688662D01*
X91256007Y-113789678D01*
X91087648Y-113958036D01*
X90986633Y-113991708D01*
X90919289Y-113991708D01*
X90818274Y-113958036D01*
X90649915Y-113789678D01*
X90616244Y-113688662D01*
X90616244Y-113621319D01*
M02*
