G04 #@! TF.GenerationSoftware,KiCad,Pcbnew,(5.0.2)-1*
G04 #@! TF.CreationDate,2020-02-14T16:26:47+00:00*
G04 #@! TF.ProjectId,teatime,74656174-696d-4652-9e6b-696361645f70,rev?*
G04 #@! TF.SameCoordinates,Original*
G04 #@! TF.FileFunction,Copper,L1,Top*
G04 #@! TF.FilePolarity,Positive*
%FSLAX46Y46*%
G04 Gerber Fmt 4.6, Leading zero omitted, Abs format (unit mm)*
G04 Created by KiCad (PCBNEW (5.0.2)-1) date 14/02/2020 16:26:47*
%MOMM*%
%LPD*%
G01*
G04 APERTURE LIST*
G04 #@! TA.AperFunction,ComponentPad*
%ADD10C,1.400000*%
G04 #@! TD*
G04 #@! TA.AperFunction,ComponentPad*
%ADD11O,1.400000X1.400000*%
G04 #@! TD*
G04 #@! TA.AperFunction,Conductor*
%ADD12C,0.100000*%
G04 #@! TD*
G04 #@! TA.AperFunction,SMDPad,CuDef*
%ADD13C,1.250000*%
G04 #@! TD*
G04 #@! TA.AperFunction,ComponentPad*
%ADD14R,1.050000X1.500000*%
G04 #@! TD*
G04 #@! TA.AperFunction,ComponentPad*
%ADD15O,1.050000X1.500000*%
G04 #@! TD*
G04 #@! TA.AperFunction,ComponentPad*
%ADD16O,1.600000X1.600000*%
G04 #@! TD*
G04 #@! TA.AperFunction,ComponentPad*
%ADD17R,1.600000X1.600000*%
G04 #@! TD*
G04 #@! TA.AperFunction,ComponentPad*
%ADD18C,2.000000*%
G04 #@! TD*
G04 #@! TA.AperFunction,ComponentPad*
%ADD19C,1.200000*%
G04 #@! TD*
G04 #@! TA.AperFunction,ComponentPad*
%ADD20O,1.200000X1.750000*%
G04 #@! TD*
G04 #@! TA.AperFunction,ComponentPad*
%ADD21C,1.800000*%
G04 #@! TD*
G04 #@! TA.AperFunction,ComponentPad*
%ADD22R,1.800000X1.800000*%
G04 #@! TD*
G04 #@! TA.AperFunction,ViaPad*
%ADD23C,0.600000*%
G04 #@! TD*
G04 #@! TA.AperFunction,Conductor*
%ADD24C,0.500000*%
G04 #@! TD*
G04 #@! TA.AperFunction,Conductor*
%ADD25C,1.000000*%
G04 #@! TD*
G04 APERTURE END LIST*
D10*
G04 #@! TO.P,R22,1*
G04 #@! TO.N,Net-(R22-Pad1)*
X112700000Y-127500000D03*
D11*
G04 #@! TO.P,R22,2*
G04 #@! TO.N,Net-(D22-Pad1)*
X112700000Y-135120000D03*
G04 #@! TD*
G04 #@! TO.P,R24,2*
G04 #@! TO.N,Net-(D24-Pad1)*
X117780000Y-135120000D03*
D10*
G04 #@! TO.P,R24,1*
G04 #@! TO.N,Net-(R24-Pad1)*
X117780000Y-127500000D03*
G04 #@! TD*
G04 #@! TO.P,R25,1*
G04 #@! TO.N,Net-(R25-Pad1)*
X127500000Y-100000000D03*
D11*
G04 #@! TO.P,R25,2*
G04 #@! TO.N,Net-(D25-Pad1)*
X135120000Y-100000000D03*
G04 #@! TD*
G04 #@! TO.P,R26,2*
G04 #@! TO.N,Net-(D26-Pad1)*
X135120000Y-97460000D03*
D10*
G04 #@! TO.P,R26,1*
G04 #@! TO.N,Net-(R26-Pad1)*
X127500000Y-97460000D03*
G04 #@! TD*
G04 #@! TO.P,R27,1*
G04 #@! TO.N,Net-(R27-Pad1)*
X127500000Y-94920000D03*
D11*
G04 #@! TO.P,R27,2*
G04 #@! TO.N,Net-(D27-Pad1)*
X135120000Y-94920000D03*
G04 #@! TD*
G04 #@! TO.P,R28,2*
G04 #@! TO.N,Net-(D28-Pad1)*
X135120000Y-92380000D03*
D10*
G04 #@! TO.P,R28,1*
G04 #@! TO.N,Net-(R28-Pad1)*
X127500000Y-92380000D03*
G04 #@! TD*
G04 #@! TO.P,R29,1*
G04 #@! TO.N,Net-(R29-Pad1)*
X127500000Y-89840000D03*
D11*
G04 #@! TO.P,R29,2*
G04 #@! TO.N,Net-(D29-Pad1)*
X135120000Y-89840000D03*
G04 #@! TD*
G04 #@! TO.P,R30,2*
G04 #@! TO.N,Net-(D30-Pad1)*
X135120000Y-87300000D03*
D10*
G04 #@! TO.P,R30,1*
G04 #@! TO.N,Net-(R30-Pad1)*
X127500000Y-87300000D03*
G04 #@! TD*
G04 #@! TO.P,R31,1*
G04 #@! TO.N,Net-(R31-Pad1)*
X127500000Y-84760000D03*
D11*
G04 #@! TO.P,R31,2*
G04 #@! TO.N,Net-(D31-Pad1)*
X135120000Y-84760000D03*
G04 #@! TD*
G04 #@! TO.P,R32,2*
G04 #@! TO.N,Net-(D32-Pad1)*
X135120000Y-82220000D03*
D10*
G04 #@! TO.P,R32,1*
G04 #@! TO.N,Net-(R32-Pad1)*
X127500000Y-82220000D03*
G04 #@! TD*
G04 #@! TO.P,R17,1*
G04 #@! TO.N,Net-(R17-Pad1)*
X100000000Y-127500000D03*
D11*
G04 #@! TO.P,R17,2*
G04 #@! TO.N,Net-(D17-Pad1)*
X100000000Y-135120000D03*
G04 #@! TD*
G04 #@! TO.P,R4,2*
G04 #@! TO.N,Net-(D4-Pad1)*
X92380000Y-64880000D03*
D10*
G04 #@! TO.P,R4,1*
G04 #@! TO.N,Net-(R4-Pad1)*
X92380000Y-72500000D03*
G04 #@! TD*
G04 #@! TO.P,R2,1*
G04 #@! TO.N,Net-(R2-Pad1)*
X97460000Y-72500000D03*
D11*
G04 #@! TO.P,R2,2*
G04 #@! TO.N,Net-(D2-Pad1)*
X97460000Y-64880000D03*
G04 #@! TD*
G04 #@! TO.P,R1,2*
G04 #@! TO.N,Net-(D1-Pad1)*
X100000000Y-64880000D03*
D10*
G04 #@! TO.P,R1,1*
G04 #@! TO.N,Net-(R1-Pad1)*
X100000000Y-72500000D03*
G04 #@! TD*
G04 #@! TO.P,R3,1*
G04 #@! TO.N,Net-(R3-Pad1)*
X94920000Y-72500000D03*
D11*
G04 #@! TO.P,R3,2*
G04 #@! TO.N,Net-(D3-Pad1)*
X94920000Y-64880000D03*
G04 #@! TD*
G04 #@! TO.P,R23,2*
G04 #@! TO.N,Net-(D23-Pad1)*
X115240000Y-135120000D03*
D10*
G04 #@! TO.P,R23,1*
G04 #@! TO.N,Net-(R23-Pad1)*
X115240000Y-127500000D03*
G04 #@! TD*
G04 #@! TO.P,R33,1*
G04 #@! TO.N,Net-(R33-Pad1)*
X93000000Y-95000000D03*
D11*
G04 #@! TO.P,R33,2*
G04 #@! TO.N,+3V3*
X93000000Y-87380000D03*
G04 #@! TD*
G04 #@! TO.P,R7,2*
G04 #@! TO.N,Net-(D7-Pad1)*
X84760000Y-64880000D03*
D10*
G04 #@! TO.P,R7,1*
G04 #@! TO.N,Net-(R7-Pad1)*
X84760000Y-72500000D03*
G04 #@! TD*
G04 #@! TO.P,R8,1*
G04 #@! TO.N,Net-(R8-Pad1)*
X82220000Y-72500000D03*
D11*
G04 #@! TO.P,R8,2*
G04 #@! TO.N,Net-(D8-Pad1)*
X82220000Y-64880000D03*
G04 #@! TD*
G04 #@! TO.P,R9,2*
G04 #@! TO.N,Net-(D9-Pad1)*
X64880000Y-100000000D03*
D10*
G04 #@! TO.P,R9,1*
G04 #@! TO.N,Net-(R9-Pad1)*
X72500000Y-100000000D03*
G04 #@! TD*
G04 #@! TO.P,R10,1*
G04 #@! TO.N,Net-(R10-Pad1)*
X72500000Y-102540000D03*
D11*
G04 #@! TO.P,R10,2*
G04 #@! TO.N,Net-(D10-Pad1)*
X64880000Y-102540000D03*
G04 #@! TD*
G04 #@! TO.P,R11,2*
G04 #@! TO.N,Net-(D11-Pad1)*
X64880000Y-105080000D03*
D10*
G04 #@! TO.P,R11,1*
G04 #@! TO.N,Net-(R11-Pad1)*
X72500000Y-105080000D03*
G04 #@! TD*
G04 #@! TO.P,R12,1*
G04 #@! TO.N,Net-(R12-Pad1)*
X72500000Y-107620000D03*
D11*
G04 #@! TO.P,R12,2*
G04 #@! TO.N,Net-(D12-Pad1)*
X64880000Y-107620000D03*
G04 #@! TD*
G04 #@! TO.P,R13,2*
G04 #@! TO.N,Net-(D13-Pad1)*
X64880000Y-110160000D03*
D10*
G04 #@! TO.P,R13,1*
G04 #@! TO.N,Net-(R13-Pad1)*
X72500000Y-110160000D03*
G04 #@! TD*
G04 #@! TO.P,R14,1*
G04 #@! TO.N,Net-(R14-Pad1)*
X72500000Y-112700000D03*
D11*
G04 #@! TO.P,R14,2*
G04 #@! TO.N,Net-(D14-Pad1)*
X64880000Y-112700000D03*
G04 #@! TD*
G04 #@! TO.P,R15,2*
G04 #@! TO.N,Net-(D15-Pad1)*
X64880000Y-115240000D03*
D10*
G04 #@! TO.P,R15,1*
G04 #@! TO.N,Net-(R15-Pad1)*
X72500000Y-115240000D03*
G04 #@! TD*
G04 #@! TO.P,R16,1*
G04 #@! TO.N,Net-(R16-Pad1)*
X72500000Y-117780000D03*
D11*
G04 #@! TO.P,R16,2*
G04 #@! TO.N,Net-(D16-Pad1)*
X64880000Y-117780000D03*
G04 #@! TD*
G04 #@! TO.P,R6,2*
G04 #@! TO.N,Net-(D6-Pad1)*
X87300000Y-64880000D03*
D10*
G04 #@! TO.P,R6,1*
G04 #@! TO.N,Net-(R6-Pad1)*
X87300000Y-72500000D03*
G04 #@! TD*
G04 #@! TO.P,R18,1*
G04 #@! TO.N,Net-(R18-Pad1)*
X102540000Y-127500000D03*
D11*
G04 #@! TO.P,R18,2*
G04 #@! TO.N,Net-(D18-Pad1)*
X102540000Y-135120000D03*
G04 #@! TD*
G04 #@! TO.P,R20,2*
G04 #@! TO.N,Net-(D20-Pad1)*
X107620000Y-135120000D03*
D10*
G04 #@! TO.P,R20,1*
G04 #@! TO.N,Net-(R20-Pad1)*
X107620000Y-127500000D03*
G04 #@! TD*
G04 #@! TO.P,R5,1*
G04 #@! TO.N,Net-(R5-Pad1)*
X89840000Y-72500000D03*
D11*
G04 #@! TO.P,R5,2*
G04 #@! TO.N,Net-(D5-Pad1)*
X89840000Y-64880000D03*
G04 #@! TD*
G04 #@! TO.P,R19,2*
G04 #@! TO.N,Net-(D19-Pad1)*
X105080000Y-135120000D03*
D10*
G04 #@! TO.P,R19,1*
G04 #@! TO.N,Net-(R19-Pad1)*
X105080000Y-127500000D03*
G04 #@! TD*
G04 #@! TO.P,R21,1*
G04 #@! TO.N,Net-(R21-Pad1)*
X110160000Y-127500000D03*
D11*
G04 #@! TO.P,R21,2*
G04 #@! TO.N,Net-(D21-Pad1)*
X110160000Y-135120000D03*
G04 #@! TD*
D12*
G04 #@! TO.N,GND*
G04 #@! TO.C,C4*
G36*
X104399504Y-79226204D02*
X104423773Y-79229804D01*
X104447571Y-79235765D01*
X104470671Y-79244030D01*
X104492849Y-79254520D01*
X104513893Y-79267133D01*
X104533598Y-79281747D01*
X104551777Y-79298223D01*
X104568253Y-79316402D01*
X104582867Y-79336107D01*
X104595480Y-79357151D01*
X104605970Y-79379329D01*
X104614235Y-79402429D01*
X104620196Y-79426227D01*
X104623796Y-79450496D01*
X104625000Y-79475000D01*
X104625000Y-80225000D01*
X104623796Y-80249504D01*
X104620196Y-80273773D01*
X104614235Y-80297571D01*
X104605970Y-80320671D01*
X104595480Y-80342849D01*
X104582867Y-80363893D01*
X104568253Y-80383598D01*
X104551777Y-80401777D01*
X104533598Y-80418253D01*
X104513893Y-80432867D01*
X104492849Y-80445480D01*
X104470671Y-80455970D01*
X104447571Y-80464235D01*
X104423773Y-80470196D01*
X104399504Y-80473796D01*
X104375000Y-80475000D01*
X103125000Y-80475000D01*
X103100496Y-80473796D01*
X103076227Y-80470196D01*
X103052429Y-80464235D01*
X103029329Y-80455970D01*
X103007151Y-80445480D01*
X102986107Y-80432867D01*
X102966402Y-80418253D01*
X102948223Y-80401777D01*
X102931747Y-80383598D01*
X102917133Y-80363893D01*
X102904520Y-80342849D01*
X102894030Y-80320671D01*
X102885765Y-80297571D01*
X102879804Y-80273773D01*
X102876204Y-80249504D01*
X102875000Y-80225000D01*
X102875000Y-79475000D01*
X102876204Y-79450496D01*
X102879804Y-79426227D01*
X102885765Y-79402429D01*
X102894030Y-79379329D01*
X102904520Y-79357151D01*
X102917133Y-79336107D01*
X102931747Y-79316402D01*
X102948223Y-79298223D01*
X102966402Y-79281747D01*
X102986107Y-79267133D01*
X103007151Y-79254520D01*
X103029329Y-79244030D01*
X103052429Y-79235765D01*
X103076227Y-79229804D01*
X103100496Y-79226204D01*
X103125000Y-79225000D01*
X104375000Y-79225000D01*
X104399504Y-79226204D01*
X104399504Y-79226204D01*
G37*
D13*
G04 #@! TD*
G04 #@! TO.P,C4,2*
G04 #@! TO.N,GND*
X103750000Y-79850000D03*
D12*
G04 #@! TO.N,+3V3*
G04 #@! TO.C,C4*
G36*
X104399504Y-82026204D02*
X104423773Y-82029804D01*
X104447571Y-82035765D01*
X104470671Y-82044030D01*
X104492849Y-82054520D01*
X104513893Y-82067133D01*
X104533598Y-82081747D01*
X104551777Y-82098223D01*
X104568253Y-82116402D01*
X104582867Y-82136107D01*
X104595480Y-82157151D01*
X104605970Y-82179329D01*
X104614235Y-82202429D01*
X104620196Y-82226227D01*
X104623796Y-82250496D01*
X104625000Y-82275000D01*
X104625000Y-83025000D01*
X104623796Y-83049504D01*
X104620196Y-83073773D01*
X104614235Y-83097571D01*
X104605970Y-83120671D01*
X104595480Y-83142849D01*
X104582867Y-83163893D01*
X104568253Y-83183598D01*
X104551777Y-83201777D01*
X104533598Y-83218253D01*
X104513893Y-83232867D01*
X104492849Y-83245480D01*
X104470671Y-83255970D01*
X104447571Y-83264235D01*
X104423773Y-83270196D01*
X104399504Y-83273796D01*
X104375000Y-83275000D01*
X103125000Y-83275000D01*
X103100496Y-83273796D01*
X103076227Y-83270196D01*
X103052429Y-83264235D01*
X103029329Y-83255970D01*
X103007151Y-83245480D01*
X102986107Y-83232867D01*
X102966402Y-83218253D01*
X102948223Y-83201777D01*
X102931747Y-83183598D01*
X102917133Y-83163893D01*
X102904520Y-83142849D01*
X102894030Y-83120671D01*
X102885765Y-83097571D01*
X102879804Y-83073773D01*
X102876204Y-83049504D01*
X102875000Y-83025000D01*
X102875000Y-82275000D01*
X102876204Y-82250496D01*
X102879804Y-82226227D01*
X102885765Y-82202429D01*
X102894030Y-82179329D01*
X102904520Y-82157151D01*
X102917133Y-82136107D01*
X102931747Y-82116402D01*
X102948223Y-82098223D01*
X102966402Y-82081747D01*
X102986107Y-82067133D01*
X103007151Y-82054520D01*
X103029329Y-82044030D01*
X103052429Y-82035765D01*
X103076227Y-82029804D01*
X103100496Y-82026204D01*
X103125000Y-82025000D01*
X104375000Y-82025000D01*
X104399504Y-82026204D01*
X104399504Y-82026204D01*
G37*
D13*
G04 #@! TD*
G04 #@! TO.P,C4,1*
G04 #@! TO.N,+3V3*
X103750000Y-82650000D03*
D12*
G04 #@! TO.N,+3V3*
G04 #@! TO.C,C5*
G36*
X82799504Y-95376204D02*
X82823773Y-95379804D01*
X82847571Y-95385765D01*
X82870671Y-95394030D01*
X82892849Y-95404520D01*
X82913893Y-95417133D01*
X82933598Y-95431747D01*
X82951777Y-95448223D01*
X82968253Y-95466402D01*
X82982867Y-95486107D01*
X82995480Y-95507151D01*
X83005970Y-95529329D01*
X83014235Y-95552429D01*
X83020196Y-95576227D01*
X83023796Y-95600496D01*
X83025000Y-95625000D01*
X83025000Y-96875000D01*
X83023796Y-96899504D01*
X83020196Y-96923773D01*
X83014235Y-96947571D01*
X83005970Y-96970671D01*
X82995480Y-96992849D01*
X82982867Y-97013893D01*
X82968253Y-97033598D01*
X82951777Y-97051777D01*
X82933598Y-97068253D01*
X82913893Y-97082867D01*
X82892849Y-97095480D01*
X82870671Y-97105970D01*
X82847571Y-97114235D01*
X82823773Y-97120196D01*
X82799504Y-97123796D01*
X82775000Y-97125000D01*
X82025000Y-97125000D01*
X82000496Y-97123796D01*
X81976227Y-97120196D01*
X81952429Y-97114235D01*
X81929329Y-97105970D01*
X81907151Y-97095480D01*
X81886107Y-97082867D01*
X81866402Y-97068253D01*
X81848223Y-97051777D01*
X81831747Y-97033598D01*
X81817133Y-97013893D01*
X81804520Y-96992849D01*
X81794030Y-96970671D01*
X81785765Y-96947571D01*
X81779804Y-96923773D01*
X81776204Y-96899504D01*
X81775000Y-96875000D01*
X81775000Y-95625000D01*
X81776204Y-95600496D01*
X81779804Y-95576227D01*
X81785765Y-95552429D01*
X81794030Y-95529329D01*
X81804520Y-95507151D01*
X81817133Y-95486107D01*
X81831747Y-95466402D01*
X81848223Y-95448223D01*
X81866402Y-95431747D01*
X81886107Y-95417133D01*
X81907151Y-95404520D01*
X81929329Y-95394030D01*
X81952429Y-95385765D01*
X81976227Y-95379804D01*
X82000496Y-95376204D01*
X82025000Y-95375000D01*
X82775000Y-95375000D01*
X82799504Y-95376204D01*
X82799504Y-95376204D01*
G37*
D13*
G04 #@! TD*
G04 #@! TO.P,C5,1*
G04 #@! TO.N,+3V3*
X82400000Y-96250000D03*
D12*
G04 #@! TO.N,GND*
G04 #@! TO.C,C5*
G36*
X79999504Y-95376204D02*
X80023773Y-95379804D01*
X80047571Y-95385765D01*
X80070671Y-95394030D01*
X80092849Y-95404520D01*
X80113893Y-95417133D01*
X80133598Y-95431747D01*
X80151777Y-95448223D01*
X80168253Y-95466402D01*
X80182867Y-95486107D01*
X80195480Y-95507151D01*
X80205970Y-95529329D01*
X80214235Y-95552429D01*
X80220196Y-95576227D01*
X80223796Y-95600496D01*
X80225000Y-95625000D01*
X80225000Y-96875000D01*
X80223796Y-96899504D01*
X80220196Y-96923773D01*
X80214235Y-96947571D01*
X80205970Y-96970671D01*
X80195480Y-96992849D01*
X80182867Y-97013893D01*
X80168253Y-97033598D01*
X80151777Y-97051777D01*
X80133598Y-97068253D01*
X80113893Y-97082867D01*
X80092849Y-97095480D01*
X80070671Y-97105970D01*
X80047571Y-97114235D01*
X80023773Y-97120196D01*
X79999504Y-97123796D01*
X79975000Y-97125000D01*
X79225000Y-97125000D01*
X79200496Y-97123796D01*
X79176227Y-97120196D01*
X79152429Y-97114235D01*
X79129329Y-97105970D01*
X79107151Y-97095480D01*
X79086107Y-97082867D01*
X79066402Y-97068253D01*
X79048223Y-97051777D01*
X79031747Y-97033598D01*
X79017133Y-97013893D01*
X79004520Y-96992849D01*
X78994030Y-96970671D01*
X78985765Y-96947571D01*
X78979804Y-96923773D01*
X78976204Y-96899504D01*
X78975000Y-96875000D01*
X78975000Y-95625000D01*
X78976204Y-95600496D01*
X78979804Y-95576227D01*
X78985765Y-95552429D01*
X78994030Y-95529329D01*
X79004520Y-95507151D01*
X79017133Y-95486107D01*
X79031747Y-95466402D01*
X79048223Y-95448223D01*
X79066402Y-95431747D01*
X79086107Y-95417133D01*
X79107151Y-95404520D01*
X79129329Y-95394030D01*
X79152429Y-95385765D01*
X79176227Y-95379804D01*
X79200496Y-95376204D01*
X79225000Y-95375000D01*
X79975000Y-95375000D01*
X79999504Y-95376204D01*
X79999504Y-95376204D01*
G37*
D13*
G04 #@! TD*
G04 #@! TO.P,C5,2*
G04 #@! TO.N,GND*
X79600000Y-96250000D03*
D12*
G04 #@! TO.N,GND*
G04 #@! TO.C,C6*
G36*
X96899504Y-119776204D02*
X96923773Y-119779804D01*
X96947571Y-119785765D01*
X96970671Y-119794030D01*
X96992849Y-119804520D01*
X97013893Y-119817133D01*
X97033598Y-119831747D01*
X97051777Y-119848223D01*
X97068253Y-119866402D01*
X97082867Y-119886107D01*
X97095480Y-119907151D01*
X97105970Y-119929329D01*
X97114235Y-119952429D01*
X97120196Y-119976227D01*
X97123796Y-120000496D01*
X97125000Y-120025000D01*
X97125000Y-120775000D01*
X97123796Y-120799504D01*
X97120196Y-120823773D01*
X97114235Y-120847571D01*
X97105970Y-120870671D01*
X97095480Y-120892849D01*
X97082867Y-120913893D01*
X97068253Y-120933598D01*
X97051777Y-120951777D01*
X97033598Y-120968253D01*
X97013893Y-120982867D01*
X96992849Y-120995480D01*
X96970671Y-121005970D01*
X96947571Y-121014235D01*
X96923773Y-121020196D01*
X96899504Y-121023796D01*
X96875000Y-121025000D01*
X95625000Y-121025000D01*
X95600496Y-121023796D01*
X95576227Y-121020196D01*
X95552429Y-121014235D01*
X95529329Y-121005970D01*
X95507151Y-120995480D01*
X95486107Y-120982867D01*
X95466402Y-120968253D01*
X95448223Y-120951777D01*
X95431747Y-120933598D01*
X95417133Y-120913893D01*
X95404520Y-120892849D01*
X95394030Y-120870671D01*
X95385765Y-120847571D01*
X95379804Y-120823773D01*
X95376204Y-120799504D01*
X95375000Y-120775000D01*
X95375000Y-120025000D01*
X95376204Y-120000496D01*
X95379804Y-119976227D01*
X95385765Y-119952429D01*
X95394030Y-119929329D01*
X95404520Y-119907151D01*
X95417133Y-119886107D01*
X95431747Y-119866402D01*
X95448223Y-119848223D01*
X95466402Y-119831747D01*
X95486107Y-119817133D01*
X95507151Y-119804520D01*
X95529329Y-119794030D01*
X95552429Y-119785765D01*
X95576227Y-119779804D01*
X95600496Y-119776204D01*
X95625000Y-119775000D01*
X96875000Y-119775000D01*
X96899504Y-119776204D01*
X96899504Y-119776204D01*
G37*
D13*
G04 #@! TD*
G04 #@! TO.P,C6,2*
G04 #@! TO.N,GND*
X96250000Y-120400000D03*
D12*
G04 #@! TO.N,+3V3*
G04 #@! TO.C,C6*
G36*
X96899504Y-116976204D02*
X96923773Y-116979804D01*
X96947571Y-116985765D01*
X96970671Y-116994030D01*
X96992849Y-117004520D01*
X97013893Y-117017133D01*
X97033598Y-117031747D01*
X97051777Y-117048223D01*
X97068253Y-117066402D01*
X97082867Y-117086107D01*
X97095480Y-117107151D01*
X97105970Y-117129329D01*
X97114235Y-117152429D01*
X97120196Y-117176227D01*
X97123796Y-117200496D01*
X97125000Y-117225000D01*
X97125000Y-117975000D01*
X97123796Y-117999504D01*
X97120196Y-118023773D01*
X97114235Y-118047571D01*
X97105970Y-118070671D01*
X97095480Y-118092849D01*
X97082867Y-118113893D01*
X97068253Y-118133598D01*
X97051777Y-118151777D01*
X97033598Y-118168253D01*
X97013893Y-118182867D01*
X96992849Y-118195480D01*
X96970671Y-118205970D01*
X96947571Y-118214235D01*
X96923773Y-118220196D01*
X96899504Y-118223796D01*
X96875000Y-118225000D01*
X95625000Y-118225000D01*
X95600496Y-118223796D01*
X95576227Y-118220196D01*
X95552429Y-118214235D01*
X95529329Y-118205970D01*
X95507151Y-118195480D01*
X95486107Y-118182867D01*
X95466402Y-118168253D01*
X95448223Y-118151777D01*
X95431747Y-118133598D01*
X95417133Y-118113893D01*
X95404520Y-118092849D01*
X95394030Y-118070671D01*
X95385765Y-118047571D01*
X95379804Y-118023773D01*
X95376204Y-117999504D01*
X95375000Y-117975000D01*
X95375000Y-117225000D01*
X95376204Y-117200496D01*
X95379804Y-117176227D01*
X95385765Y-117152429D01*
X95394030Y-117129329D01*
X95404520Y-117107151D01*
X95417133Y-117086107D01*
X95431747Y-117066402D01*
X95448223Y-117048223D01*
X95466402Y-117031747D01*
X95486107Y-117017133D01*
X95507151Y-117004520D01*
X95529329Y-116994030D01*
X95552429Y-116985765D01*
X95576227Y-116979804D01*
X95600496Y-116976204D01*
X95625000Y-116975000D01*
X96875000Y-116975000D01*
X96899504Y-116976204D01*
X96899504Y-116976204D01*
G37*
D13*
G04 #@! TD*
G04 #@! TO.P,C6,1*
G04 #@! TO.N,+3V3*
X96250000Y-117600000D03*
D12*
G04 #@! TO.N,+3V3*
G04 #@! TO.C,C7*
G36*
X117999504Y-102876204D02*
X118023773Y-102879804D01*
X118047571Y-102885765D01*
X118070671Y-102894030D01*
X118092849Y-102904520D01*
X118113893Y-102917133D01*
X118133598Y-102931747D01*
X118151777Y-102948223D01*
X118168253Y-102966402D01*
X118182867Y-102986107D01*
X118195480Y-103007151D01*
X118205970Y-103029329D01*
X118214235Y-103052429D01*
X118220196Y-103076227D01*
X118223796Y-103100496D01*
X118225000Y-103125000D01*
X118225000Y-104375000D01*
X118223796Y-104399504D01*
X118220196Y-104423773D01*
X118214235Y-104447571D01*
X118205970Y-104470671D01*
X118195480Y-104492849D01*
X118182867Y-104513893D01*
X118168253Y-104533598D01*
X118151777Y-104551777D01*
X118133598Y-104568253D01*
X118113893Y-104582867D01*
X118092849Y-104595480D01*
X118070671Y-104605970D01*
X118047571Y-104614235D01*
X118023773Y-104620196D01*
X117999504Y-104623796D01*
X117975000Y-104625000D01*
X117225000Y-104625000D01*
X117200496Y-104623796D01*
X117176227Y-104620196D01*
X117152429Y-104614235D01*
X117129329Y-104605970D01*
X117107151Y-104595480D01*
X117086107Y-104582867D01*
X117066402Y-104568253D01*
X117048223Y-104551777D01*
X117031747Y-104533598D01*
X117017133Y-104513893D01*
X117004520Y-104492849D01*
X116994030Y-104470671D01*
X116985765Y-104447571D01*
X116979804Y-104423773D01*
X116976204Y-104399504D01*
X116975000Y-104375000D01*
X116975000Y-103125000D01*
X116976204Y-103100496D01*
X116979804Y-103076227D01*
X116985765Y-103052429D01*
X116994030Y-103029329D01*
X117004520Y-103007151D01*
X117017133Y-102986107D01*
X117031747Y-102966402D01*
X117048223Y-102948223D01*
X117066402Y-102931747D01*
X117086107Y-102917133D01*
X117107151Y-102904520D01*
X117129329Y-102894030D01*
X117152429Y-102885765D01*
X117176227Y-102879804D01*
X117200496Y-102876204D01*
X117225000Y-102875000D01*
X117975000Y-102875000D01*
X117999504Y-102876204D01*
X117999504Y-102876204D01*
G37*
D13*
G04 #@! TD*
G04 #@! TO.P,C7,1*
G04 #@! TO.N,+3V3*
X117600000Y-103750000D03*
D12*
G04 #@! TO.N,GND*
G04 #@! TO.C,C7*
G36*
X120799504Y-102876204D02*
X120823773Y-102879804D01*
X120847571Y-102885765D01*
X120870671Y-102894030D01*
X120892849Y-102904520D01*
X120913893Y-102917133D01*
X120933598Y-102931747D01*
X120951777Y-102948223D01*
X120968253Y-102966402D01*
X120982867Y-102986107D01*
X120995480Y-103007151D01*
X121005970Y-103029329D01*
X121014235Y-103052429D01*
X121020196Y-103076227D01*
X121023796Y-103100496D01*
X121025000Y-103125000D01*
X121025000Y-104375000D01*
X121023796Y-104399504D01*
X121020196Y-104423773D01*
X121014235Y-104447571D01*
X121005970Y-104470671D01*
X120995480Y-104492849D01*
X120982867Y-104513893D01*
X120968253Y-104533598D01*
X120951777Y-104551777D01*
X120933598Y-104568253D01*
X120913893Y-104582867D01*
X120892849Y-104595480D01*
X120870671Y-104605970D01*
X120847571Y-104614235D01*
X120823773Y-104620196D01*
X120799504Y-104623796D01*
X120775000Y-104625000D01*
X120025000Y-104625000D01*
X120000496Y-104623796D01*
X119976227Y-104620196D01*
X119952429Y-104614235D01*
X119929329Y-104605970D01*
X119907151Y-104595480D01*
X119886107Y-104582867D01*
X119866402Y-104568253D01*
X119848223Y-104551777D01*
X119831747Y-104533598D01*
X119817133Y-104513893D01*
X119804520Y-104492849D01*
X119794030Y-104470671D01*
X119785765Y-104447571D01*
X119779804Y-104423773D01*
X119776204Y-104399504D01*
X119775000Y-104375000D01*
X119775000Y-103125000D01*
X119776204Y-103100496D01*
X119779804Y-103076227D01*
X119785765Y-103052429D01*
X119794030Y-103029329D01*
X119804520Y-103007151D01*
X119817133Y-102986107D01*
X119831747Y-102966402D01*
X119848223Y-102948223D01*
X119866402Y-102931747D01*
X119886107Y-102917133D01*
X119907151Y-102904520D01*
X119929329Y-102894030D01*
X119952429Y-102885765D01*
X119976227Y-102879804D01*
X120000496Y-102876204D01*
X120025000Y-102875000D01*
X120775000Y-102875000D01*
X120799504Y-102876204D01*
X120799504Y-102876204D01*
G37*
D13*
G04 #@! TD*
G04 #@! TO.P,C7,2*
G04 #@! TO.N,GND*
X120400000Y-103750000D03*
D12*
G04 #@! TO.N,GND*
G04 #@! TO.C,C3*
G36*
X107149504Y-92026204D02*
X107173773Y-92029804D01*
X107197571Y-92035765D01*
X107220671Y-92044030D01*
X107242849Y-92054520D01*
X107263893Y-92067133D01*
X107283598Y-92081747D01*
X107301777Y-92098223D01*
X107318253Y-92116402D01*
X107332867Y-92136107D01*
X107345480Y-92157151D01*
X107355970Y-92179329D01*
X107364235Y-92202429D01*
X107370196Y-92226227D01*
X107373796Y-92250496D01*
X107375000Y-92275000D01*
X107375000Y-93025000D01*
X107373796Y-93049504D01*
X107370196Y-93073773D01*
X107364235Y-93097571D01*
X107355970Y-93120671D01*
X107345480Y-93142849D01*
X107332867Y-93163893D01*
X107318253Y-93183598D01*
X107301777Y-93201777D01*
X107283598Y-93218253D01*
X107263893Y-93232867D01*
X107242849Y-93245480D01*
X107220671Y-93255970D01*
X107197571Y-93264235D01*
X107173773Y-93270196D01*
X107149504Y-93273796D01*
X107125000Y-93275000D01*
X105875000Y-93275000D01*
X105850496Y-93273796D01*
X105826227Y-93270196D01*
X105802429Y-93264235D01*
X105779329Y-93255970D01*
X105757151Y-93245480D01*
X105736107Y-93232867D01*
X105716402Y-93218253D01*
X105698223Y-93201777D01*
X105681747Y-93183598D01*
X105667133Y-93163893D01*
X105654520Y-93142849D01*
X105644030Y-93120671D01*
X105635765Y-93097571D01*
X105629804Y-93073773D01*
X105626204Y-93049504D01*
X105625000Y-93025000D01*
X105625000Y-92275000D01*
X105626204Y-92250496D01*
X105629804Y-92226227D01*
X105635765Y-92202429D01*
X105644030Y-92179329D01*
X105654520Y-92157151D01*
X105667133Y-92136107D01*
X105681747Y-92116402D01*
X105698223Y-92098223D01*
X105716402Y-92081747D01*
X105736107Y-92067133D01*
X105757151Y-92054520D01*
X105779329Y-92044030D01*
X105802429Y-92035765D01*
X105826227Y-92029804D01*
X105850496Y-92026204D01*
X105875000Y-92025000D01*
X107125000Y-92025000D01*
X107149504Y-92026204D01*
X107149504Y-92026204D01*
G37*
D13*
G04 #@! TD*
G04 #@! TO.P,C3,2*
G04 #@! TO.N,GND*
X106500000Y-92650000D03*
D12*
G04 #@! TO.N,+3V3*
G04 #@! TO.C,C3*
G36*
X107149504Y-89226204D02*
X107173773Y-89229804D01*
X107197571Y-89235765D01*
X107220671Y-89244030D01*
X107242849Y-89254520D01*
X107263893Y-89267133D01*
X107283598Y-89281747D01*
X107301777Y-89298223D01*
X107318253Y-89316402D01*
X107332867Y-89336107D01*
X107345480Y-89357151D01*
X107355970Y-89379329D01*
X107364235Y-89402429D01*
X107370196Y-89426227D01*
X107373796Y-89450496D01*
X107375000Y-89475000D01*
X107375000Y-90225000D01*
X107373796Y-90249504D01*
X107370196Y-90273773D01*
X107364235Y-90297571D01*
X107355970Y-90320671D01*
X107345480Y-90342849D01*
X107332867Y-90363893D01*
X107318253Y-90383598D01*
X107301777Y-90401777D01*
X107283598Y-90418253D01*
X107263893Y-90432867D01*
X107242849Y-90445480D01*
X107220671Y-90455970D01*
X107197571Y-90464235D01*
X107173773Y-90470196D01*
X107149504Y-90473796D01*
X107125000Y-90475000D01*
X105875000Y-90475000D01*
X105850496Y-90473796D01*
X105826227Y-90470196D01*
X105802429Y-90464235D01*
X105779329Y-90455970D01*
X105757151Y-90445480D01*
X105736107Y-90432867D01*
X105716402Y-90418253D01*
X105698223Y-90401777D01*
X105681747Y-90383598D01*
X105667133Y-90363893D01*
X105654520Y-90342849D01*
X105644030Y-90320671D01*
X105635765Y-90297571D01*
X105629804Y-90273773D01*
X105626204Y-90249504D01*
X105625000Y-90225000D01*
X105625000Y-89475000D01*
X105626204Y-89450496D01*
X105629804Y-89426227D01*
X105635765Y-89402429D01*
X105644030Y-89379329D01*
X105654520Y-89357151D01*
X105667133Y-89336107D01*
X105681747Y-89316402D01*
X105698223Y-89298223D01*
X105716402Y-89281747D01*
X105736107Y-89267133D01*
X105757151Y-89254520D01*
X105779329Y-89244030D01*
X105802429Y-89235765D01*
X105826227Y-89229804D01*
X105850496Y-89226204D01*
X105875000Y-89225000D01*
X107125000Y-89225000D01*
X107149504Y-89226204D01*
X107149504Y-89226204D01*
G37*
D13*
G04 #@! TD*
G04 #@! TO.P,C3,1*
G04 #@! TO.N,+3V3*
X106500000Y-89850000D03*
D14*
G04 #@! TO.P,U1,1*
G04 #@! TO.N,GND*
X112500000Y-70500000D03*
D15*
G04 #@! TO.P,U1,3*
G04 #@! TO.N,+3V3*
X115040000Y-70500000D03*
G04 #@! TO.P,U1,2*
G04 #@! TO.N,Net-(BT1-Pad1)*
X113770000Y-70500000D03*
G04 #@! TD*
D16*
G04 #@! TO.P,U6,8*
G04 #@! TO.N,+3V3*
X96000000Y-87380000D03*
G04 #@! TO.P,U6,4*
G04 #@! TO.N,GND*
X103620000Y-95000000D03*
G04 #@! TO.P,U6,7*
G04 #@! TO.N,Net-(U2-Pad12)*
X98540000Y-87380000D03*
G04 #@! TO.P,U6,3*
G04 #@! TO.N,Net-(U6-Pad3)*
X101080000Y-95000000D03*
G04 #@! TO.P,U6,6*
G04 #@! TO.N,Net-(U2-Pad11)*
X101080000Y-87380000D03*
G04 #@! TO.P,U6,2*
G04 #@! TO.N,Net-(U6-Pad2)*
X98540000Y-95000000D03*
G04 #@! TO.P,U6,5*
G04 #@! TO.N,Net-(U2-Pad14)*
X103620000Y-87380000D03*
D17*
G04 #@! TO.P,U6,1*
G04 #@! TO.N,Net-(R33-Pad1)*
X96000000Y-95000000D03*
G04 #@! TD*
D18*
G04 #@! TO.P,SW1,1*
G04 #@! TO.N,Net-(R33-Pad1)*
X103250000Y-97750000D03*
G04 #@! TO.P,SW1,2*
G04 #@! TO.N,GND*
X103250000Y-102250000D03*
G04 #@! TO.P,SW1,1*
G04 #@! TO.N,Net-(R33-Pad1)*
X96750000Y-97750000D03*
G04 #@! TO.P,SW1,2*
G04 #@! TO.N,GND*
X96750000Y-102250000D03*
G04 #@! TD*
D12*
G04 #@! TO.N,GND*
G04 #@! TO.C,C1*
G36*
X111499504Y-62626204D02*
X111523773Y-62629804D01*
X111547571Y-62635765D01*
X111570671Y-62644030D01*
X111592849Y-62654520D01*
X111613893Y-62667133D01*
X111633598Y-62681747D01*
X111651777Y-62698223D01*
X111668253Y-62716402D01*
X111682867Y-62736107D01*
X111695480Y-62757151D01*
X111705970Y-62779329D01*
X111714235Y-62802429D01*
X111720196Y-62826227D01*
X111723796Y-62850496D01*
X111725000Y-62875000D01*
X111725000Y-64125000D01*
X111723796Y-64149504D01*
X111720196Y-64173773D01*
X111714235Y-64197571D01*
X111705970Y-64220671D01*
X111695480Y-64242849D01*
X111682867Y-64263893D01*
X111668253Y-64283598D01*
X111651777Y-64301777D01*
X111633598Y-64318253D01*
X111613893Y-64332867D01*
X111592849Y-64345480D01*
X111570671Y-64355970D01*
X111547571Y-64364235D01*
X111523773Y-64370196D01*
X111499504Y-64373796D01*
X111475000Y-64375000D01*
X110725000Y-64375000D01*
X110700496Y-64373796D01*
X110676227Y-64370196D01*
X110652429Y-64364235D01*
X110629329Y-64355970D01*
X110607151Y-64345480D01*
X110586107Y-64332867D01*
X110566402Y-64318253D01*
X110548223Y-64301777D01*
X110531747Y-64283598D01*
X110517133Y-64263893D01*
X110504520Y-64242849D01*
X110494030Y-64220671D01*
X110485765Y-64197571D01*
X110479804Y-64173773D01*
X110476204Y-64149504D01*
X110475000Y-64125000D01*
X110475000Y-62875000D01*
X110476204Y-62850496D01*
X110479804Y-62826227D01*
X110485765Y-62802429D01*
X110494030Y-62779329D01*
X110504520Y-62757151D01*
X110517133Y-62736107D01*
X110531747Y-62716402D01*
X110548223Y-62698223D01*
X110566402Y-62681747D01*
X110586107Y-62667133D01*
X110607151Y-62654520D01*
X110629329Y-62644030D01*
X110652429Y-62635765D01*
X110676227Y-62629804D01*
X110700496Y-62626204D01*
X110725000Y-62625000D01*
X111475000Y-62625000D01*
X111499504Y-62626204D01*
X111499504Y-62626204D01*
G37*
D13*
G04 #@! TD*
G04 #@! TO.P,C1,2*
G04 #@! TO.N,GND*
X111100000Y-63500000D03*
D12*
G04 #@! TO.N,Net-(BT1-Pad1)*
G04 #@! TO.C,C1*
G36*
X114299504Y-62626204D02*
X114323773Y-62629804D01*
X114347571Y-62635765D01*
X114370671Y-62644030D01*
X114392849Y-62654520D01*
X114413893Y-62667133D01*
X114433598Y-62681747D01*
X114451777Y-62698223D01*
X114468253Y-62716402D01*
X114482867Y-62736107D01*
X114495480Y-62757151D01*
X114505970Y-62779329D01*
X114514235Y-62802429D01*
X114520196Y-62826227D01*
X114523796Y-62850496D01*
X114525000Y-62875000D01*
X114525000Y-64125000D01*
X114523796Y-64149504D01*
X114520196Y-64173773D01*
X114514235Y-64197571D01*
X114505970Y-64220671D01*
X114495480Y-64242849D01*
X114482867Y-64263893D01*
X114468253Y-64283598D01*
X114451777Y-64301777D01*
X114433598Y-64318253D01*
X114413893Y-64332867D01*
X114392849Y-64345480D01*
X114370671Y-64355970D01*
X114347571Y-64364235D01*
X114323773Y-64370196D01*
X114299504Y-64373796D01*
X114275000Y-64375000D01*
X113525000Y-64375000D01*
X113500496Y-64373796D01*
X113476227Y-64370196D01*
X113452429Y-64364235D01*
X113429329Y-64355970D01*
X113407151Y-64345480D01*
X113386107Y-64332867D01*
X113366402Y-64318253D01*
X113348223Y-64301777D01*
X113331747Y-64283598D01*
X113317133Y-64263893D01*
X113304520Y-64242849D01*
X113294030Y-64220671D01*
X113285765Y-64197571D01*
X113279804Y-64173773D01*
X113276204Y-64149504D01*
X113275000Y-64125000D01*
X113275000Y-62875000D01*
X113276204Y-62850496D01*
X113279804Y-62826227D01*
X113285765Y-62802429D01*
X113294030Y-62779329D01*
X113304520Y-62757151D01*
X113317133Y-62736107D01*
X113331747Y-62716402D01*
X113348223Y-62698223D01*
X113366402Y-62681747D01*
X113386107Y-62667133D01*
X113407151Y-62654520D01*
X113429329Y-62644030D01*
X113452429Y-62635765D01*
X113476227Y-62629804D01*
X113500496Y-62626204D01*
X113525000Y-62625000D01*
X114275000Y-62625000D01*
X114299504Y-62626204D01*
X114299504Y-62626204D01*
G37*
D13*
G04 #@! TD*
G04 #@! TO.P,C1,1*
G04 #@! TO.N,Net-(BT1-Pad1)*
X113900000Y-63500000D03*
D12*
G04 #@! TO.N,+3V3*
G04 #@! TO.C,C2*
G36*
X115799504Y-65126204D02*
X115823773Y-65129804D01*
X115847571Y-65135765D01*
X115870671Y-65144030D01*
X115892849Y-65154520D01*
X115913893Y-65167133D01*
X115933598Y-65181747D01*
X115951777Y-65198223D01*
X115968253Y-65216402D01*
X115982867Y-65236107D01*
X115995480Y-65257151D01*
X116005970Y-65279329D01*
X116014235Y-65302429D01*
X116020196Y-65326227D01*
X116023796Y-65350496D01*
X116025000Y-65375000D01*
X116025000Y-66625000D01*
X116023796Y-66649504D01*
X116020196Y-66673773D01*
X116014235Y-66697571D01*
X116005970Y-66720671D01*
X115995480Y-66742849D01*
X115982867Y-66763893D01*
X115968253Y-66783598D01*
X115951777Y-66801777D01*
X115933598Y-66818253D01*
X115913893Y-66832867D01*
X115892849Y-66845480D01*
X115870671Y-66855970D01*
X115847571Y-66864235D01*
X115823773Y-66870196D01*
X115799504Y-66873796D01*
X115775000Y-66875000D01*
X115025000Y-66875000D01*
X115000496Y-66873796D01*
X114976227Y-66870196D01*
X114952429Y-66864235D01*
X114929329Y-66855970D01*
X114907151Y-66845480D01*
X114886107Y-66832867D01*
X114866402Y-66818253D01*
X114848223Y-66801777D01*
X114831747Y-66783598D01*
X114817133Y-66763893D01*
X114804520Y-66742849D01*
X114794030Y-66720671D01*
X114785765Y-66697571D01*
X114779804Y-66673773D01*
X114776204Y-66649504D01*
X114775000Y-66625000D01*
X114775000Y-65375000D01*
X114776204Y-65350496D01*
X114779804Y-65326227D01*
X114785765Y-65302429D01*
X114794030Y-65279329D01*
X114804520Y-65257151D01*
X114817133Y-65236107D01*
X114831747Y-65216402D01*
X114848223Y-65198223D01*
X114866402Y-65181747D01*
X114886107Y-65167133D01*
X114907151Y-65154520D01*
X114929329Y-65144030D01*
X114952429Y-65135765D01*
X114976227Y-65129804D01*
X115000496Y-65126204D01*
X115025000Y-65125000D01*
X115775000Y-65125000D01*
X115799504Y-65126204D01*
X115799504Y-65126204D01*
G37*
D13*
G04 #@! TD*
G04 #@! TO.P,C2,1*
G04 #@! TO.N,+3V3*
X115400000Y-66000000D03*
D12*
G04 #@! TO.N,GND*
G04 #@! TO.C,C2*
G36*
X112999504Y-65126204D02*
X113023773Y-65129804D01*
X113047571Y-65135765D01*
X113070671Y-65144030D01*
X113092849Y-65154520D01*
X113113893Y-65167133D01*
X113133598Y-65181747D01*
X113151777Y-65198223D01*
X113168253Y-65216402D01*
X113182867Y-65236107D01*
X113195480Y-65257151D01*
X113205970Y-65279329D01*
X113214235Y-65302429D01*
X113220196Y-65326227D01*
X113223796Y-65350496D01*
X113225000Y-65375000D01*
X113225000Y-66625000D01*
X113223796Y-66649504D01*
X113220196Y-66673773D01*
X113214235Y-66697571D01*
X113205970Y-66720671D01*
X113195480Y-66742849D01*
X113182867Y-66763893D01*
X113168253Y-66783598D01*
X113151777Y-66801777D01*
X113133598Y-66818253D01*
X113113893Y-66832867D01*
X113092849Y-66845480D01*
X113070671Y-66855970D01*
X113047571Y-66864235D01*
X113023773Y-66870196D01*
X112999504Y-66873796D01*
X112975000Y-66875000D01*
X112225000Y-66875000D01*
X112200496Y-66873796D01*
X112176227Y-66870196D01*
X112152429Y-66864235D01*
X112129329Y-66855970D01*
X112107151Y-66845480D01*
X112086107Y-66832867D01*
X112066402Y-66818253D01*
X112048223Y-66801777D01*
X112031747Y-66783598D01*
X112017133Y-66763893D01*
X112004520Y-66742849D01*
X111994030Y-66720671D01*
X111985765Y-66697571D01*
X111979804Y-66673773D01*
X111976204Y-66649504D01*
X111975000Y-66625000D01*
X111975000Y-65375000D01*
X111976204Y-65350496D01*
X111979804Y-65326227D01*
X111985765Y-65302429D01*
X111994030Y-65279329D01*
X112004520Y-65257151D01*
X112017133Y-65236107D01*
X112031747Y-65216402D01*
X112048223Y-65198223D01*
X112066402Y-65181747D01*
X112086107Y-65167133D01*
X112107151Y-65154520D01*
X112129329Y-65144030D01*
X112152429Y-65135765D01*
X112176227Y-65129804D01*
X112200496Y-65126204D01*
X112225000Y-65125000D01*
X112975000Y-65125000D01*
X112999504Y-65126204D01*
X112999504Y-65126204D01*
G37*
D13*
G04 #@! TD*
G04 #@! TO.P,C2,2*
G04 #@! TO.N,GND*
X112600000Y-66000000D03*
D12*
G04 #@! TO.N,Net-(BT1-Pad1)*
G04 #@! TO.C,BT1*
G36*
X108874505Y-60126204D02*
X108898773Y-60129804D01*
X108922572Y-60135765D01*
X108945671Y-60144030D01*
X108967850Y-60154520D01*
X108988893Y-60167132D01*
X109008599Y-60181747D01*
X109026777Y-60198223D01*
X109043253Y-60216401D01*
X109057868Y-60236107D01*
X109070480Y-60257150D01*
X109080970Y-60279329D01*
X109089235Y-60302428D01*
X109095196Y-60326227D01*
X109098796Y-60350495D01*
X109100000Y-60374999D01*
X109100000Y-61625001D01*
X109098796Y-61649505D01*
X109095196Y-61673773D01*
X109089235Y-61697572D01*
X109080970Y-61720671D01*
X109070480Y-61742850D01*
X109057868Y-61763893D01*
X109043253Y-61783599D01*
X109026777Y-61801777D01*
X109008599Y-61818253D01*
X108988893Y-61832868D01*
X108967850Y-61845480D01*
X108945671Y-61855970D01*
X108922572Y-61864235D01*
X108898773Y-61870196D01*
X108874505Y-61873796D01*
X108850001Y-61875000D01*
X108149999Y-61875000D01*
X108125495Y-61873796D01*
X108101227Y-61870196D01*
X108077428Y-61864235D01*
X108054329Y-61855970D01*
X108032150Y-61845480D01*
X108011107Y-61832868D01*
X107991401Y-61818253D01*
X107973223Y-61801777D01*
X107956747Y-61783599D01*
X107942132Y-61763893D01*
X107929520Y-61742850D01*
X107919030Y-61720671D01*
X107910765Y-61697572D01*
X107904804Y-61673773D01*
X107901204Y-61649505D01*
X107900000Y-61625001D01*
X107900000Y-60374999D01*
X107901204Y-60350495D01*
X107904804Y-60326227D01*
X107910765Y-60302428D01*
X107919030Y-60279329D01*
X107929520Y-60257150D01*
X107942132Y-60236107D01*
X107956747Y-60216401D01*
X107973223Y-60198223D01*
X107991401Y-60181747D01*
X108011107Y-60167132D01*
X108032150Y-60154520D01*
X108054329Y-60144030D01*
X108077428Y-60135765D01*
X108101227Y-60129804D01*
X108125495Y-60126204D01*
X108149999Y-60125000D01*
X108850001Y-60125000D01*
X108874505Y-60126204D01*
X108874505Y-60126204D01*
G37*
D19*
G04 #@! TD*
G04 #@! TO.P,BT1,1*
G04 #@! TO.N,Net-(BT1-Pad1)*
X108500000Y-61000000D03*
D20*
G04 #@! TO.P,BT1,2*
G04 #@! TO.N,GND*
X106499999Y-61000000D03*
G04 #@! TD*
D21*
G04 #@! TO.P,D17,2*
G04 #@! TO.N,+3V3*
X100000000Y-147540000D03*
D22*
G04 #@! TO.P,D17,1*
G04 #@! TO.N,Net-(D17-Pad1)*
X100000000Y-145000000D03*
G04 #@! TD*
D21*
G04 #@! TO.P,D30,1*
G04 #@! TO.N,Net-(D30-Pad1)*
X125000660Y-62583867D03*
D12*
G04 #@! TD*
G04 #@! TO.N,Net-(D30-Pad1)*
G04 #@! TO.C,D30*
G36*
X125248969Y-63832203D02*
X123752324Y-62832176D01*
X124752351Y-61335531D01*
X126248996Y-62335558D01*
X125248969Y-63832203D01*
X125248969Y-63832203D01*
G37*
D21*
G04 #@! TO.P,D30,2*
G04 #@! TO.N,+3V3*
X126411808Y-60471934D03*
G04 #@! TD*
G04 #@! TO.P,D29,2*
G04 #@! TO.N,+3V3*
X133615856Y-66384143D03*
G04 #@! TO.P,D29,1*
G04 #@! TO.N,Net-(D29-Pad1)*
X131819805Y-68180194D03*
D12*
G04 #@! TD*
G04 #@! TO.N,Net-(D29-Pad1)*
G04 #@! TO.C,D29*
G36*
X131819805Y-69452986D02*
X130547013Y-68180194D01*
X131819805Y-66907402D01*
X133092597Y-68180194D01*
X131819805Y-69452986D01*
X131819805Y-69452986D01*
G37*
D21*
G04 #@! TO.P,D28,1*
G04 #@! TO.N,Net-(D28-Pad1)*
X137416132Y-74999339D03*
D12*
G04 #@! TD*
G04 #@! TO.N,Net-(D28-Pad1)*
G04 #@! TO.C,D28*
G36*
X137167823Y-76247675D02*
X136167796Y-74751030D01*
X137664441Y-73751003D01*
X138664468Y-75247648D01*
X137167823Y-76247675D01*
X137167823Y-76247675D01*
G37*
D21*
G04 #@! TO.P,D28,2*
G04 #@! TO.N,+3V3*
X139528065Y-73588191D03*
G04 #@! TD*
G04 #@! TO.P,D27,2*
G04 #@! TO.N,+3V3*
X143921232Y-81807229D03*
G04 #@! TO.P,D27,1*
G04 #@! TO.N,Net-(D27-Pad1)*
X141574578Y-82779245D03*
D12*
G04 #@! TD*
G04 #@! TO.N,Net-(D27-Pad1)*
G04 #@! TO.C,D27*
G36*
X141087502Y-83955152D02*
X140398671Y-82292169D01*
X142061654Y-81603338D01*
X142750485Y-83266321D01*
X141087502Y-83955152D01*
X141087502Y-83955152D01*
G37*
D21*
G04 #@! TO.P,D26,1*
G04 #@! TO.N,Net-(D26-Pad1)*
X144135337Y-91220935D03*
D12*
G04 #@! TD*
G04 #@! TO.N,Net-(D26-Pad1)*
G04 #@! TO.C,D26*
G36*
X143428212Y-92279223D02*
X143077049Y-90513810D01*
X144842462Y-90162647D01*
X145193625Y-91928060D01*
X143428212Y-92279223D01*
X143428212Y-92279223D01*
G37*
D21*
G04 #@! TO.P,D26,2*
G04 #@! TO.N,+3V3*
X146626532Y-90725406D03*
G04 #@! TD*
G04 #@! TO.P,D25,2*
G04 #@! TO.N,+3V3*
X147540000Y-100000000D03*
D22*
G04 #@! TO.P,D25,1*
G04 #@! TO.N,Net-(D25-Pad1)*
X145000000Y-100000000D03*
G04 #@! TD*
D21*
G04 #@! TO.P,D24,1*
G04 #@! TO.N,Net-(D24-Pad1)*
X144135337Y-108779064D03*
D12*
G04 #@! TD*
G04 #@! TO.N,Net-(D24-Pad1)*
G04 #@! TO.C,D24*
G36*
X143077049Y-109486189D02*
X143428212Y-107720776D01*
X145193625Y-108071939D01*
X144842462Y-109837352D01*
X143077049Y-109486189D01*
X143077049Y-109486189D01*
G37*
D21*
G04 #@! TO.P,D24,2*
G04 #@! TO.N,+3V3*
X146626532Y-109274593D03*
G04 #@! TD*
G04 #@! TO.P,D23,2*
G04 #@! TO.N,+3V3*
X143921232Y-118192770D03*
G04 #@! TO.P,D23,1*
G04 #@! TO.N,Net-(D23-Pad1)*
X141574578Y-117220754D03*
D12*
G04 #@! TD*
G04 #@! TO.N,Net-(D23-Pad1)*
G04 #@! TO.C,D23*
G36*
X140398671Y-117707830D02*
X141087502Y-116044847D01*
X142750485Y-116733678D01*
X142061654Y-118396661D01*
X140398671Y-117707830D01*
X140398671Y-117707830D01*
G37*
D21*
G04 #@! TO.P,D22,1*
G04 #@! TO.N,Net-(D22-Pad1)*
X137416132Y-125000660D03*
D12*
G04 #@! TD*
G04 #@! TO.N,Net-(D22-Pad1)*
G04 #@! TO.C,D22*
G36*
X136167796Y-125248969D02*
X137167823Y-123752324D01*
X138664468Y-124752351D01*
X137664441Y-126248996D01*
X136167796Y-125248969D01*
X136167796Y-125248969D01*
G37*
D21*
G04 #@! TO.P,D22,2*
G04 #@! TO.N,+3V3*
X139528065Y-126411808D03*
G04 #@! TD*
G04 #@! TO.P,D21,2*
G04 #@! TO.N,+3V3*
X133615856Y-133615856D03*
G04 #@! TO.P,D21,1*
G04 #@! TO.N,Net-(D21-Pad1)*
X131819805Y-131819805D03*
D12*
G04 #@! TD*
G04 #@! TO.N,Net-(D21-Pad1)*
G04 #@! TO.C,D21*
G36*
X130547013Y-131819805D02*
X131819805Y-130547013D01*
X133092597Y-131819805D01*
X131819805Y-133092597D01*
X130547013Y-131819805D01*
X130547013Y-131819805D01*
G37*
D21*
G04 #@! TO.P,D20,1*
G04 #@! TO.N,Net-(D20-Pad1)*
X125000660Y-137416132D03*
D12*
G04 #@! TD*
G04 #@! TO.N,Net-(D20-Pad1)*
G04 #@! TO.C,D20*
G36*
X123752324Y-137167823D02*
X125248969Y-136167796D01*
X126248996Y-137664441D01*
X124752351Y-138664468D01*
X123752324Y-137167823D01*
X123752324Y-137167823D01*
G37*
D21*
G04 #@! TO.P,D20,2*
G04 #@! TO.N,+3V3*
X126411808Y-139528065D03*
G04 #@! TD*
G04 #@! TO.P,D19,2*
G04 #@! TO.N,+3V3*
X118192770Y-143921232D03*
G04 #@! TO.P,D19,1*
G04 #@! TO.N,Net-(D19-Pad1)*
X117220754Y-141574578D03*
D12*
G04 #@! TD*
G04 #@! TO.N,Net-(D19-Pad1)*
G04 #@! TO.C,D19*
G36*
X116044847Y-141087502D02*
X117707830Y-140398671D01*
X118396661Y-142061654D01*
X116733678Y-142750485D01*
X116044847Y-141087502D01*
X116044847Y-141087502D01*
G37*
D21*
G04 #@! TO.P,D18,1*
G04 #@! TO.N,Net-(D18-Pad1)*
X108779064Y-144135337D03*
D12*
G04 #@! TD*
G04 #@! TO.N,Net-(D18-Pad1)*
G04 #@! TO.C,D18*
G36*
X107720776Y-143428212D02*
X109486189Y-143077049D01*
X109837352Y-144842462D01*
X108071939Y-145193625D01*
X107720776Y-143428212D01*
X107720776Y-143428212D01*
G37*
D21*
G04 #@! TO.P,D18,2*
G04 #@! TO.N,+3V3*
X109274593Y-146626532D03*
G04 #@! TD*
G04 #@! TO.P,D16,2*
G04 #@! TO.N,+3V3*
X90725406Y-146626532D03*
G04 #@! TO.P,D16,1*
G04 #@! TO.N,Net-(D16-Pad1)*
X91220935Y-144135337D03*
D12*
G04 #@! TD*
G04 #@! TO.N,Net-(D16-Pad1)*
G04 #@! TO.C,D16*
G36*
X90513810Y-143077049D02*
X92279223Y-143428212D01*
X91928060Y-145193625D01*
X90162647Y-144842462D01*
X90513810Y-143077049D01*
X90513810Y-143077049D01*
G37*
D21*
G04 #@! TO.P,D32,1*
G04 #@! TO.N,Net-(D32-Pad1)*
X108779064Y-55864662D03*
D12*
G04 #@! TD*
G04 #@! TO.N,Net-(D32-Pad1)*
G04 #@! TO.C,D32*
G36*
X109486189Y-56922950D02*
X107720776Y-56571787D01*
X108071939Y-54806374D01*
X109837352Y-55157537D01*
X109486189Y-56922950D01*
X109486189Y-56922950D01*
G37*
D21*
G04 #@! TO.P,D32,2*
G04 #@! TO.N,+3V3*
X109274593Y-53373467D03*
G04 #@! TD*
G04 #@! TO.P,D14,2*
G04 #@! TO.N,+3V3*
X73588191Y-139528065D03*
G04 #@! TO.P,D14,1*
G04 #@! TO.N,Net-(D14-Pad1)*
X74999339Y-137416132D03*
D12*
G04 #@! TD*
G04 #@! TO.N,Net-(D14-Pad1)*
G04 #@! TO.C,D14*
G36*
X74751030Y-136167796D02*
X76247675Y-137167823D01*
X75247648Y-138664468D01*
X73751003Y-137664441D01*
X74751030Y-136167796D01*
X74751030Y-136167796D01*
G37*
D21*
G04 #@! TO.P,D31,1*
G04 #@! TO.N,Net-(D31-Pad1)*
X117220754Y-58425421D03*
D12*
G04 #@! TD*
G04 #@! TO.N,Net-(D31-Pad1)*
G04 #@! TO.C,D31*
G36*
X117707830Y-59601328D02*
X116044847Y-58912497D01*
X116733678Y-57249514D01*
X118396661Y-57938345D01*
X117707830Y-59601328D01*
X117707830Y-59601328D01*
G37*
D21*
G04 #@! TO.P,D31,2*
G04 #@! TO.N,+3V3*
X118192770Y-56078767D03*
G04 #@! TD*
G04 #@! TO.P,D1,2*
G04 #@! TO.N,+3V3*
X100000000Y-52460000D03*
D22*
G04 #@! TO.P,D1,1*
G04 #@! TO.N,Net-(D1-Pad1)*
X100000000Y-55000000D03*
G04 #@! TD*
D21*
G04 #@! TO.P,D2,1*
G04 #@! TO.N,Net-(D2-Pad1)*
X91220935Y-55864662D03*
D12*
G04 #@! TD*
G04 #@! TO.N,Net-(D2-Pad1)*
G04 #@! TO.C,D2*
G36*
X92279223Y-56571787D02*
X90513810Y-56922950D01*
X90162647Y-55157537D01*
X91928060Y-54806374D01*
X92279223Y-56571787D01*
X92279223Y-56571787D01*
G37*
D21*
G04 #@! TO.P,D2,2*
G04 #@! TO.N,+3V3*
X90725406Y-53373467D03*
G04 #@! TD*
G04 #@! TO.P,D3,2*
G04 #@! TO.N,+3V3*
X81807229Y-56078767D03*
G04 #@! TO.P,D3,1*
G04 #@! TO.N,Net-(D3-Pad1)*
X82779245Y-58425421D03*
D12*
G04 #@! TD*
G04 #@! TO.N,Net-(D3-Pad1)*
G04 #@! TO.C,D3*
G36*
X83955152Y-58912497D02*
X82292169Y-59601328D01*
X81603338Y-57938345D01*
X83266321Y-57249514D01*
X83955152Y-58912497D01*
X83955152Y-58912497D01*
G37*
D21*
G04 #@! TO.P,D4,1*
G04 #@! TO.N,Net-(D4-Pad1)*
X74999339Y-62583867D03*
D12*
G04 #@! TD*
G04 #@! TO.N,Net-(D4-Pad1)*
G04 #@! TO.C,D4*
G36*
X76247675Y-62832176D02*
X74751030Y-63832203D01*
X73751003Y-62335558D01*
X75247648Y-61335531D01*
X76247675Y-62832176D01*
X76247675Y-62832176D01*
G37*
D21*
G04 #@! TO.P,D4,2*
G04 #@! TO.N,+3V3*
X73588191Y-60471934D03*
G04 #@! TD*
G04 #@! TO.P,D5,2*
G04 #@! TO.N,+3V3*
X66384143Y-66384143D03*
G04 #@! TO.P,D5,1*
G04 #@! TO.N,Net-(D5-Pad1)*
X68180194Y-68180194D03*
D12*
G04 #@! TD*
G04 #@! TO.N,Net-(D5-Pad1)*
G04 #@! TO.C,D5*
G36*
X69452986Y-68180194D02*
X68180194Y-69452986D01*
X66907402Y-68180194D01*
X68180194Y-66907402D01*
X69452986Y-68180194D01*
X69452986Y-68180194D01*
G37*
D21*
G04 #@! TO.P,D6,1*
G04 #@! TO.N,Net-(D6-Pad1)*
X62583867Y-74999339D03*
D12*
G04 #@! TD*
G04 #@! TO.N,Net-(D6-Pad1)*
G04 #@! TO.C,D6*
G36*
X63832203Y-74751030D02*
X62832176Y-76247675D01*
X61335531Y-75247648D01*
X62335558Y-73751003D01*
X63832203Y-74751030D01*
X63832203Y-74751030D01*
G37*
D21*
G04 #@! TO.P,D6,2*
G04 #@! TO.N,+3V3*
X60471934Y-73588191D03*
G04 #@! TD*
G04 #@! TO.P,D7,2*
G04 #@! TO.N,+3V3*
X56078767Y-81807229D03*
G04 #@! TO.P,D7,1*
G04 #@! TO.N,Net-(D7-Pad1)*
X58425421Y-82779245D03*
D12*
G04 #@! TD*
G04 #@! TO.N,Net-(D7-Pad1)*
G04 #@! TO.C,D7*
G36*
X59601328Y-82292169D02*
X58912497Y-83955152D01*
X57249514Y-83266321D01*
X57938345Y-81603338D01*
X59601328Y-82292169D01*
X59601328Y-82292169D01*
G37*
D21*
G04 #@! TO.P,D8,1*
G04 #@! TO.N,Net-(D8-Pad1)*
X55864662Y-91220935D03*
D12*
G04 #@! TD*
G04 #@! TO.N,Net-(D8-Pad1)*
G04 #@! TO.C,D8*
G36*
X56922950Y-90513810D02*
X56571787Y-92279223D01*
X54806374Y-91928060D01*
X55157537Y-90162647D01*
X56922950Y-90513810D01*
X56922950Y-90513810D01*
G37*
D21*
G04 #@! TO.P,D8,2*
G04 #@! TO.N,+3V3*
X53373467Y-90725406D03*
G04 #@! TD*
G04 #@! TO.P,D9,2*
G04 #@! TO.N,+3V3*
X52460000Y-100000000D03*
D22*
G04 #@! TO.P,D9,1*
G04 #@! TO.N,Net-(D9-Pad1)*
X55000000Y-100000000D03*
G04 #@! TD*
D21*
G04 #@! TO.P,D10,1*
G04 #@! TO.N,Net-(D10-Pad1)*
X55864662Y-108779064D03*
D12*
G04 #@! TD*
G04 #@! TO.N,Net-(D10-Pad1)*
G04 #@! TO.C,D10*
G36*
X56571787Y-107720776D02*
X56922950Y-109486189D01*
X55157537Y-109837352D01*
X54806374Y-108071939D01*
X56571787Y-107720776D01*
X56571787Y-107720776D01*
G37*
D21*
G04 #@! TO.P,D10,2*
G04 #@! TO.N,+3V3*
X53373467Y-109274593D03*
G04 #@! TD*
G04 #@! TO.P,D11,2*
G04 #@! TO.N,+3V3*
X56078767Y-118192770D03*
G04 #@! TO.P,D11,1*
G04 #@! TO.N,Net-(D11-Pad1)*
X58425421Y-117220754D03*
D12*
G04 #@! TD*
G04 #@! TO.N,Net-(D11-Pad1)*
G04 #@! TO.C,D11*
G36*
X58912497Y-116044847D02*
X59601328Y-117707830D01*
X57938345Y-118396661D01*
X57249514Y-116733678D01*
X58912497Y-116044847D01*
X58912497Y-116044847D01*
G37*
D21*
G04 #@! TO.P,D12,1*
G04 #@! TO.N,Net-(D12-Pad1)*
X62583867Y-125000660D03*
D12*
G04 #@! TD*
G04 #@! TO.N,Net-(D12-Pad1)*
G04 #@! TO.C,D12*
G36*
X62832176Y-123752324D02*
X63832203Y-125248969D01*
X62335558Y-126248996D01*
X61335531Y-124752351D01*
X62832176Y-123752324D01*
X62832176Y-123752324D01*
G37*
D21*
G04 #@! TO.P,D12,2*
G04 #@! TO.N,+3V3*
X60471934Y-126411808D03*
G04 #@! TD*
G04 #@! TO.P,D13,2*
G04 #@! TO.N,+3V3*
X66384143Y-133615856D03*
G04 #@! TO.P,D13,1*
G04 #@! TO.N,Net-(D13-Pad1)*
X68180194Y-131819805D03*
D12*
G04 #@! TD*
G04 #@! TO.N,Net-(D13-Pad1)*
G04 #@! TO.C,D13*
G36*
X68180194Y-130547013D02*
X69452986Y-131819805D01*
X68180194Y-133092597D01*
X66907402Y-131819805D01*
X68180194Y-130547013D01*
X68180194Y-130547013D01*
G37*
D21*
G04 #@! TO.P,D15,1*
G04 #@! TO.N,Net-(D15-Pad1)*
X82779245Y-141574578D03*
D12*
G04 #@! TD*
G04 #@! TO.N,Net-(D15-Pad1)*
G04 #@! TO.C,D15*
G36*
X82292169Y-140398671D02*
X83955152Y-141087502D01*
X83266321Y-142750485D01*
X81603338Y-142061654D01*
X82292169Y-140398671D01*
X82292169Y-140398671D01*
G37*
D21*
G04 #@! TO.P,D15,2*
G04 #@! TO.N,+3V3*
X81807229Y-143921232D03*
G04 #@! TD*
D16*
G04 #@! TO.P,U3,16*
G04 #@! TO.N,+3V3*
X82620000Y-100000000D03*
G04 #@! TO.P,U3,8*
G04 #@! TO.N,GND*
X75000000Y-117780000D03*
G04 #@! TO.P,U3,15*
G04 #@! TO.N,Net-(R9-Pad1)*
X82620000Y-102540000D03*
G04 #@! TO.P,U3,7*
G04 #@! TO.N,Net-(R16-Pad1)*
X75000000Y-115240000D03*
G04 #@! TO.P,U3,14*
G04 #@! TO.N,Net-(U2-Pad9)*
X82620000Y-105080000D03*
G04 #@! TO.P,U3,6*
G04 #@! TO.N,Net-(R15-Pad1)*
X75000000Y-112700000D03*
G04 #@! TO.P,U3,13*
G04 #@! TO.N,GND*
X82620000Y-107620000D03*
G04 #@! TO.P,U3,5*
G04 #@! TO.N,Net-(R14-Pad1)*
X75000000Y-110160000D03*
G04 #@! TO.P,U3,12*
G04 #@! TO.N,Net-(U2-Pad12)*
X82620000Y-110160000D03*
G04 #@! TO.P,U3,4*
G04 #@! TO.N,Net-(R13-Pad1)*
X75000000Y-107620000D03*
G04 #@! TO.P,U3,11*
G04 #@! TO.N,Net-(U2-Pad11)*
X82620000Y-112700000D03*
G04 #@! TO.P,U3,3*
G04 #@! TO.N,Net-(R12-Pad1)*
X75000000Y-105080000D03*
G04 #@! TO.P,U3,10*
G04 #@! TO.N,+3V3*
X82620000Y-115240000D03*
G04 #@! TO.P,U3,2*
G04 #@! TO.N,Net-(R11-Pad1)*
X75000000Y-102540000D03*
G04 #@! TO.P,U3,9*
G04 #@! TO.N,Net-(U3-Pad9)*
X82620000Y-117780000D03*
D17*
G04 #@! TO.P,U3,1*
G04 #@! TO.N,Net-(R10-Pad1)*
X75000000Y-100000000D03*
G04 #@! TD*
G04 #@! TO.P,U4,1*
G04 #@! TO.N,Net-(R18-Pad1)*
X100000000Y-125000000D03*
D16*
G04 #@! TO.P,U4,9*
G04 #@! TO.N,Net-(U4-Pad9)*
X117780000Y-117380000D03*
G04 #@! TO.P,U4,2*
G04 #@! TO.N,Net-(R19-Pad1)*
X102540000Y-125000000D03*
G04 #@! TO.P,U4,10*
G04 #@! TO.N,+3V3*
X115240000Y-117380000D03*
G04 #@! TO.P,U4,3*
G04 #@! TO.N,Net-(R20-Pad1)*
X105080000Y-125000000D03*
G04 #@! TO.P,U4,11*
G04 #@! TO.N,Net-(U2-Pad11)*
X112700000Y-117380000D03*
G04 #@! TO.P,U4,4*
G04 #@! TO.N,Net-(R21-Pad1)*
X107620000Y-125000000D03*
G04 #@! TO.P,U4,12*
G04 #@! TO.N,Net-(U2-Pad12)*
X110160000Y-117380000D03*
G04 #@! TO.P,U4,5*
G04 #@! TO.N,Net-(R22-Pad1)*
X110160000Y-125000000D03*
G04 #@! TO.P,U4,13*
G04 #@! TO.N,GND*
X107620000Y-117380000D03*
G04 #@! TO.P,U4,6*
G04 #@! TO.N,Net-(R23-Pad1)*
X112700000Y-125000000D03*
G04 #@! TO.P,U4,14*
G04 #@! TO.N,Net-(U3-Pad9)*
X105080000Y-117380000D03*
G04 #@! TO.P,U4,7*
G04 #@! TO.N,Net-(R24-Pad1)*
X115240000Y-125000000D03*
G04 #@! TO.P,U4,15*
G04 #@! TO.N,Net-(R17-Pad1)*
X102540000Y-117380000D03*
G04 #@! TO.P,U4,8*
G04 #@! TO.N,GND*
X117780000Y-125000000D03*
G04 #@! TO.P,U4,16*
G04 #@! TO.N,+3V3*
X100000000Y-117380000D03*
G04 #@! TD*
G04 #@! TO.P,U5,16*
G04 #@! TO.N,+3V3*
X117380000Y-100000000D03*
G04 #@! TO.P,U5,8*
G04 #@! TO.N,GND*
X125000000Y-82220000D03*
G04 #@! TO.P,U5,15*
G04 #@! TO.N,Net-(R25-Pad1)*
X117380000Y-97460000D03*
G04 #@! TO.P,U5,7*
G04 #@! TO.N,Net-(R32-Pad1)*
X125000000Y-84760000D03*
G04 #@! TO.P,U5,14*
G04 #@! TO.N,Net-(U4-Pad9)*
X117380000Y-94920000D03*
G04 #@! TO.P,U5,6*
G04 #@! TO.N,Net-(R31-Pad1)*
X125000000Y-87300000D03*
G04 #@! TO.P,U5,13*
G04 #@! TO.N,GND*
X117380000Y-92380000D03*
G04 #@! TO.P,U5,5*
G04 #@! TO.N,Net-(R30-Pad1)*
X125000000Y-89840000D03*
G04 #@! TO.P,U5,12*
G04 #@! TO.N,Net-(U2-Pad12)*
X117380000Y-89840000D03*
G04 #@! TO.P,U5,4*
G04 #@! TO.N,Net-(R29-Pad1)*
X125000000Y-92380000D03*
G04 #@! TO.P,U5,11*
G04 #@! TO.N,Net-(U2-Pad11)*
X117380000Y-87300000D03*
G04 #@! TO.P,U5,3*
G04 #@! TO.N,Net-(R28-Pad1)*
X125000000Y-94920000D03*
G04 #@! TO.P,U5,10*
G04 #@! TO.N,+3V3*
X117380000Y-84760000D03*
G04 #@! TO.P,U5,2*
G04 #@! TO.N,Net-(R27-Pad1)*
X125000000Y-97460000D03*
G04 #@! TO.P,U5,9*
G04 #@! TO.N,Net-(U5-Pad9)*
X117380000Y-82220000D03*
D17*
G04 #@! TO.P,U5,1*
G04 #@! TO.N,Net-(R26-Pad1)*
X125000000Y-100000000D03*
G04 #@! TD*
G04 #@! TO.P,U2,1*
G04 #@! TO.N,Net-(R2-Pad1)*
X100000000Y-75000000D03*
D16*
G04 #@! TO.P,U2,9*
G04 #@! TO.N,Net-(U2-Pad9)*
X82220000Y-82620000D03*
G04 #@! TO.P,U2,2*
G04 #@! TO.N,Net-(R3-Pad1)*
X97460000Y-75000000D03*
G04 #@! TO.P,U2,10*
G04 #@! TO.N,+3V3*
X84760000Y-82620000D03*
G04 #@! TO.P,U2,3*
G04 #@! TO.N,Net-(R4-Pad1)*
X94920000Y-75000000D03*
G04 #@! TO.P,U2,11*
G04 #@! TO.N,Net-(U2-Pad11)*
X87300000Y-82620000D03*
G04 #@! TO.P,U2,4*
G04 #@! TO.N,Net-(R5-Pad1)*
X92380000Y-75000000D03*
G04 #@! TO.P,U2,12*
G04 #@! TO.N,Net-(U2-Pad12)*
X89840000Y-82620000D03*
G04 #@! TO.P,U2,5*
G04 #@! TO.N,Net-(R6-Pad1)*
X89840000Y-75000000D03*
G04 #@! TO.P,U2,13*
G04 #@! TO.N,GND*
X92380000Y-82620000D03*
G04 #@! TO.P,U2,6*
G04 #@! TO.N,Net-(R7-Pad1)*
X87300000Y-75000000D03*
G04 #@! TO.P,U2,14*
G04 #@! TO.N,Net-(U2-Pad14)*
X94920000Y-82620000D03*
G04 #@! TO.P,U2,7*
G04 #@! TO.N,Net-(R8-Pad1)*
X84760000Y-75000000D03*
G04 #@! TO.P,U2,15*
G04 #@! TO.N,Net-(R1-Pad1)*
X97460000Y-82620000D03*
G04 #@! TO.P,U2,8*
G04 #@! TO.N,GND*
X82220000Y-75000000D03*
G04 #@! TO.P,U2,16*
G04 #@! TO.N,+3V3*
X100000000Y-82620000D03*
G04 #@! TD*
D23*
G04 #@! TO.N,GND*
X103750000Y-78750000D03*
X78500000Y-96250000D03*
X121500000Y-103750000D03*
X96250000Y-121500000D03*
G04 #@! TD*
D24*
G04 #@! TO.N,Net-(D14-Pad1)*
X74999339Y-136233711D02*
X74999339Y-137416132D01*
X62500000Y-121000000D02*
X74999339Y-133499339D01*
X64880000Y-112700000D02*
X62500000Y-115080000D01*
X74999339Y-133499339D02*
X74999339Y-136233711D01*
X62500000Y-115080000D02*
X62500000Y-121000000D01*
G04 #@! TO.N,GND*
X111100000Y-64500000D02*
X112600000Y-66000000D01*
X111100000Y-63500000D02*
X111100000Y-64500000D01*
X112600000Y-70400000D02*
X112500000Y-70500000D01*
X112600000Y-66000000D02*
X112600000Y-70400000D01*
X110375000Y-63500000D02*
X111100000Y-63500000D01*
X108724999Y-63500000D02*
X110375000Y-63500000D01*
X106499999Y-61275000D02*
X108724999Y-63500000D01*
X106499999Y-61000000D02*
X106499999Y-61275000D01*
D25*
X106500000Y-93500000D02*
X105000000Y-95000000D01*
X106500000Y-92650000D02*
X106500000Y-93500000D01*
X103620000Y-95000000D02*
X105000000Y-95000000D01*
D24*
X103750000Y-79850000D02*
X103750000Y-78750000D01*
X79600000Y-96250000D02*
X78500000Y-96250000D01*
X120400000Y-103750000D02*
X121500000Y-103750000D01*
X96250000Y-120400000D02*
X96250000Y-121500000D01*
G04 #@! TO.N,Net-(D1-Pad1)*
X100000000Y-64880000D02*
X100000000Y-55000000D01*
G04 #@! TO.N,Net-(D2-Pad1)*
X97460000Y-62103726D02*
X91220936Y-55864662D01*
X97460000Y-64880000D02*
X97460000Y-62103726D01*
G04 #@! TO.N,Net-(D13-Pad1)*
X68180194Y-130447013D02*
X68180194Y-131819805D01*
X68180194Y-128180194D02*
X68180194Y-130447013D01*
X61500000Y-121500000D02*
X68180194Y-128180194D01*
X64880000Y-110160000D02*
X61500000Y-113540000D01*
X61500000Y-113540000D02*
X61500000Y-121500000D01*
G04 #@! TO.N,Net-(D11-Pad1)*
X63890051Y-105080000D02*
X58425421Y-110544630D01*
X64880000Y-105080000D02*
X63890051Y-105080000D01*
X58425421Y-110544630D02*
X58425421Y-116146601D01*
X58425421Y-116146601D02*
X58425421Y-117220754D01*
G04 #@! TO.N,Net-(D10-Pad1)*
X62103726Y-102540000D02*
X55864662Y-108779064D01*
X64880000Y-102540000D02*
X62103726Y-102540000D01*
G04 #@! TO.N,Net-(D20-Pad1)*
X124281087Y-138135706D02*
X125000660Y-137416133D01*
X122916793Y-139500000D02*
X124281087Y-138135706D01*
X112000000Y-139500000D02*
X122916793Y-139500000D01*
X107620000Y-135120000D02*
X112000000Y-139500000D01*
G04 #@! TO.N,Net-(D19-Pad1)*
X105080000Y-136109949D02*
X110544630Y-141574579D01*
X105080000Y-135120000D02*
X105080000Y-136109949D01*
X110544630Y-141574579D02*
X116146601Y-141574579D01*
X116146601Y-141574579D02*
X117220754Y-141574579D01*
G04 #@! TO.N,Net-(BT1-Pad1)*
X113900000Y-70370000D02*
X113770000Y-70500000D01*
X113900000Y-63500000D02*
X113900000Y-70370000D01*
X114000000Y-63400000D02*
X113900000Y-63500000D01*
X111400000Y-61000000D02*
X113900000Y-63500000D01*
X108500000Y-61000000D02*
X111400000Y-61000000D01*
G04 #@! TO.N,Net-(U2-Pad9)*
X83419999Y-104280001D02*
X82620000Y-105080000D01*
X83870001Y-103829999D02*
X83419999Y-104280001D01*
X83870001Y-84270001D02*
X83870001Y-103829999D01*
X82220000Y-82620000D02*
X83870001Y-84270001D01*
G04 #@! TO.N,Net-(U2-Pad11)*
X118179999Y-88099999D02*
X117380000Y-87300000D01*
X112700000Y-117380000D02*
X115000000Y-115080000D01*
X115000000Y-115080000D02*
X115000000Y-92909998D01*
X118630001Y-88550001D02*
X118179999Y-88099999D01*
X115000000Y-92909998D02*
X116819997Y-91090001D01*
X116819997Y-91090001D02*
X117980001Y-91090001D01*
X117980001Y-91090001D02*
X118630001Y-90440001D01*
X118630001Y-90440001D02*
X118630001Y-88550001D01*
X111900001Y-118179999D02*
X112700000Y-117380000D01*
X111449999Y-118630001D02*
X111900001Y-118179999D01*
X107090002Y-115000000D02*
X108909999Y-116819997D01*
X108909999Y-116819997D02*
X108909999Y-117980001D01*
X82620000Y-112700000D02*
X84920000Y-115000000D01*
X108909999Y-117980001D02*
X109559999Y-118630001D01*
X109559999Y-118630001D02*
X111449999Y-118630001D01*
X84920000Y-115000000D02*
X107090002Y-115000000D01*
X81000000Y-111080000D02*
X82620000Y-112700000D01*
X81000000Y-109500000D02*
X81000000Y-111080000D01*
X83590001Y-108909999D02*
X81590001Y-108909999D01*
X85000000Y-107500000D02*
X83590001Y-108909999D01*
X81590001Y-108909999D02*
X81000000Y-109500000D01*
X87300000Y-82620000D02*
X85000000Y-84920000D01*
X85000000Y-84920000D02*
X85000000Y-107500000D01*
X101080000Y-86248630D02*
X99531380Y-84700010D01*
X101080000Y-87380000D02*
X101080000Y-86248630D01*
X88099999Y-81820001D02*
X87300000Y-82620000D01*
X88550001Y-81369999D02*
X88099999Y-81820001D01*
X90440001Y-81369999D02*
X88550001Y-81369999D01*
X91090001Y-82019999D02*
X90440001Y-81369999D01*
X91090001Y-83180003D02*
X91090001Y-82019999D01*
X92610008Y-84700010D02*
X91090001Y-83180003D01*
X99531380Y-84700010D02*
X92610008Y-84700010D01*
G04 #@! TO.N,Net-(R10-Pad1)*
X75000000Y-100040000D02*
X72500000Y-102540000D01*
X75000000Y-100000000D02*
X75000000Y-100040000D01*
G04 #@! TO.N,Net-(D4-Pad1)*
X88000000Y-60500000D02*
X77083207Y-60500000D01*
X75718913Y-61864294D02*
X74999340Y-62583867D01*
X77083207Y-60500000D02*
X75718913Y-61864294D01*
X92380000Y-64880000D02*
X88000000Y-60500000D01*
G04 #@! TO.N,Net-(R4-Pad1)*
X94920000Y-75000000D02*
X94880000Y-75000000D01*
X94880000Y-75000000D02*
X92380000Y-72500000D01*
G04 #@! TO.N,Net-(D17-Pad1)*
X100000000Y-135120000D02*
X100000000Y-145000000D01*
G04 #@! TO.N,Net-(D16-Pad1)*
X88635337Y-144135337D02*
X91220935Y-144135337D01*
X64880000Y-117780000D02*
X64880000Y-120380000D01*
X64880000Y-120380000D02*
X88635337Y-144135337D01*
G04 #@! TO.N,Net-(R16-Pad1)*
X75000000Y-115280000D02*
X72500000Y-117780000D01*
X75000000Y-115240000D02*
X75000000Y-115280000D01*
G04 #@! TO.N,Net-(R15-Pad1)*
X75000000Y-112740000D02*
X72500000Y-115240000D01*
X75000000Y-112700000D02*
X75000000Y-112740000D01*
G04 #@! TO.N,Net-(D15-Pad1)*
X63500000Y-116620000D02*
X64880000Y-115240000D01*
X63500000Y-120500000D02*
X63500000Y-116620000D01*
X82787000Y-139787000D02*
X63500000Y-120500000D01*
X82787000Y-141566823D02*
X82787000Y-139787000D01*
X82779245Y-141574578D02*
X82787000Y-141566823D01*
G04 #@! TO.N,Net-(R14-Pad1)*
X75000000Y-110200000D02*
X72500000Y-112700000D01*
X75000000Y-110160000D02*
X75000000Y-110200000D01*
G04 #@! TO.N,Net-(R13-Pad1)*
X75000000Y-107660000D02*
X72500000Y-110160000D01*
X75000000Y-107620000D02*
X75000000Y-107660000D01*
G04 #@! TO.N,Net-(D12-Pad1)*
X61864294Y-124281087D02*
X62583867Y-125000660D01*
X60500000Y-122916793D02*
X61864294Y-124281087D01*
X64880000Y-107620000D02*
X60500000Y-112000000D01*
X60500000Y-112000000D02*
X60500000Y-122916793D01*
G04 #@! TO.N,Net-(R12-Pad1)*
X75000000Y-105120000D02*
X72500000Y-107620000D01*
X75000000Y-105080000D02*
X75000000Y-105120000D01*
G04 #@! TO.N,Net-(R11-Pad1)*
X75000000Y-102580000D02*
X72500000Y-105080000D01*
X75000000Y-102540000D02*
X75000000Y-102580000D01*
G04 #@! TO.N,Net-(R19-Pad1)*
X102580000Y-125000000D02*
X105080000Y-127500000D01*
X102540000Y-125000000D02*
X102580000Y-125000000D01*
G04 #@! TO.N,Net-(D8-Pad1)*
X79620000Y-64880000D02*
X55864663Y-88635337D01*
X82220000Y-64880000D02*
X79620000Y-64880000D01*
X55864663Y-88635337D02*
X55864663Y-91220935D01*
G04 #@! TO.N,Net-(R8-Pad1)*
X84720000Y-75000000D02*
X82220000Y-72500000D01*
X84760000Y-75000000D02*
X84720000Y-75000000D01*
G04 #@! TO.N,Net-(R7-Pad1)*
X87300000Y-75000000D02*
X87260000Y-75000000D01*
X87260000Y-75000000D02*
X84760000Y-72500000D01*
G04 #@! TO.N,Net-(D7-Pad1)*
X83380000Y-63500000D02*
X84760000Y-64880000D01*
X79500000Y-63500000D02*
X83380000Y-63500000D01*
X58433177Y-82787000D02*
X60213000Y-82787000D01*
X60213000Y-82787000D02*
X79500000Y-63500000D01*
G04 #@! TO.N,Net-(D6-Pad1)*
X84920000Y-62500000D02*
X79000000Y-62500000D01*
X79000000Y-62500000D02*
X66500661Y-74999339D01*
X87300000Y-64880000D02*
X84920000Y-62500000D01*
X66500661Y-74999339D02*
X63766289Y-74999339D01*
X63766289Y-74999339D02*
X62583868Y-74999339D01*
G04 #@! TO.N,Net-(R6-Pad1)*
X89800000Y-75000000D02*
X87300000Y-72500000D01*
X89840000Y-75000000D02*
X89800000Y-75000000D01*
G04 #@! TO.N,Net-(R5-Pad1)*
X92380000Y-75000000D02*
X92340000Y-75000000D01*
X92340000Y-75000000D02*
X89840000Y-72500000D01*
G04 #@! TO.N,Net-(D5-Pad1)*
X69552987Y-68180194D02*
X68180195Y-68180194D01*
X71819806Y-68180194D02*
X69552987Y-68180194D01*
X86460000Y-61500000D02*
X78500000Y-61500000D01*
X89840000Y-64880000D02*
X86460000Y-61500000D01*
X78500000Y-61500000D02*
X71819806Y-68180194D01*
G04 #@! TO.N,Net-(D3-Pad1)*
X94920000Y-63890051D02*
X89455370Y-58425421D01*
X94920000Y-64880000D02*
X94920000Y-63890051D01*
X89455370Y-58425421D02*
X83853399Y-58425421D01*
X83853399Y-58425421D02*
X82779246Y-58425421D01*
G04 #@! TO.N,Net-(R3-Pad1)*
X97460000Y-75000000D02*
X97420000Y-75000000D01*
X97420000Y-75000000D02*
X94920000Y-72500000D01*
G04 #@! TO.N,Net-(R27-Pad1)*
X125000000Y-97420000D02*
X127500000Y-94920000D01*
X125000000Y-97460000D02*
X125000000Y-97420000D01*
G04 #@! TO.N,Net-(D27-Pad1)*
X136109949Y-94920000D02*
X141574579Y-89455370D01*
X135120000Y-94920000D02*
X136109949Y-94920000D01*
X141574579Y-89455370D02*
X141574579Y-83853399D01*
X141574579Y-83853399D02*
X141574579Y-82779246D01*
G04 #@! TO.N,Net-(D21-Pad1)*
X121500000Y-138500000D02*
X128180194Y-131819806D01*
X128180194Y-131819806D02*
X130447013Y-131819806D01*
X110160000Y-135120000D02*
X113540000Y-138500000D01*
X130447013Y-131819806D02*
X131819805Y-131819806D01*
X113540000Y-138500000D02*
X121500000Y-138500000D01*
G04 #@! TO.N,Net-(R21-Pad1)*
X107660000Y-125000000D02*
X110160000Y-127500000D01*
X107620000Y-125000000D02*
X107660000Y-125000000D01*
G04 #@! TO.N,Net-(R2-Pad1)*
X100000000Y-75000000D02*
X99960000Y-75000000D01*
X99960000Y-75000000D02*
X97460000Y-72500000D01*
G04 #@! TO.N,Net-(R20-Pad1)*
X105080000Y-125000000D02*
X105120000Y-125000000D01*
X105120000Y-125000000D02*
X107620000Y-127500000D01*
G04 #@! TO.N,Net-(R32-Pad1)*
X125000000Y-84760000D02*
X125000000Y-84720000D01*
X125000000Y-84720000D02*
X127500000Y-82220000D01*
G04 #@! TO.N,Net-(D32-Pad1)*
X135120000Y-82220000D02*
X135120000Y-79620000D01*
X111364663Y-55864663D02*
X108779065Y-55864663D01*
X135120000Y-79620000D02*
X111364663Y-55864663D01*
G04 #@! TO.N,Net-(D31-Pad1)*
X136500000Y-79500000D02*
X136500000Y-83380000D01*
X136500000Y-83380000D02*
X135120000Y-84760000D01*
X117213000Y-58433177D02*
X117213000Y-60213000D01*
X117213000Y-60213000D02*
X136500000Y-79500000D01*
G04 #@! TO.N,Net-(R31-Pad1)*
X125000000Y-87300000D02*
X125000000Y-87260000D01*
X125000000Y-87260000D02*
X127500000Y-84760000D01*
G04 #@! TO.N,Net-(R30-Pad1)*
X125000000Y-89800000D02*
X127500000Y-87300000D01*
X125000000Y-89840000D02*
X125000000Y-89800000D01*
G04 #@! TO.N,Net-(D30-Pad1)*
X137500000Y-84920000D02*
X137500000Y-79000000D01*
X137500000Y-79000000D02*
X125000661Y-66500661D01*
X125000661Y-66500661D02*
X125000661Y-63766289D01*
X125000661Y-63766289D02*
X125000661Y-62583868D01*
X135120000Y-87300000D02*
X137500000Y-84920000D01*
G04 #@! TO.N,Net-(D29-Pad1)*
X135120000Y-89840000D02*
X138500000Y-86460000D01*
X138500000Y-86460000D02*
X138500000Y-78500000D01*
X131819806Y-69552987D02*
X131819806Y-68180195D01*
X138500000Y-78500000D02*
X131819806Y-71819806D01*
X131819806Y-71819806D02*
X131819806Y-69552987D01*
G04 #@! TO.N,Net-(R29-Pad1)*
X125000000Y-92340000D02*
X127500000Y-89840000D01*
X125000000Y-92380000D02*
X125000000Y-92340000D01*
G04 #@! TO.N,Net-(R28-Pad1)*
X125000000Y-94920000D02*
X125000000Y-94880000D01*
X125000000Y-94880000D02*
X127500000Y-92380000D01*
G04 #@! TO.N,Net-(D28-Pad1)*
X135120000Y-92380000D02*
X139500000Y-88000000D01*
X139500000Y-88000000D02*
X139500000Y-77083207D01*
X138135706Y-75718913D02*
X137416133Y-74999340D01*
X139500000Y-77083207D02*
X138135706Y-75718913D01*
G04 #@! TO.N,Net-(D18-Pad1)*
X102540000Y-137896274D02*
X108779064Y-144135338D01*
X102540000Y-135120000D02*
X102540000Y-137896274D01*
G04 #@! TO.N,Net-(R18-Pad1)*
X100040000Y-125000000D02*
X102540000Y-127500000D01*
X100000000Y-125000000D02*
X100040000Y-125000000D01*
G04 #@! TO.N,Net-(R26-Pad1)*
X125000000Y-99960000D02*
X127500000Y-97460000D01*
X125000000Y-100000000D02*
X125000000Y-99960000D01*
G04 #@! TO.N,Net-(D26-Pad1)*
X135120000Y-97460000D02*
X137896274Y-97460000D01*
X137896274Y-97460000D02*
X144135338Y-91220936D01*
G04 #@! TO.N,Net-(D25-Pad1)*
X135120000Y-100000000D02*
X145000000Y-100000000D01*
G04 #@! TO.N,Net-(R24-Pad1)*
X115280000Y-125000000D02*
X117780000Y-127500000D01*
X115240000Y-125000000D02*
X115280000Y-125000000D01*
G04 #@! TO.N,Net-(D24-Pad1)*
X120380000Y-135120000D02*
X144135337Y-111364663D01*
X117780000Y-135120000D02*
X120380000Y-135120000D01*
X144135337Y-111364663D02*
X144135337Y-108779065D01*
G04 #@! TO.N,Net-(D23-Pad1)*
X116620000Y-136500000D02*
X115240000Y-135120000D01*
X141566823Y-117213000D02*
X139787000Y-117213000D01*
X139787000Y-117213000D02*
X120500000Y-136500000D01*
X120500000Y-136500000D02*
X116620000Y-136500000D01*
G04 #@! TO.N,Net-(R23-Pad1)*
X112740000Y-125000000D02*
X115240000Y-127500000D01*
X112700000Y-125000000D02*
X112740000Y-125000000D01*
G04 #@! TO.N,Net-(R22-Pad1)*
X110160000Y-125000000D02*
X110200000Y-125000000D01*
X110200000Y-125000000D02*
X112700000Y-127500000D01*
G04 #@! TO.N,Net-(D22-Pad1)*
X136233711Y-125000661D02*
X137416132Y-125000661D01*
X112700000Y-135120000D02*
X115080000Y-137500000D01*
X121000000Y-137500000D02*
X133499339Y-125000661D01*
X133499339Y-125000661D02*
X136233711Y-125000661D01*
X115080000Y-137500000D02*
X121000000Y-137500000D01*
G04 #@! TO.N,Net-(D9-Pad1)*
X64880000Y-100000000D02*
X55000000Y-100000000D01*
D25*
G04 #@! TO.N,+3V3*
X115400000Y-70140000D02*
X115040000Y-70500000D01*
X115400000Y-66000000D02*
X115400000Y-70140000D01*
X109274593Y-53373467D02*
X118192770Y-56078767D01*
X118192770Y-56078767D02*
X126411808Y-60471934D01*
X126411808Y-60471934D02*
X133615856Y-66384143D01*
X133615856Y-66384143D02*
X139528065Y-73588191D01*
X139528065Y-73588191D02*
X143921232Y-81807229D01*
X143921232Y-81807229D02*
X146626532Y-90725406D01*
X146626532Y-90725406D02*
X147540000Y-100000000D01*
X146626532Y-109274593D02*
X143921232Y-118192770D01*
X143921232Y-118192770D02*
X139528065Y-126411808D01*
X139528065Y-126411808D02*
X133615856Y-133615856D01*
X133615856Y-133615856D02*
X126411808Y-139528065D01*
X126411808Y-139528065D02*
X118192770Y-143921232D01*
X118192770Y-143921232D02*
X109274593Y-146626532D01*
X109274593Y-146626532D02*
X100000000Y-147540000D01*
X90725406Y-146626532D02*
X81807229Y-143921232D01*
X81807229Y-143921232D02*
X73588191Y-139528065D01*
X73588191Y-139528065D02*
X66384143Y-133615856D01*
X66384143Y-133615856D02*
X60471934Y-126411808D01*
X60471934Y-126411808D02*
X56078767Y-118192770D01*
X56078767Y-118192770D02*
X53373467Y-109274593D01*
X53373467Y-109274593D02*
X52460000Y-100000000D01*
X53373467Y-90725406D02*
X56078767Y-81807229D01*
X56078767Y-81807229D02*
X60471934Y-73588191D01*
X60471934Y-73588191D02*
X66384143Y-66384143D01*
X66384143Y-66384143D02*
X73588191Y-60471934D01*
X73588191Y-60471934D02*
X81807229Y-56078767D01*
X81807229Y-56078767D02*
X90725406Y-53373467D01*
X90725406Y-53373467D02*
X100000000Y-52460000D01*
X103000000Y-52755473D02*
X109274593Y-53373467D01*
X100000000Y-52460000D02*
X103000000Y-52755473D01*
X103000000Y-70500000D02*
X103000000Y-52755473D01*
X105500000Y-73000000D02*
X103000000Y-70500000D01*
X107373872Y-73000000D02*
X105500000Y-73000000D01*
X115040000Y-70500000D02*
X115040000Y-70833872D01*
X52952457Y-95000000D02*
X53373467Y-90725406D01*
X52460000Y-100000000D02*
X52952457Y-95000000D01*
X82500000Y-99880000D02*
X82620000Y-100000000D01*
X147047542Y-105000000D02*
X146626532Y-109274593D01*
X147540000Y-100000000D02*
X147047542Y-105000000D01*
X97620000Y-89000000D02*
X96000000Y-87380000D01*
X113790000Y-73000000D02*
X107373872Y-73000000D01*
X115040000Y-71750000D02*
X113790000Y-73000000D01*
X115040000Y-70500000D02*
X115040000Y-71750000D01*
X81369999Y-116490001D02*
X82620000Y-115240000D01*
X81119999Y-116740001D02*
X81369999Y-116490001D01*
X81119999Y-118500001D02*
X81119999Y-116740001D01*
X82119998Y-119500000D02*
X81119999Y-118500001D01*
X118500000Y-119000000D02*
X119500000Y-118000000D01*
X115240000Y-117380000D02*
X116860000Y-119000000D01*
X116860000Y-119000000D02*
X118500000Y-119000000D01*
X80299990Y-102320010D02*
X82620000Y-100000000D01*
X80000000Y-102620000D02*
X80299990Y-102320010D01*
X82620000Y-115240000D02*
X80000000Y-112620000D01*
X80000000Y-112620000D02*
X80000000Y-102620000D01*
X100799999Y-118179999D02*
X100000000Y-117380000D01*
X102620000Y-120000000D02*
X100799999Y-118179999D01*
X115240000Y-117380000D02*
X112620000Y-120000000D01*
X112620000Y-120000000D02*
X102620000Y-120000000D01*
X99200001Y-81820001D02*
X100000000Y-82620000D01*
X97380000Y-80000000D02*
X99200001Y-81820001D01*
X84760000Y-82620000D02*
X87380000Y-80000000D01*
X87380000Y-80000000D02*
X97380000Y-80000000D01*
X119330011Y-98049989D02*
X117380000Y-100000000D01*
X120000000Y-97380000D02*
X119330011Y-98049989D01*
X117380000Y-84760000D02*
X120000000Y-87380000D01*
X120000000Y-87380000D02*
X120000000Y-97380000D01*
X106500000Y-87416484D02*
X106500000Y-90000000D01*
X98470000Y-89850000D02*
X97620000Y-89000000D01*
X106500000Y-89850000D02*
X98470000Y-89850000D01*
X103720000Y-82620000D02*
X103750000Y-82650000D01*
X100000000Y-82620000D02*
X103720000Y-82620000D01*
X106500000Y-84425000D02*
X106500000Y-87416484D01*
X104725000Y-82650000D02*
X106500000Y-84425000D01*
X103750000Y-82650000D02*
X104725000Y-82650000D01*
X105500000Y-81875000D02*
X104725000Y-82650000D01*
X105500000Y-73000000D02*
X105500000Y-81875000D01*
X82400000Y-99780000D02*
X82620000Y-100000000D01*
X82400000Y-96250000D02*
X82400000Y-99780000D01*
X83509999Y-81369999D02*
X84760000Y-82620000D01*
X82400000Y-85150000D02*
X80500000Y-83250000D01*
X82400000Y-96250000D02*
X82400000Y-85150000D01*
X80500000Y-83250000D02*
X80500000Y-82000000D01*
X80500000Y-82000000D02*
X81500000Y-81000000D01*
X81500000Y-81000000D02*
X83140000Y-81000000D01*
X83140000Y-81000000D02*
X83509999Y-81369999D01*
X99780000Y-117600000D02*
X100000000Y-117380000D01*
X96250000Y-117600000D02*
X99780000Y-117600000D01*
X96250000Y-117600000D02*
X85150000Y-117600000D01*
X83250000Y-119500000D02*
X82119998Y-119500000D01*
X85150000Y-117600000D02*
X83250000Y-119500000D01*
X117600000Y-103750000D02*
X117600000Y-114600000D01*
X119500000Y-116500000D02*
X119500000Y-118000000D01*
X117600000Y-114600000D02*
X119500000Y-116500000D01*
X117600000Y-100220000D02*
X117380000Y-100000000D01*
X117600000Y-103750000D02*
X117600000Y-100220000D01*
D24*
X96000000Y-87380000D02*
X93000000Y-87380000D01*
D25*
X95000000Y-147047542D02*
X90725406Y-146626532D01*
X100000000Y-147540000D02*
X95000000Y-147047542D01*
D24*
G04 #@! TO.N,Net-(U2-Pad12)*
X110160000Y-116248630D02*
X110160000Y-117380000D01*
X107911370Y-114000000D02*
X110160000Y-116248630D01*
X110160000Y-116248630D02*
X114000000Y-112408630D01*
X116248630Y-89840000D02*
X117380000Y-89840000D01*
X114000000Y-92088630D02*
X116248630Y-89840000D01*
X114000000Y-112408630D02*
X114000000Y-92088630D01*
X82620000Y-110160000D02*
X83751370Y-110160000D01*
X87591370Y-114000000D02*
X88000000Y-114000000D01*
X83751370Y-110160000D02*
X87591370Y-114000000D01*
X88000000Y-114000000D02*
X107911370Y-114000000D01*
X83751370Y-110160000D02*
X86000000Y-107911370D01*
X89840000Y-83751370D02*
X89840000Y-82620000D01*
X91488650Y-85400020D02*
X89840000Y-83751370D01*
X97691390Y-85400020D02*
X91488650Y-85400020D01*
X98540000Y-86248630D02*
X97691390Y-85400020D01*
X98540000Y-87380000D02*
X98540000Y-86248630D01*
X89840000Y-83751370D02*
X86000000Y-87591370D01*
X86000000Y-87591370D02*
X86000000Y-107911370D01*
G04 #@! TO.N,Net-(U2-Pad14)*
X95719999Y-83419999D02*
X94920000Y-82620000D01*
X96300000Y-84000000D02*
X95719999Y-83419999D01*
X101740000Y-84000000D02*
X96300000Y-84000000D01*
X103620000Y-85880000D02*
X101740000Y-84000000D01*
X103620000Y-87380000D02*
X103620000Y-85880000D01*
G04 #@! TO.N,Net-(U4-Pad9)*
X116580001Y-95719999D02*
X117380000Y-94920000D01*
X116129999Y-96170001D02*
X116580001Y-95719999D01*
X116129999Y-115629999D02*
X116129999Y-96170001D01*
X117780000Y-117380000D02*
X117780000Y-117280000D01*
X117780000Y-117280000D02*
X116129999Y-115629999D01*
G04 #@! TO.N,Net-(U3-Pad9)*
X104280001Y-116580001D02*
X105080000Y-117380000D01*
X103829999Y-116129999D02*
X104280001Y-116580001D01*
X84270001Y-116129999D02*
X103829999Y-116129999D01*
X82620000Y-117780000D02*
X84270001Y-116129999D01*
G04 #@! TO.N,Net-(R33-Pad1)*
X96000000Y-97000000D02*
X96750000Y-97750000D01*
X96000000Y-95000000D02*
X96000000Y-97000000D01*
X96750000Y-97750000D02*
X103250000Y-97750000D01*
X93000000Y-95000000D02*
X96000000Y-95000000D01*
G04 #@! TD*
M02*
