G04 #@! TF.GenerationSoftware,KiCad,Pcbnew,(5.0.2)-1*
G04 #@! TF.CreationDate,2020-02-14T16:26:47+00:00*
G04 #@! TF.ProjectId,teatime,74656174-696d-4652-9e6b-696361645f70,rev?*
G04 #@! TF.SameCoordinates,Original*
G04 #@! TF.FileFunction,Legend,Top*
G04 #@! TF.FilePolarity,Positive*
%FSLAX46Y46*%
G04 Gerber Fmt 4.6, Leading zero omitted, Abs format (unit mm)*
G04 Created by KiCad (PCBNEW (5.0.2)-1) date 14/02/2020 16:26:47*
%MOMM*%
%LPD*%
G01*
G04 APERTURE LIST*
%ADD10C,0.200000*%
%ADD11C,0.120000*%
%ADD12C,0.150000*%
G04 APERTURE END LIST*
D10*
X80950000Y-64880000D02*
X80950000Y-62975000D01*
X93020000Y-62975000D02*
X101270000Y-62975000D01*
X80950000Y-62975000D02*
X89205000Y-62975000D01*
X101270000Y-62975000D02*
X101270000Y-64880000D01*
X137025000Y-93020000D02*
X137025000Y-101270000D01*
X137025000Y-80950000D02*
X137025000Y-89205000D01*
X137025000Y-101270000D02*
X135120000Y-101270000D01*
X135120000Y-80950000D02*
X137025000Y-80950000D01*
X106980000Y-137025000D02*
X98730000Y-137025000D01*
X98730000Y-137025000D02*
X98730000Y-135120000D01*
X119050000Y-135120000D02*
X119050000Y-137025000D01*
X119050000Y-137025000D02*
X110795000Y-137025000D01*
X62975000Y-106980000D02*
X62975000Y-98730000D01*
X62975000Y-119050000D02*
X62975000Y-110795000D01*
X64880000Y-119050000D02*
X62975000Y-119050000D01*
X62975000Y-98730000D02*
X64880000Y-98730000D01*
D11*
G04 #@! TO.C,R22*
X113620000Y-129390000D02*
X111780000Y-129390000D01*
X111780000Y-129390000D02*
X111780000Y-133230000D01*
X111780000Y-133230000D02*
X113620000Y-133230000D01*
X113620000Y-133230000D02*
X113620000Y-129390000D01*
X112700000Y-128440000D02*
X112700000Y-129390000D01*
X112700000Y-134180000D02*
X112700000Y-133230000D01*
G04 #@! TO.C,R24*
X117780000Y-134180000D02*
X117780000Y-133230000D01*
X117780000Y-128440000D02*
X117780000Y-129390000D01*
X118700000Y-133230000D02*
X118700000Y-129390000D01*
X116860000Y-133230000D02*
X118700000Y-133230000D01*
X116860000Y-129390000D02*
X116860000Y-133230000D01*
X118700000Y-129390000D02*
X116860000Y-129390000D01*
G04 #@! TO.C,R25*
X129390000Y-99080000D02*
X129390000Y-100920000D01*
X129390000Y-100920000D02*
X133230000Y-100920000D01*
X133230000Y-100920000D02*
X133230000Y-99080000D01*
X133230000Y-99080000D02*
X129390000Y-99080000D01*
X128440000Y-100000000D02*
X129390000Y-100000000D01*
X134180000Y-100000000D02*
X133230000Y-100000000D01*
G04 #@! TO.C,R26*
X134180000Y-97460000D02*
X133230000Y-97460000D01*
X128440000Y-97460000D02*
X129390000Y-97460000D01*
X133230000Y-96540000D02*
X129390000Y-96540000D01*
X133230000Y-98380000D02*
X133230000Y-96540000D01*
X129390000Y-98380000D02*
X133230000Y-98380000D01*
X129390000Y-96540000D02*
X129390000Y-98380000D01*
G04 #@! TO.C,R27*
X129390000Y-94000000D02*
X129390000Y-95840000D01*
X129390000Y-95840000D02*
X133230000Y-95840000D01*
X133230000Y-95840000D02*
X133230000Y-94000000D01*
X133230000Y-94000000D02*
X129390000Y-94000000D01*
X128440000Y-94920000D02*
X129390000Y-94920000D01*
X134180000Y-94920000D02*
X133230000Y-94920000D01*
G04 #@! TO.C,R28*
X134180000Y-92380000D02*
X133230000Y-92380000D01*
X128440000Y-92380000D02*
X129390000Y-92380000D01*
X133230000Y-91460000D02*
X129390000Y-91460000D01*
X133230000Y-93300000D02*
X133230000Y-91460000D01*
X129390000Y-93300000D02*
X133230000Y-93300000D01*
X129390000Y-91460000D02*
X129390000Y-93300000D01*
G04 #@! TO.C,R29*
X129390000Y-88920000D02*
X129390000Y-90760000D01*
X129390000Y-90760000D02*
X133230000Y-90760000D01*
X133230000Y-90760000D02*
X133230000Y-88920000D01*
X133230000Y-88920000D02*
X129390000Y-88920000D01*
X128440000Y-89840000D02*
X129390000Y-89840000D01*
X134180000Y-89840000D02*
X133230000Y-89840000D01*
G04 #@! TO.C,R30*
X134180000Y-87300000D02*
X133230000Y-87300000D01*
X128440000Y-87300000D02*
X129390000Y-87300000D01*
X133230000Y-86380000D02*
X129390000Y-86380000D01*
X133230000Y-88220000D02*
X133230000Y-86380000D01*
X129390000Y-88220000D02*
X133230000Y-88220000D01*
X129390000Y-86380000D02*
X129390000Y-88220000D01*
G04 #@! TO.C,R31*
X129390000Y-83840000D02*
X129390000Y-85680000D01*
X129390000Y-85680000D02*
X133230000Y-85680000D01*
X133230000Y-85680000D02*
X133230000Y-83840000D01*
X133230000Y-83840000D02*
X129390000Y-83840000D01*
X128440000Y-84760000D02*
X129390000Y-84760000D01*
X134180000Y-84760000D02*
X133230000Y-84760000D01*
G04 #@! TO.C,R32*
X134180000Y-82220000D02*
X133230000Y-82220000D01*
X128440000Y-82220000D02*
X129390000Y-82220000D01*
X133230000Y-81300000D02*
X129390000Y-81300000D01*
X133230000Y-83140000D02*
X133230000Y-81300000D01*
X129390000Y-83140000D02*
X133230000Y-83140000D01*
X129390000Y-81300000D02*
X129390000Y-83140000D01*
G04 #@! TO.C,R17*
X100920000Y-129390000D02*
X99080000Y-129390000D01*
X99080000Y-129390000D02*
X99080000Y-133230000D01*
X99080000Y-133230000D02*
X100920000Y-133230000D01*
X100920000Y-133230000D02*
X100920000Y-129390000D01*
X100000000Y-128440000D02*
X100000000Y-129390000D01*
X100000000Y-134180000D02*
X100000000Y-133230000D01*
G04 #@! TO.C,R4*
X92380000Y-65820000D02*
X92380000Y-66770000D01*
X92380000Y-71560000D02*
X92380000Y-70610000D01*
X91460000Y-66770000D02*
X91460000Y-70610000D01*
X93300000Y-66770000D02*
X91460000Y-66770000D01*
X93300000Y-70610000D02*
X93300000Y-66770000D01*
X91460000Y-70610000D02*
X93300000Y-70610000D01*
G04 #@! TO.C,R2*
X96540000Y-70610000D02*
X98380000Y-70610000D01*
X98380000Y-70610000D02*
X98380000Y-66770000D01*
X98380000Y-66770000D02*
X96540000Y-66770000D01*
X96540000Y-66770000D02*
X96540000Y-70610000D01*
X97460000Y-71560000D02*
X97460000Y-70610000D01*
X97460000Y-65820000D02*
X97460000Y-66770000D01*
G04 #@! TO.C,R1*
X100000000Y-65820000D02*
X100000000Y-66770000D01*
X100000000Y-71560000D02*
X100000000Y-70610000D01*
X99080000Y-66770000D02*
X99080000Y-70610000D01*
X100920000Y-66770000D02*
X99080000Y-66770000D01*
X100920000Y-70610000D02*
X100920000Y-66770000D01*
X99080000Y-70610000D02*
X100920000Y-70610000D01*
G04 #@! TO.C,R3*
X94000000Y-70610000D02*
X95840000Y-70610000D01*
X95840000Y-70610000D02*
X95840000Y-66770000D01*
X95840000Y-66770000D02*
X94000000Y-66770000D01*
X94000000Y-66770000D02*
X94000000Y-70610000D01*
X94920000Y-71560000D02*
X94920000Y-70610000D01*
X94920000Y-65820000D02*
X94920000Y-66770000D01*
G04 #@! TO.C,R23*
X115240000Y-134180000D02*
X115240000Y-133230000D01*
X115240000Y-128440000D02*
X115240000Y-129390000D01*
X116160000Y-133230000D02*
X116160000Y-129390000D01*
X114320000Y-133230000D02*
X116160000Y-133230000D01*
X114320000Y-129390000D02*
X114320000Y-133230000D01*
X116160000Y-129390000D02*
X114320000Y-129390000D01*
G04 #@! TO.C,R33*
X92080000Y-93110000D02*
X93920000Y-93110000D01*
X93920000Y-93110000D02*
X93920000Y-89270000D01*
X93920000Y-89270000D02*
X92080000Y-89270000D01*
X92080000Y-89270000D02*
X92080000Y-93110000D01*
X93000000Y-94060000D02*
X93000000Y-93110000D01*
X93000000Y-88320000D02*
X93000000Y-89270000D01*
G04 #@! TO.C,R7*
X84760000Y-65820000D02*
X84760000Y-66770000D01*
X84760000Y-71560000D02*
X84760000Y-70610000D01*
X83840000Y-66770000D02*
X83840000Y-70610000D01*
X85680000Y-66770000D02*
X83840000Y-66770000D01*
X85680000Y-70610000D02*
X85680000Y-66770000D01*
X83840000Y-70610000D02*
X85680000Y-70610000D01*
G04 #@! TO.C,R8*
X81300000Y-70610000D02*
X83140000Y-70610000D01*
X83140000Y-70610000D02*
X83140000Y-66770000D01*
X83140000Y-66770000D02*
X81300000Y-66770000D01*
X81300000Y-66770000D02*
X81300000Y-70610000D01*
X82220000Y-71560000D02*
X82220000Y-70610000D01*
X82220000Y-65820000D02*
X82220000Y-66770000D01*
G04 #@! TO.C,R9*
X65820000Y-100000000D02*
X66770000Y-100000000D01*
X71560000Y-100000000D02*
X70610000Y-100000000D01*
X66770000Y-100920000D02*
X70610000Y-100920000D01*
X66770000Y-99080000D02*
X66770000Y-100920000D01*
X70610000Y-99080000D02*
X66770000Y-99080000D01*
X70610000Y-100920000D02*
X70610000Y-99080000D01*
G04 #@! TO.C,R10*
X70610000Y-103460000D02*
X70610000Y-101620000D01*
X70610000Y-101620000D02*
X66770000Y-101620000D01*
X66770000Y-101620000D02*
X66770000Y-103460000D01*
X66770000Y-103460000D02*
X70610000Y-103460000D01*
X71560000Y-102540000D02*
X70610000Y-102540000D01*
X65820000Y-102540000D02*
X66770000Y-102540000D01*
G04 #@! TO.C,R11*
X65820000Y-105080000D02*
X66770000Y-105080000D01*
X71560000Y-105080000D02*
X70610000Y-105080000D01*
X66770000Y-106000000D02*
X70610000Y-106000000D01*
X66770000Y-104160000D02*
X66770000Y-106000000D01*
X70610000Y-104160000D02*
X66770000Y-104160000D01*
X70610000Y-106000000D02*
X70610000Y-104160000D01*
G04 #@! TO.C,R12*
X70610000Y-108540000D02*
X70610000Y-106700000D01*
X70610000Y-106700000D02*
X66770000Y-106700000D01*
X66770000Y-106700000D02*
X66770000Y-108540000D01*
X66770000Y-108540000D02*
X70610000Y-108540000D01*
X71560000Y-107620000D02*
X70610000Y-107620000D01*
X65820000Y-107620000D02*
X66770000Y-107620000D01*
G04 #@! TO.C,R13*
X65820000Y-110160000D02*
X66770000Y-110160000D01*
X71560000Y-110160000D02*
X70610000Y-110160000D01*
X66770000Y-111080000D02*
X70610000Y-111080000D01*
X66770000Y-109240000D02*
X66770000Y-111080000D01*
X70610000Y-109240000D02*
X66770000Y-109240000D01*
X70610000Y-111080000D02*
X70610000Y-109240000D01*
G04 #@! TO.C,R14*
X70610000Y-113620000D02*
X70610000Y-111780000D01*
X70610000Y-111780000D02*
X66770000Y-111780000D01*
X66770000Y-111780000D02*
X66770000Y-113620000D01*
X66770000Y-113620000D02*
X70610000Y-113620000D01*
X71560000Y-112700000D02*
X70610000Y-112700000D01*
X65820000Y-112700000D02*
X66770000Y-112700000D01*
G04 #@! TO.C,R15*
X65820000Y-115240000D02*
X66770000Y-115240000D01*
X71560000Y-115240000D02*
X70610000Y-115240000D01*
X66770000Y-116160000D02*
X70610000Y-116160000D01*
X66770000Y-114320000D02*
X66770000Y-116160000D01*
X70610000Y-114320000D02*
X66770000Y-114320000D01*
X70610000Y-116160000D02*
X70610000Y-114320000D01*
G04 #@! TO.C,R16*
X70610000Y-118700000D02*
X70610000Y-116860000D01*
X70610000Y-116860000D02*
X66770000Y-116860000D01*
X66770000Y-116860000D02*
X66770000Y-118700000D01*
X66770000Y-118700000D02*
X70610000Y-118700000D01*
X71560000Y-117780000D02*
X70610000Y-117780000D01*
X65820000Y-117780000D02*
X66770000Y-117780000D01*
G04 #@! TO.C,R6*
X87300000Y-65820000D02*
X87300000Y-66770000D01*
X87300000Y-71560000D02*
X87300000Y-70610000D01*
X86380000Y-66770000D02*
X86380000Y-70610000D01*
X88220000Y-66770000D02*
X86380000Y-66770000D01*
X88220000Y-70610000D02*
X88220000Y-66770000D01*
X86380000Y-70610000D02*
X88220000Y-70610000D01*
G04 #@! TO.C,R18*
X103460000Y-129390000D02*
X101620000Y-129390000D01*
X101620000Y-129390000D02*
X101620000Y-133230000D01*
X101620000Y-133230000D02*
X103460000Y-133230000D01*
X103460000Y-133230000D02*
X103460000Y-129390000D01*
X102540000Y-128440000D02*
X102540000Y-129390000D01*
X102540000Y-134180000D02*
X102540000Y-133230000D01*
G04 #@! TO.C,R20*
X107620000Y-134180000D02*
X107620000Y-133230000D01*
X107620000Y-128440000D02*
X107620000Y-129390000D01*
X108540000Y-133230000D02*
X108540000Y-129390000D01*
X106700000Y-133230000D02*
X108540000Y-133230000D01*
X106700000Y-129390000D02*
X106700000Y-133230000D01*
X108540000Y-129390000D02*
X106700000Y-129390000D01*
G04 #@! TO.C,R5*
X88920000Y-70610000D02*
X90760000Y-70610000D01*
X90760000Y-70610000D02*
X90760000Y-66770000D01*
X90760000Y-66770000D02*
X88920000Y-66770000D01*
X88920000Y-66770000D02*
X88920000Y-70610000D01*
X89840000Y-71560000D02*
X89840000Y-70610000D01*
X89840000Y-65820000D02*
X89840000Y-66770000D01*
G04 #@! TO.C,R19*
X105080000Y-134180000D02*
X105080000Y-133230000D01*
X105080000Y-128440000D02*
X105080000Y-129390000D01*
X106000000Y-133230000D02*
X106000000Y-129390000D01*
X104160000Y-133230000D02*
X106000000Y-133230000D01*
X104160000Y-129390000D02*
X104160000Y-133230000D01*
X106000000Y-129390000D02*
X104160000Y-129390000D01*
G04 #@! TO.C,R21*
X111080000Y-129390000D02*
X109240000Y-129390000D01*
X109240000Y-129390000D02*
X109240000Y-133230000D01*
X109240000Y-133230000D02*
X111080000Y-133230000D01*
X111080000Y-133230000D02*
X111080000Y-129390000D01*
X110160000Y-128440000D02*
X110160000Y-129390000D01*
X110160000Y-134180000D02*
X110160000Y-133230000D01*
G04 #@! TO.C,C4*
X104660000Y-81852064D02*
X104660000Y-80647936D01*
X102840000Y-81852064D02*
X102840000Y-80647936D01*
G04 #@! TO.C,C5*
X81602064Y-97160000D02*
X80397936Y-97160000D01*
X81602064Y-95340000D02*
X80397936Y-95340000D01*
G04 #@! TO.C,C6*
X95340000Y-118397936D02*
X95340000Y-119602064D01*
X97160000Y-118397936D02*
X97160000Y-119602064D01*
G04 #@! TO.C,C7*
X118397936Y-102840000D02*
X119602064Y-102840000D01*
X118397936Y-104660000D02*
X119602064Y-104660000D01*
G04 #@! TO.C,C3*
X105590000Y-90647936D02*
X105590000Y-91852064D01*
X107410000Y-90647936D02*
X107410000Y-91852064D01*
G04 #@! TO.C,U1*
X111370000Y-79500000D02*
X111370000Y-74310000D01*
X116170000Y-79500000D02*
X111370000Y-79500000D01*
X116170000Y-74310000D02*
X116170000Y-79500000D01*
X111370000Y-74310000D02*
X116170000Y-74310000D01*
X115040000Y-71520000D02*
X115040000Y-74310000D01*
X113770000Y-71520000D02*
X113770000Y-74310000D01*
X112500000Y-71520000D02*
X112500000Y-74310000D01*
X111865000Y-74310000D02*
X111865000Y-79517000D01*
X115675000Y-74310000D02*
X115675000Y-79517000D01*
X111611000Y-70500000D02*
X111230000Y-70119000D01*
X111230000Y-70119000D02*
X111230000Y-70881000D01*
X111230000Y-70881000D02*
X111611000Y-70500000D01*
G04 #@! TO.C,U6*
X94670000Y-88540000D02*
X94670000Y-90190000D01*
X104950000Y-88540000D02*
X94670000Y-88540000D01*
X104950000Y-93840000D02*
X104950000Y-88540000D01*
X94670000Y-93840000D02*
X104950000Y-93840000D01*
X94670000Y-92190000D02*
X94670000Y-93840000D01*
X94670000Y-90190000D02*
G75*
G02X94670000Y-92190000I0J-1000000D01*
G01*
G04 #@! TO.C,SW1*
X103500000Y-100750000D02*
X103500000Y-99250000D01*
X102250000Y-96750000D02*
X97750000Y-96750000D01*
X96500000Y-99250000D02*
X96500000Y-100750000D01*
X97750000Y-103250000D02*
X102250000Y-103250000D01*
G04 #@! TO.C,C1*
X113102064Y-62590000D02*
X111897936Y-62590000D01*
X113102064Y-64410000D02*
X111897936Y-64410000D01*
G04 #@! TO.C,C2*
X114602064Y-66910000D02*
X113397936Y-66910000D01*
X114602064Y-65090000D02*
X113397936Y-65090000D01*
G04 #@! TO.C,D17*
X101545000Y-143710000D02*
X98455000Y-143710000D01*
X102500000Y-146270000D02*
G75*
G03X102500000Y-146270000I-2500000J0D01*
G01*
X100000462Y-149260000D02*
G75*
G02X98455170Y-143710000I-462J2990000D01*
G01*
X99999538Y-149260000D02*
G75*
G03X101544830Y-143710000I462J2990000D01*
G01*
G04 #@! TO.C,D30*
X127367773Y-59042064D02*
G75*
G03X122999495Y-62798201I-1661539J-2485837D01*
G01*
X127367004Y-59041551D02*
G75*
G02X125568454Y-64514724I-1660770J-2486350D01*
G01*
X128206234Y-61527901D02*
G75*
G03X128206234Y-61527901I-2500000J0D01*
G01*
X122999354Y-62798107D02*
X125568595Y-64514819D01*
G04 #@! TO.C,D29*
X129815157Y-67999882D02*
X132000117Y-70184842D01*
X135217831Y-67282168D02*
G75*
G03X135217831Y-67282168I-2500000J0D01*
G01*
X134831755Y-65167592D02*
G75*
G02X131999997Y-70184722I-2113924J-2114576D01*
G01*
X134832407Y-65168244D02*
G75*
G03X129815277Y-68000002I-2114576J-2113924D01*
G01*
G04 #@! TO.C,D28*
X140958448Y-72632995D02*
G75*
G03X135485275Y-74431545I-2486350J-1660770D01*
G01*
X140957935Y-72632226D02*
G75*
G02X137201798Y-77000504I-2485837J-1661539D01*
G01*
X140972098Y-74293765D02*
G75*
G03X140972098Y-74293765I-2500000J0D01*
G01*
X135485180Y-74431404D02*
X137201892Y-77000645D01*
G04 #@! TO.C,D27*
X139791528Y-81845513D02*
X140974019Y-84700301D01*
X145247905Y-82293237D02*
G75*
G03X145247905Y-82293237I-2500000J0D01*
G01*
X145510128Y-81148587D02*
G75*
G02X140973954Y-84700143I-2762223J-1144650D01*
G01*
X145510480Y-81149440D02*
G75*
G03X139791593Y-81845670I-2762575J-1143797D01*
G01*
G04 #@! TO.C,D26*
X148313571Y-90390303D02*
G75*
G03X142568743Y-89957455I-2932637J-582867D01*
G01*
X148313392Y-90389397D02*
G75*
G02X143171505Y-92987748I-2932458J-583773D01*
G01*
X147880935Y-90973170D02*
G75*
G03X147880935Y-90973170I-2500001J0D01*
G01*
X142568709Y-89957288D02*
X143171539Y-92987915D01*
G04 #@! TO.C,D25*
X143710000Y-98455000D02*
X143710000Y-101545000D01*
X148770000Y-100000000D02*
G75*
G03X148770000Y-100000000I-2500000J0D01*
G01*
X149260000Y-99999538D02*
G75*
G02X143710000Y-101544830I-2990000J-462D01*
G01*
X149260000Y-100000462D02*
G75*
G03X143710000Y-98455170I-2990000J462D01*
G01*
G04 #@! TO.C,D24*
X148313392Y-109610602D02*
G75*
G03X143171505Y-107012251I-2932458J583773D01*
G01*
X148313571Y-109609696D02*
G75*
G02X142568743Y-110042544I-2932637J582867D01*
G01*
X147880935Y-109026829D02*
G75*
G03X147880935Y-109026829I-2500001J0D01*
G01*
X143171539Y-107012084D02*
X142568709Y-110042711D01*
G04 #@! TO.C,D23*
X140974019Y-115299698D02*
X139791528Y-118154486D01*
X145247905Y-117706762D02*
G75*
G03X145247905Y-117706762I-2500000J0D01*
G01*
X145510480Y-118850559D02*
G75*
G02X139791593Y-118154329I-2762575J1143797D01*
G01*
X145510128Y-118851412D02*
G75*
G03X140973954Y-115299856I-2762223J1144650D01*
G01*
G04 #@! TO.C,D22*
X140957935Y-127367773D02*
G75*
G03X137201798Y-122999495I-2485837J1661539D01*
G01*
X140958448Y-127367004D02*
G75*
G02X135485275Y-125568454I-2486350J1660770D01*
G01*
X140972098Y-125706234D02*
G75*
G03X140972098Y-125706234I-2500000J0D01*
G01*
X137201892Y-122999354D02*
X135485180Y-125568595D01*
G04 #@! TO.C,D21*
X132000117Y-129815157D02*
X129815157Y-132000117D01*
X135217831Y-132717831D02*
G75*
G03X135217831Y-132717831I-2500000J0D01*
G01*
X134832407Y-134831755D02*
G75*
G02X129815277Y-131999997I-2114576J2113924D01*
G01*
X134831755Y-134832407D02*
G75*
G03X131999997Y-129815277I-2113924J2114576D01*
G01*
G04 #@! TO.C,D20*
X127367004Y-140958448D02*
G75*
G03X125568454Y-135485275I-1660770J2486350D01*
G01*
X127367773Y-140957935D02*
G75*
G02X122999495Y-137201798I-1661539J2485837D01*
G01*
X128206234Y-138472098D02*
G75*
G03X128206234Y-138472098I-2500000J0D01*
G01*
X125568595Y-135485180D02*
X122999354Y-137201892D01*
G04 #@! TO.C,D19*
X118154486Y-139791528D02*
X115299698Y-140974019D01*
X120206762Y-142747905D02*
G75*
G03X120206762Y-142747905I-2500000J0D01*
G01*
X118851412Y-145510128D02*
G75*
G02X115299856Y-140973954I-1144650J2762223D01*
G01*
X118850559Y-145510480D02*
G75*
G03X118154329Y-139791593I-1143797J2762575D01*
G01*
G04 #@! TO.C,D18*
X109609696Y-148313571D02*
G75*
G03X110042544Y-142568743I-582867J2932637D01*
G01*
X109610602Y-148313392D02*
G75*
G02X107012251Y-143171505I-583773J2932458D01*
G01*
X111526830Y-145380934D02*
G75*
G03X111526830Y-145380934I-2500001J0D01*
G01*
X110042711Y-142568709D02*
X107012084Y-143171539D01*
G04 #@! TO.C,D16*
X92987915Y-143171539D02*
X89957288Y-142568709D01*
X93473171Y-145380934D02*
G75*
G03X93473171Y-145380934I-2500001J0D01*
G01*
X90390303Y-148313571D02*
G75*
G02X89957455Y-142568743I582867J2932637D01*
G01*
X90389397Y-148313392D02*
G75*
G03X92987748Y-143171505I583773J2932458D01*
G01*
G04 #@! TO.C,D32*
X109610602Y-51686607D02*
G75*
G03X107012251Y-56828494I-583773J-2932458D01*
G01*
X109609696Y-51686428D02*
G75*
G02X110042544Y-57431256I-582867J-2932637D01*
G01*
X111526830Y-54619065D02*
G75*
G03X111526830Y-54619065I-2500001J0D01*
G01*
X107012084Y-56828460D02*
X110042711Y-57431290D01*
G04 #@! TO.C,D14*
X77000645Y-137201892D02*
X74431404Y-135485180D01*
X76793765Y-138472098D02*
G75*
G03X76793765Y-138472098I-2500000J0D01*
G01*
X72632995Y-140958448D02*
G75*
G02X74431545Y-135485275I1660770J2486350D01*
G01*
X72632226Y-140957935D02*
G75*
G03X77000504Y-137201798I1661539J2485837D01*
G01*
G04 #@! TO.C,D31*
X118851412Y-54489871D02*
G75*
G03X115299856Y-59026045I-1144650J-2762223D01*
G01*
X118850559Y-54489519D02*
G75*
G02X118154329Y-60208406I-1143797J-2762575D01*
G01*
X120206762Y-57252094D02*
G75*
G03X120206762Y-57252094I-2500000J0D01*
G01*
X115299698Y-59025980D02*
X118154486Y-60208471D01*
G04 #@! TO.C,D1*
X98455000Y-56290000D02*
X101545000Y-56290000D01*
X102500000Y-53730000D02*
G75*
G03X102500000Y-53730000I-2500000J0D01*
G01*
X99999538Y-50740000D02*
G75*
G02X101544830Y-56290000I462J-2990000D01*
G01*
X100000462Y-50740000D02*
G75*
G03X98455170Y-56290000I-462J-2990000D01*
G01*
G04 #@! TO.C,D2*
X90390303Y-51686428D02*
G75*
G03X89957455Y-57431256I582867J-2932637D01*
G01*
X90389397Y-51686607D02*
G75*
G02X92987748Y-56828494I583773J-2932458D01*
G01*
X93473171Y-54619065D02*
G75*
G03X93473171Y-54619065I-2500001J0D01*
G01*
X89957288Y-57431290D02*
X92987915Y-56828460D01*
G04 #@! TO.C,D3*
X81845513Y-60208471D02*
X84700301Y-59025980D01*
X84793237Y-57252094D02*
G75*
G03X84793237Y-57252094I-2500000J0D01*
G01*
X81148587Y-54489871D02*
G75*
G02X84700143Y-59026045I1144650J-2762223D01*
G01*
X81149440Y-54489519D02*
G75*
G03X81845670Y-60208406I1143797J-2762575D01*
G01*
G04 #@! TO.C,D4*
X72632995Y-59041551D02*
G75*
G03X74431545Y-64514724I1660770J-2486350D01*
G01*
X72632226Y-59042064D02*
G75*
G02X77000504Y-62798201I1661539J-2485837D01*
G01*
X76793765Y-61527901D02*
G75*
G03X76793765Y-61527901I-2500000J0D01*
G01*
X74431404Y-64514819D02*
X77000645Y-62798107D01*
G04 #@! TO.C,D5*
X67999882Y-70184842D02*
X70184842Y-67999882D01*
X69782168Y-67282168D02*
G75*
G03X69782168Y-67282168I-2500000J0D01*
G01*
X65167592Y-65168244D02*
G75*
G02X70184722Y-68000002I2114576J-2113924D01*
G01*
X65168244Y-65167592D02*
G75*
G03X68000002Y-70184722I2113924J-2114576D01*
G01*
G04 #@! TO.C,D6*
X59042064Y-72632226D02*
G75*
G03X62798201Y-77000504I2485837J-1661539D01*
G01*
X59041551Y-72632995D02*
G75*
G02X64514724Y-74431545I2486350J-1660770D01*
G01*
X64027901Y-74293765D02*
G75*
G03X64027901Y-74293765I-2500000J0D01*
G01*
X62798107Y-77000645D02*
X64514819Y-74431404D01*
G04 #@! TO.C,D7*
X59025980Y-84700301D02*
X60208471Y-81845513D01*
X59752094Y-82293237D02*
G75*
G03X59752094Y-82293237I-2500000J0D01*
G01*
X54489519Y-81149440D02*
G75*
G02X60208406Y-81845670I2762575J-1143797D01*
G01*
X54489871Y-81148587D02*
G75*
G03X59026045Y-84700143I2762223J-1144650D01*
G01*
G04 #@! TO.C,D8*
X51686607Y-90389397D02*
G75*
G03X56828494Y-92987748I2932458J-583773D01*
G01*
X51686428Y-90390303D02*
G75*
G02X57431256Y-89957455I2932637J-582867D01*
G01*
X57119066Y-90973170D02*
G75*
G03X57119066Y-90973170I-2500001J0D01*
G01*
X56828460Y-92987915D02*
X57431290Y-89957288D01*
G04 #@! TO.C,D9*
X56290000Y-101545000D02*
X56290000Y-98455000D01*
X56230000Y-100000000D02*
G75*
G03X56230000Y-100000000I-2500000J0D01*
G01*
X50740000Y-100000462D02*
G75*
G02X56290000Y-98455170I2990000J462D01*
G01*
X50740000Y-99999538D02*
G75*
G03X56290000Y-101544830I2990000J-462D01*
G01*
G04 #@! TO.C,D10*
X51686428Y-109609696D02*
G75*
G03X57431256Y-110042544I2932637J582867D01*
G01*
X51686607Y-109610602D02*
G75*
G02X56828494Y-107012251I2932458J583773D01*
G01*
X57119066Y-109026829D02*
G75*
G03X57119066Y-109026829I-2500001J0D01*
G01*
X57431290Y-110042711D02*
X56828460Y-107012084D01*
G04 #@! TO.C,D11*
X60208471Y-118154486D02*
X59025980Y-115299698D01*
X59752094Y-117706762D02*
G75*
G03X59752094Y-117706762I-2500000J0D01*
G01*
X54489871Y-118851412D02*
G75*
G02X59026045Y-115299856I2762223J1144650D01*
G01*
X54489519Y-118850559D02*
G75*
G03X60208406Y-118154329I2762575J1143797D01*
G01*
G04 #@! TO.C,D12*
X59041551Y-127367004D02*
G75*
G03X64514724Y-125568454I2486350J1660770D01*
G01*
X59042064Y-127367773D02*
G75*
G02X62798201Y-122999495I2485837J1661539D01*
G01*
X64027901Y-125706234D02*
G75*
G03X64027901Y-125706234I-2500000J0D01*
G01*
X64514819Y-125568595D02*
X62798107Y-122999354D01*
G04 #@! TO.C,D13*
X70184842Y-132000117D02*
X67999882Y-129815157D01*
X69782168Y-132717831D02*
G75*
G03X69782168Y-132717831I-2500000J0D01*
G01*
X65168244Y-134832407D02*
G75*
G02X68000002Y-129815277I2113924J2114576D01*
G01*
X65167592Y-134831755D02*
G75*
G03X70184722Y-131999997I2114576J2113924D01*
G01*
G04 #@! TO.C,D15*
X81148587Y-145510128D02*
G75*
G03X84700143Y-140973954I1144650J2762223D01*
G01*
X81149440Y-145510480D02*
G75*
G02X81845670Y-139791593I1143797J2762575D01*
G01*
X84793237Y-142747905D02*
G75*
G03X84793237Y-142747905I-2500000J0D01*
G01*
X84700301Y-140974019D02*
X81845513Y-139791528D01*
G04 #@! TO.C,U3*
X81460000Y-98670000D02*
X79810000Y-98670000D01*
X81460000Y-119110000D02*
X81460000Y-98670000D01*
X76160000Y-119110000D02*
X81460000Y-119110000D01*
X76160000Y-98670000D02*
X76160000Y-119110000D01*
X77810000Y-98670000D02*
X76160000Y-98670000D01*
X79810000Y-98670000D02*
G75*
G02X77810000Y-98670000I-1000000J0D01*
G01*
G04 #@! TO.C,U4*
X98670000Y-120190000D02*
G75*
G02X98670000Y-122190000I0J-1000000D01*
G01*
X98670000Y-122190000D02*
X98670000Y-123840000D01*
X98670000Y-123840000D02*
X119110000Y-123840000D01*
X119110000Y-123840000D02*
X119110000Y-118540000D01*
X119110000Y-118540000D02*
X98670000Y-118540000D01*
X98670000Y-118540000D02*
X98670000Y-120190000D01*
G04 #@! TO.C,U5*
X118540000Y-101330000D02*
X120190000Y-101330000D01*
X118540000Y-80890000D02*
X118540000Y-101330000D01*
X123840000Y-80890000D02*
X118540000Y-80890000D01*
X123840000Y-101330000D02*
X123840000Y-80890000D01*
X122190000Y-101330000D02*
X123840000Y-101330000D01*
X120190000Y-101330000D02*
G75*
G02X122190000Y-101330000I1000000J0D01*
G01*
G04 #@! TO.C,U2*
X101330000Y-79810000D02*
G75*
G02X101330000Y-77810000I0J1000000D01*
G01*
X101330000Y-77810000D02*
X101330000Y-76160000D01*
X101330000Y-76160000D02*
X80890000Y-76160000D01*
X80890000Y-76160000D02*
X80890000Y-81460000D01*
X80890000Y-81460000D02*
X101330000Y-81460000D01*
X101330000Y-81460000D02*
X101330000Y-79810000D01*
G04 #@! TO.C,R25*
D12*
X136547619Y-92547619D02*
X136500000Y-92500000D01*
X136452380Y-92404761D01*
X136452380Y-92166666D01*
X136500000Y-92071428D01*
X136547619Y-92023809D01*
X136642857Y-91976190D01*
X136738095Y-91976190D01*
X136880952Y-92023809D01*
X137452380Y-92595238D01*
X137452380Y-91976190D01*
X136547619Y-91595238D02*
X136500000Y-91547619D01*
X136452380Y-91452380D01*
X136452380Y-91214285D01*
X136500000Y-91119047D01*
X136547619Y-91071428D01*
X136642857Y-91023809D01*
X136738095Y-91023809D01*
X136880952Y-91071428D01*
X137452380Y-91642857D01*
X137452380Y-91023809D01*
X136452380Y-90404761D02*
X136452380Y-90309523D01*
X136500000Y-90214285D01*
X136547619Y-90166666D01*
X136642857Y-90119047D01*
X136833333Y-90071428D01*
X137071428Y-90071428D01*
X137261904Y-90119047D01*
X137357142Y-90166666D01*
X137404761Y-90214285D01*
X137452380Y-90309523D01*
X137452380Y-90404761D01*
X137404761Y-90500000D01*
X137357142Y-90547619D01*
X137261904Y-90595238D01*
X137071428Y-90642857D01*
X136833333Y-90642857D01*
X136642857Y-90595238D01*
X136547619Y-90547619D01*
X136500000Y-90500000D01*
X136452380Y-90404761D01*
X137452380Y-89642857D02*
X136785714Y-89642857D01*
X136976190Y-89642857D02*
X136880952Y-89595238D01*
X136833333Y-89547619D01*
X136785714Y-89452380D01*
X136785714Y-89357142D01*
G04 #@! TO.C,R17*
X107452380Y-136547619D02*
X107500000Y-136500000D01*
X107595238Y-136452380D01*
X107833333Y-136452380D01*
X107928571Y-136500000D01*
X107976190Y-136547619D01*
X108023809Y-136642857D01*
X108023809Y-136738095D01*
X107976190Y-136880952D01*
X107404761Y-137452380D01*
X108023809Y-137452380D01*
X108404761Y-136547619D02*
X108452380Y-136500000D01*
X108547619Y-136452380D01*
X108785714Y-136452380D01*
X108880952Y-136500000D01*
X108928571Y-136547619D01*
X108976190Y-136642857D01*
X108976190Y-136738095D01*
X108928571Y-136880952D01*
X108357142Y-137452380D01*
X108976190Y-137452380D01*
X109595238Y-136452380D02*
X109690476Y-136452380D01*
X109785714Y-136500000D01*
X109833333Y-136547619D01*
X109880952Y-136642857D01*
X109928571Y-136833333D01*
X109928571Y-137071428D01*
X109880952Y-137261904D01*
X109833333Y-137357142D01*
X109785714Y-137404761D01*
X109690476Y-137452380D01*
X109595238Y-137452380D01*
X109500000Y-137404761D01*
X109452380Y-137357142D01*
X109404761Y-137261904D01*
X109357142Y-137071428D01*
X109357142Y-136833333D01*
X109404761Y-136642857D01*
X109452380Y-136547619D01*
X109500000Y-136500000D01*
X109595238Y-136452380D01*
X110357142Y-137452380D02*
X110357142Y-136785714D01*
X110357142Y-136976190D02*
X110404761Y-136880952D01*
X110452380Y-136833333D01*
X110547619Y-136785714D01*
X110642857Y-136785714D01*
G04 #@! TO.C,R1*
X89452380Y-62547619D02*
X89500000Y-62500000D01*
X89595238Y-62452380D01*
X89833333Y-62452380D01*
X89928571Y-62500000D01*
X89976190Y-62547619D01*
X90023809Y-62642857D01*
X90023809Y-62738095D01*
X89976190Y-62880952D01*
X89404761Y-63452380D01*
X90023809Y-63452380D01*
X90404761Y-62547619D02*
X90452380Y-62500000D01*
X90547619Y-62452380D01*
X90785714Y-62452380D01*
X90880952Y-62500000D01*
X90928571Y-62547619D01*
X90976190Y-62642857D01*
X90976190Y-62738095D01*
X90928571Y-62880952D01*
X90357142Y-63452380D01*
X90976190Y-63452380D01*
X91595238Y-62452380D02*
X91690476Y-62452380D01*
X91785714Y-62500000D01*
X91833333Y-62547619D01*
X91880952Y-62642857D01*
X91928571Y-62833333D01*
X91928571Y-63071428D01*
X91880952Y-63261904D01*
X91833333Y-63357142D01*
X91785714Y-63404761D01*
X91690476Y-63452380D01*
X91595238Y-63452380D01*
X91500000Y-63404761D01*
X91452380Y-63357142D01*
X91404761Y-63261904D01*
X91357142Y-63071428D01*
X91357142Y-62833333D01*
X91404761Y-62642857D01*
X91452380Y-62547619D01*
X91500000Y-62500000D01*
X91595238Y-62452380D01*
X92357142Y-63452380D02*
X92357142Y-62785714D01*
X92357142Y-62976190D02*
X92404761Y-62880952D01*
X92452380Y-62833333D01*
X92547619Y-62785714D01*
X92642857Y-62785714D01*
G04 #@! TO.C,R33*
X91452380Y-92261428D02*
X91452380Y-92832857D01*
X91452380Y-92547142D02*
X90452380Y-92547142D01*
X90595238Y-92642380D01*
X90690476Y-92737619D01*
X90738095Y-92832857D01*
X90452380Y-91642380D02*
X90452380Y-91547142D01*
X90500000Y-91451904D01*
X90547619Y-91404285D01*
X90642857Y-91356666D01*
X90833333Y-91309047D01*
X91071428Y-91309047D01*
X91261904Y-91356666D01*
X91357142Y-91404285D01*
X91404761Y-91451904D01*
X91452380Y-91547142D01*
X91452380Y-91642380D01*
X91404761Y-91737619D01*
X91357142Y-91785238D01*
X91261904Y-91832857D01*
X91071428Y-91880476D01*
X90833333Y-91880476D01*
X90642857Y-91832857D01*
X90547619Y-91785238D01*
X90500000Y-91737619D01*
X90452380Y-91642380D01*
X90452380Y-90690000D02*
X90452380Y-90594761D01*
X90500000Y-90499523D01*
X90547619Y-90451904D01*
X90642857Y-90404285D01*
X90833333Y-90356666D01*
X91071428Y-90356666D01*
X91261904Y-90404285D01*
X91357142Y-90451904D01*
X91404761Y-90499523D01*
X91452380Y-90594761D01*
X91452380Y-90690000D01*
X91404761Y-90785238D01*
X91357142Y-90832857D01*
X91261904Y-90880476D01*
X91071428Y-90928095D01*
X90833333Y-90928095D01*
X90642857Y-90880476D01*
X90547619Y-90832857D01*
X90500000Y-90785238D01*
X90452380Y-90690000D01*
X91452380Y-89928095D02*
X90452380Y-89928095D01*
X91071428Y-89832857D02*
X91452380Y-89547142D01*
X90785714Y-89547142D02*
X91166666Y-89928095D01*
G04 #@! TO.C,R9*
X62522619Y-110437619D02*
X62475000Y-110390000D01*
X62427380Y-110294761D01*
X62427380Y-110056666D01*
X62475000Y-109961428D01*
X62522619Y-109913809D01*
X62617857Y-109866190D01*
X62713095Y-109866190D01*
X62855952Y-109913809D01*
X63427380Y-110485238D01*
X63427380Y-109866190D01*
X62522619Y-109485238D02*
X62475000Y-109437619D01*
X62427380Y-109342380D01*
X62427380Y-109104285D01*
X62475000Y-109009047D01*
X62522619Y-108961428D01*
X62617857Y-108913809D01*
X62713095Y-108913809D01*
X62855952Y-108961428D01*
X63427380Y-109532857D01*
X63427380Y-108913809D01*
X62427380Y-108294761D02*
X62427380Y-108199523D01*
X62475000Y-108104285D01*
X62522619Y-108056666D01*
X62617857Y-108009047D01*
X62808333Y-107961428D01*
X63046428Y-107961428D01*
X63236904Y-108009047D01*
X63332142Y-108056666D01*
X63379761Y-108104285D01*
X63427380Y-108199523D01*
X63427380Y-108294761D01*
X63379761Y-108390000D01*
X63332142Y-108437619D01*
X63236904Y-108485238D01*
X63046428Y-108532857D01*
X62808333Y-108532857D01*
X62617857Y-108485238D01*
X62522619Y-108437619D01*
X62475000Y-108390000D01*
X62427380Y-108294761D01*
X63427380Y-107532857D02*
X62760714Y-107532857D01*
X62951190Y-107532857D02*
X62855952Y-107485238D01*
X62808333Y-107437619D01*
X62760714Y-107342380D01*
X62760714Y-107247142D01*
G04 #@! TO.C,C4*
X106022380Y-82369047D02*
X106022380Y-82940476D01*
X106022380Y-82654761D02*
X105022380Y-82654761D01*
X105165238Y-82750000D01*
X105260476Y-82845238D01*
X105308095Y-82940476D01*
X105022380Y-81750000D02*
X105022380Y-81654761D01*
X105070000Y-81559523D01*
X105117619Y-81511904D01*
X105212857Y-81464285D01*
X105403333Y-81416666D01*
X105641428Y-81416666D01*
X105831904Y-81464285D01*
X105927142Y-81511904D01*
X105974761Y-81559523D01*
X106022380Y-81654761D01*
X106022380Y-81750000D01*
X105974761Y-81845238D01*
X105927142Y-81892857D01*
X105831904Y-81940476D01*
X105641428Y-81988095D01*
X105403333Y-81988095D01*
X105212857Y-81940476D01*
X105117619Y-81892857D01*
X105070000Y-81845238D01*
X105022380Y-81750000D01*
X105022380Y-80797619D02*
X105022380Y-80702380D01*
X105070000Y-80607142D01*
X105117619Y-80559523D01*
X105212857Y-80511904D01*
X105403333Y-80464285D01*
X105641428Y-80464285D01*
X105831904Y-80511904D01*
X105927142Y-80559523D01*
X105974761Y-80607142D01*
X106022380Y-80702380D01*
X106022380Y-80797619D01*
X105974761Y-80892857D01*
X105927142Y-80940476D01*
X105831904Y-80988095D01*
X105641428Y-81035714D01*
X105403333Y-81035714D01*
X105212857Y-80988095D01*
X105117619Y-80940476D01*
X105070000Y-80892857D01*
X105022380Y-80797619D01*
X105355714Y-80035714D02*
X106022380Y-80035714D01*
X105450952Y-80035714D02*
X105403333Y-79988095D01*
X105355714Y-79892857D01*
X105355714Y-79750000D01*
X105403333Y-79654761D01*
X105498571Y-79607142D01*
X106022380Y-79607142D01*
G04 #@! TO.C,C5*
X79880952Y-94882380D02*
X79309523Y-94882380D01*
X79595238Y-94882380D02*
X79595238Y-93882380D01*
X79500000Y-94025238D01*
X79404761Y-94120476D01*
X79309523Y-94168095D01*
X80500000Y-93882380D02*
X80595238Y-93882380D01*
X80690476Y-93930000D01*
X80738095Y-93977619D01*
X80785714Y-94072857D01*
X80833333Y-94263333D01*
X80833333Y-94501428D01*
X80785714Y-94691904D01*
X80738095Y-94787142D01*
X80690476Y-94834761D01*
X80595238Y-94882380D01*
X80500000Y-94882380D01*
X80404761Y-94834761D01*
X80357142Y-94787142D01*
X80309523Y-94691904D01*
X80261904Y-94501428D01*
X80261904Y-94263333D01*
X80309523Y-94072857D01*
X80357142Y-93977619D01*
X80404761Y-93930000D01*
X80500000Y-93882380D01*
X81452380Y-93882380D02*
X81547619Y-93882380D01*
X81642857Y-93930000D01*
X81690476Y-93977619D01*
X81738095Y-94072857D01*
X81785714Y-94263333D01*
X81785714Y-94501428D01*
X81738095Y-94691904D01*
X81690476Y-94787142D01*
X81642857Y-94834761D01*
X81547619Y-94882380D01*
X81452380Y-94882380D01*
X81357142Y-94834761D01*
X81309523Y-94787142D01*
X81261904Y-94691904D01*
X81214285Y-94501428D01*
X81214285Y-94263333D01*
X81261904Y-94072857D01*
X81309523Y-93977619D01*
X81357142Y-93930000D01*
X81452380Y-93882380D01*
X82214285Y-94215714D02*
X82214285Y-94882380D01*
X82214285Y-94310952D02*
X82261904Y-94263333D01*
X82357142Y-94215714D01*
X82500000Y-94215714D01*
X82595238Y-94263333D01*
X82642857Y-94358571D01*
X82642857Y-94882380D01*
G04 #@! TO.C,C6*
X94882380Y-120119047D02*
X94882380Y-120690476D01*
X94882380Y-120404761D02*
X93882380Y-120404761D01*
X94025238Y-120500000D01*
X94120476Y-120595238D01*
X94168095Y-120690476D01*
X93882380Y-119500000D02*
X93882380Y-119404761D01*
X93930000Y-119309523D01*
X93977619Y-119261904D01*
X94072857Y-119214285D01*
X94263333Y-119166666D01*
X94501428Y-119166666D01*
X94691904Y-119214285D01*
X94787142Y-119261904D01*
X94834761Y-119309523D01*
X94882380Y-119404761D01*
X94882380Y-119500000D01*
X94834761Y-119595238D01*
X94787142Y-119642857D01*
X94691904Y-119690476D01*
X94501428Y-119738095D01*
X94263333Y-119738095D01*
X94072857Y-119690476D01*
X93977619Y-119642857D01*
X93930000Y-119595238D01*
X93882380Y-119500000D01*
X93882380Y-118547619D02*
X93882380Y-118452380D01*
X93930000Y-118357142D01*
X93977619Y-118309523D01*
X94072857Y-118261904D01*
X94263333Y-118214285D01*
X94501428Y-118214285D01*
X94691904Y-118261904D01*
X94787142Y-118309523D01*
X94834761Y-118357142D01*
X94882380Y-118452380D01*
X94882380Y-118547619D01*
X94834761Y-118642857D01*
X94787142Y-118690476D01*
X94691904Y-118738095D01*
X94501428Y-118785714D01*
X94263333Y-118785714D01*
X94072857Y-118738095D01*
X93977619Y-118690476D01*
X93930000Y-118642857D01*
X93882380Y-118547619D01*
X94215714Y-117785714D02*
X94882380Y-117785714D01*
X94310952Y-117785714D02*
X94263333Y-117738095D01*
X94215714Y-117642857D01*
X94215714Y-117500000D01*
X94263333Y-117404761D01*
X94358571Y-117357142D01*
X94882380Y-117357142D01*
G04 #@! TO.C,C7*
X117880952Y-106022380D02*
X117309523Y-106022380D01*
X117595238Y-106022380D02*
X117595238Y-105022380D01*
X117500000Y-105165238D01*
X117404761Y-105260476D01*
X117309523Y-105308095D01*
X118500000Y-105022380D02*
X118595238Y-105022380D01*
X118690476Y-105070000D01*
X118738095Y-105117619D01*
X118785714Y-105212857D01*
X118833333Y-105403333D01*
X118833333Y-105641428D01*
X118785714Y-105831904D01*
X118738095Y-105927142D01*
X118690476Y-105974761D01*
X118595238Y-106022380D01*
X118500000Y-106022380D01*
X118404761Y-105974761D01*
X118357142Y-105927142D01*
X118309523Y-105831904D01*
X118261904Y-105641428D01*
X118261904Y-105403333D01*
X118309523Y-105212857D01*
X118357142Y-105117619D01*
X118404761Y-105070000D01*
X118500000Y-105022380D01*
X119452380Y-105022380D02*
X119547619Y-105022380D01*
X119642857Y-105070000D01*
X119690476Y-105117619D01*
X119738095Y-105212857D01*
X119785714Y-105403333D01*
X119785714Y-105641428D01*
X119738095Y-105831904D01*
X119690476Y-105927142D01*
X119642857Y-105974761D01*
X119547619Y-106022380D01*
X119452380Y-106022380D01*
X119357142Y-105974761D01*
X119309523Y-105927142D01*
X119261904Y-105831904D01*
X119214285Y-105641428D01*
X119214285Y-105403333D01*
X119261904Y-105212857D01*
X119309523Y-105117619D01*
X119357142Y-105070000D01*
X119452380Y-105022380D01*
X120214285Y-105355714D02*
X120214285Y-106022380D01*
X120214285Y-105450952D02*
X120261904Y-105403333D01*
X120357142Y-105355714D01*
X120500000Y-105355714D01*
X120595238Y-105403333D01*
X120642857Y-105498571D01*
X120642857Y-106022380D01*
G04 #@! TO.C,C3*
X108702380Y-92369047D02*
X108702380Y-92940476D01*
X108702380Y-92654761D02*
X107702380Y-92654761D01*
X107845238Y-92750000D01*
X107940476Y-92845238D01*
X107988095Y-92940476D01*
X107702380Y-91750000D02*
X107702380Y-91654761D01*
X107750000Y-91559523D01*
X107797619Y-91511904D01*
X107892857Y-91464285D01*
X108083333Y-91416666D01*
X108321428Y-91416666D01*
X108511904Y-91464285D01*
X108607142Y-91511904D01*
X108654761Y-91559523D01*
X108702380Y-91654761D01*
X108702380Y-91750000D01*
X108654761Y-91845238D01*
X108607142Y-91892857D01*
X108511904Y-91940476D01*
X108321428Y-91988095D01*
X108083333Y-91988095D01*
X107892857Y-91940476D01*
X107797619Y-91892857D01*
X107750000Y-91845238D01*
X107702380Y-91750000D01*
X107702380Y-90797619D02*
X107702380Y-90702380D01*
X107750000Y-90607142D01*
X107797619Y-90559523D01*
X107892857Y-90511904D01*
X108083333Y-90464285D01*
X108321428Y-90464285D01*
X108511904Y-90511904D01*
X108607142Y-90559523D01*
X108654761Y-90607142D01*
X108702380Y-90702380D01*
X108702380Y-90797619D01*
X108654761Y-90892857D01*
X108607142Y-90940476D01*
X108511904Y-90988095D01*
X108321428Y-91035714D01*
X108083333Y-91035714D01*
X107892857Y-90988095D01*
X107797619Y-90940476D01*
X107750000Y-90892857D01*
X107702380Y-90797619D01*
X108035714Y-90035714D02*
X108702380Y-90035714D01*
X108130952Y-90035714D02*
X108083333Y-89988095D01*
X108035714Y-89892857D01*
X108035714Y-89750000D01*
X108083333Y-89654761D01*
X108178571Y-89607142D01*
X108702380Y-89607142D01*
G04 #@! TO.C,U1*
X117702380Y-80464285D02*
X116702380Y-80464285D01*
X117416666Y-80130952D01*
X116702380Y-79797619D01*
X117702380Y-79797619D01*
X117607142Y-78750000D02*
X117654761Y-78797619D01*
X117702380Y-78940476D01*
X117702380Y-79035714D01*
X117654761Y-79178571D01*
X117559523Y-79273809D01*
X117464285Y-79321428D01*
X117273809Y-79369047D01*
X117130952Y-79369047D01*
X116940476Y-79321428D01*
X116845238Y-79273809D01*
X116750000Y-79178571D01*
X116702380Y-79035714D01*
X116702380Y-78940476D01*
X116750000Y-78797619D01*
X116797619Y-78750000D01*
X117702380Y-78321428D02*
X116702380Y-78321428D01*
X116702380Y-77940476D01*
X116750000Y-77845238D01*
X116797619Y-77797619D01*
X116892857Y-77750000D01*
X117035714Y-77750000D01*
X117130952Y-77797619D01*
X117178571Y-77845238D01*
X117226190Y-77940476D01*
X117226190Y-78321428D01*
X117702380Y-76797619D02*
X117702380Y-77369047D01*
X117702380Y-77083333D02*
X116702380Y-77083333D01*
X116845238Y-77178571D01*
X116940476Y-77273809D01*
X116988095Y-77369047D01*
X116702380Y-76464285D02*
X116702380Y-75797619D01*
X117702380Y-76226190D01*
X116702380Y-75226190D02*
X116702380Y-75130952D01*
X116750000Y-75035714D01*
X116797619Y-74988095D01*
X116892857Y-74940476D01*
X117083333Y-74892857D01*
X117321428Y-74892857D01*
X117511904Y-74940476D01*
X117607142Y-74988095D01*
X117654761Y-75035714D01*
X117702380Y-75130952D01*
X117702380Y-75226190D01*
X117654761Y-75321428D01*
X117607142Y-75369047D01*
X117511904Y-75416666D01*
X117321428Y-75464285D01*
X117083333Y-75464285D01*
X116892857Y-75416666D01*
X116797619Y-75369047D01*
X116750000Y-75321428D01*
X116702380Y-75226190D01*
X116702380Y-74273809D02*
X116702380Y-74178571D01*
X116750000Y-74083333D01*
X116797619Y-74035714D01*
X116892857Y-73988095D01*
X117083333Y-73940476D01*
X117321428Y-73940476D01*
X117511904Y-73988095D01*
X117607142Y-74035714D01*
X117654761Y-74083333D01*
X117702380Y-74178571D01*
X117702380Y-74273809D01*
X117654761Y-74369047D01*
X117607142Y-74416666D01*
X117511904Y-74464285D01*
X117321428Y-74511904D01*
X117083333Y-74511904D01*
X116892857Y-74464285D01*
X116797619Y-74416666D01*
X116750000Y-74369047D01*
X116702380Y-74273809D01*
X117321428Y-73511904D02*
X117321428Y-72750000D01*
X116702380Y-72369047D02*
X116702380Y-71750000D01*
X117083333Y-72083333D01*
X117083333Y-71940476D01*
X117130952Y-71845238D01*
X117178571Y-71797619D01*
X117273809Y-71750000D01*
X117511904Y-71750000D01*
X117607142Y-71797619D01*
X117654761Y-71845238D01*
X117702380Y-71940476D01*
X117702380Y-72226190D01*
X117654761Y-72321428D01*
X117607142Y-72369047D01*
X116702380Y-71416666D02*
X116702380Y-70797619D01*
X117083333Y-71130952D01*
X117083333Y-70988095D01*
X117130952Y-70892857D01*
X117178571Y-70845238D01*
X117273809Y-70797619D01*
X117511904Y-70797619D01*
X117607142Y-70845238D01*
X117654761Y-70892857D01*
X117702380Y-70988095D01*
X117702380Y-71273809D01*
X117654761Y-71369047D01*
X117607142Y-71416666D01*
X116702380Y-70178571D02*
X116702380Y-70083333D01*
X116750000Y-69988095D01*
X116797619Y-69940476D01*
X116892857Y-69892857D01*
X117083333Y-69845238D01*
X117321428Y-69845238D01*
X117511904Y-69892857D01*
X117607142Y-69940476D01*
X117654761Y-69988095D01*
X117702380Y-70083333D01*
X117702380Y-70178571D01*
X117654761Y-70273809D01*
X117607142Y-70321428D01*
X117511904Y-70369047D01*
X117321428Y-70416666D01*
X117083333Y-70416666D01*
X116892857Y-70369047D01*
X116797619Y-70321428D01*
X116750000Y-70273809D01*
X116702380Y-70178571D01*
X116797619Y-69464285D02*
X116750000Y-69416666D01*
X116702380Y-69321428D01*
X116702380Y-69083333D01*
X116750000Y-68988095D01*
X116797619Y-68940476D01*
X116892857Y-68892857D01*
X116988095Y-68892857D01*
X117130952Y-68940476D01*
X117702380Y-69511904D01*
X117702380Y-68892857D01*
X117178571Y-68464285D02*
X117178571Y-68130952D01*
X117702380Y-67988095D02*
X117702380Y-68464285D01*
X116702380Y-68464285D01*
X116702380Y-67988095D01*
G04 #@! TO.C,U6*
X95830952Y-91383333D02*
X96211904Y-91383333D01*
X95754761Y-91611904D02*
X96021428Y-90811904D01*
X96288095Y-91611904D01*
X96440476Y-90811904D02*
X96897619Y-90811904D01*
X96669047Y-91611904D02*
X96669047Y-90811904D01*
X97050000Y-91078571D02*
X97354761Y-91078571D01*
X97164285Y-90811904D02*
X97164285Y-91497619D01*
X97202380Y-91573809D01*
X97278571Y-91611904D01*
X97354761Y-91611904D01*
X97621428Y-91611904D02*
X97621428Y-91078571D01*
X97621428Y-90811904D02*
X97583333Y-90850000D01*
X97621428Y-90888095D01*
X97659523Y-90850000D01*
X97621428Y-90811904D01*
X97621428Y-90888095D01*
X98002380Y-91078571D02*
X98002380Y-91611904D01*
X98002380Y-91154761D02*
X98040476Y-91116666D01*
X98116666Y-91078571D01*
X98230952Y-91078571D01*
X98307142Y-91116666D01*
X98345238Y-91192857D01*
X98345238Y-91611904D01*
X98650000Y-91078571D02*
X98840476Y-91611904D01*
X99030952Y-91078571D02*
X98840476Y-91611904D01*
X98764285Y-91802380D01*
X98726190Y-91840476D01*
X98650000Y-91878571D01*
X99450000Y-91154761D02*
X99373809Y-91116666D01*
X99335714Y-91078571D01*
X99297619Y-91002380D01*
X99297619Y-90964285D01*
X99335714Y-90888095D01*
X99373809Y-90850000D01*
X99450000Y-90811904D01*
X99602380Y-90811904D01*
X99678571Y-90850000D01*
X99716666Y-90888095D01*
X99754761Y-90964285D01*
X99754761Y-91002380D01*
X99716666Y-91078571D01*
X99678571Y-91116666D01*
X99602380Y-91154761D01*
X99450000Y-91154761D01*
X99373809Y-91192857D01*
X99335714Y-91230952D01*
X99297619Y-91307142D01*
X99297619Y-91459523D01*
X99335714Y-91535714D01*
X99373809Y-91573809D01*
X99450000Y-91611904D01*
X99602380Y-91611904D01*
X99678571Y-91573809D01*
X99716666Y-91535714D01*
X99754761Y-91459523D01*
X99754761Y-91307142D01*
X99716666Y-91230952D01*
X99678571Y-91192857D01*
X99602380Y-91154761D01*
X100478571Y-90811904D02*
X100097619Y-90811904D01*
X100059523Y-91192857D01*
X100097619Y-91154761D01*
X100173809Y-91116666D01*
X100364285Y-91116666D01*
X100440476Y-91154761D01*
X100478571Y-91192857D01*
X100516666Y-91269047D01*
X100516666Y-91459523D01*
X100478571Y-91535714D01*
X100440476Y-91573809D01*
X100364285Y-91611904D01*
X100173809Y-91611904D01*
X100097619Y-91573809D01*
X100059523Y-91535714D01*
X100859523Y-91307142D02*
X101469047Y-91307142D01*
X101811904Y-90888095D02*
X101850000Y-90850000D01*
X101926190Y-90811904D01*
X102116666Y-90811904D01*
X102192857Y-90850000D01*
X102230952Y-90888095D01*
X102269047Y-90964285D01*
X102269047Y-91040476D01*
X102230952Y-91154761D01*
X101773809Y-91611904D01*
X102269047Y-91611904D01*
X102764285Y-90811904D02*
X102840476Y-90811904D01*
X102916666Y-90850000D01*
X102954761Y-90888095D01*
X102992857Y-90964285D01*
X103030952Y-91116666D01*
X103030952Y-91307142D01*
X102992857Y-91459523D01*
X102954761Y-91535714D01*
X102916666Y-91573809D01*
X102840476Y-91611904D01*
X102764285Y-91611904D01*
X102688095Y-91573809D01*
X102650000Y-91535714D01*
X102611904Y-91459523D01*
X102573809Y-91307142D01*
X102573809Y-91116666D01*
X102611904Y-90964285D01*
X102650000Y-90888095D01*
X102688095Y-90850000D01*
X102764285Y-90811904D01*
X103373809Y-91611904D02*
X103373809Y-90811904D01*
X103678571Y-90811904D01*
X103754761Y-90850000D01*
X103792857Y-90888095D01*
X103830952Y-90964285D01*
X103830952Y-91078571D01*
X103792857Y-91154761D01*
X103754761Y-91192857D01*
X103678571Y-91230952D01*
X103373809Y-91230952D01*
X104173809Y-90811904D02*
X104173809Y-91459523D01*
X104211904Y-91535714D01*
X104250000Y-91573809D01*
X104326190Y-91611904D01*
X104478571Y-91611904D01*
X104554761Y-91573809D01*
X104592857Y-91535714D01*
X104630952Y-91459523D01*
X104630952Y-90811904D01*
G04 #@! TO.C,SW1*
X98666666Y-100404761D02*
X98809523Y-100452380D01*
X99047619Y-100452380D01*
X99142857Y-100404761D01*
X99190476Y-100357142D01*
X99238095Y-100261904D01*
X99238095Y-100166666D01*
X99190476Y-100071428D01*
X99142857Y-100023809D01*
X99047619Y-99976190D01*
X98857142Y-99928571D01*
X98761904Y-99880952D01*
X98714285Y-99833333D01*
X98666666Y-99738095D01*
X98666666Y-99642857D01*
X98714285Y-99547619D01*
X98761904Y-99500000D01*
X98857142Y-99452380D01*
X99095238Y-99452380D01*
X99238095Y-99500000D01*
X99571428Y-99452380D02*
X99809523Y-100452380D01*
X100000000Y-99738095D01*
X100190476Y-100452380D01*
X100428571Y-99452380D01*
X101333333Y-100452380D02*
X100761904Y-100452380D01*
X101047619Y-100452380D02*
X101047619Y-99452380D01*
X100952380Y-99595238D01*
X100857142Y-99690476D01*
X100761904Y-99738095D01*
G04 #@! TO.C,C1*
X109083333Y-63952380D02*
X108511904Y-63952380D01*
X108797619Y-63952380D02*
X108797619Y-62952380D01*
X108702380Y-63095238D01*
X108607142Y-63190476D01*
X108511904Y-63238095D01*
X109940476Y-63285714D02*
X109940476Y-63952380D01*
X109511904Y-63285714D02*
X109511904Y-63809523D01*
X109559523Y-63904761D01*
X109654761Y-63952380D01*
X109797619Y-63952380D01*
X109892857Y-63904761D01*
X109940476Y-63857142D01*
G04 #@! TO.C,C2*
X110583333Y-66452380D02*
X110011904Y-66452380D01*
X110297619Y-66452380D02*
X110297619Y-65452380D01*
X110202380Y-65595238D01*
X110107142Y-65690476D01*
X110011904Y-65738095D01*
X111440476Y-65785714D02*
X111440476Y-66452380D01*
X111011904Y-65785714D02*
X111011904Y-66309523D01*
X111059523Y-66404761D01*
X111154761Y-66452380D01*
X111297619Y-66452380D01*
X111392857Y-66404761D01*
X111440476Y-66357142D01*
G04 #@! TO.C,U3*
X78262380Y-112011904D02*
X78262380Y-111345238D01*
X79262380Y-111773809D01*
X78595714Y-110535714D02*
X79262380Y-110535714D01*
X78214761Y-110773809D02*
X78929047Y-111011904D01*
X78929047Y-110392857D01*
X79262380Y-110011904D02*
X78262380Y-110011904D01*
X78738571Y-110011904D02*
X78738571Y-109440476D01*
X79262380Y-109440476D02*
X78262380Y-109440476D01*
X79167142Y-108392857D02*
X79214761Y-108440476D01*
X79262380Y-108583333D01*
X79262380Y-108678571D01*
X79214761Y-108821428D01*
X79119523Y-108916666D01*
X79024285Y-108964285D01*
X78833809Y-109011904D01*
X78690952Y-109011904D01*
X78500476Y-108964285D01*
X78405238Y-108916666D01*
X78310000Y-108821428D01*
X78262380Y-108678571D01*
X78262380Y-108583333D01*
X78310000Y-108440476D01*
X78357619Y-108392857D01*
X78262380Y-107488095D02*
X78262380Y-107964285D01*
X78738571Y-108011904D01*
X78690952Y-107964285D01*
X78643333Y-107869047D01*
X78643333Y-107630952D01*
X78690952Y-107535714D01*
X78738571Y-107488095D01*
X78833809Y-107440476D01*
X79071904Y-107440476D01*
X79167142Y-107488095D01*
X79214761Y-107535714D01*
X79262380Y-107630952D01*
X79262380Y-107869047D01*
X79214761Y-107964285D01*
X79167142Y-108011904D01*
X79262380Y-106964285D02*
X79262380Y-106773809D01*
X79214761Y-106678571D01*
X79167142Y-106630952D01*
X79024285Y-106535714D01*
X78833809Y-106488095D01*
X78452857Y-106488095D01*
X78357619Y-106535714D01*
X78310000Y-106583333D01*
X78262380Y-106678571D01*
X78262380Y-106869047D01*
X78310000Y-106964285D01*
X78357619Y-107011904D01*
X78452857Y-107059523D01*
X78690952Y-107059523D01*
X78786190Y-107011904D01*
X78833809Y-106964285D01*
X78881428Y-106869047D01*
X78881428Y-106678571D01*
X78833809Y-106583333D01*
X78786190Y-106535714D01*
X78690952Y-106488095D01*
X78262380Y-105583333D02*
X78262380Y-106059523D01*
X78738571Y-106107142D01*
X78690952Y-106059523D01*
X78643333Y-105964285D01*
X78643333Y-105726190D01*
X78690952Y-105630952D01*
X78738571Y-105583333D01*
X78833809Y-105535714D01*
X79071904Y-105535714D01*
X79167142Y-105583333D01*
X79214761Y-105630952D01*
X79262380Y-105726190D01*
X79262380Y-105964285D01*
X79214761Y-106059523D01*
X79167142Y-106107142D01*
G04 #@! TO.C,U4*
X105488095Y-120642380D02*
X106154761Y-120642380D01*
X105726190Y-121642380D01*
X106964285Y-120975714D02*
X106964285Y-121642380D01*
X106726190Y-120594761D02*
X106488095Y-121309047D01*
X107107142Y-121309047D01*
X107488095Y-121642380D02*
X107488095Y-120642380D01*
X107488095Y-121118571D02*
X108059523Y-121118571D01*
X108059523Y-121642380D02*
X108059523Y-120642380D01*
X109107142Y-121547142D02*
X109059523Y-121594761D01*
X108916666Y-121642380D01*
X108821428Y-121642380D01*
X108678571Y-121594761D01*
X108583333Y-121499523D01*
X108535714Y-121404285D01*
X108488095Y-121213809D01*
X108488095Y-121070952D01*
X108535714Y-120880476D01*
X108583333Y-120785238D01*
X108678571Y-120690000D01*
X108821428Y-120642380D01*
X108916666Y-120642380D01*
X109059523Y-120690000D01*
X109107142Y-120737619D01*
X110011904Y-120642380D02*
X109535714Y-120642380D01*
X109488095Y-121118571D01*
X109535714Y-121070952D01*
X109630952Y-121023333D01*
X109869047Y-121023333D01*
X109964285Y-121070952D01*
X110011904Y-121118571D01*
X110059523Y-121213809D01*
X110059523Y-121451904D01*
X110011904Y-121547142D01*
X109964285Y-121594761D01*
X109869047Y-121642380D01*
X109630952Y-121642380D01*
X109535714Y-121594761D01*
X109488095Y-121547142D01*
X110535714Y-121642380D02*
X110726190Y-121642380D01*
X110821428Y-121594761D01*
X110869047Y-121547142D01*
X110964285Y-121404285D01*
X111011904Y-121213809D01*
X111011904Y-120832857D01*
X110964285Y-120737619D01*
X110916666Y-120690000D01*
X110821428Y-120642380D01*
X110630952Y-120642380D01*
X110535714Y-120690000D01*
X110488095Y-120737619D01*
X110440476Y-120832857D01*
X110440476Y-121070952D01*
X110488095Y-121166190D01*
X110535714Y-121213809D01*
X110630952Y-121261428D01*
X110821428Y-121261428D01*
X110916666Y-121213809D01*
X110964285Y-121166190D01*
X111011904Y-121070952D01*
X111916666Y-120642380D02*
X111440476Y-120642380D01*
X111392857Y-121118571D01*
X111440476Y-121070952D01*
X111535714Y-121023333D01*
X111773809Y-121023333D01*
X111869047Y-121070952D01*
X111916666Y-121118571D01*
X111964285Y-121213809D01*
X111964285Y-121451904D01*
X111916666Y-121547142D01*
X111869047Y-121594761D01*
X111773809Y-121642380D01*
X111535714Y-121642380D01*
X111440476Y-121594761D01*
X111392857Y-121547142D01*
G04 #@! TO.C,U5*
X120642380Y-94261904D02*
X120642380Y-93595238D01*
X121642380Y-94023809D01*
X120975714Y-92785714D02*
X121642380Y-92785714D01*
X120594761Y-93023809D02*
X121309047Y-93261904D01*
X121309047Y-92642857D01*
X121642380Y-92261904D02*
X120642380Y-92261904D01*
X121118571Y-92261904D02*
X121118571Y-91690476D01*
X121642380Y-91690476D02*
X120642380Y-91690476D01*
X121547142Y-90642857D02*
X121594761Y-90690476D01*
X121642380Y-90833333D01*
X121642380Y-90928571D01*
X121594761Y-91071428D01*
X121499523Y-91166666D01*
X121404285Y-91214285D01*
X121213809Y-91261904D01*
X121070952Y-91261904D01*
X120880476Y-91214285D01*
X120785238Y-91166666D01*
X120690000Y-91071428D01*
X120642380Y-90928571D01*
X120642380Y-90833333D01*
X120690000Y-90690476D01*
X120737619Y-90642857D01*
X120642380Y-89738095D02*
X120642380Y-90214285D01*
X121118571Y-90261904D01*
X121070952Y-90214285D01*
X121023333Y-90119047D01*
X121023333Y-89880952D01*
X121070952Y-89785714D01*
X121118571Y-89738095D01*
X121213809Y-89690476D01*
X121451904Y-89690476D01*
X121547142Y-89738095D01*
X121594761Y-89785714D01*
X121642380Y-89880952D01*
X121642380Y-90119047D01*
X121594761Y-90214285D01*
X121547142Y-90261904D01*
X121642380Y-89214285D02*
X121642380Y-89023809D01*
X121594761Y-88928571D01*
X121547142Y-88880952D01*
X121404285Y-88785714D01*
X121213809Y-88738095D01*
X120832857Y-88738095D01*
X120737619Y-88785714D01*
X120690000Y-88833333D01*
X120642380Y-88928571D01*
X120642380Y-89119047D01*
X120690000Y-89214285D01*
X120737619Y-89261904D01*
X120832857Y-89309523D01*
X121070952Y-89309523D01*
X121166190Y-89261904D01*
X121213809Y-89214285D01*
X121261428Y-89119047D01*
X121261428Y-88928571D01*
X121213809Y-88833333D01*
X121166190Y-88785714D01*
X121070952Y-88738095D01*
X120642380Y-87833333D02*
X120642380Y-88309523D01*
X121118571Y-88357142D01*
X121070952Y-88309523D01*
X121023333Y-88214285D01*
X121023333Y-87976190D01*
X121070952Y-87880952D01*
X121118571Y-87833333D01*
X121213809Y-87785714D01*
X121451904Y-87785714D01*
X121547142Y-87833333D01*
X121594761Y-87880952D01*
X121642380Y-87976190D01*
X121642380Y-88214285D01*
X121594761Y-88309523D01*
X121547142Y-88357142D01*
G04 #@! TO.C,U2*
X87738095Y-78262380D02*
X88404761Y-78262380D01*
X87976190Y-79262380D01*
X89214285Y-78595714D02*
X89214285Y-79262380D01*
X88976190Y-78214761D02*
X88738095Y-78929047D01*
X89357142Y-78929047D01*
X89738095Y-79262380D02*
X89738095Y-78262380D01*
X89738095Y-78738571D02*
X90309523Y-78738571D01*
X90309523Y-79262380D02*
X90309523Y-78262380D01*
X91357142Y-79167142D02*
X91309523Y-79214761D01*
X91166666Y-79262380D01*
X91071428Y-79262380D01*
X90928571Y-79214761D01*
X90833333Y-79119523D01*
X90785714Y-79024285D01*
X90738095Y-78833809D01*
X90738095Y-78690952D01*
X90785714Y-78500476D01*
X90833333Y-78405238D01*
X90928571Y-78310000D01*
X91071428Y-78262380D01*
X91166666Y-78262380D01*
X91309523Y-78310000D01*
X91357142Y-78357619D01*
X92261904Y-78262380D02*
X91785714Y-78262380D01*
X91738095Y-78738571D01*
X91785714Y-78690952D01*
X91880952Y-78643333D01*
X92119047Y-78643333D01*
X92214285Y-78690952D01*
X92261904Y-78738571D01*
X92309523Y-78833809D01*
X92309523Y-79071904D01*
X92261904Y-79167142D01*
X92214285Y-79214761D01*
X92119047Y-79262380D01*
X91880952Y-79262380D01*
X91785714Y-79214761D01*
X91738095Y-79167142D01*
X92785714Y-79262380D02*
X92976190Y-79262380D01*
X93071428Y-79214761D01*
X93119047Y-79167142D01*
X93214285Y-79024285D01*
X93261904Y-78833809D01*
X93261904Y-78452857D01*
X93214285Y-78357619D01*
X93166666Y-78310000D01*
X93071428Y-78262380D01*
X92880952Y-78262380D01*
X92785714Y-78310000D01*
X92738095Y-78357619D01*
X92690476Y-78452857D01*
X92690476Y-78690952D01*
X92738095Y-78786190D01*
X92785714Y-78833809D01*
X92880952Y-78881428D01*
X93071428Y-78881428D01*
X93166666Y-78833809D01*
X93214285Y-78786190D01*
X93261904Y-78690952D01*
X94166666Y-78262380D02*
X93690476Y-78262380D01*
X93642857Y-78738571D01*
X93690476Y-78690952D01*
X93785714Y-78643333D01*
X94023809Y-78643333D01*
X94119047Y-78690952D01*
X94166666Y-78738571D01*
X94214285Y-78833809D01*
X94214285Y-79071904D01*
X94166666Y-79167142D01*
X94119047Y-79214761D01*
X94023809Y-79262380D01*
X93785714Y-79262380D01*
X93690476Y-79214761D01*
X93642857Y-79167142D01*
G04 #@! TD*
M02*
