M48
; DRILL file {KiCad (5.1.6)-1} date 09/17/20 20:52:07
; FORMAT={-:-/ absolute / inch / decimal}
; #@! TF.CreationDate,2020-09-17T20:52:07+01:00
; #@! TF.GenerationSoftware,Kicad,Pcbnew,(5.1.6)-1
FMAT,2
INCH
T1C0.0118
T2C0.0354
T3C0.0394
T4C0.0433
T5C0.0433
T6C0.1260
%
G90
G05
T1
X3.2795Y-4.1339
X3.2874Y-3.5827
X3.4022Y-4.2947
X3.4449Y-4.252
X3.5157Y-4.3228
X3.5512Y-3.5157
X3.5787Y-3.4016
X3.5787Y-4.5827
X3.5925Y-3.628
X3.622Y-3.4449
X3.6263Y-3.6617
X3.7402Y-3.2795
X3.7402Y-4.439
X3.7539Y-5.0138
X3.8622Y-3.2677
X3.8976Y-4.5551
X3.9075Y-4.0945
X3.937Y-4.9449
X3.9803Y-4.6811
X3.9862Y-4.124
X4.0354Y-4.439
X4.0354Y-4.6496
X4.0827Y-3.4173
X4.1339Y-3.7992
X4.1417Y-4.5827
X4.1427Y-3.5128
X4.1535Y-3.5925
X4.252Y-4.4291
X4.2913Y-3.2874
X4.2953Y-4.4724
X4.3228Y-4.3583
X4.3583Y-3.5512
X4.4291Y-3.622
X4.4724Y-3.5787
X4.5827Y-4.2953
X4.5945Y-3.7402
T3
X3.837Y-4.1732
X3.837Y-4.2732
X3.937Y-4.1732
X3.937Y-4.2732
X4.037Y-4.1732
X4.037Y-4.2732
X3.7913Y-3.7402
X4.0906Y-3.7402
T4
X3.811Y-3.8504
X3.811Y-4.0276
X4.0669Y-3.8504
X4.0669Y-4.0276
T5
X3.8465Y-5.122
X4.0276Y-5.122
T6
X3.3071Y-3.937
X4.5669Y-3.937
T2
G00X3.7126Y-5.0906
M15
G01X3.7126Y-5.1535
M16
G05
G00X4.1614Y-5.0906
M15
G01X4.1614Y-5.1535
M16
G05
T0
M30
