G04 #@! TF.GenerationSoftware,KiCad,Pcbnew,(5.0.2)-1*
G04 #@! TF.CreationDate,2020-02-14T16:26:47+00:00*
G04 #@! TF.ProjectId,teatime,74656174-696d-4652-9e6b-696361645f70,rev?*
G04 #@! TF.SameCoordinates,Original*
G04 #@! TF.FileFunction,Legend,Bot*
G04 #@! TF.FilePolarity,Positive*
%FSLAX46Y46*%
G04 Gerber Fmt 4.6, Leading zero omitted, Abs format (unit mm)*
G04 Created by KiCad (PCBNEW (5.0.2)-1) date 14/02/2020 16:26:47*
%MOMM*%
%LPD*%
G01*
G04 APERTURE LIST*
%ADD10C,0.300000*%
%ADD11C,0.150000*%
%ADD12C,0.100000*%
%ADD13C,0.120000*%
G04 APERTURE END LIST*
D10*
X124285714Y-121178571D02*
X124285714Y-119678571D01*
X123642857Y-121178571D02*
X123642857Y-120392857D01*
X123714285Y-120250000D01*
X123857142Y-120178571D01*
X124071428Y-120178571D01*
X124214285Y-120250000D01*
X124285714Y-120321428D01*
X123142857Y-120178571D02*
X122571428Y-120178571D01*
X122928571Y-119678571D02*
X122928571Y-120964285D01*
X122857142Y-121107142D01*
X122714285Y-121178571D01*
X122571428Y-121178571D01*
X122285714Y-120178571D02*
X121714285Y-120178571D01*
X122071428Y-119678571D02*
X122071428Y-120964285D01*
X122000000Y-121107142D01*
X121857142Y-121178571D01*
X121714285Y-121178571D01*
X121214285Y-120178571D02*
X121214285Y-121678571D01*
X121214285Y-120250000D02*
X121071428Y-120178571D01*
X120785714Y-120178571D01*
X120642857Y-120250000D01*
X120571428Y-120321428D01*
X120500000Y-120464285D01*
X120500000Y-120892857D01*
X120571428Y-121035714D01*
X120642857Y-121107142D01*
X120785714Y-121178571D01*
X121071428Y-121178571D01*
X121214285Y-121107142D01*
X119928571Y-121107142D02*
X119785714Y-121178571D01*
X119500000Y-121178571D01*
X119357142Y-121107142D01*
X119285714Y-120964285D01*
X119285714Y-120892857D01*
X119357142Y-120750000D01*
X119500000Y-120678571D01*
X119714285Y-120678571D01*
X119857142Y-120607142D01*
X119928571Y-120464285D01*
X119928571Y-120392857D01*
X119857142Y-120250000D01*
X119714285Y-120178571D01*
X119500000Y-120178571D01*
X119357142Y-120250000D01*
X118642857Y-121035714D02*
X118571428Y-121107142D01*
X118642857Y-121178571D01*
X118714285Y-121107142D01*
X118642857Y-121035714D01*
X118642857Y-121178571D01*
X118642857Y-120250000D02*
X118571428Y-120321428D01*
X118642857Y-120392857D01*
X118714285Y-120321428D01*
X118642857Y-120250000D01*
X118642857Y-120392857D01*
X116857142Y-119607142D02*
X118142857Y-121535714D01*
X115285714Y-119607142D02*
X116571428Y-121535714D01*
X114142857Y-120178571D02*
X114142857Y-121392857D01*
X114214285Y-121535714D01*
X114285714Y-121607142D01*
X114428571Y-121678571D01*
X114642857Y-121678571D01*
X114785714Y-121607142D01*
X114142857Y-121107142D02*
X114285714Y-121178571D01*
X114571428Y-121178571D01*
X114714285Y-121107142D01*
X114785714Y-121035714D01*
X114857142Y-120892857D01*
X114857142Y-120464285D01*
X114785714Y-120321428D01*
X114714285Y-120250000D01*
X114571428Y-120178571D01*
X114285714Y-120178571D01*
X114142857Y-120250000D01*
X113428571Y-121178571D02*
X113428571Y-120178571D01*
X113428571Y-119678571D02*
X113499999Y-119750000D01*
X113428571Y-119821428D01*
X113357142Y-119750000D01*
X113428571Y-119678571D01*
X113428571Y-119821428D01*
X112928571Y-120178571D02*
X112357142Y-120178571D01*
X112714285Y-119678571D02*
X112714285Y-120964285D01*
X112642857Y-121107142D01*
X112499999Y-121178571D01*
X112357142Y-121178571D01*
X111857142Y-121178571D02*
X111857142Y-119678571D01*
X111214285Y-121178571D02*
X111214285Y-120392857D01*
X111285714Y-120250000D01*
X111428571Y-120178571D01*
X111642857Y-120178571D01*
X111785714Y-120250000D01*
X111857142Y-120321428D01*
X109857142Y-120178571D02*
X109857142Y-121178571D01*
X110499999Y-120178571D02*
X110499999Y-120964285D01*
X110428571Y-121107142D01*
X110285714Y-121178571D01*
X110071428Y-121178571D01*
X109928571Y-121107142D01*
X109857142Y-121035714D01*
X109142857Y-121178571D02*
X109142857Y-119678571D01*
X109142857Y-120250000D02*
X108999999Y-120178571D01*
X108714285Y-120178571D01*
X108571428Y-120250000D01*
X108499999Y-120321428D01*
X108428571Y-120464285D01*
X108428571Y-120892857D01*
X108499999Y-121035714D01*
X108571428Y-121107142D01*
X108714285Y-121178571D01*
X108999999Y-121178571D01*
X109142857Y-121107142D01*
X107785714Y-121035714D02*
X107714285Y-121107142D01*
X107785714Y-121178571D01*
X107857142Y-121107142D01*
X107785714Y-121035714D01*
X107785714Y-121178571D01*
X106428571Y-121107142D02*
X106571428Y-121178571D01*
X106857142Y-121178571D01*
X106999999Y-121107142D01*
X107071428Y-121035714D01*
X107142857Y-120892857D01*
X107142857Y-120464285D01*
X107071428Y-120321428D01*
X106999999Y-120250000D01*
X106857142Y-120178571D01*
X106571428Y-120178571D01*
X106428571Y-120250000D01*
X105571428Y-121178571D02*
X105714285Y-121107142D01*
X105785714Y-121035714D01*
X105857142Y-120892857D01*
X105857142Y-120464285D01*
X105785714Y-120321428D01*
X105714285Y-120250000D01*
X105571428Y-120178571D01*
X105357142Y-120178571D01*
X105214285Y-120250000D01*
X105142857Y-120321428D01*
X105071428Y-120464285D01*
X105071428Y-120892857D01*
X105142857Y-121035714D01*
X105214285Y-121107142D01*
X105357142Y-121178571D01*
X105571428Y-121178571D01*
X104428571Y-121178571D02*
X104428571Y-120178571D01*
X104428571Y-120321428D02*
X104357142Y-120250000D01*
X104214285Y-120178571D01*
X103999999Y-120178571D01*
X103857142Y-120250000D01*
X103785714Y-120392857D01*
X103785714Y-121178571D01*
X103785714Y-120392857D02*
X103714285Y-120250000D01*
X103571428Y-120178571D01*
X103357142Y-120178571D01*
X103214285Y-120250000D01*
X103142857Y-120392857D01*
X103142857Y-121178571D01*
X101357142Y-119607142D02*
X102642857Y-121535714D01*
X100857142Y-121178571D02*
X100857142Y-119678571D01*
X100857142Y-120392857D02*
X99999999Y-120392857D01*
X99999999Y-121178571D02*
X99999999Y-119678571D01*
X98642857Y-121178571D02*
X98642857Y-120392857D01*
X98714285Y-120250000D01*
X98857142Y-120178571D01*
X99142857Y-120178571D01*
X99285714Y-120250000D01*
X98642857Y-121107142D02*
X98785714Y-121178571D01*
X99142857Y-121178571D01*
X99285714Y-121107142D01*
X99357142Y-120964285D01*
X99357142Y-120821428D01*
X99285714Y-120678571D01*
X99142857Y-120607142D01*
X98785714Y-120607142D01*
X98642857Y-120535714D01*
X97928571Y-121178571D02*
X97928571Y-120178571D01*
X97928571Y-120464285D02*
X97857142Y-120321428D01*
X97785714Y-120250000D01*
X97642857Y-120178571D01*
X97499999Y-120178571D01*
X96999999Y-121178571D02*
X96999999Y-119678571D01*
X96857142Y-120607142D02*
X96428571Y-121178571D01*
X96428571Y-120178571D02*
X96999999Y-120750000D01*
X95571428Y-121178571D02*
X95714285Y-121107142D01*
X95785714Y-121035714D01*
X95857142Y-120892857D01*
X95857142Y-120464285D01*
X95785714Y-120321428D01*
X95714285Y-120250000D01*
X95571428Y-120178571D01*
X95357142Y-120178571D01*
X95214285Y-120250000D01*
X95142857Y-120321428D01*
X95071428Y-120464285D01*
X95071428Y-120892857D01*
X95142857Y-121035714D01*
X95214285Y-121107142D01*
X95357142Y-121178571D01*
X95571428Y-121178571D01*
X94428571Y-120178571D02*
X94428571Y-121178571D01*
X94428571Y-120321428D02*
X94357142Y-120250000D01*
X94214285Y-120178571D01*
X93999999Y-120178571D01*
X93857142Y-120250000D01*
X93785714Y-120392857D01*
X93785714Y-121178571D01*
X92499999Y-121107142D02*
X92642857Y-121178571D01*
X92928571Y-121178571D01*
X93071428Y-121107142D01*
X93142857Y-120964285D01*
X93142857Y-120392857D01*
X93071428Y-120250000D01*
X92928571Y-120178571D01*
X92642857Y-120178571D01*
X92499999Y-120250000D01*
X92428571Y-120392857D01*
X92428571Y-120535714D01*
X93142857Y-120678571D01*
X91785714Y-120178571D02*
X91785714Y-121178571D01*
X91785714Y-120321428D02*
X91714285Y-120250000D01*
X91571428Y-120178571D01*
X91357142Y-120178571D01*
X91214285Y-120250000D01*
X91142857Y-120392857D01*
X91142857Y-121178571D01*
X89928571Y-120392857D02*
X89714285Y-120464285D01*
X89642857Y-120535714D01*
X89571428Y-120678571D01*
X89571428Y-120892857D01*
X89642857Y-121035714D01*
X89714285Y-121107142D01*
X89857142Y-121178571D01*
X90428571Y-121178571D01*
X90428571Y-119678571D01*
X89928571Y-119678571D01*
X89785714Y-119750000D01*
X89714285Y-119821428D01*
X89642857Y-119964285D01*
X89642857Y-120107142D01*
X89714285Y-120250000D01*
X89785714Y-120321428D01*
X89928571Y-120392857D01*
X90428571Y-120392857D01*
X88285714Y-121178571D02*
X88285714Y-120392857D01*
X88357142Y-120250000D01*
X88499999Y-120178571D01*
X88785714Y-120178571D01*
X88928571Y-120250000D01*
X88285714Y-121107142D02*
X88428571Y-121178571D01*
X88785714Y-121178571D01*
X88928571Y-121107142D01*
X88999999Y-120964285D01*
X88999999Y-120821428D01*
X88928571Y-120678571D01*
X88785714Y-120607142D01*
X88428571Y-120607142D01*
X88285714Y-120535714D01*
X86928571Y-121178571D02*
X86928571Y-119678571D01*
X86928571Y-121107142D02*
X87071428Y-121178571D01*
X87357142Y-121178571D01*
X87499999Y-121107142D01*
X87571428Y-121035714D01*
X87642857Y-120892857D01*
X87642857Y-120464285D01*
X87571428Y-120321428D01*
X87499999Y-120250000D01*
X87357142Y-120178571D01*
X87071428Y-120178571D01*
X86928571Y-120250000D01*
X85642857Y-121107142D02*
X85785714Y-121178571D01*
X86071428Y-121178571D01*
X86214285Y-121107142D01*
X86285714Y-120964285D01*
X86285714Y-120392857D01*
X86214285Y-120250000D01*
X86071428Y-120178571D01*
X85785714Y-120178571D01*
X85642857Y-120250000D01*
X85571428Y-120392857D01*
X85571428Y-120535714D01*
X86285714Y-120678571D01*
X83857142Y-119607142D02*
X85142857Y-121535714D01*
X83571428Y-120178571D02*
X82999999Y-120178571D01*
X83357142Y-119678571D02*
X83357142Y-120964285D01*
X83285714Y-121107142D01*
X83142857Y-121178571D01*
X82999999Y-121178571D01*
X81928571Y-121107142D02*
X82071428Y-121178571D01*
X82357142Y-121178571D01*
X82499999Y-121107142D01*
X82571428Y-120964285D01*
X82571428Y-120392857D01*
X82499999Y-120250000D01*
X82357142Y-120178571D01*
X82071428Y-120178571D01*
X81928571Y-120250000D01*
X81857142Y-120392857D01*
X81857142Y-120535714D01*
X82571428Y-120678571D01*
X80571428Y-121178571D02*
X80571428Y-120392857D01*
X80642857Y-120250000D01*
X80785714Y-120178571D01*
X81071428Y-120178571D01*
X81214285Y-120250000D01*
X80571428Y-121107142D02*
X80714285Y-121178571D01*
X81071428Y-121178571D01*
X81214285Y-121107142D01*
X81285714Y-120964285D01*
X81285714Y-120821428D01*
X81214285Y-120678571D01*
X81071428Y-120607142D01*
X80714285Y-120607142D01*
X80571428Y-120535714D01*
X80071428Y-120178571D02*
X79499999Y-120178571D01*
X79857142Y-119678571D02*
X79857142Y-120964285D01*
X79785714Y-121107142D01*
X79642857Y-121178571D01*
X79499999Y-121178571D01*
X78999999Y-121178571D02*
X78999999Y-120178571D01*
X78999999Y-119678571D02*
X79071428Y-119750000D01*
X78999999Y-119821428D01*
X78928571Y-119750000D01*
X78999999Y-119678571D01*
X78999999Y-119821428D01*
X78285714Y-121178571D02*
X78285714Y-120178571D01*
X78285714Y-120321428D02*
X78214285Y-120250000D01*
X78071428Y-120178571D01*
X77857142Y-120178571D01*
X77714285Y-120250000D01*
X77642857Y-120392857D01*
X77642857Y-121178571D01*
X77642857Y-120392857D02*
X77571428Y-120250000D01*
X77428571Y-120178571D01*
X77214285Y-120178571D01*
X77071428Y-120250000D01*
X76999999Y-120392857D01*
X76999999Y-121178571D01*
X75714285Y-121107142D02*
X75857142Y-121178571D01*
X76142857Y-121178571D01*
X76285714Y-121107142D01*
X76357142Y-120964285D01*
X76357142Y-120392857D01*
X76285714Y-120250000D01*
X76142857Y-120178571D01*
X75857142Y-120178571D01*
X75714285Y-120250000D01*
X75642857Y-120392857D01*
X75642857Y-120535714D01*
X76357142Y-120678571D01*
X104178571Y-105853571D02*
X103321428Y-105853571D01*
X103750000Y-107353571D02*
X103750000Y-105853571D01*
X102250000Y-107282142D02*
X102392857Y-107353571D01*
X102678571Y-107353571D01*
X102821428Y-107282142D01*
X102892857Y-107139285D01*
X102892857Y-106567857D01*
X102821428Y-106425000D01*
X102678571Y-106353571D01*
X102392857Y-106353571D01*
X102250000Y-106425000D01*
X102178571Y-106567857D01*
X102178571Y-106710714D01*
X102892857Y-106853571D01*
X100892857Y-107353571D02*
X100892857Y-106567857D01*
X100964285Y-106425000D01*
X101107142Y-106353571D01*
X101392857Y-106353571D01*
X101535714Y-106425000D01*
X100892857Y-107282142D02*
X101035714Y-107353571D01*
X101392857Y-107353571D01*
X101535714Y-107282142D01*
X101607142Y-107139285D01*
X101607142Y-106996428D01*
X101535714Y-106853571D01*
X101392857Y-106782142D01*
X101035714Y-106782142D01*
X100892857Y-106710714D01*
X100392857Y-106353571D02*
X99821428Y-106353571D01*
X100178571Y-105853571D02*
X100178571Y-107139285D01*
X100107142Y-107282142D01*
X99964285Y-107353571D01*
X99821428Y-107353571D01*
X99321428Y-107353571D02*
X99321428Y-106353571D01*
X99321428Y-105853571D02*
X99392857Y-105925000D01*
X99321428Y-105996428D01*
X99250000Y-105925000D01*
X99321428Y-105853571D01*
X99321428Y-105996428D01*
X98607142Y-107353571D02*
X98607142Y-106353571D01*
X98607142Y-106496428D02*
X98535714Y-106425000D01*
X98392857Y-106353571D01*
X98178571Y-106353571D01*
X98035714Y-106425000D01*
X97964285Y-106567857D01*
X97964285Y-107353571D01*
X97964285Y-106567857D02*
X97892857Y-106425000D01*
X97750000Y-106353571D01*
X97535714Y-106353571D01*
X97392857Y-106425000D01*
X97321428Y-106567857D01*
X97321428Y-107353571D01*
X96035714Y-107282142D02*
X96178571Y-107353571D01*
X96464285Y-107353571D01*
X96607142Y-107282142D01*
X96678571Y-107139285D01*
X96678571Y-106567857D01*
X96607142Y-106425000D01*
X96464285Y-106353571D01*
X96178571Y-106353571D01*
X96035714Y-106425000D01*
X95964285Y-106567857D01*
X95964285Y-106710714D01*
X96678571Y-106853571D01*
X107607142Y-109903571D02*
X107607142Y-108403571D01*
X107607142Y-109117857D02*
X106750000Y-109117857D01*
X106750000Y-109903571D02*
X106750000Y-108403571D01*
X105392857Y-109903571D02*
X105392857Y-109117857D01*
X105464285Y-108975000D01*
X105607142Y-108903571D01*
X105892857Y-108903571D01*
X106035714Y-108975000D01*
X105392857Y-109832142D02*
X105535714Y-109903571D01*
X105892857Y-109903571D01*
X106035714Y-109832142D01*
X106107142Y-109689285D01*
X106107142Y-109546428D01*
X106035714Y-109403571D01*
X105892857Y-109332142D01*
X105535714Y-109332142D01*
X105392857Y-109260714D01*
X104678571Y-109903571D02*
X104678571Y-108903571D01*
X104678571Y-109189285D02*
X104607142Y-109046428D01*
X104535714Y-108975000D01*
X104392857Y-108903571D01*
X104250000Y-108903571D01*
X103750000Y-109903571D02*
X103750000Y-108403571D01*
X103607142Y-109332142D02*
X103178571Y-109903571D01*
X103178571Y-108903571D02*
X103750000Y-109475000D01*
X102321428Y-109903571D02*
X102464285Y-109832142D01*
X102535714Y-109760714D01*
X102607142Y-109617857D01*
X102607142Y-109189285D01*
X102535714Y-109046428D01*
X102464285Y-108975000D01*
X102321428Y-108903571D01*
X102107142Y-108903571D01*
X101964285Y-108975000D01*
X101892857Y-109046428D01*
X101821428Y-109189285D01*
X101821428Y-109617857D01*
X101892857Y-109760714D01*
X101964285Y-109832142D01*
X102107142Y-109903571D01*
X102321428Y-109903571D01*
X101178571Y-108903571D02*
X101178571Y-109903571D01*
X101178571Y-109046428D02*
X101107142Y-108975000D01*
X100964285Y-108903571D01*
X100750000Y-108903571D01*
X100607142Y-108975000D01*
X100535714Y-109117857D01*
X100535714Y-109903571D01*
X99250000Y-109832142D02*
X99392857Y-109903571D01*
X99678571Y-109903571D01*
X99821428Y-109832142D01*
X99892857Y-109689285D01*
X99892857Y-109117857D01*
X99821428Y-108975000D01*
X99678571Y-108903571D01*
X99392857Y-108903571D01*
X99250000Y-108975000D01*
X99178571Y-109117857D01*
X99178571Y-109260714D01*
X99892857Y-109403571D01*
X98535714Y-108903571D02*
X98535714Y-109903571D01*
X98535714Y-109046428D02*
X98464285Y-108975000D01*
X98321428Y-108903571D01*
X98107142Y-108903571D01*
X97964285Y-108975000D01*
X97892857Y-109117857D01*
X97892857Y-109903571D01*
X96678571Y-109117857D02*
X96464285Y-109189285D01*
X96392857Y-109260714D01*
X96321428Y-109403571D01*
X96321428Y-109617857D01*
X96392857Y-109760714D01*
X96464285Y-109832142D01*
X96607142Y-109903571D01*
X97178571Y-109903571D01*
X97178571Y-108403571D01*
X96678571Y-108403571D01*
X96535714Y-108475000D01*
X96464285Y-108546428D01*
X96392857Y-108689285D01*
X96392857Y-108832142D01*
X96464285Y-108975000D01*
X96535714Y-109046428D01*
X96678571Y-109117857D01*
X97178571Y-109117857D01*
X95035714Y-109903571D02*
X95035714Y-109117857D01*
X95107142Y-108975000D01*
X95250000Y-108903571D01*
X95535714Y-108903571D01*
X95678571Y-108975000D01*
X95035714Y-109832142D02*
X95178571Y-109903571D01*
X95535714Y-109903571D01*
X95678571Y-109832142D01*
X95750000Y-109689285D01*
X95750000Y-109546428D01*
X95678571Y-109403571D01*
X95535714Y-109332142D01*
X95178571Y-109332142D01*
X95035714Y-109260714D01*
X93678571Y-109903571D02*
X93678571Y-108403571D01*
X93678571Y-109832142D02*
X93821428Y-109903571D01*
X94107142Y-109903571D01*
X94250000Y-109832142D01*
X94321428Y-109760714D01*
X94392857Y-109617857D01*
X94392857Y-109189285D01*
X94321428Y-109046428D01*
X94250000Y-108975000D01*
X94107142Y-108903571D01*
X93821428Y-108903571D01*
X93678571Y-108975000D01*
X92392857Y-109832142D02*
X92535714Y-109903571D01*
X92821428Y-109903571D01*
X92964285Y-109832142D01*
X93035714Y-109689285D01*
X93035714Y-109117857D01*
X92964285Y-108975000D01*
X92821428Y-108903571D01*
X92535714Y-108903571D01*
X92392857Y-108975000D01*
X92321428Y-109117857D01*
X92321428Y-109260714D01*
X93035714Y-109403571D01*
X107285714Y-111096428D02*
X107214285Y-111025000D01*
X107071428Y-110953571D01*
X106714285Y-110953571D01*
X106571428Y-111025000D01*
X106500000Y-111096428D01*
X106428571Y-111239285D01*
X106428571Y-111382142D01*
X106500000Y-111596428D01*
X107357142Y-112453571D01*
X106428571Y-112453571D01*
X105500000Y-110953571D02*
X105357142Y-110953571D01*
X105214285Y-111025000D01*
X105142857Y-111096428D01*
X105071428Y-111239285D01*
X105000000Y-111525000D01*
X105000000Y-111882142D01*
X105071428Y-112167857D01*
X105142857Y-112310714D01*
X105214285Y-112382142D01*
X105357142Y-112453571D01*
X105500000Y-112453571D01*
X105642857Y-112382142D01*
X105714285Y-112310714D01*
X105785714Y-112167857D01*
X105857142Y-111882142D01*
X105857142Y-111525000D01*
X105785714Y-111239285D01*
X105714285Y-111096428D01*
X105642857Y-111025000D01*
X105500000Y-110953571D01*
X104428571Y-111096428D02*
X104357142Y-111025000D01*
X104214285Y-110953571D01*
X103857142Y-110953571D01*
X103714285Y-111025000D01*
X103642857Y-111096428D01*
X103571428Y-111239285D01*
X103571428Y-111382142D01*
X103642857Y-111596428D01*
X104500000Y-112453571D01*
X103571428Y-112453571D01*
X102642857Y-110953571D02*
X102500000Y-110953571D01*
X102357142Y-111025000D01*
X102285714Y-111096428D01*
X102214285Y-111239285D01*
X102142857Y-111525000D01*
X102142857Y-111882142D01*
X102214285Y-112167857D01*
X102285714Y-112310714D01*
X102357142Y-112382142D01*
X102500000Y-112453571D01*
X102642857Y-112453571D01*
X102785714Y-112382142D01*
X102857142Y-112310714D01*
X102928571Y-112167857D01*
X103000000Y-111882142D01*
X103000000Y-111525000D01*
X102928571Y-111239285D01*
X102857142Y-111096428D01*
X102785714Y-111025000D01*
X102642857Y-110953571D01*
X101500000Y-111882142D02*
X100357142Y-111882142D01*
X99357142Y-110953571D02*
X99214285Y-110953571D01*
X99071428Y-111025000D01*
X99000000Y-111096428D01*
X98928571Y-111239285D01*
X98857142Y-111525000D01*
X98857142Y-111882142D01*
X98928571Y-112167857D01*
X99000000Y-112310714D01*
X99071428Y-112382142D01*
X99214285Y-112453571D01*
X99357142Y-112453571D01*
X99500000Y-112382142D01*
X99571428Y-112310714D01*
X99642857Y-112167857D01*
X99714285Y-111882142D01*
X99714285Y-111525000D01*
X99642857Y-111239285D01*
X99571428Y-111096428D01*
X99500000Y-111025000D01*
X99357142Y-110953571D01*
X98285714Y-111096428D02*
X98214285Y-111025000D01*
X98071428Y-110953571D01*
X97714285Y-110953571D01*
X97571428Y-111025000D01*
X97500000Y-111096428D01*
X97428571Y-111239285D01*
X97428571Y-111382142D01*
X97500000Y-111596428D01*
X98357142Y-112453571D01*
X97428571Y-112453571D01*
X96785714Y-111882142D02*
X95642857Y-111882142D01*
X94142857Y-112453571D02*
X95000000Y-112453571D01*
X94571428Y-112453571D02*
X94571428Y-110953571D01*
X94714285Y-111167857D01*
X94857142Y-111310714D01*
X95000000Y-111382142D01*
X92857142Y-111453571D02*
X92857142Y-112453571D01*
X93214285Y-110882142D02*
X93571428Y-111953571D01*
X92642857Y-111953571D01*
X102035714Y-115003571D02*
X102535714Y-114289285D01*
X102892857Y-115003571D02*
X102892857Y-113503571D01*
X102321428Y-113503571D01*
X102178571Y-113575000D01*
X102107142Y-113646428D01*
X102035714Y-113789285D01*
X102035714Y-114003571D01*
X102107142Y-114146428D01*
X102178571Y-114217857D01*
X102321428Y-114289285D01*
X102892857Y-114289285D01*
X100821428Y-114932142D02*
X100964285Y-115003571D01*
X101250000Y-115003571D01*
X101392857Y-114932142D01*
X101464285Y-114789285D01*
X101464285Y-114217857D01*
X101392857Y-114075000D01*
X101250000Y-114003571D01*
X100964285Y-114003571D01*
X100821428Y-114075000D01*
X100750000Y-114217857D01*
X100750000Y-114360714D01*
X101464285Y-114503571D01*
X100250000Y-114003571D02*
X99892857Y-115003571D01*
X99535714Y-114003571D01*
X97035714Y-115003571D02*
X97892857Y-115003571D01*
X97464285Y-115003571D02*
X97464285Y-113503571D01*
X97607142Y-113717857D01*
X97750000Y-113860714D01*
X97892857Y-113932142D01*
D11*
X112761904Y-68877380D02*
X113238095Y-68877380D01*
X113238095Y-67877380D01*
X112428571Y-68877380D02*
X112428571Y-68210714D01*
X112428571Y-67877380D02*
X112476190Y-67925000D01*
X112428571Y-67972619D01*
X112380952Y-67925000D01*
X112428571Y-67877380D01*
X112428571Y-67972619D01*
X112095238Y-68210714D02*
X111714285Y-68210714D01*
X111952380Y-67877380D02*
X111952380Y-68734523D01*
X111904761Y-68829761D01*
X111809523Y-68877380D01*
X111714285Y-68877380D01*
X111380952Y-68877380D02*
X111380952Y-67877380D01*
X110952380Y-68877380D02*
X110952380Y-68353571D01*
X111000000Y-68258333D01*
X111095238Y-68210714D01*
X111238095Y-68210714D01*
X111333333Y-68258333D01*
X111380952Y-68305952D01*
X110476190Y-68877380D02*
X110476190Y-68210714D01*
X110476190Y-67877380D02*
X110523809Y-67925000D01*
X110476190Y-67972619D01*
X110428571Y-67925000D01*
X110476190Y-67877380D01*
X110476190Y-67972619D01*
X109571428Y-68210714D02*
X109571428Y-68877380D01*
X110000000Y-68210714D02*
X110000000Y-68734523D01*
X109952380Y-68829761D01*
X109857142Y-68877380D01*
X109714285Y-68877380D01*
X109619047Y-68829761D01*
X109571428Y-68782142D01*
X109095238Y-68877380D02*
X109095238Y-68210714D01*
X109095238Y-68305952D02*
X109047619Y-68258333D01*
X108952380Y-68210714D01*
X108809523Y-68210714D01*
X108714285Y-68258333D01*
X108666666Y-68353571D01*
X108666666Y-68877380D01*
X108666666Y-68353571D02*
X108619047Y-68258333D01*
X108523809Y-68210714D01*
X108380952Y-68210714D01*
X108285714Y-68258333D01*
X108238095Y-68353571D01*
X108238095Y-68877380D01*
X107000000Y-68877380D02*
X107000000Y-67877380D01*
X106619047Y-67877380D01*
X106523809Y-67925000D01*
X106476190Y-67972619D01*
X106428571Y-68067857D01*
X106428571Y-68210714D01*
X106476190Y-68305952D01*
X106523809Y-68353571D01*
X106619047Y-68401190D01*
X107000000Y-68401190D01*
X106000000Y-68877380D02*
X106000000Y-68210714D01*
X106000000Y-68401190D02*
X105952380Y-68305952D01*
X105904761Y-68258333D01*
X105809523Y-68210714D01*
X105714285Y-68210714D01*
X105380952Y-68877380D02*
X105380952Y-68210714D01*
X105380952Y-67877380D02*
X105428571Y-67925000D01*
X105380952Y-67972619D01*
X105333333Y-67925000D01*
X105380952Y-67877380D01*
X105380952Y-67972619D01*
X104904761Y-68877380D02*
X104904761Y-68210714D01*
X104904761Y-68305952D02*
X104857142Y-68258333D01*
X104761904Y-68210714D01*
X104619047Y-68210714D01*
X104523809Y-68258333D01*
X104476190Y-68353571D01*
X104476190Y-68877380D01*
X104476190Y-68353571D02*
X104428571Y-68258333D01*
X104333333Y-68210714D01*
X104190476Y-68210714D01*
X104095238Y-68258333D01*
X104047619Y-68353571D01*
X104047619Y-68877380D01*
X103142857Y-68877380D02*
X103142857Y-68353571D01*
X103190476Y-68258333D01*
X103285714Y-68210714D01*
X103476190Y-68210714D01*
X103571428Y-68258333D01*
X103142857Y-68829761D02*
X103238095Y-68877380D01*
X103476190Y-68877380D01*
X103571428Y-68829761D01*
X103619047Y-68734523D01*
X103619047Y-68639285D01*
X103571428Y-68544047D01*
X103476190Y-68496428D01*
X103238095Y-68496428D01*
X103142857Y-68448809D01*
X102666666Y-68877380D02*
X102666666Y-68210714D01*
X102666666Y-68401190D02*
X102619047Y-68305952D01*
X102571428Y-68258333D01*
X102476190Y-68210714D01*
X102380952Y-68210714D01*
X102142857Y-68210714D02*
X101904761Y-68877380D01*
X101666666Y-68210714D02*
X101904761Y-68877380D01*
X102000000Y-69115476D01*
X102047619Y-69163095D01*
X102142857Y-69210714D01*
X110619047Y-69527380D02*
X110000000Y-69527380D01*
X110333333Y-69908333D01*
X110190476Y-69908333D01*
X110095238Y-69955952D01*
X110047619Y-70003571D01*
X110000000Y-70098809D01*
X110000000Y-70336904D01*
X110047619Y-70432142D01*
X110095238Y-70479761D01*
X110190476Y-70527380D01*
X110476190Y-70527380D01*
X110571428Y-70479761D01*
X110619047Y-70432142D01*
X109571428Y-70432142D02*
X109523809Y-70479761D01*
X109571428Y-70527380D01*
X109619047Y-70479761D01*
X109571428Y-70432142D01*
X109571428Y-70527380D01*
X108619047Y-69527380D02*
X109095238Y-69527380D01*
X109142857Y-70003571D01*
X109095238Y-69955952D01*
X109000000Y-69908333D01*
X108761904Y-69908333D01*
X108666666Y-69955952D01*
X108619047Y-70003571D01*
X108571428Y-70098809D01*
X108571428Y-70336904D01*
X108619047Y-70432142D01*
X108666666Y-70479761D01*
X108761904Y-70527380D01*
X109000000Y-70527380D01*
X109095238Y-70479761D01*
X109142857Y-70432142D01*
X108285714Y-69527380D02*
X107952380Y-70527380D01*
X107619047Y-69527380D01*
X106523809Y-70527380D02*
X106523809Y-69527380D01*
X106190476Y-70241666D01*
X105857142Y-69527380D01*
X105857142Y-70527380D01*
X105380952Y-70527380D02*
X105380952Y-69860714D01*
X105380952Y-69527380D02*
X105428571Y-69575000D01*
X105380952Y-69622619D01*
X105333333Y-69575000D01*
X105380952Y-69527380D01*
X105380952Y-69622619D01*
X104904761Y-69860714D02*
X104904761Y-70527380D01*
X104904761Y-69955952D02*
X104857142Y-69908333D01*
X104761904Y-69860714D01*
X104619047Y-69860714D01*
X104523809Y-69908333D01*
X104476190Y-70003571D01*
X104476190Y-70527380D01*
D10*
X102428571Y-61107142D02*
X103571428Y-61107142D01*
X111428571Y-61107142D02*
X112571428Y-61107142D01*
X112000000Y-61678571D02*
X112000000Y-60535714D01*
D12*
G04 #@! TO.C,HS1*
G36*
X77000000Y-80500000D02*
X77000000Y-80100000D01*
X77400000Y-80100000D01*
X77400000Y-80500000D01*
X77000000Y-80500000D01*
G37*
G36*
X76600000Y-80500000D02*
X76600000Y-80100000D01*
X77000000Y-80100000D01*
X77000000Y-80500000D01*
X76600000Y-80500000D01*
G37*
G36*
X76200000Y-80500000D02*
X76200000Y-80100000D01*
X76600000Y-80100000D01*
X76600000Y-80500000D01*
X76200000Y-80500000D01*
G37*
G36*
X75800000Y-80500000D02*
X75800000Y-80100000D01*
X76200000Y-80100000D01*
X76200000Y-80500000D01*
X75800000Y-80500000D01*
G37*
G36*
X75400000Y-80500000D02*
X75400000Y-80100000D01*
X75800000Y-80100000D01*
X75800000Y-80500000D01*
X75400000Y-80500000D01*
G37*
G36*
X75000000Y-80500000D02*
X75000000Y-80100000D01*
X75400000Y-80100000D01*
X75400000Y-80500000D01*
X75000000Y-80500000D01*
G37*
G36*
X74600000Y-80500000D02*
X74600000Y-80100000D01*
X75000000Y-80100000D01*
X75000000Y-80500000D01*
X74600000Y-80500000D01*
G37*
G36*
X74200000Y-80500000D02*
X74200000Y-80100000D01*
X74600000Y-80100000D01*
X74600000Y-80500000D01*
X74200000Y-80500000D01*
G37*
G36*
X73800000Y-80500000D02*
X73800000Y-80100000D01*
X74200000Y-80100000D01*
X74200000Y-80500000D01*
X73800000Y-80500000D01*
G37*
G36*
X73400000Y-80500000D02*
X73400000Y-80100000D01*
X73800000Y-80100000D01*
X73800000Y-80500000D01*
X73400000Y-80500000D01*
G37*
G36*
X73000000Y-80500000D02*
X73000000Y-80100000D01*
X73400000Y-80100000D01*
X73400000Y-80500000D01*
X73000000Y-80500000D01*
G37*
G36*
X72600000Y-80500000D02*
X72600000Y-80100000D01*
X73000000Y-80100000D01*
X73000000Y-80500000D01*
X72600000Y-80500000D01*
G37*
G36*
X72200000Y-80500000D02*
X72200000Y-80100000D01*
X72600000Y-80100000D01*
X72600000Y-80500000D01*
X72200000Y-80500000D01*
G37*
G36*
X71800000Y-80500000D02*
X71800000Y-80100000D01*
X72200000Y-80100000D01*
X72200000Y-80500000D01*
X71800000Y-80500000D01*
G37*
G36*
X71400000Y-80500000D02*
X71400000Y-80100000D01*
X71800000Y-80100000D01*
X71800000Y-80500000D01*
X71400000Y-80500000D01*
G37*
G36*
X71000000Y-80500000D02*
X71000000Y-80100000D01*
X71400000Y-80100000D01*
X71400000Y-80500000D01*
X71000000Y-80500000D01*
G37*
G36*
X70600000Y-80500000D02*
X70600000Y-80100000D01*
X71000000Y-80100000D01*
X71000000Y-80500000D01*
X70600000Y-80500000D01*
G37*
G36*
X70200000Y-80500000D02*
X70200000Y-80100000D01*
X70600000Y-80100000D01*
X70600000Y-80500000D01*
X70200000Y-80500000D01*
G37*
G36*
X69800000Y-80500000D02*
X69800000Y-80100000D01*
X70200000Y-80100000D01*
X70200000Y-80500000D01*
X69800000Y-80500000D01*
G37*
G36*
X69400000Y-80500000D02*
X69400000Y-80100000D01*
X69800000Y-80100000D01*
X69800000Y-80500000D01*
X69400000Y-80500000D01*
G37*
G36*
X69000000Y-80500000D02*
X69000000Y-80100000D01*
X69400000Y-80100000D01*
X69400000Y-80500000D01*
X69000000Y-80500000D01*
G37*
G36*
X68600000Y-80500000D02*
X68600000Y-80100000D01*
X69000000Y-80100000D01*
X69000000Y-80500000D01*
X68600000Y-80500000D01*
G37*
G36*
X68200000Y-80500000D02*
X68200000Y-80100000D01*
X68600000Y-80100000D01*
X68600000Y-80500000D01*
X68200000Y-80500000D01*
G37*
G36*
X67800000Y-80500000D02*
X67800000Y-80100000D01*
X68200000Y-80100000D01*
X68200000Y-80500000D01*
X67800000Y-80500000D01*
G37*
G36*
X67400000Y-80500000D02*
X67400000Y-80100000D01*
X67800000Y-80100000D01*
X67800000Y-80500000D01*
X67400000Y-80500000D01*
G37*
G36*
X67000000Y-80500000D02*
X67000000Y-80100000D01*
X67400000Y-80100000D01*
X67400000Y-80500000D01*
X67000000Y-80500000D01*
G37*
G36*
X66600000Y-80500000D02*
X66600000Y-80100000D01*
X67000000Y-80100000D01*
X67000000Y-80500000D01*
X66600000Y-80500000D01*
G37*
G36*
X66200000Y-80500000D02*
X66200000Y-80100000D01*
X66600000Y-80100000D01*
X66600000Y-80500000D01*
X66200000Y-80500000D01*
G37*
G36*
X65800000Y-80500000D02*
X65800000Y-80100000D01*
X66200000Y-80100000D01*
X66200000Y-80500000D01*
X65800000Y-80500000D01*
G37*
G36*
X65400000Y-80500000D02*
X65400000Y-80100000D01*
X65800000Y-80100000D01*
X65800000Y-80500000D01*
X65400000Y-80500000D01*
G37*
G36*
X65000000Y-80500000D02*
X65000000Y-80100000D01*
X65400000Y-80100000D01*
X65400000Y-80500000D01*
X65000000Y-80500000D01*
G37*
G36*
X64600000Y-80500000D02*
X64600000Y-80100000D01*
X65000000Y-80100000D01*
X65000000Y-80500000D01*
X64600000Y-80500000D01*
G37*
G36*
X64200000Y-80500000D02*
X64200000Y-80100000D01*
X64600000Y-80100000D01*
X64600000Y-80500000D01*
X64200000Y-80500000D01*
G37*
G36*
X63800000Y-80500000D02*
X63800000Y-80100000D01*
X64200000Y-80100000D01*
X64200000Y-80500000D01*
X63800000Y-80500000D01*
G37*
G36*
X63400000Y-80500000D02*
X63400000Y-80100000D01*
X63800000Y-80100000D01*
X63800000Y-80500000D01*
X63400000Y-80500000D01*
G37*
G36*
X63000000Y-80500000D02*
X63000000Y-80100000D01*
X63400000Y-80100000D01*
X63400000Y-80500000D01*
X63000000Y-80500000D01*
G37*
G36*
X62600000Y-80500000D02*
X62600000Y-80100000D01*
X63000000Y-80100000D01*
X63000000Y-80500000D01*
X62600000Y-80500000D01*
G37*
G36*
X77000000Y-80900000D02*
X77000000Y-80500000D01*
X77400000Y-80500000D01*
X77400000Y-80900000D01*
X77000000Y-80900000D01*
G37*
G36*
X76600000Y-80900000D02*
X76600000Y-80500000D01*
X77000000Y-80500000D01*
X77000000Y-80900000D01*
X76600000Y-80900000D01*
G37*
G36*
X76200000Y-80900000D02*
X76200000Y-80500000D01*
X76600000Y-80500000D01*
X76600000Y-80900000D01*
X76200000Y-80900000D01*
G37*
G36*
X75800000Y-80900000D02*
X75800000Y-80500000D01*
X76200000Y-80500000D01*
X76200000Y-80900000D01*
X75800000Y-80900000D01*
G37*
G36*
X75400000Y-80900000D02*
X75400000Y-80500000D01*
X75800000Y-80500000D01*
X75800000Y-80900000D01*
X75400000Y-80900000D01*
G37*
G36*
X75000000Y-80900000D02*
X75000000Y-80500000D01*
X75400000Y-80500000D01*
X75400000Y-80900000D01*
X75000000Y-80900000D01*
G37*
G36*
X74600000Y-80900000D02*
X74600000Y-80500000D01*
X75000000Y-80500000D01*
X75000000Y-80900000D01*
X74600000Y-80900000D01*
G37*
G36*
X74200000Y-80900000D02*
X74200000Y-80500000D01*
X74600000Y-80500000D01*
X74600000Y-80900000D01*
X74200000Y-80900000D01*
G37*
G36*
X73800000Y-80900000D02*
X73800000Y-80500000D01*
X74200000Y-80500000D01*
X74200000Y-80900000D01*
X73800000Y-80900000D01*
G37*
G36*
X73400000Y-80900000D02*
X73400000Y-80500000D01*
X73800000Y-80500000D01*
X73800000Y-80900000D01*
X73400000Y-80900000D01*
G37*
G36*
X73000000Y-80900000D02*
X73000000Y-80500000D01*
X73400000Y-80500000D01*
X73400000Y-80900000D01*
X73000000Y-80900000D01*
G37*
G36*
X72600000Y-80900000D02*
X72600000Y-80500000D01*
X73000000Y-80500000D01*
X73000000Y-80900000D01*
X72600000Y-80900000D01*
G37*
G36*
X72200000Y-80900000D02*
X72200000Y-80500000D01*
X72600000Y-80500000D01*
X72600000Y-80900000D01*
X72200000Y-80900000D01*
G37*
G36*
X71800000Y-80900000D02*
X71800000Y-80500000D01*
X72200000Y-80500000D01*
X72200000Y-80900000D01*
X71800000Y-80900000D01*
G37*
G36*
X71400000Y-80900000D02*
X71400000Y-80500000D01*
X71800000Y-80500000D01*
X71800000Y-80900000D01*
X71400000Y-80900000D01*
G37*
G36*
X71000000Y-80900000D02*
X71000000Y-80500000D01*
X71400000Y-80500000D01*
X71400000Y-80900000D01*
X71000000Y-80900000D01*
G37*
G36*
X70600000Y-80900000D02*
X70600000Y-80500000D01*
X71000000Y-80500000D01*
X71000000Y-80900000D01*
X70600000Y-80900000D01*
G37*
G36*
X70200000Y-80900000D02*
X70200000Y-80500000D01*
X70600000Y-80500000D01*
X70600000Y-80900000D01*
X70200000Y-80900000D01*
G37*
G36*
X69800000Y-80900000D02*
X69800000Y-80500000D01*
X70200000Y-80500000D01*
X70200000Y-80900000D01*
X69800000Y-80900000D01*
G37*
G36*
X69400000Y-80900000D02*
X69400000Y-80500000D01*
X69800000Y-80500000D01*
X69800000Y-80900000D01*
X69400000Y-80900000D01*
G37*
G36*
X69000000Y-80900000D02*
X69000000Y-80500000D01*
X69400000Y-80500000D01*
X69400000Y-80900000D01*
X69000000Y-80900000D01*
G37*
G36*
X68600000Y-80900000D02*
X68600000Y-80500000D01*
X69000000Y-80500000D01*
X69000000Y-80900000D01*
X68600000Y-80900000D01*
G37*
G36*
X68200000Y-80900000D02*
X68200000Y-80500000D01*
X68600000Y-80500000D01*
X68600000Y-80900000D01*
X68200000Y-80900000D01*
G37*
G36*
X67800000Y-80900000D02*
X67800000Y-80500000D01*
X68200000Y-80500000D01*
X68200000Y-80900000D01*
X67800000Y-80900000D01*
G37*
G36*
X67400000Y-80900000D02*
X67400000Y-80500000D01*
X67800000Y-80500000D01*
X67800000Y-80900000D01*
X67400000Y-80900000D01*
G37*
G36*
X67000000Y-80900000D02*
X67000000Y-80500000D01*
X67400000Y-80500000D01*
X67400000Y-80900000D01*
X67000000Y-80900000D01*
G37*
G36*
X66600000Y-80900000D02*
X66600000Y-80500000D01*
X67000000Y-80500000D01*
X67000000Y-80900000D01*
X66600000Y-80900000D01*
G37*
G36*
X66200000Y-80900000D02*
X66200000Y-80500000D01*
X66600000Y-80500000D01*
X66600000Y-80900000D01*
X66200000Y-80900000D01*
G37*
G36*
X65800000Y-80900000D02*
X65800000Y-80500000D01*
X66200000Y-80500000D01*
X66200000Y-80900000D01*
X65800000Y-80900000D01*
G37*
G36*
X65400000Y-80900000D02*
X65400000Y-80500000D01*
X65800000Y-80500000D01*
X65800000Y-80900000D01*
X65400000Y-80900000D01*
G37*
G36*
X65000000Y-80900000D02*
X65000000Y-80500000D01*
X65400000Y-80500000D01*
X65400000Y-80900000D01*
X65000000Y-80900000D01*
G37*
G36*
X64600000Y-80900000D02*
X64600000Y-80500000D01*
X65000000Y-80500000D01*
X65000000Y-80900000D01*
X64600000Y-80900000D01*
G37*
G36*
X64200000Y-80900000D02*
X64200000Y-80500000D01*
X64600000Y-80500000D01*
X64600000Y-80900000D01*
X64200000Y-80900000D01*
G37*
G36*
X63800000Y-80900000D02*
X63800000Y-80500000D01*
X64200000Y-80500000D01*
X64200000Y-80900000D01*
X63800000Y-80900000D01*
G37*
G36*
X63400000Y-80900000D02*
X63400000Y-80500000D01*
X63800000Y-80500000D01*
X63800000Y-80900000D01*
X63400000Y-80900000D01*
G37*
G36*
X63000000Y-80900000D02*
X63000000Y-80500000D01*
X63400000Y-80500000D01*
X63400000Y-80900000D01*
X63000000Y-80900000D01*
G37*
G36*
X62600000Y-80900000D02*
X62600000Y-80500000D01*
X63000000Y-80500000D01*
X63000000Y-80900000D01*
X62600000Y-80900000D01*
G37*
G36*
X77000000Y-81300000D02*
X77000000Y-80900000D01*
X77400000Y-80900000D01*
X77400000Y-81300000D01*
X77000000Y-81300000D01*
G37*
G36*
X76600000Y-81300000D02*
X76600000Y-80900000D01*
X77000000Y-80900000D01*
X77000000Y-81300000D01*
X76600000Y-81300000D01*
G37*
G36*
X73400000Y-81300000D02*
X73400000Y-80900000D01*
X73800000Y-80900000D01*
X73800000Y-81300000D01*
X73400000Y-81300000D01*
G37*
G36*
X72600000Y-81300000D02*
X72600000Y-80900000D01*
X73000000Y-80900000D01*
X73000000Y-81300000D01*
X72600000Y-81300000D01*
G37*
G36*
X72200000Y-81300000D02*
X72200000Y-80900000D01*
X72600000Y-80900000D01*
X72600000Y-81300000D01*
X72200000Y-81300000D01*
G37*
G36*
X71400000Y-81300000D02*
X71400000Y-80900000D01*
X71800000Y-80900000D01*
X71800000Y-81300000D01*
X71400000Y-81300000D01*
G37*
G36*
X69400000Y-81300000D02*
X69400000Y-80900000D01*
X69800000Y-80900000D01*
X69800000Y-81300000D01*
X69400000Y-81300000D01*
G37*
G36*
X69000000Y-81300000D02*
X69000000Y-80900000D01*
X69400000Y-80900000D01*
X69400000Y-81300000D01*
X69000000Y-81300000D01*
G37*
G36*
X68600000Y-81300000D02*
X68600000Y-80900000D01*
X69000000Y-80900000D01*
X69000000Y-81300000D01*
X68600000Y-81300000D01*
G37*
G36*
X68200000Y-81300000D02*
X68200000Y-80900000D01*
X68600000Y-80900000D01*
X68600000Y-81300000D01*
X68200000Y-81300000D01*
G37*
G36*
X67800000Y-81300000D02*
X67800000Y-80900000D01*
X68200000Y-80900000D01*
X68200000Y-81300000D01*
X67800000Y-81300000D01*
G37*
G36*
X67400000Y-81300000D02*
X67400000Y-80900000D01*
X67800000Y-80900000D01*
X67800000Y-81300000D01*
X67400000Y-81300000D01*
G37*
G36*
X66600000Y-81300000D02*
X66600000Y-80900000D01*
X67000000Y-80900000D01*
X67000000Y-81300000D01*
X66600000Y-81300000D01*
G37*
G36*
X66200000Y-81300000D02*
X66200000Y-80900000D01*
X66600000Y-80900000D01*
X66600000Y-81300000D01*
X66200000Y-81300000D01*
G37*
G36*
X63000000Y-81300000D02*
X63000000Y-80900000D01*
X63400000Y-80900000D01*
X63400000Y-81300000D01*
X63000000Y-81300000D01*
G37*
G36*
X62600000Y-81300000D02*
X62600000Y-80900000D01*
X63000000Y-80900000D01*
X63000000Y-81300000D01*
X62600000Y-81300000D01*
G37*
G36*
X77000000Y-81700000D02*
X77000000Y-81300000D01*
X77400000Y-81300000D01*
X77400000Y-81700000D01*
X77000000Y-81700000D01*
G37*
G36*
X76600000Y-81700000D02*
X76600000Y-81300000D01*
X77000000Y-81300000D01*
X77000000Y-81700000D01*
X76600000Y-81700000D01*
G37*
G36*
X75800000Y-81700000D02*
X75800000Y-81300000D01*
X76200000Y-81300000D01*
X76200000Y-81700000D01*
X75800000Y-81700000D01*
G37*
G36*
X75400000Y-81700000D02*
X75400000Y-81300000D01*
X75800000Y-81300000D01*
X75800000Y-81700000D01*
X75400000Y-81700000D01*
G37*
G36*
X75000000Y-81700000D02*
X75000000Y-81300000D01*
X75400000Y-81300000D01*
X75400000Y-81700000D01*
X75000000Y-81700000D01*
G37*
G36*
X74600000Y-81700000D02*
X74600000Y-81300000D01*
X75000000Y-81300000D01*
X75000000Y-81700000D01*
X74600000Y-81700000D01*
G37*
G36*
X74200000Y-81700000D02*
X74200000Y-81300000D01*
X74600000Y-81300000D01*
X74600000Y-81700000D01*
X74200000Y-81700000D01*
G37*
G36*
X73400000Y-81700000D02*
X73400000Y-81300000D01*
X73800000Y-81300000D01*
X73800000Y-81700000D01*
X73400000Y-81700000D01*
G37*
G36*
X73000000Y-81700000D02*
X73000000Y-81300000D01*
X73400000Y-81300000D01*
X73400000Y-81700000D01*
X73000000Y-81700000D01*
G37*
G36*
X72200000Y-81700000D02*
X72200000Y-81300000D01*
X72600000Y-81300000D01*
X72600000Y-81700000D01*
X72200000Y-81700000D01*
G37*
G36*
X70200000Y-81700000D02*
X70200000Y-81300000D01*
X70600000Y-81300000D01*
X70600000Y-81700000D01*
X70200000Y-81700000D01*
G37*
G36*
X69400000Y-81700000D02*
X69400000Y-81300000D01*
X69800000Y-81300000D01*
X69800000Y-81700000D01*
X69400000Y-81700000D01*
G37*
G36*
X68200000Y-81700000D02*
X68200000Y-81300000D01*
X68600000Y-81300000D01*
X68600000Y-81700000D01*
X68200000Y-81700000D01*
G37*
G36*
X67800000Y-81700000D02*
X67800000Y-81300000D01*
X68200000Y-81300000D01*
X68200000Y-81700000D01*
X67800000Y-81700000D01*
G37*
G36*
X67400000Y-81700000D02*
X67400000Y-81300000D01*
X67800000Y-81300000D01*
X67800000Y-81700000D01*
X67400000Y-81700000D01*
G37*
G36*
X67000000Y-81700000D02*
X67000000Y-81300000D01*
X67400000Y-81300000D01*
X67400000Y-81700000D01*
X67000000Y-81700000D01*
G37*
G36*
X66600000Y-81700000D02*
X66600000Y-81300000D01*
X67000000Y-81300000D01*
X67000000Y-81700000D01*
X66600000Y-81700000D01*
G37*
G36*
X66200000Y-81700000D02*
X66200000Y-81300000D01*
X66600000Y-81300000D01*
X66600000Y-81700000D01*
X66200000Y-81700000D01*
G37*
G36*
X65400000Y-81700000D02*
X65400000Y-81300000D01*
X65800000Y-81300000D01*
X65800000Y-81700000D01*
X65400000Y-81700000D01*
G37*
G36*
X65000000Y-81700000D02*
X65000000Y-81300000D01*
X65400000Y-81300000D01*
X65400000Y-81700000D01*
X65000000Y-81700000D01*
G37*
G36*
X64600000Y-81700000D02*
X64600000Y-81300000D01*
X65000000Y-81300000D01*
X65000000Y-81700000D01*
X64600000Y-81700000D01*
G37*
G36*
X64200000Y-81700000D02*
X64200000Y-81300000D01*
X64600000Y-81300000D01*
X64600000Y-81700000D01*
X64200000Y-81700000D01*
G37*
G36*
X63800000Y-81700000D02*
X63800000Y-81300000D01*
X64200000Y-81300000D01*
X64200000Y-81700000D01*
X63800000Y-81700000D01*
G37*
G36*
X63000000Y-81700000D02*
X63000000Y-81300000D01*
X63400000Y-81300000D01*
X63400000Y-81700000D01*
X63000000Y-81700000D01*
G37*
G36*
X62600000Y-81700000D02*
X62600000Y-81300000D01*
X63000000Y-81300000D01*
X63000000Y-81700000D01*
X62600000Y-81700000D01*
G37*
G36*
X77000000Y-82100000D02*
X77000000Y-81700000D01*
X77400000Y-81700000D01*
X77400000Y-82100000D01*
X77000000Y-82100000D01*
G37*
G36*
X76600000Y-82100000D02*
X76600000Y-81700000D01*
X77000000Y-81700000D01*
X77000000Y-82100000D01*
X76600000Y-82100000D01*
G37*
G36*
X75800000Y-82100000D02*
X75800000Y-81700000D01*
X76200000Y-81700000D01*
X76200000Y-82100000D01*
X75800000Y-82100000D01*
G37*
G36*
X74200000Y-82100000D02*
X74200000Y-81700000D01*
X74600000Y-81700000D01*
X74600000Y-82100000D01*
X74200000Y-82100000D01*
G37*
G36*
X73400000Y-82100000D02*
X73400000Y-81700000D01*
X73800000Y-81700000D01*
X73800000Y-82100000D01*
X73400000Y-82100000D01*
G37*
G36*
X73000000Y-82100000D02*
X73000000Y-81700000D01*
X73400000Y-81700000D01*
X73400000Y-82100000D01*
X73000000Y-82100000D01*
G37*
G36*
X71800000Y-82100000D02*
X71800000Y-81700000D01*
X72200000Y-81700000D01*
X72200000Y-82100000D01*
X71800000Y-82100000D01*
G37*
G36*
X71400000Y-82100000D02*
X71400000Y-81700000D01*
X71800000Y-81700000D01*
X71800000Y-82100000D01*
X71400000Y-82100000D01*
G37*
G36*
X71000000Y-82100000D02*
X71000000Y-81700000D01*
X71400000Y-81700000D01*
X71400000Y-82100000D01*
X71000000Y-82100000D01*
G37*
G36*
X68600000Y-82100000D02*
X68600000Y-81700000D01*
X69000000Y-81700000D01*
X69000000Y-82100000D01*
X68600000Y-82100000D01*
G37*
G36*
X68200000Y-82100000D02*
X68200000Y-81700000D01*
X68600000Y-81700000D01*
X68600000Y-82100000D01*
X68200000Y-82100000D01*
G37*
G36*
X67400000Y-82100000D02*
X67400000Y-81700000D01*
X67800000Y-81700000D01*
X67800000Y-82100000D01*
X67400000Y-82100000D01*
G37*
G36*
X66200000Y-82100000D02*
X66200000Y-81700000D01*
X66600000Y-81700000D01*
X66600000Y-82100000D01*
X66200000Y-82100000D01*
G37*
G36*
X65400000Y-82100000D02*
X65400000Y-81700000D01*
X65800000Y-81700000D01*
X65800000Y-82100000D01*
X65400000Y-82100000D01*
G37*
G36*
X63800000Y-82100000D02*
X63800000Y-81700000D01*
X64200000Y-81700000D01*
X64200000Y-82100000D01*
X63800000Y-82100000D01*
G37*
G36*
X63000000Y-82100000D02*
X63000000Y-81700000D01*
X63400000Y-81700000D01*
X63400000Y-82100000D01*
X63000000Y-82100000D01*
G37*
G36*
X62600000Y-82100000D02*
X62600000Y-81700000D01*
X63000000Y-81700000D01*
X63000000Y-82100000D01*
X62600000Y-82100000D01*
G37*
G36*
X77000000Y-82500000D02*
X77000000Y-82100000D01*
X77400000Y-82100000D01*
X77400000Y-82500000D01*
X77000000Y-82500000D01*
G37*
G36*
X76600000Y-82500000D02*
X76600000Y-82100000D01*
X77000000Y-82100000D01*
X77000000Y-82500000D01*
X76600000Y-82500000D01*
G37*
G36*
X75800000Y-82500000D02*
X75800000Y-82100000D01*
X76200000Y-82100000D01*
X76200000Y-82500000D01*
X75800000Y-82500000D01*
G37*
G36*
X74200000Y-82500000D02*
X74200000Y-82100000D01*
X74600000Y-82100000D01*
X74600000Y-82500000D01*
X74200000Y-82500000D01*
G37*
G36*
X73400000Y-82500000D02*
X73400000Y-82100000D01*
X73800000Y-82100000D01*
X73800000Y-82500000D01*
X73400000Y-82500000D01*
G37*
G36*
X71800000Y-82500000D02*
X71800000Y-82100000D01*
X72200000Y-82100000D01*
X72200000Y-82500000D01*
X71800000Y-82500000D01*
G37*
G36*
X71400000Y-82500000D02*
X71400000Y-82100000D01*
X71800000Y-82100000D01*
X71800000Y-82500000D01*
X71400000Y-82500000D01*
G37*
G36*
X71000000Y-82500000D02*
X71000000Y-82100000D01*
X71400000Y-82100000D01*
X71400000Y-82500000D01*
X71000000Y-82500000D01*
G37*
G36*
X70600000Y-82500000D02*
X70600000Y-82100000D01*
X71000000Y-82100000D01*
X71000000Y-82500000D01*
X70600000Y-82500000D01*
G37*
G36*
X69000000Y-82500000D02*
X69000000Y-82100000D01*
X69400000Y-82100000D01*
X69400000Y-82500000D01*
X69000000Y-82500000D01*
G37*
G36*
X68600000Y-82500000D02*
X68600000Y-82100000D01*
X69000000Y-82100000D01*
X69000000Y-82500000D01*
X68600000Y-82500000D01*
G37*
G36*
X68200000Y-82500000D02*
X68200000Y-82100000D01*
X68600000Y-82100000D01*
X68600000Y-82500000D01*
X68200000Y-82500000D01*
G37*
G36*
X66600000Y-82500000D02*
X66600000Y-82100000D01*
X67000000Y-82100000D01*
X67000000Y-82500000D01*
X66600000Y-82500000D01*
G37*
G36*
X66200000Y-82500000D02*
X66200000Y-82100000D01*
X66600000Y-82100000D01*
X66600000Y-82500000D01*
X66200000Y-82500000D01*
G37*
G36*
X65400000Y-82500000D02*
X65400000Y-82100000D01*
X65800000Y-82100000D01*
X65800000Y-82500000D01*
X65400000Y-82500000D01*
G37*
G36*
X63800000Y-82500000D02*
X63800000Y-82100000D01*
X64200000Y-82100000D01*
X64200000Y-82500000D01*
X63800000Y-82500000D01*
G37*
G36*
X63000000Y-82500000D02*
X63000000Y-82100000D01*
X63400000Y-82100000D01*
X63400000Y-82500000D01*
X63000000Y-82500000D01*
G37*
G36*
X62600000Y-82500000D02*
X62600000Y-82100000D01*
X63000000Y-82100000D01*
X63000000Y-82500000D01*
X62600000Y-82500000D01*
G37*
G36*
X77000000Y-82900000D02*
X77000000Y-82500000D01*
X77400000Y-82500000D01*
X77400000Y-82900000D01*
X77000000Y-82900000D01*
G37*
G36*
X76600000Y-82900000D02*
X76600000Y-82500000D01*
X77000000Y-82500000D01*
X77000000Y-82900000D01*
X76600000Y-82900000D01*
G37*
G36*
X75800000Y-82900000D02*
X75800000Y-82500000D01*
X76200000Y-82500000D01*
X76200000Y-82900000D01*
X75800000Y-82900000D01*
G37*
G36*
X74200000Y-82900000D02*
X74200000Y-82500000D01*
X74600000Y-82500000D01*
X74600000Y-82900000D01*
X74200000Y-82900000D01*
G37*
G36*
X73400000Y-82900000D02*
X73400000Y-82500000D01*
X73800000Y-82500000D01*
X73800000Y-82900000D01*
X73400000Y-82900000D01*
G37*
G36*
X71400000Y-82900000D02*
X71400000Y-82500000D01*
X71800000Y-82500000D01*
X71800000Y-82900000D01*
X71400000Y-82900000D01*
G37*
G36*
X70600000Y-82900000D02*
X70600000Y-82500000D01*
X71000000Y-82500000D01*
X71000000Y-82900000D01*
X70600000Y-82900000D01*
G37*
G36*
X70200000Y-82900000D02*
X70200000Y-82500000D01*
X70600000Y-82500000D01*
X70600000Y-82900000D01*
X70200000Y-82900000D01*
G37*
G36*
X69400000Y-82900000D02*
X69400000Y-82500000D01*
X69800000Y-82500000D01*
X69800000Y-82900000D01*
X69400000Y-82900000D01*
G37*
G36*
X69000000Y-82900000D02*
X69000000Y-82500000D01*
X69400000Y-82500000D01*
X69400000Y-82900000D01*
X69000000Y-82900000D01*
G37*
G36*
X68200000Y-82900000D02*
X68200000Y-82500000D01*
X68600000Y-82500000D01*
X68600000Y-82900000D01*
X68200000Y-82900000D01*
G37*
G36*
X67800000Y-82900000D02*
X67800000Y-82500000D01*
X68200000Y-82500000D01*
X68200000Y-82900000D01*
X67800000Y-82900000D01*
G37*
G36*
X67000000Y-82900000D02*
X67000000Y-82500000D01*
X67400000Y-82500000D01*
X67400000Y-82900000D01*
X67000000Y-82900000D01*
G37*
G36*
X66600000Y-82900000D02*
X66600000Y-82500000D01*
X67000000Y-82500000D01*
X67000000Y-82900000D01*
X66600000Y-82900000D01*
G37*
G36*
X66200000Y-82900000D02*
X66200000Y-82500000D01*
X66600000Y-82500000D01*
X66600000Y-82900000D01*
X66200000Y-82900000D01*
G37*
G36*
X65400000Y-82900000D02*
X65400000Y-82500000D01*
X65800000Y-82500000D01*
X65800000Y-82900000D01*
X65400000Y-82900000D01*
G37*
G36*
X63800000Y-82900000D02*
X63800000Y-82500000D01*
X64200000Y-82500000D01*
X64200000Y-82900000D01*
X63800000Y-82900000D01*
G37*
G36*
X63000000Y-82900000D02*
X63000000Y-82500000D01*
X63400000Y-82500000D01*
X63400000Y-82900000D01*
X63000000Y-82900000D01*
G37*
G36*
X62600000Y-82900000D02*
X62600000Y-82500000D01*
X63000000Y-82500000D01*
X63000000Y-82900000D01*
X62600000Y-82900000D01*
G37*
G36*
X77000000Y-83300000D02*
X77000000Y-82900000D01*
X77400000Y-82900000D01*
X77400000Y-83300000D01*
X77000000Y-83300000D01*
G37*
G36*
X76600000Y-83300000D02*
X76600000Y-82900000D01*
X77000000Y-82900000D01*
X77000000Y-83300000D01*
X76600000Y-83300000D01*
G37*
G36*
X75800000Y-83300000D02*
X75800000Y-82900000D01*
X76200000Y-82900000D01*
X76200000Y-83300000D01*
X75800000Y-83300000D01*
G37*
G36*
X75400000Y-83300000D02*
X75400000Y-82900000D01*
X75800000Y-82900000D01*
X75800000Y-83300000D01*
X75400000Y-83300000D01*
G37*
G36*
X75000000Y-83300000D02*
X75000000Y-82900000D01*
X75400000Y-82900000D01*
X75400000Y-83300000D01*
X75000000Y-83300000D01*
G37*
G36*
X74600000Y-83300000D02*
X74600000Y-82900000D01*
X75000000Y-82900000D01*
X75000000Y-83300000D01*
X74600000Y-83300000D01*
G37*
G36*
X74200000Y-83300000D02*
X74200000Y-82900000D01*
X74600000Y-82900000D01*
X74600000Y-83300000D01*
X74200000Y-83300000D01*
G37*
G36*
X73400000Y-83300000D02*
X73400000Y-82900000D01*
X73800000Y-82900000D01*
X73800000Y-83300000D01*
X73400000Y-83300000D01*
G37*
G36*
X72200000Y-83300000D02*
X72200000Y-82900000D01*
X72600000Y-82900000D01*
X72600000Y-83300000D01*
X72200000Y-83300000D01*
G37*
G36*
X71800000Y-83300000D02*
X71800000Y-82900000D01*
X72200000Y-82900000D01*
X72200000Y-83300000D01*
X71800000Y-83300000D01*
G37*
G36*
X70600000Y-83300000D02*
X70600000Y-82900000D01*
X71000000Y-82900000D01*
X71000000Y-83300000D01*
X70600000Y-83300000D01*
G37*
G36*
X69800000Y-83300000D02*
X69800000Y-82900000D01*
X70200000Y-82900000D01*
X70200000Y-83300000D01*
X69800000Y-83300000D01*
G37*
G36*
X68600000Y-83300000D02*
X68600000Y-82900000D01*
X69000000Y-82900000D01*
X69000000Y-83300000D01*
X68600000Y-83300000D01*
G37*
G36*
X67400000Y-83300000D02*
X67400000Y-82900000D01*
X67800000Y-82900000D01*
X67800000Y-83300000D01*
X67400000Y-83300000D01*
G37*
G36*
X66200000Y-83300000D02*
X66200000Y-82900000D01*
X66600000Y-82900000D01*
X66600000Y-83300000D01*
X66200000Y-83300000D01*
G37*
G36*
X65400000Y-83300000D02*
X65400000Y-82900000D01*
X65800000Y-82900000D01*
X65800000Y-83300000D01*
X65400000Y-83300000D01*
G37*
G36*
X65000000Y-83300000D02*
X65000000Y-82900000D01*
X65400000Y-82900000D01*
X65400000Y-83300000D01*
X65000000Y-83300000D01*
G37*
G36*
X64600000Y-83300000D02*
X64600000Y-82900000D01*
X65000000Y-82900000D01*
X65000000Y-83300000D01*
X64600000Y-83300000D01*
G37*
G36*
X64200000Y-83300000D02*
X64200000Y-82900000D01*
X64600000Y-82900000D01*
X64600000Y-83300000D01*
X64200000Y-83300000D01*
G37*
G36*
X63800000Y-83300000D02*
X63800000Y-82900000D01*
X64200000Y-82900000D01*
X64200000Y-83300000D01*
X63800000Y-83300000D01*
G37*
G36*
X63000000Y-83300000D02*
X63000000Y-82900000D01*
X63400000Y-82900000D01*
X63400000Y-83300000D01*
X63000000Y-83300000D01*
G37*
G36*
X62600000Y-83300000D02*
X62600000Y-82900000D01*
X63000000Y-82900000D01*
X63000000Y-83300000D01*
X62600000Y-83300000D01*
G37*
G36*
X77000000Y-83700000D02*
X77000000Y-83300000D01*
X77400000Y-83300000D01*
X77400000Y-83700000D01*
X77000000Y-83700000D01*
G37*
G36*
X76600000Y-83700000D02*
X76600000Y-83300000D01*
X77000000Y-83300000D01*
X77000000Y-83700000D01*
X76600000Y-83700000D01*
G37*
G36*
X73400000Y-83700000D02*
X73400000Y-83300000D01*
X73800000Y-83300000D01*
X73800000Y-83700000D01*
X73400000Y-83700000D01*
G37*
G36*
X72600000Y-83700000D02*
X72600000Y-83300000D01*
X73000000Y-83300000D01*
X73000000Y-83700000D01*
X72600000Y-83700000D01*
G37*
G36*
X71800000Y-83700000D02*
X71800000Y-83300000D01*
X72200000Y-83300000D01*
X72200000Y-83700000D01*
X71800000Y-83700000D01*
G37*
G36*
X71000000Y-83700000D02*
X71000000Y-83300000D01*
X71400000Y-83300000D01*
X71400000Y-83700000D01*
X71000000Y-83700000D01*
G37*
G36*
X70200000Y-83700000D02*
X70200000Y-83300000D01*
X70600000Y-83300000D01*
X70600000Y-83700000D01*
X70200000Y-83700000D01*
G37*
G36*
X69400000Y-83700000D02*
X69400000Y-83300000D01*
X69800000Y-83300000D01*
X69800000Y-83700000D01*
X69400000Y-83700000D01*
G37*
G36*
X68600000Y-83700000D02*
X68600000Y-83300000D01*
X69000000Y-83300000D01*
X69000000Y-83700000D01*
X68600000Y-83700000D01*
G37*
G36*
X67800000Y-83700000D02*
X67800000Y-83300000D01*
X68200000Y-83300000D01*
X68200000Y-83700000D01*
X67800000Y-83700000D01*
G37*
G36*
X67000000Y-83700000D02*
X67000000Y-83300000D01*
X67400000Y-83300000D01*
X67400000Y-83700000D01*
X67000000Y-83700000D01*
G37*
G36*
X66200000Y-83700000D02*
X66200000Y-83300000D01*
X66600000Y-83300000D01*
X66600000Y-83700000D01*
X66200000Y-83700000D01*
G37*
G36*
X63000000Y-83700000D02*
X63000000Y-83300000D01*
X63400000Y-83300000D01*
X63400000Y-83700000D01*
X63000000Y-83700000D01*
G37*
G36*
X62600000Y-83700000D02*
X62600000Y-83300000D01*
X63000000Y-83300000D01*
X63000000Y-83700000D01*
X62600000Y-83700000D01*
G37*
G36*
X77000000Y-84100000D02*
X77000000Y-83700000D01*
X77400000Y-83700000D01*
X77400000Y-84100000D01*
X77000000Y-84100000D01*
G37*
G36*
X76600000Y-84100000D02*
X76600000Y-83700000D01*
X77000000Y-83700000D01*
X77000000Y-84100000D01*
X76600000Y-84100000D01*
G37*
G36*
X76200000Y-84100000D02*
X76200000Y-83700000D01*
X76600000Y-83700000D01*
X76600000Y-84100000D01*
X76200000Y-84100000D01*
G37*
G36*
X75800000Y-84100000D02*
X75800000Y-83700000D01*
X76200000Y-83700000D01*
X76200000Y-84100000D01*
X75800000Y-84100000D01*
G37*
G36*
X75400000Y-84100000D02*
X75400000Y-83700000D01*
X75800000Y-83700000D01*
X75800000Y-84100000D01*
X75400000Y-84100000D01*
G37*
G36*
X75000000Y-84100000D02*
X75000000Y-83700000D01*
X75400000Y-83700000D01*
X75400000Y-84100000D01*
X75000000Y-84100000D01*
G37*
G36*
X74600000Y-84100000D02*
X74600000Y-83700000D01*
X75000000Y-83700000D01*
X75000000Y-84100000D01*
X74600000Y-84100000D01*
G37*
G36*
X74200000Y-84100000D02*
X74200000Y-83700000D01*
X74600000Y-83700000D01*
X74600000Y-84100000D01*
X74200000Y-84100000D01*
G37*
G36*
X73800000Y-84100000D02*
X73800000Y-83700000D01*
X74200000Y-83700000D01*
X74200000Y-84100000D01*
X73800000Y-84100000D01*
G37*
G36*
X73400000Y-84100000D02*
X73400000Y-83700000D01*
X73800000Y-83700000D01*
X73800000Y-84100000D01*
X73400000Y-84100000D01*
G37*
G36*
X72200000Y-84100000D02*
X72200000Y-83700000D01*
X72600000Y-83700000D01*
X72600000Y-84100000D01*
X72200000Y-84100000D01*
G37*
G36*
X71800000Y-84100000D02*
X71800000Y-83700000D01*
X72200000Y-83700000D01*
X72200000Y-84100000D01*
X71800000Y-84100000D01*
G37*
G36*
X71400000Y-84100000D02*
X71400000Y-83700000D01*
X71800000Y-83700000D01*
X71800000Y-84100000D01*
X71400000Y-84100000D01*
G37*
G36*
X71000000Y-84100000D02*
X71000000Y-83700000D01*
X71400000Y-83700000D01*
X71400000Y-84100000D01*
X71000000Y-84100000D01*
G37*
G36*
X70600000Y-84100000D02*
X70600000Y-83700000D01*
X71000000Y-83700000D01*
X71000000Y-84100000D01*
X70600000Y-84100000D01*
G37*
G36*
X70200000Y-84100000D02*
X70200000Y-83700000D01*
X70600000Y-83700000D01*
X70600000Y-84100000D01*
X70200000Y-84100000D01*
G37*
G36*
X69800000Y-84100000D02*
X69800000Y-83700000D01*
X70200000Y-83700000D01*
X70200000Y-84100000D01*
X69800000Y-84100000D01*
G37*
G36*
X69000000Y-84100000D02*
X69000000Y-83700000D01*
X69400000Y-83700000D01*
X69400000Y-84100000D01*
X69000000Y-84100000D01*
G37*
G36*
X67000000Y-84100000D02*
X67000000Y-83700000D01*
X67400000Y-83700000D01*
X67400000Y-84100000D01*
X67000000Y-84100000D01*
G37*
G36*
X66200000Y-84100000D02*
X66200000Y-83700000D01*
X66600000Y-83700000D01*
X66600000Y-84100000D01*
X66200000Y-84100000D01*
G37*
G36*
X65800000Y-84100000D02*
X65800000Y-83700000D01*
X66200000Y-83700000D01*
X66200000Y-84100000D01*
X65800000Y-84100000D01*
G37*
G36*
X65400000Y-84100000D02*
X65400000Y-83700000D01*
X65800000Y-83700000D01*
X65800000Y-84100000D01*
X65400000Y-84100000D01*
G37*
G36*
X65000000Y-84100000D02*
X65000000Y-83700000D01*
X65400000Y-83700000D01*
X65400000Y-84100000D01*
X65000000Y-84100000D01*
G37*
G36*
X64600000Y-84100000D02*
X64600000Y-83700000D01*
X65000000Y-83700000D01*
X65000000Y-84100000D01*
X64600000Y-84100000D01*
G37*
G36*
X64200000Y-84100000D02*
X64200000Y-83700000D01*
X64600000Y-83700000D01*
X64600000Y-84100000D01*
X64200000Y-84100000D01*
G37*
G36*
X63800000Y-84100000D02*
X63800000Y-83700000D01*
X64200000Y-83700000D01*
X64200000Y-84100000D01*
X63800000Y-84100000D01*
G37*
G36*
X63400000Y-84100000D02*
X63400000Y-83700000D01*
X63800000Y-83700000D01*
X63800000Y-84100000D01*
X63400000Y-84100000D01*
G37*
G36*
X63000000Y-84100000D02*
X63000000Y-83700000D01*
X63400000Y-83700000D01*
X63400000Y-84100000D01*
X63000000Y-84100000D01*
G37*
G36*
X62600000Y-84100000D02*
X62600000Y-83700000D01*
X63000000Y-83700000D01*
X63000000Y-84100000D01*
X62600000Y-84100000D01*
G37*
G36*
X77000000Y-84500000D02*
X77000000Y-84100000D01*
X77400000Y-84100000D01*
X77400000Y-84500000D01*
X77000000Y-84500000D01*
G37*
G36*
X76600000Y-84500000D02*
X76600000Y-84100000D01*
X77000000Y-84100000D01*
X77000000Y-84500000D01*
X76600000Y-84500000D01*
G37*
G36*
X75800000Y-84500000D02*
X75800000Y-84100000D01*
X76200000Y-84100000D01*
X76200000Y-84500000D01*
X75800000Y-84500000D01*
G37*
G36*
X75400000Y-84500000D02*
X75400000Y-84100000D01*
X75800000Y-84100000D01*
X75800000Y-84500000D01*
X75400000Y-84500000D01*
G37*
G36*
X75000000Y-84500000D02*
X75000000Y-84100000D01*
X75400000Y-84100000D01*
X75400000Y-84500000D01*
X75000000Y-84500000D01*
G37*
G36*
X74200000Y-84500000D02*
X74200000Y-84100000D01*
X74600000Y-84100000D01*
X74600000Y-84500000D01*
X74200000Y-84500000D01*
G37*
G36*
X72600000Y-84500000D02*
X72600000Y-84100000D01*
X73000000Y-84100000D01*
X73000000Y-84500000D01*
X72600000Y-84500000D01*
G37*
G36*
X71800000Y-84500000D02*
X71800000Y-84100000D01*
X72200000Y-84100000D01*
X72200000Y-84500000D01*
X71800000Y-84500000D01*
G37*
G36*
X71000000Y-84500000D02*
X71000000Y-84100000D01*
X71400000Y-84100000D01*
X71400000Y-84500000D01*
X71000000Y-84500000D01*
G37*
G36*
X70600000Y-84500000D02*
X70600000Y-84100000D01*
X71000000Y-84100000D01*
X71000000Y-84500000D01*
X70600000Y-84500000D01*
G37*
G36*
X69800000Y-84500000D02*
X69800000Y-84100000D01*
X70200000Y-84100000D01*
X70200000Y-84500000D01*
X69800000Y-84500000D01*
G37*
G36*
X69000000Y-84500000D02*
X69000000Y-84100000D01*
X69400000Y-84100000D01*
X69400000Y-84500000D01*
X69000000Y-84500000D01*
G37*
G36*
X68600000Y-84500000D02*
X68600000Y-84100000D01*
X69000000Y-84100000D01*
X69000000Y-84500000D01*
X68600000Y-84500000D01*
G37*
G36*
X67400000Y-84500000D02*
X67400000Y-84100000D01*
X67800000Y-84100000D01*
X67800000Y-84500000D01*
X67400000Y-84500000D01*
G37*
G36*
X66600000Y-84500000D02*
X66600000Y-84100000D01*
X67000000Y-84100000D01*
X67000000Y-84500000D01*
X66600000Y-84500000D01*
G37*
G36*
X64200000Y-84500000D02*
X64200000Y-84100000D01*
X64600000Y-84100000D01*
X64600000Y-84500000D01*
X64200000Y-84500000D01*
G37*
G36*
X63800000Y-84500000D02*
X63800000Y-84100000D01*
X64200000Y-84100000D01*
X64200000Y-84500000D01*
X63800000Y-84500000D01*
G37*
G36*
X63000000Y-84500000D02*
X63000000Y-84100000D01*
X63400000Y-84100000D01*
X63400000Y-84500000D01*
X63000000Y-84500000D01*
G37*
G36*
X62600000Y-84500000D02*
X62600000Y-84100000D01*
X63000000Y-84100000D01*
X63000000Y-84500000D01*
X62600000Y-84500000D01*
G37*
G36*
X77000000Y-84900000D02*
X77000000Y-84500000D01*
X77400000Y-84500000D01*
X77400000Y-84900000D01*
X77000000Y-84900000D01*
G37*
G36*
X76600000Y-84900000D02*
X76600000Y-84500000D01*
X77000000Y-84500000D01*
X77000000Y-84900000D01*
X76600000Y-84900000D01*
G37*
G36*
X75800000Y-84900000D02*
X75800000Y-84500000D01*
X76200000Y-84500000D01*
X76200000Y-84900000D01*
X75800000Y-84900000D01*
G37*
G36*
X75400000Y-84900000D02*
X75400000Y-84500000D01*
X75800000Y-84500000D01*
X75800000Y-84900000D01*
X75400000Y-84900000D01*
G37*
G36*
X75000000Y-84900000D02*
X75000000Y-84500000D01*
X75400000Y-84500000D01*
X75400000Y-84900000D01*
X75000000Y-84900000D01*
G37*
G36*
X74200000Y-84900000D02*
X74200000Y-84500000D01*
X74600000Y-84500000D01*
X74600000Y-84900000D01*
X74200000Y-84900000D01*
G37*
G36*
X73800000Y-84900000D02*
X73800000Y-84500000D01*
X74200000Y-84500000D01*
X74200000Y-84900000D01*
X73800000Y-84900000D01*
G37*
G36*
X72200000Y-84900000D02*
X72200000Y-84500000D01*
X72600000Y-84500000D01*
X72600000Y-84900000D01*
X72200000Y-84900000D01*
G37*
G36*
X71800000Y-84900000D02*
X71800000Y-84500000D01*
X72200000Y-84500000D01*
X72200000Y-84900000D01*
X71800000Y-84900000D01*
G37*
G36*
X71400000Y-84900000D02*
X71400000Y-84500000D01*
X71800000Y-84500000D01*
X71800000Y-84900000D01*
X71400000Y-84900000D01*
G37*
G36*
X71000000Y-84900000D02*
X71000000Y-84500000D01*
X71400000Y-84500000D01*
X71400000Y-84900000D01*
X71000000Y-84900000D01*
G37*
G36*
X68600000Y-84900000D02*
X68600000Y-84500000D01*
X69000000Y-84500000D01*
X69000000Y-84900000D01*
X68600000Y-84900000D01*
G37*
G36*
X68200000Y-84900000D02*
X68200000Y-84500000D01*
X68600000Y-84500000D01*
X68600000Y-84900000D01*
X68200000Y-84900000D01*
G37*
G36*
X67400000Y-84900000D02*
X67400000Y-84500000D01*
X67800000Y-84500000D01*
X67800000Y-84900000D01*
X67400000Y-84900000D01*
G37*
G36*
X66600000Y-84900000D02*
X66600000Y-84500000D01*
X67000000Y-84500000D01*
X67000000Y-84900000D01*
X66600000Y-84900000D01*
G37*
G36*
X65800000Y-84900000D02*
X65800000Y-84500000D01*
X66200000Y-84500000D01*
X66200000Y-84900000D01*
X65800000Y-84900000D01*
G37*
G36*
X65400000Y-84900000D02*
X65400000Y-84500000D01*
X65800000Y-84500000D01*
X65800000Y-84900000D01*
X65400000Y-84900000D01*
G37*
G36*
X65000000Y-84900000D02*
X65000000Y-84500000D01*
X65400000Y-84500000D01*
X65400000Y-84900000D01*
X65000000Y-84900000D01*
G37*
G36*
X63400000Y-84900000D02*
X63400000Y-84500000D01*
X63800000Y-84500000D01*
X63800000Y-84900000D01*
X63400000Y-84900000D01*
G37*
G36*
X63000000Y-84900000D02*
X63000000Y-84500000D01*
X63400000Y-84500000D01*
X63400000Y-84900000D01*
X63000000Y-84900000D01*
G37*
G36*
X62600000Y-84900000D02*
X62600000Y-84500000D01*
X63000000Y-84500000D01*
X63000000Y-84900000D01*
X62600000Y-84900000D01*
G37*
G36*
X77000000Y-85300000D02*
X77000000Y-84900000D01*
X77400000Y-84900000D01*
X77400000Y-85300000D01*
X77000000Y-85300000D01*
G37*
G36*
X76600000Y-85300000D02*
X76600000Y-84900000D01*
X77000000Y-84900000D01*
X77000000Y-85300000D01*
X76600000Y-85300000D01*
G37*
G36*
X76200000Y-85300000D02*
X76200000Y-84900000D01*
X76600000Y-84900000D01*
X76600000Y-85300000D01*
X76200000Y-85300000D01*
G37*
G36*
X74600000Y-85300000D02*
X74600000Y-84900000D01*
X75000000Y-84900000D01*
X75000000Y-85300000D01*
X74600000Y-85300000D01*
G37*
G36*
X73400000Y-85300000D02*
X73400000Y-84900000D01*
X73800000Y-84900000D01*
X73800000Y-85300000D01*
X73400000Y-85300000D01*
G37*
G36*
X71800000Y-85300000D02*
X71800000Y-84900000D01*
X72200000Y-84900000D01*
X72200000Y-85300000D01*
X71800000Y-85300000D01*
G37*
G36*
X69400000Y-85300000D02*
X69400000Y-84900000D01*
X69800000Y-84900000D01*
X69800000Y-85300000D01*
X69400000Y-85300000D01*
G37*
G36*
X68600000Y-85300000D02*
X68600000Y-84900000D01*
X69000000Y-84900000D01*
X69000000Y-85300000D01*
X68600000Y-85300000D01*
G37*
G36*
X68200000Y-85300000D02*
X68200000Y-84900000D01*
X68600000Y-84900000D01*
X68600000Y-85300000D01*
X68200000Y-85300000D01*
G37*
G36*
X67800000Y-85300000D02*
X67800000Y-84900000D01*
X68200000Y-84900000D01*
X68200000Y-85300000D01*
X67800000Y-85300000D01*
G37*
G36*
X67400000Y-85300000D02*
X67400000Y-84900000D01*
X67800000Y-84900000D01*
X67800000Y-85300000D01*
X67400000Y-85300000D01*
G37*
G36*
X66600000Y-85300000D02*
X66600000Y-84900000D01*
X67000000Y-84900000D01*
X67000000Y-85300000D01*
X66600000Y-85300000D01*
G37*
G36*
X65800000Y-85300000D02*
X65800000Y-84900000D01*
X66200000Y-84900000D01*
X66200000Y-85300000D01*
X65800000Y-85300000D01*
G37*
G36*
X65400000Y-85300000D02*
X65400000Y-84900000D01*
X65800000Y-84900000D01*
X65800000Y-85300000D01*
X65400000Y-85300000D01*
G37*
G36*
X65000000Y-85300000D02*
X65000000Y-84900000D01*
X65400000Y-84900000D01*
X65400000Y-85300000D01*
X65000000Y-85300000D01*
G37*
G36*
X64200000Y-85300000D02*
X64200000Y-84900000D01*
X64600000Y-84900000D01*
X64600000Y-85300000D01*
X64200000Y-85300000D01*
G37*
G36*
X63400000Y-85300000D02*
X63400000Y-84900000D01*
X63800000Y-84900000D01*
X63800000Y-85300000D01*
X63400000Y-85300000D01*
G37*
G36*
X63000000Y-85300000D02*
X63000000Y-84900000D01*
X63400000Y-84900000D01*
X63400000Y-85300000D01*
X63000000Y-85300000D01*
G37*
G36*
X62600000Y-85300000D02*
X62600000Y-84900000D01*
X63000000Y-84900000D01*
X63000000Y-85300000D01*
X62600000Y-85300000D01*
G37*
G36*
X77000000Y-85700000D02*
X77000000Y-85300000D01*
X77400000Y-85300000D01*
X77400000Y-85700000D01*
X77000000Y-85700000D01*
G37*
G36*
X76600000Y-85700000D02*
X76600000Y-85300000D01*
X77000000Y-85300000D01*
X77000000Y-85700000D01*
X76600000Y-85700000D01*
G37*
G36*
X76200000Y-85700000D02*
X76200000Y-85300000D01*
X76600000Y-85300000D01*
X76600000Y-85700000D01*
X76200000Y-85700000D01*
G37*
G36*
X75400000Y-85700000D02*
X75400000Y-85300000D01*
X75800000Y-85300000D01*
X75800000Y-85700000D01*
X75400000Y-85700000D01*
G37*
G36*
X74600000Y-85700000D02*
X74600000Y-85300000D01*
X75000000Y-85300000D01*
X75000000Y-85700000D01*
X74600000Y-85700000D01*
G37*
G36*
X74200000Y-85700000D02*
X74200000Y-85300000D01*
X74600000Y-85300000D01*
X74600000Y-85700000D01*
X74200000Y-85700000D01*
G37*
G36*
X73800000Y-85700000D02*
X73800000Y-85300000D01*
X74200000Y-85300000D01*
X74200000Y-85700000D01*
X73800000Y-85700000D01*
G37*
G36*
X73400000Y-85700000D02*
X73400000Y-85300000D01*
X73800000Y-85300000D01*
X73800000Y-85700000D01*
X73400000Y-85700000D01*
G37*
G36*
X73000000Y-85700000D02*
X73000000Y-85300000D01*
X73400000Y-85300000D01*
X73400000Y-85700000D01*
X73000000Y-85700000D01*
G37*
G36*
X72600000Y-85700000D02*
X72600000Y-85300000D01*
X73000000Y-85300000D01*
X73000000Y-85700000D01*
X72600000Y-85700000D01*
G37*
G36*
X72200000Y-85700000D02*
X72200000Y-85300000D01*
X72600000Y-85300000D01*
X72600000Y-85700000D01*
X72200000Y-85700000D01*
G37*
G36*
X71800000Y-85700000D02*
X71800000Y-85300000D01*
X72200000Y-85300000D01*
X72200000Y-85700000D01*
X71800000Y-85700000D01*
G37*
G36*
X71400000Y-85700000D02*
X71400000Y-85300000D01*
X71800000Y-85300000D01*
X71800000Y-85700000D01*
X71400000Y-85700000D01*
G37*
G36*
X70600000Y-85700000D02*
X70600000Y-85300000D01*
X71000000Y-85300000D01*
X71000000Y-85700000D01*
X70600000Y-85700000D01*
G37*
G36*
X70200000Y-85700000D02*
X70200000Y-85300000D01*
X70600000Y-85300000D01*
X70600000Y-85700000D01*
X70200000Y-85700000D01*
G37*
G36*
X69400000Y-85700000D02*
X69400000Y-85300000D01*
X69800000Y-85300000D01*
X69800000Y-85700000D01*
X69400000Y-85700000D01*
G37*
G36*
X69000000Y-85700000D02*
X69000000Y-85300000D01*
X69400000Y-85300000D01*
X69400000Y-85700000D01*
X69000000Y-85700000D01*
G37*
G36*
X68600000Y-85700000D02*
X68600000Y-85300000D01*
X69000000Y-85300000D01*
X69000000Y-85700000D01*
X68600000Y-85700000D01*
G37*
G36*
X68200000Y-85700000D02*
X68200000Y-85300000D01*
X68600000Y-85300000D01*
X68600000Y-85700000D01*
X68200000Y-85700000D01*
G37*
G36*
X67800000Y-85700000D02*
X67800000Y-85300000D01*
X68200000Y-85300000D01*
X68200000Y-85700000D01*
X67800000Y-85700000D01*
G37*
G36*
X66600000Y-85700000D02*
X66600000Y-85300000D01*
X67000000Y-85300000D01*
X67000000Y-85700000D01*
X66600000Y-85700000D01*
G37*
G36*
X65800000Y-85700000D02*
X65800000Y-85300000D01*
X66200000Y-85300000D01*
X66200000Y-85700000D01*
X65800000Y-85700000D01*
G37*
G36*
X65400000Y-85700000D02*
X65400000Y-85300000D01*
X65800000Y-85300000D01*
X65800000Y-85700000D01*
X65400000Y-85700000D01*
G37*
G36*
X65000000Y-85700000D02*
X65000000Y-85300000D01*
X65400000Y-85300000D01*
X65400000Y-85700000D01*
X65000000Y-85700000D01*
G37*
G36*
X64600000Y-85700000D02*
X64600000Y-85300000D01*
X65000000Y-85300000D01*
X65000000Y-85700000D01*
X64600000Y-85700000D01*
G37*
G36*
X64200000Y-85700000D02*
X64200000Y-85300000D01*
X64600000Y-85300000D01*
X64600000Y-85700000D01*
X64200000Y-85700000D01*
G37*
G36*
X63800000Y-85700000D02*
X63800000Y-85300000D01*
X64200000Y-85300000D01*
X64200000Y-85700000D01*
X63800000Y-85700000D01*
G37*
G36*
X63400000Y-85700000D02*
X63400000Y-85300000D01*
X63800000Y-85300000D01*
X63800000Y-85700000D01*
X63400000Y-85700000D01*
G37*
G36*
X63000000Y-85700000D02*
X63000000Y-85300000D01*
X63400000Y-85300000D01*
X63400000Y-85700000D01*
X63000000Y-85700000D01*
G37*
G36*
X62600000Y-85700000D02*
X62600000Y-85300000D01*
X63000000Y-85300000D01*
X63000000Y-85700000D01*
X62600000Y-85700000D01*
G37*
G36*
X77000000Y-86100000D02*
X77000000Y-85700000D01*
X77400000Y-85700000D01*
X77400000Y-86100000D01*
X77000000Y-86100000D01*
G37*
G36*
X76600000Y-86100000D02*
X76600000Y-85700000D01*
X77000000Y-85700000D01*
X77000000Y-86100000D01*
X76600000Y-86100000D01*
G37*
G36*
X76200000Y-86100000D02*
X76200000Y-85700000D01*
X76600000Y-85700000D01*
X76600000Y-86100000D01*
X76200000Y-86100000D01*
G37*
G36*
X75800000Y-86100000D02*
X75800000Y-85700000D01*
X76200000Y-85700000D01*
X76200000Y-86100000D01*
X75800000Y-86100000D01*
G37*
G36*
X75000000Y-86100000D02*
X75000000Y-85700000D01*
X75400000Y-85700000D01*
X75400000Y-86100000D01*
X75000000Y-86100000D01*
G37*
G36*
X73000000Y-86100000D02*
X73000000Y-85700000D01*
X73400000Y-85700000D01*
X73400000Y-86100000D01*
X73000000Y-86100000D01*
G37*
G36*
X72600000Y-86100000D02*
X72600000Y-85700000D01*
X73000000Y-85700000D01*
X73000000Y-86100000D01*
X72600000Y-86100000D01*
G37*
G36*
X71800000Y-86100000D02*
X71800000Y-85700000D01*
X72200000Y-85700000D01*
X72200000Y-86100000D01*
X71800000Y-86100000D01*
G37*
G36*
X70600000Y-86100000D02*
X70600000Y-85700000D01*
X71000000Y-85700000D01*
X71000000Y-86100000D01*
X70600000Y-86100000D01*
G37*
G36*
X70200000Y-86100000D02*
X70200000Y-85700000D01*
X70600000Y-85700000D01*
X70600000Y-86100000D01*
X70200000Y-86100000D01*
G37*
G36*
X69400000Y-86100000D02*
X69400000Y-85700000D01*
X69800000Y-85700000D01*
X69800000Y-86100000D01*
X69400000Y-86100000D01*
G37*
G36*
X69000000Y-86100000D02*
X69000000Y-85700000D01*
X69400000Y-85700000D01*
X69400000Y-86100000D01*
X69000000Y-86100000D01*
G37*
G36*
X68600000Y-86100000D02*
X68600000Y-85700000D01*
X69000000Y-85700000D01*
X69000000Y-86100000D01*
X68600000Y-86100000D01*
G37*
G36*
X68200000Y-86100000D02*
X68200000Y-85700000D01*
X68600000Y-85700000D01*
X68600000Y-86100000D01*
X68200000Y-86100000D01*
G37*
G36*
X67800000Y-86100000D02*
X67800000Y-85700000D01*
X68200000Y-85700000D01*
X68200000Y-86100000D01*
X67800000Y-86100000D01*
G37*
G36*
X66600000Y-86100000D02*
X66600000Y-85700000D01*
X67000000Y-85700000D01*
X67000000Y-86100000D01*
X66600000Y-86100000D01*
G37*
G36*
X65400000Y-86100000D02*
X65400000Y-85700000D01*
X65800000Y-85700000D01*
X65800000Y-86100000D01*
X65400000Y-86100000D01*
G37*
G36*
X64200000Y-86100000D02*
X64200000Y-85700000D01*
X64600000Y-85700000D01*
X64600000Y-86100000D01*
X64200000Y-86100000D01*
G37*
G36*
X63800000Y-86100000D02*
X63800000Y-85700000D01*
X64200000Y-85700000D01*
X64200000Y-86100000D01*
X63800000Y-86100000D01*
G37*
G36*
X63000000Y-86100000D02*
X63000000Y-85700000D01*
X63400000Y-85700000D01*
X63400000Y-86100000D01*
X63000000Y-86100000D01*
G37*
G36*
X62600000Y-86100000D02*
X62600000Y-85700000D01*
X63000000Y-85700000D01*
X63000000Y-86100000D01*
X62600000Y-86100000D01*
G37*
G36*
X77000000Y-86500000D02*
X77000000Y-86100000D01*
X77400000Y-86100000D01*
X77400000Y-86500000D01*
X77000000Y-86500000D01*
G37*
G36*
X76600000Y-86500000D02*
X76600000Y-86100000D01*
X77000000Y-86100000D01*
X77000000Y-86500000D01*
X76600000Y-86500000D01*
G37*
G36*
X76200000Y-86500000D02*
X76200000Y-86100000D01*
X76600000Y-86100000D01*
X76600000Y-86500000D01*
X76200000Y-86500000D01*
G37*
G36*
X74600000Y-86500000D02*
X74600000Y-86100000D01*
X75000000Y-86100000D01*
X75000000Y-86500000D01*
X74600000Y-86500000D01*
G37*
G36*
X73800000Y-86500000D02*
X73800000Y-86100000D01*
X74200000Y-86100000D01*
X74200000Y-86500000D01*
X73800000Y-86500000D01*
G37*
G36*
X70200000Y-86500000D02*
X70200000Y-86100000D01*
X70600000Y-86100000D01*
X70600000Y-86500000D01*
X70200000Y-86500000D01*
G37*
G36*
X69800000Y-86500000D02*
X69800000Y-86100000D01*
X70200000Y-86100000D01*
X70200000Y-86500000D01*
X69800000Y-86500000D01*
G37*
G36*
X67400000Y-86500000D02*
X67400000Y-86100000D01*
X67800000Y-86100000D01*
X67800000Y-86500000D01*
X67400000Y-86500000D01*
G37*
G36*
X67000000Y-86500000D02*
X67000000Y-86100000D01*
X67400000Y-86100000D01*
X67400000Y-86500000D01*
X67000000Y-86500000D01*
G37*
G36*
X65000000Y-86500000D02*
X65000000Y-86100000D01*
X65400000Y-86100000D01*
X65400000Y-86500000D01*
X65000000Y-86500000D01*
G37*
G36*
X63800000Y-86500000D02*
X63800000Y-86100000D01*
X64200000Y-86100000D01*
X64200000Y-86500000D01*
X63800000Y-86500000D01*
G37*
G36*
X63400000Y-86500000D02*
X63400000Y-86100000D01*
X63800000Y-86100000D01*
X63800000Y-86500000D01*
X63400000Y-86500000D01*
G37*
G36*
X63000000Y-86500000D02*
X63000000Y-86100000D01*
X63400000Y-86100000D01*
X63400000Y-86500000D01*
X63000000Y-86500000D01*
G37*
G36*
X62600000Y-86500000D02*
X62600000Y-86100000D01*
X63000000Y-86100000D01*
X63000000Y-86500000D01*
X62600000Y-86500000D01*
G37*
G36*
X77000000Y-86900000D02*
X77000000Y-86500000D01*
X77400000Y-86500000D01*
X77400000Y-86900000D01*
X77000000Y-86900000D01*
G37*
G36*
X76600000Y-86900000D02*
X76600000Y-86500000D01*
X77000000Y-86500000D01*
X77000000Y-86900000D01*
X76600000Y-86900000D01*
G37*
G36*
X75800000Y-86900000D02*
X75800000Y-86500000D01*
X76200000Y-86500000D01*
X76200000Y-86900000D01*
X75800000Y-86900000D01*
G37*
G36*
X75400000Y-86900000D02*
X75400000Y-86500000D01*
X75800000Y-86500000D01*
X75800000Y-86900000D01*
X75400000Y-86900000D01*
G37*
G36*
X72600000Y-86900000D02*
X72600000Y-86500000D01*
X73000000Y-86500000D01*
X73000000Y-86900000D01*
X72600000Y-86900000D01*
G37*
G36*
X71400000Y-86900000D02*
X71400000Y-86500000D01*
X71800000Y-86500000D01*
X71800000Y-86900000D01*
X71400000Y-86900000D01*
G37*
G36*
X71000000Y-86900000D02*
X71000000Y-86500000D01*
X71400000Y-86500000D01*
X71400000Y-86900000D01*
X71000000Y-86900000D01*
G37*
G36*
X70600000Y-86900000D02*
X70600000Y-86500000D01*
X71000000Y-86500000D01*
X71000000Y-86900000D01*
X70600000Y-86900000D01*
G37*
G36*
X69800000Y-86900000D02*
X69800000Y-86500000D01*
X70200000Y-86500000D01*
X70200000Y-86900000D01*
X69800000Y-86900000D01*
G37*
G36*
X69400000Y-86900000D02*
X69400000Y-86500000D01*
X69800000Y-86500000D01*
X69800000Y-86900000D01*
X69400000Y-86900000D01*
G37*
G36*
X69000000Y-86900000D02*
X69000000Y-86500000D01*
X69400000Y-86500000D01*
X69400000Y-86900000D01*
X69000000Y-86900000D01*
G37*
G36*
X68600000Y-86900000D02*
X68600000Y-86500000D01*
X69000000Y-86500000D01*
X69000000Y-86900000D01*
X68600000Y-86900000D01*
G37*
G36*
X67800000Y-86900000D02*
X67800000Y-86500000D01*
X68200000Y-86500000D01*
X68200000Y-86900000D01*
X67800000Y-86900000D01*
G37*
G36*
X67400000Y-86900000D02*
X67400000Y-86500000D01*
X67800000Y-86500000D01*
X67800000Y-86900000D01*
X67400000Y-86900000D01*
G37*
G36*
X65400000Y-86900000D02*
X65400000Y-86500000D01*
X65800000Y-86500000D01*
X65800000Y-86900000D01*
X65400000Y-86900000D01*
G37*
G36*
X64600000Y-86900000D02*
X64600000Y-86500000D01*
X65000000Y-86500000D01*
X65000000Y-86900000D01*
X64600000Y-86900000D01*
G37*
G36*
X64200000Y-86900000D02*
X64200000Y-86500000D01*
X64600000Y-86500000D01*
X64600000Y-86900000D01*
X64200000Y-86900000D01*
G37*
G36*
X63400000Y-86900000D02*
X63400000Y-86500000D01*
X63800000Y-86500000D01*
X63800000Y-86900000D01*
X63400000Y-86900000D01*
G37*
G36*
X63000000Y-86900000D02*
X63000000Y-86500000D01*
X63400000Y-86500000D01*
X63400000Y-86900000D01*
X63000000Y-86900000D01*
G37*
G36*
X62600000Y-86900000D02*
X62600000Y-86500000D01*
X63000000Y-86500000D01*
X63000000Y-86900000D01*
X62600000Y-86900000D01*
G37*
G36*
X77000000Y-87300000D02*
X77000000Y-86900000D01*
X77400000Y-86900000D01*
X77400000Y-87300000D01*
X77000000Y-87300000D01*
G37*
G36*
X76600000Y-87300000D02*
X76600000Y-86900000D01*
X77000000Y-86900000D01*
X77000000Y-87300000D01*
X76600000Y-87300000D01*
G37*
G36*
X75000000Y-87300000D02*
X75000000Y-86900000D01*
X75400000Y-86900000D01*
X75400000Y-87300000D01*
X75000000Y-87300000D01*
G37*
G36*
X74600000Y-87300000D02*
X74600000Y-86900000D01*
X75000000Y-86900000D01*
X75000000Y-87300000D01*
X74600000Y-87300000D01*
G37*
G36*
X74200000Y-87300000D02*
X74200000Y-86900000D01*
X74600000Y-86900000D01*
X74600000Y-87300000D01*
X74200000Y-87300000D01*
G37*
G36*
X73800000Y-87300000D02*
X73800000Y-86900000D01*
X74200000Y-86900000D01*
X74200000Y-87300000D01*
X73800000Y-87300000D01*
G37*
G36*
X73400000Y-87300000D02*
X73400000Y-86900000D01*
X73800000Y-86900000D01*
X73800000Y-87300000D01*
X73400000Y-87300000D01*
G37*
G36*
X73000000Y-87300000D02*
X73000000Y-86900000D01*
X73400000Y-86900000D01*
X73400000Y-87300000D01*
X73000000Y-87300000D01*
G37*
G36*
X72600000Y-87300000D02*
X72600000Y-86900000D01*
X73000000Y-86900000D01*
X73000000Y-87300000D01*
X72600000Y-87300000D01*
G37*
G36*
X70600000Y-87300000D02*
X70600000Y-86900000D01*
X71000000Y-86900000D01*
X71000000Y-87300000D01*
X70600000Y-87300000D01*
G37*
G36*
X68600000Y-87300000D02*
X68600000Y-86900000D01*
X69000000Y-86900000D01*
X69000000Y-87300000D01*
X68600000Y-87300000D01*
G37*
G36*
X68200000Y-87300000D02*
X68200000Y-86900000D01*
X68600000Y-86900000D01*
X68600000Y-87300000D01*
X68200000Y-87300000D01*
G37*
G36*
X66600000Y-87300000D02*
X66600000Y-86900000D01*
X67000000Y-86900000D01*
X67000000Y-87300000D01*
X66600000Y-87300000D01*
G37*
G36*
X65400000Y-87300000D02*
X65400000Y-86900000D01*
X65800000Y-86900000D01*
X65800000Y-87300000D01*
X65400000Y-87300000D01*
G37*
G36*
X65000000Y-87300000D02*
X65000000Y-86900000D01*
X65400000Y-86900000D01*
X65400000Y-87300000D01*
X65000000Y-87300000D01*
G37*
G36*
X64600000Y-87300000D02*
X64600000Y-86900000D01*
X65000000Y-86900000D01*
X65000000Y-87300000D01*
X64600000Y-87300000D01*
G37*
G36*
X64200000Y-87300000D02*
X64200000Y-86900000D01*
X64600000Y-86900000D01*
X64600000Y-87300000D01*
X64200000Y-87300000D01*
G37*
G36*
X63800000Y-87300000D02*
X63800000Y-86900000D01*
X64200000Y-86900000D01*
X64200000Y-87300000D01*
X63800000Y-87300000D01*
G37*
G36*
X63400000Y-87300000D02*
X63400000Y-86900000D01*
X63800000Y-86900000D01*
X63800000Y-87300000D01*
X63400000Y-87300000D01*
G37*
G36*
X63000000Y-87300000D02*
X63000000Y-86900000D01*
X63400000Y-86900000D01*
X63400000Y-87300000D01*
X63000000Y-87300000D01*
G37*
G36*
X62600000Y-87300000D02*
X62600000Y-86900000D01*
X63000000Y-86900000D01*
X63000000Y-87300000D01*
X62600000Y-87300000D01*
G37*
G36*
X77000000Y-87700000D02*
X77000000Y-87300000D01*
X77400000Y-87300000D01*
X77400000Y-87700000D01*
X77000000Y-87700000D01*
G37*
G36*
X76600000Y-87700000D02*
X76600000Y-87300000D01*
X77000000Y-87300000D01*
X77000000Y-87700000D01*
X76600000Y-87700000D01*
G37*
G36*
X76200000Y-87700000D02*
X76200000Y-87300000D01*
X76600000Y-87300000D01*
X76600000Y-87700000D01*
X76200000Y-87700000D01*
G37*
G36*
X75400000Y-87700000D02*
X75400000Y-87300000D01*
X75800000Y-87300000D01*
X75800000Y-87700000D01*
X75400000Y-87700000D01*
G37*
G36*
X75000000Y-87700000D02*
X75000000Y-87300000D01*
X75400000Y-87300000D01*
X75400000Y-87700000D01*
X75000000Y-87700000D01*
G37*
G36*
X74600000Y-87700000D02*
X74600000Y-87300000D01*
X75000000Y-87300000D01*
X75000000Y-87700000D01*
X74600000Y-87700000D01*
G37*
G36*
X73000000Y-87700000D02*
X73000000Y-87300000D01*
X73400000Y-87300000D01*
X73400000Y-87700000D01*
X73000000Y-87700000D01*
G37*
G36*
X72600000Y-87700000D02*
X72600000Y-87300000D01*
X73000000Y-87300000D01*
X73000000Y-87700000D01*
X72600000Y-87700000D01*
G37*
G36*
X70200000Y-87700000D02*
X70200000Y-87300000D01*
X70600000Y-87300000D01*
X70600000Y-87700000D01*
X70200000Y-87700000D01*
G37*
G36*
X69800000Y-87700000D02*
X69800000Y-87300000D01*
X70200000Y-87300000D01*
X70200000Y-87700000D01*
X69800000Y-87700000D01*
G37*
G36*
X69000000Y-87700000D02*
X69000000Y-87300000D01*
X69400000Y-87300000D01*
X69400000Y-87700000D01*
X69000000Y-87700000D01*
G37*
G36*
X67000000Y-87700000D02*
X67000000Y-87300000D01*
X67400000Y-87300000D01*
X67400000Y-87700000D01*
X67000000Y-87700000D01*
G37*
G36*
X66200000Y-87700000D02*
X66200000Y-87300000D01*
X66600000Y-87300000D01*
X66600000Y-87700000D01*
X66200000Y-87700000D01*
G37*
G36*
X65400000Y-87700000D02*
X65400000Y-87300000D01*
X65800000Y-87300000D01*
X65800000Y-87700000D01*
X65400000Y-87700000D01*
G37*
G36*
X64600000Y-87700000D02*
X64600000Y-87300000D01*
X65000000Y-87300000D01*
X65000000Y-87700000D01*
X64600000Y-87700000D01*
G37*
G36*
X64200000Y-87700000D02*
X64200000Y-87300000D01*
X64600000Y-87300000D01*
X64600000Y-87700000D01*
X64200000Y-87700000D01*
G37*
G36*
X63400000Y-87700000D02*
X63400000Y-87300000D01*
X63800000Y-87300000D01*
X63800000Y-87700000D01*
X63400000Y-87700000D01*
G37*
G36*
X63000000Y-87700000D02*
X63000000Y-87300000D01*
X63400000Y-87300000D01*
X63400000Y-87700000D01*
X63000000Y-87700000D01*
G37*
G36*
X62600000Y-87700000D02*
X62600000Y-87300000D01*
X63000000Y-87300000D01*
X63000000Y-87700000D01*
X62600000Y-87700000D01*
G37*
G36*
X77000000Y-88100000D02*
X77000000Y-87700000D01*
X77400000Y-87700000D01*
X77400000Y-88100000D01*
X77000000Y-88100000D01*
G37*
G36*
X76600000Y-88100000D02*
X76600000Y-87700000D01*
X77000000Y-87700000D01*
X77000000Y-88100000D01*
X76600000Y-88100000D01*
G37*
G36*
X74200000Y-88100000D02*
X74200000Y-87700000D01*
X74600000Y-87700000D01*
X74600000Y-88100000D01*
X74200000Y-88100000D01*
G37*
G36*
X73800000Y-88100000D02*
X73800000Y-87700000D01*
X74200000Y-87700000D01*
X74200000Y-88100000D01*
X73800000Y-88100000D01*
G37*
G36*
X73400000Y-88100000D02*
X73400000Y-87700000D01*
X73800000Y-87700000D01*
X73800000Y-88100000D01*
X73400000Y-88100000D01*
G37*
G36*
X73000000Y-88100000D02*
X73000000Y-87700000D01*
X73400000Y-87700000D01*
X73400000Y-88100000D01*
X73000000Y-88100000D01*
G37*
G36*
X72600000Y-88100000D02*
X72600000Y-87700000D01*
X73000000Y-87700000D01*
X73000000Y-88100000D01*
X72600000Y-88100000D01*
G37*
G36*
X72200000Y-88100000D02*
X72200000Y-87700000D01*
X72600000Y-87700000D01*
X72600000Y-88100000D01*
X72200000Y-88100000D01*
G37*
G36*
X71800000Y-88100000D02*
X71800000Y-87700000D01*
X72200000Y-87700000D01*
X72200000Y-88100000D01*
X71800000Y-88100000D01*
G37*
G36*
X71400000Y-88100000D02*
X71400000Y-87700000D01*
X71800000Y-87700000D01*
X71800000Y-88100000D01*
X71400000Y-88100000D01*
G37*
G36*
X70600000Y-88100000D02*
X70600000Y-87700000D01*
X71000000Y-87700000D01*
X71000000Y-88100000D01*
X70600000Y-88100000D01*
G37*
G36*
X70200000Y-88100000D02*
X70200000Y-87700000D01*
X70600000Y-87700000D01*
X70600000Y-88100000D01*
X70200000Y-88100000D01*
G37*
G36*
X69400000Y-88100000D02*
X69400000Y-87700000D01*
X69800000Y-87700000D01*
X69800000Y-88100000D01*
X69400000Y-88100000D01*
G37*
G36*
X68200000Y-88100000D02*
X68200000Y-87700000D01*
X68600000Y-87700000D01*
X68600000Y-88100000D01*
X68200000Y-88100000D01*
G37*
G36*
X67800000Y-88100000D02*
X67800000Y-87700000D01*
X68200000Y-87700000D01*
X68200000Y-88100000D01*
X67800000Y-88100000D01*
G37*
G36*
X67400000Y-88100000D02*
X67400000Y-87700000D01*
X67800000Y-87700000D01*
X67800000Y-88100000D01*
X67400000Y-88100000D01*
G37*
G36*
X66600000Y-88100000D02*
X66600000Y-87700000D01*
X67000000Y-87700000D01*
X67000000Y-88100000D01*
X66600000Y-88100000D01*
G37*
G36*
X65800000Y-88100000D02*
X65800000Y-87700000D01*
X66200000Y-87700000D01*
X66200000Y-88100000D01*
X65800000Y-88100000D01*
G37*
G36*
X65400000Y-88100000D02*
X65400000Y-87700000D01*
X65800000Y-87700000D01*
X65800000Y-88100000D01*
X65400000Y-88100000D01*
G37*
G36*
X65000000Y-88100000D02*
X65000000Y-87700000D01*
X65400000Y-87700000D01*
X65400000Y-88100000D01*
X65000000Y-88100000D01*
G37*
G36*
X63800000Y-88100000D02*
X63800000Y-87700000D01*
X64200000Y-87700000D01*
X64200000Y-88100000D01*
X63800000Y-88100000D01*
G37*
G36*
X63400000Y-88100000D02*
X63400000Y-87700000D01*
X63800000Y-87700000D01*
X63800000Y-88100000D01*
X63400000Y-88100000D01*
G37*
G36*
X63000000Y-88100000D02*
X63000000Y-87700000D01*
X63400000Y-87700000D01*
X63400000Y-88100000D01*
X63000000Y-88100000D01*
G37*
G36*
X62600000Y-88100000D02*
X62600000Y-87700000D01*
X63000000Y-87700000D01*
X63000000Y-88100000D01*
X62600000Y-88100000D01*
G37*
G36*
X77000000Y-88500000D02*
X77000000Y-88100000D01*
X77400000Y-88100000D01*
X77400000Y-88500000D01*
X77000000Y-88500000D01*
G37*
G36*
X76600000Y-88500000D02*
X76600000Y-88100000D01*
X77000000Y-88100000D01*
X77000000Y-88500000D01*
X76600000Y-88500000D01*
G37*
G36*
X76200000Y-88500000D02*
X76200000Y-88100000D01*
X76600000Y-88100000D01*
X76600000Y-88500000D01*
X76200000Y-88500000D01*
G37*
G36*
X75000000Y-88500000D02*
X75000000Y-88100000D01*
X75400000Y-88100000D01*
X75400000Y-88500000D01*
X75000000Y-88500000D01*
G37*
G36*
X74200000Y-88500000D02*
X74200000Y-88100000D01*
X74600000Y-88100000D01*
X74600000Y-88500000D01*
X74200000Y-88500000D01*
G37*
G36*
X73000000Y-88500000D02*
X73000000Y-88100000D01*
X73400000Y-88100000D01*
X73400000Y-88500000D01*
X73000000Y-88500000D01*
G37*
G36*
X72200000Y-88500000D02*
X72200000Y-88100000D01*
X72600000Y-88100000D01*
X72600000Y-88500000D01*
X72200000Y-88500000D01*
G37*
G36*
X69000000Y-88500000D02*
X69000000Y-88100000D01*
X69400000Y-88100000D01*
X69400000Y-88500000D01*
X69000000Y-88500000D01*
G37*
G36*
X68600000Y-88500000D02*
X68600000Y-88100000D01*
X69000000Y-88100000D01*
X69000000Y-88500000D01*
X68600000Y-88500000D01*
G37*
G36*
X66600000Y-88500000D02*
X66600000Y-88100000D01*
X67000000Y-88100000D01*
X67000000Y-88500000D01*
X66600000Y-88500000D01*
G37*
G36*
X65000000Y-88500000D02*
X65000000Y-88100000D01*
X65400000Y-88100000D01*
X65400000Y-88500000D01*
X65000000Y-88500000D01*
G37*
G36*
X64200000Y-88500000D02*
X64200000Y-88100000D01*
X64600000Y-88100000D01*
X64600000Y-88500000D01*
X64200000Y-88500000D01*
G37*
G36*
X63400000Y-88500000D02*
X63400000Y-88100000D01*
X63800000Y-88100000D01*
X63800000Y-88500000D01*
X63400000Y-88500000D01*
G37*
G36*
X63000000Y-88500000D02*
X63000000Y-88100000D01*
X63400000Y-88100000D01*
X63400000Y-88500000D01*
X63000000Y-88500000D01*
G37*
G36*
X62600000Y-88500000D02*
X62600000Y-88100000D01*
X63000000Y-88100000D01*
X63000000Y-88500000D01*
X62600000Y-88500000D01*
G37*
G36*
X77000000Y-88900000D02*
X77000000Y-88500000D01*
X77400000Y-88500000D01*
X77400000Y-88900000D01*
X77000000Y-88900000D01*
G37*
G36*
X76600000Y-88900000D02*
X76600000Y-88500000D01*
X77000000Y-88500000D01*
X77000000Y-88900000D01*
X76600000Y-88900000D01*
G37*
G36*
X76200000Y-88900000D02*
X76200000Y-88500000D01*
X76600000Y-88500000D01*
X76600000Y-88900000D01*
X76200000Y-88900000D01*
G37*
G36*
X75800000Y-88900000D02*
X75800000Y-88500000D01*
X76200000Y-88500000D01*
X76200000Y-88900000D01*
X75800000Y-88900000D01*
G37*
G36*
X74600000Y-88900000D02*
X74600000Y-88500000D01*
X75000000Y-88500000D01*
X75000000Y-88900000D01*
X74600000Y-88900000D01*
G37*
G36*
X73800000Y-88900000D02*
X73800000Y-88500000D01*
X74200000Y-88500000D01*
X74200000Y-88900000D01*
X73800000Y-88900000D01*
G37*
G36*
X70200000Y-88900000D02*
X70200000Y-88500000D01*
X70600000Y-88500000D01*
X70600000Y-88900000D01*
X70200000Y-88900000D01*
G37*
G36*
X69800000Y-88900000D02*
X69800000Y-88500000D01*
X70200000Y-88500000D01*
X70200000Y-88900000D01*
X69800000Y-88900000D01*
G37*
G36*
X67400000Y-88900000D02*
X67400000Y-88500000D01*
X67800000Y-88500000D01*
X67800000Y-88900000D01*
X67400000Y-88900000D01*
G37*
G36*
X66200000Y-88900000D02*
X66200000Y-88500000D01*
X66600000Y-88500000D01*
X66600000Y-88900000D01*
X66200000Y-88900000D01*
G37*
G36*
X65000000Y-88900000D02*
X65000000Y-88500000D01*
X65400000Y-88500000D01*
X65400000Y-88900000D01*
X65000000Y-88900000D01*
G37*
G36*
X64600000Y-88900000D02*
X64600000Y-88500000D01*
X65000000Y-88500000D01*
X65000000Y-88900000D01*
X64600000Y-88900000D01*
G37*
G36*
X64200000Y-88900000D02*
X64200000Y-88500000D01*
X64600000Y-88500000D01*
X64600000Y-88900000D01*
X64200000Y-88900000D01*
G37*
G36*
X63000000Y-88900000D02*
X63000000Y-88500000D01*
X63400000Y-88500000D01*
X63400000Y-88900000D01*
X63000000Y-88900000D01*
G37*
G36*
X62600000Y-88900000D02*
X62600000Y-88500000D01*
X63000000Y-88500000D01*
X63000000Y-88900000D01*
X62600000Y-88900000D01*
G37*
G36*
X77000000Y-89300000D02*
X77000000Y-88900000D01*
X77400000Y-88900000D01*
X77400000Y-89300000D01*
X77000000Y-89300000D01*
G37*
G36*
X76600000Y-89300000D02*
X76600000Y-88900000D01*
X77000000Y-88900000D01*
X77000000Y-89300000D01*
X76600000Y-89300000D01*
G37*
G36*
X75800000Y-89300000D02*
X75800000Y-88900000D01*
X76200000Y-88900000D01*
X76200000Y-89300000D01*
X75800000Y-89300000D01*
G37*
G36*
X75000000Y-89300000D02*
X75000000Y-88900000D01*
X75400000Y-88900000D01*
X75400000Y-89300000D01*
X75000000Y-89300000D01*
G37*
G36*
X74600000Y-89300000D02*
X74600000Y-88900000D01*
X75000000Y-88900000D01*
X75000000Y-89300000D01*
X74600000Y-89300000D01*
G37*
G36*
X74200000Y-89300000D02*
X74200000Y-88900000D01*
X74600000Y-88900000D01*
X74600000Y-89300000D01*
X74200000Y-89300000D01*
G37*
G36*
X73000000Y-89300000D02*
X73000000Y-88900000D01*
X73400000Y-88900000D01*
X73400000Y-89300000D01*
X73000000Y-89300000D01*
G37*
G36*
X72600000Y-89300000D02*
X72600000Y-88900000D01*
X73000000Y-88900000D01*
X73000000Y-89300000D01*
X72600000Y-89300000D01*
G37*
G36*
X72200000Y-89300000D02*
X72200000Y-88900000D01*
X72600000Y-88900000D01*
X72600000Y-89300000D01*
X72200000Y-89300000D01*
G37*
G36*
X71800000Y-89300000D02*
X71800000Y-88900000D01*
X72200000Y-88900000D01*
X72200000Y-89300000D01*
X71800000Y-89300000D01*
G37*
G36*
X70600000Y-89300000D02*
X70600000Y-88900000D01*
X71000000Y-88900000D01*
X71000000Y-89300000D01*
X70600000Y-89300000D01*
G37*
G36*
X69800000Y-89300000D02*
X69800000Y-88900000D01*
X70200000Y-88900000D01*
X70200000Y-89300000D01*
X69800000Y-89300000D01*
G37*
G36*
X69400000Y-89300000D02*
X69400000Y-88900000D01*
X69800000Y-88900000D01*
X69800000Y-89300000D01*
X69400000Y-89300000D01*
G37*
G36*
X68600000Y-89300000D02*
X68600000Y-88900000D01*
X69000000Y-88900000D01*
X69000000Y-89300000D01*
X68600000Y-89300000D01*
G37*
G36*
X67800000Y-89300000D02*
X67800000Y-88900000D01*
X68200000Y-88900000D01*
X68200000Y-89300000D01*
X67800000Y-89300000D01*
G37*
G36*
X67400000Y-89300000D02*
X67400000Y-88900000D01*
X67800000Y-88900000D01*
X67800000Y-89300000D01*
X67400000Y-89300000D01*
G37*
G36*
X67000000Y-89300000D02*
X67000000Y-88900000D01*
X67400000Y-88900000D01*
X67400000Y-89300000D01*
X67000000Y-89300000D01*
G37*
G36*
X66200000Y-89300000D02*
X66200000Y-88900000D01*
X66600000Y-88900000D01*
X66600000Y-89300000D01*
X66200000Y-89300000D01*
G37*
G36*
X65800000Y-89300000D02*
X65800000Y-88900000D01*
X66200000Y-88900000D01*
X66200000Y-89300000D01*
X65800000Y-89300000D01*
G37*
G36*
X65400000Y-89300000D02*
X65400000Y-88900000D01*
X65800000Y-88900000D01*
X65800000Y-89300000D01*
X65400000Y-89300000D01*
G37*
G36*
X64200000Y-89300000D02*
X64200000Y-88900000D01*
X64600000Y-88900000D01*
X64600000Y-89300000D01*
X64200000Y-89300000D01*
G37*
G36*
X63800000Y-89300000D02*
X63800000Y-88900000D01*
X64200000Y-88900000D01*
X64200000Y-89300000D01*
X63800000Y-89300000D01*
G37*
G36*
X63400000Y-89300000D02*
X63400000Y-88900000D01*
X63800000Y-88900000D01*
X63800000Y-89300000D01*
X63400000Y-89300000D01*
G37*
G36*
X63000000Y-89300000D02*
X63000000Y-88900000D01*
X63400000Y-88900000D01*
X63400000Y-89300000D01*
X63000000Y-89300000D01*
G37*
G36*
X62600000Y-89300000D02*
X62600000Y-88900000D01*
X63000000Y-88900000D01*
X63000000Y-89300000D01*
X62600000Y-89300000D01*
G37*
G36*
X77000000Y-89700000D02*
X77000000Y-89300000D01*
X77400000Y-89300000D01*
X77400000Y-89700000D01*
X77000000Y-89700000D01*
G37*
G36*
X76600000Y-89700000D02*
X76600000Y-89300000D01*
X77000000Y-89300000D01*
X77000000Y-89700000D01*
X76600000Y-89700000D01*
G37*
G36*
X75400000Y-89700000D02*
X75400000Y-89300000D01*
X75800000Y-89300000D01*
X75800000Y-89700000D01*
X75400000Y-89700000D01*
G37*
G36*
X74600000Y-89700000D02*
X74600000Y-89300000D01*
X75000000Y-89300000D01*
X75000000Y-89700000D01*
X74600000Y-89700000D01*
G37*
G36*
X74200000Y-89700000D02*
X74200000Y-89300000D01*
X74600000Y-89300000D01*
X74600000Y-89700000D01*
X74200000Y-89700000D01*
G37*
G36*
X73800000Y-89700000D02*
X73800000Y-89300000D01*
X74200000Y-89300000D01*
X74200000Y-89700000D01*
X73800000Y-89700000D01*
G37*
G36*
X72200000Y-89700000D02*
X72200000Y-89300000D01*
X72600000Y-89300000D01*
X72600000Y-89700000D01*
X72200000Y-89700000D01*
G37*
G36*
X71400000Y-89700000D02*
X71400000Y-89300000D01*
X71800000Y-89300000D01*
X71800000Y-89700000D01*
X71400000Y-89700000D01*
G37*
G36*
X70600000Y-89700000D02*
X70600000Y-89300000D01*
X71000000Y-89300000D01*
X71000000Y-89700000D01*
X70600000Y-89700000D01*
G37*
G36*
X70200000Y-89700000D02*
X70200000Y-89300000D01*
X70600000Y-89300000D01*
X70600000Y-89700000D01*
X70200000Y-89700000D01*
G37*
G36*
X69000000Y-89700000D02*
X69000000Y-89300000D01*
X69400000Y-89300000D01*
X69400000Y-89700000D01*
X69000000Y-89700000D01*
G37*
G36*
X68200000Y-89700000D02*
X68200000Y-89300000D01*
X68600000Y-89300000D01*
X68600000Y-89700000D01*
X68200000Y-89700000D01*
G37*
G36*
X67800000Y-89700000D02*
X67800000Y-89300000D01*
X68200000Y-89300000D01*
X68200000Y-89700000D01*
X67800000Y-89700000D01*
G37*
G36*
X67000000Y-89700000D02*
X67000000Y-89300000D01*
X67400000Y-89300000D01*
X67400000Y-89700000D01*
X67000000Y-89700000D01*
G37*
G36*
X66600000Y-89700000D02*
X66600000Y-89300000D01*
X67000000Y-89300000D01*
X67000000Y-89700000D01*
X66600000Y-89700000D01*
G37*
G36*
X65000000Y-89700000D02*
X65000000Y-89300000D01*
X65400000Y-89300000D01*
X65400000Y-89700000D01*
X65000000Y-89700000D01*
G37*
G36*
X64600000Y-89700000D02*
X64600000Y-89300000D01*
X65000000Y-89300000D01*
X65000000Y-89700000D01*
X64600000Y-89700000D01*
G37*
G36*
X63400000Y-89700000D02*
X63400000Y-89300000D01*
X63800000Y-89300000D01*
X63800000Y-89700000D01*
X63400000Y-89700000D01*
G37*
G36*
X63000000Y-89700000D02*
X63000000Y-89300000D01*
X63400000Y-89300000D01*
X63400000Y-89700000D01*
X63000000Y-89700000D01*
G37*
G36*
X62600000Y-89700000D02*
X62600000Y-89300000D01*
X63000000Y-89300000D01*
X63000000Y-89700000D01*
X62600000Y-89700000D01*
G37*
G36*
X77000000Y-90100000D02*
X77000000Y-89700000D01*
X77400000Y-89700000D01*
X77400000Y-90100000D01*
X77000000Y-90100000D01*
G37*
G36*
X76600000Y-90100000D02*
X76600000Y-89700000D01*
X77000000Y-89700000D01*
X77000000Y-90100000D01*
X76600000Y-90100000D01*
G37*
G36*
X76200000Y-90100000D02*
X76200000Y-89700000D01*
X76600000Y-89700000D01*
X76600000Y-90100000D01*
X76200000Y-90100000D01*
G37*
G36*
X75800000Y-90100000D02*
X75800000Y-89700000D01*
X76200000Y-89700000D01*
X76200000Y-90100000D01*
X75800000Y-90100000D01*
G37*
G36*
X75400000Y-90100000D02*
X75400000Y-89700000D01*
X75800000Y-89700000D01*
X75800000Y-90100000D01*
X75400000Y-90100000D01*
G37*
G36*
X74600000Y-90100000D02*
X74600000Y-89700000D01*
X75000000Y-89700000D01*
X75000000Y-90100000D01*
X74600000Y-90100000D01*
G37*
G36*
X74200000Y-90100000D02*
X74200000Y-89700000D01*
X74600000Y-89700000D01*
X74600000Y-90100000D01*
X74200000Y-90100000D01*
G37*
G36*
X73400000Y-90100000D02*
X73400000Y-89700000D01*
X73800000Y-89700000D01*
X73800000Y-90100000D01*
X73400000Y-90100000D01*
G37*
G36*
X71400000Y-90100000D02*
X71400000Y-89700000D01*
X71800000Y-89700000D01*
X71800000Y-90100000D01*
X71400000Y-90100000D01*
G37*
G36*
X71000000Y-90100000D02*
X71000000Y-89700000D01*
X71400000Y-89700000D01*
X71400000Y-90100000D01*
X71000000Y-90100000D01*
G37*
G36*
X70200000Y-90100000D02*
X70200000Y-89700000D01*
X70600000Y-89700000D01*
X70600000Y-90100000D01*
X70200000Y-90100000D01*
G37*
G36*
X69400000Y-90100000D02*
X69400000Y-89700000D01*
X69800000Y-89700000D01*
X69800000Y-90100000D01*
X69400000Y-90100000D01*
G37*
G36*
X68200000Y-90100000D02*
X68200000Y-89700000D01*
X68600000Y-89700000D01*
X68600000Y-90100000D01*
X68200000Y-90100000D01*
G37*
G36*
X67800000Y-90100000D02*
X67800000Y-89700000D01*
X68200000Y-89700000D01*
X68200000Y-90100000D01*
X67800000Y-90100000D01*
G37*
G36*
X67000000Y-90100000D02*
X67000000Y-89700000D01*
X67400000Y-89700000D01*
X67400000Y-90100000D01*
X67000000Y-90100000D01*
G37*
G36*
X66600000Y-90100000D02*
X66600000Y-89700000D01*
X67000000Y-89700000D01*
X67000000Y-90100000D01*
X66600000Y-90100000D01*
G37*
G36*
X65800000Y-90100000D02*
X65800000Y-89700000D01*
X66200000Y-89700000D01*
X66200000Y-90100000D01*
X65800000Y-90100000D01*
G37*
G36*
X65400000Y-90100000D02*
X65400000Y-89700000D01*
X65800000Y-89700000D01*
X65800000Y-90100000D01*
X65400000Y-90100000D01*
G37*
G36*
X64600000Y-90100000D02*
X64600000Y-89700000D01*
X65000000Y-89700000D01*
X65000000Y-90100000D01*
X64600000Y-90100000D01*
G37*
G36*
X64200000Y-90100000D02*
X64200000Y-89700000D01*
X64600000Y-89700000D01*
X64600000Y-90100000D01*
X64200000Y-90100000D01*
G37*
G36*
X63400000Y-90100000D02*
X63400000Y-89700000D01*
X63800000Y-89700000D01*
X63800000Y-90100000D01*
X63400000Y-90100000D01*
G37*
G36*
X63000000Y-90100000D02*
X63000000Y-89700000D01*
X63400000Y-89700000D01*
X63400000Y-90100000D01*
X63000000Y-90100000D01*
G37*
G36*
X62600000Y-90100000D02*
X62600000Y-89700000D01*
X63000000Y-89700000D01*
X63000000Y-90100000D01*
X62600000Y-90100000D01*
G37*
G36*
X77000000Y-90500000D02*
X77000000Y-90100000D01*
X77400000Y-90100000D01*
X77400000Y-90500000D01*
X77000000Y-90500000D01*
G37*
G36*
X76600000Y-90500000D02*
X76600000Y-90100000D01*
X77000000Y-90100000D01*
X77000000Y-90500000D01*
X76600000Y-90500000D01*
G37*
G36*
X76200000Y-90500000D02*
X76200000Y-90100000D01*
X76600000Y-90100000D01*
X76600000Y-90500000D01*
X76200000Y-90500000D01*
G37*
G36*
X75800000Y-90500000D02*
X75800000Y-90100000D01*
X76200000Y-90100000D01*
X76200000Y-90500000D01*
X75800000Y-90500000D01*
G37*
G36*
X75000000Y-90500000D02*
X75000000Y-90100000D01*
X75400000Y-90100000D01*
X75400000Y-90500000D01*
X75000000Y-90500000D01*
G37*
G36*
X73800000Y-90500000D02*
X73800000Y-90100000D01*
X74200000Y-90100000D01*
X74200000Y-90500000D01*
X73800000Y-90500000D01*
G37*
G36*
X73000000Y-90500000D02*
X73000000Y-90100000D01*
X73400000Y-90100000D01*
X73400000Y-90500000D01*
X73000000Y-90500000D01*
G37*
G36*
X72600000Y-90500000D02*
X72600000Y-90100000D01*
X73000000Y-90100000D01*
X73000000Y-90500000D01*
X72600000Y-90500000D01*
G37*
G36*
X71800000Y-90500000D02*
X71800000Y-90100000D01*
X72200000Y-90100000D01*
X72200000Y-90500000D01*
X71800000Y-90500000D01*
G37*
G36*
X71400000Y-90500000D02*
X71400000Y-90100000D01*
X71800000Y-90100000D01*
X71800000Y-90500000D01*
X71400000Y-90500000D01*
G37*
G36*
X70200000Y-90500000D02*
X70200000Y-90100000D01*
X70600000Y-90100000D01*
X70600000Y-90500000D01*
X70200000Y-90500000D01*
G37*
G36*
X69800000Y-90500000D02*
X69800000Y-90100000D01*
X70200000Y-90100000D01*
X70200000Y-90500000D01*
X69800000Y-90500000D01*
G37*
G36*
X67400000Y-90500000D02*
X67400000Y-90100000D01*
X67800000Y-90100000D01*
X67800000Y-90500000D01*
X67400000Y-90500000D01*
G37*
G36*
X67000000Y-90500000D02*
X67000000Y-90100000D01*
X67400000Y-90100000D01*
X67400000Y-90500000D01*
X67000000Y-90500000D01*
G37*
G36*
X65000000Y-90500000D02*
X65000000Y-90100000D01*
X65400000Y-90100000D01*
X65400000Y-90500000D01*
X65000000Y-90500000D01*
G37*
G36*
X64600000Y-90500000D02*
X64600000Y-90100000D01*
X65000000Y-90100000D01*
X65000000Y-90500000D01*
X64600000Y-90500000D01*
G37*
G36*
X64200000Y-90500000D02*
X64200000Y-90100000D01*
X64600000Y-90100000D01*
X64600000Y-90500000D01*
X64200000Y-90500000D01*
G37*
G36*
X63000000Y-90500000D02*
X63000000Y-90100000D01*
X63400000Y-90100000D01*
X63400000Y-90500000D01*
X63000000Y-90500000D01*
G37*
G36*
X62600000Y-90500000D02*
X62600000Y-90100000D01*
X63000000Y-90100000D01*
X63000000Y-90500000D01*
X62600000Y-90500000D01*
G37*
G36*
X77000000Y-90900000D02*
X77000000Y-90500000D01*
X77400000Y-90500000D01*
X77400000Y-90900000D01*
X77000000Y-90900000D01*
G37*
G36*
X76600000Y-90900000D02*
X76600000Y-90500000D01*
X77000000Y-90500000D01*
X77000000Y-90900000D01*
X76600000Y-90900000D01*
G37*
G36*
X75400000Y-90900000D02*
X75400000Y-90500000D01*
X75800000Y-90500000D01*
X75800000Y-90900000D01*
X75400000Y-90900000D01*
G37*
G36*
X74600000Y-90900000D02*
X74600000Y-90500000D01*
X75000000Y-90500000D01*
X75000000Y-90900000D01*
X74600000Y-90900000D01*
G37*
G36*
X73000000Y-90900000D02*
X73000000Y-90500000D01*
X73400000Y-90500000D01*
X73400000Y-90900000D01*
X73000000Y-90900000D01*
G37*
G36*
X72600000Y-90900000D02*
X72600000Y-90500000D01*
X73000000Y-90500000D01*
X73000000Y-90900000D01*
X72600000Y-90900000D01*
G37*
G36*
X72200000Y-90900000D02*
X72200000Y-90500000D01*
X72600000Y-90500000D01*
X72600000Y-90900000D01*
X72200000Y-90900000D01*
G37*
G36*
X71400000Y-90900000D02*
X71400000Y-90500000D01*
X71800000Y-90500000D01*
X71800000Y-90900000D01*
X71400000Y-90900000D01*
G37*
G36*
X71000000Y-90900000D02*
X71000000Y-90500000D01*
X71400000Y-90500000D01*
X71400000Y-90900000D01*
X71000000Y-90900000D01*
G37*
G36*
X69800000Y-90900000D02*
X69800000Y-90500000D01*
X70200000Y-90500000D01*
X70200000Y-90900000D01*
X69800000Y-90900000D01*
G37*
G36*
X69000000Y-90900000D02*
X69000000Y-90500000D01*
X69400000Y-90500000D01*
X69400000Y-90900000D01*
X69000000Y-90900000D01*
G37*
G36*
X68600000Y-90900000D02*
X68600000Y-90500000D01*
X69000000Y-90500000D01*
X69000000Y-90900000D01*
X68600000Y-90900000D01*
G37*
G36*
X64200000Y-90900000D02*
X64200000Y-90500000D01*
X64600000Y-90500000D01*
X64600000Y-90900000D01*
X64200000Y-90900000D01*
G37*
G36*
X63800000Y-90900000D02*
X63800000Y-90500000D01*
X64200000Y-90500000D01*
X64200000Y-90900000D01*
X63800000Y-90900000D01*
G37*
G36*
X63000000Y-90900000D02*
X63000000Y-90500000D01*
X63400000Y-90500000D01*
X63400000Y-90900000D01*
X63000000Y-90900000D01*
G37*
G36*
X62600000Y-90900000D02*
X62600000Y-90500000D01*
X63000000Y-90500000D01*
X63000000Y-90900000D01*
X62600000Y-90900000D01*
G37*
G36*
X77000000Y-91300000D02*
X77000000Y-90900000D01*
X77400000Y-90900000D01*
X77400000Y-91300000D01*
X77000000Y-91300000D01*
G37*
G36*
X76600000Y-91300000D02*
X76600000Y-90900000D01*
X77000000Y-90900000D01*
X77000000Y-91300000D01*
X76600000Y-91300000D01*
G37*
G36*
X76200000Y-91300000D02*
X76200000Y-90900000D01*
X76600000Y-90900000D01*
X76600000Y-91300000D01*
X76200000Y-91300000D01*
G37*
G36*
X75800000Y-91300000D02*
X75800000Y-90900000D01*
X76200000Y-90900000D01*
X76200000Y-91300000D01*
X75800000Y-91300000D01*
G37*
G36*
X75400000Y-91300000D02*
X75400000Y-90900000D01*
X75800000Y-90900000D01*
X75800000Y-91300000D01*
X75400000Y-91300000D01*
G37*
G36*
X75000000Y-91300000D02*
X75000000Y-90900000D01*
X75400000Y-90900000D01*
X75400000Y-91300000D01*
X75000000Y-91300000D01*
G37*
G36*
X74600000Y-91300000D02*
X74600000Y-90900000D01*
X75000000Y-90900000D01*
X75000000Y-91300000D01*
X74600000Y-91300000D01*
G37*
G36*
X74200000Y-91300000D02*
X74200000Y-90900000D01*
X74600000Y-90900000D01*
X74600000Y-91300000D01*
X74200000Y-91300000D01*
G37*
G36*
X73800000Y-91300000D02*
X73800000Y-90900000D01*
X74200000Y-90900000D01*
X74200000Y-91300000D01*
X73800000Y-91300000D01*
G37*
G36*
X73400000Y-91300000D02*
X73400000Y-90900000D01*
X73800000Y-90900000D01*
X73800000Y-91300000D01*
X73400000Y-91300000D01*
G37*
G36*
X71800000Y-91300000D02*
X71800000Y-90900000D01*
X72200000Y-90900000D01*
X72200000Y-91300000D01*
X71800000Y-91300000D01*
G37*
G36*
X68600000Y-91300000D02*
X68600000Y-90900000D01*
X69000000Y-90900000D01*
X69000000Y-91300000D01*
X68600000Y-91300000D01*
G37*
G36*
X67400000Y-91300000D02*
X67400000Y-90900000D01*
X67800000Y-90900000D01*
X67800000Y-91300000D01*
X67400000Y-91300000D01*
G37*
G36*
X66200000Y-91300000D02*
X66200000Y-90900000D01*
X66600000Y-90900000D01*
X66600000Y-91300000D01*
X66200000Y-91300000D01*
G37*
G36*
X65800000Y-91300000D02*
X65800000Y-90900000D01*
X66200000Y-90900000D01*
X66200000Y-91300000D01*
X65800000Y-91300000D01*
G37*
G36*
X65400000Y-91300000D02*
X65400000Y-90900000D01*
X65800000Y-90900000D01*
X65800000Y-91300000D01*
X65400000Y-91300000D01*
G37*
G36*
X64600000Y-91300000D02*
X64600000Y-90900000D01*
X65000000Y-90900000D01*
X65000000Y-91300000D01*
X64600000Y-91300000D01*
G37*
G36*
X63400000Y-91300000D02*
X63400000Y-90900000D01*
X63800000Y-90900000D01*
X63800000Y-91300000D01*
X63400000Y-91300000D01*
G37*
G36*
X63000000Y-91300000D02*
X63000000Y-90900000D01*
X63400000Y-90900000D01*
X63400000Y-91300000D01*
X63000000Y-91300000D01*
G37*
G36*
X62600000Y-91300000D02*
X62600000Y-90900000D01*
X63000000Y-90900000D01*
X63000000Y-91300000D01*
X62600000Y-91300000D01*
G37*
G36*
X77000000Y-91700000D02*
X77000000Y-91300000D01*
X77400000Y-91300000D01*
X77400000Y-91700000D01*
X77000000Y-91700000D01*
G37*
G36*
X76600000Y-91700000D02*
X76600000Y-91300000D01*
X77000000Y-91300000D01*
X77000000Y-91700000D01*
X76600000Y-91700000D01*
G37*
G36*
X73400000Y-91700000D02*
X73400000Y-91300000D01*
X73800000Y-91300000D01*
X73800000Y-91700000D01*
X73400000Y-91700000D01*
G37*
G36*
X72600000Y-91700000D02*
X72600000Y-91300000D01*
X73000000Y-91300000D01*
X73000000Y-91700000D01*
X72600000Y-91700000D01*
G37*
G36*
X72200000Y-91700000D02*
X72200000Y-91300000D01*
X72600000Y-91300000D01*
X72600000Y-91700000D01*
X72200000Y-91700000D01*
G37*
G36*
X71800000Y-91700000D02*
X71800000Y-91300000D01*
X72200000Y-91300000D01*
X72200000Y-91700000D01*
X71800000Y-91700000D01*
G37*
G36*
X71400000Y-91700000D02*
X71400000Y-91300000D01*
X71800000Y-91300000D01*
X71800000Y-91700000D01*
X71400000Y-91700000D01*
G37*
G36*
X71000000Y-91700000D02*
X71000000Y-91300000D01*
X71400000Y-91300000D01*
X71400000Y-91700000D01*
X71000000Y-91700000D01*
G37*
G36*
X70600000Y-91700000D02*
X70600000Y-91300000D01*
X71000000Y-91300000D01*
X71000000Y-91700000D01*
X70600000Y-91700000D01*
G37*
G36*
X69800000Y-91700000D02*
X69800000Y-91300000D01*
X70200000Y-91300000D01*
X70200000Y-91700000D01*
X69800000Y-91700000D01*
G37*
G36*
X69400000Y-91700000D02*
X69400000Y-91300000D01*
X69800000Y-91300000D01*
X69800000Y-91700000D01*
X69400000Y-91700000D01*
G37*
G36*
X68600000Y-91700000D02*
X68600000Y-91300000D01*
X69000000Y-91300000D01*
X69000000Y-91700000D01*
X68600000Y-91700000D01*
G37*
G36*
X67800000Y-91700000D02*
X67800000Y-91300000D01*
X68200000Y-91300000D01*
X68200000Y-91700000D01*
X67800000Y-91700000D01*
G37*
G36*
X67400000Y-91700000D02*
X67400000Y-91300000D01*
X67800000Y-91300000D01*
X67800000Y-91700000D01*
X67400000Y-91700000D01*
G37*
G36*
X67000000Y-91700000D02*
X67000000Y-91300000D01*
X67400000Y-91300000D01*
X67400000Y-91700000D01*
X67000000Y-91700000D01*
G37*
G36*
X66200000Y-91700000D02*
X66200000Y-91300000D01*
X66600000Y-91300000D01*
X66600000Y-91700000D01*
X66200000Y-91700000D01*
G37*
G36*
X65400000Y-91700000D02*
X65400000Y-91300000D01*
X65800000Y-91300000D01*
X65800000Y-91700000D01*
X65400000Y-91700000D01*
G37*
G36*
X64200000Y-91700000D02*
X64200000Y-91300000D01*
X64600000Y-91300000D01*
X64600000Y-91700000D01*
X64200000Y-91700000D01*
G37*
G36*
X63800000Y-91700000D02*
X63800000Y-91300000D01*
X64200000Y-91300000D01*
X64200000Y-91700000D01*
X63800000Y-91700000D01*
G37*
G36*
X63400000Y-91700000D02*
X63400000Y-91300000D01*
X63800000Y-91300000D01*
X63800000Y-91700000D01*
X63400000Y-91700000D01*
G37*
G36*
X63000000Y-91700000D02*
X63000000Y-91300000D01*
X63400000Y-91300000D01*
X63400000Y-91700000D01*
X63000000Y-91700000D01*
G37*
G36*
X62600000Y-91700000D02*
X62600000Y-91300000D01*
X63000000Y-91300000D01*
X63000000Y-91700000D01*
X62600000Y-91700000D01*
G37*
G36*
X77000000Y-92100000D02*
X77000000Y-91700000D01*
X77400000Y-91700000D01*
X77400000Y-92100000D01*
X77000000Y-92100000D01*
G37*
G36*
X76600000Y-92100000D02*
X76600000Y-91700000D01*
X77000000Y-91700000D01*
X77000000Y-92100000D01*
X76600000Y-92100000D01*
G37*
G36*
X75800000Y-92100000D02*
X75800000Y-91700000D01*
X76200000Y-91700000D01*
X76200000Y-92100000D01*
X75800000Y-92100000D01*
G37*
G36*
X75400000Y-92100000D02*
X75400000Y-91700000D01*
X75800000Y-91700000D01*
X75800000Y-92100000D01*
X75400000Y-92100000D01*
G37*
G36*
X75000000Y-92100000D02*
X75000000Y-91700000D01*
X75400000Y-91700000D01*
X75400000Y-92100000D01*
X75000000Y-92100000D01*
G37*
G36*
X74600000Y-92100000D02*
X74600000Y-91700000D01*
X75000000Y-91700000D01*
X75000000Y-92100000D01*
X74600000Y-92100000D01*
G37*
G36*
X74200000Y-92100000D02*
X74200000Y-91700000D01*
X74600000Y-91700000D01*
X74600000Y-92100000D01*
X74200000Y-92100000D01*
G37*
G36*
X73400000Y-92100000D02*
X73400000Y-91700000D01*
X73800000Y-91700000D01*
X73800000Y-92100000D01*
X73400000Y-92100000D01*
G37*
G36*
X73000000Y-92100000D02*
X73000000Y-91700000D01*
X73400000Y-91700000D01*
X73400000Y-92100000D01*
X73000000Y-92100000D01*
G37*
G36*
X72600000Y-92100000D02*
X72600000Y-91700000D01*
X73000000Y-91700000D01*
X73000000Y-92100000D01*
X72600000Y-92100000D01*
G37*
G36*
X71000000Y-92100000D02*
X71000000Y-91700000D01*
X71400000Y-91700000D01*
X71400000Y-92100000D01*
X71000000Y-92100000D01*
G37*
G36*
X70600000Y-92100000D02*
X70600000Y-91700000D01*
X71000000Y-91700000D01*
X71000000Y-92100000D01*
X70600000Y-92100000D01*
G37*
G36*
X69800000Y-92100000D02*
X69800000Y-91700000D01*
X70200000Y-91700000D01*
X70200000Y-92100000D01*
X69800000Y-92100000D01*
G37*
G36*
X69400000Y-92100000D02*
X69400000Y-91700000D01*
X69800000Y-91700000D01*
X69800000Y-92100000D01*
X69400000Y-92100000D01*
G37*
G36*
X69000000Y-92100000D02*
X69000000Y-91700000D01*
X69400000Y-91700000D01*
X69400000Y-92100000D01*
X69000000Y-92100000D01*
G37*
G36*
X68600000Y-92100000D02*
X68600000Y-91700000D01*
X69000000Y-91700000D01*
X69000000Y-92100000D01*
X68600000Y-92100000D01*
G37*
G36*
X67800000Y-92100000D02*
X67800000Y-91700000D01*
X68200000Y-91700000D01*
X68200000Y-92100000D01*
X67800000Y-92100000D01*
G37*
G36*
X67000000Y-92100000D02*
X67000000Y-91700000D01*
X67400000Y-91700000D01*
X67400000Y-92100000D01*
X67000000Y-92100000D01*
G37*
G36*
X66200000Y-92100000D02*
X66200000Y-91700000D01*
X66600000Y-91700000D01*
X66600000Y-92100000D01*
X66200000Y-92100000D01*
G37*
G36*
X65800000Y-92100000D02*
X65800000Y-91700000D01*
X66200000Y-91700000D01*
X66200000Y-92100000D01*
X65800000Y-92100000D01*
G37*
G36*
X65400000Y-92100000D02*
X65400000Y-91700000D01*
X65800000Y-91700000D01*
X65800000Y-92100000D01*
X65400000Y-92100000D01*
G37*
G36*
X64600000Y-92100000D02*
X64600000Y-91700000D01*
X65000000Y-91700000D01*
X65000000Y-92100000D01*
X64600000Y-92100000D01*
G37*
G36*
X64200000Y-92100000D02*
X64200000Y-91700000D01*
X64600000Y-91700000D01*
X64600000Y-92100000D01*
X64200000Y-92100000D01*
G37*
G36*
X63400000Y-92100000D02*
X63400000Y-91700000D01*
X63800000Y-91700000D01*
X63800000Y-92100000D01*
X63400000Y-92100000D01*
G37*
G36*
X63000000Y-92100000D02*
X63000000Y-91700000D01*
X63400000Y-91700000D01*
X63400000Y-92100000D01*
X63000000Y-92100000D01*
G37*
G36*
X62600000Y-92100000D02*
X62600000Y-91700000D01*
X63000000Y-91700000D01*
X63000000Y-92100000D01*
X62600000Y-92100000D01*
G37*
G36*
X77000000Y-92500000D02*
X77000000Y-92100000D01*
X77400000Y-92100000D01*
X77400000Y-92500000D01*
X77000000Y-92500000D01*
G37*
G36*
X76600000Y-92500000D02*
X76600000Y-92100000D01*
X77000000Y-92100000D01*
X77000000Y-92500000D01*
X76600000Y-92500000D01*
G37*
G36*
X75800000Y-92500000D02*
X75800000Y-92100000D01*
X76200000Y-92100000D01*
X76200000Y-92500000D01*
X75800000Y-92500000D01*
G37*
G36*
X74200000Y-92500000D02*
X74200000Y-92100000D01*
X74600000Y-92100000D01*
X74600000Y-92500000D01*
X74200000Y-92500000D01*
G37*
G36*
X73400000Y-92500000D02*
X73400000Y-92100000D01*
X73800000Y-92100000D01*
X73800000Y-92500000D01*
X73400000Y-92500000D01*
G37*
G36*
X72600000Y-92500000D02*
X72600000Y-92100000D01*
X73000000Y-92100000D01*
X73000000Y-92500000D01*
X72600000Y-92500000D01*
G37*
G36*
X71400000Y-92500000D02*
X71400000Y-92100000D01*
X71800000Y-92100000D01*
X71800000Y-92500000D01*
X71400000Y-92500000D01*
G37*
G36*
X71000000Y-92500000D02*
X71000000Y-92100000D01*
X71400000Y-92100000D01*
X71400000Y-92500000D01*
X71000000Y-92500000D01*
G37*
G36*
X70200000Y-92500000D02*
X70200000Y-92100000D01*
X70600000Y-92100000D01*
X70600000Y-92500000D01*
X70200000Y-92500000D01*
G37*
G36*
X69400000Y-92500000D02*
X69400000Y-92100000D01*
X69800000Y-92100000D01*
X69800000Y-92500000D01*
X69400000Y-92500000D01*
G37*
G36*
X69000000Y-92500000D02*
X69000000Y-92100000D01*
X69400000Y-92100000D01*
X69400000Y-92500000D01*
X69000000Y-92500000D01*
G37*
G36*
X68600000Y-92500000D02*
X68600000Y-92100000D01*
X69000000Y-92100000D01*
X69000000Y-92500000D01*
X68600000Y-92500000D01*
G37*
G36*
X68200000Y-92500000D02*
X68200000Y-92100000D01*
X68600000Y-92100000D01*
X68600000Y-92500000D01*
X68200000Y-92500000D01*
G37*
G36*
X67800000Y-92500000D02*
X67800000Y-92100000D01*
X68200000Y-92100000D01*
X68200000Y-92500000D01*
X67800000Y-92500000D01*
G37*
G36*
X67000000Y-92500000D02*
X67000000Y-92100000D01*
X67400000Y-92100000D01*
X67400000Y-92500000D01*
X67000000Y-92500000D01*
G37*
G36*
X64200000Y-92500000D02*
X64200000Y-92100000D01*
X64600000Y-92100000D01*
X64600000Y-92500000D01*
X64200000Y-92500000D01*
G37*
G36*
X63800000Y-92500000D02*
X63800000Y-92100000D01*
X64200000Y-92100000D01*
X64200000Y-92500000D01*
X63800000Y-92500000D01*
G37*
G36*
X63000000Y-92500000D02*
X63000000Y-92100000D01*
X63400000Y-92100000D01*
X63400000Y-92500000D01*
X63000000Y-92500000D01*
G37*
G36*
X62600000Y-92500000D02*
X62600000Y-92100000D01*
X63000000Y-92100000D01*
X63000000Y-92500000D01*
X62600000Y-92500000D01*
G37*
G36*
X77000000Y-92900000D02*
X77000000Y-92500000D01*
X77400000Y-92500000D01*
X77400000Y-92900000D01*
X77000000Y-92900000D01*
G37*
G36*
X76600000Y-92900000D02*
X76600000Y-92500000D01*
X77000000Y-92500000D01*
X77000000Y-92900000D01*
X76600000Y-92900000D01*
G37*
G36*
X75800000Y-92900000D02*
X75800000Y-92500000D01*
X76200000Y-92500000D01*
X76200000Y-92900000D01*
X75800000Y-92900000D01*
G37*
G36*
X74200000Y-92900000D02*
X74200000Y-92500000D01*
X74600000Y-92500000D01*
X74600000Y-92900000D01*
X74200000Y-92900000D01*
G37*
G36*
X73400000Y-92900000D02*
X73400000Y-92500000D01*
X73800000Y-92500000D01*
X73800000Y-92900000D01*
X73400000Y-92900000D01*
G37*
G36*
X73000000Y-92900000D02*
X73000000Y-92500000D01*
X73400000Y-92500000D01*
X73400000Y-92900000D01*
X73000000Y-92900000D01*
G37*
G36*
X72600000Y-92900000D02*
X72600000Y-92500000D01*
X73000000Y-92500000D01*
X73000000Y-92900000D01*
X72600000Y-92900000D01*
G37*
G36*
X72200000Y-92900000D02*
X72200000Y-92500000D01*
X72600000Y-92500000D01*
X72600000Y-92900000D01*
X72200000Y-92900000D01*
G37*
G36*
X71400000Y-92900000D02*
X71400000Y-92500000D01*
X71800000Y-92500000D01*
X71800000Y-92900000D01*
X71400000Y-92900000D01*
G37*
G36*
X71000000Y-92900000D02*
X71000000Y-92500000D01*
X71400000Y-92500000D01*
X71400000Y-92900000D01*
X71000000Y-92900000D01*
G37*
G36*
X70200000Y-92900000D02*
X70200000Y-92500000D01*
X70600000Y-92500000D01*
X70600000Y-92900000D01*
X70200000Y-92900000D01*
G37*
G36*
X69800000Y-92900000D02*
X69800000Y-92500000D01*
X70200000Y-92500000D01*
X70200000Y-92900000D01*
X69800000Y-92900000D01*
G37*
G36*
X67400000Y-92900000D02*
X67400000Y-92500000D01*
X67800000Y-92500000D01*
X67800000Y-92900000D01*
X67400000Y-92900000D01*
G37*
G36*
X66200000Y-92900000D02*
X66200000Y-92500000D01*
X66600000Y-92500000D01*
X66600000Y-92900000D01*
X66200000Y-92900000D01*
G37*
G36*
X63400000Y-92900000D02*
X63400000Y-92500000D01*
X63800000Y-92500000D01*
X63800000Y-92900000D01*
X63400000Y-92900000D01*
G37*
G36*
X63000000Y-92900000D02*
X63000000Y-92500000D01*
X63400000Y-92500000D01*
X63400000Y-92900000D01*
X63000000Y-92900000D01*
G37*
G36*
X62600000Y-92900000D02*
X62600000Y-92500000D01*
X63000000Y-92500000D01*
X63000000Y-92900000D01*
X62600000Y-92900000D01*
G37*
G36*
X77000000Y-93300000D02*
X77000000Y-92900000D01*
X77400000Y-92900000D01*
X77400000Y-93300000D01*
X77000000Y-93300000D01*
G37*
G36*
X76600000Y-93300000D02*
X76600000Y-92900000D01*
X77000000Y-92900000D01*
X77000000Y-93300000D01*
X76600000Y-93300000D01*
G37*
G36*
X75800000Y-93300000D02*
X75800000Y-92900000D01*
X76200000Y-92900000D01*
X76200000Y-93300000D01*
X75800000Y-93300000D01*
G37*
G36*
X74200000Y-93300000D02*
X74200000Y-92900000D01*
X74600000Y-92900000D01*
X74600000Y-93300000D01*
X74200000Y-93300000D01*
G37*
G36*
X73400000Y-93300000D02*
X73400000Y-92900000D01*
X73800000Y-92900000D01*
X73800000Y-93300000D01*
X73400000Y-93300000D01*
G37*
G36*
X73000000Y-93300000D02*
X73000000Y-92900000D01*
X73400000Y-92900000D01*
X73400000Y-93300000D01*
X73000000Y-93300000D01*
G37*
G36*
X71400000Y-93300000D02*
X71400000Y-92900000D01*
X71800000Y-92900000D01*
X71800000Y-93300000D01*
X71400000Y-93300000D01*
G37*
G36*
X69800000Y-93300000D02*
X69800000Y-92900000D01*
X70200000Y-92900000D01*
X70200000Y-93300000D01*
X69800000Y-93300000D01*
G37*
G36*
X69400000Y-93300000D02*
X69400000Y-92900000D01*
X69800000Y-92900000D01*
X69800000Y-93300000D01*
X69400000Y-93300000D01*
G37*
G36*
X68600000Y-93300000D02*
X68600000Y-92900000D01*
X69000000Y-92900000D01*
X69000000Y-93300000D01*
X68600000Y-93300000D01*
G37*
G36*
X67800000Y-93300000D02*
X67800000Y-92900000D01*
X68200000Y-92900000D01*
X68200000Y-93300000D01*
X67800000Y-93300000D01*
G37*
G36*
X67400000Y-93300000D02*
X67400000Y-92900000D01*
X67800000Y-92900000D01*
X67800000Y-93300000D01*
X67400000Y-93300000D01*
G37*
G36*
X66200000Y-93300000D02*
X66200000Y-92900000D01*
X66600000Y-92900000D01*
X66600000Y-93300000D01*
X66200000Y-93300000D01*
G37*
G36*
X64200000Y-93300000D02*
X64200000Y-92900000D01*
X64600000Y-92900000D01*
X64600000Y-93300000D01*
X64200000Y-93300000D01*
G37*
G36*
X63800000Y-93300000D02*
X63800000Y-92900000D01*
X64200000Y-92900000D01*
X64200000Y-93300000D01*
X63800000Y-93300000D01*
G37*
G36*
X63400000Y-93300000D02*
X63400000Y-92900000D01*
X63800000Y-92900000D01*
X63800000Y-93300000D01*
X63400000Y-93300000D01*
G37*
G36*
X63000000Y-93300000D02*
X63000000Y-92900000D01*
X63400000Y-92900000D01*
X63400000Y-93300000D01*
X63000000Y-93300000D01*
G37*
G36*
X62600000Y-93300000D02*
X62600000Y-92900000D01*
X63000000Y-92900000D01*
X63000000Y-93300000D01*
X62600000Y-93300000D01*
G37*
G36*
X77000000Y-93700000D02*
X77000000Y-93300000D01*
X77400000Y-93300000D01*
X77400000Y-93700000D01*
X77000000Y-93700000D01*
G37*
G36*
X76600000Y-93700000D02*
X76600000Y-93300000D01*
X77000000Y-93300000D01*
X77000000Y-93700000D01*
X76600000Y-93700000D01*
G37*
G36*
X75800000Y-93700000D02*
X75800000Y-93300000D01*
X76200000Y-93300000D01*
X76200000Y-93700000D01*
X75800000Y-93700000D01*
G37*
G36*
X75400000Y-93700000D02*
X75400000Y-93300000D01*
X75800000Y-93300000D01*
X75800000Y-93700000D01*
X75400000Y-93700000D01*
G37*
G36*
X75000000Y-93700000D02*
X75000000Y-93300000D01*
X75400000Y-93300000D01*
X75400000Y-93700000D01*
X75000000Y-93700000D01*
G37*
G36*
X74600000Y-93700000D02*
X74600000Y-93300000D01*
X75000000Y-93300000D01*
X75000000Y-93700000D01*
X74600000Y-93700000D01*
G37*
G36*
X74200000Y-93700000D02*
X74200000Y-93300000D01*
X74600000Y-93300000D01*
X74600000Y-93700000D01*
X74200000Y-93700000D01*
G37*
G36*
X73400000Y-93700000D02*
X73400000Y-93300000D01*
X73800000Y-93300000D01*
X73800000Y-93700000D01*
X73400000Y-93700000D01*
G37*
G36*
X73000000Y-93700000D02*
X73000000Y-93300000D01*
X73400000Y-93300000D01*
X73400000Y-93700000D01*
X73000000Y-93700000D01*
G37*
G36*
X72600000Y-93700000D02*
X72600000Y-93300000D01*
X73000000Y-93300000D01*
X73000000Y-93700000D01*
X72600000Y-93700000D01*
G37*
G36*
X72200000Y-93700000D02*
X72200000Y-93300000D01*
X72600000Y-93300000D01*
X72600000Y-93700000D01*
X72200000Y-93700000D01*
G37*
G36*
X71400000Y-93700000D02*
X71400000Y-93300000D01*
X71800000Y-93300000D01*
X71800000Y-93700000D01*
X71400000Y-93700000D01*
G37*
G36*
X69000000Y-93700000D02*
X69000000Y-93300000D01*
X69400000Y-93300000D01*
X69400000Y-93700000D01*
X69000000Y-93700000D01*
G37*
G36*
X68600000Y-93700000D02*
X68600000Y-93300000D01*
X69000000Y-93300000D01*
X69000000Y-93700000D01*
X68600000Y-93700000D01*
G37*
G36*
X68200000Y-93700000D02*
X68200000Y-93300000D01*
X68600000Y-93300000D01*
X68600000Y-93700000D01*
X68200000Y-93700000D01*
G37*
G36*
X67400000Y-93700000D02*
X67400000Y-93300000D01*
X67800000Y-93300000D01*
X67800000Y-93700000D01*
X67400000Y-93700000D01*
G37*
G36*
X67000000Y-93700000D02*
X67000000Y-93300000D01*
X67400000Y-93300000D01*
X67400000Y-93700000D01*
X67000000Y-93700000D01*
G37*
G36*
X66600000Y-93700000D02*
X66600000Y-93300000D01*
X67000000Y-93300000D01*
X67000000Y-93700000D01*
X66600000Y-93700000D01*
G37*
G36*
X66200000Y-93700000D02*
X66200000Y-93300000D01*
X66600000Y-93300000D01*
X66600000Y-93700000D01*
X66200000Y-93700000D01*
G37*
G36*
X65800000Y-93700000D02*
X65800000Y-93300000D01*
X66200000Y-93300000D01*
X66200000Y-93700000D01*
X65800000Y-93700000D01*
G37*
G36*
X65400000Y-93700000D02*
X65400000Y-93300000D01*
X65800000Y-93300000D01*
X65800000Y-93700000D01*
X65400000Y-93700000D01*
G37*
G36*
X65000000Y-93700000D02*
X65000000Y-93300000D01*
X65400000Y-93300000D01*
X65400000Y-93700000D01*
X65000000Y-93700000D01*
G37*
G36*
X64600000Y-93700000D02*
X64600000Y-93300000D01*
X65000000Y-93300000D01*
X65000000Y-93700000D01*
X64600000Y-93700000D01*
G37*
G36*
X64200000Y-93700000D02*
X64200000Y-93300000D01*
X64600000Y-93300000D01*
X64600000Y-93700000D01*
X64200000Y-93700000D01*
G37*
G36*
X63800000Y-93700000D02*
X63800000Y-93300000D01*
X64200000Y-93300000D01*
X64200000Y-93700000D01*
X63800000Y-93700000D01*
G37*
G36*
X63400000Y-93700000D02*
X63400000Y-93300000D01*
X63800000Y-93300000D01*
X63800000Y-93700000D01*
X63400000Y-93700000D01*
G37*
G36*
X63000000Y-93700000D02*
X63000000Y-93300000D01*
X63400000Y-93300000D01*
X63400000Y-93700000D01*
X63000000Y-93700000D01*
G37*
G36*
X62600000Y-93700000D02*
X62600000Y-93300000D01*
X63000000Y-93300000D01*
X63000000Y-93700000D01*
X62600000Y-93700000D01*
G37*
G36*
X77000000Y-94100000D02*
X77000000Y-93700000D01*
X77400000Y-93700000D01*
X77400000Y-94100000D01*
X77000000Y-94100000D01*
G37*
G36*
X76600000Y-94100000D02*
X76600000Y-93700000D01*
X77000000Y-93700000D01*
X77000000Y-94100000D01*
X76600000Y-94100000D01*
G37*
G36*
X73400000Y-94100000D02*
X73400000Y-93700000D01*
X73800000Y-93700000D01*
X73800000Y-94100000D01*
X73400000Y-94100000D01*
G37*
G36*
X72200000Y-94100000D02*
X72200000Y-93700000D01*
X72600000Y-93700000D01*
X72600000Y-94100000D01*
X72200000Y-94100000D01*
G37*
G36*
X71400000Y-94100000D02*
X71400000Y-93700000D01*
X71800000Y-93700000D01*
X71800000Y-94100000D01*
X71400000Y-94100000D01*
G37*
G36*
X70600000Y-94100000D02*
X70600000Y-93700000D01*
X71000000Y-93700000D01*
X71000000Y-94100000D01*
X70600000Y-94100000D01*
G37*
G36*
X70200000Y-94100000D02*
X70200000Y-93700000D01*
X70600000Y-93700000D01*
X70600000Y-94100000D01*
X70200000Y-94100000D01*
G37*
G36*
X69800000Y-94100000D02*
X69800000Y-93700000D01*
X70200000Y-93700000D01*
X70200000Y-94100000D01*
X69800000Y-94100000D01*
G37*
G36*
X69000000Y-94100000D02*
X69000000Y-93700000D01*
X69400000Y-93700000D01*
X69400000Y-94100000D01*
X69000000Y-94100000D01*
G37*
G36*
X67000000Y-94100000D02*
X67000000Y-93700000D01*
X67400000Y-93700000D01*
X67400000Y-94100000D01*
X67000000Y-94100000D01*
G37*
G36*
X66200000Y-94100000D02*
X66200000Y-93700000D01*
X66600000Y-93700000D01*
X66600000Y-94100000D01*
X66200000Y-94100000D01*
G37*
G36*
X65400000Y-94100000D02*
X65400000Y-93700000D01*
X65800000Y-93700000D01*
X65800000Y-94100000D01*
X65400000Y-94100000D01*
G37*
G36*
X65000000Y-94100000D02*
X65000000Y-93700000D01*
X65400000Y-93700000D01*
X65400000Y-94100000D01*
X65000000Y-94100000D01*
G37*
G36*
X64600000Y-94100000D02*
X64600000Y-93700000D01*
X65000000Y-93700000D01*
X65000000Y-94100000D01*
X64600000Y-94100000D01*
G37*
G36*
X64200000Y-94100000D02*
X64200000Y-93700000D01*
X64600000Y-93700000D01*
X64600000Y-94100000D01*
X64200000Y-94100000D01*
G37*
G36*
X63800000Y-94100000D02*
X63800000Y-93700000D01*
X64200000Y-93700000D01*
X64200000Y-94100000D01*
X63800000Y-94100000D01*
G37*
G36*
X63000000Y-94100000D02*
X63000000Y-93700000D01*
X63400000Y-93700000D01*
X63400000Y-94100000D01*
X63000000Y-94100000D01*
G37*
G36*
X62600000Y-94100000D02*
X62600000Y-93700000D01*
X63000000Y-93700000D01*
X63000000Y-94100000D01*
X62600000Y-94100000D01*
G37*
G36*
X77000000Y-94500000D02*
X77000000Y-94100000D01*
X77400000Y-94100000D01*
X77400000Y-94500000D01*
X77000000Y-94500000D01*
G37*
G36*
X76600000Y-94500000D02*
X76600000Y-94100000D01*
X77000000Y-94100000D01*
X77000000Y-94500000D01*
X76600000Y-94500000D01*
G37*
G36*
X76200000Y-94500000D02*
X76200000Y-94100000D01*
X76600000Y-94100000D01*
X76600000Y-94500000D01*
X76200000Y-94500000D01*
G37*
G36*
X75800000Y-94500000D02*
X75800000Y-94100000D01*
X76200000Y-94100000D01*
X76200000Y-94500000D01*
X75800000Y-94500000D01*
G37*
G36*
X75400000Y-94500000D02*
X75400000Y-94100000D01*
X75800000Y-94100000D01*
X75800000Y-94500000D01*
X75400000Y-94500000D01*
G37*
G36*
X75000000Y-94500000D02*
X75000000Y-94100000D01*
X75400000Y-94100000D01*
X75400000Y-94500000D01*
X75000000Y-94500000D01*
G37*
G36*
X74600000Y-94500000D02*
X74600000Y-94100000D01*
X75000000Y-94100000D01*
X75000000Y-94500000D01*
X74600000Y-94500000D01*
G37*
G36*
X74200000Y-94500000D02*
X74200000Y-94100000D01*
X74600000Y-94100000D01*
X74600000Y-94500000D01*
X74200000Y-94500000D01*
G37*
G36*
X73800000Y-94500000D02*
X73800000Y-94100000D01*
X74200000Y-94100000D01*
X74200000Y-94500000D01*
X73800000Y-94500000D01*
G37*
G36*
X73400000Y-94500000D02*
X73400000Y-94100000D01*
X73800000Y-94100000D01*
X73800000Y-94500000D01*
X73400000Y-94500000D01*
G37*
G36*
X73000000Y-94500000D02*
X73000000Y-94100000D01*
X73400000Y-94100000D01*
X73400000Y-94500000D01*
X73000000Y-94500000D01*
G37*
G36*
X72600000Y-94500000D02*
X72600000Y-94100000D01*
X73000000Y-94100000D01*
X73000000Y-94500000D01*
X72600000Y-94500000D01*
G37*
G36*
X72200000Y-94500000D02*
X72200000Y-94100000D01*
X72600000Y-94100000D01*
X72600000Y-94500000D01*
X72200000Y-94500000D01*
G37*
G36*
X71800000Y-94500000D02*
X71800000Y-94100000D01*
X72200000Y-94100000D01*
X72200000Y-94500000D01*
X71800000Y-94500000D01*
G37*
G36*
X71400000Y-94500000D02*
X71400000Y-94100000D01*
X71800000Y-94100000D01*
X71800000Y-94500000D01*
X71400000Y-94500000D01*
G37*
G36*
X71000000Y-94500000D02*
X71000000Y-94100000D01*
X71400000Y-94100000D01*
X71400000Y-94500000D01*
X71000000Y-94500000D01*
G37*
G36*
X70600000Y-94500000D02*
X70600000Y-94100000D01*
X71000000Y-94100000D01*
X71000000Y-94500000D01*
X70600000Y-94500000D01*
G37*
G36*
X70200000Y-94500000D02*
X70200000Y-94100000D01*
X70600000Y-94100000D01*
X70600000Y-94500000D01*
X70200000Y-94500000D01*
G37*
G36*
X69800000Y-94500000D02*
X69800000Y-94100000D01*
X70200000Y-94100000D01*
X70200000Y-94500000D01*
X69800000Y-94500000D01*
G37*
G36*
X69400000Y-94500000D02*
X69400000Y-94100000D01*
X69800000Y-94100000D01*
X69800000Y-94500000D01*
X69400000Y-94500000D01*
G37*
G36*
X69000000Y-94500000D02*
X69000000Y-94100000D01*
X69400000Y-94100000D01*
X69400000Y-94500000D01*
X69000000Y-94500000D01*
G37*
G36*
X68600000Y-94500000D02*
X68600000Y-94100000D01*
X69000000Y-94100000D01*
X69000000Y-94500000D01*
X68600000Y-94500000D01*
G37*
G36*
X68200000Y-94500000D02*
X68200000Y-94100000D01*
X68600000Y-94100000D01*
X68600000Y-94500000D01*
X68200000Y-94500000D01*
G37*
G36*
X67800000Y-94500000D02*
X67800000Y-94100000D01*
X68200000Y-94100000D01*
X68200000Y-94500000D01*
X67800000Y-94500000D01*
G37*
G36*
X67400000Y-94500000D02*
X67400000Y-94100000D01*
X67800000Y-94100000D01*
X67800000Y-94500000D01*
X67400000Y-94500000D01*
G37*
G36*
X67000000Y-94500000D02*
X67000000Y-94100000D01*
X67400000Y-94100000D01*
X67400000Y-94500000D01*
X67000000Y-94500000D01*
G37*
G36*
X66600000Y-94500000D02*
X66600000Y-94100000D01*
X67000000Y-94100000D01*
X67000000Y-94500000D01*
X66600000Y-94500000D01*
G37*
G36*
X66200000Y-94500000D02*
X66200000Y-94100000D01*
X66600000Y-94100000D01*
X66600000Y-94500000D01*
X66200000Y-94500000D01*
G37*
G36*
X65800000Y-94500000D02*
X65800000Y-94100000D01*
X66200000Y-94100000D01*
X66200000Y-94500000D01*
X65800000Y-94500000D01*
G37*
G36*
X65400000Y-94500000D02*
X65400000Y-94100000D01*
X65800000Y-94100000D01*
X65800000Y-94500000D01*
X65400000Y-94500000D01*
G37*
G36*
X65000000Y-94500000D02*
X65000000Y-94100000D01*
X65400000Y-94100000D01*
X65400000Y-94500000D01*
X65000000Y-94500000D01*
G37*
G36*
X64600000Y-94500000D02*
X64600000Y-94100000D01*
X65000000Y-94100000D01*
X65000000Y-94500000D01*
X64600000Y-94500000D01*
G37*
G36*
X64200000Y-94500000D02*
X64200000Y-94100000D01*
X64600000Y-94100000D01*
X64600000Y-94500000D01*
X64200000Y-94500000D01*
G37*
G36*
X63800000Y-94500000D02*
X63800000Y-94100000D01*
X64200000Y-94100000D01*
X64200000Y-94500000D01*
X63800000Y-94500000D01*
G37*
G36*
X63400000Y-94500000D02*
X63400000Y-94100000D01*
X63800000Y-94100000D01*
X63800000Y-94500000D01*
X63400000Y-94500000D01*
G37*
G36*
X63000000Y-94500000D02*
X63000000Y-94100000D01*
X63400000Y-94100000D01*
X63400000Y-94500000D01*
X63000000Y-94500000D01*
G37*
G36*
X62600000Y-94500000D02*
X62600000Y-94100000D01*
X63000000Y-94100000D01*
X63000000Y-94500000D01*
X62600000Y-94500000D01*
G37*
G36*
X77000000Y-94900000D02*
X77000000Y-94500000D01*
X77400000Y-94500000D01*
X77400000Y-94900000D01*
X77000000Y-94900000D01*
G37*
G36*
X76600000Y-94900000D02*
X76600000Y-94500000D01*
X77000000Y-94500000D01*
X77000000Y-94900000D01*
X76600000Y-94900000D01*
G37*
G36*
X76200000Y-94900000D02*
X76200000Y-94500000D01*
X76600000Y-94500000D01*
X76600000Y-94900000D01*
X76200000Y-94900000D01*
G37*
G36*
X75800000Y-94900000D02*
X75800000Y-94500000D01*
X76200000Y-94500000D01*
X76200000Y-94900000D01*
X75800000Y-94900000D01*
G37*
G36*
X75400000Y-94900000D02*
X75400000Y-94500000D01*
X75800000Y-94500000D01*
X75800000Y-94900000D01*
X75400000Y-94900000D01*
G37*
G36*
X75000000Y-94900000D02*
X75000000Y-94500000D01*
X75400000Y-94500000D01*
X75400000Y-94900000D01*
X75000000Y-94900000D01*
G37*
G36*
X74600000Y-94900000D02*
X74600000Y-94500000D01*
X75000000Y-94500000D01*
X75000000Y-94900000D01*
X74600000Y-94900000D01*
G37*
G36*
X74200000Y-94900000D02*
X74200000Y-94500000D01*
X74600000Y-94500000D01*
X74600000Y-94900000D01*
X74200000Y-94900000D01*
G37*
G36*
X73800000Y-94900000D02*
X73800000Y-94500000D01*
X74200000Y-94500000D01*
X74200000Y-94900000D01*
X73800000Y-94900000D01*
G37*
G36*
X73400000Y-94900000D02*
X73400000Y-94500000D01*
X73800000Y-94500000D01*
X73800000Y-94900000D01*
X73400000Y-94900000D01*
G37*
G36*
X73000000Y-94900000D02*
X73000000Y-94500000D01*
X73400000Y-94500000D01*
X73400000Y-94900000D01*
X73000000Y-94900000D01*
G37*
G36*
X72600000Y-94900000D02*
X72600000Y-94500000D01*
X73000000Y-94500000D01*
X73000000Y-94900000D01*
X72600000Y-94900000D01*
G37*
G36*
X72200000Y-94900000D02*
X72200000Y-94500000D01*
X72600000Y-94500000D01*
X72600000Y-94900000D01*
X72200000Y-94900000D01*
G37*
G36*
X71800000Y-94900000D02*
X71800000Y-94500000D01*
X72200000Y-94500000D01*
X72200000Y-94900000D01*
X71800000Y-94900000D01*
G37*
G36*
X71400000Y-94900000D02*
X71400000Y-94500000D01*
X71800000Y-94500000D01*
X71800000Y-94900000D01*
X71400000Y-94900000D01*
G37*
G36*
X71000000Y-94900000D02*
X71000000Y-94500000D01*
X71400000Y-94500000D01*
X71400000Y-94900000D01*
X71000000Y-94900000D01*
G37*
G36*
X70600000Y-94900000D02*
X70600000Y-94500000D01*
X71000000Y-94500000D01*
X71000000Y-94900000D01*
X70600000Y-94900000D01*
G37*
G36*
X70200000Y-94900000D02*
X70200000Y-94500000D01*
X70600000Y-94500000D01*
X70600000Y-94900000D01*
X70200000Y-94900000D01*
G37*
G36*
X69800000Y-94900000D02*
X69800000Y-94500000D01*
X70200000Y-94500000D01*
X70200000Y-94900000D01*
X69800000Y-94900000D01*
G37*
G36*
X69400000Y-94900000D02*
X69400000Y-94500000D01*
X69800000Y-94500000D01*
X69800000Y-94900000D01*
X69400000Y-94900000D01*
G37*
G36*
X69000000Y-94900000D02*
X69000000Y-94500000D01*
X69400000Y-94500000D01*
X69400000Y-94900000D01*
X69000000Y-94900000D01*
G37*
G36*
X68600000Y-94900000D02*
X68600000Y-94500000D01*
X69000000Y-94500000D01*
X69000000Y-94900000D01*
X68600000Y-94900000D01*
G37*
G36*
X68200000Y-94900000D02*
X68200000Y-94500000D01*
X68600000Y-94500000D01*
X68600000Y-94900000D01*
X68200000Y-94900000D01*
G37*
G36*
X67800000Y-94900000D02*
X67800000Y-94500000D01*
X68200000Y-94500000D01*
X68200000Y-94900000D01*
X67800000Y-94900000D01*
G37*
G36*
X67400000Y-94900000D02*
X67400000Y-94500000D01*
X67800000Y-94500000D01*
X67800000Y-94900000D01*
X67400000Y-94900000D01*
G37*
G36*
X67000000Y-94900000D02*
X67000000Y-94500000D01*
X67400000Y-94500000D01*
X67400000Y-94900000D01*
X67000000Y-94900000D01*
G37*
G36*
X66600000Y-94900000D02*
X66600000Y-94500000D01*
X67000000Y-94500000D01*
X67000000Y-94900000D01*
X66600000Y-94900000D01*
G37*
G36*
X66200000Y-94900000D02*
X66200000Y-94500000D01*
X66600000Y-94500000D01*
X66600000Y-94900000D01*
X66200000Y-94900000D01*
G37*
G36*
X65800000Y-94900000D02*
X65800000Y-94500000D01*
X66200000Y-94500000D01*
X66200000Y-94900000D01*
X65800000Y-94900000D01*
G37*
G36*
X65400000Y-94900000D02*
X65400000Y-94500000D01*
X65800000Y-94500000D01*
X65800000Y-94900000D01*
X65400000Y-94900000D01*
G37*
G36*
X65000000Y-94900000D02*
X65000000Y-94500000D01*
X65400000Y-94500000D01*
X65400000Y-94900000D01*
X65000000Y-94900000D01*
G37*
G36*
X64600000Y-94900000D02*
X64600000Y-94500000D01*
X65000000Y-94500000D01*
X65000000Y-94900000D01*
X64600000Y-94900000D01*
G37*
G36*
X64200000Y-94900000D02*
X64200000Y-94500000D01*
X64600000Y-94500000D01*
X64600000Y-94900000D01*
X64200000Y-94900000D01*
G37*
G36*
X63800000Y-94900000D02*
X63800000Y-94500000D01*
X64200000Y-94500000D01*
X64200000Y-94900000D01*
X63800000Y-94900000D01*
G37*
G36*
X63400000Y-94900000D02*
X63400000Y-94500000D01*
X63800000Y-94500000D01*
X63800000Y-94900000D01*
X63400000Y-94900000D01*
G37*
G36*
X63000000Y-94900000D02*
X63000000Y-94500000D01*
X63400000Y-94500000D01*
X63400000Y-94900000D01*
X63000000Y-94900000D01*
G37*
G36*
X62600000Y-94900000D02*
X62600000Y-94500000D01*
X63000000Y-94500000D01*
X63000000Y-94900000D01*
X62600000Y-94900000D01*
G37*
D13*
G04 #@! TO.C,BT1*
X109360000Y-61140000D02*
X109640000Y-61140000D01*
X109640000Y-61140000D02*
X109640000Y-59540000D01*
X109640000Y-59540000D02*
X110560000Y-59540000D01*
X110560000Y-59540000D02*
X110560000Y-67360000D01*
X110560000Y-67360000D02*
X104440000Y-67360000D01*
X104440000Y-67360000D02*
X104440000Y-59540000D01*
X104440000Y-59540000D02*
X105360000Y-59540000D01*
X105360000Y-59540000D02*
X105360000Y-61140000D01*
X105360000Y-61140000D02*
X105640000Y-61140000D01*
X108000000Y-67360000D02*
X108000000Y-63000000D01*
X108000000Y-63000000D02*
X107000000Y-63000000D01*
X107000000Y-63000000D02*
X107000000Y-67360000D01*
X110560000Y-61140000D02*
X109640000Y-61140000D01*
X104440000Y-61140000D02*
X105360000Y-61140000D01*
X109800000Y-63500000D02*
X109800000Y-65100000D01*
X109800000Y-65100000D02*
X108800000Y-65100000D01*
X108800000Y-65100000D02*
X108800000Y-63500000D01*
X108800000Y-63500000D02*
X109800000Y-63500000D01*
X105200000Y-63500000D02*
X105200000Y-65100000D01*
X105200000Y-65100000D02*
X106200000Y-65100000D01*
X106200000Y-65100000D02*
X106200000Y-63500000D01*
X106200000Y-63500000D02*
X105200000Y-63500000D01*
X108800000Y-65100000D02*
X108800000Y-67360000D01*
X109300000Y-65100000D02*
X109300000Y-67360000D01*
X109360000Y-61140000D02*
X109360000Y-59925000D01*
G04 #@! TD*
M02*
